<?xml version="1.0" encoding="UTF-8"?>
<!DOCTYPE svg PUBLIC "-//W3C//DTD SVG 1.1//EN" "http://www.w3.org/Graphics/SVG/1.1/DTD/svg11.dtd">
<!-- Creator: CorelDRAW 2017 -->
<svg xmlns="http://www.w3.org/2000/svg" xml:space="preserve" width="102.51mm" height="16.02mm" version="1.1" style="shape-rendering:geometricPrecision; text-rendering:geometricPrecision; image-rendering:optimizeQuality; fill-rule:evenodd; clip-rule:evenodd"
viewBox="0 0 10251 1602"
 xmlns:xlink="http://www.w3.org/1999/xlink">
 <defs>
  <style type="text/css">
   <![CDATA[
    .str0 {stroke:#E2D6D1;stroke-width:7.63;stroke-linecap:round;stroke-linejoin:round;stroke-miterlimit:10}
    .fil11 {fill:none;fill-rule:nonzero}
    .fil10 {fill:#FEFEFE;fill-rule:nonzero}
    .fil9 {fill:#FEF3EC;fill-rule:nonzero}
    .fil3 {fill:#FBC4A2;fill-rule:nonzero}
    .fil2 {fill:#F3E5DF;fill-rule:nonzero}
    .fil6 {fill:#F1B896;fill-rule:nonzero}
    .fil1 {fill:#C6C9C9;fill-rule:nonzero}
    .fil0 {fill:#A8AAAB;fill-rule:nonzero}
    .fil4 {fill:#2F353A;fill-rule:nonzero}
    .fil7 {fill:#2C3337;fill-rule:nonzero}
    .fil5 {fill:#23343F;fill-rule:nonzero}
    .fil8 {fill:#263B4C;fill-rule:nonzero}
   ]]>
  </style>
 </defs>
 <g id="Camada_x0020_1">
  <metadata id="CorelCorpID_0Corel-Layer"/>
  <polygon class="fil0" points="9508,1528.75 9816.41,1528.75 9816.41,1039.34 9508,1039.34 "/>
  <polygon class="fil1" points="9200.81,1528.75 9509.22,1528.75 9509.22,1039.34 9200.81,1039.34 "/>
  <polygon class="fil2" points="9347.64,445.87 9334.47,708.92 9272.65,901.78 9383.93,901.78 9441.84,735.61 9459.89,546.75 "/>
  <polygon class="fil3" points="9344.52,1365.38 9366.9,1469.66 9291.75,1478.56 9270.36,1375.89 "/>
  <path class="fil4" d="M9371.4 1460.24c-1.9,-5.59 -7.94,-7.66 -12.05,-4.01 -8.06,7.17 -22.5,15.87 -43.86,13.73 -22.19,-2.23 -30.54,-15.29 -33.69,-24.67 -1.67,-4.93 -6.42,-7.44 -10.62,-5.34l-134.58 67.65c-8.18,4.12 -14.55,11.78 -17.72,21.33l0 0c-2.98,8.97 3.01,18.61 11.43,18.38l232.55 -6.43c9.14,-0.25 16.16,-9.22 15.37,-19.66l-3.86 -51.23c-0.07,-0.85 -0.23,-1.68 -0.51,-2.49l-2.46 -7.26z"/>
  <path class="fil5" d="M9343.21 861.07l-174.5 0c0,0 -106.29,-5.95 -112.64,81.3 -6.34,87.26 155.9,336.74 181.29,470l145.94 -12.03 -105.13 -362.49 261.37 1.49c19.36,0.11 38.66,-2.72 56.95,-9.06 50.87,-17.64 128.56,-42.93 86.22,-183.09l-339.5 13.88z"/>
  <polygon class="fil3" points="9477.89,1365.77 9513.41,1490.4 9438.26,1499.29 9403.73,1376.28 "/>
  <path class="fil4" d="M9517.93 1480.97c-1.91,-5.59 -7.95,-7.65 -12.06,-4 -8.06,7.17 -22.5,15.86 -43.87,13.73 -22.18,-2.23 -30.54,-15.31 -33.68,-24.67 -1.66,-4.93 -6.42,-7.46 -10.62,-5.34l-134.58 67.65c-8.17,4.1 -14.55,11.78 -17.72,21.33l0 0c-2.99,8.97 3.01,18.6 11.43,18.37l236.58 -6.43c9.16,-0.25 16.18,-9.22 15.4,-19.66l-7.92 -51.23c-0.06,-0.84 -0.24,-1.69 -0.5,-2.48l-2.46 -7.27z"/>
  <path class="fil2" d="M9551.8 342.5c3.93,3.8 179.06,48.52 179.06,48.52l-37.46 99.49 -191.5 -14.42 49.9 -133.59z"/>
  <path class="fil2" d="M9479.55 366.43c0,0 -114.14,41.7 -131.91,79.44l0 0c6.15,53.29 24.88,104.54 55.79,148.4 37.9,53.77 84.81,146.23 76.12,266.8l329.91 0c0,0 -17.76,-339.2 -115.45,-469.34l-214.46 -25.3z"/>
  <path class="fil3" d="M9516.95 420.28l0 0c32.42,-6.63 53.32,-38.28 46.69,-70.69l-19.41 -94.87 -117.37 24 19.41 94.87c6.63,32.42 38.28,53.32 70.68,46.69z"/>
  <path class="fil6" d="M9552.29 287.82c0,0 -12.33,76.9 -72.2,81.54 -52.42,4.06 -47.37,-71.73 -47.37,-71.73l119.57 -9.81z"/>
  <path class="fil3" d="M9484.9 327.25l10.35 -2.4c51.87,-12.01 84.2,-63.79 72.18,-115.66l-13.68 -59.1c-12.01,-51.87 -63.8,-84.19 -115.67,-72.18l-10.37 2.39c-51.87,12.01 -84.17,63.81 -72.17,115.68l13.68 59.08c12.01,51.88 63.79,84.2 115.68,72.19z"/>
  <path class="fil7" d="M9534.83 233.76c-2.43,4.1 -4.74,10.35 -5.47,19.72 -0.9,11.93 -6.95,23.33 -16.93,29.94 -28.79,19.02 -50.8,-29.22 -93.33,-20.7 0,0 -16.61,2.55 -19.95,21.04 -3.34,18.5 -26.49,-13.81 -31.61,-35.91 -5.1,-22.12 -7.72,109.31 97.11,98.16 0,0 52.86,-1.7 88.49,-55.65 3.93,-5.93 6.22,-12.86 6.42,-19.97 0.31,-10.58 -1.2,-26.51 -11.21,-37.91 -3.66,-4.18 -10.68,-3.49 -13.52,1.28z"/>
  <path class="fil7" d="M9534.92 203.98c0,0 -45.23,-14.94 -37.61,-81.13 0,0 -112.45,106.43 -195.7,28.31 0,0 37.24,-9.92 52.61,-35.43 28.04,-46.52 108.55,-110.49 172.96,-36.41 0,0 78.37,-12.13 55.9,108.62l-48.16 16.04z"/>
  <path class="fil3" d="M9534.92 203.98c4.29,18.51 22.79,30.05 41.28,25.76 18.53,-4.29 30.05,-22.76 25.78,-41.28 -4.29,-18.52 -22.78,-30.05 -41.3,-25.77 -18.5,4.29 -30.05,22.77 -25.76,41.29z"/>
  <polygon class="fil8" points="9477.73,416.5 9526.21,417.44 9492.22,487.73 9455.69,420.34 "/>
  <path class="fil9" d="M9567.78 345.57l-62.47 72.84 40.62 46.66 74.79 -102.73c0,0 -19.12,-30.85 -52.94,-16.77z"/>
  <path class="fil9" d="M9477.73 416.5l-35.89 40.58 -25.3 -63.23c0,0 6.67,-28.43 27.29,-22.94l33.9 45.59z"/>
  <path class="fil8" d="M9490.95 465.07c0,0 -46.88,122.29 -35.26,295.73l46.21 42.15 53.88 -51.95 -58.11 -293.92 -6.72 7.99z"/>
  <polygon class="fil3" points="9578.55,755.29 9478.19,788.31 9471.56,847.19 9604.72,807.48 "/>
  <path class="fil3" d="M9493.16 827.22c0,34.47 -27.95,62.41 -62.41,62.41 -34.46,0 -62.41,-27.94 -62.41,-62.41 0,-34.46 27.95,-62.41 62.41,-62.41 34.46,0 62.41,27.95 62.41,62.41z"/>
  <path class="fil8" d="M9479.55 861.07l-174.49 0c0,0 -106.28,-5.95 -112.63,81.3 -6.34,87.26 167.79,352.76 193.17,486.02l145.95 -12.05 -117.02 -378.49 261.36 1.49c19.36,0.11 38.66,-2.72 56.95,-9.06 50.88,-17.64 128.56,-42.93 86.22,-183.09l-339.51 13.88z"/>
  <path class="fil0" d="M8953.27 552.66l301.57 0c9.9,0 18.48,6.93 20.54,16.62l56.76 266.4c2.78,13.07 -7.18,25.39 -20.54,25.39l-306.57 0c-10.07,0 -18.71,-7.14 -20.63,-17l-51.76 -266.4c-2.52,-12.97 7.41,-25.01 20.63,-25.01z"/>
  <path class="fil1" d="M8935.9 552.66l301.56 0c9.93,0 18.48,6.93 20.55,16.62l56.76 266.4c2.8,13.07 -7.17,25.39 -20.54,25.39l-306.57 0c-10.05,0 -18.71,-7.14 -20.62,-17l-51.75 -266.4c-2.52,-12.97 7.4,-25.01 20.61,-25.01z"/>
  <path class="fil0" d="M9324.02 838.32l206.06 0c6.29,0 11.37,5.09 11.37,11.38l0 0c0,6.27 -5.08,11.37 -11.37,11.37l-210.03 0 3.97 -22.75z"/>
  <path class="fil10" d="M9122.62 699.89c0,18.16 -14.7,32.87 -32.85,32.87 -18.15,0 -32.86,-14.71 -32.86,-32.87 0,-18.13 14.71,-32.85 32.86,-32.85 18.15,0 32.85,14.72 32.85,32.85z"/>
  <path class="fil2" d="M9658.94 485.65l110.16 178 -263.79 94.13 36.14 78.05c0,0 225.54,-25.31 334.54,-109.29 10.02,-7.73 15,-20.26 13.39,-32.83 -5.13,-40.1 -27.05,-137.62 -120.23,-276.09 -18.98,-28.2 -56.69,-36.73 -86.12,-19.7l0 0c-30.67,17.75 -41.39,56.82 -24.09,87.73z"/>
  <polyline class="fil11 str0" points="9575.43,732.76 9769.1,663.65 9672.28,507.19 "/>
  <line class="fil11 str0" x1="9444.38" y1="673.83" x2="9396.74" y2= "547.94" />
  <path class="fil11 str0" d="M9578.55 830.55c0,0 148.15,-18.6 222.78,-61.3"/>
 </g>
</svg>
