<?xml version="1.0" encoding="UTF-8"?>
<!DOCTYPE svg PUBLIC "-//W3C//DTD SVG 1.1//EN" "http://www.w3.org/Graphics/SVG/1.1/DTD/svg11.dtd">
<!-- Creator: CorelDRAW 2017 -->
<svg xmlns="http://www.w3.org/2000/svg" xml:space="preserve" width="102.51mm" height="16.02mm" version="1.1" style="shape-rendering:geometricPrecision; text-rendering:geometricPrecision; image-rendering:optimizeQuality; fill-rule:evenodd; clip-rule:evenodd"
viewBox="0 0 10251 1602"
 xmlns:xlink="http://www.w3.org/1999/xlink">
 <defs>
  <style type="text/css">
   <![CDATA[
    .str0 {stroke:#ECC07C;stroke-width:7.26;stroke-linecap:round;stroke-linejoin:round;stroke-miterlimit:10}
    .fil10 {fill:none;fill-rule:nonzero}
    .fil9 {fill:#FEFEFE;fill-rule:nonzero}
    .fil5 {fill:#FFD389;fill-rule:nonzero}
    .fil4 {fill:#F2767C;fill-rule:nonzero}
    .fil1 {fill:#C6C9C9;fill-rule:nonzero}
    .fil2 {fill:#AE8263;fill-rule:nonzero}
    .fil3 {fill:#A17557;fill-rule:nonzero}
    .fil0 {fill:#A8AAAB;fill-rule:nonzero}
    .fil8 {fill:#342B2A;fill-rule:nonzero}
    .fil7 {fill:#2B2727;fill-rule:nonzero}
    .fil6 {fill:#263B4C;fill-rule:nonzero}
   ]]>
  </style>
 </defs>
 <g id="Camada_x0020_1">
  <metadata id="CorelCorpID_0Corel-Layer"/>
  <g id="_1671095865264">
   <polygon class="fil0" points="190.27,1543.09 476.71,1543.09 476.71,1064.55 190.27,1064.55 "/>
   <polygon class="fil1" points="475.59,1543.09 762.03,1543.09 762.03,1064.55 475.59,1064.55 "/>
   <path class="fil2" d="M699.69 848.19c0,0 75.39,-27.92 95.62,45.2 20.22,73.1 104.23,550.78 104.23,550.78l-67.34 0 -39.63 -189.89c0,0 -55.89,-62.22 -73.01,-194.44l-234.92 -28.01 215.05 -183.64z"/>
   <path class="fil3" d="M545.58 1023c0,0 39.96,-1.08 110.92,-23.7 70.95,-22.63 121.53,1.32 93.58,81.19 -27.95,79.85 -169.03,449.81 -169.03,449.81l-53.41 -15.98 46.11 -239.51c0,0 10.87,-118.83 60.99,-188.52 0,0 -105.48,5.25 -141.47,-0.27 -36,-5.53 52.31,-63.02 52.31,-63.02z"/>
   <path class="fil4" d="M513.08 1503.86c1.69,-5 7.09,-6.85 10.77,-3.58 7.21,6.41 20.13,14.2 39.24,12.29 19.86,-2 27.33,-13.7 30.14,-22.08 1.48,-4.4 5.75,-6.67 9.51,-4.77l120.39 60.51c7.32,3.68 13.02,10.55 15.87,19.09l0 0c2.66,8.03 -2.7,16.65 -10.23,16.43l-208.04 -5.74c-8.2,-0.22 -14.47,-8.25 -13.77,-17.59l3.46 -45.83c0.05,-0.75 0.21,-1.5 0.45,-2.22l2.21 -6.51z"/>
   <path class="fil4" d="M816.71 1424.66c0.34,-5.27 5.06,-8.47 9.47,-6.28 8.63,4.3 23.14,8.42 41.09,1.57 18.63,-7.12 22.79,-20.36 23.31,-29.19 0.27,-4.64 3.8,-7.94 7.91,-7.11l132.05 26.89c8.03,1.63 15.33,6.76 20.31,14.26l0 0c4.68,7.04 1.75,16.77 -5.57,18.54l-202.29 48.94c-7.95,1.93 -16.12,-4.18 -17.89,-13.37l-8.66 -45.14c-0.15,-0.74 -0.19,-1.5 -0.15,-2.26l0.42 -6.85z"/>
   <path class="fil3" d="M501.35 612.1l34.47 165.21 -107.72 13.83c0,0 -9.32,-171.69 0,-172.58 9.34,-0.89 73.25,-6.46 73.25,-6.46z"/>
   <path class="fil5" d="M400.46 446.18c0,0 107.63,15.21 127,178.98 0,0 -34.27,36.92 -78.04,25.51l-48.96 -204.49z"/>
   <path class="fil5" d="M353.81 440.48c0,0 -104.87,-10.4 -141.82,63.5 -36.95,73.9 70.82,150.89 33.87,320.23l232.48 -12.32 0 -149.33c0,0 42.39,-61.77 -17.66,-127.98 0,0 -3.57,-100.65 -106.87,-94.1z"/>
   <path class="fil6" d="M245.86 824.21c0,0 -85.31,107.23 17.32,212.46 0,0 52.84,61.46 285.59,51.87 0,0 61.01,-206.04 190.92,-261.46l-268.75 -35.94 -225.08 33.07z"/>
   <path class="fil7" d="M359.5 166.78c0,0 27.72,-112.96 -68.39,-113.6 -71.14,-0.47 -92.28,84.52 -5.08,141.41l73.47 -27.81z"/>
   <path class="fil4" d="M282.88 215.17c0,0 -17.38,-44.39 32.18,-66.88 49.55,-22.5 65.34,30.71 65.34,30.71l-97.52 36.17z"/>
   <path class="fil8" d="M471.2 316.23c0,0 71.56,-42.35 -5.8,-127.42 -48.32,-53.14 -133.09,-50.2 -180.25,2.51 -47.15,52.72 -2.72,145.68 -2.72,145.68l32.12 -53.38 28.08 -41.42 40.24 -16.09 31.55 2.18 26.7 3.43 21.55 9.02 8.53 75.49z"/>
   <polygon class="fil2" points="396.49,477.11 316.02,466.78 332.31,339.99 412.77,350.32 "/>
   <path class="fil3" d="M323.84 377.77c0,0 8.72,46.17 45.76,55.44 11.53,2.88 24.13,-0.42 31.18,-9.98 1.92,-2.6 3.35,-5.58 3.78,-8.91 1.71,-13.34 -33.42,-36.59 -33.42,-36.59l-47.3 0.04z"/>
   <path class="fil2" d="M380.54 410.61l-4.12 -0.52c-46.17,-5.93 -78.8,-48.17 -72.87,-94.34l4.71 -36.66c5.93,-46.18 48.17,-78.8 94.34,-72.86l4.12 0.52c46.18,5.94 78.81,48.17 72.87,94.36l-4.7 36.64c-5.93,46.18 -48.18,78.8 -94.35,72.86z"/>
   <path class="fil8" d="M312.54 306.59c0,0 57.89,-18.89 56.46,-83.86 0,0 3.67,-48.49 -47.01,-3.63 -50.67,44.86 -9.45,87.49 -9.45,87.49z"/>
   <path class="fil2" d="M325.32 324.3c-2,15.56 -16.23,26.53 -31.78,24.55 -15.55,-2 -26.53,-16.23 -24.54,-31.77 2,-15.56 16.22,-26.55 31.78,-24.54 15.54,2 26.53,16.22 24.54,31.76z"/>
   <path class="fil8" d="M343.89 274.06l-2.63 20.48c-5.89,28.93 -18.09,20.17 -22.61,7.66l0 0 25.24 -28.14z"/>
   <path class="fil8" d="M488.41 263.53c0,0 -59.1,44.29 -145.78,-21.33 -59.76,-45.24 30.6,-61.5 30.6,-61.5l84.25 17.39 30.93 65.44z"/>
   <path class="fil2" d="M316.02 466.78c0,0 50.61,90.27 86.5,62.48 38.74,-29.98 -48.71,-88.78 -48.71,-88.78l-37.79 26.3z"/>
   <path class="fil2" d="M338.46 650.67c0,0 31.26,57.6 52.67,102.85l227.92 -13.15c0,0 45.26,-37.03 80.64,-5.76l-34.96 41.96 -285.33 63.16c-10.88,2.41 -22.24,-0.69 -30.35,-8.34 -25.26,-23.85 -80.14,-79.48 -106.86,-136.14l96.27 -44.58z"/>
   <path class="fil0" d="M970.94 561.75l-280.09 0c-9.21,0 -17.16,6.43 -19.08,15.44l-52.72 247.43c-2.59,12.14 6.66,23.57 19.09,23.57l284.73 0c9.34,0 17.37,-6.62 19.16,-15.78l48.06 -247.42c2.34,-12.05 -6.88,-23.24 -19.15,-23.24z"/>
   <path class="fil1" d="M987.07 561.75l-280.1 0c-9.2,0 -17.15,6.43 -19.07,15.44l-52.73 247.43c-2.58,12.14 6.68,23.57 19.09,23.57l284.74 0c9.34,0 17.37,-6.62 19.15,-15.78l48.07 -247.42c2.34,-12.05 -6.89,-23.24 -19.15,-23.24z"/>
   <path class="fil0" d="M626.58 827.08l-191.38 0c-5.82,0 -10.56,4.72 -10.56,10.55l0 0c0,5.84 4.74,10.56 10.56,10.56l195.08 0 -3.7 -21.11z"/>
   <path class="fil9" d="M813.64 698.51c0,16.86 13.67,30.51 30.52,30.51 16.86,0 30.52,-13.65 30.52,-30.51 0,-16.85 -13.66,-30.52 -30.52,-30.52 -16.85,0 -30.52,13.67 -30.52,30.52z"/>
   <path class="fil5" d="M242.19 468.1c-3.76,1.66 -129.34,63.37 -5.8,254.51 0,0 78.88,1.33 124.59,-57.48 0,0 -15.18,-242.54 -118.79,-197.03z"/>
   <path class="fil10 str0" d="M351.82 675.7l9.16 -10.57c0,0 4.99,-41.57 -13.57,-89.52"/>
  </g>
 </g>
</svg>
