<?xml version="1.0" encoding="UTF-8"?>
<!DOCTYPE svg PUBLIC "-//W3C//DTD SVG 1.1//EN" "http://www.w3.org/Graphics/SVG/1.1/DTD/svg11.dtd">
<!-- Creator: CorelDRAW 2017 -->
<svg xmlns="http://www.w3.org/2000/svg" xml:space="preserve" width="102.51mm" height="16.02mm" version="1.1" style="shape-rendering:geometricPrecision; text-rendering:geometricPrecision; image-rendering:optimizeQuality; fill-rule:evenodd; clip-rule:evenodd"
viewBox="0 0 10251 1602"
 xmlns:xlink="http://www.w3.org/1999/xlink">
 <defs>
  <style type="text/css">
   <![CDATA[
    .fil0 {fill:#163342;fill-rule:nonzero}
    .fil15 {fill:#1C4154;fill-rule:nonzero}
    .fil13 {fill:#1D3B54;fill-rule:nonzero}
    .fil10 {fill:#252E3B;fill-rule:nonzero}
    .fil33 {fill:#28303B;fill-rule:nonzero}
    .fil9 {fill:#285173;fill-rule:nonzero}
    .fil25 {fill:#364869;fill-rule:nonzero}
    .fil21 {fill:#3B78AB;fill-rule:nonzero}
    .fil31 {fill:#3D363B;fill-rule:nonzero}
    .fil24 {fill:#434343;fill-rule:nonzero}
    .fil28 {fill:#4C6590;fill-rule:nonzero}
    .fil26 {fill:#6280BC;fill-rule:nonzero}
    .fil4 {fill:#633029;fill-rule:nonzero}
    .fil6 {fill:#693A2B;fill-rule:nonzero}
    .fil29 {fill:#73472E;fill-rule:nonzero}
    .fil1 {fill:#8E4F3A;fill-rule:nonzero}
    .fil27 {fill:#945A3B;fill-rule:nonzero}
    .fil18 {fill:#948884;fill-rule:nonzero}
    .fil11 {fill:#962E2E;fill-rule:nonzero}
    .fil12 {fill:#A77860;fill-rule:nonzero}
    .fil5 {fill:#B85858;fill-rule:nonzero}
    .fil34 {fill:#C6BFA1;fill-rule:nonzero}
    .fil32 {fill:#C8C1A2;fill-rule:nonzero}
    .fil20 {fill:#CCBBB5;fill-rule:nonzero}
    .fil17 {fill:#D1C0BA;fill-rule:nonzero}
    .fil22 {fill:#DB9C7C;fill-rule:nonzero}
    .fil8 {fill:#DBDFF0;fill-rule:nonzero}
    .fil23 {fill:#E55353;fill-rule:nonzero}
    .fil14 {fill:#EB4747;fill-rule:nonzero}
    .fil3 {fill:#EB7171;fill-rule:nonzero}
    .fil19 {fill:#EDDAD3;fill-rule:nonzero}
    .fil16 {fill:#EEA886;fill-rule:nonzero}
    .fil7 {fill:#EEA987;fill-rule:nonzero}
    .fil30 {fill:#F0E7C3;fill-rule:nonzero}
    .fil2 {fill:#FAA146;fill-rule:nonzero}
   ]]>
  </style>
 </defs>
 <g id="Camada_x0020_1">
  <metadata id="CorelCorpID_0Corel-Layer"/>
  <g id="_1671135755440">
   <path class="fil0" d="M5180.66 370.43c0,0 46.06,97.12 14.35,102.92 -43.53,7.98 -61.15,-72.46 -61.15,-72.46l46.8 -30.46z"/>
   <path class="fil1" d="M5188.98 466.28c0,0 24.88,-19.61 35.47,-30.2 10.59,-10.58 57.39,-85.72 66.83,-100.31 9.44,-14.6 20.18,-43.36 26.61,-55.81 6.45,-12.45 69.99,-108.18 69.99,-108.18l24.47 10.3c0,0 -43.8,110.76 -54.96,129.22 -11.16,18.46 -22.32,55.81 -30.91,72.12 -8.59,16.32 -54.95,82 -63.11,97.03 -8.15,15.02 -15.92,44.33 -15.92,44.33 0,0 -69.52,-18 -58.47,-58.5z"/>
   <path class="fil1" d="M5097.53 416.48c0,0 4.58,34.01 2.29,57.43 -2.29,23.42 64.11,6.25 64.11,6.25 0,0 -3.72,-50.94 2.01,-69.26 5.72,-18.32 -68.41,5.58 -68.41,5.58z"/>
   <path class="fil2" d="M5030.95 763.66c0,0 -8.94,22.09 -14.81,37.22 -5.86,15.13 -33.98,76.67 -41.68,120.38 -7.69,43.7 -19.26,122.95 -20.94,144.78 -1.69,21.83 -9.94,55.02 -18.71,72.91 -8.77,17.88 -28.39,70.23 -30.6,103.65 -2.21,33.43 -19.44,181.12 -19.44,181.12 0,0 15.04,13.08 40.74,-4.92 0,0 42.22,-139.66 52.73,-160.16 10.49,-20.49 25.68,-73.75 27.18,-93.15 1.5,-19.4 19.05,-41.23 33.79,-86.26 14.74,-45.03 76.36,-174.63 82.36,-200.28 0,0 0.58,-11.41 15.92,-9.25l-9.68 -111.37 -96.86 5.33z"/>
   <path class="fil2" d="M5226.17 764.48c0,0 9.58,23.77 15.41,38.91 5.84,15.13 33.85,76.73 41.46,120.45 7.62,43.71 19.04,122.98 20.69,144.82 1.64,21.83 9.82,55.04 18.56,72.94 8.74,17.89 28.27,70.28 30.42,103.71 2.14,33.43 19.1,181.16 19.1,181.16 0,0 -15.06,13.05 -40.72,-5 0,0 -41.98,-139.74 -52.44,-160.25 -10.46,-20.51 -25.55,-73.79 -27.02,-93.2 -1.46,-19.41 -18.97,-41.27 -33.62,-86.33 -14.66,-45.06 -77.03,-175.29 -85.32,-201.78 0,0 -1.82,-11.23 -13.36,-7.73l-86.69 -115.45 193.53 7.75z"/>
   <path class="fil3" d="M4929.05 1407.15c0,0 -4,4.21 -10.11,3.82 -6.12,-0.39 -24.39,-6.93 -32.07,-3.3 -7.69,3.64 -10.1,38.88 -25.01,48.29 -14.9,9.4 -59.55,38.67 -55.83,61.4 3.77,22.96 65.58,13.32 80.64,-6.48 15.06,-19.8 29.5,-11.25 41.65,-25.16 12.16,-13.91 -0.53,-65.32 0.73,-78.57z"/>
   <path class="fil3" d="M5327.63 1410.05c0,0 4.08,3.99 10.19,3.61 6.12,-0.38 24.4,-6.89 32.08,-3.24 7.68,3.66 10.03,38.91 24.91,48.33 14.89,9.43 59.49,38.78 55.72,61.51 -3.81,22.95 -65.6,13.2 -80.63,-6.63 -15.02,-19.82 -29.47,-11.3 -41.6,-25.24 -12.13,-13.93 0.57,-65.09 -0.67,-78.34z"/>
   <path class="fil1" d="M5077.57 326.54c0,0 -6.05,-7.28 -8.31,0.05 -2.26,7.33 5.14,29.12 5.95,32.27 0,0 3.67,12.23 5.14,10.67 1.47,-1.56 -2.78,-42.99 -2.78,-42.99z"/>
   <path class="fil1" d="M5183.43 327.45c0,0 6.07,-7.28 8.32,0.05 2.26,7.33 -5.14,29.11 -5.95,32.27 0,0 -3.67,12.22 -5.14,10.66 -1.47,-1.56 2.77,-42.98 2.77,-42.98z"/>
   <path class="fil1" d="M5140.02 256.88c0,0 55.62,8.57 47.47,96.18 -8.14,87.61 -57.23,80.66 -60.51,80.59 -3.28,-0.08 -49.25,1.82 -53.23,-105.09 0,0 -1.85,-79.06 66.27,-71.68z"/>
   <path class="fil0" d="M5084.43 323.32c0,0 61.73,18.36 91.28,12.49 0,0 1.89,10.91 6.13,11.57 4.25,0.67 6.42,-20.84 6.42,-20.84 0,0 1.44,-71.25 -63.01,-71.92 -64.45,-0.67 -51.36,77.18 -51.36,77.18l0.88 13.3c0,0 9.23,3.64 9.66,-21.78z"/>
   <path class="fil4" d="M5105.11 425.28c0,0 19.47,18.46 49.43,1.52 0,0 -8.85,14.79 -25.64,14.41 -16.79,-0.37 -23.79,-15.93 -23.79,-15.93z"/>
   <path class="fil1" d="M5162.86 456.3c0,0 18.39,8.69 26.12,9.98 7.72,1.29 58.81,42.93 60.52,47.22 1.72,4.29 -12.01,39.5 -17.17,55.81 -5.15,16.31 -27.33,114.63 -25.25,121.49 2.07,6.87 21.28,75.84 22.18,81.4 -133.64,26.32 -203.26,3.77 -203.26,3.77 0,0 22.59,-66.71 21.74,-79.58 -0.86,-12.88 -13.31,-85.86 -22.33,-106.47 -9.02,-20.61 -24.04,-72.55 -24.04,-72.55 0,0 58.38,-45.51 60.1,-48.51 1.72,-3.01 30.97,-8.59 38.98,-12.56l62.41 0z"/>
   <path class="fil1" d="M5065.22 466.85c0,0 -28.08,-20.18 -38.67,-30.77 -10.59,-10.58 -57.38,-85.72 -66.82,-100.31 -9.45,-14.6 -20.18,-43.36 -26.62,-55.81 -6.44,-12.45 -69.98,-108.18 -69.98,-108.18l-24.47 10.3c0,0 43.79,110.76 54.95,129.22 11.16,18.46 22.33,55.81 30.92,72.12 8.58,16.32 54.94,82 63.1,97.03 8.15,15.02 15.92,44.33 15.92,44.33 0,0 72.71,-17.43 61.67,-57.93z"/>
   <path class="fil2" d="M5188.98 466.28c0,0 28.18,86.8 37.91,123.89 0,0 -14.82,66.38 -16.6,76.3 0,0 -83.16,-16.02 -166.43,2.87 0,0 -17.99,-78.04 -19.72,-82.43 0,0 28.51,-50.8 41.08,-120.06 0,0 10.74,-6.31 18.74,-5.37 0,0 -7.89,86.8 49.2,85.94 57.1,-0.86 39.57,-86.73 39.57,-86.73 0,0 10.27,2.62 16.25,5.59z"/>
   <path class="fil1" d="M4877.27 193.16c0,0 -6.04,-9.14 -6.41,-14.95 -0.3,-4.73 0.29,-11.59 0.17,-15.89 -0.13,-4.31 -2.66,-22.78 -4.4,-27.03 -0.71,-1.74 -9.33,-10.56 -10.4,-14.26 -1.06,-3.69 -2.29,-11.46 -5.48,-10.38 -3.19,1.08 -3.99,8.39 -3.99,8.39 0,0 -1.17,-3.3 -4.25,-3.21 -5.98,0.18 -7.62,3.58 -7.62,3.58 0,0 -3.41,-2.54 -5.89,-1.84 -5.47,1.55 -6.97,4.88 -6.97,4.88 0,0 -3.1,-0.81 -6.52,1.04 -4.38,2.36 -4.42,7.26 -4.42,7.26 0,0 -6.13,1.71 -6.51,5.25 -0.38,3.54 1.23,6.27 1.69,9.07 0.45,2.79 10.57,25.11 24.97,37.52 11.71,10.08 20.45,30.4 20.45,30.4l25.58 -19.83z"/>
   <polygon class="fil5" points="4789.6,152.95 4872.77,113.88 4879.95,129.15 4796.77,168.22 "/>
   <path class="fil6" d="M4848.51 120.71c0,0 9.65,19.56 6.54,26.38 -3.09,6.82 -6.97,-0.04 -6.97,-0.04 0,0 3.95,6.72 -1.12,10.52 -5.07,3.79 -9.18,-4.49 -9.18,-4.49 0,0 1.61,5.92 -4.7,7.78 -6.31,1.86 -8.15,-5.81 -8.15,-5.81 0,0 -2.37,9.68 -8.99,4.97 -11.17,-7.94 -11.36,-24.02 -11.36,-24.02 0,0 0.32,-3.87 6.51,-5.25 0,0 0.14,-9.57 10.94,-8.3 0,0 6.23,-9.16 12.86,-3.04 0,0 7.2,-9.37 13.62,1.3z"/>
   <path class="fil3" d="M4848.74 72.38l6.1 -2.96c4.84,-2.35 10.66,-0.33 13.01,4.51l40.63 83.71c2.35,4.84 0.34,10.66 -4.5,13l-6.1 2.97c-4.84,2.34 -10.66,0.32 -13,-4.51l-40.64 -83.72c-2.35,-4.83 -0.33,-10.65 4.5,-13z"/>
   <path class="fil3" d="M4763.32 112.55l10.6 -5.15c3.59,-1.74 7.92,-0.24 9.66,3.35l42.82 88.21c1.74,3.6 0.25,7.93 -3.35,9.67l-10.6 5.14c-3.59,1.74 -7.92,0.24 -9.66,-3.35l-42.82 -88.21c-1.74,-3.59 -0.25,-7.92 3.35,-9.66z"/>
   <path class="fil1" d="M5373.73 193.16c0,0 6.05,-9.14 6.41,-14.95 0.31,-4.73 -0.29,-11.59 -0.16,-15.89 0.12,-4.31 2.65,-22.78 4.4,-27.03 0.71,-1.74 9.33,-10.56 10.39,-14.26 1.06,-3.69 2.3,-11.46 5.49,-10.38 3.18,1.08 3.98,8.39 3.98,8.39 0,0 1.18,-3.3 4.25,-3.21 5.98,0.18 7.62,3.58 7.62,3.58 0,0 3.41,-2.54 5.89,-1.84 5.48,1.55 6.97,4.88 6.97,4.88 0,0 3.1,-0.81 6.53,1.04 4.38,2.36 4.41,7.26 4.41,7.26 0,0 6.14,1.71 6.52,5.25 0.37,3.54 -1.24,6.27 -1.69,9.07 -0.46,2.79 -10.58,25.11 -24.98,37.52 -11.71,10.08 -20.44,30.4 -20.44,30.4l-25.59 -19.83z"/>
   <polygon class="fil5" points="5461.41,152.95 5378.23,113.88 5371.06,129.15 5454.23,168.22 "/>
   <path class="fil6" d="M5402.5 120.71c0,0 -9.65,19.56 -6.55,26.38 3.1,6.82 6.97,-0.04 6.97,-0.04 0,0 -3.94,6.72 1.13,10.52 5.07,3.79 9.18,-4.49 9.18,-4.49 0,0 -1.61,5.92 4.7,7.78 6.31,1.86 8.14,-5.81 8.14,-5.81 0,0 2.38,9.68 9,4.97 11.16,-7.94 11.36,-24.02 11.36,-24.02 0,0 -0.33,-3.87 -6.52,-5.25 0,0 -0.14,-9.57 -10.94,-8.3 0,0 -6.22,-9.16 -12.86,-3.04 0,0 -7.2,-9.37 -13.61,1.3z"/>
   <path class="fil3" d="M5402.27 72.38l-6.11 -2.96c-4.83,-2.35 -10.65,-0.33 -13,4.51l-40.64 83.71c-2.34,4.84 -0.33,10.66 4.5,13l6.11 2.97c4.83,2.34 10.66,0.32 13,-4.51l40.64 -83.72c2.35,-4.83 0.33,-10.65 -4.5,-13z"/>
   <path class="fil3" d="M5487.69 112.55l-10.6 -5.15c-3.59,-1.74 -7.92,-0.24 -9.66,3.35l-42.83 88.22c-1.74,3.59 -0.24,7.92 3.36,9.66l10.6 5.14c3.59,1.75 7.91,0.24 9.66,-3.35l42.82 -88.21c1.74,-3.59 0.24,-7.92 -3.35,-9.66z"/>
  </g>
  <g id="_1671135743312">
   <path class="fil7" d="M2794.15 1140.15l27.56 35.22c2.31,-4.38 12.07,-16.88 25.77,-33.48 0,0 0,-0.02 0.02,-0.05 6.78,-8.22 14.54,-17.45 22.83,-27.19 31.1,-36.59 69.96,-80.63 93.54,-105.88 10.55,-11.31 17.9,-18.71 20.37,-20.23 12.47,-7.65 45,-53.12 49.6,-76.08 4.59,-22.98 -6.2,-62.13 -14.88,-92.24 -8.68,-30.12 -39.52,-109.87 -56.87,-138.97 -17.36,-29.1 -29.26,-60.58 -29.26,-60.58 -159.96,-84.04 -138.68,29.44 -124.72,75.38 13.95,45.95 116.2,185.3 127.94,201.98 11.74,16.66 1.02,24.15 -13.78,35.89 -14.8,11.75 -37.77,47.99 -43.9,63.81 -6.13,15.83 -84.22,142.42 -84.22,142.42z"/>
   <path class="fil8" d="M2830.39 1194.43c0,0 3.4,51.05 17.01,64.66 13.61,13.61 46.96,42.2 33.7,53.77 -13.28,11.57 -68.07,4.76 -86.95,-31.65 -18.9,-36.41 -56.66,-46.96 -49.52,-78.95 7.15,-31.99 32.75,-23.64 53.43,-62.96 20.68,-39.32 32.33,55.13 32.33,55.13z"/>
   <path class="fil7" d="M2717.74 713.92c14.64,49 45.78,113.32 53.95,129.65 8.16,16.34 38.79,68.41 36.75,91.38 -1.74,19.51 -14.17,52.31 -20.05,80.2 -1.05,4.92 -1.88,9.7 -2.41,14.23 -3.57,30.12 -3.07,195.51 -6.64,218.99 -3.57,23.48 -4.09,28.07 -4.09,28.07 0,0 14.3,12.77 43.91,8.17 0,0 26.54,-141.4 34.71,-169.47 3.98,-13.7 15.97,-49.21 27.32,-84.92 0,0 0,0 0.02,-0.02 11.94,-37.53 23.17,-75.28 23.71,-88.11 1.01,-25.01 -13.27,-115.36 -16.34,-160.79 -3.06,-45.43 -38.79,-149.4 -38.79,-149.4 0,0 -48.66,-31.47 -132.05,0 0,0 -14.62,33.01 0,82.02z"/>
   <path class="fil8" d="M2775.93 1271.43c0,0 8.86,7.39 18.22,5.36 9.36,-2.05 27.39,1.7 30.45,10.21 3.06,8.5 17.02,50.7 30.97,62.61 13.95,11.91 85.42,66.7 52.41,79.97 -33.01,13.27 -88.14,-5.1 -108.9,-44.24 -20.76,-39.13 -41.86,-36.07 -37.1,-68.74 4.77,-32.67 13.95,-45.17 13.95,-45.17z"/>
   <path class="fil9" d="M2808.12 696.06c8.96,29.5 54.36,97.58 88.8,146.89 0,0 0,0 0.02,0.02 6.8,9.76 13.17,18.76 18.76,26.6l0 0.03c10.13,14.23 17.64,24.58 20.36,28.44 11.74,16.66 1.02,24.15 -13.78,35.89 -4.84,3.84 -10.56,10.31 -16.28,17.83 0,0 35.14,21.56 57.87,57.01 0,0 0,0 0.02,-0.02 10.1,-10.84 62.21,-48.25 70.69,-96.77 4.03,-23.07 -6.13,-61.76 -14.8,-91.88 -8.68,-30.12 -40.33,-109.75 -57.69,-138.84 -17.35,-29.1 -29.26,-60.59 -29.26,-60.59 -159.95,-84.04 -138.68,29.45 -124.71,75.39z"/>
   <path class="fil9" d="M2717.74 713.92c14.64,49 45.78,113.32 53.95,129.65 8.16,16.34 38.79,68.41 36.75,91.38 -1.74,19.51 -14.17,52.31 -20.05,80.2 0,0 35.73,-0.78 92.8,15.07 0,0 0,0 0.02,-0.02 11.94,-37.53 24.2,-75.24 24.72,-88.06 1.03,-25.02 -11.59,-111.18 -14.65,-156.61 -3.06,-45.43 -41.49,-153.63 -41.49,-153.63 0,0 -48.66,-31.47 -132.05,0 0,0 -14.62,33.01 0,82.02z"/>
   <path class="fil10" d="M2762.97 35.92c0,0 -26.08,-18.83 -52.14,10.66 -26.08,29.49 -14.55,59.4 -15.36,87.57 -0.8,28.17 24.68,91.88 12.72,118.97 -11.96,27.1 0.59,42.24 0.59,42.24 0,0 82.65,26.07 79.8,-100.55 -2.86,-126.62 -25.61,-158.89 -25.61,-158.89z"/>
   <path class="fil11" d="M3020.14 1553.07c174.41,-24.86 279.17,-88.77 311.37,-189.94 20.58,-64.69 11.47,-144.94 -27.08,-238.53 -30.68,-74.45 -79.98,-157.57 -146.54,-247.02 -113.2,-152.13 -238.92,-271.61 -240.17,-272.81l-5.62 5.94c1.26,1.18 126.53,120.26 239.3,271.83 66.14,88.91 115.09,171.41 145.49,245.22 37.79,91.75 46.82,170.1 26.83,232.89 -31.17,97.94 -133.7,159.96 -304.73,184.34 -399.02,56.87 -594.44,-171.38 -615.44,-575.55 -7.88,-151.79 13.1,-275.8 13.3,-277.04l-8.04 -1.39c-0.22,1.25 -21.33,126.01 -13.42,278.67 4.65,89.74 18.27,171.47 40.47,242.91 86.8,279.26 295.99,381.57 584.28,340.48z"/>
   <path class="fil12" d="M2870.33 1114.65c-1.6,-10.33 5.45,-67.53 5.45,-67.53 -8.6,27.83 -27.71,92.74 -28.3,94.77 6.77,-8.23 14.56,-17.5 22.85,-27.24z"/>
   <path class="fil13" d="M2875.95 713.96c7.15,27.89 20.97,128.99 20.97,128.99 0,0 0,0 0.02,0.02 6.8,9.76 13.17,18.76 18.76,26.6 -0.79,-60.56 -38.95,-153.14 -39.75,-155.61z"/>
   <g>
    <path class="fil7" d="M2503.17 624.08c0,0 -11.63,4.26 -26.64,4.75 -14.99,0.49 -31.22,24.14 -34.17,30.53 -2.95,6.39 3.65,8.81 3.65,8.81 0,0 43.23,-20.16 57.16,-16.23 13.93,3.93 16.39,-2.29 16.39,-2.29l-16.39 -25.57z"/>
    <polygon class="fil14" points="2417.81,709.51 2513.26,653.14 2503.45,634.89 2405.88,687.31 "/>
    <path class="fil7" d="M2519.56 649.65c0,0 -3.13,11.37 -12.02,19.87 -8.9,8.51 -43.03,26.6 -45.77,24.73 -2.74,-1.87 -9.51,-26.57 -5.05,-33.64 4.44,-7.06 8.56,5.34 8.56,5.34 0,0 -1.13,-19.49 4.23,-18.76 5.37,0.72 5.76,12.5 5.76,12.5 0,0 0.39,-15.85 5.28,-14.07 4.9,1.78 6.01,9.25 6.01,9.25 0,0 -0.51,-13.94 4.69,-12.87 5.21,1.09 10.66,19.1 14.31,15.68 3.66,-3.42 14,-8.03 14,-8.03z"/>
   </g>
   <path class="fil14" d="M2743.95 237.15c0,0 0.34,15.31 -4.77,21.78 -5.1,6.46 -52.4,21.78 -62.61,38.11 -10.21,16.34 18.38,95.63 25.52,117.07 7.15,21.43 35.05,65.34 35.73,81.33 0.68,15.99 2.73,54.45 -0.33,67.04 -3.07,12.59 -17.7,59.22 -19.75,69.42 0,0 133.07,23.48 215.08,-11.23 0,0 -20.08,-68.74 -19.74,-85.75 0.34,-17.02 -0.68,-79.36 -2.72,-96.52 -2.04,-17.15 31.31,-52.88 12.25,-74.66 -19.06,-21.78 -67.72,-65.34 -77.25,-74.87 -9.53,-9.53 -32.67,-27.56 -32.67,-27.56 0,0 -5.51,-7.09 -9.08,-17.06 -3.02,-8.41 -4.29,-19.08 -3.51,-27.18l-60.23 -23.82c0,0 4.87,33.14 4.08,43.9z"/>
   <path class="fil7" d="M2715.02 291.6c-5.54,-2.13 -24.09,-19.4 -40.63,6.46 -16.53,25.86 -21.3,59.89 -22.67,75.89 -1.36,16 -14.63,91.88 -17.69,104.48 -3.06,12.59 -10.89,18.37 -26.54,32.67 -15.65,14.29 -104.14,112.63 -111.28,118.42l23 21.22c0,0 131.84,-96.43 144.09,-112.08 12.25,-15.66 20.07,-30.97 29.94,-64.32 9.87,-33.35 40.5,-114.68 42.21,-127.61 1.69,-12.94 8.84,-43.91 -20.43,-55.13z"/>
   <path class="fil14" d="M2725.74 397.09c0,0 -45.77,-23.82 -79.46,-24.16 0,0 11.91,-100.73 61.6,-91.2 49.68,9.53 28.07,78.27 17.86,115.36z"/>
   <path class="fil7" d="M2739.17 258.93c0,0 40.4,52.52 82.27,49.68 41.9,-2.84 -8.75,-47.31 -8.75,-47.31 0,0 -3.15,-5.43 -6.3,-13.8 -1.38,-3.7 -2.79,-7.98 -3.9,-12.64 -0.02,0 -0.02,0 -0.02,0 -1.32,-5.54 -2.28,-11.6 -2.36,-17.79l-62.67 -33.15c0,0 11.11,60.81 1.73,75.01z"/>
   <path class="fil7" d="M2793.9 235.59c10.08,0.18 38.34,-1.56 55.75,-65.51 21.26,-78.1 -13.89,-121.15 -45.5,-130.51 -31.61,-9.35 -61.76,0.16 -80.42,40.57 0,0 -13.76,31.55 2.55,90.01 16.3,58.44 56.82,65.24 67.62,65.44z"/>
   <path class="fil10" d="M2776.14 89.46c0,0 42.87,5.03 79.54,67.28 0,0 22.68,-71.23 -24.42,-106.9 -47.09,-35.66 -82.9,-9.19 -95.63,4.54 0,0 -17.33,2.99 -19.65,35.43 -2.32,32.45 -26.53,79.37 20.1,105.24 0,0 -2.84,-36.43 1.85,-44.68 4.69,-8.24 19.01,-1.72 38.21,-60.91z"/>
   <path class="fil7" d="M2741.07 136.1c-1.86,-5.74 -7.65,-8.33 -11.23,-2.48 -3.59,5.85 -0.99,29.43 7.55,32.46 8.54,3.04 7.45,-18.35 3.68,-29.98z"/>
   <path class="fil12" d="M2756.11 220.18c0,0 15.19,29.89 50.28,27.32 -1.38,-3.7 -2.81,-7.98 -3.92,-12.64 -0.77,0 -21.61,5.55 -46.36,-14.68z"/>
  </g>
  <g id="_1671135730384">
   <path class="fil15" d="M7087.24 170.37c0,0 -16.96,-67.91 24.97,-102.25 41.98,-34.33 88.5,-22.12 111.76,0 23.3,22.13 51.97,67 25.26,130.71 -26.72,63.7 -32.51,48.58 -20.67,95.5 11.81,46.92 26.32,79.35 2.67,100.71 -23.66,21.36 -60.26,15.64 -63.71,-11.06 -3.41,-26.71 -6.54,-121.67 -8.96,-135.61 -2.49,-13.93 -71.32,-78 -71.32,-78z"/>
   <path class="fil16" d="M7179.62 284.09c0,0 48.62,18.87 66.33,21.16 17.72,2.28 11.21,54.89 11.21,54.89 0,0 12.7,36.39 11.81,60.12 -1.21,31.94 -16.19,40.52 -17.33,42.81 -1.13,2.29 -14.26,77.77 -15.4,90.92 -1.14,13.16 3.67,30.02 6.65,40.88 3.35,12.2 14.2,57.13 14.2,57.13 0,0 -89.42,27.03 -224.37,2.45 0,0 8.82,-34.86 11.98,-52.1 1.71,-9.31 6.83,-27.2 4.52,-44.36 -2.28,-17.15 -21.16,-89.2 -21.7,-96.06 -0.6,-6.86 -37.74,-44.61 -4.58,-89.78 0,0 8.57,-46.89 10.88,-59.47 0,0 57.73,-26.31 73.16,-28.59 15.48,-2.29 72.64,0 72.64,0z"/>
   <path class="fil16" d="M7245.95 305.25c0,0 23.44,0.71 41.01,13.58 17.61,12.86 29.6,65.19 32.58,73.76 3.03,8.58 35.65,62.62 41.19,79.77 5.59,17.16 8.58,27.88 11.17,27.02 2.56,-0.85 36.82,-54.54 42.04,-67.55 5.87,-14.75 29.14,-79.12 29.14,-79.12l24.79 46.11 1.67 3.84c0,0 -23.87,64.55 -31.19,87.72 -7.26,23.15 -24.41,77.62 -32.55,84.91 -8.18,7.29 -39.48,17.59 -56.2,4.29 -16.75,-13.3 -55.74,-75.48 -65.62,-96.5 -9.86,-21.01 -29.17,-54.89 -29.17,-54.89 0,0 -31.02,-100.93 -8.86,-122.94z"/>
   <path class="fil16" d="M7033.82 312.68c0,0 -24.76,-0.29 -36.32,10.01 -11.59,10.29 -33.47,35.16 -38.59,57.04 -5.16,21.87 -8.18,61.33 -15.01,82.77 -6.9,21.44 -26.18,76.77 -36.03,96.92 -9.85,20.16 -18.89,104.22 -24.9,124.37 -6.01,20.16 -27.99,87.35 -27.99,87.35l34.89 17.73c0,0 70.75,-155.25 77.61,-178.84 6.83,-23.59 8.15,-52.32 14.59,-69.91 6.4,-17.58 34.71,-82.2 39.02,-94.49 4.26,-12.3 52.42,-127.52 12.73,-132.95z"/>
   <path class="fil9" d="M7029.05 664.58c0,0 -12.13,25.09 -20.13,42.28 -8,17.2 -38.06,89.85 -50.08,140.11 -12.02,50.26 -38.49,138.62 -41.9,163.86 -3.41,25.24 -15.4,63.27 -27.07,83.48 -11.66,20.22 -38.48,79.78 -43.29,118.45 -4.8,38.67 -34.89,209.09 -34.89,209.09 0,0 17.15,16.12 49.09,-3.18 0,0 59.47,-159.53 73.38,-182.67 13.87,-23.14 35.46,-84.03 38.52,-106.46 3.06,-22.44 25.46,-46.68 45.95,-98.06 20.56,-51.36 103.86,-198.53 115.53,-228.75 0,0 4.02,-12.25 15.58,-8.39l-4.45 -129.93 -116.24 0.17z"/>
   <path class="fil9" d="M7260.39 662.69c0,0 13.06,26.98 21.03,44.17 7.96,17.2 41.57,92.58 53.6,142.85 11.98,50.25 34.96,135.88 38.38,161.12 3.41,25.24 15.43,63.27 27.06,83.48 11.64,20.22 38.53,79.78 43.33,118.45 4.76,38.67 34.89,209.09 34.89,209.09 0,0 -17.18,16.12 -49.08,-3.18 0,0 -59.51,-159.53 -73.38,-182.67 -13.91,-23.14 -35.5,-84.03 -38.56,-106.46 -3.02,-22.44 -25.43,-46.68 -45.99,-98.06 -20.49,-51.36 -103.79,-198.53 -115.46,-228.75 0,0 -2.95,-13.19 -16.54,-8.12l-111.36 -128.45 232.08 -3.47z"/>
   <path class="fil16" d="M7102.68 94.26c0,0 -27.46,43.48 -10.31,104.13 17.18,60.66 41.75,64.51 62.03,58.37 24.61,-7.46 48.16,-58.75 52.14,-81.63 4.02,-22.89 19.28,-77.87 -39.76,-84.88 -27.11,-3.22 -54.57,-2.3 -64.1,4.01z"/>
   <path class="fil16" d="M7174.74 239.2c0,0 -0.42,65.96 8.61,84.35 9.04,18.38 -81.45,7.02 -81.45,7.02 0,0 11.13,-74.54 7.11,-92.42 -3.98,-17.89 65.73,1.05 65.73,1.05z"/>
   <path class="fil15" d="M7086.75 158.53c0,0 22.44,-52.64 44.53,-50.74 0,0 43.18,56.29 81.1,78.12 0,0 46.7,-76.59 -63.17,-109.78 0,0 -66.59,-26.32 -62.46,82.4z"/>
   <path class="fil12" d="M7113.39 244.15c0,0 14.4,17.37 30.23,14.66 15.79,-2.72 24.69,-10.56 24.69,-10.56 0,0 -7.3,17.3 -26.43,17.3 -16.47,0 -28.49,-21.4 -28.49,-21.4z"/>
   <path class="fil14" d="M7222.05 299.12c0,0 28.21,45.9 35.11,61.02 0,0 37.13,70.19 -5.52,102.93 0,0 -4.41,36.69 -11.98,67.17 0,0 -93.9,-19.25 -195.49,3.03 0,0 -16.65,-62.91 -16.65,-71.34 0,0 -40.01,-48.89 -4.58,-89.78 0,0 31.51,-63.8 34.11,-69.71 0,0 71.77,-45.76 165,-3.32z"/>
   <path class="fil17" d="M7580.02 334.04c0,37.9 -26.64,68.62 -59.48,68.62 -32.82,0 -59.43,-30.72 -59.43,-68.62 0,-37.9 26.61,-68.61 59.43,-68.61 32.84,0 59.48,30.71 59.48,68.61z"/>
   <path class="fil18" d="M7547.97 338.41c0,19.04 -13.38,34.47 -29.88,34.47 -16.47,0 -29.84,-15.43 -29.84,-34.47 0,-19.03 13.37,-34.46 29.84,-34.46 16.5,0 29.88,15.43 29.88,34.46z"/>
   <path class="fil16" d="M7469.54 402.66c0,0 19.74,-23.93 31.44,-31.36 11.74,-7.44 23.73,-18.31 22.3,-29.74 -1.42,-11.44 -13.44,-38.31 -20.88,-39.17 -7.43,-0.86 -35.14,8.29 -35.14,8.29l-24.18 42.03 26.46 49.95z"/>
   <path class="fil19" d="M7496.96 327.55c0,37.89 -26.6,68.62 -59.43,68.62 -32.87,0 -59.51,-30.73 -59.51,-68.62 0,-37.9 26.64,-68.62 59.51,-68.62 32.83,0 59.43,30.72 59.43,68.62z"/>
   <path class="fil20" d="M7465.8 327.55c0,20.41 -14.29,36.95 -32.01,36.95 -17.68,0 -32.01,-16.54 -32.01,-36.95 0,-20.41 14.33,-36.95 32.01,-36.95 17.72,0 32.01,16.54 32.01,36.95z"/>
   <path class="fil16" d="M7091.94 287.97c0,0 -49.01,108.06 44.5,111.06 93.51,3 57.3,-101.17 54.74,-111.16 0,0 -38.74,-24.12 -99.24,0.1z"/>
   <path class="fil20" d="M6865.93 1404.76c0,0 -5.26,4.68 -12.55,3.82 -7.29,-0.86 -28.71,-9.86 -38.17,-6 -9.42,3.85 -14.58,45.89 -33.01,56.18 -18.46,10.29 -73.77,42.46 -70.78,69.9 3.06,27.71 77.61,20.16 96.93,-2.57 19.31,-22.73 36.03,-11.58 51.47,-27.45 15.47,-15.87 3.77,-78.1 6.11,-93.88z"/>
   <path class="fil20" d="M7424.22 1404.44c0,0 5.62,5 12.95,4.14 7.26,-0.86 28.71,-9.86 38.13,-6 9.43,3.85 14.58,45.89 33.01,56.18 18.46,10.29 73.77,42.46 70.78,69.9 -3.02,27.71 -77.61,20.16 -96.92,-2.57 -19.28,-22.73 -36,-11.58 -51.47,-27.45 -15.44,-15.87 -4.09,-78.43 -6.48,-94.2z"/>
   <path class="fil21" d="M7032.72 654.45c0,0 102.33,2.2 224.37,-2.45l5.37 14.97c0,0 -90.24,17.14 -235.47,1.88l5.73 -14.4z"/>
   <path class="fil16" d="M6863.69 757.27c0,0 -7.39,7.57 -9.81,14.49 -1.89,5.46 -8.65,12.85 -11.81,17.05 -3.17,4.19 -14.87,23.71 -16.44,29.08 -0.64,2.2 0.82,17.18 -0.96,21.51 -1.85,4.33 -6.58,12.67 -2.7,14.07 3.84,1.4 10.17,-4.94 10.17,-4.94 0,0 -1.38,4.04 1.64,6.3 5.8,4.39 9.96,2.41 9.96,2.41 0,0 1.31,5.02 4.2,6.24 6.4,2.71 10.35,0.68 10.35,0.68 0,0 2.34,3.14 7,3.99 5.98,1.09 9.75,-3.55 9.75,-3.55 0,0 7.15,3.05 10.21,-0.02 3.06,-3.09 3.63,-6.91 5.33,-9.92 1.68,-3.01 9.46,-32.06 4.84,-54.78 -4.62,-22.74 8.36,-41.79 8.36,-41.79l-40.09 -0.82z"/>
   <polygon class="fil17" points="6912.46,859.87 6803.44,833.59 6808.28,813.58 6917.3,839.86 "/>
   <path class="fil22" d="M6831.79 845.61c0,0 5.72,-25.99 13.87,-30.11 8.14,-4.14 6.58,5.35 6.58,5.35 0,0 1.39,-9.4 9.11,-9.15 7.75,0.26 5.33,11.28 5.33,11.28 0,0 2.99,-6.86 10.42,-3.82 7.4,3.04 3.31,11.74 3.31,11.74 0,0 9.64,-7.39 12.34,2.13 4.59,16.09 -7.5,31.55 -7.5,31.55 0,0 -3.24,3.44 -10.21,0.02 0,0 -7.47,9.01 -16.75,-0.44 0,0 -12.91,3.96 -14.55,-6.92 0,0 -14.02,3.42 -11.95,-11.63z"/>
   <path class="fil19" d="M6796.79 891.92l-12.34 -2.81c-5.2,-1.19 -8.47,-6.38 -7.3,-11.6l26.18 -114.96c1.18,-5.22 6.37,-8.49 11.63,-7.31l12.28 2.81c5.26,1.19 8.5,6.39 7.32,11.6l-26.18 114.97c-1.21,5.22 -6.36,8.49 -11.59,7.3z"/>
   <path class="fil19" d="M6905.77 918.2l-12.31 -2.81c-5.19,-1.18 -8.5,-6.38 -7.29,-11.6l26.15 -114.96c1.21,-5.22 6.4,-8.49 11.63,-7.3l12.3 2.8c5.23,1.19 8.51,6.38 7.33,11.61l-26.21 114.97c-1.18,5.21 -6.33,8.48 -11.6,7.29z"/>
  </g>
  <g id="_1671135776272">
   <path class="fil1" d="M9207.42 1450.83c0,0 -18.07,30.13 -31.29,37.76 -13.23,7.61 -59.92,38.21 -67.83,55.83 -5.54,12.37 0.25,27.5 46.88,19.44 46.62,-8.06 45.48,-42.12 79.44,-51.85 22.7,-6.5 25.25,-10.25 25.25,-25.85 0,-4.51 -5.18,-15.49 -3.35,-23.56 1.82,-8.06 -49.1,-11.77 -49.1,-11.77z"/>
   <path class="fil1" d="M9943.06 1483.99c0,0 16.81,27.34 30.03,34.95 13.22,7.62 59.92,38.22 67.82,55.83 5.55,12.37 -0.25,27.51 -46.87,19.44 -46.62,-8.06 -45.49,-42.12 -79.44,-51.84 -22.7,-6.5 -25.25,-10.25 -25.25,-25.85 0,-4.51 7.48,-18.58 5.66,-26.65 -1.83,-8.06 48.05,-5.88 48.05,-5.88z"/>
   <path class="fil23" d="M9419.37 551.14c0,0 -22.22,-8 -20.4,-18.5 1.82,-10.49 45.21,-93.44 56.33,-105.63 31.19,-34.18 68.17,-99.18 72.91,-114.58 4.75,-15.39 152.42,-180.48 159.02,-188.68l24.98 18.56c0,0 -92.94,163.22 -107.65,183.36 -14.7,20.14 -68.21,140.41 -73.76,144.93 -5.55,4.52 -111.43,80.54 -111.43,80.54z"/>
   <path class="fil1" d="M9712.21 142.31c0,0 8.88,-13.5 18.57,-14.33 9.69,-0.83 39.85,-4.89 42.2,-9.29 2.36,-4.4 -1,-8.01 -6.16,-7.57 -5.14,0.44 -29.52,2.44 -29.34,-0.5 1.62,-25.76 59.08,-67.09 59.3,-71.61 0.2,-4.51 -3.22,-8.72 -8.06,-8.3 0,0 -27.93,11.97 -55.61,33.81 -27.66,21.85 -45.88,59.23 -45.88,59.23l24.98 18.56z"/>
   <path class="fil2" d="M9522.17 807.23c0,0 -11.72,22.41 -16.44,29.44 -4.72,7.04 -136.07,214.11 -151.68,248.94 -15.87,35.39 -25.31,53.7 -32.83,67.35 -6.11,11.12 -31.42,79.99 -50.55,135.05 -19.13,55.06 -58.13,150.12 -64.69,161.39 -6.57,11.27 53.82,12.1 53.82,12.1 0,0 76.21,-128.95 95.12,-153.23 18.92,-24.28 39.39,-67.6 45.44,-96.27 6.04,-28.66 85.11,-103.99 101.77,-129.32 15.37,-23.37 76.45,-110.59 87.01,-129.25 9.65,-17.07 30.23,-14.1 30.23,-14.1l15.68 -106.98 -112.88 -25.12z"/>
   <path class="fil2" d="M9725.24 805.59c0,0 8.36,23.82 12.01,31.45 3.64,7.62 77.11,153.7 88.69,194.97 10.3,36.68 37.65,126.83 44.1,145.61 4.1,11.98 23.46,81.88 34.4,139.07 10.95,57.17 37.32,152.74 42.19,164.81 4.86,12.07 -54.07,14.97 -54.07,14.97 0,0 -59.25,-144.85 -74.45,-171.52 -15.2,-26.69 -29.18,-72.43 -31.01,-101.66 -1.82,-29.22 -63.52,-122.72 -80.55,-144.96 -17.02,-22.23 -56.85,-112.32 -72.05,-127.57 -15.2,-15.25 -24.93,-14.06 -24.93,-14.06l0.31 -122.05 115.36 -9.06z"/>
   <path class="fil23" d="M9316.03 654.14c0,0 -20.47,-11.66 -27.52,-3.58 -7.05,8.1 -44.21,93.91 -46.63,110.11 -6.8,45.41 -34.01,114.92 -43.02,128.35 -9.01,13.43 -43.75,230.55 -45.95,240.78l30.5 7.01c0,0 68.27,-174.6 74.63,-198.58 6.36,-23.98 66.24,-141.31 66.22,-148.4 -0.01,-7.08 -8.23,-135.69 -8.23,-135.69z"/>
   <path class="fil23" d="M9296.86 599.04c0,0 -20.47,41.53 -24.44,51.23 -13.64,33.32 -20.7,62.15 -30.54,110.4 0,0 42.41,39.23 73.86,49.95 0,0 31.31,-54.09 34.57,-55.77 3.25,-1.68 64.48,46.38 83.87,67.51 13.42,14.63 17.31,79.68 22.69,89.64 5.38,9.97 245.27,-52.66 269.36,-107.31 0,0 -64.41,-104.42 -74.45,-119.39 -10.04,-14.97 -115.16,-153.44 -121.26,-161.29 -6.1,-7.83 8.86,-68.66 8.86,-68.66 0,0 -39.87,-41.86 -71.39,-43.25 0,0 -41.89,42.51 -49,47.37 -7.11,4.85 -57.86,47.29 -69.5,66.15 -11.65,18.87 -52.63,73.42 -52.63,73.42z"/>
   <path class="fil1" d="M9183.41 1136.81c0,0 -4.89,15.33 0.67,23.18 5.55,7.85 21.64,33.23 19.71,37.83 -1.93,4.59 -6.91,4.36 -9.86,0.19 -2.95,-4.18 -16.97,-23.86 -19.15,-21.85 -19.12,17.69 -14.72,87.53 -18.12,90.58 -3.4,3.05 -8.87,3.15 -11.65,-0.77 0,0 -8.49,-28.76 -9.1,-63.63 -0.6,-34.87 17,-72.54 17,-72.54l30.5 7.01z"/>
   <path class="fil1" d="M9262.64 573.34c0,0 27.7,11.3 39.6,29.69 0,0 34.32,32.84 62.19,-5.71 27.88,-38.55 -7.7,-62.45 -7.7,-62.45 0,0 -19.21,1.25 -50.34,-27.5 -31.12,-28.76 -43.75,65.97 -43.75,65.97z"/>
   <path class="fil1" d="M9135.19 458.17c0,0 -25.07,56.06 62.8,100.93 87.87,44.86 110.57,-4.25 112.46,-7.3 1.88,-3.06 31.1,-44.03 -67.81,-111.51 0,0 -73.81,-48.91 -107.45,17.88z"/>
   <path class="fil1" d="M9174.09 545.03c0,0 -9.84,1.63 -4.92,7.65 4.92,6.01 38.01,13.87 40.73,14.63 0,0 3.1,0.53 2.64,-1.66 -0.46,-2.18 -38.45,-20.62 -38.45,-20.62z"/>
   <path class="fil1" d="M9241.04 441.03c0,0 -2.71,-9.45 4.93,-7.65 7.64,1.8 30.11,28.81 30.88,29.93 0,0 1.81,2.52 -0.39,3.05 -2.21,0.53 -35.42,-25.33 -35.42,-25.33z"/>
   <path class="fil24" d="M9186.81 553.07l14.9 -0.83c0,0 -22.33,-13.9 -25.05,-17.28 -2.71,-3.38 -9.31,-4.13 -11.18,-6.7 -1.87,-2.57 3.73,-68.51 59.28,-87.05 0,0 9.83,12.13 13.63,9.43 3.79,-2.72 27.21,14.68 27.21,14.68l-3.1 -10.45c0,0 -37.55,-33.42 -44.99,-37.22 -9.9,-5.05 -51.42,-35.84 -95.19,46.8 -5.02,9.45 -7.32,20.13 -6.35,30.84 1.09,12.04 5.6,26.58 19.72,34.48 18.67,10.45 51.12,23.3 51.12,23.3z"/>
   <path class="fil4" d="M9314.54 516.89c0,0 11.99,39.66 -38.48,58.48 0,0 26.99,2.88 41.35,-17.9 14.35,-20.8 -2.87,-40.58 -2.87,-40.58z"/>
  </g>
  <g id="_1671135760432">
   <path class="fil25" d="M722.51 1028.37c0,0 -73.7,70.71 -96.85,82.7 -82.24,42.58 -400.65,-2.01 -418.08,-5.16 0,0 2.31,-26.97 4.02,-57.63 0,0 2.21,0 6.87,0.6 31.23,4.04 156,18.74 220.98,-0.58 70.18,-20.84 116,31.75 191.01,-168.18 22.62,-60.33 105.82,129.7 92.05,148.25z"/>
   <path class="fil25" d="M1064.08 875.75c0,0 129.53,147.33 130.3,193.85 0.78,46.5 96.18,370.76 96.18,370.76l-53.23 19.04c0,0 -0.65,-1.11 -2.3,-4.1 -18.36,-33.37 -129.99,-238.63 -128.94,-292.91 1.33,-71.47 -22.28,-70.41 -73.32,-103.44 -32.02,-20.72 -100.74,-67.9 -100.74,-67.9l132.05 -115.3z"/>
   <path class="fil26" d="M484.13 1090.78c-101.09,0 -266.66,-10.67 -268.51,-10.74l0.18 -4.41c2.06,0.09 203.88,13.65 296.75,11.72 91.8,-1.9 172.26,-130.92 173.04,-132.17l3.74 2.31c-0.18,0.31 -19.85,32.17 -50.76,63.81 -28.67,29.34 -72.77,68.45 -122.07,69.48 -9.36,0.2 -21.09,0 -32.37,0z"/>
   <path class="fil27" d="M990.44 345.01c0,0 33.1,41.26 35.87,104.12 1.67,37.31 -3.26,227.23 -3.26,227.23 0,0 74.2,24.25 169.41,39.73l3.99 49.78c0,0 -231.41,-18.32 -249.84,-42.32 -18.43,-23.99 1.96,-185.97 1.96,-185.97 0,0 66.4,-135.5 41.87,-192.57z"/>
   <path class="fil28" d="M944 773.28c0,0 100.38,69.11 142.49,113.05 0,0 -75.53,90.88 -147.15,120.41 0,0 -47,-42.34 -108.89,-82.73 -23.14,-15.11 -119.82,140.99 -142.83,153.82 0,0 -71.42,-31.83 -134.2,-85.49 0,0 65.59,-105.09 69.43,-120.45 3.8,-15.36 6.4,-23.34 37.03,-79.69 30.66,-56.34 276.46,-42.56 284.12,-18.92z"/>
   <path class="fil27" d="M1133.75 710.05c0,0 22.16,10.29 28.52,6.99 6.37,-3.3 19.26,-7.5 25.55,-9.51 6.28,-2 21.56,-12.78 28.62,-12.75 2.89,0.01 20.22,6.24 26.12,5.7 5.9,-0.54 17.78,-2.91 17.91,1.57 0.13,4.49 -10.01,9.15 -10.01,9.15 0,0 5.4,-0.2 6.9,3.65 2.92,7.49 -1.12,11.23 -1.12,11.23 0,0 5.48,2.94 5.78,6.36 0.68,7.55 -3.34,11.07 -3.34,11.07 0,0 3.58,5.35 1.97,8.59 -4.79,9.57 -8.17,9.11 -8.17,9.11 0,0 0.79,8.45 -4.12,10.69 -4.91,2.25 -9.48,2.22 -13.76,3.06 -4.28,0.84 -43.47,-2.84 -68.81,-14.79 -25.33,-11.96 -50.64,-12.34 -50.64,-12.34l18.6 -37.78z"/>
   <path class="fil29" d="M1208.87 724.68c-1.27,-0.53 -2.53,-1.71 -3.21,-3.1 -0.93,-1.91 -0.73,-3.94 0.57,-5.71 2.88,-3.92 14.2,-5.36 15.48,-5.51l0.16 0 25.04 0.31 -0.03 2.33 -24.96 -0.31c-4.48,0.53 -12.1,2.24 -13.81,4.56 -0.79,1.07 -0.9,2.18 -0.36,3.3 0.65,1.33 1.95,2.08 2.44,2.09l-0.07 2.33c-0.4,-0.01 -0.83,-0.11 -1.25,-0.29z"/>
   <path class="fil29" d="M1206.77 736.44c-2.54,-1.72 -3.12,-3.97 -3.16,-5.57 -0.06,-2.67 1.34,-5.13 2.75,-6.19 2.56,-1.91 16.28,-3.18 19.22,-3.25 4.18,-0.11 23.81,4.28 24.63,4.47l-0.5 2.28c-5.6,-1.26 -20.84,-4.51 -24.07,-4.43 -4.48,0.12 -16.3,1.62 -17.88,2.79 -0.9,0.68 -1.86,2.51 -1.81,4.27 0.04,1.52 0.75,2.77 2.13,3.7l-1.31 1.93z"/>
   <path class="fil29" d="M1210.34 748.13c-3.66,-1.53 -7.87,-4.33 -6.22,-9.65 1.64,-5.3 10.31,-3.86 16.05,-2.9 1.38,0.22 2.57,0.43 3.18,0.43 3.2,0.05 26.73,4.71 27.72,4.91l-0.45 2.28c-6.75,-1.34 -24.81,-4.83 -27.3,-4.86 -0.78,-0.01 -1.99,-0.21 -3.53,-0.47 -4.34,-0.72 -12.4,-2.05 -13.44,1.3 -1.08,3.45 1.21,5.74 7.9,7.89 4.3,1.39 14.07,2.42 14.17,2.44l0.16 0.01 14.85 6 -0.87 2.16 -14.54 -5.88c-1.36,-0.14 -10.22,-1.13 -14.49,-2.51 -0.85,-0.28 -1.99,-0.64 -3.19,-1.15z"/>
   <path class="fil29" d="M1225.46 771.89l0.08 -2.32c5.82,0.2 9.75,-0.73 11.87,-1.45 -5.32,-3.52 -12.18,-7.8 -13.58,-8.02 -2.22,-0.36 -11.44,-3.19 -12.81,-7.32 -0.5,-1.51 -0.13,-2.61 0.26,-3.25 1.07,-1.73 3.41,-2.12 3.67,-2.16l0.34 2.3c-0.39,0.06 -1.6,0.39 -2.02,1.09 -0.08,0.12 -0.3,0.49 -0.04,1.29 0.81,2.44 8.12,5.3 10.97,5.76 2.64,0.41 14.06,8.06 16.32,9.58l1.53 1.05 -1.6 0.93c-0.2,0.11 -5.04,2.87 -14.99,2.52z"/>
   <path class="fil29" d="M1190.09 741.75l-1.07 -2.07c9.48,-4.92 17.75,-17.19 17.84,-17.32l1.93 1.3c-0.34,0.53 -8.69,12.89 -18.7,18.09z"/>
   <path class="fil29" d="M1226.29 712.09c-2.48,-1.04 -4.82,-2.91 -5.17,-3.19l1.48 -1.81c1.13,0.92 4.53,3.33 6.55,3.36l-0.03 2.33c-0.89,-0.01 -1.87,-0.29 -2.83,-0.69z"/>
   <polygon class="fil29" points="1225.54,720.9 1227.04,713.7 1229.32,714.18 1227.81,721.38 "/>
   <polygon class="fil29" points="1223.56,735.11 1223.78,725.45 1226.11,725.51 1225.88,735.17 "/>
   <polygon class="fil29" points="1224.08,747.71 1224.73,739.77 1227.06,739.96 1226.4,747.9 "/>
   <polygon class="fil29" points="1224.62,757.57 1226.01,751.78 1228.28,752.32 1226.89,758.11 "/>
   <path class="fil30" d="M862.67 311.5c0,0 -65.92,8.87 -99.86,33.46 -33.93,24.59 -25.18,34.77 -25.18,34.77 0,0 -0.18,18.2 13.37,121.09 21.13,160.23 -67.01,251.53 -88.28,282.24 -21.27,30.71 255.68,54.26 295.96,0.52 0,0 28.04,-119.44 47.09,-177.2 26.97,-81.75 59.88,-133.18 8.45,-227.62 -8.03,-14.79 -24.17,-47.36 -51.5,-58.79 0,0 0.59,24.74 -30.56,23.26 -31.14,-1.49 -69.49,-31.73 -69.49,-31.73z"/>
   <path class="fil27" d="M1002.05 116.72c0,0 35.09,115 -34.01,158.32 -78.08,48.94 -93.11,-56.33 -97.65,-78.97 -4.53,-22.63 -18.09,-107.73 41.46,-117.83 59.55,-10.1 62.68,2.22 90.2,38.48z"/>
   <path class="fil27" d="M962.75 260.41c0,0 -3.65,41.97 2.25,64.58 5.22,20.1 29.78,50.7 1.08,71.82 -25.54,18.78 -92.98,5.56 -111.04,-64.72 0,0 -5.22,-19.36 12.91,-22.1 13.11,-1.97 33.69,-34.9 20.77,-96.52 -12.88,-61.61 74.03,46.94 74.03,46.94z"/>
   <path class="fil31" d="M1286.91 1427.88l8.45 15.85c0,0 -41.13,25.59 -54.69,23.55l-5.64 -11.98 51.88 -27.42z"/>
   <path class="fil30" d="M1240.45 1466.94c0,0 32.04,-15.69 36.89,-21.35 4.84,-5.66 14.74,-11.55 19.82,-8.2 29.44,19.36 57.41,16.54 70.38,16.32 12.96,-0.23 61.89,-11.98 59.14,9.6 -2.74,21.57 -105.31,53.3 -123.58,60.21 -18.27,6.91 -40.09,15.62 -45.53,12.24 -5.43,-3.4 -19.54,-51.59 -17.12,-68.82z"/>
   <path class="fil29" d="M950.75 276.39c-35.02,1.22 -49.5,-15.61 -50.12,-16.32l2.05 -1.71 -1.01 0.85 1.01 -0.85c0.13,0.16 14.35,16.54 48.01,15.37l0.06 2.66z"/>
   <path class="fil25" d="M830.45 916.75l-1.89 -2.09c0.65,-0.58 64.63,-58.32 85.08,-82.29l2.15 1.83c-20.58,24.1 -84.69,81.97 -85.34,82.55z"/>
   <path class="fil25" d="M838.37 909.45l-1.14 -2.56c0.55,-0.26 55.93,-25.49 71.88,-45.93l2.21 1.73c-16.36,20.98 -70.63,45.72 -72.95,46.76z"/>
   <polygon class="fil32" points="1300.62,1465.3 1298.6,1464.59 1305.43,1445.45 1307.45,1446.17 "/>
   <polygon class="fil32" points="1313.28,1466.81 1311.25,1466.09 1316.86,1450.39 1318.88,1451.12 "/>
   <polygon class="fil32" points="1324.87,1467.4 1322.85,1466.68 1327.13,1454.68 1329.15,1455.41 "/>
   <path class="fil32" d="M1258.6 1531.14l-1.03 -1.89c0.16,-0.09 15.36,-8.15 55.14,-21.52 7.25,-2.43 15.69,-5.03 24.63,-7.78 32.66,-10.05 73.3,-22.56 80.19,-35.2l1.88 1.03c-7.3,13.41 -46.68,25.53 -81.44,36.22 -8.92,2.74 -17.35,5.34 -24.57,7.77 -39.57,13.28 -54.66,21.29 -54.8,21.37z"/>
   <path class="fil27" d="M718.53 718.61c0,0 18.78,18.21 31.87,14.98 13.12,-3.23 27.17,-1.93 32.22,5.66 0,0 14.84,13.35 8.72,25.63 -6.08,12.28 11.1,27.97 5.73,36.2 -5.41,8.23 -46,30.36 -52.75,26.09 -6.76,-4.28 -39.31,-60.76 -54.74,-76.26 -11.78,-11.88 28.95,-32.3 28.95,-32.3z"/>
   <path class="fil27" d="M777.33 338.64c0,0 -165.37,112.05 -215.66,169.45 0,0 -13.91,21.71 33.79,108.07 47.73,86.36 103.97,146.57 103.97,146.57 0,0 32.47,-24.16 30.13,-29.5 -2.32,-5.35 -87.86,-181.82 -86.51,-193.3 1.35,-11.49 152.41,-70.44 161.84,-86.35 9.39,-15.91 23.96,-125.83 -27.56,-114.94z"/>
   <path class="fil30" d="M695.41 391.65l38.13 104.76c0,0 141.19,-36.37 86.86,-128.15 0,0 7.6,-48.91 -35.89,-35.48 -18.07,5.6 -54.85,25.89 -89.1,58.87z"/>
   <path class="fil33" d="M1008.44 147.26c0,0 -45.69,-5.31 -98.94,18.7 0,0 -19.83,16.01 -35.26,49.34 0,0 -54.8,-134.67 39.27,-145.88 94.08,-11.21 94.93,77.84 94.93,77.84z"/>
   <path class="fil27" d="M908.59 162.73c-2.81,-9.87 -17.16,-24.88 -31.22,-7.92 -14.02,16.95 18.3,57.98 27.53,44.55 9.23,-13.43 7.99,-21.64 3.69,-36.63z"/>
   <path class="fil34" d="M761 488.34l-1.07 -2.74c0.64,-0.24 62.25,-24.04 65.09,-67.15l2.95 0.19c-2.98,45 -64.37,68.72 -66.97,69.7z"/>
   <path class="fil34" d="M768.5 484.94l-1.56 -2.5c0.39,-0.23 38.06,-23.91 39.52,-49.29l2.91 0.17c-1.49,26.9 -39.27,50.61 -40.87,51.62z"/>
   <path class="fil34" d="M804 670.64l-1.99 -2.17c48.26,-43.88 176.27,-61.17 177.57,-61.35l0.39 2.92c-1.3,0.16 -128.39,17.34 -175.97,60.6z"/>
   <path class="fil34" d="M826.95 654.56l-0.87 -2.8c3.81,-1.22 94.08,-29.91 128.59,-21.84l-0.66 2.87c-33.75,-7.9 -126.11,21.47 -127.06,21.77z"/>
   <g>
    <path class="fil31" d="M212.88 1106.75l-18.03 -2.6c0,0 2.35,-54.8 4.2,-58.52l19.42 3.25c0,0 -5.2,54.83 -5.59,57.87z"/>
    <path class="fil30" d="M200.11 1045.81c0,0 -2.77,39.22 -0.1,46.87 2.7,7.65 3.2,20.99 -3.06,23.16 -26.89,9.33 -46.85,45.12 -53.71,57.47 -6.83,12.34 -22.41,64.87 -41.26,50.52 -18.85,-14.33 7.11,-128.32 10.53,-149.3 3.45,-20.99 12.02,-48.88 18.7,-50.86 15.83,-4.65 54,10.46 68.9,22.14z"/>
    <polygon class="fil32" points="174.75,1125.87 162.2,1108.08 164.08,1106.75 176.64,1124.54 "/>
    <polygon class="fil32" points="164.26,1132.24 153.94,1117.64 155.83,1116.32 166.14,1130.91 "/>
    <polygon class="fil32" points="155.44,1138.47 147.58,1127.32 149.43,1125.99 157.32,1137.15 "/>
    <path class="fil32" d="M105.64 1220.11c-3.95,-39.48 5.44,-81.92 11.63,-110.01 3.13,-14.25 5.62,-25.51 5.23,-31.01 -1.17,-16.9 11.56,-47.55 12.09,-48.85l2.14 0.89c-0.14,0.31 -13.09,31.45 -11.92,47.8 0.43,5.83 -1.99,16.67 -5.26,31.67 -6.19,27.94 -15.51,70.17 -11.63,109.28l-2.28 0.23z"/>
   </g>
  </g>
 </g>
</svg>
