<?xml version="1.0" encoding="UTF-8"?>
<!DOCTYPE svg PUBLIC "-//W3C//DTD SVG 1.1//EN" "http://www.w3.org/Graphics/SVG/1.1/DTD/svg11.dtd">
<!-- Creator: CorelDRAW 2017 -->
<svg xmlns="http://www.w3.org/2000/svg" xml:space="preserve" width="102.51mm" height="16.02mm" version="1.1" style="shape-rendering:geometricPrecision; text-rendering:geometricPrecision; image-rendering:optimizeQuality; fill-rule:evenodd; clip-rule:evenodd"
viewBox="0 0 10251 1602"
 xmlns:xlink="http://www.w3.org/1999/xlink">
 <defs>
  <style type="text/css">
   <![CDATA[
    .fil10 {fill:#2C3238;fill-rule:nonzero}
    .fil5 {fill:#495059;fill-rule:nonzero}
    .fil2 {fill:#656D78;fill-rule:nonzero}
    .fil8 {fill:#A56450;fill-rule:nonzero}
    .fil4 {fill:#B3C7C5;fill-rule:nonzero}
    .fil9 {fill:#CE3636;fill-rule:nonzero}
    .fil11 {fill:#D3745E;fill-rule:nonzero}
    .fil1 {fill:#E86776;fill-rule:nonzero}
    .fil3 {fill:#ED8B6E;fill-rule:nonzero}
    .fil7 {fill:#FF5F2F;fill-rule:nonzero}
    .fil6 {fill:#FF8089;fill-rule:nonzero}
    .fil0 {fill:#FFA787;fill-rule:nonzero}
   ]]>
  </style>
 </defs>
 <g id="Camada_x0020_1">
  <metadata id="CorelCorpID_0Corel-Layer"/>
  <path class="fil0" d="M1981.13 705.7c-9.47,0.59 -16.81,1.05 -25.88,1.6 -2.53,14.58 -11.13,30.53 -3.5,48.78 1.61,3.79 -1.26,10.47 -3.77,14.84 -14.54,25.35 -30.01,50.17 -44.25,75.67 -5.39,9.68 -12.49,11.86 -22.55,11.61 -30.77,-0.76 -61.54,-0.98 -92.32,-1.24 -7.44,-0.05 -14.88,0.64 -23.84,1.07 1.95,17.44 3.62,32.46 5.41,48.69 7.34,0.33 13.31,1.19 19.17,0.78 38.34,-2.69 76.67,-5.93 115.05,-8.36 13.16,-0.84 20.98,-7.03 26.39,-18.65 14.61,-31.35 29.5,-62.58 44.98,-93.51 3.98,-7.95 9.78,-15.37 16.13,-21.65 20.98,-20.72 21,-30.31 -1.34,-50.63 -3.39,-3.06 -6.7,-6.23 -9.68,-9z"/>
  <path class="fil1" d="M1833.14 921c1.19,-21.81 2.2,-40.58 3.32,-61.15 -19.43,-4.14 -37.04,-9.1 -54.99,-11.38 -24.1,-3.07 -37.92,12.4 -34.18,36.13 3.96,25.07 13.09,34.33 38.39,36.23 15.05,1.11 30.27,0.17 47.46,0.17z"/>
  <path class="fil0" d="M2155.45 1406.52c14.72,-3.58 27.15,-6.6 40.32,-9.81 -23.11,-77.01 -45.52,-152.14 -68.32,-227.15 -6.34,-20.82 -14.19,-26.32 -35.04,-25.07 -49.21,2.97 -98.41,6.47 -147.59,9.85 -2.16,0.15 -4.23,1.43 -7.77,2.72 0,25.65 0,51.45 0,80.82 45.84,-7.1 90.16,-13.97 133.86,-20.73 28.32,63.45 55.88,125.15 84.54,189.37z"/>
  <path class="fil0" d="M1535.27 1463.85c0,15.36 0,28.09 0,41.65 47.56,-3.85 93.46,-7.5 139.4,-11.3 30.71,-2.52 61.38,-5.31 92.09,-7.81 26,-2.12 32.95,-8.75 36.54,-34.63 6.25,-45 12.72,-89.96 19.04,-134.92 0.62,-4.49 0.82,-9.02 1.47,-16.58 -26.73,-5.13 -52.64,-10.12 -80.65,-15.51 -2.42,47.02 -4.7,91.4 -6.98,135.92 -67.41,14.5 -133.48,28.67 -200.91,43.18z"/>
  <path class="fil2" d="M1982.19 1134.83c-21.72,-1.85 -39.99,-3.74 -58.3,-4.78 -8.92,-0.53 -16.02,-2.57 -21.96,-10.08 -11.78,-14.91 -26.8,-17.55 -45.13,-12.22 -44.27,12.89 -88.89,24.51 -133.81,36.74 -7.74,51.04 3.33,100.14 8.33,150.51 24.25,11.13 49.62,16.82 75.55,18.92 13.69,1.11 25.26,-5.76 31.1,-19.23 5.24,-11.97 10.55,-23.98 14.69,-36.37 3.74,-11.18 10.59,-15.87 22.18,-15.44 16.08,0.61 32.33,-0.7 48.25,1.09 23.61,2.65 37.51,-4.06 43.06,-26.88 6.36,-26.07 10.39,-52.7 16.04,-82.26z"/>
  <path class="fil2" d="M2281.56 1403.82c-17.01,-2.45 -34.14,-4.48 -51.1,-7.44 -13.36,-2.35 -26.42,-6.15 -39.73,-8.7 -4.2,-0.81 -9.02,-0.57 -13.08,0.7 -8.75,2.68 -17.22,6.34 -26.27,9.78 0,15.61 0,31.04 0,48.95 13.05,-0.69 24.02,0.55 33.93,-2.15 28.02,-7.64 55.58,-17.03 83.42,-25.41 6.91,-2.1 13.18,-3.99 12.83,-15.73z"/>
  <path class="fil2" d="M1492.02 1455.78c-13.57,42.74 -2.28,84.4 -5.36,125.16 -0.26,3.32 4.04,6.99 8.74,14.57 5.32,-10.62 8.72,-17.83 12.43,-24.86 11.02,-20.82 16.21,-44.11 30.97,-63.72 5.8,-7.68 2.54,-23.98 -0.22,-35.48 -1.14,-4.78 -11.37,-8.43 -18.1,-10.57 -8.45,-2.68 -17.55,-3.25 -28.46,-5.1z"/>
  <path class="fil3" d="M1712.15 789.67c-0.71,21.98 -2.1,37.67 -1.38,53.29 0.46,10.62 16.02,18.03 30.61,17.02 12.02,-0.83 12.37,-9.04 12.39,-17.82 0.03,-9.82 0.01,-19.65 0.01,-33.28 -10.4,-4.81 -23.04,-10.62 -41.63,-19.21z"/>
  <path class="fil3" d="M427.97 1372.51c6.34,15.84 12.49,31.14 19.07,47.52 35.76,-13.62 69.47,-26.53 103.17,-39.35 59.07,-22.44 118.05,-45.06 177.22,-67.16 13.02,-4.87 22.98,-11.91 27.84,-25.41 17.28,-47.82 34.67,-95.57 51.96,-143.4 0.45,-1.23 -0.26,-2.92 -0.66,-6.45 -32.74,-10.6 -66.29,-21.47 -101.97,-33.03 -2.13,7.31 -4.41,13.54 -5.71,19.99 -6.4,31.71 -12.94,63.42 -18.57,95.27 -1.94,10.97 -5.49,18.37 -17.32,21.32 -47.9,12 -88.57,38.87 -129.85,64.41 -28.79,17.86 -57.65,35.69 -86.43,53.62 -5.81,3.64 -11.33,7.66 -18.75,12.67z"/>
  <path class="fil4" d="M367.96 1378.72c7.53,50.48 16.56,97.65 44.09,138.88 5.86,8.8 13.51,17.33 22.31,22.86 5.14,3.22 15.41,2.5 20.99,-0.66 3.81,-2.16 5.53,-11.88 4.69,-17.7 -3.26,-22.74 -8.57,-45.2 -11.69,-67.96 -1.15,-8.62 1.77,-17.75 2.51,-26.68 0.35,-4.31 1.11,-9.1 -0.24,-13 -5.27,-15.18 -11.3,-30.05 -17.21,-45.45 -21.44,3.18 -41.62,6.16 -65.45,9.71z"/>
  <path class="fil5" d="M875.61 970.26c-43.32,-26.8 -84.45,-52.32 -125.66,-77.68 -3.9,-2.41 -8.22,-4.24 -12.52,-5.86 -4.3,-31.96 -13.71,-10.09 -16.39,9.97 -0.27,6.13 -0.1,12.39 0.93,18.4 5.43,31.9 -0.91,62.6 -8.09,93.41 -9.73,41.77 -18.71,83.75 -28.49,127.73 43.27,12.16 85.14,23.94 129.74,36.5 20.32,-68.04 40.01,-133.96 60.48,-202.47z"/>
  <path class="fil3" d="M860.34 412.18c-17.36,10.8 -38.76,8.03 -44.28,10.02 -4.29,1.55 0,0 -1.16,4.06 -1.1,3.94 15.81,8.49 18.86,11.38 13.98,13.24 28.99,25.15 49.84,25.4 5.33,0.07 10.92,0.71 15.89,2.49 24.9,8.89 44.75,-4.17 64.75,-15.15 3.55,-1.96 4.11,-9.36 6.9,-16.31 -8.19,-0.72 -12.71,-0.59 -16.98,-1.57 -20.13,-4.68 -26.26,-13.26 -24.56,-33.97 0.8,-9.83 1.88,-19.64 3.05,-31.91 -19.15,-4.81 -37.41,-9.43 -58.15,-14.68 -4.73,20.16 -9.21,39.23 -14.16,60.24z"/>
  <path class="fil0" d="M807.38 244.66c-14.55,1.19 -25.3,6.92 -26.7,22.02 -1.61,17.56 7.66,32.82 22.14,37.25 21.67,6.67 29.76,23.1 40.54,39.16 15.62,23.24 36.18,40.88 63.09,50.31 28.34,9.92 55.83,7.37 80.84,-8.62 33.59,-21.44 55.53,-51.18 58.23,-92.45 1.86,-28.7 5.19,-57.44 4.56,-86.1 -1.08,-49.5 -24.22,-89.19 -63.31,-118.22 -49.22,-36.55 -109.21,-25.17 -145.77,25.62 -22.93,31.86 -32.29,68.12 -33.61,106.82 -0.24,7.63 -0.01,15.27 -0.01,24.21z"/>
  <path class="fil6" d="M1896.53 1124.24c-0.5,-3.86 -0.07,-6.59 -1.21,-8.25 -25.07,-36.68 -30.63,-81.29 -49.26,-120.77 -18.36,-38.88 -32.61,-79.82 -46.83,-120.48 -5.62,-16.05 -14.52,-23.51 -30.63,-25.87 -15.18,-2.21 -30.51,-5.12 -45.05,-9.92 -21.54,-7.09 -34.19,4.24 -35.49,25.99 -1.65,27.57 -2.41,55.6 0.59,82.97 7.21,65.81 16.62,131.39 25.59,197 3.29,23.9 14.84,33.58 38.34,33.08 34.3,-0.74 67.19,-6.87 96.75,-25.89 15.48,-9.92 31.66,-18.75 47.2,-27.86z"/>
  <path class="fil0" d="M1648.27 709.33c-9.49,4.49 -20.26,9.35 -18.67,23.53 1.61,14.31 10.69,24.77 23.15,27.7 14.89,3.53 22.9,12.6 30.62,23.82 2.94,4.28 6.71,8.07 10.37,11.8 28.62,29.31 66.2,39.06 98.28,25.65 34.32,-14.37 58.62,-52.33 57.85,-91.41 -0.5,-23.96 -0.26,-48.14 -3.34,-71.82 -5.59,-43.22 -29.78,-74.84 -68.04,-94.63 -33.96,-17.55 -70.34,-10.16 -96.58,17.72 -22.15,23.49 -31.54,52.38 -33.48,83.88 -0.88,14.18 -0.16,28.45 -0.16,43.76z"/>
  <path class="fil0" d="M1235.3 1412.12c15.27,-5.02 28.32,-9.34 43.07,-14.21 -5.93,-26.38 -11.7,-51.68 -17.26,-77.02 -17.8,-81.23 -35.76,-162.45 -53.05,-243.78 -3.09,-14.58 -9.08,-25.63 -22.42,-32.81 -43.42,-23.35 -86.67,-47 -130.04,-70.45 -1.91,-1.06 -4.21,-1.37 -8.39,-2.72 -16.12,32.26 -32.16,64.36 -49.17,98.37 28.49,10.31 55.26,19.66 81.81,29.68 14.96,5.65 33.67,8.75 43.02,19.59 8.76,10.17 6.45,29.3 10.75,43.97 6.45,22.1 13.18,44.28 21.96,65.52 23.83,57.66 48.81,114.82 73.4,172.16 1.46,3.4 3.51,6.56 6.32,11.7z"/>
  <path class="fil2" d="M996.97 1102.89c22.39,-42.94 45.39,-87 69.38,-132.99 -15.76,-10.04 -30.49,-19.49 -45.29,-28.84 -21.49,-13.53 -43.22,-26.67 -64.44,-40.65 -9.43,-6.18 -19.03,-8.79 -30.26,-8.76 -36.18,0.11 -72.39,-1.43 -108.54,-0.63 -20.67,0.48 -41.33,3.72 -61.85,6.74 -12.38,1.83 -19.86,11.14 -17.32,22.72 3.61,16.43 8.02,33.01 14.97,48.21 4.21,9.2 12.59,17.81 21.19,23.47 67.75,44.52 140.28,79.88 215.12,110.68 1.29,0.51 2.96,0.05 7.04,0.05z"/>
  <path class="fil7" d="M1615.65 596.04c-24.44,-13.14 -49.38,-8.41 -73.94,3.66 -27.22,13.42 -38.92,36.06 -38.94,65.57 0,5.95 1.08,11.91 1.5,17.89 1.52,21.5 -10.86,31.65 -31.42,26.01 -2.68,-0.75 -5.55,-0.65 -7.98,-0.89 -1.22,2.15 -2.82,3.77 -2.48,4.54 11.35,26.01 39.08,37.69 62.34,23.42 14.24,-8.71 26.24,-21.95 37.11,-34.94 10.01,-11.95 16.93,-26.48 25.8,-39.47 4.53,-6.61 10.39,-12.32 16.88,-19.83 5.56,16.78 9.84,31.53 15.44,45.79 3.74,9.42 7.19,18.96 21.42,19.36 6.25,0.15 12.25,9.27 19.57,15.32 11.38,-14.91 -2.37,-34.46 9.82,-48.52 4.11,5.94 8.44,12.2 14.11,20.4 4.56,-6.02 7.53,-9.93 10.51,-13.85 13.13,-17.29 26.25,-33.99 45.92,-45.31 12.57,-7.26 22.22,-19.61 34.66,-31.04 -1.64,23.64 -14.69,38.92 -31.2,52.64 30.11,10.55 60.44,-11.03 79.16,-56.14 17.8,19.49 18.15,43.85 23.35,66.26 25.43,-2.99 28.32,-11.67 19.73,-61.25 5.7,3.75 10.32,6.82 18.17,12 -0.87,-7.83 -0.08,-13.13 -2.17,-16.82 -3.64,-6.41 -8.28,-12.81 -13.9,-17.5 -39.94,-33.16 -85.1,-52.11 -137.99,-48.9 -1.5,0.08 -2.98,0.51 -4.47,0.45 -44.13,-2.14 -75.01,21.18 -101.62,52.76 -1.94,2.27 -3.87,4.55 -5.89,6.75 -0.47,0.51 -1.3,0.65 -3.49,1.64z"/>
  <path class="fil8" d="M834.98 275.72c13.9,-12.51 13.69,-25.63 15.49,-37.78 2.36,-15.97 3.9,-32.06 5.96,-48.08 1.59,-12.41 6.67,-22.61 17.75,-29.59 5.29,-3.34 10.66,-7.24 14.59,-12.04 21.25,-26.01 49.21,-29.65 79.66,-24.06 9.88,1.81 15.58,-2.3 19.36,-10.28 24.28,10.62 40.89,26.84 49.69,50.6 33,-22.55 40.94,-47.87 22.6,-73.88 -4.29,2.52 -8.67,5.1 -12.9,7.56 -21.63,-23.29 -43.25,-46.71 -75.83,-54.11 -12.87,-2.92 -26.28,-3.98 -39.53,-4.59 -24.29,-1.12 -48.97,2.25 -74.22,-9.47 0.21,19.98 -14.17,24.56 -26.98,30.93 -3.74,1.84 -7.35,4.34 -10.34,7.22 -14.01,13.64 -29.93,19.33 -49.85,16.15 -14.5,-2.33 -15.36,1.33 -13.7,17.09 1.98,18.22 3.12,36.76 -1.32,54.99 -0.66,2.71 -2.06,5.71 -1.42,8.19 6.45,25.12 13.18,50.08 35.23,67.17 7.03,5.49 12.96,12.38 19.44,18.6 8.35,8.08 16.73,16.14 26.32,25.38z"/>
  <path class="fil0" d="M1230.49 448.62c-2.3,-9.63 -3.74,-15.74 -6.39,-26.94 -9.86,18.14 -18.86,31.41 -24.35,45.97 -3.26,8.65 -3.4,20.06 -0.72,28.99 3.32,11.02 1.23,18.66 -5.11,27.39 -15.79,21.74 -30.81,44.02 -47.57,68.16 -32.37,-27.74 -63.11,-54.09 -96.03,-82.31 -10.64,16.22 -20.17,30.67 -31.32,47.62 41.17,35.59 81.64,70.55 121.17,104.73 16.39,-4.38 25.39,-13.93 32.93,-26.35 22.38,-36.89 44.69,-73.85 68.73,-109.63 13.2,-19.68 28.22,-38.78 45.49,-54.81 10.87,-10.05 4.16,-23.44 14.66,-33.47 -5.08,-1.44 -8.33,-2.37 -12.87,-3.67 0.89,-4.53 1.84,-9.31 2.72,-13.73 -3.75,-4.31 -27.17,-2.21 -33.37,3.02 -8.74,7.37 -17.09,15.24 -27.97,25.03z"/>
  <path class="fil0" d="M696.26 797.07c1.73,-9.61 2.36,-13.16 3.26,-18.05 4.22,5.84 7.72,10.67 11.15,15.41 25.35,-23.28 6.47,-45.14 2.31,-69.23 7.98,2.02 14.39,3.68 20.77,5.28 -14.09,-24.49 -22.9,-53.27 -57.17,-55.32 -4.51,-0.28 -10.5,-3.67 -12.87,-7.45 -15.86,-25.2 -30.9,-50.93 -47.32,-78.35 38.71,-18.24 75.32,-35.55 114.23,-53.9 -10.27,-16.35 -19.53,-31.03 -30.09,-47.82 -48.97,22.5 -96.85,44.52 -144.76,66.54 -3.55,15.51 0.67,27.74 8.79,39.76 24.14,35.66 48.63,71.15 71.22,107.78 12.81,20.77 23.88,43.03 32.44,65.83 5.33,14.23 18.95,15.27 28.04,29.52z"/>
  <path class="fil4" d="M1226.65 1403.86c3.45,19.48 6.9,38.96 10.48,59.13 3.1,0.81 6.12,2.59 8.77,2.16 41.82,-6.97 82.82,-17.14 119.52,-39.27 10.98,-6.65 20.25,-16.33 29.57,-25.35 7.5,-7.24 8.27,-16.45 2.7,-25.28 -5.86,-9.26 -13.79,-5.92 -22.44,-3.75 -20.79,5.2 -41.91,9.16 -62.99,13.28 -5.2,1.02 -10.72,1.19 -16.06,0.87 -30.16,-1.86 -41.01,0.88 -69.55,18.21z"/>
  <path class="fil4" d="M996.26 587.5c7.71,6.89 12.78,11.38 17.77,15.84 23.88,-11.97 57.7,-45 68.58,-67.95 -28.02,-32.44 -54.58,-67.42 -89.41,-94.43 -7.39,-5.71 -18.18,-7.5 -27.68,-9.99 -11.07,-2.92 -15.98,5.72 -22.21,12.75 -8.16,9.21 -18.89,13.79 -31.12,8.23 -20.19,-9.17 -40.98,-17.51 -59.84,-28.97 -12.79,-7.75 -24,-8.83 -36.68,-3.14 -10.51,4.71 -21.14,9.34 -31,15.23 -30.42,18.15 -60.5,36.82 -90.64,55.39 -5.09,3.16 -9.8,6.87 -15.78,11.08 14.17,29.12 27.91,57.31 42.35,86.97 17.61,-4.06 34.4,-7.91 54.43,-12.53 -24.51,110.67 -59.4,224.64 -53.06,339.11 83.56,-2.13 162.96,-22.43 249.17,-7.49 -2.9,-26.56 1.48,-62.66 -2.36,-86.53 -3.82,-23.88 -3.98,-47.25 0.13,-71.13 8.62,-50.01 16.18,-100.21 24.24,-150.32 0.46,-2.9 1.43,-5.7 3.11,-12.12z"/>
  <path class="fil0" d="M1710.56 906.95c-18.52,-14.73 -30.38,-24.13 -43.4,-34.47 -5.04,4.72 -9.69,8.43 -13.61,12.83 -24.54,27.64 -48.52,55.82 -73.56,83.01 -10.69,11.62 -13.35,22.92 -7.93,37.77 11.06,30.35 21.08,61.1 31.54,91.7 3.69,10.83 5.2,21.47 5.62,33.31 0.93,27.08 3.85,35.11 33.74,33.06 5.31,-0.37 10.66,-0.07 15.53,-0.07 5.36,-6.31 10.53,-12.39 16.82,-19.81 -7.57,-11.36 -12.18,-28.03 -29.32,-36.16 -5.04,-2.4 -8.76,-10.42 -10.42,-16.58 -7.4,-27.48 -13.09,-55.46 -20.97,-82.8 -3.13,-10.96 0.2,-17.26 7.6,-24.11 22.03,-20.43 43.53,-41.43 65.62,-61.78 5.63,-5.22 12.61,-8.93 22.74,-15.9z"/>
  <path class="fil1" d="M1621.19 910.51c16.79,14.15 33.68,28.36 51.73,43.56 15.02,-13.61 29.83,-25.85 43.15,-39.51 11.62,-11.88 13.4,-39.88 5.2,-54.55 -11.59,-20.78 -35.33,-24.2 -51.09,-7.05 -15.1,16.44 -29.85,33.21 -44.65,49.9 -1.48,1.66 -2.27,3.92 -4.34,7.65z"/>
  <path class="fil9" d="M1802 768.81c-21.36,-1.68 -40.16,-1.83 -59.3,2.9 5.48,17.68 12.66,24.92 25.4,24.26 15.73,-0.82 26.65,-9.13 33.9,-27.16z"/>
  <path class="fil10" d="M1014.53 242.63c-9.75,-0.22 -17.95,7.63 -18.41,17.6 -0.52,10.86 8.2,19.89 18.74,19.44 9.73,-0.4 17.46,-8.75 17.39,-18.7 -0.1,-9.89 -8.05,-18.12 -17.72,-18.34z"/>
  <path class="fil9" d="M911.18 333.84c7.04,19.32 19.66,24.2 33.51,25.5 12.81,1.21 21.89,-5.38 26.68,-20.2 -19.57,-1.72 -38.22,-3.36 -60.19,-5.3z"/>
  <path class="fil10" d="M872.7 258.25c-0.37,10.44 6.92,18.3 17.31,18.67 10.4,0.39 18.29,-6.94 18.65,-17.3 0.37,-10.43 -6.91,-18.28 -17.29,-18.65 -10.45,-0.35 -18.3,6.92 -18.67,17.28z"/>
  <path class="fil10" d="M1741.22 712.8c-0.53,-8 -7,-13.38 -15.06,-12.52 -7.85,0.81 -13.21,7.68 -11.86,15.59 1.3,7.66 6.1,11.51 13.86,11.4 8.1,-0.11 13.62,-6.32 13.06,-14.47z"/>
  <path class="fil10" d="M1836.41 712.8c-0.52,-8 -7.01,-13.38 -15.07,-12.52 -7.83,0.81 -13.19,7.68 -11.84,15.59 1.3,7.66 6.11,11.51 13.83,11.4 8.12,-0.11 13.63,-6.32 13.08,-14.47z"/>
  <path class="fil8" d="M922.51 229.41c-23.21,-19.93 -40.34,-18.57 -52.38,0 15.81,0 31.67,0 52.38,0z"/>
  <path class="fil8" d="M1000.58 227.01c12.19,1.12 23.77,2.21 36.74,3.41 -1.11,-13.05 -10.23,-15.19 -19.33,-16.24 -8.44,-0.95 -15.53,1.6 -17.41,12.83z"/>
  <path class="fil7" d="M1708.57 689.71c11.03,-1.16 22.07,-2.31 34.48,-3.63 -14.64,-12.03 -20.13,-11.74 -34.48,3.63z"/>
  <path class="fil11" d="M968.75 295.19c3.56,8.34 6.76,15.76 10.08,23.51 13.71,-13.71 12.46,-16.71 -10.08,-23.51z"/>
  <path class="fil7" d="M1834.2 680.79c-7.53,-10.61 -14.78,-9.35 -22.66,0 7.16,0 14.3,0 22.66,0z"/>
  <path class="fil11" d="M1790.14 726.85c-0.42,5.32 -0.85,10.65 -1.51,18.85 12.92,-6.47 12.09,-12.12 7.96,-18.35 -2.15,-0.17 -4.28,-0.32 -6.45,-0.5z"/>
 </g>
</svg>
