<?xml version="1.0" encoding="UTF-8"?>
<!DOCTYPE svg PUBLIC "-//W3C//DTD SVG 1.1//EN" "http://www.w3.org/Graphics/SVG/1.1/DTD/svg11.dtd">
<!-- Creator: CorelDRAW 2017 -->
<svg xmlns="http://www.w3.org/2000/svg" xml:space="preserve" width="102.51mm" height="16.02mm" version="1.1" style="shape-rendering:geometricPrecision; text-rendering:geometricPrecision; image-rendering:optimizeQuality; fill-rule:evenodd; clip-rule:evenodd"
viewBox="0 0 10251 1602"
 xmlns:xlink="http://www.w3.org/1999/xlink">
 <defs>
  <style type="text/css">
   <![CDATA[
    .fil7 {fill:#BDBFC1;fill-rule:nonzero}
    .fil8 {fill:#A5A7AA;fill-rule:nonzero}
    .fil19 {fill:#949699;fill-rule:nonzero}
    .fil1 {fill:#FAB88D;fill-rule:nonzero}
    .fil5 {fill:#E09375;fill-rule:nonzero}
    .fil6 {fill:#EF4B43;fill-rule:nonzero}
    .fil2 {fill:#B23D37;fill-rule:nonzero}
    .fil14 {fill:#BB9274;fill-rule:nonzero}
    .fil16 {fill:#67462E;fill-rule:nonzero}
    .fil18 {fill:#66AFB9;fill-rule:nonzero}
    .fil17 {fill:#58969F;fill-rule:nonzero}
    .fil13 {fill:#59A2AD;fill-rule:nonzero}
    .fil11 {fill:#50A8B1;fill-rule:nonzero}
    .fil10 {fill:#469199;fill-rule:nonzero}
    .fil9 {fill:#5C4447;fill-rule:nonzero}
    .fil0 {fill:#313C44;fill-rule:nonzero}
    .fil4 {fill:#284861;fill-rule:nonzero}
    .fil15 {fill:#263D53;fill-rule:nonzero}
    .fil3 {fill:#29384A;fill-rule:nonzero}
    .fil12 {fill:#263241;fill-rule:nonzero}
   ]]>
  </style>
 </defs>
 <g id="Camada_x0020_1">
  <metadata id="CorelCorpID_0Corel-Layer"/>
  <g id="_1670900460336">
   <path class="fil0" d="M8809.66 406.9l0 61.87c0,3.01 -2.44,5.45 -5.45,5.45 -3.01,0 -5.45,-2.44 -5.45,-5.45l0 -61.87c0,-3.01 2.44,-5.45 5.45,-5.45 3.01,0 5.45,2.44 5.45,5.45z"/>
   <path class="fil0" d="M8773.28 432.38l61.87 0c3.02,0 5.45,2.44 5.45,5.45 0,3.01 -2.43,5.44 -5.45,5.44l-61.87 0c-3.01,0 -5.44,-2.43 -5.44,-5.44 0,-3.01 2.43,-5.45 5.44,-5.45z"/>
   <path class="fil0" d="M8846.77 699.06l5.45 0c0.01,5.54 2.23,10.49 5.85,14.12 3.63,3.63 8.59,5.85 14.12,5.85 5.54,0 10.49,-2.22 14.13,-5.85 3.62,-3.63 5.84,-8.58 5.84,-14.12 -0.01,-11.04 -8.94,-19.96 -19.97,-19.98 -11.03,0.02 -19.95,8.94 -19.97,19.98l-10.89 0c0,-17.05 13.81,-30.87 30.86,-30.88 17.06,0.01 30.87,13.83 30.87,30.88 0,17.05 -13.81,30.87 -30.87,30.87 -17.05,0 -30.86,-13.82 -30.86,-30.87l5.44 0z"/>
   <path class="fil1" d="M8840.73 482.54c0,0 1.12,0.99 3.24,2.84 2.24,2.01 5.52,4.97 9.68,8.72 8.3,7.67 20.1,18.88 33.48,32.88 13.32,13.99 28.39,30.83 41.96,49.54 6.72,9.33 13.11,19.17 17.97,28.89 4.95,9.6 8.07,19.56 8.24,25.5l0.02 1.04 0.01 0.49c-0.13,1.03 0.16,-1.33 0.12,-1.02l-0.01 0.16 -0.02 0.31 -0.06 0.64 -0.11 1.26 0.01 -0.15 0.12 -0.25 -0.05 0.33c-0.14,1.09 -0.57,2.73 -1.32,4.61 -1.51,3.8 -4.06,8.34 -7.09,12.86 -6.14,9.14 -14,18.34 -22.09,26.94 -16.33,17.26 -33.69,32.52 -48.83,45.22 -15.2,12.71 -28.37,22.85 -37.63,29.84 -4.65,3.44 -8.31,6.14 -10.79,7.99 -2.45,1.76 -3.74,2.7 -3.74,2.7l-0.36 0.26c-8.94,6.45 -10.95,18.94 -4.5,27.88 6.1,8.43 17.61,10.66 26.4,5.48 0,0 1.52,-0.91 4.41,-2.63 2.78,-1.68 6.85,-4.17 12.05,-7.34 10.29,-6.41 24.86,-15.69 42.01,-27.59 17.13,-11.96 36.88,-26.34 57.2,-44.27 10.15,-9.04 20.46,-18.9 30.4,-31.07 4.95,-6.14 9.84,-12.86 14.28,-21.18 2.18,-4.2 4.26,-8.86 5.92,-14.3l0.62 -2.11 0.63 -2.73 0.76 -3.9 0.11 -0.62 0.06 -0.31 0.03 -0.16 0.15 -1.34 0.18 -2.03c0.1,-1.36 0.23,-2.74 0.23,-4.04 0.33,-10.65 -1.29,-20.09 -3.47,-28.62 -2.23,-8.57 -5.13,-16.29 -8.27,-23.54 -6.34,-14.49 -13.72,-27.09 -21.23,-38.79 -15.08,-23.26 -30.8,-42.64 -44.64,-58.83 -13.88,-16.14 -25.99,-28.92 -34.66,-37.8 -4.41,-4.43 -7.87,-7.9 -10.23,-10.28 -2.55,-2.45 -3.91,-3.76 -3.91,-3.76 -13.99,-13.54 -36.32,-13.17 -49.86,0.84 -13.54,14 -13.17,36.33 0.83,49.87l1.29 1.18 0.46 0.39z"/>
   <path class="fil2" d="M9001.66 547.13c-22.37,-53.68 -74.36,-121.64 -101.1,-126.57 -41.65,-7.69 -70.38,31.06 -50.17,84.1 7.94,20.83 41.07,65.92 60.6,102.9 19.67,6.27 82.36,-24.35 90.67,-60.43z"/>
   <path class="fil1" d="M8726 773.5c-8.25,-8.94 33.64,-31.59 46.1,-34.03 15.6,-3.07 27.36,2.6 44.07,-6.2 26.31,-13.88 35.11,10.75 22.1,33.23 -13.45,23.3 -31.16,24.93 -31.34,38.4 -0.16,10.88 -16.34,0.51 -14.51,-10.12 1.83,-10.63 2.5,-14.69 1.09,-17.84 -1.94,-4.32 -20.04,-10.46 -27.42,-10.07 -12.18,0.65 -31.84,15.58 -40.09,6.63z"/>
   <path class="fil1" d="M8753.45 899.59c0,0 -0.97,1.96 -2.8,5.63 -0.69,1.35 -1.55,3.02 -2.55,4.97 -1.18,2.2 -2.58,4.75 -4.27,7.65 -6.58,11.63 -18.09,28.66 -33.28,51.65 -7.53,11.52 -15.84,24.59 -23.94,39.54 -8.13,14.91 -15.98,31.78 -22.08,50.34 -6.16,18.56 -10.28,38.64 -11.64,59.32 -0.41,5.96 -0.44,10.3 -0.56,15.08 -0.01,4.57 -0.03,9.15 -0.04,13.74 0.02,9.1 0.21,18.04 0.42,26.98 0.91,35.68 2.58,70.84 4.25,103.85 1.86,32.93 3.59,63.68 5.09,90.03 3.39,52.63 5.65,87.72 5.65,87.72 0.86,13.44 12.46,23.64 25.91,22.77 12.72,-0.82 22.54,-11.25 22.81,-23.78l0.01 -0.34c0,0 0.66,-34.98 1.66,-87.45 0.71,-26.22 1.52,-56.81 2.4,-89.57 1.08,-32.71 2.33,-67.64 4.32,-102.04 0.53,-8.58 1.06,-17.17 1.74,-25.51 0.36,-4.12 0.71,-8.25 1.07,-12.35 0.41,-3.9 0.86,-8.19 1.29,-10.83 2.08,-13.64 6.41,-26.76 11.88,-38.9 10.9,-24.4 27.32,-45.87 43.1,-65.42 15.86,-19.42 30.86,-37.29 40.97,-51.41 2.53,-3.49 4.78,-6.73 6.74,-9.6 1.98,-2.9 3.83,-5.85 5.23,-8.01 2.2,-3.48 3.38,-5.34 3.38,-5.34 14.66,-23.26 7.71,-54.03 -15.56,-68.7 -23.27,-14.68 -54.03,-7.72 -68.7,15.55 -0.9,1.42 -1.72,2.87 -2.45,4.34l-0.05 0.09z"/>
   <path class="fil3" d="M8652.19 1072.37c27.91,-105.32 107.72,-224.19 107.72,-224.19l128.45 101.87c0,0 -81.8,113.27 -118.49,179.79 -44.3,-9.73 -82.62,-30.83 -117.68,-57.47z"/>
   <path class="fil1" d="M8849.57 1017.49c0,0 0.6,6.85 1.66,18.86 1.11,12.36 2.43,30.89 5.9,53.93 1.66,11.46 4.08,24.09 7.26,37.38 3.13,13.32 7.46,27.4 12.9,41.7 2.63,7.17 5.87,14.33 9.15,21.55 1.8,3.56 3.62,7.14 5.43,10.74l1.39 2.68 0.36 0.68 0.84 1.6 0.17 0.28 0.69 1.1 1.83 2.89 3.05 4.57c7.03,9.55 14.38,16.54 21.75,22.49 7.36,5.9 14.71,10.75 21.99,15.04 14.56,8.52 28.89,14.91 42.93,20.47 14.03,5.52 27.76,10.11 41.04,14.14 26.56,8 51.27,13.81 72.49,18.28 21.2,4.46 38.9,7.54 51.36,9.56 6.26,0.97 11.18,1.72 14.53,2.25 3.48,0.49 5.34,0.76 5.34,0.76 13.33,1.9 25.69,-7.37 27.59,-20.71 1.76,-12.23 -5.89,-23.63 -17.45,-26.91l-0.79 -0.23c0,0 -6.52,-1.86 -17.91,-5.1 -11.5,-3.42 -27.93,-8.5 -47.33,-15.24 -19.38,-6.74 -41.75,-15.15 -64.61,-25.37 -11.4,-5.13 -22.92,-10.71 -33.97,-16.8 -11.01,-6.07 -21.66,-12.71 -30.54,-19.66 -4.43,-3.46 -8.38,-7 -11.51,-10.36 -3.12,-3.29 -5.3,-6.6 -6.06,-8.47l0.29 0.19 0.03 0.07 -0.22 -0.48 -0.55 -1.17 -0.54 -1.18 -0.14 -0.3c-0.62,-1.2 0.78,1.49 0.62,1.17l-0.04 -0.13 -0.2 -0.5 -0.79 -1.97c-1.04,-2.62 -2.07,-5.23 -3.1,-7.83 -1.81,-5.34 -3.66,-10.55 -5.05,-15.91 -2.94,-10.65 -5.22,-21.21 -6.66,-31.61 -1.45,-10.36 -2.5,-20.32 -2.98,-29.8 -1.13,-18.85 -0.85,-35.44 -0.81,-47.62 0.02,-12.54 0.03,-19.71 0.03,-19.71 0.06,-27.51 -22.19,-49.85 -49.7,-49.91 -27.51,-0.06 -49.85,22.2 -49.9,49.7 -0.01,1.49 0.05,2.96 0.18,4.41l0.05 0.48z"/>
   <path class="fil4" d="M8980.45 1118.61c-36.83,31.41 -80.57,40.23 -127.08,41.81 -27.47,-75.05 -51.98,-174.46 -52,-199.47 -0.08,-82.94 162.59,-127.97 156.61,-41.41 -2.07,30.15 8.97,141.52 22.47,199.07z"/>
   <path class="fil1" d="M8900.5 404.28c-3.54,-25.81 11.62,-47.45 11.62,-47.45l-102.36 3.62 -4.82 43.83c0,0 -22.1,24.77 -23.74,29.71 -12.27,36.77 -15.94,59.39 -15.94,59.39l146.86 3.04 6.74 -49.79c0,0 -14.8,-16.54 -18.36,-42.35z"/>
   <path class="fil5" d="M8874.62 379.94c5.07,-7.28 10.18,-14.46 14.29,-22.29l-79.15 2.8 -3.85 34.96c0,0 56.48,2.18 68.71,-15.47z"/>
   <path class="fil4" d="M8964.45 824.11c28.43,103.59 -49.47,148.1 -127.35,148.1 -46.44,0 -94.06,-54.9 -94.06,-138.64 0,-59.01 14.36,-88.51 92.23,-88.51 77.88,0 113.56,22.13 129.18,79.05z"/>
   <path class="fil6" d="M8970.45 814.9c0,0 -9.9,-45.52 -15.78,-117.03 -8.11,-98.46 10.63,-195.35 3.18,-234.16 -7.99,-41.53 -57.35,-59.43 -57.35,-59.43 0,0 -17.8,-3.03 -47.28,18.3 -23.9,17.29 -58.81,44.19 -68.64,41.13 -10.6,-3.3 7.89,-50.51 7.89,-50.51 0,0 -29.37,15 -42.48,41.16 -10.82,21.58 -32.4,88.04 -31.91,165.85 0.64,102.91 13.88,206.39 13.88,206.39 0,0 40.02,32.32 130.49,32.32 90.41,0 108,-44.02 108,-44.02z"/>
   <path class="fil7" d="M9185.95 1454.33c-7.21,-47.29 -32.64,-122.08 -35.32,-133.9 -1.78,-7.89 8.24,-6.2 9.83,-20.84 1.84,-16.95 -5.29,-36.15 -5.29,-36.15 0,0 4.94,-17.64 19.56,0.39 17.9,-11.5 59.18,-4.8 65.8,12.28 2.37,14.98 -4.53,85.95 3.85,118.46 12.7,49.35 -54.53,85.38 -58.43,59.76z"/>
   <path class="fil8" d="M9196.86 1462.76c10.18,0 25.29,-8.15 36.06,-21.33 2.22,-2.72 4.25,-5.65 6.01,-8.77 4.2,-7.4 6.91,-15.85 7.04,-24.98l0 0c0.06,-4.24 -0.43,-8.62 -1.59,-13.11l0 0c-3.42,-13.27 -4.29,-32.95 -4.29,-52.62 0,-20.64 0.97,-41.28 0.97,-54.45 0,-5.01 -0.15,-8.95 -0.53,-11.39 -4.02,-10.35 -20.7,-16.82 -37.23,-17.81 13.56,18.78 23.22,40.21 26.87,64.77 6.73,45.68 -6.68,103.03 -40.26,137.87 1.84,1.24 4.22,1.82 6.95,1.82z"/>
   <path class="fil1" d="M8834.65 54.35c-65.44,0 -91.13,11.41 -104.39,67.7 -8.11,34.46 -11.39,78.59 -11.71,111.26 -0.07,6.07 -14.38,20.97 -14.24,26.85 0.14,6.87 14.77,4.67 15.16,11.21 0.85,14.56 3.36,18.42 4.95,30.18 0.73,5.45 14.17,1.47 15.08,6.31 0.42,2.32 -11.75,13.68 -11.28,15.85 4.93,22.72 10.67,38.1 20.22,44.95 24.66,17.68 73.7,20.32 92.29,20.32 41.45,0 133.5,-35.31 133.5,-162.68 0,-102.5 -46.96,-171.95 -139.58,-171.95z"/>
   <path class="fil9" d="M8918.86 67.56c-37.21,-37.04 -92.27,-40.24 -153.6,-6.14 -40.33,22.41 -60.19,-23.29 -68.44,-7.07 -10.77,21.12 7.89,89.86 28.11,95.89 16.64,-9.43 56.27,-17.59 67.74,40.91 6.54,33.36 41.77,39.93 65.2,43.74 2.52,59.11 38.31,27.86 38.31,27.86 0,0 0,0 -1.97,39.19 -13.45,24.98 3.24,44.7 11.93,66.12 19.67,-2.25 96.04,-32.6 110.59,-139.15 12.69,-92.95 -42.5,-165.26 -97.87,-161.35z"/>
   <path class="fil1" d="M8868.48 272.61c3.98,18.71 11.01,36.71 21.7,34.44 10.72,-2.26 27.29,-16.82 28.61,-41.23 2.06,-37.73 -26.37,-43.94 -37.07,-41.67 -10.69,2.27 -17.21,29.75 -13.24,48.46z"/>
   <path class="fil9" d="M8749.6 228.91c0,5.84 -3.1,10.57 -6.93,10.57 -3.84,0 -6.96,-4.73 -6.96,-10.57 0,-5.84 3.12,-10.57 6.96,-10.57 3.83,0 6.93,4.73 6.93,10.57z"/>
   <path class="fil9" d="M8773.22 209.88c0,0 -1.09,-3.42 -3.8,-8.11 -2.67,-4.67 -7.22,-10.59 -13.59,-14.96 -1.63,-1.03 -3.21,-2.19 -5,-2.98 -1.73,-0.95 -3.53,-1.68 -5.41,-2.01 -1.84,-0.45 -3.67,-0.52 -5.4,-0.29 -0.84,0.07 -1.67,0.15 -2.47,0.22 -0.78,0.23 -1.52,0.45 -2.24,0.67 -1.41,0.46 -2.68,0.88 -3.71,1.47 -1.03,0.63 -1.88,1.22 -2.56,1.74 -1.36,1.03 -2.02,1.74 -2.02,1.74l0.29 0.82c0,0 1.02,0.25 2.6,0.45 0.8,0.11 1.71,0.19 2.74,0.25 1.02,0.06 2.17,0.4 3.35,0.49 1.2,0.09 2.43,0.3 3.71,0.6 1.28,0.24 2.6,0.4 3.94,0.78 1.39,0.14 2.81,0.41 4.28,0.74 1.54,0.17 2.94,0.89 4.44,1.39 2.88,1.31 5.71,2.99 8.13,4.96 2.47,1.89 4.6,3.98 6.43,5.79 3.5,3.76 5.5,6.64 5.5,6.64l0.79 -0.4z"/>
   <path class="fil2" d="M8935.31 404.14l-63.28 54.1 -29.16 -10.06 9.27 22.58 -67.56 -7.05c0,0 17.44,-2.48 48.34,-31.75 45.29,-42.88 68.5,-46.33 68.5,-46.33l33.89 18.51z"/>
   <polygon class="fil2" points="8784.58,463.71 8772.17,463.71 8776.65,447.33 8768.93,444.32 8786.94,407.82 8804.94,404.28 "/>
   <path class="fil1" d="M8845.85 517.93c0,0 -0.24,6.6 -0.67,18.17 -0.57,11.4 -1.65,27.72 -3.96,47.12 -2.3,19.38 -5.91,41.87 -11.67,65.01 -2.87,11.56 -6.37,23.21 -10.54,34.48 -4.14,11.3 -9.13,22.07 -14.8,31.47 -5.69,9.23 -12.21,17.02 -18.35,21.18l-0.56 0.44 -0.15 0.1 -0.07 0.06c0.33,-0.18 -0.84,0.47 0.73,-0.38l-0.55 0.31 -1.1 0.64 -0.46 0.27 0.02 -0.01c0.33,-0.1 -0.48,0.35 -1.14,0.63 -1.38,0.63 -3.16,1.25 -5.22,1.75 -4.14,1 -9.15,1.64 -14.41,1.88 -10.53,0.5 -21.86,-0.34 -32.66,-1.65 -10.82,-1.35 -21.25,-3.21 -30.88,-5.18 -19.26,-4 -35.37,-8.44 -46.52,-11.68 -5.54,-1.69 -9.89,-3.02 -12.86,-3.93 -2.82,-0.91 -4.32,-1.4 -4.32,-1.4l-0.66 -0.21c-11.64,-3.76 -24.15,2.63 -27.91,14.28 -3.58,11.04 2.05,22.87 12.53,27.29 0,0 1.74,0.72 4.96,2.07 3.12,1.24 7.69,3.05 13.5,5.36 11.66,4.46 28.33,10.58 49.09,16.7 10.39,3.05 21.81,6.08 34.3,8.69 12.53,2.56 26.03,4.84 41.31,5.45 7.65,0.27 15.77,0.11 24.72,-1.18 4.47,-0.67 9.19,-1.67 14.15,-3.24 2.52,-0.82 4.82,-1.62 8.21,-3.17l2.96 -1.4 0.58 -0.27 1.59 -0.9 1.57 -0.92c17.18,-9.94 29.14,-23.43 38.98,-36.77 9.64,-13.48 17.18,-27.35 23.44,-41.07 6.28,-13.72 11.46,-27.33 15.81,-40.53 8.68,-26.42 14.53,-51.25 18.71,-72.63 4.16,-21.38 6.69,-39.3 8.25,-51.87 1.39,-12.46 2.19,-19.57 2.19,-19.57 2.39,-21.51 -13.1,-40.9 -34.62,-43.3 -21.5,-2.4 -40.89,13.1 -43.28,34.61 -0.11,0.94 -0.18,1.87 -0.22,2.8l-0.02 0.5z"/>
   <path class="fil1" d="M8525.94 687.02c1.73,-14.22 47.84,-11.52 71.98,3.04 16.03,9.65 35.01,25.91 55.64,34.15 32.5,12.98 11.9,34.54 -18.15,40.04 -31.14,5.71 -80.26,-28.71 -86.25,-35.01 -9.87,-10.44 -24.95,-28.02 -23.22,-42.22z"/>
   <path class="fil2" d="M8920.68 644.8c27.15,-58.63 43.74,-152.2 27.7,-177.78 -24.99,-39.88 -78.27,-34.3 -106.5,22.07 -11.1,22.14 -23.13,83.1 -38.75,126.88 9.66,20.8 81.79,49.12 117.55,28.83z"/>
   <path class="fil7" d="M8547.05 1486.62c42,-22.88 103.63,-72.31 113.84,-78.86 3.52,-2.26 5.71,-0.69 8.96,0.88 3.06,1.47 7.06,2.94 13.98,1.25 16.55,-4.03 32.17,-17.28 32.17,-17.28 0,0 18.29,-1.4 6.31,18.51 16.91,12.91 24.69,53.98 10.89,66.04 -13.27,7.33 -82.32,25.04 -110.04,44.03 -42.04,28.75 -98.86,-22.17 -76.11,-34.57z"/>
   <path class="fil10" d="M8594.98 1529.86c9.46,0 19.15,-2.5 28.18,-8.67 27.72,-18.99 96.77,-36.7 110.04,-44.03l0 0c-13.27,7.33 -82.32,25.04 -110.04,44.03 -9.03,6.17 -18.73,8.67 -28.18,8.67 -5.52,0 -10.95,-0.86 -16.12,-2.33 5.17,1.48 10.6,2.33 16.12,2.33z"/>
   <path class="fil11" d="M8737.75 1437.62c-0.29,-1.04 -0.59,-2.07 -0.92,-3.1l0 0c0.33,1.03 0.63,2.06 0.92,3.1z"/>
   <path class="fil8" d="M8594.98 1529.86c9.45,0 19.15,-2.5 28.18,-8.67 27.72,-18.99 96.77,-36.7 110.04,-44.03l0 0c8.08,-7.07 8.76,-24.07 4.55,-39.54 -0.29,-1.04 -0.59,-2.07 -0.92,-3.1 -19.4,22.45 -44.79,37.67 -69.49,55.7 -22.72,16.6 -46.03,27.39 -72.28,27.39 -7.65,0 -15.54,-0.92 -23.74,-2.87 -9.57,-2.28 -18.45,-6.02 -26.52,-10.91 5.58,9.3 18.6,19.28 34.06,23.7 5.17,1.47 10.6,2.33 16.12,2.33z"/>
  </g>
  <g id="_1670900389888">
   <path class="fil1" d="M9675.05 540.47c0,0 1.01,0.87 2.91,2.5 2,1.78 4.93,4.39 8.68,7.7 7.44,6.76 18.03,16.67 30.05,29.03 11.97,12.37 25.51,27.24 37.73,43.8 6.06,8.26 11.82,16.98 16.23,25.6 4.48,8.51 7.32,17.35 7.52,22.65l0.03 0.92 0.01 0.44c0.05,-0.41 -0.09,1.01 0.11,-0.92l-0.01 0.14 -0.02 0.28 -0.05 0.56 -0.09 1.13 0.02 -0.13 0.09 -0.22 -0.04 0.3c-0.11,0.96 -0.48,2.42 -1.14,4.11 -1.32,3.39 -3.55,7.44 -6.22,11.5 -5.39,8.18 -12.32,16.43 -19.47,24.14 -14.41,15.49 -29.76,29.22 -43.14,40.64 -13.44,11.41 -25.1,20.55 -33.3,26.84 -8.18,6.12 -12.85,9.62 -12.85,9.62l-0.45 0.33c-7.86,5.89 -9.46,17.03 -3.57,24.9 5.51,7.36 15.71,9.19 23.43,4.56 0,0 1.36,-0.83 3.92,-2.37 2.46,-1.54 6.07,-3.78 10.67,-6.64 9.12,-5.78 22.03,-14.15 37.2,-24.87 15.17,-10.78 32.65,-23.72 50.62,-39.84 8.97,-8.13 18.07,-16.99 26.84,-27.88 4.36,-5.51 8.67,-11.53 12.55,-18.98 1.92,-3.75 3.74,-7.91 5.17,-12.77l0.55 -1.89 0.52 -2.44 0.66 -3.46 0.1 -0.56 0.05 -0.28 0.02 -0.14 0.13 -1.2 0.13 -1.82c0.09,-1.21 0.19,-2.44 0.19,-3.59 0.21,-9.49 -1.3,-17.88 -3.32,-25.46 -2.04,-7.6 -4.67,-14.46 -7.54,-20.9 -5.74,-12.85 -12.42,-24.01 -19.18,-34.37 -13.61,-20.61 -27.75,-37.74 -40.19,-52.07 -12.47,-14.26 -23.36,-25.55 -31.14,-33.4 -3.95,-3.91 -7.07,-6.97 -9.18,-9.07 -2.28,-2.16 -3.5,-3.32 -3.5,-3.32 -12.57,-11.96 -32.46,-11.46 -44.4,1.11 -11.97,12.57 -11.47,32.45 1.12,44.41l1.14 1.04 0.41 0.34z"/>
   <path class="fil2" d="M9818.82 596.79c-20.31,-47.62 -67.1,-107.75 -90.95,-111.95 -37.14,-6.54 -62.44,28.17 -44.05,75.25 7.22,18.49 37.05,58.4 54.71,91.19 17.58,5.42 73.17,-22.3 80.29,-54.49z"/>
   <path class="fil1" d="M9565.09 819.1c-7.84,-8.37 31.48,-30.05 43.22,-32.45 14.68,-3.03 25.82,2.24 41.5,-6.2 24.69,-13.29 33.19,9.87 21.12,31.17 -12.52,22.07 -29.2,23.75 -29.27,36.45 -0.06,10.26 -15.4,0.61 -13.76,-9.42 1.64,-10.03 2.25,-13.88 0.87,-16.83 -1.86,-4.06 -18.96,-9.72 -25.91,-9.29 -11.49,0.71 -29.93,14.94 -37.77,6.57z"/>
   <path class="fil1" d="M9591.73 938.22c0,0 -3.48,7.38 -9.57,20.31 -3.05,6.48 -6.76,14.34 -11.02,23.35 -4.28,9.25 -9.16,19.54 -14.3,31.21 -5.23,11.49 -10.61,24.35 -16.1,37.93 -2.65,6.87 -5.37,13.92 -8.16,21.11 -2.55,7.29 -5.18,14.74 -7.83,22.31 -2.63,7.57 -4.9,15.39 -7.41,23.22l-1.85 5.91 -1.46 4.62 -0.71 2.89c-0.39,1.41 -1.17,5.13 -1.76,8.17 -0.27,1.48 -0.65,3.37 -0.79,4.51l-0.45 3.55c-1.25,9.52 -1.78,18.1 -2.25,26.76 -0.43,8.6 -0.71,17.09 -0.86,25.49 -0.6,33.6 0.02,66.51 0.86,97.36 0.86,30.84 2.02,59.51 3.12,84.08 1.23,24.56 2.25,45.02 2.97,59.34 0.82,14.35 1.29,22.55 1.29,22.55 0.72,12.68 11.59,22.38 24.28,21.65 12.01,-0.69 21.34,-10.48 21.68,-22.29l0.01 -0.29c0,0 0.21,-8.1 0.56,-22.29 0.47,-14.21 1.12,-34.51 1.92,-58.88 0.91,-24.36 2.09,-52.77 3.75,-83.08 1.68,-30.28 3.75,-62.61 6.93,-94.13 0.78,-7.88 1.69,-15.65 2.71,-23.24 1.02,-7.51 2.15,-15.03 3.56,-21.35l0.51 -2.38c0.17,-0.85 0.27,-0.89 0.39,-1.38 0.29,-0.85 0.18,-1.07 1.04,-3.45l0.94 -2.82c0.28,-0.87 0.06,-0.16 -0.18,0.56 -0.17,0.55 -0.35,1.11 -0.29,0.92l0.07 -0.16 0.14 -0.33 0.29 -0.65 0.58 -1.3 2.25 -5.2c3.06,-6.88 5.86,-13.76 8.98,-20.36 3.14,-6.58 6.22,-13.04 9.24,-19.37 3.21,-6.24 6.36,-12.33 9.42,-18.27 6.34,-11.82 12.39,-22.88 18.44,-33.1 5.85,-10.18 11.63,-19.62 16.64,-27.94 5.17,-8.48 9.68,-15.87 13.39,-21.95 7.44,-12.21 11.69,-19.18 11.69,-19.18 13.5,-22.16 6.47,-51.07 -15.68,-64.56 -22.16,-13.51 -51.06,-6.49 -64.57,15.67 -0.88,1.43 -1.66,2.89 -2.36,4.37l-0.05 0.11z"/>
   <path class="fil3" d="M9597.67 889.25l121.9 95.08c0,0 -112.19,158.07 -125.22,203.21 -7.94,27.51 -20.85,246.47 -20.85,246.47l-65.62 -16.29c0,0 -26.23,-209.67 -16.85,-281.89 13.77,-105.82 106.64,-246.58 106.64,-246.58z"/>
   <path class="fil12" d="M9573.5 1434.01c0,0 12.91,-218.96 20.85,-246.47 6.03,-20.87 33.27,-65.91 60.81,-108.3 -10.48,-38.54 -17.4,-71.31 -17.51,-83.97 -0.2,-21.07 10.77,-39.64 26.81,-53.93l-62.33 -48.6c9.5,27.6 15.88,56.36 18.87,85.9 3.77,37.15 -0.83,75.26 -12.31,110.72 -12.56,38.76 -40.19,70.47 -52.13,109.29 -6.7,21.78 -2.93,46.51 -2.01,68.93 1.09,26.31 1.21,52.68 -1.47,78.88 -2.63,25.97 -9.75,55.78 -25.68,76.1l46.1 11.45z"/>
   <path class="fil1" d="M9683.54 1048.19c0,0 0.62,6.47 1.72,17.78 1.13,11.66 2.51,29.14 5.97,50.83 1.66,10.8 4.05,22.68 7.15,35.21 3.05,12.53 7.24,25.76 12.48,39.21 2.56,6.75 5.65,13.48 8.81,20.26 1.73,3.33 3.47,6.7 5.21,10.08l1.34 2.52 0.33 0.63 0.8 1.5 0.17 0.26 0.65 1.02 1.74 2.72 2.92 4.29c13.47,17.63 27.83,26.87 41.54,35.05 13.8,7.92 27.37,13.84 40.65,18.97 13.28,5.1 26.27,9.32 38.81,13.02 25.12,7.33 48.46,12.62 68.51,16.67 20.02,4.04 36.75,6.81 48.51,8.62 5.91,0.86 10.55,1.54 13.71,1.99 3.29,0.44 5.04,0.69 5.04,0.69 12.6,1.69 24.18,-7.16 25.87,-19.75 1.55,-11.54 -5.74,-22.23 -16.67,-25.24l-0.76 -0.21c0,0 -6.14,-1.7 -16.92,-4.67 -10.87,-3.14 -26.41,-7.8 -44.75,-14 -18.33,-6.21 -39.5,-13.97 -61.13,-23.42 -10.79,-4.75 -21.69,-9.92 -32.16,-15.58 -10.44,-5.64 -20.53,-11.82 -28.97,-18.3 -4.2,-3.23 -7.95,-6.53 -10.93,-9.68 -2.96,-3.08 -5.03,-6.18 -5.77,-7.95l0.27 0.19 0.04 0.07 -0.22 -0.46 -0.52 -1.1 -0.52 -1.1 -0.13 -0.28c-0.08,-0.14 0.14,0.27 0.36,0.67 0.27,0.51 0.55,1.03 0.22,0.4l-0.05 -0.11 -0.18 -0.47 -0.77 -1.86c-0.99,-2.46 -2,-4.91 -2.98,-7.35 -1.75,-5.02 -3.53,-9.92 -4.9,-14.97 -2.85,-10.01 -5.08,-19.95 -6.5,-29.74 -1.48,-9.77 -2.52,-19.15 -3.06,-28.09 -1.2,-17.75 -1.07,-33.41 -1.13,-44.88 -0.07,-11.83 -0.11,-18.59 -0.11,-18.59 -0.15,-25.94 -21.31,-46.85 -47.25,-46.69 -25.95,0.15 -46.84,21.31 -46.69,47.25 0.01,1.39 0.08,2.78 0.2,4.15l0.05 0.44z"/>
   <path class="fil4" d="M9637.65 995.27c-0.73,-78.2 152.31,-121.94 147.36,-40.26 -2.22,36.47 16.96,198.71 34.09,218.41 28.09,32.28 147.74,91.92 147.74,91.92l-6.66 66.97c0,0 -201.38,-31.01 -237.02,-77.13 -35.57,-46.04 -85.21,-225.84 -85.51,-259.91z"/>
   <path class="fil13" d="M9960.18 1332.31l0.71 -7.06 0 0 -0.71 7.06c0,0 -201.38,-31.01 -237.02,-77.13l0 0c35.64,46.12 237.02,77.13 237.02,77.13z"/>
   <polygon class="fil14" points="9960.89,1325.25 9964.2,1291.82 9964.2,1291.82 9960.89,1325.25 "/>
   <path class="fil15" d="M9960.18 1332.31l0.71 -7.06 3.31 -33.43c-7.79,2.18 -15.71,3.62 -23.88,3.62 -4.4,0 -8.87,-0.42 -13.43,-1.36 -27.65,-5.67 -55.92,-17.52 -82.32,-27.56 -48.48,-18.43 -96.62,-49.96 -132.5,-87.39 -17.66,-18.42 -28.48,-40.06 -36.9,-63.88 -10.64,-30.02 -20.67,-60.09 -31.77,-89.99 -1.02,-2.71 -1.96,-5.46 -2.95,-8.2 10.97,59.46 52.04,198.43 82.71,238.12l0 0c35.64,46.12 237.02,77.13 237.02,77.13z"/>
   <path class="fil1" d="M9726.77 469.56c-3.56,-24.33 10.58,-44.85 10.58,-44.85l-96.5 4.21 -4.2 41.38c0,0 -20.65,23.53 -22.17,28.2 -11.27,34.78 -14.55,56.14 -14.55,56.14l138.52 1.71 5.95 -47.02c0,0 -14.09,-15.47 -17.63,-39.77z"/>
   <path class="fil5" d="M9702.16 446.8c4.73,-6.9 9.49,-13.73 13.31,-21.13l-74.62 3.25 -3.36 33.01c0,0 53.28,1.6 64.67,-15.13z"/>
   <path class="fil4" d="M9790.35 864.95c27.63,97.47 -45.5,140.06 -118.93,140.67 -43.79,0.36 -89.13,-51.03 -89.79,-130.01 -0.45,-55.66 12.85,-83.59 86.28,-84.19 73.44,-0.61 107.27,19.99 122.44,73.53z"/>
   <path class="fil6" d="M9795.94 856.23c0,0 -28.46,-52.23 -28.07,-108.74 0.64,-93.17 20.77,-185.81 13.44,-222.35 -7.85,-39.1 -54.54,-55.58 -54.54,-55.58 0,0 -16.83,-2.73 -44.46,17.62 -22.4,16.49 -55.11,42.13 -64.41,39.32 -10.01,-3.04 7.05,-47.7 7.05,-47.7 0,0 -21.94,29.54 -29.52,65.97 -4.63,22.31 -24.76,52.51 -26.38,73.94 -1.34,17.61 20.06,36.55 19.41,48.91 -4.98,96.92 -17.32,201.5 -17.32,201.5 0,0 37.99,30.17 123.29,29.46 85.28,-0.7 101.51,-42.35 101.51,-42.35z"/>
   <path class="fil7" d="M10004.17 1457.54c-7.15,-44.55 -31.73,-114.88 -34.35,-126 -1.75,-7.43 7.72,-5.92 9.1,-19.73 1.62,-16 -5.26,-34.04 -5.26,-34.04 0,0 4.52,-16.69 18.45,0.2 16.79,-10.98 55.75,-4.99 62.13,11.07 2.36,14.12 -3.6,81.08 4.57,111.69 12.37,46.42 -50.75,80.94 -54.64,56.81z"/>
   <path class="fil8" d="M10014.38 1465.4c9.99,0 25.05,-8.47 35.2,-21.96 8.54,-11.37 13.61,-26.29 9.23,-42.71l0 0c-3.67,-13.78 -4.49,-34.93 -4.49,-55.31 0,-16.26 0.52,-32.03 0.52,-43.18 0,-5.91 -0.14,-10.51 -0.6,-13.2l0 0c-0.58,-1.49 -1.46,-2.89 -2.57,-4.21 0,0 0,0 -0.01,-0.01 -0.01,-0.01 -0.02,-0.01 -0.02,-0.02 -6.15,-7.21 -19.46,-11.59 -32.63,-12.27 12.92,17.61 22.21,37.74 25.81,60.88 6.73,43.02 -5.47,97.22 -36.86,130.33 1.72,1.12 3.91,1.66 6.42,1.66z"/>
   <path class="fil1" d="M9661.93 140.06c-61.71,0.53 -85.86,11.49 -97.93,64.67 -7.36,32.57 -10.11,74.21 -10.17,105.02 -0.01,5.71 -13.38,19.88 -13.23,25.43 0.21,6.48 13.99,4.29 14.4,10.45 0.93,13.73 3.32,17.34 4.91,28.42 0.73,5.13 13.36,1.28 14.25,5.83 0.43,2.18 -10.95,12.98 -10.49,15.03 4.81,21.38 10.37,35.85 19.42,42.24 23.4,16.49 69.64,18.57 87.19,18.43 39.08,-0.32 125.61,-34.34 124.61,-154.46 -0.8,-96.65 -45.61,-161.79 -132.96,-161.06z"/>
   <path class="fil16" d="M9741.43 151.86c-35.38,-34.63 -83.07,-27.71 -146.89,-10.25 -63.83,17.48 -64.1,78.67 -30.31,88.44 15.61,-9.03 47.89,-15.73 59.18,39.36 6.42,31.4 39.7,37.33 61.82,40.74 2.84,55.72 36.35,25.97 36.35,25.97 0,0 0,0 -1.53,36.98 -25,47.3 2.22,96.48 39.68,111.9 35.95,14.79 118.5,52.02 184.42,18.46 31.88,-16.24 -55.19,-93.11 -99.94,-194.63 -37.49,-85.04 -34.73,-157.38 -102.78,-156.97z"/>
   <path class="fil1" d="M9695.54 345.63c3.88,17.61 10.67,34.54 20.73,32.31 10.07,-2.22 25.6,-16.08 26.65,-39.11 1.64,-35.6 -25.21,-41.24 -35.29,-39.01 -10.06,2.23 -15.98,28.2 -12.09,45.81z"/>
   <path class="fil16" d="M9583.09 305.35c0.04,5.51 -2.85,10 -6.46,10.02 -3.63,0.03 -6.59,-4.4 -6.63,-9.91 -0.04,-5.51 2.83,-9.99 6.46,-10.02 3.61,-0.02 6.57,4.4 6.63,9.91z"/>
   <path class="fil16" d="M9605.2 287.23c0,0 -1.05,-3.23 -3.64,-7.62 -2.56,-4.39 -6.89,-9.94 -12.93,-14.01 -1.55,-0.96 -3.04,-2.04 -4.74,-2.77 -1.64,-0.87 -3.35,-1.56 -5.12,-1.85 -1.72,-0.42 -3.46,-0.46 -5.08,-0.24 -0.81,0.08 -1.59,0.15 -2.34,0.23 -0.73,0.22 -1.43,0.44 -2.1,0.65 -2.7,0.77 -4.65,2.04 -5.9,3.07 -1.26,0.98 -1.9,1.66 -1.9,1.66l0.29 0.78c0,0 0.97,0.22 2.46,0.4 0.75,0.09 1.62,0.16 2.59,0.21 0.96,0.04 2.05,0.36 3.17,0.44 1.12,0.06 2.3,0.26 3.5,0.53 1.21,0.23 2.45,0.37 3.72,0.7 1.31,0.14 2.64,0.37 4.05,0.67 1.44,0.15 2.76,0.82 4.19,1.28 2.72,1.21 5.4,2.78 7.7,4.61 2.36,1.77 4.37,3.72 6.1,5.42 3.34,3.51 5.24,6.21 5.24,6.21l0.74 -0.37z"/>
   <path class="fil2" d="M9759.6 469.14l-59.27 51.52 -27.57 -9.27 8.93 21.23 -63.79 -6.12c0,0 16.43,-2.47 45.36,-30.31 42.36,-40.81 64.24,-44.24 64.24,-44.24l32.1 17.19z"/>
   <polygon class="fil2" points="9617.9,526.5 9606.2,526.59 9610.29,511.12 9603.01,508.34 9619.7,473.77 9636.65,470.3 "/>
   <path class="fil1" d="M9691.41 566.18c0,0 -0.15,5.3 -0.41,14.57 -0.39,9.14 -1.14,22.23 -2.87,37.8 -1.72,15.55 -4.46,33.6 -8.91,52.19 -4.48,18.44 -10.83,37.84 -19.89,53.04 -4.5,7.44 -9.67,13.72 -14.56,17.1l-0.45 0.36 -0.23 0.17c2.44,-1.32 0.61,-0.33 1.12,-0.61l-0.11 0.06 -0.21 0.12 -1.78 0.99c-1.63,0.95 -1.33,0.61 -1.5,0.75 0.14,0.06 -0.7,0.33 -1.4,0.56 -0.65,0.27 -1.42,0.49 -2.28,0.68 -3.28,0.85 -7.27,1.42 -11.51,1.62 -8.42,0.5 -17.54,-0.15 -26.18,-1.1 -8.69,-1 -17.05,-2.43 -24.78,-3.95 -15.47,-3.07 -28.42,-6.52 -37.38,-9.05 -4.45,-1.32 -7.95,-2.35 -10.34,-3.05 -2.26,-0.72 -3.47,-1.09 -3.47,-1.09l-0.52 -0.17c-9.38,-2.94 -19.35,2.27 -22.3,11.63 -2.79,8.88 1.81,18.33 10.25,21.8 0,0 1.38,0.56 3.98,1.62 2.5,0.97 6.18,2.4 10.86,4.21 9.38,3.49 22.78,8.29 39.46,13.05 8.36,2.37 17.53,4.73 27.56,6.75 10.09,1.94 20.9,3.72 33.18,4.07 6.1,0.2 12.64,-0.01 19.81,-1.14 1.77,-0.24 3.6,-0.58 5.52,-1.08 1.89,-0.45 3.65,-0.82 6.29,-1.8 2.35,-0.81 5.23,-1.98 5.96,-2.36l1.85 -0.84 0.24 -0.11 0.11 -0.04 1.36 -0.73 0.62 -0.37 1.26 -0.76c13.7,-8.07 23.2,-18.97 31,-29.72 7.63,-10.88 13.6,-22.06 18.52,-33.09 4.94,-11.05 9,-21.98 12.39,-32.6 6.79,-21.23 11.31,-41.18 14.52,-58.34 3.19,-17.17 5.1,-31.56 6.28,-41.65 1.02,-9.99 1.61,-15.69 1.61,-15.69 1.78,-17.27 -10.77,-32.7 -28.04,-34.48 -17.25,-1.78 -32.69,10.77 -34.47,28.03 -0.08,0.75 -0.12,1.5 -0.15,2.25l-0.01 0.4z"/>
   <path class="fil1" d="M9436.08 703.85c1.28,-11.39 54.51,-3.75 63.95,3.63 11.82,9.22 22,18.87 38.6,25.34 26.13,10.2 4.6,28.84 -19.46,33.46 -24.92,4.78 -37.02,-6.84 -46.74,1.36 -7.84,6.6 -10.44,-11.34 -1.75,-16.59 8.71,-5.26 12.03,-7.29 13.4,-10.26 1.89,-4.03 -9.27,-15.32 -14.11,-20.34 -7.98,-8.28 -35.2,-5.2 -33.89,-16.6z"/>
   <path class="fil2" d="M9752.24 667.39c21.37,-47.18 34.05,-122.31 21.02,-142.71 -20.28,-31.79 -62.97,-26.97 -85.23,18.41 -8.75,17.82 -17.98,66.77 -30.21,101.95 7.87,16.63 65.89,38.85 94.42,22.35z"/>
   <path class="fil7" d="M9384.62 1450.49c45.01,2.7 119.02,-6.01 130.45,-6.14 7.64,-0.09 4.1,8.82 17.28,13.18 15.26,5.05 34.35,2.27 34.35,2.27 0,0 15.34,8.02 -4.19,17.95 7.07,18.77 -7.24,55.51 -24.31,58.24 -14.3,-0.76 -78.36,-21.13 -110.01,-19.8 -24.09,0.99 -41.12,-15.93 -49.02,-32.84 -7.85,-16.79 -6.7,-33.58 5.45,-32.86z"/>
   <path class="fil17" d="M9538.26 1535.99c0,-0.01 0,-0.01 0.01,-0.01 -0.01,0 -0.01,0 -0.01,0.01zm0.06 -0.01c0,0 0,-0.01 0.01,-0.01 -0.01,0 -0.01,0.01 -0.01,0.01zm0.06 -0.01l0 0z"/>
   <path class="fil8" d="M9538.2 1535.99l0 0c0.02,0 0.04,0 0.06,0 0,-0.01 0,-0.01 0.01,-0.01 0.02,0 0.03,0 0.05,0 0,0 0,-0.01 0.01,-0.01 0.02,0 0.04,0 0.05,0l0 0c10.58,-1.86 20.1,-16.76 24.03,-32.26 -18.04,5.58 -36.61,7.15 -55.62,8.22 0.34,1.74 0.71,3.4 1.11,4.98l0 0c1.17,4.49 1.66,8.87 1.6,13.11 13.18,3.17 23.83,5.71 28.7,5.97zm-102.47 -19.75c-0.53,-1.92 -1.05,-3.83 -1.59,-5.73 -16.13,-4.06 -30.92,-11.95 -44.17,-25.4 -6.53,-6.61 -11.75,-14.03 -15.77,-21.99 -0.34,19.11 18.87,53.11 51.99,53.11 0.66,0 1.33,-0.01 2,-0.04l0 0c1,-0.04 2.03,-0.06 3.09,-0.06 1.43,0 2.92,0.03 4.45,0.11z"/>
   <path class="fil18" d="M9496.44 1563.76c2.22,-2.72 4.25,-5.65 6.02,-8.76l0 0c-1.77,3.11 -3.8,6.04 -6.02,8.76z"/>
   <path class="fil19" d="M9509.5 1530.02c0.06,-4.24 -0.43,-8.62 -1.6,-13.11 1.17,4.49 1.65,8.87 1.59,13.11l0.01 0z"/>
  </g>
 </g>
</svg>
