<?xml version="1.0" encoding="UTF-8"?>
<!DOCTYPE svg PUBLIC "-//W3C//DTD SVG 1.1//EN" "http://www.w3.org/Graphics/SVG/1.1/DTD/svg11.dtd">
<!-- Creator: CorelDRAW 2017 -->
<svg xmlns="http://www.w3.org/2000/svg" xml:space="preserve" width="102.51mm" height="16.02mm" version="1.1" style="shape-rendering:geometricPrecision; text-rendering:geometricPrecision; image-rendering:optimizeQuality; fill-rule:evenodd; clip-rule:evenodd"
viewBox="0 0 10251 1602"
 xmlns:xlink="http://www.w3.org/1999/xlink">
 <defs>
  <style type="text/css">
   <![CDATA[
    .fil4 {fill:#29A8B9;fill-rule:nonzero}
    .fil8 {fill:#2C3238;fill-rule:nonzero}
    .fil5 {fill:#795547;fill-rule:nonzero}
    .fil2 {fill:#CDD7D8;fill-rule:nonzero}
    .fil9 {fill:#D3745E;fill-rule:nonzero}
    .fil3 {fill:#ED8B6E;fill-rule:nonzero}
    .fil6 {fill:#FCBF33;fill-rule:nonzero}
    .fil0 {fill:#FF5F2F;fill-rule:nonzero}
    .fil1 {fill:#FFA787;fill-rule:nonzero}
    .fil7 {fill:white;fill-rule:nonzero}
   ]]>
  </style>
 </defs>
 <g id="Camada_x0020_1">
  <metadata id="CorelCorpID_0Corel-Layer"/>
  <path class="fil0" d="M8506.26 976.2c0.08,66.03 52.85,118.42 118.99,118.19 65.98,-0.23 118.16,-53.11 117.79,-119.39 -0.35,-65.26 -52.82,-117.37 -118.22,-117.43 -66.11,-0.06 -118.66,52.53 -118.56,118.63z"/>
  <path class="fil1" d="M9106.84 1279.13c40.8,-59.84 81.69,-119.8 123.92,-181.75 -23.42,-17.48 -46.2,-34.46 -70.1,-52.27 -4.36,7.19 -7.88,12.54 -10.95,18.13 -32.77,59.64 -65.18,119.47 -98.34,178.87 -9.01,16.11 -10.61,30.12 -2.29,47.85 27.51,58.61 53.06,118.14 79.36,177.3 2.11,4.79 4.05,9.7 6.57,14.25 6.87,12.48 14.82,14.69 27.65,8.1 5.82,-2.99 9.33,-7.06 7.13,-14.13 -1.78,-5.61 -3.41,-11.27 -5.1,-16.91 -13.19,-43.82 -26.07,-87.75 -39.72,-131.44 -4.84,-15.52 -11.44,-30.5 -18.13,-48z"/>
  <path class="fil1" d="M8810.19 1265.32c18.79,-40.91 38.26,-82.29 56.84,-124.08 7.95,-17.9 14.82,-36.34 20.78,-54.98 2.82,-8.89 7.71,-12.21 16.13,-14.31 50.16,-12.56 100.21,-25.59 150.27,-38.54 16.38,-4.22 32.73,-8.59 51.35,-13.5 -5.87,-28.32 -11.53,-55.53 -17.48,-84.18 -5.62,1.11 -10.01,1.4 -14,2.84 -67.09,24.26 -134.11,48.8 -201.25,72.99 -15.12,5.44 -24.76,13.96 -29.64,30.57 -19.02,64.68 -39.63,128.88 -59.56,193.3 -8.57,27.72 -5.66,31.11 26.56,29.89z"/>
  <path class="fil2" d="M9365.09 943.5c-46.46,-14.73 -92.03,-29.01 -137.47,-43.67 -30.2,-9.71 -54.5,-1.61 -73.55,-35.96 -41.2,44.44 -95.4,64.9 -151.07,81.54 9.17,48.17 42.73,79.09 68.65,116.82 25.81,-11.95 50.89,-23.55 75.96,-35.16 0.83,0.89 1.67,1.76 2.5,2.62 -11.78,20.07 -23.53,40.14 -36.11,61.56 29.68,29.71 68.7,42.92 102.9,64.93 4.91,-5.3 9.03,-9.41 12.8,-13.83 36.6,-42.83 73.14,-85.69 109.66,-128.58 14.16,-16.65 24.85,-45.25 25.73,-70.27z"/>
  <path class="fil1" d="M9611.66 871.78c11.94,-2.35 16.85,-9.25 20.31,-19.78 10.02,6.66 21.6,13.53 32.25,21.63 10.53,7.99 20.1,17.24 33.35,23.86 2.65,-6.69 -7.34,-15.37 -10.99,-23.06 0.62,-0.91 1.23,-1.81 1.86,-2.7 8.87,5.31 17.74,10.63 26.63,15.95 0.72,-0.81 1.44,-1.63 2.15,-2.45 -4.15,-6.63 -8.3,-13.25 -14,-22.36 8.57,3.21 14.27,5.36 20.22,7.57 0,-6.94 -20.49,-32.24 -44.45,-37.64 -21.43,-8.74 -35.71,-23.93 -45.7,-45.52 -16.24,-35.01 -34.56,-69.17 -53.79,-102.65 -10.33,-17.98 -22.88,-35.22 -37.09,-50.27 -31.9,-33.85 -65.45,-66.15 -98.38,-99.01 -4.57,-4.55 -9.42,-8.85 -16.28,-15.27 -9.27,21.36 -17.77,40.87 -28.03,64.49 3.93,2.47 8.79,4.77 12.76,8.1 23.56,19.85 46.44,40.52 70.47,59.76 21.22,16.97 38.85,36.62 53.66,59.4 19.66,30.18 39.94,60.01 61.18,89.11 15.37,21.05 24.55,50.25 9.74,67.49 1.39,1.13 2.77,2.24 4.13,3.35z"/>
  <path class="fil1" d="M8898.61 755.75c-5.74,7.1 -30.2,4.57 -29.61,19.14 18.97,-2.49 49.46,-3.44 67.51,-7.64 40.13,-9.32 79.96,-20.02 119.73,-30.8 7.19,-1.94 15,-5.55 20.01,-10.79 32.1,-33.63 63.5,-67.92 95.05,-102.03 1.26,-1.37 1.91,-3.3 3.76,-6.6 -14.19,-9.17 -28.28,-18.28 -46.54,-30.07 -3.08,4.8 -5.73,10.15 -9.49,14.52 -24.37,28.28 -49.13,56.23 -73.4,84.56 -6.62,7.75 -13.99,13.01 -23.95,15.87 -24.51,7.07 -48.95,14.49 -72.97,22.98 -12.59,4.45 -22.51,4.42 -31.35,-6.74 -4.83,-6.07 -10.63,-11.49 -16.51,-16.65 -6.13,-5.41 -24.33,-15.31 -31.16,-20.56 -2.97,4.7 6.86,12.44 5.28,14.95 -6.31,-1.52 -21.29,-6.06 -29.18,-7.94 0.63,4.74 9.85,10.72 10.39,14.75 -6.78,0 -13.58,0 -21.36,0 1.98,11.26 11.81,7.37 16.95,11.2 -5.46,1.2 -10.79,2.36 -16.14,3.53 -0.24,1.3 -0.5,2.59 -0.74,3.88 11.79,3.56 24.47,5.43 35.07,11.16 10.64,5.74 19.18,15.36 28.65,23.28z"/>
  <path class="fil3" d="M9336.8 477.14c-8.46,-2.67 -15.84,-5 -24.38,-7.69 -2.99,-11.58 -5.94,-23.58 -9.2,-35.48 -3.55,-12.94 -6.48,-15.74 -18.81,-14.53 -11.7,1.16 -23.39,3.25 -34.74,6.21 -12.19,3.19 -13.83,6.84 -12.15,20.19 0.58,4.55 1.1,9.11 2.02,13.59 2.36,11.2 -0.52,19.71 -9.75,27.47 -12.61,10.61 -12.44,14.52 -3.39,28.08 5.64,8.45 13.02,14.12 23.44,16.3 33.1,6.87 76.96,-19.27 86.96,-54.14z"/>
  <path class="fil4" d="M9052.96 1531.4c4.35,15.86 14.25,15.65 23.08,15.05 12.32,-0.82 24.57,-2.99 36.8,-5.06 19.27,-3.28 38.48,-6.89 57.71,-10.48 17.2,-3.22 25.33,-15.26 18.81,-30.8 -4.66,-11.04 -12.56,-20.69 -19.34,-31.47 -20.82,12.16 -43.43,11.7 -61.07,26.76 -16.59,14.15 -36.85,23.98 -55.99,36z"/>
  <path class="fil4" d="M8699.76 1218.41c-15.91,-0.34 -19.83,5.12 -14.72,14.42 2.75,4.99 6.84,9.68 11.35,13.18 24.25,18.9 48.69,37.59 73.38,55.93 13.39,9.93 27.99,5.68 34.77,-10.04 2.79,-6.53 3.5,-13.96 5.68,-20.79 3.11,-9.76 2.57,-16.84 -10.09,-17.58 -2.39,-0.12 -5.03,-1.59 -6.96,-3.19 -28.59,-23.85 -65.75,-21.25 -93.41,-31.93z"/>
  <path class="fil1" d="M9357.37 313.72c-1.54,-17.34 -2.2,-34.68 -4.83,-51.75 -4.61,-29.9 -16.17,-57.05 -37.34,-79.13 -37.97,-39.6 -90.41,-42.47 -131.44,-6.05 -32.14,28.51 -51.76,64.27 -50.73,108.41 0.64,28.26 1.65,56.82 6.24,84.64 6.42,39.11 30.63,66.46 67.16,80.87 34.64,13.68 66.47,3.82 93.08,-20.05 13.13,-11.8 23.1,-27.37 33.4,-42.02 4.6,-6.52 8.22,-11.98 16.85,-14.04 6.51,-1.54 12.96,-6 17.98,-10.69 21.06,-19.7 16.34,-41.17 -10.37,-50.19z"/>
  <path class="fil5" d="M9323.09 329.28c25.24,-6.77 37.36,-18.9 39.24,-39.3 1.71,-18.54 3.5,-37.3 2.46,-55.8 -1.98,-35.1 -15.35,-64.58 -46.72,-84.1 -9.11,-5.68 -16.54,-14.01 -21.95,-18.7 -10.57,0.42 -18.17,0.96 -25.8,0.96 -22.47,0 -45,-1.22 -67.42,-0.09 -21.03,1.04 -42.02,6.86 -62.62,-4.76 -2.56,6.08 -4.23,10.07 -6.18,14.73 -7.07,-1.22 -14.33,-2.48 -23.13,-4 -0.46,6.66 -0.76,11.65 -1.14,16.61 -0.22,3.12 0.66,7.62 -1.02,9.08 -12.48,10.71 -6.81,22.94 -1.43,33.12 11.02,20.78 15.89,43.13 21.03,65.57 0.53,2.31 1.93,4.42 4.06,9.16 2.01,-8.18 3.01,-13.83 4.83,-19.21 3.42,-10.3 7.17,-20.48 11.06,-30.59 4.09,-10.65 12.34,-14.21 23.35,-16.98 28.54,-7.18 57.29,-7.38 86.29,-6.81 24.23,0.47 40.88,9.97 50.6,33.77 9.94,24.29 17.38,48.3 14.6,74.8 -0.71,6.9 -0.11,13.92 -0.11,22.54z"/>
  <path class="fil6" d="M9370.42 582.12c14.91,10.22 29.82,20.43 45.64,31.26 18.98,-24.45 37.04,-47.66 55.95,-72 -4.3,-3.79 -7.77,-7.36 -11.74,-10.24 -18.54,-13.5 -37.36,-26.62 -55.8,-40.24 -22.99,-17 -48.23,-25.77 -78.52,-22.22 -1.91,3.98 -4.45,8.43 -6.22,13.19 -7.63,20.53 -24.66,30.36 -43.77,36.29 -15.44,4.81 -27.94,-2.89 -37.69,-14.95 -6.37,-7.94 -10.59,-17.5 -24.23,-16.19 -14.4,1.38 -27.67,4.93 -36.41,16.27 -20.77,26.94 -40.41,54.73 -61.96,84.18 19.27,15.4 37.97,30.31 59.03,47.13 5.01,-6.99 9.83,-13.74 15.78,-22.05 5.76,19.35 10.83,93.32 -6.94,150.21 -14.9,47.59 -27.62,76.98 -57.17,120.82 80.49,50.8 145.71,62.58 236.72,77.69 38.14,-134.23 30.91,-243.15 3.95,-376.4 1.11,-0.92 2.23,-1.83 3.38,-2.75z"/>
  <path class="fil7" d="M9191.69 398.72c7.03,21.39 20.27,33.58 35.16,33.13 17.23,-0.54 32.89,-15.65 39.9,-39.84 -25.38,2.27 -50.08,4.47 -75.06,6.71z"/>
  <path class="fil8" d="M9277.47 313.24c-8.71,-0.24 -16.07,6.34 -16.63,14.79 -0.57,9.14 7.2,16.94 16.64,16.69 8.7,-0.25 15.65,-7.25 15.63,-15.74 0,-8.48 -7,-15.52 -15.64,-15.74z"/>
  <path class="fil8" d="M9183.24 331.77c0.3,-8.46 -6.5,-15.69 -15.17,-16.17 -8.72,-0.48 -16.27,5.86 -17.09,14.28 -0.87,9.05 6.76,17.21 16.13,17.21 8.63,0 15.86,-6.87 16.13,-15.32z"/>
  <path class="fil5" d="M9299.99 295.62c-10.08,-18.19 -26.66,-22.1 -43.24,-9.83 14.73,5.2 28.43,5.55 43.24,9.83z"/>
  <path class="fil9" d="M9217.13 343.2c-4.24,10.21 -8.6,18.28 -10.58,26.88 -0.54,2.37 5.99,6.35 11.22,8.75 -5.04,-11.88 13.47,-21.67 -0.64,-35.63z"/>
  <path class="fil5" d="M9181.42 292.76c-14.82,-10.55 -19.15,-10.21 -32.85,2 11.68,4.22 21.29,1.97 32.85,-2z"/>
 </g>
</svg>
