<?xml version="1.0" encoding="UTF-8"?>
<!DOCTYPE svg PUBLIC "-//W3C//DTD SVG 1.1//EN" "http://www.w3.org/Graphics/SVG/1.1/DTD/svg11.dtd">
<!-- Creator: CorelDRAW 2017 -->
<svg xmlns="http://www.w3.org/2000/svg" xml:space="preserve" width="102.51mm" height="16.02mm" version="1.1" style="shape-rendering:geometricPrecision; text-rendering:geometricPrecision; image-rendering:optimizeQuality; fill-rule:evenodd; clip-rule:evenodd"
viewBox="0 0 10251 1602"
 xmlns:xlink="http://www.w3.org/1999/xlink">
 <defs>
  <style type="text/css">
   <![CDATA[
    .fil1 {fill:#28A9BC;fill-rule:nonzero}
    .fil10 {fill:#2C3238;fill-rule:nonzero}
    .fil7 {fill:#636B76;fill-rule:nonzero}
    .fil2 {fill:#656D78;fill-rule:nonzero}
    .fil8 {fill:#8F594F;fill-rule:nonzero}
    .fil5 {fill:#A56450;fill-rule:nonzero}
    .fil4 {fill:#CDD7D8;fill-rule:nonzero}
    .fil11 {fill:#D3745E;fill-rule:nonzero}
    .fil6 {fill:#E8E9EE;fill-rule:nonzero}
    .fil3 {fill:#ED8B6E;fill-rule:nonzero}
    .fil0 {fill:#FFA787;fill-rule:nonzero}
    .fil9 {fill:white;fill-rule:nonzero}
   ]]>
  </style>
 </defs>
 <g id="Camada_x0020_1">
  <metadata id="CorelCorpID_0Corel-Layer"/>
  <path class="fil0" d="M460.17 1153.42c21.16,0 40.28,0 60.81,0 3.68,22.69 9.45,44.62 10.42,66.78 4.13,94.43 6.85,188.9 10.03,283.35 0.11,3.06 -0.34,6.16 -0.61,10.72 -10.92,0 -21.53,0 -34.04,0 -2.95,-14.74 -6.09,-30.39 -9.19,-46.04 -11.09,-55.76 -22.74,-111.44 -32.98,-167.36 -4.96,-27.16 -9.06,-54.73 -10.18,-82.26 -0.88,-21.1 3.53,-42.39 5.74,-65.19z"/>
  <path class="fil0" d="M640.99 1152.81c15.65,-8.82 22.76,-9.54 62.17,-6.36 4.18,11.82 10.07,24.12 12.89,37.1 21.81,99.96 53.51,197.22 79.71,295.98 5.46,20.58 4.37,22.52 -16.44,23.25 -4.56,0.17 -9.18,-0.69 -14.01,-1.09 -29.31,-67.7 -59.34,-134.26 -86.95,-201.8 -19.14,-46.81 -33.37,-95.37 -37.37,-147.08z"/>
  <path class="fil1" d="M456.58 814.52c72.69,2.83 142.46,5.54 212.4,8.26 12.55,109.98 43.37,214.83 64.21,321.49 -29.86,13.96 -82.34,21.21 -115.82,15.99 -12.82,-58.64 -25.7,-117.58 -38.58,-176.5 -0.88,-0.09 -1.73,-0.17 -2.6,-0.24 -0.6,2.97 -1.6,5.92 -1.73,8.9 -2.3,51.68 -4.52,103.34 -6.69,155.03 -0.73,17.61 -1.11,17.51 -18.95,19.01 -30.91,2.6 -61.31,-1.34 -92.94,-4.92 -1.38,-11.3 -3.62,-22.03 -3.83,-32.81 -1.18,-62.67 -2.35,-125.34 -2.56,-188.01 -0.12,-33.42 1.5,-66.85 2.83,-100.27 0.32,-8.08 2.58,-16.1 4.26,-25.93z"/>
  <path class="fil2" d="M467.09 187.91c-0.15,5.92 -0.25,9.69 -0.43,16.71 5.97,-7.13 10.22,-11.02 0.43,-16.71zm195.76 -36.89c-1.22,-0.4 -2.43,-0.81 -3.64,-1.2 -1.19,3.44 -2.59,6.83 -3.32,10.36 -0.12,0.57 2.75,1.77 5.39,3.38 0.64,-5.1 1.1,-8.81 1.57,-12.54zm-59.62 -86.56c-8.95,0.48 -14.3,0.78 -22.53,1.23 6.25,4.63 9.77,7.24 13.92,10.33 2.49,-3.34 4.48,-6.04 8.61,-11.56zm-130.93 175.52c3.8,-5.63 5.85,-8.68 8.51,-12.65 -4.61,-2.84 -8.14,-5.05 -14.92,-9.24 2.59,8.85 4.08,13.97 6.41,21.89zm92.09 -167.08c-0.6,-0.88 -1.2,-1.78 -1.79,-2.65 -5.31,2.35 -10.62,4.71 -17.46,7.75 4.18,3.11 6.76,5.02 9.96,7.4 3.33,-4.49 6.31,-8.5 9.29,-12.5zm84.22 41.97c6.4,6.7 6.4,6.7 14.12,7.71 -2.17,-5.9 -4.13,-11.22 -6.94,-18.81 -3.6,5.57 -5.45,8.44 -7.18,11.1zm-122.81 166.39c9.46,-0.4 15.17,-0.63 24.08,-1.02 -6.87,-5.1 -10.68,-7.93 -15.02,-11.17 -2.66,3.56 -4.69,6.31 -9.06,12.19zm63.65 -36.19c-3.96,5.87 -7,10.34 -10.06,14.88 11.21,6.58 11.21,6.58 22.58,-5.6 -3.67,-2.73 -7.3,-5.41 -12.52,-9.28zm-94.27 -36.16c-4.69,-3.49 -8.19,-6.09 -12.92,-9.6 -3.07,4.72 -5.64,8.64 -8.79,13.44 5.16,3.19 8.83,5.47 12.91,8 3.09,-4.16 5.45,-7.36 8.8,-11.84zm2.93 -31.32c-3.74,5.7 -6.43,9.85 -9.52,14.57 4.3,3.2 7.76,5.79 11.98,8.92 3.62,-4.9 6.78,-9.15 10.35,-13.96 -4.24,-3.16 -7.72,-5.76 -12.81,-9.53zm10.96 60.32c3.38,-4.56 5.97,-8.05 8.84,-11.94 -5.15,-3.82 -9.47,-7.02 -14.73,-10.94 -3.02,4.56 -5.43,8.16 -8.24,12.41 4.9,3.63 8.87,6.57 14.13,10.47zm53.39 -146.34c5.22,3.51 8.84,5.94 13.08,8.8 4.35,-5.86 8.1,-10.92 12.09,-16.28 -4.68,-3.49 -8.52,-6.33 -12.63,-9.38 -4.21,5.64 -7.76,10.42 -12.54,16.86zm-86.95 69.2c-8.55,17.55 -8.35,18.32 5.55,23.87 2.96,-3.98 5.94,-8.01 9.44,-12.72 -5.04,-3.75 -9.47,-7.04 -14.99,-11.15zm44.74 33.12c-3.99,5.38 -7.14,9.64 -10.52,14.18 5,3.71 9,6.68 13.85,10.29 3.64,-4.89 6.81,-9.17 10.28,-13.85 -1.93,-1.96 -3.17,-3.59 -4.74,-4.77 -2.47,-1.85 -5.14,-3.42 -8.87,-5.85zm5.24 37.36c-3.25,5.59 -5.42,9.36 -7.48,12.93 5.53,4.11 9.89,7.34 15.26,11.34 3.08,-4.62 5.47,-8.24 8.23,-12.38 -5.4,-4.02 -9.79,-7.27 -16.01,-11.89zm12.27 -79.93c5,-6.72 8.93,-12.01 13.03,-17.54 -4.6,-3.4 -8.43,-6.24 -12.21,-9.05 -4.74,6.38 -8.66,11.65 -13.02,17.51 4.29,3.19 7.84,5.83 12.2,9.08zm31.87 -42.8c-4.57,-3.38 -8.38,-6.22 -12.08,-8.97 -4.52,6.08 -8.33,11.21 -12.3,16.54 4.46,3.31 7.95,5.91 12.09,8.98 4.37,-5.88 8.18,-11 12.29,-16.55zm-3.96 152.85c-6.16,-4.58 -10.9,-8.12 -16.63,-12.35 -3.06,4.61 -5.46,8.24 -8.22,12.43 5.73,4.24 10.47,7.78 15.99,11.87 3.11,-4.21 5.72,-7.72 8.86,-11.95zm-46.26 -110.8c-5.33,7.16 -9.58,12.89 -14,18.85 4.53,3.35 8.33,6.2 12.14,9.02 5.05,-6.8 9.29,-12.51 14,-18.84 -4.24,-3.15 -7.78,-5.79 -12.14,-9.03zm35.87 91.21c5.95,4.41 10.77,8 16.04,11.9 3.8,-5.1 7.01,-9.43 10.41,-14.02 -5.7,-4.22 -10.52,-7.79 -16.03,-11.9 -3.55,4.77 -6.52,8.79 -10.42,14.02zm-23.27 -17.78c5.81,4.31 10.5,7.79 15.31,11.36 3.75,-5.05 6.73,-9.05 9.88,-13.29 -5.49,-4.1 -10.2,-7.59 -15.3,-11.39 -3.52,4.73 -6.25,8.43 -9.89,13.32zm117.85 -29.68c11.44,-17.85 11.11,-20.71 -1.95,-26.14 -3.85,5.18 -7.65,10.28 -11.82,15.92 4.9,3.63 8.88,6.58 13.77,10.22zm-160.87 70.52c5.28,-7.12 9.65,-12.99 14.19,-19.11 -5.29,-3.95 -9.57,-7.13 -14.22,-10.59 -4.01,5.41 -7.29,9.83 -10.73,14.44 1.23,2.3 2.01,4.19 3.17,5.8 1.78,2.5 3.82,4.8 7.59,9.46zm107.56 -174.49c-4.76,6.41 -8.34,11.23 -12.33,16.6 5.2,3.86 9.58,7.12 14.81,11 4.31,-5.8 8.14,-10.94 12.33,-16.6 -5.25,-3.89 -9.66,-7.17 -14.81,-11zm16 -24.05c-3.79,5.63 -6.86,10.17 -10.19,15.08 5.68,4.23 10.39,7.73 15.52,11.53 5.31,-5.97 11.08,-10.28 12.44,-18.96 -5.51,-2.36 -10.6,-4.56 -17.77,-7.65zm-5.9 57.13c5.89,4.36 10.27,7.62 15.38,11.41 4.32,-5.8 8.08,-10.88 12.01,-16.18 -5.57,-4.14 -10.27,-7.63 -15.37,-11.41 -4.22,5.68 -7.75,10.46 -12.02,16.18zm-66.47 72.72c5.48,-7.38 9.95,-13.38 14.3,-19.25 -5.32,-3.94 -9.67,-7.18 -14.04,-10.42 -5.15,6.92 -9.58,12.92 -14.29,19.25 5.03,3.75 9.08,6.74 14.03,10.42zm99.16 -116.2c-5.66,7.62 -9.81,13.18 -13.73,18.46 5.84,4.34 10.56,7.85 15.85,11.79 3.78,-5.11 6.81,-9.18 10.59,-14.28 -4,-5.02 -8.06,-10.13 -12.71,-15.97zm-102.99 30.15c4.79,-6.46 8.63,-11.63 12.36,-16.65 -12.84,-12.68 -17.96,-11.7 -28.12,4.93 4.81,3.59 9.68,7.19 15.76,11.72zm-38.98 161.26c6.87,2.7 12.41,4.84 17.59,6.88 4.43,-5.95 7.95,-10.69 11.43,-15.37 -5.5,-4.08 -9.9,-7.34 -14.64,-10.88 -4.88,6.58 -9.07,12.2 -14.38,19.37zm91.17 -123.26c5.38,4 10.08,7.49 15.12,11.21 4.49,-6.05 8.3,-11.18 12.16,-16.37 -5.7,-4.23 -10.41,-7.73 -15.11,-11.22 -4.43,5.96 -8.03,10.81 -12.17,16.38zm-8.16 -5.44c4.86,-6.54 8.64,-11.63 13.23,-17.82 -5.75,-3.86 -10.54,-7.08 -16.08,-10.81 -4.63,6.84 -8.19,12.12 -11.93,17.65 5.61,4.16 9.63,7.16 14.78,10.98zm-19.39 25.94c4.64,-6.26 8.77,-11.83 13.78,-18.57 -5.72,-3.83 -10.51,-7.07 -15,-10.11 -5.16,6.95 -9.05,12.2 -13.29,17.89 5.2,3.89 9.58,7.14 14.51,10.79zm37.31 -1.42c-6.52,-4.25 -11.39,-7.43 -15.97,-10.41 -5.11,6.91 -9,12.12 -13.02,17.56 5.47,4.06 10.15,7.54 15.26,11.34 4.58,-6.18 8.46,-11.4 13.73,-18.49zm48.47 -13.74c4.05,-5.44 7.88,-10.62 11.99,-16.16 -5.87,-4.35 -11.36,-8.44 -16.65,-12.37 -4.44,5.97 -8.01,10.79 -12,16.16 5.44,4.04 9.96,7.38 16.66,12.37zm-41.08 20.44c-4.67,6.3 -8.77,11.82 -13.19,17.78 5.89,4.4 10.99,8.16 16.09,11.96 4.79,-6.45 8.88,-11.96 13.2,-17.78 -5.8,-4.31 -10.56,-7.83 -16.1,-11.96zm-3.14 38.56c-6.35,-4.72 -11.12,-8.27 -16.35,-12.15 -5.05,6.82 -9.5,12.8 -14.02,18.86 5.97,4.45 11.05,8.23 16.35,12.16 5,-6.72 9.21,-12.4 14.02,-18.87zm-38.89 0.77c5.17,-6.94 9.61,-12.93 13.99,-18.82 -5.59,-4.14 -10.28,-7.63 -15.04,-11.18 -5.03,6.77 -9.23,12.43 -13.99,18.84 5.06,3.76 9.44,7.01 15.04,11.16zm46.98 4.83c-5.07,6.81 -9.52,12.81 -14.42,19.42 5.45,4.06 10.18,7.57 15.78,11.7 5.83,-5.93 11.11,-11.27 17.14,-17.4 -6.73,-4.98 -12.29,-9.11 -18.5,-13.72zm5.82 -8.19c6.8,5.06 12.43,9.24 19.23,14.29 4.05,-7.12 7.53,-13.23 11.19,-19.66 -6.09,-4.53 -11.29,-8.37 -17.05,-12.64 -4.57,6.16 -8.5,11.43 -13.37,18.01zm7.92 -60.96c-4.44,5.98 -8.27,11.14 -12.57,16.93 5.75,4.28 10.59,7.87 16.17,12 4.46,-6.02 8.54,-11.51 12.56,-16.93 -5.95,-4.42 -10.81,-8.03 -16.16,-12zm-129.08 -29.18c7.88,5.86 14.67,10.9 21.82,16.19 4.74,-6.37 8.86,-11.92 13.92,-18.74 -7.25,-4.7 -13.53,-8.78 -20.51,-13.3 -5.36,5.58 -9.89,10.29 -15.23,15.85zm-5.52 8.31c-4.31,8.33 -7.79,15.05 -11.24,21.73 6.9,5.13 12.5,9.29 18.11,13.45 5.18,-6.97 9.64,-12.97 14.41,-19.39 -7.1,-5.26 -13.22,-9.81 -21.28,-15.79zm-10.47 145.87c-24.48,-25.96 -30.77,-55.32 -25.7,-86.43 9.29,-56.88 40.75,-98.84 92.19,-124.67 12.29,-6.18 26.77,-9.31 40.56,-10.87 42.9,-4.83 79.49,22.72 88.3,64.91 4.69,22.55 3.24,44.76 -4.16,66.47 -11.96,35.18 -32.65,64.26 -62.8,85.92 -34.32,24.64 -71.44,33.87 -114.04,15.89 -2.79,3.74 -5.58,8.01 -8.86,11.84 -29.28,34.15 -49.41,74.37 -73.81,111.74 -11.42,17.51 -22.54,35.21 -34.11,52.62 -7.69,11.57 -15.1,12.18 -25.77,2.8 -13.28,-11.66 -13.97,-16.43 -2.8,-29.89 23.02,-27.74 45.18,-56.32 69.9,-82.47 22.77,-24.06 39.52,-52.19 61.1,-77.86z"/>
  <path class="fil3" d="M554.8 418.93c-15.72,-24.01 -30.46,-46.51 -45.88,-70.02 13.29,-5.38 14.34,-14.59 12.43,-25.96 -1.78,-10.73 -1.69,-21.77 -2.44,-32.99 7.01,-4.4 14.42,-1.61 21.43,-1.86 12.93,-0.46 25.88,-0.25 38.83,-0.56 6.85,-0.17 9.13,3.84 9.68,9.67 1.06,10.91 1.39,21.94 3.24,32.71 1.53,8.93 4.82,17.55 7.64,25.74 3.83,33.05 -23.57,44.22 -44.93,63.27z"/>
  <path class="fil3" d="M389.43 505.42c21.08,13.19 39.96,24.98 60.13,37.61 -3.04,3.3 -5.11,5.96 -7.56,8.19 -22.02,19.9 -44.22,39.58 -66.13,59.59 -11.6,10.61 -24.67,14.74 -40.72,11.24 -7.85,1.22 -15.71,-10.11 -17.97,-14.75 -2.49,-5.12 2.16,-14.96 4.99,-20.01 11.49,-20.39 29.31,-35.5 41.82,-55.23 6.19,-9.8 16.19,-17.17 25.44,-26.64z"/>
  <path class="fil4" d="M754.81 529.19c-19.48,13.09 -38.38,26.02 -60.29,33.67 -8.3,2.88 -16.55,4.84 -25.25,-1.93 -6.23,46.26 -9.28,91.41 -10.97,136.85 -1.7,45.83 10.39,89.86 12.65,137.11 -11.32,1.82 -22.84,4.48 -34.48,5.37 -28.1,2.13 -56.26,4.83 -84.38,4.69 -31.79,-0.11 -63.56,-3.09 -95.35,-4.87 -6.63,-0.37 -8.53,-4.24 -8.56,-10.51 -0.07,-22.45 -0.18,-44.92 -0.97,-67.35 -1.24,-35.47 -2.85,-70.95 -4.69,-106.39 -1.17,-22.43 -2.87,-44.83 -4.67,-67.21 -0.73,-9.33 -2.31,-18.57 -3.66,-28.93 -32.04,-0.76 -58.68,-16.89 -89.05,-25.78 3.84,-10.05 7.05,-18.18 10.05,-26.4 10.91,-29.9 21.16,-60.06 32.87,-89.64 4.52,-11.45 12.05,-21.74 18.62,-32.3 1.51,-2.42 4.46,-4.46 7.19,-5.51 30.68,-11.8 61.45,-23.37 92.23,-34.96 0.89,-0.33 2.03,-0.04 4.71,-0.04 13.08,17.39 26.76,35.54 41.49,55.09 14.72,-18.36 28.33,-35.36 42.31,-52.82 3.76,0.77 7.36,1.13 10.67,2.3 24.64,8.62 49.16,17.56 73.82,26.03 6.29,2.17 10.95,5.04 13.79,11.47 20.24,45.82 40.76,91.54 61.15,137.3 0.4,0.91 0.34,2.04 0.77,4.76z"/>
  <path class="fil0" d="M445.36 184.14c1.66,-22.36 -7.43,-43.02 -4.42,-63.28 3.14,-21.14 12.44,-40.18 26.94,-56.34 22.26,-24.86 54.12,-31.57 84.33,-17.55 24.11,11.18 41.3,29.77 53.71,52.69 7.21,13.29 12.68,27.53 19.69,43.04 7.78,0.84 16.5,3.74 20.15,13.91 4.88,13.59 8.74,27.34 2.18,41.36 -1.78,3.82 -4.84,8.63 -8.34,9.71 -9.12,2.88 -9.55,9.53 -10.62,17.02 -3.49,24.43 -9.32,48.25 -23.32,69.04 -3.4,5.04 -8.2,10.3 -13.58,12.63 -19.66,8.52 -40.53,11.42 -61.86,9.09 -12.62,-1.4 -23.63,-6.81 -31.79,-16.73 -10.6,-12.85 -21.26,-25.71 -30.91,-39.27 -5.04,-7.07 -9.58,-12.53 -19,-14.05 -10.65,-1.72 -18.22,-9.38 -23.62,-18.54 -10.11,-17.08 -3.43,-42.21 20.46,-42.73z"/>
  <path class="fil4" d="M479.76 1558.49c-2.36,-5.42 -0.45,-9.72 2.7,-14.34 6.71,-9.84 13.31,-19.82 19.06,-30.22 3.36,-6.13 7.26,-9.55 14.39,-9.63 8.25,-0.08 16.48,-0.8 25.67,-1.3 8.25,17.97 13.43,35.87 7.18,55.49 -23.01,0 -46.01,0 -69,0z"/>
  <path class="fil0" d="M753.56 528.88c2.41,4.36 4.31,7.42 5.83,10.66 15.11,32.15 30.18,64.28 45.12,96.51 2.4,5.18 4.46,10.61 6.05,16.1 4.53,15.68 1.71,22.83 -12.13,31.3 -33.4,20.45 -66.95,40.69 -100.22,61.38 -7.46,4.63 -14.34,10.32 -20.94,16.14 -9.02,7.97 -9.41,8.23 -19.64,0.53 -2.51,-1.88 -4.99,-3.78 -7.58,-5.56 -5.09,-3.48 -10.92,-5.6 -15.68,-0.55 -9.49,10.04 -18.18,-1.37 -27.31,-0.83 -1.82,0.1 -4.1,-7.9 -6.98,-13.83 7.1,-5.89 15,-12.43 22.89,-18.99 -0.63,-1.18 -1.26,-2.35 -1.9,-3.53 -4,-0.54 -8.01,-1.07 -12.67,-1.69 4.89,-6.76 23.81,-17.36 29.4,-14.86 10.31,4.6 19.67,11.35 31.46,18.43 25.34,-24.72 51.65,-50.44 79.18,-77.3 -19.99,-25.84 -39.36,-50.88 -59.88,-77.42 22.08,-12.39 43.23,-24.27 65,-36.49z"/>
  <path class="fil0" d="M415.1 342.16c3.31,6.21 6.7,12.56 10.74,20.12 3.91,-4.53 7.58,-8.77 12.48,-14.45 4.59,21.16 6.51,40.31 -0.39,59.04 -1.75,4.77 -6.65,9.7 -11.33,11.81 -10.84,4.87 -15.3,12.95 -17.39,23.99 -7.6,39.92 -15.55,79.78 -23.64,119.61 -2.07,10.2 -5.08,20.21 -7.82,30.26 -6.09,22.2 -38.9,28.59 -51.86,23.53 -2.27,-0.9 -4.59,-2.66 -6.01,-4.66 -15.47,-21.72 -22.13,-44.45 -8.86,-70.04 19.22,-37.01 37.57,-74.49 57.15,-111.3 6.29,-11.81 9.74,-22.72 3.66,-35.38 -1.55,-3.25 -2.09,-6.99 -3.12,-10.49 -3.6,-12.26 1.63,-23.82 12.97,-29.6 10.04,-5.09 19.34,-11.89 33.42,-12.44z"/>
  <path class="fil5" d="M569.42 68.69c-24.46,5.24 -46.38,10.55 -68.54,14.48 -15.53,2.75 -27.32,11.34 -36.9,22.44 -4.63,5.34 -7.09,14.26 -7.12,21.56 -0.05,20.54 1.69,41.07 2.7,61.61 0.12,2.34 0.01,4.68 0.01,7.97 -8.04,-1.78 -11.47,-6.93 -14.21,-12.61 -8.3,-17.23 -17.55,-34.11 -24.39,-51.91 -8.71,-22.66 -6.51,-45.51 11.39,-62.73 28.69,-27.56 61.89,-48.3 102.13,-54.98 15.45,-2.58 30.18,-1.87 42.24,10.73 3.48,3.64 9.21,5.3 14.13,7.37 13.67,5.72 21.99,16.09 26.39,29.86 4.31,13.54 8.27,27.21 12.5,40.79 5.4,17.33 0.27,33.95 -3.44,50.61 -1,4.51 -6.52,5.19 -9.06,1.33 -1.57,-2.38 -2.35,-5.34 -3.27,-8.11 -5.76,-17.31 -12.91,-33.66 -24.85,-47.98 -7.74,-9.3 -13.31,-20.39 -19.71,-30.43z"/>
  <path class="fil4" d="M817.42 1484.21c15.53,-1.86 31.05,-3.72 46.57,-5.63 2.06,-0.25 4.09,-1.01 6.15,-1.1 4.88,-0.23 10.57,0.23 11.01,6 0.3,3.97 -1.64,9.97 -4.64,11.99 -7.72,5.2 -16.34,9.28 -25.03,12.77 -19.83,7.98 -39.9,15.37 -59.91,22.9 -2.91,1.09 -6.01,1.64 -9.06,2.33 -1.01,0.24 -2.08,0.22 -3.12,0.22 -10.79,-0.02 -14.04,-3.39 -16.14,-16.74 -3.22,-20.53 -1.92,-25.88 9.37,-28.37 14.62,-3.2 29.54,-4.98 44.33,-7.36 0.15,1.01 0.31,1.99 0.47,2.99z"/>
  <path class="fil2" d="M424.54 356.42c5.94,-11.48 3.64,-15.21 -6.32,-4.67 -24.73,26.15 -46.89,54.73 -69.91,82.47 -11.17,13.46 -10.48,18.23 2.8,29.9 10.67,9.37 18.08,8.76 25.77,-2.81 11.57,-17.41 22.69,-35.11 34.11,-52.62 19.49,-29.84 -1.39,-0.9 19.49,-29.84l-5.94 -22.43z"/>
  <path class="fil3" d="M1194.26 620.85c-8.14,18.33 -5.05,42.21 -29.89,50.32 -16.27,-11.95 -27.34,-27.97 -34.47,-48.06 7.74,-6.6 9.61,-15.7 9.01,-26.01 -0.61,-10.87 -0.13,-21.8 -0.13,-34.03 15.9,-1.64 29.07,3.14 43.97,4.66 0.3,10.94 1.07,20.76 0.71,30.55 -0.35,9.41 1.12,17.55 10.8,22.57z"/>
  <path class="fil0" d="M1464.83 910.61c-3.79,4.74 -4.67,9.18 -4.58,15.04 0.21,13.04 -16.87,24.3 -30.42,24.01 -13.62,-0.28 -23.79,-5.99 -33.15,-15.01 -21.06,-20.29 -42.51,-40.15 -63.43,-60.58 -5.9,-5.76 -11.7,-12.27 -15.43,-19.55 -17.11,-33.4 -33.49,-67.2 -50.58,-101.81 12.1,-7.21 25,-10.33 38.64,-14.9 7.25,16.17 14.84,31 20.66,46.52 13.18,35.22 32.59,66.19 59.04,92.95 8.04,8.14 15.26,17.16 22.52,26.04 4.23,5.2 8.99,7.46 14.86,3.66 14.6,-9.42 27.59,-3.36 41.87,3.63z"/>
  <path class="fil0" d="M804.05 928.65c2.29,-7.73 8.88,-9.36 15.65,-10.74 5.76,-1.15 11.5,-2.31 17.25,-3.48 0.03,-1.12 0.06,-2.22 0.09,-3.34 -3.3,-1.4 -6.6,-2.8 -10.41,-4.42 1.16,-1.75 1.72,-3.35 2.83,-4.09 3.88,-2.61 8.29,-4.52 11.88,-7.45 5.76,-4.74 12.13,-6.57 18.94,-4.07 9.5,3.49 15.19,-0.22 21.21,-7.5 38.91,-47.04 78.23,-93.74 117.43,-140.54 2.65,-3.14 5.45,-6.15 8.88,-10 11.05,4.73 21.85,9.34 34.65,14.81 -19.35,25.69 -31.99,53.99 -55.31,74.93 -34.93,31.38 -69.84,62.8 -104.01,95.01 -14.54,13.68 -32.14,19.11 -50.57,22.53 -5.63,1.05 -12.41,-2.86 -18.38,-5.22 -3.62,-1.42 -6.7,-4.19 -10.13,-6.43z"/>
  <path class="fil0" d="M1134.53 1235.2c6.88,98.09 -2.4,194.6 -8.2,292.98 -9.88,0.79 -19.36,1.54 -31.15,2.49 -4.49,-99.93 -8.9,-198.15 -13.4,-298.49 18.23,1.06 35.08,2 52.75,3.02z"/>
  <path class="fil0" d="M1235.37 1530.8c-10.59,-0.92 -19.77,-1.71 -30.19,-2.62 -6.73,-97.6 -14.78,-194.32 -8.22,-293.48 16.41,-0.81 32.95,-1.61 51.75,-2.52 -3.11,99.87 -7.65,198.56 -13.34,298.62z"/>
  <path class="fil6" d="M1056.87 1238.07c8.63,-101 16.99,-198.67 25.45,-297.59 51.75,0 102.7,0 155.16,0 12.87,97.75 21.09,196.23 29.78,294.94 -31.39,7.76 -61.54,4.89 -93.3,5.01 -4.09,-31.47 -8.11,-62.11 -12.11,-92.78 -1.09,0 -2.18,0 -3.29,-0.02 -2.84,30.54 -5.68,61.1 -8.71,93.61 -31.35,-1.91 -61.32,0.58 -92.98,-3.17z"/>
  <path class="fil1" d="M1303.25 1555.58c-25.89,0.84 -51.36,1.67 -76.8,2.49 -5.2,0.17 -10.44,0.54 -15.63,0.36 -11.82,-0.45 -15.97,-5.6 -12.98,-17.25 1.92,-7.45 5.2,-14.56 8.15,-22.59 9.47,0 18.24,-0.04 26.99,0.05 2.05,0.02 4.77,-0.17 6.05,0.97 15.87,14.26 37.4,14.61 55.7,22.82 5.21,2.34 11.69,2.97 8.52,13.15z"/>
  <path class="fil1" d="M1127.85 1517.88c3.55,9.35 7.11,16.92 9.26,24.85 2.67,9.78 -1.52,15.51 -11.68,15.47 -29.26,-0.09 -58.52,-0.68 -87.77,-1.53 -2.74,-0.09 -5.39,-3.38 -8.08,-5.19 2.13,-2.49 3.78,-6.23 6.47,-7.29 11.18,-4.34 22.81,-7.5 33.99,-11.83 8.09,-3.13 15.4,-8.87 23.66,-10.82 10.88,-2.54 22.38,-2.52 34.15,-3.66z"/>
  <path class="fil1" d="M1322.93 740.58c-15.59,19.26 -39.02,26.75 -60.12,40.06 -6.01,-7.91 -11.55,-15.22 -19.64,-25.85 -0.98,8.75 -1.79,13.96 -2.15,19.2 -3.73,53.25 -2.46,106.47 0.03,159.73 0.99,21 -1.31,23.85 -22.33,28.24 -39.35,8.21 -78.77,8.12 -118.15,0.09 -3.06,-0.62 -6.1,-1.43 -9.06,-2.43 -12,-4.08 -14.22,-6.73 -14.03,-19.2 0.22,-15.14 0.62,-30.3 1.75,-45.4 3.54,-47.6 -0.27,-95.02 -2.7,-142.47 -0.1,-1.97 -0.88,-3.88 -2.04,-8.73 -12.6,11.64 -23.73,21.93 -34.68,32.05 -24.33,-8.54 -41.5,-24.58 -55.62,-45.95 4.91,-6.19 9.98,-12.7 15.23,-19.08 19.54,-23.8 39.22,-47.5 58.66,-71.39 6.14,-7.55 13.26,-12.77 23.02,-14.88 13.75,-3.01 27.36,-6.74 40.91,-10.52 7.24,-2.04 11.66,0.32 15.58,6.49 6.98,10.97 14.65,21.52 23.32,34.13 9.39,-14.82 17.89,-28.22 27.05,-42.71 17.77,4.7 35.72,7.2 51.54,14.39 12.24,5.59 24.5,15.22 31.97,26.26 18.36,27.2 33.99,56.25 50.67,84.59 0.51,0.85 0.49,1.99 0.79,3.38z"/>
  <path class="fil0" d="M1090.43 476.41c3.93,-13.31 6.66,-25.52 11.15,-37.05 9.24,-23.8 23.69,-43.77 46.4,-56.68 27.64,-15.74 58.27,-11.88 81.04,10.5 23.14,22.74 30.74,51.64 31.86,82.91 0.18,4.97 0.03,9.93 0.03,14.84 19.03,13.96 17.69,32.82 -3.75,43.45 -6.85,3.39 -10.76,8.03 -14.19,14.32 -10,18.29 -23.34,33.44 -42.3,43 -26.86,13.51 -55.49,9.34 -77.29,-11.37 -12.96,-12.32 -21.57,-27.34 -26.36,-44.45 -1.98,-7.02 -5.2,-11.92 -11.81,-15.98 -5.57,-3.4 -10.39,-9.45 -13.32,-15.43 -7.99,-16.3 0.13,-27.97 18.54,-28.06z"/>
  <path class="fil7" d="M1455.28 781.1c-0.03,5.7 -0.04,9.32 -0.09,16.08 5.61,-6.97 9.6,-10.8 0.09,-16.08zm187.53 -39.37c-1.16,-0.35 -2.35,-0.72 -3.53,-1.07 -1.06,3.32 -2.36,6.62 -2.98,10.01 -0.1,0.56 2.7,1.66 5.26,3.15 0.5,-4.9 0.88,-8.5 1.25,-12.09zm-59.07 -82.07c-8.59,0.65 -13.73,1.04 -21.62,1.64 6.1,4.35 9.53,6.78 13.58,9.68 2.33,-3.29 4.2,-5.9 8.04,-11.32zm-122.42 171.43c3.54,-5.5 5.46,-8.47 7.94,-12.33 -4.49,-2.68 -7.94,-4.69 -14.54,-8.6 2.67,8.46 4.22,13.34 6.6,20.93zm85.25 -162.51c-0.6,-0.85 -1.19,-1.69 -1.78,-2.53 -5.07,2.36 -10.13,4.75 -16.64,7.8 4.08,2.89 6.61,4.7 9.75,6.92 3.1,-4.36 5.9,-8.28 8.67,-12.19zm81.83 38.68c6.29,6.31 6.29,6.31 13.75,7.13 -2.22,-5.64 -4.21,-10.72 -7.05,-17.96 -3.35,5.45 -5.09,8.21 -6.7,10.83zm-114.81 162.47c9.1,-0.57 14.59,-0.93 23.15,-1.47 -6.71,-4.77 -10.43,-7.42 -14.67,-10.44 -2.5,3.49 -4.39,6.16 -8.48,11.91zm60.5 -36.09c-3.71,5.73 -6.51,10.1 -9.38,14.51 10.92,6.12 10.92,6.12 21.61,-5.83 -3.58,-2.54 -7.13,-5.06 -12.23,-8.68zm-91.39 -32.91c-4.57,-3.26 -8,-5.68 -12.6,-8.97 -2.88,4.62 -5.26,8.43 -8.17,13.12 4.99,2.97 8.58,5.08 12.56,7.43 2.88,-4.06 5.09,-7.18 8.21,-11.58zm2.2 -30.17c-3.46,5.57 -5.99,9.61 -8.87,14.23 4.2,2.97 7.59,5.38 11.71,8.31 3.38,-4.77 6.33,-8.93 9.7,-13.64 -4.15,-2.94 -7.56,-5.36 -12.54,-8.9zm11.73 57.81c3.18,-4.47 5.6,-7.86 8.29,-11.65 -5.04,-3.59 -9.25,-6.58 -14.4,-10.25 -2.81,4.44 -5.04,7.96 -7.67,12.08 4.78,3.4 8.65,6.18 13.78,9.82zm48.45 -141.81c5.09,3.27 8.62,5.52 12.76,8.2 4.07,-5.71 7.57,-10.66 11.3,-15.9 -4.59,-3.26 -8.31,-5.92 -12.34,-8.78 -3.92,5.52 -7.25,10.2 -11.72,16.48zm-82.24 68.3c-7.87,17.03 -7.68,17.75 5.81,22.81 2.77,-3.88 5.55,-7.82 8.83,-12.4 -4.94,-3.52 -9.25,-6.59 -14.64,-10.41zm43.68 30.94c-3.72,5.24 -6.67,9.4 -9.84,13.85 4.88,3.47 8.79,6.24 13.53,9.61 3.4,-4.77 6.37,-8.94 9.63,-13.51 -1.89,-1.85 -3.13,-3.37 -4.68,-4.5 -2.39,-1.73 -4.99,-3.19 -8.64,-5.45zm5.78 35.83c-3,5.44 -5.02,9.11 -6.94,12.58 5.41,3.84 9.66,6.86 14.91,10.6 2.86,-4.49 5.09,-8.01 7.66,-12.06 -5.26,-3.76 -9.54,-6.8 -15.63,-11.12zm10.21 -77.12c4.68,-6.56 8.36,-11.72 12.19,-17.12 -4.49,-3.19 -8.23,-5.85 -11.93,-8.47 -4.43,6.23 -8.09,11.39 -12.17,17.1 4.19,2.99 7.64,5.45 11.91,8.49zm29.81 -41.79c-4.46,-3.18 -8.2,-5.83 -11.81,-8.4 -4.2,5.95 -7.79,10.95 -11.49,16.17 4.35,3.08 7.76,5.53 11.82,8.39 4.07,-5.75 7.63,-10.76 11.48,-16.16zm-0.77 147.08c-6.03,-4.29 -10.64,-7.59 -16.24,-11.56 -2.86,4.51 -5.09,8.05 -7.67,12.11 5.61,3.99 10.25,7.28 15.62,11.11 2.92,-4.1 5.37,-7.54 8.29,-11.66zm-46.69 -105.65c-4.99,7.01 -8.96,12.59 -13.1,18.41 4.43,3.15 8.15,5.8 11.86,8.43 4.72,-6.64 8.68,-12.21 13.09,-18.4 -4.15,-2.95 -7.59,-5.4 -11.85,-8.44zm36.3 87.01c5.8,4.14 10.51,7.47 15.68,11.14 3.55,-4.99 6.54,-9.22 9.72,-13.69 -5.58,-3.96 -10.26,-7.3 -15.66,-11.14 -3.32,4.67 -6.08,8.57 -9.74,13.69zm-22.73 -16.65c5.68,4.04 10.25,7.3 14.95,10.63 3.51,-4.92 6.3,-8.83 9.24,-12.97 -5.36,-3.83 -9.97,-7.1 -14.95,-10.65 -3.27,4.62 -5.83,8.22 -9.24,12.99zm112.77 -30.87c10.63,-17.39 10.25,-20.14 -2.4,-25.1 -3.6,5.05 -7.16,10.03 -11.05,15.53 4.77,3.41 8.65,6.18 13.45,9.57zm-153.33 71.02c4.93,-6.95 9.03,-12.68 13.26,-18.68 -5.16,-3.67 -9.35,-6.64 -13.89,-9.88 -3.74,5.27 -6.8,9.59 -10.03,14.11 1.25,2.17 2.03,3.98 3.18,5.51 1.76,2.35 3.76,4.53 7.48,8.94zm99.97 -169.95c-4.46,6.24 -7.81,10.96 -11.52,16.2 5.07,3.61 9.34,6.66 14.46,10.29 4.04,-5.67 7.6,-10.68 11.54,-16.21 -5.12,-3.62 -9.46,-6.7 -14.48,-10.28zm14.93 -23.45c-3.55,5.48 -6.41,9.89 -9.51,14.73 5.55,3.94 10.13,7.19 15.15,10.76 5,-5.84 10.44,-10.12 11.58,-18.47 -5.33,-2.19 -10.27,-4.19 -17.22,-7.02zm-4.53 55.06c5.72,4.08 10.01,7.13 14.99,10.66 4.04,-5.66 7.56,-10.63 11.23,-15.79 -5.44,-3.87 -10.03,-7.15 -15,-10.67 -3.95,5.54 -7.25,10.21 -11.22,15.8zm-62.49 71.26c5.12,-7.2 9.28,-13.07 13.35,-18.79 -5.19,-3.69 -9.43,-6.73 -13.7,-9.75 -4.81,6.78 -8.97,12.61 -13.36,18.8 4.91,3.49 8.88,6.31 13.71,9.74zm93.05 -113.73c-5.31,7.44 -9.18,12.88 -12.86,18.04 5.71,4.05 10.33,7.34 15.47,11 3.55,-4.98 6.39,-8.95 9.91,-13.92 -3.94,-4.76 -7.95,-9.59 -12.52,-15.12zm-98.46 31.03c4.49,-6.3 8.08,-11.34 11.56,-16.26 -12.61,-11.93 -17.5,-10.87 -26.96,5.32 4.72,3.34 9.47,6.72 15.4,10.94zm-34.28 155.89c6.66,2.45 12.01,4.42 17.06,6.26 4.13,-5.81 7.43,-10.45 10.68,-15.02 -5.37,-3.8 -9.66,-6.85 -14.3,-10.15 -4.55,6.41 -8.48,11.92 -13.44,18.91zm85.23 -120.36c5.25,3.71 9.84,7 14.76,10.47 4.2,-5.91 7.77,-10.91 11.36,-15.99 -5.56,-3.95 -10.14,-7.22 -14.74,-10.49 -4.14,5.82 -7.51,10.58 -11.38,16.01zm-7.94 -5.07c4.52,-6.38 8.06,-11.36 12.35,-17.39 -5.61,-3.62 -10.28,-6.62 -15.69,-10.09 -4.31,6.67 -7.62,11.81 -11.11,17.21 5.48,3.89 9.41,6.69 14.45,10.27zm-18.15 25.34c4.32,-6.12 8.2,-11.56 12.88,-18.14 -5.57,-3.58 -10.23,-6.59 -14.62,-9.42 -4.83,6.79 -8.47,11.9 -12.43,17.46 5.07,3.62 9.38,6.67 14.17,10.1zm35.85 -2.12c-6.35,-3.95 -11.1,-6.91 -15.56,-9.68 -4.78,6.72 -8.41,11.82 -12.18,17.13 5.35,3.81 9.93,7.06 14.91,10.61 4.28,-6.04 7.9,-11.14 12.83,-18.06zm46.34 -14.17c3.79,-5.33 7.39,-10.38 11.22,-15.78 -5.73,-4.08 -11.08,-7.88 -16.26,-11.57 -4.15,5.84 -7.49,10.53 -11.22,15.78 5.32,3.76 9.72,6.9 16.26,11.57zm-39.09 20.48c-4.39,6.14 -8.2,11.53 -12.35,17.35 5.78,4.1 10.74,7.63 15.73,11.19 4.47,-6.31 8.29,-11.68 12.34,-17.35 -5.66,-4.04 -10.31,-7.36 -15.72,-11.19zm-2.27 37.13c-6.18,-4.41 -10.84,-7.72 -15.95,-11.35 -4.72,6.65 -8.88,12.48 -13.11,18.42 5.84,4.16 10.8,7.68 15.96,11.35 4.66,-6.56 8.61,-12.09 13.1,-18.42zm-37.38 1.54c4.83,-6.8 8.99,-12.64 13.09,-18.4 -5.46,-3.87 -10.04,-7.13 -14.7,-10.44 -4.68,6.6 -8.62,12.13 -13.07,18.38 4.95,3.51 9.22,6.57 14.68,10.46zm45.28 3.7c-4.73,6.65 -8.89,12.51 -13.48,18.96 5.33,3.79 9.94,7.05 15.4,10.95 5.51,-5.82 10.49,-11.08 16.14,-17.08 -6.56,-4.67 -11.98,-8.53 -18.06,-12.83zm5.43 -8c6.65,4.73 12.14,8.63 18.79,13.35 3.76,-6.92 6.97,-12.85 10.36,-19.12 -5.94,-4.23 -11.02,-7.84 -16.64,-11.84 -4.28,6.03 -7.94,11.19 -12.51,17.61zm6.43 -58.79c-4.16,5.84 -7.76,10.89 -11.76,16.54 5.61,3.98 10.32,7.36 15.78,11.22 4.17,-5.88 8,-11.24 11.75,-16.54 -5.82,-4.13 -10.57,-7.51 -15.77,-11.22zm-124.75 -25.49c7.71,5.48 14.35,10.18 21.33,15.14 4.43,-6.23 8.27,-11.65 13.01,-18.3 -7.07,-4.39 -13.19,-8.19 -19.99,-12.39 -5.06,5.47 -9.32,10.09 -14.35,15.55zm-5.13 8.09c-3.97,8.1 -7.19,14.64 -10.39,21.13 6.75,4.79 12.21,8.68 17.69,12.58 4.84,-6.8 9.01,-12.67 13.47,-18.93 -6.93,-4.91 -12.91,-9.18 -20.77,-14.78zm-7.17 140.49c-24.06,-24.47 -30.7,-52.59 -26.42,-82.6 7.79,-54.89 37.21,-95.87 86.17,-121.73 11.69,-6.19 25.54,-9.48 38.8,-11.26 41.16,-5.5 76.9,20.26 86.2,60.69 4.97,21.58 4.01,42.95 -2.67,64 -10.81,34.06 -30.13,62.44 -58.69,83.87 -32.51,24.37 -68.05,34 -109.37,17.55 -2.6,3.65 -5.21,7.81 -8.27,11.56 -27.5,33.44 -46.05,72.5 -68.77,108.94 -10.64,17.06 -20.99,34.31 -31.75,51.27 -7.19,11.29 -14.3,12.02 -24.75,3.22 -13,-10.95 -13.76,-15.54 -3.28,-28.7 21.59,-27.12 42.32,-55.06 65.6,-80.7 21.41,-23.6 36.96,-50.98 57.2,-76.11z"/>
  <path class="fil8" d="M1097.98 487.88c-7.66,-6.16 -9.25,-14.47 -9.77,-21.73 -1.17,-16.82 -2.48,-33.8 2.15,-50.51 3.98,-14.37 9.79,-27.09 24.1,-34.22 2.86,-1.44 5.43,-4.35 7.04,-7.17 6.13,-10.63 15.39,-16.74 26.9,-19.82 30.77,-8.27 59.58,-7.53 86.07,14.04 10.98,8.95 24.73,14.95 37.99,20.4 6.12,2.49 14.12,0.41 22.81,0.41 -0.72,-0.57 0.77,0.16 0.67,0.6 -2.53,13.91 6.44,30.67 -4.74,41.54 -12.56,12.23 -15.08,26.28 -17.92,41.89 -2.09,11.5 -7.95,22.37 -12.54,33.35 -1.71,4.04 -4.29,8.78 -9.89,7.1 -6.02,-1.83 -3.81,-7.04 -3.48,-11.38 1.05,-13.39 2.25,-26.78 2.86,-40.18 0.53,-11.56 -3.08,-20.83 -13.6,-27.84 -9.03,-5.99 -16.11,-14.84 -24.62,-21.69 -6.55,-5.28 -13.59,-10.19 -21.11,-13.87 -14.38,-7.09 -27.76,-6.31 -41.98,3.41 -12.54,8.58 -25.5,16.54 -31.72,30.43 -6.65,14.85 -10.64,30.89 -15.83,46.4 -0.9,2.68 -2.01,5.27 -3.39,8.84z"/>
  <path class="fil4" d="M854.78 906.56c0,14.02 -11.35,25.37 -25.36,25.37 -14.02,0 -25.37,-11.35 -25.37,-25.37 0,-14.01 11.35,-25.37 25.37,-25.37 14.01,0 25.36,11.36 25.36,25.37z"/>
  <path class="fil9" d="M524.9 266.88c11.77,-2.13 22.21,-3.57 32.42,-5.97 10.19,-2.38 20.16,-5.73 32.33,-9.25 -5.4,16.66 -16.12,22.69 -29.67,25.23 -12.64,2.37 -25.04,3.58 -35.08,-10.01z"/>
  <path class="fil10" d="M591.36 167.34c7.71,-0.23 13.52,5.28 13.7,12.98 0.18,7.54 -5.57,13.79 -12.93,13.99 -6.97,0.2 -13.8,-6.25 -14.04,-13.22 -0.25,-7.23 5.84,-13.53 13.27,-13.75z"/>
  <path class="fil10" d="M508.92 201.47c0.36,7.01 -5.87,13.89 -12.92,14.28 -7.24,0.42 -13.65,-5.51 -13.99,-12.94 -0.38,-7.71 4.99,-13.64 12.66,-13.98 7.52,-0.32 13.87,5.32 14.25,12.64z"/>
  <path class="fil10" d="M1221.66 519.42c-5.94,-0.39 -10.26,-5 -10.26,-10.93 0,-6.52 5.21,-11.36 11.75,-10.93 6.54,0.42 10.97,5.88 10.11,12.43 -0.78,5.9 -5.6,9.82 -11.6,9.43z"/>
  <path class="fil10" d="M1143.32 494.67c0.02,6.03 -6.04,11.75 -12.01,11.32 -5.41,-0.39 -10.54,-5.84 -10.56,-11.23 -0.01,-6.04 6.04,-11.76 12.01,-11.34 5.44,0.39 10.54,5.83 10.56,11.25z"/>
  <path class="fil5" d="M504.21 169.32c-4.67,9.77 -14.08,6.24 -20.26,9.72 -6.5,3.64 -13.03,7.24 -20.76,11.54 0.34,-10.03 6.51,-15.43 13.4,-18.96 8.27,-4.22 17.36,-8.14 27.62,-2.3z"/>
  <path class="fil5" d="M607.77 154.29c-6.76,0.56 -13.65,0.51 -20.25,1.88 -6.11,1.25 -11.9,4.01 -18.81,6.44 3.96,-16.45 22.61,-21.13 39.06,-8.32z"/>
  <path class="fil8" d="M1208.35 488.33c12.29,-13.27 26.93,-11.09 33.39,4.19 -10.7,-1.34 -21.43,-2.69 -33.39,-4.19z"/>
  <path class="fil11" d="M1185.54 560.7c-12.86,8.18 -32.6,3.39 -38.83,-10.05 13.25,3.43 25.97,6.72 38.83,10.05z"/>
  <path class="fil11" d="M553.41 213.12c4.46,10.1 17.03,17.96 10.61,33.13 -7.84,-7.8 -12.48,-21.82 -10.61,-33.13z"/>
  <path class="fil8" d="M1117.32 471.85c14.71,-12.08 25.72,-10.88 29.28,2.31 -9.32,-0.74 -18.51,-1.46 -29.28,-2.31z"/>
  <path class="fil11" d="M1175.13 530.54c-1.4,3.65 -2.81,7.28 -4.65,12.02 -4.95,-8.01 -4.95,-8.01 4.65,-12.02z"/>
 </g>
</svg>
