<?xml version="1.0" encoding="UTF-8"?>
<!DOCTYPE svg PUBLIC "-//W3C//DTD SVG 1.1//EN" "http://www.w3.org/Graphics/SVG/1.1/DTD/svg11.dtd">
<!-- Creator: CorelDRAW 2017 -->
<svg xmlns="http://www.w3.org/2000/svg" xml:space="preserve" width="102.51mm" height="16.02mm" version="1.1" style="shape-rendering:geometricPrecision; text-rendering:geometricPrecision; image-rendering:optimizeQuality; fill-rule:evenodd; clip-rule:evenodd"
viewBox="0 0 10251 1602"
 xmlns:xlink="http://www.w3.org/1999/xlink">
 <defs>
  <style type="text/css">
   <![CDATA[
    .fil6 {fill:#24A9B8;fill-rule:nonzero}
    .fil3 {fill:#28A9BC;fill-rule:nonzero}
    .fil8 {fill:#2C3238;fill-rule:nonzero}
    .fil4 {fill:#4B545E;fill-rule:nonzero}
    .fil1 {fill:#656D78;fill-rule:nonzero}
    .fil5 {fill:#69717E;fill-rule:nonzero}
    .fil9 {fill:#702416;fill-rule:nonzero}
    .fil2 {fill:#8E3A26;fill-rule:nonzero}
    .fil10 {fill:#9B3A3A;fill-rule:nonzero}
    .fil0 {fill:#AA4A30;fill-rule:nonzero}
    .fil7 {fill:#CDD7D8;fill-rule:nonzero}
    .fil11 {fill:#E56761;fill-rule:nonzero}
   ]]>
  </style>
 </defs>
 <g id="Camada_x0020_1">
  <metadata id="CorelCorpID_0Corel-Layer"/>
  <path class="fil0" d="M9385.75 71.11c-1.67,1.34 -3.27,2.78 -5.01,4 -5.55,3.81 -15.57,2.07 -16.81,10.86 -1.72,12.2 -8.11,24.37 -2.67,36.85 2.3,5.25 5.81,10.71 10.25,14.1 6.45,4.86 8.79,10 7.89,17.96 -5.96,52.51 -11.69,105.06 -17.26,157.63 -0.81,7.56 -4.52,11.36 -11.48,13.82 -25.67,9.07 -51.22,18.52 -76.8,27.91 -5.59,2.04 -11.07,4.36 -18.97,7.47 16.32,23.47 32.02,46.04 48.38,69.56 15.11,-7.17 29.33,-13.78 43.45,-20.63 21.08,-10.21 41.8,-21.25 63.25,-30.65 11.01,-4.83 16.08,-12.58 17.29,-23.47 1.23,-10.8 2.25,-21.73 2.06,-32.59 -0.95,-55.6 -2.2,-111.2 -3.62,-166.79 -0.21,-8.57 0.47,-16.07 7.94,-21.78 8.96,-6.87 9.77,-16.26 7.22,-26.91 10.49,-34.2 -18.13,-38.91 -30.44,-34.2 -7.39,-4.38 -24.67,-3.14 -29.65,26.43 -2.26,-7.11 -0.05,-12.53 4.5,-18.05 2.39,-2.91 2.57,-7.62 3.75,-11.52 -1.1,0 -2.19,0 -3.27,0z"/>
  <path class="fil0" d="M8835.29 71.11c1.66,1.34 3.25,2.78 5.02,4 5.53,3.81 15.56,2.07 16.79,10.86 1.72,12.2 8.1,24.37 2.67,36.85 -2.28,5.25 -5.8,10.71 -10.26,14.1 -6.42,4.86 -8.79,10 -7.89,17.96 5.97,52.51 11.71,105.06 17.29,157.63 0.8,7.56 4.51,11.36 11.46,13.82 25.69,9.07 51.24,18.52 76.79,27.91 5.6,2.04 11.11,4.36 18.98,7.47 -16.32,23.47 -32,46.04 -48.37,69.56 -15.12,-7.17 -29.34,-13.78 -43.44,-20.63 -21.09,-10.21 -41.81,-21.25 -63.25,-30.65 -11.03,-4.83 -16.09,-12.58 -17.33,-23.47 -1.21,-10.8 -2.22,-21.73 -2.04,-32.59 0.94,-55.6 2.19,-111.2 3.62,-166.79 0.23,-8.57 -0.45,-16.07 -7.92,-21.78 -8.98,-6.87 -9.79,-16.26 -7.24,-26.91 -10.49,-34.2 18.13,-38.91 30.46,-34.2 7.38,-4.38 24.66,-3.14 29.63,26.43 2.28,-7.11 0.06,-12.53 -4.48,-18.05 -2.4,-2.91 -2.6,-7.62 -3.76,-11.52 1.09,0 2.18,0 3.27,0z"/>
  <path class="fil0" d="M9091.94 68.66c1.15,1.05 2.14,2.63 3.52,3.08 34.61,11.44 53.84,37.46 65.91,69.98 3.61,9.65 6.36,19.77 8.18,29.9 1.81,10.18 2.26,19.17 14.14,24.79 9.7,4.57 8.15,17.05 8.5,26.71 0.75,19.95 -6.61,30.12 -24.41,36.15 -8.05,17.39 -15.72,34.15 -23.58,50.85 -1.62,3.42 -3.84,6.57 -5.81,9.84 -11.39,19.08 -27.92,28.35 -50.37,26.47 -5.43,-0.47 -10.89,-0.54 -16.33,-0.85 -25.4,-1.47 -44.83,-12.22 -56.14,-35.84 -4.01,-8.36 -8.63,-16.41 -12.65,-24.74 -5.79,-12.01 -9.51,-24.44 -24.55,-30.36 -7.1,-2.79 -12.76,-13.38 -15.73,-21.64 -6.1,-17.11 1.71,-30.03 20.82,-38.09 2.35,-12.6 4.01,-25.59 7.29,-38.16 7.19,-27.46 19.46,-52.35 42.67,-69.85 9.79,-7.39 21.48,-12.23 32.34,-18.24 8.73,0 17.46,0 26.2,0z"/>
  <path class="fil1" d="M9496.8 96.8c0,8.48 0,15.62 0,24.07 -267.27,0 -533.46,0 -801.46,0 0,-7.62 0,-15.22 0,-24.07 267.11,0 533.86,0 801.46,0z"/>
  <path class="fil2" d="M8807.26 88.65c1.88,11.48 6.92,20.06 11.26,19.17 4.32,-0.88 6.33,-10.91 4.45,-22.37 -1.87,-11.48 -6.91,-20.06 -11.24,-19.17 -4.34,0.88 -6.35,10.9 -4.47,22.37z"/>
  <path class="fil2" d="M8823.38 85.91c0.48,11.05 4.27,19.86 8.48,19.69 4.19,-0.19 7.19,-9.29 6.72,-20.36 -0.48,-11.03 -4.28,-19.85 -8.48,-19.67 -4.19,0.18 -7.21,9.28 -6.72,20.34z"/>
  <path class="fil2" d="M8776.58 93.63c1.59,9.8 6.25,17.05 10.42,16.18 4.16,-0.85 6.27,-9.49 4.69,-19.3 -1.59,-9.8 -6.25,-17.04 -10.43,-16.18 -4.17,0.86 -6.27,9.5 -4.68,19.3z"/>
  <path class="fil2" d="M8792.49 89.16c1.68,10.55 6.26,18.47 10.18,17.66 3.92,-0.78 5.74,-9.96 4.04,-20.52 -1.69,-10.54 -6.26,-18.47 -10.19,-17.68 -3.94,0.79 -5.75,9.99 -4.03,20.54z"/>
  <path class="fil2" d="M9413.77 88.65c-1.88,11.48 -6.91,20.06 -11.25,19.17 -4.35,-0.88 -6.34,-10.91 -4.47,-22.37 1.89,-11.48 6.92,-20.06 11.26,-19.17 4.35,0.88 6.34,10.9 4.46,22.37z"/>
  <path class="fil2" d="M9397.65 85.91c-0.48,11.05 -4.27,19.86 -8.46,19.69 -4.21,-0.19 -7.23,-9.29 -6.74,-20.36 0.46,-11.03 4.27,-19.85 8.48,-19.67 4.19,0.18 7.2,9.28 6.72,20.34z"/>
  <path class="fil2" d="M9444.44 93.63c-1.58,9.8 -6.25,17.05 -10.42,16.18 -4.17,-0.85 -6.26,-9.49 -4.68,-19.3 1.59,-9.8 6.26,-17.04 10.43,-16.18 4.17,0.86 6.26,9.5 4.67,19.3z"/>
  <path class="fil2" d="M9428.57 89.16c-1.71,10.55 -6.26,18.47 -10.21,17.66 -3.93,-0.78 -5.74,-9.96 -4.04,-20.52 1.7,-10.54 6.26,-18.47 10.19,-17.68 3.94,0.79 5.74,9.99 4.06,20.54z"/>
  <path class="fil0" d="M9682.09 532.7c-1.64,0 -9.27,3.56 -10.93,3.56 -12.33,1.36 -11.17,2.4 -25.58,3.97 -5.11,1.72 -3.07,15.1 -4,21.62 -1.11,8.12 5.55,17.67 4.9,24.85 -2.71,30.35 -4.33,51.32 -7.06,81.67 -1.41,15.4 -3.21,30.76 -4.83,46.13 0,2.19 0,4.35 0,6.54 5.99,15.32 11.39,30.93 18.16,45.91 11.55,25.5 23.98,50.63 36.07,75.9 2.29,4.78 4.73,9.48 7,14.03 14.42,-6.71 28.18,-13.13 41.96,-19.54 0,-0.56 0,-1.1 0,-1.65 -0.66,-0.75 -1.55,-1.4 -1.94,-2.26 -18.62,-41.7 -37.2,-83.41 -55.67,-125.18 -1.05,-2.37 -1.36,-5.26 -1.36,-7.9 -0.09,-38.72 -0.19,-77.47 0.16,-116.2 0.03,-3.39 2.18,-7.67 4.95,-10.02 15.11,-12.84 20.57,-19.6 23.19,-26.62 -0.3,-0.39 0,-8.63 -5.23,-3.86 -6.71,2.03 -5.26,8.19 -12.44,10.37 0.99,-9.59 3.9,-21.32 -7.35,-21.32z"/>
  <path class="fil3" d="M9820.33 1506.24c0,-10.08 -0.8,-20.21 0.25,-30.19 0.84,-7.89 3.51,-15.73 6.2,-23.36 2.31,-6.56 6.97,-11.56 15.82,-11.87 9.64,-0.33 17.25,3.09 20.55,10.92 3.94,9.31 7.78,19.01 9.03,28.81 2.06,15.94 2.01,32.1 2.85,48.17 0.74,14.29 -1.42,28.19 -8.44,41.22 -4.06,7.54 -9.25,14.07 -20.3,13.84 -9.56,-0.19 -19.71,-6.08 -22.17,-16.16 -3.29,-13.68 -4.55,-27.78 -5.86,-41.77 -0.61,-6.45 0.74,-13.05 1.2,-19.6 0.29,0 0.57,0 0.87,-0.01z"/>
  <path class="fil3" d="M9802.12 1507.42c-0.78,15.54 -1.24,31.12 -2.49,46.65 -0.45,5.41 -2.07,11.04 -4.6,15.99 -3.89,7.74 -10.62,13.09 -20.89,13.67 -10.13,0.58 -15.63,-4.94 -19.78,-12.08 -8.9,-15.32 -10.37,-31.72 -9.11,-48.56 0.9,-12.02 1.79,-24.07 1.81,-36.12 0.04,-12.39 3.02,-23.94 9.31,-34.95 4.25,-7.44 10.86,-11.41 20.54,-11.22 9.71,0.2 14.35,5.82 16.76,12.92 2.59,7.64 5.03,15.52 5.82,23.41 0.99,9.99 0.24,20.13 0.24,30.21 0.8,0.03 1.59,0.05 2.39,0.08z"/>
  <path class="fil0" d="M9723.02 1380c24.76,0 49.13,0 75.05,0 0.31,3.31 1.13,7.42 0.99,11.51 -1.14,32.09 -2.01,64.22 -4.02,96.24 -0.55,8.99 -3.75,18.13 -7.37,26.48 -3.08,7.12 -9.29,11.45 -17.92,12.12 -22.95,1.85 -37.99,-9.28 -42.4,-33.44 -2.43,-13.32 -3.79,-26.94 -4.42,-40.47 -1.04,-22.28 -1.14,-44.61 -1.56,-66.92 -0.03,-1.01 0.57,-2.04 1.65,-5.52z"/>
  <path class="fil0" d="M9825.81 1380.01c26.46,0 51.2,0 75.01,0 1.5,2.18 2.59,3.04 2.57,3.89 -1,33.09 -1.91,66.19 -3.39,99.27 -0.27,6.37 -2.21,12.89 -4.52,18.92 -7.09,18.52 -18.03,24.96 -37.79,24.33 -9.98,-0.33 -16.72,-5 -20.22,-13.61 -3.05,-7.46 -6.01,-15.49 -6.49,-23.41 -2.16,-35.81 -3.48,-71.7 -5.17,-109.39z"/>
  <path class="fil0" d="M9947.32 532.7c1.64,0 9.28,3.56 10.93,3.56 12.34,1.36 11.17,2.4 25.58,3.97 5.12,1.72 3.07,15.1 3.99,21.62 1.13,8.12 -5.54,17.67 -4.88,24.85 2.71,30.35 4.32,51.32 7.05,81.67 1.41,15.4 3.2,30.76 4.83,46.13 0,2.19 0,4.35 0,6.54 -6.01,15.32 -11.38,30.93 -18.15,45.91 -11.55,25.5 -23.98,50.63 -36.08,75.9 -2.28,4.78 -4.74,9.48 -7.02,14.03 -14.4,-6.71 -28.16,-13.13 -41.94,-19.54 0,-0.56 0,-1.1 0,-1.65 0.66,-0.75 1.55,-1.4 1.95,-2.26 18.61,-41.7 37.2,-83.41 55.66,-125.18 1.05,-2.37 1.36,-5.26 1.36,-7.9 0.1,-38.72 0.19,-77.47 -0.17,-116.2 -0.02,-3.39 -2.16,-7.67 -4.93,-10.02 -15.12,-12.84 -20.57,-19.6 -23.19,-26.62 0.28,-0.39 0,-8.63 5.22,-3.86 6.71,2.03 5.25,8.19 12.44,10.37 -0.99,-9.59 -3.89,-21.32 7.35,-21.32z"/>
  <path class="fil4" d="M9153.68 1366.17c-2.4,-15.62 -4.41,-31.32 -7.29,-46.85 -5.36,-28.86 -34.91,-41.35 -58.61,-25.14 -7.18,4.92 -11.88,11.12 -11.84,20.19 0.07,16.84 -0.1,33.71 0.26,50.57 0.55,25.03 0.42,50.16 2.66,75.06 1.25,13.79 6.14,27.43 10.65,40.73 2.01,5.92 6.96,10.92 10.89,16.11 10.4,13.6 37.65,13.93 48.77,-5 14.13,-24.04 16.41,-49.13 12.6,-75.64 -2.4,-16.72 -5.26,-33.38 -7.9,-50.07 -0.07,0.01 -0.12,0.03 -0.19,0.04z"/>
  <path class="fil2" d="M9005.82 1205.39c49.41,-3.54 22.62,-23.26 73.75,-26.92 -0.86,5.85 -1.18,10.22 -2.21,14.42 10.11,29.09 3.39,20.76 25.88,77.31 37.42,64.5 0.17,72.11 -6.32,74.74 -15.69,3.22 -29.24,3.84 -69.76,-26.76 -17.71,-18.68 -52.53,-35.75 -55.69,-61.2 -0.55,-4.52 34.23,-45.26 34.35,-51.59z"/>
  <path class="fil5" d="M9041.66 1349.36c2.4,-15.62 4.39,-31.32 7.28,-46.85 5.37,-28.85 34.93,-41.34 58.61,-25.12 7.2,4.9 11.89,11.08 11.85,20.16 -0.07,16.86 0.1,33.72 -0.27,50.58 -0.54,25.03 -0.4,50.16 -2.67,75.03 -1.22,13.83 -6.12,27.46 -10.63,40.74 -2,5.94 -6.96,10.94 -10.9,16.11 -10.39,13.62 -37.65,13.95 -48.75,-4.96 -14.12,-24.06 -16.41,-49.16 -12.62,-75.65 2.42,-16.72 5.26,-33.38 7.91,-50.07 0.08,0.02 0.13,0.03 0.19,0.03z"/>
  <path class="fil0" d="M9166.75 1205.39c-49.4,-3.54 -22.61,-23.26 -73.73,-26.92 0.87,5.85 1.16,10.22 2.2,14.42 -10.12,29.09 -3.39,20.76 -25.87,77.31 -37.43,64.5 -0.19,72.11 6.32,74.74 15.68,3.22 29.24,3.84 69.74,-26.76 17.72,-18.68 52.54,-35.75 55.68,-61.2 0.56,-4.52 -34.2,-45.26 -34.34,-51.59z"/>
  <path class="fil2" d="M9004.48 388.71c3.13,-2.45 6.43,-5.88 10.44,-8.01 15.16,-8.07 22.79,-19.23 23,-37.59 0.33,-35.16 5.75,-28.61 29.41,-29.8 14.64,-0.75 29.38,-0.55 44.07,-0.25 13.83,0.29 16.93,3.8 17.05,17.87 0.03,3.27 0.1,6.56 -0.32,9.79 -2.58,20.08 7.56,32.81 23.78,42.42 3.37,1.99 8.29,5.84 8.02,8.34 -0.36,3.24 -4.73,6.85 -8.19,8.8 -19.87,11.18 -33.25,36.55 -53.36,47.26 -2.7,1.44 -13.64,7.7 -16.17,6.83 -27.71,-9.59 -55.35,-38.11 -75.94,-60.77 -0.66,-0.75 -0.75,-1.98 -1.79,-4.89z"/>
  <path class="fil1" d="M9903.33 1178.66c15.81,76.68 14.97,152.96 16.69,231.41 -31.13,3.5 -61.23,6.91 -93.33,10.52 -3.68,-21.96 -7.05,-42.03 -10.4,-62.11 -0.9,0 -1.81,-0.01 -2.69,-0.01 -2.02,18.27 -4.05,36.53 -6.2,56.05 -34.37,1.77 -67.81,3.3 -101.39,-7.32 -2.07,-76 -3.12,-151.66 9.71,-228.43 31.19,-1.6 62.44,3.7 93.76,3.5 30.94,-0.19 61.9,-2.31 93.85,-3.61z"/>
  <path class="fil0" d="M9103.07 1168.96c44.82,-4.33 75.57,-7.3 121.98,-11.79 -0.69,5.48 -0.86,9.56 -1.73,13.5 -6.66,30.74 -10.68,62.07 -23.34,91.43 -8.4,19.48 -22.36,29.97 -42.62,33.37 -1.07,0.19 -2.17,0.21 -3.26,0.34 -30.88,3.57 -48.28,-2.89 -54.25,-40.07 -3.8,-23.6 -0.36,-47.5 -3.74,-71.17 -0.6,-4.19 6.96,-9.7 6.96,-15.61z"/>
  <path class="fil0" d="M8944.49 1155.46c47.14,4.54 91.92,8.83 138.36,13.3 -1.69,14.57 -2.81,27.45 -4.73,40.25 -2.67,17.78 -5.57,35.53 -8.99,53.19 -4.4,22.86 -16.33,31.7 -39.82,32.16 -22.69,0.45 -42.92,-4.67 -54.47,-25.69 -6.76,-12.28 -11.46,-26.05 -14.91,-39.69 -5.83,-23.21 -9.93,-46.85 -15.44,-73.52z"/>
  <path class="fil1" d="M10128.68 547.51c0,6.12 0,11.26 0,17.37 -209.56,0 -418.25,0 -628.37,0 0,-5.51 0,-10.99 0,-17.37 209.42,0 418.55,0 628.37,0z"/>
  <path class="fil1" d="M8965.24 786.67c79.27,1.65 156.52,3.27 235.11,4.91 19.13,129.94 38.07,258.56 40.51,388.67 -20.18,11.28 -101.42,20.91 -149.2,17.76 -0.81,-3.35 -1.59,-37.88 -2.7,-42.55 -1.95,3.95 -3.6,38.09 -5.81,42.55 -46.46,-5.18 -93.33,-10.39 -140.89,-15.68 -0.94,-5.16 -2.03,-9.26 -2.38,-13.44 -5.51,-62.62 -5.6,-125.33 -1.44,-187.95 2.77,-41.85 6.6,-83.66 11.85,-125.26 2.91,-23.03 9.73,-45.56 14.95,-69.01z"/>
  <path class="fil6" d="M9925.6 1244.52c-15.85,1.26 -29.83,3 -43.85,3.39 -43.61,1.21 -87.27,1.42 -130.88,3.04 -17.5,0.64 -33.43,-2.85 -50.34,-11.83 1.15,-16.41 1.74,-33.67 3.65,-50.82 10.19,-90.25 10.12,-180.69 4.97,-271.2 -0.5,-8.97 -3.53,-18.16 -7.04,-26.57 -6.92,-16.54 -14.99,-32.57 -23.49,-50.72 18.55,-9.19 36.32,-17.99 54.8,-27.14 17.73,17.78 34.71,34.67 51.55,51.71 15.26,15.46 33.61,17.2 53.97,13.92 18.59,-2.99 29.92,-12.47 36.29,-30.22 4.73,-13.22 12.19,-25.44 19.18,-39.64 19.65,8.39 38.46,16.41 58.5,24.96 -1.99,4.71 -3.28,8.67 -5.23,12.3 -8.31,15.35 -16.21,30.97 -25.46,45.74 -8.1,12.96 -11.7,26.76 -12.39,41.67 -0.45,9.8 -1.22,19.63 -0.86,29.42 2.25,63.77 4.32,127.57 7.39,191.3 1.13,23.93 4.78,47.73 7.3,71.58 0.56,5.4 1.1,10.79 1.94,19.11z"/>
  <path class="fil7" d="M9203.98 809.34c-83,3.92 -163.44,8.56 -244.15,-7.31 -0.48,-5.19 -1.19,-9.98 -1.38,-14.77 -1.18,-30.53 -3.28,-61.06 -3.16,-91.58 0.19,-42.75 -6.07,-84.76 -11.77,-126.88 -3.79,-28.09 -8.62,-56.08 -11.35,-84.26 -1.11,-11.46 -6.18,-15.94 -16.06,-19.09 -19.73,-6.27 -39.18,-13.39 -58.72,-20.24 -4.57,-1.6 -9.02,-3.51 -15.12,-5.9 11.49,-37.27 22.83,-74.03 34.71,-112.49 15.52,3.82 30.19,7.18 44.71,11.06 33.17,8.85 66.23,18.07 99.4,26.88 9.68,2.56 16.14,8.64 21.34,16.62 10.14,15.5 20.22,31.08 30.41,46.57 2.93,4.47 6.14,8.75 10.41,14.81 14.07,-19.85 28.43,-37.63 39.93,-57.09 11.46,-19.38 29.25,-26.95 48.93,-27.3 36.04,-0.66 69.87,-10.84 104.22,-19.15 7.81,-1.89 15.6,-3.84 25.39,-6.25 4.93,39.29 9.63,76.9 14.54,116.14 -33.23,7.15 -64.99,13.97 -98.82,21.24 -4.41,56.35 -8.75,112.68 -13.23,169.01 -4.45,55.99 -0.05,112.06 -0.23,169.98z"/>
  <path class="fil0" d="M9738.25 784.63c1.84,-11.21 3.1,-22.63 5.67,-33.75 4.57,-19.65 13.55,-37.15 28.26,-51.29 27.08,-26.04 63.02,-26.24 90.35,-0.35 16.64,15.77 25.54,35.77 30.17,57.84 1.5,7.19 2.3,14.52 3.4,21.83 19.49,11.67 19.87,27.96 0.5,41.06 -4.97,3.33 -7.71,7.31 -9.73,12.68 -6.08,16.2 -15.12,30.49 -28.68,41.58 -25.12,20.59 -55.71,20.68 -80.98,0.28 -12.1,-9.78 -20.74,-22.17 -26.74,-36.34 -2.3,-5.41 -5.1,-9.13 -10.89,-11.37 -4.52,-1.74 -8.86,-5.09 -12.07,-8.78 -12.64,-14.56 -7.97,-28.76 10.74,-33.39z"/>
  <path class="fil8" d="M9889.19 789.03c-0.82,-8.43 -2.21,-16.84 -2.28,-25.28 -0.13,-14.18 -2.73,-26.47 -13.53,-37.42 -7.36,-7.48 -11.08,-18.52 -16.51,-28.14 -7.57,-3.02 -15.46,-6.66 -23.66,-9.33 -13.53,-4.41 -26.37,-4.49 -37.45,6.81 -2.45,2.49 -7.32,3.62 -11.09,3.62 -5.72,-0.01 -8.65,2.6 -12.51,6.53 -16.58,17.02 -20.09,38.19 -21.11,60.42 -0.34,7.11 -0.53,14.23 -0.87,23.39 -4.24,-2.57 -6.7,-3.51 -8.44,-5.2 -11.31,-10.89 -19.52,-22.68 -11.77,-39.5 1.12,-2.43 -0.64,-6.1 -0.6,-9.19 0.04,-4.04 -0.29,-8.41 1.06,-12.07 2.12,-5.68 3.71,-10.66 2.4,-17.16 -1.72,-8.55 2.32,-12.5 15.46,-18.74 -0.33,-9.02 3.31,-15.68 13.63,-16.7 13.97,-16.18 33.35,-14.68 51.93,-15.98 4.08,-0.3 8.15,-1.55 12.21,-1.69 3.51,-0.14 7.09,0.45 10.54,1.19 3.86,0.83 7.61,2.18 11.42,3.28 2.61,0.75 5.72,0.84 7.8,2.33 10.7,7.71 21.2,15.68 31.61,23.79 1.69,1.32 3.36,3.67 3.56,5.7 0.69,6.33 3.72,10.89 8.37,15.02 1.86,1.63 2.48,4.81 3.23,7.4 2.26,7.86 4.46,15.76 6.34,23.7 0.71,3.02 0.81,6.3 0.49,9.38 -0.33,3.17 -2.77,6.52 -2.15,9.3 3.48,15.38 -9.53,23.24 -14.03,34.91 -1.35,-0.14 -2.71,-0.24 -4.05,-0.37z"/>
  <path class="fil2" d="M9962.95 539.77c-1.13,8.14 -4.91,14.32 -8.46,13.83 -3.57,-0.48 -5.56,-7.47 -4.43,-15.61 1.11,-8.13 4.92,-14.33 8.46,-13.84 3.57,0.49 5.55,7.48 4.43,15.62z"/>
  <path class="fil2" d="M9949.74 542.36c0,8.21 -2.91,14.87 -6.5,14.87 -3.6,0 -6.51,-6.64 -6.51,-14.87 0,-8.2 2.89,-14.86 6.49,-14.86 3.6,0 6.51,6.65 6.52,14.86z"/>
  <path class="fil2" d="M9988.1 542.33c-0.94,6.94 -4.48,12.19 -7.9,11.71 -3.42,-0.47 -5.43,-6.5 -4.51,-13.44 0.95,-6.95 4.48,-12.19 7.92,-11.72 3.41,0.48 5.41,6.5 4.49,13.45z"/>
  <path class="fil2" d="M9975 539.67c-1,7.47 -4.43,13.18 -7.66,12.75 -3.21,-0.43 -5.01,-6.84 -4.01,-14.33 1,-7.48 4.43,-13.19 7.64,-12.75 3.25,0.42 5.05,6.84 4.03,14.33z"/>
  <path class="fil2" d="M9666.45 539.77c1.13,8.14 4.92,14.32 8.48,13.83 3.57,-0.48 5.55,-7.47 4.43,-15.61 -1.13,-8.13 -4.92,-14.33 -8.47,-13.84 -3.57,0.49 -5.55,7.48 -4.44,15.62z"/>
  <path class="fil2" d="M9679.66 542.36c0,8.21 2.92,14.87 6.51,14.87 3.59,0 6.52,-6.64 6.52,-14.87 0,-8.2 -2.9,-14.86 -6.49,-14.86 -3.6,0 -6.53,6.65 -6.54,14.86z"/>
  <path class="fil2" d="M9641.32 542.33c0.93,6.94 4.46,12.19 7.9,11.71 3.42,-0.47 5.43,-6.5 4.49,-13.44 -0.93,-6.95 -4.47,-12.19 -7.9,-11.72 -3.41,0.48 -5.44,6.5 -4.49,13.45z"/>
  <path class="fil2" d="M9654.41 539.67c1.01,7.47 4.42,13.18 7.65,12.75 3.23,-0.43 5.05,-6.84 4.03,-14.33 -1,-7.48 -4.43,-13.19 -7.67,-12.75 -3.22,0.42 -5.02,6.84 -4.01,14.33z"/>
  <path class="fil8" d="M9799.18 841.55c15.39,5.54 30.54,6.66 45.73,-1.38 -10.07,17.09 -32.74,17.61 -45.73,1.38z"/>
  <path class="fil8" d="M9758.08 774.44c4.96,-16.43 31.02,-20.65 39.73,-2.56 -13.08,-1.2 -28.84,-4.62 -39.73,2.56z"/>
  <path class="fil8" d="M9876.39 776.31c-8.8,-5.28 -18.12,-9.05 -36.25,-4.75 7.36,-12 29.75,-16.72 36.25,4.75z"/>
  <path class="fil9" d="M9834.42 826.51c-1.86,2.82 -9.52,-0.37 -10.9,-1.71 4.26,-5.32 7.46,-0.88 10.9,1.71z"/>
  <path class="fil9" d="M9810.22 826.51c1.86,2.82 9.52,-0.37 10.9,-1.71 -4.26,-5.32 -7.45,-0.88 -10.9,1.71z"/>
  <path class="fil8" d="M9869.89 792.45c0,6.57 -5.32,11.87 -11.87,11.87 -6.54,0 -11.84,-5.3 -11.84,-11.87 0,-6.53 5.3,-11.84 11.84,-11.84 6.55,0 11.87,5.31 11.87,11.84z"/>
  <path class="fil8" d="M9791.03 792.45c0,6.57 -5.32,11.87 -11.86,11.87 -6.54,0 -11.86,-5.3 -11.86,-11.87 0,-6.53 5.32,-11.84 11.86,-11.84 6.54,0 11.86,5.31 11.86,11.84z"/>
  <path class="fil8" d="M9036.34 311.18c6.09,-20.53 6.09,-20.53 19.55,-25.08 -0.61,7.89 -1.49,15.1 -1.69,22.35 -0.41,13.22 2.81,17.95 15.39,21.07 6.23,1.55 13,2.37 19.36,1.71 21.33,-2.19 26.15,-9.15 22.43,-30.33 -0.81,-4.65 -1.38,-9.36 -2.3,-15.72 13.41,3.57 14.06,15.21 20.67,24.65 11.13,-12.26 16.45,-26.84 20.72,-41.58 4.19,-14.42 6.73,-29.33 10.14,-44.6 7.7,2.4 8.22,8.46 7.85,14.28 -1.03,15.7 -1.49,31.38 -9.39,45.91 -7.76,14.27 -13.67,29.56 -21.48,43.81 -8.81,16.1 -23.33,23.8 -41.62,24.44 -0.55,0.02 -1.09,0.07 -1.63,0.13 -35.74,4.63 -62.46,-7.32 -79.31,-40.61 -9.92,-19.62 -20.29,-38.71 -19.06,-61.49 0.31,-5.59 2.23,-11.09 3.49,-17.08 9.09,1.41 7.86,7.33 8.24,11.58 1.91,21.22 11.08,39.68 21.45,57.7 1.57,2.69 3.93,4.91 7.19,8.86z"/>
  <path class="fil10" d="M9116.96 291.15c-22.68,14.23 -49.23,12.31 -65.98,-2.2 23.61,-4.42 42.82,-6.2 65.98,2.2z"/>
  <path class="fil8" d="M9005.91 192.3c10.98,-13.21 32.67,-16.84 43.59,-8.02 2.18,1.76 4.15,6.19 3.4,8.49 -0.69,2.19 -5.26,4.78 -7.76,4.45 -6.8,-0.86 -13.32,-3.76 -20.12,-4.74 -5.86,-0.85 -11.94,-0.18 -19.11,-0.18z"/>
  <path class="fil8" d="M9099.01 190.37c17.45,-15 35.1,-15.23 47.92,-2.72 -12.08,2.94 -24.34,6.46 -36.84,8.58 -3.05,0.53 -6.85,-3.5 -11.08,-5.86z"/>
  <path class="fil9" d="M9059.65 260.13c16.04,10.63 29.7,5.52 39.36,0 1.72,-0.97 2.88,2.11 5.36,2.54 2.68,3.15 3.83,10.71 -1.34,11.27 -13.36,3.26 -30,4.62 -43.38,0.24 -7.84,-2.57 -5.99,-8.31 0,-14.05z"/>
  <path class="fil8" d="M9035.4 229.14c-6.65,-0.23 -11.97,-6.04 -11.44,-12.49 0.52,-6.33 6.97,-11.97 13.13,-10.89 6.33,1.12 10.25,4.94 10.37,11.74 0.13,6.9 -5.15,11.91 -12.06,11.64z"/>
  <path class="fil8" d="M9124.42 227.73c-6.51,-0.36 -11.6,-6.29 -10.91,-12.96 0.7,-6.74 4.65,-10.29 11.35,-10.54 6.52,-0.22 12.33,5.56 12.18,11.85 -0.15,6.22 -6.41,12 -12.62,11.65z"/>
  <path class="fil11" d="M9116.96 291.15c-5.97,26.38 -60.78,29.22 -65.98,-2.2 22.07,11.39 47.11,10.1 65.98,2.2z"/>
 </g>
</svg>
