<?xml version="1.0" encoding="UTF-8"?>
<!DOCTYPE svg PUBLIC "-//W3C//DTD SVG 1.1//EN" "http://www.w3.org/Graphics/SVG/1.1/DTD/svg11.dtd">
<!-- Creator: CorelDRAW 2017 -->
<svg xmlns="http://www.w3.org/2000/svg" xml:space="preserve" width="102.51mm" height="16.02mm" version="1.1" style="shape-rendering:geometricPrecision; text-rendering:geometricPrecision; image-rendering:optimizeQuality; fill-rule:evenodd; clip-rule:evenodd"
viewBox="0 0 10251 1602"
 xmlns:xlink="http://www.w3.org/1999/xlink">
 <defs>
  <style type="text/css">
   <![CDATA[
    .fil3 {fill:#2C3238;fill-rule:nonzero}
    .fil5 {fill:#656D78;fill-rule:nonzero}
    .fil7 {fill:#D3745E;fill-rule:nonzero}
    .fil6 {fill:#E8E9EE;fill-rule:nonzero}
    .fil1 {fill:#ED8B6E;fill-rule:nonzero}
    .fil4 {fill:#EF4B4B;fill-rule:nonzero}
    .fil0 {fill:#FFA787;fill-rule:nonzero}
    .fil2 {fill:#FFCC66;fill-rule:nonzero}
   ]]>
  </style>
 </defs>
 <g id="Camada_x0020_1">
  <metadata id="CorelCorpID_0Corel-Layer"/>
  <path class="fil0" d="M831.38 1036.94c6.99,-7.73 13.46,-14.91 20.46,-22.66 17.99,13.25 35.28,25.98 53.72,39.56 7.64,-15.22 14.58,-28.98 21.44,-42.77 0.52,-1.05 1.11,-2.75 0.63,-3.5 -6.1,-9.74 0.46,-16.96 4.66,-24.7 0.94,-1.73 1.39,-3.74 2.48,-6.78 4.95,4.02 9.59,3.82 13.27,-1.96 7.43,8.26 15.22,14.07 15.56,25.11 0.17,5.52 -0.55,10.14 -6.15,11.83 -7.67,2.31 -10.55,8.2 -13.28,14.81 -6.23,15.13 -12.82,30.07 -19.27,45.09 -1.14,2.64 -1.99,5.44 -3.54,7.81 -7.05,10.7 -14.01,12.06 -24.46,4.79 -19.46,-13.56 -38.86,-27.19 -58.26,-40.83 -2.25,-1.58 -4.31,-3.43 -7.26,-5.8z"/>
  <path class="fil0" d="M637.4 975.28c5.97,0.69 10.75,1.24 15.88,1.82 1.86,3.48 4.59,7.6 6.33,12.1 1.39,3.59 3.31,8.5 1.93,11.36 -2.88,5.92 -0.59,10.11 1.82,14.84 6.08,11.97 12.09,23.96 18.73,37.14 18.16,-13.29 35.45,-25.95 53.69,-39.3 7.02,7.58 13.53,14.65 20.66,22.35 -3.57,2.81 -6.3,5.15 -9.21,7.2 -18.36,12.93 -37.18,25.24 -54.98,38.9 -10.83,8.29 -18.04,8.9 -27.65,-8.25 -5.35,-9.57 -8.84,-20.18 -13.17,-30.29 -3.05,-7.14 -5.69,-14.49 -9.35,-21.28 -2.18,-4.06 -5.37,-8.2 -9.18,-10.62 -9.36,-5.96 -11.76,-17.94 -4.36,-26.37 2.92,-3.33 6.01,-6.51 8.86,-9.6z"/>
  <path class="fil1" d="M737.19 1328.86c1.66,0 2.88,-0.08 4.08,0.01 12.83,1.09 20.83,6 24.48,20.25 4.23,16.59 9.73,32.71 10.19,50.05 0.11,4.13 0.84,7.97 -3.1,11.05 -6.29,4.94 -13.11,2.72 -14.57,-5.09 -0.38,-1.99 -0.52,-4.09 -0.35,-6.1 1.24,-14.17 -2.94,-26.39 -12.56,-36.92 -2.73,-2.99 -4.76,-6.61 -7.08,-9.98 -4.97,-7.16 -7.29,-14.53 -1.09,-23.27z"/>
  <path class="fil0" d="M814.62 1263.33c13.56,-1.92 26.02,-3.69 39.29,-5.57 0.6,3.52 1.41,6.14 1.45,8.78 0.42,31.48 1.35,62.98 0.77,94.44 -0.21,11.2 -2.7,22.91 -6.69,33.4 -10.17,26.72 -21.78,52.87 -32.82,79.25 -0.63,1.51 -1.14,3.17 -2.18,4.36 -1.23,1.41 -3.26,3.56 -4.41,3.27 -2.04,-0.52 -4.71,-2.31 -5.27,-4.14 -1.05,-3.39 -1.53,-7.32 -0.95,-10.81 2.36,-14.09 4.83,-28.16 7.97,-42.08 5.92,-26.35 11.52,-52.47 8.2,-79.94 -2.89,-23.93 -3.67,-48.09 -5.34,-72.14 -0.16,-2.41 -0.02,-4.83 -0.02,-8.82z"/>
  <path class="fil0" d="M729.4 1252.21c14.65,4.77 28.51,9.29 43.7,14.24 -0.96,9.85 -1.77,19.46 -2.86,29.05 -1.29,11.38 -2.46,22.79 -4.39,34.06 -1.09,6.36 -2.99,12.76 -5.66,18.63 -3.43,7.54 -11.23,10.95 -19.41,9.84 -7.75,-1.06 -11.06,-6.24 -12.26,-13.3 -0.68,-4 -1.68,-8.04 -1.65,-12.07 0.23,-24.12 0.69,-48.26 1.18,-72.39 0.05,-2.33 0.75,-4.63 1.35,-8.06z"/>
  <path class="fil2" d="M848.66 1167.37c5.72,21.59 16.01,42.7 16.77,66.42 0.19,5.72 0.6,11.43 1.01,17.12 0.68,9.7 -1.11,15.27 -9.75,17.33 -16.57,3.96 -33.59,6.21 -50.5,8.53 -2.15,0.29 -5.17,-2.96 -7.15,-5.15 -1.76,-1.93 -2.65,-4.67 -4.82,-8.76 -1.56,3.19 -2.55,4.72 -3.09,6.41 -2.01,6.22 -6.63,8.2 -12.47,7.13 -17.72,-3.31 -34.94,-8.21 -50.91,-16.93 -4.9,-2.67 -6.99,-6.11 -6.78,-11.76 0.56,-14.75 2.03,-29.32 6.82,-43.4 3.15,-9.27 6.21,-18.59 9.12,-27.93 1.37,-4.45 3.85,-6.75 8.74,-6.91 33.09,-0.94 66.16,-2.07 99.25,-3.09 0.77,-0.02 1.57,0.39 3.76,0.99z"/>
  <path class="fil3" d="M818.38 1470.93c-0.92,13.83 -1.68,26.84 -2.72,39.83 -0.43,5.51 -2.15,10.59 -8.36,12.23 -4.93,1.32 -10.56,-1.59 -13.43,-8.37 -2.15,-5.11 -3.18,-10.97 -3.41,-16.56 -0.39,-9.36 -0.25,-18.82 0.66,-28.13 0.58,-5.95 2.35,-11.99 4.8,-17.44 1.02,-2.28 5.29,-4.42 7.88,-4.2 1.64,0.14 4,4.66 4.15,7.32 0.43,7.6 2.73,13.46 10.43,15.32z"/>
  <path class="fil3" d="M757.46 1386.15c-1.04,16.83 -3.87,25.53 -0.32,35.28 0.39,4.72 1.9,9.07 7.37,10.47 4.33,1.13 9.28,-1.36 11.81,-7.16 1.89,-4.38 2.8,-9.4 3,-14.19 0.34,-8.02 0.22,-16.11 -0.58,-24.1 -0.51,-5.1 -2.07,-10.27 -4.23,-14.93 -0.89,-1.96 -1.1,-2.96 -3.38,-2.76 -1.44,0.11 1.97,14.81 -1.49,18.04 -4.26,10.65 -9.49,4.19 -12.18,-0.65z"/>
  <path class="fil1" d="M782.56 969.66c3.18,-0.19 5.19,-0.45 7.2,-0.43 20.02,0.27 20.46,0.26 21.41,20.2 0.4,8.46 6.73,12.56 10.96,18.61 -3.69,9.46 -12.05,13.17 -19.99,17.09 -1.89,0.94 -5.03,0.58 -7.1,-0.33 -6.34,-2.81 -12.55,-5.97 -18.58,-9.38 -4.06,-2.3 -6.39,-6.99 -2.98,-10.24 7.89,-7.55 6.78,-16.95 7.49,-26.17 0.21,-2.79 0.92,-5.55 1.59,-9.35z"/>
  <path class="fil0" d="M728.3 898.08c2.06,-9.9 3.41,-19.63 6.15,-28.94 5.59,-19 16.08,-34.78 33.01,-45.73 20.72,-13.42 45.49,-13.12 65.67,1.07 19.94,14.03 29.77,34.18 33.79,57.62 0.76,4.42 1.13,8.92 1.64,13.2 0.61,0.81 0.94,1.76 1.57,2.06 14.42,6.95 15.72,21.15 1.79,29.85 -7.11,4.42 -11.16,9.95 -14.56,17.12 -6.45,13.59 -16.07,24.67 -29.26,32.17 -20.7,11.79 -41.36,11.24 -61.55,-1.29 -9.91,-6.13 -17.87,-14.46 -23.34,-24.72 -4.79,-9 -8.77,-18.04 -19.86,-21.53 -3.33,-1.05 -6.09,-5.37 -8.15,-8.77 -6.3,-10.4 -2.18,-18.92 9.93,-21.38 1.14,-0.22 2.27,-0.51 3.17,-0.73z"/>
  <path class="fil4" d="M842.61 1041.84c-0.87,45.52 2.49,90.58 9.02,135.7 -8.02,7.22 -18.23,7.74 -27.57,9.33 -25.28,4.3 -50.54,1.59 -75.55,-2.99 -11.13,-2.03 -13.49,-6.3 -11.88,-17.3 4.27,-29.11 8.78,-58.17 12.59,-87.32 1.38,-10.47 0.81,-21.19 1.57,-31.77 0.41,-5.69 -3.17,-7.8 -7.13,-10.17 -6.95,-4.14 -14.49,-7.7 -18.25,-15.45 8.67,-16.73 32.12,-26.48 47.8,-19.7 4.02,1.74 7.42,4.95 11,7.64 10.26,7.75 20.78,7.84 29.84,-1.04 8.29,-8.12 17.3,-5.79 26.23,-3.79 9.15,2.06 15.49,8.76 20.8,16.16 2.73,3.81 0.81,7.25 -2.29,9.62 -4.83,3.68 -10.03,6.9 -16.18,11.08z"/>
  <path class="fil4" d="M639.45 907.89c1.52,26.12 4.01,52.17 6.45,78.2 0.26,2.82 3.39,5.24 4.16,8.13 0.86,3.18 1.11,6.86 0.4,10.02 -0.29,1.23 -4.72,2.94 -5.85,2.15 -2.6,-1.79 -6.07,-4.9 -6.16,-7.61 -1.23,-36.72 -9.58,-72.89 -7.17,-109.9 3.3,-50.59 2.38,-101.4 8.76,-151.86 10.03,-79.33 48.03,-139.69 110.99,-183.28 23.53,-16.28 49.81,-26.36 78.37,-24.66 41.83,2.5 74.53,21.75 93.99,62.18 16.9,35.1 25.71,72.67 30.89,111.38 6.34,47.36 1.86,93.62 -10.2,139.64 -9.67,36.93 -4.3,54.84 -2.58,96.28 5.74,16.07 11.17,32.38 9.43,50.14 -0.22,2.25 2.04,4.82 1.65,6.94 -0.53,2.84 -2.04,5.97 -4.08,7.86 -1.18,1.1 -5.36,0.83 -6.18,-0.35 -1.57,-2.26 -3.15,-6.35 -2.21,-8.41 4.78,-10.46 2.82,-20.86 0.28,-31.05 -3.56,-14.23 -3.85,-13.34 -7.08,-27.63 -6.13,-27.19 -4.15,-54.53 1.16,-81.57 7.39,-37.68 15.48,-75.17 15.23,-114.01 -0.17,-26.85 -6.16,-52.67 -10.88,-78.77 -4.09,-22.63 -11.75,-43.82 -20.7,-64.87 -18.25,-42.91 -68.03,-71.82 -116.92,-57.4 -41.67,12.29 -75.37,36.88 -101.51,72.78 -9.22,12.66 -17.44,26.15 -25.78,39.48 -14.47,23.14 -20.38,49.46 -24.4,76.22 -4.93,32.77 -7.79,65.77 -7.66,99 0.05,11.04 0.01,22.08 0.01,33.11 -0.86,0 -3.33,31.97 -2.41,47.86z"/>
  <path class="fil3" d="M722.79 851.57c-3.41,-1.76 -7.18,-3.32 -10.53,-5.51 -9.08,-5.91 -12.74,-15.94 -9.64,-25.52 3.15,-9.75 10.32,-14.82 21.32,-15.09 13.89,-0.33 15.58,0.29 28.25,10.26 8.54,-3.38 16.7,-7.02 25.16,-9.8 4.58,-1.49 9.67,-2.23 14.48,-2.05 12.6,0.49 25.25,1.21 37.75,2.77 5.48,0.69 10.66,3.67 17.04,6.01 6.26,-7.98 15.01,-11.76 26.12,-9.54 8.73,1.74 14.61,7.09 19.15,14.14 8.62,13.36 4.07,25.28 -13.91,35.05 -0.33,18.15 -0.65,37.08 -9.29,54.12 -1.25,-0.02 -2.49,-0.03 -3.74,-0.04 -1.27,-5.36 -2.12,-10.87 -3.9,-16.06 -3.67,-10.76 -7.49,-21.5 -11.94,-31.95 -2.7,-6.34 -8.12,-9.32 -15.2,-10.87 -9.92,-2.18 -19.33,-8.04 -29.19,-8.66 -9.35,-0.6 -18.95,3.8 -28.53,5.45 -8.28,1.41 -17.14,0.04 -23.27,8.26 -7.09,9.48 -11.19,19.9 -11.73,31.61 -0.37,8.03 -0.07,16.11 -0.07,24.1 -12.69,-2.86 -16.74,-15.11 -18.33,-56.68z"/>
  <path class="fil0" d="M197.74 929.97c-4.63,-2.15 -8.46,-3.92 -13.75,-6.38 3.01,-3.07 4.82,-4.86 6.58,-6.71 2.98,-3.14 7.08,-5.83 8.65,-9.58 3.28,-7.83 8.32,-10.34 16.63,-10.34 9.24,0 10.56,-2.18 11.01,-11.71 0.91,-19.12 1.95,-38.24 2.51,-57.37 0.79,-27.26 4.79,-54.01 12.88,-80.03 4.2,-13.5 5.86,-27.16 6.05,-41.22 0.46,-35.1 0.76,-70.21 2.07,-105.28 0.58,-15.02 3.05,-30.05 5.52,-44.94 2.47,-14.91 11.76,-25.73 24.46,-35.34 7.98,6.49 16.4,12.99 24.3,20.06 2.06,1.83 3.21,5.39 3.54,8.3 2.42,21.39 4.26,42.84 6.83,64.21 1.87,15.52 -3.12,30.03 -5.52,44.9 -5.58,34.61 -11.69,69.14 -17.68,103.68 -1.1,6.26 -2.39,12.52 -4.14,18.62 -9.96,34.86 -19.82,69.76 -30.34,104.46 -3.69,12.15 -3.56,24.34 -2.88,36.56 0.35,6.4 -0.12,11.73 -4.7,16.44 -1.65,1.69 -3.26,3.69 -4.12,5.85 -4.69,11.89 -15.83,11.2 -25.47,12.84 -2.55,0.44 -5.77,-1.96 -8.41,-3.51 -2.87,-1.69 -5.63,-3.69 -8.05,-5.95 -1.91,-1.79 -3.94,-3.97 -4.66,-6.35 -1.02,-3.35 -0.89,-7.05 -1.31,-11.21z"/>
  <path class="fil0" d="M491.52 522.45c18.06,12.04 26.24,29.11 27.27,48.91 2.28,44.18 3.62,88.43 4.79,132.66 0.43,16.47 2.17,32.46 7.05,48.29 7.44,24.1 11.05,48.94 11.89,74.18 0.67,19.93 1.68,39.86 2.61,59.77 0.48,10.24 1.67,11.93 12,11.89 7.33,-0.03 11.41,2.42 15.01,8.94 3.3,5.97 9.01,10.62 13.99,16.21 -0.95,5.82 -7.19,4.69 -11.55,7.67 -0.31,2.51 -0.67,5.6 -1.09,8.67 -0.61,4.46 -1.2,8.93 -7.18,9.28 -0.75,0.05 -1.96,0.28 -2.17,0.77 -5.7,13.03 -16.8,6.28 -25.81,7.05 -1.1,0.1 -2.82,-0.23 -3.31,-0.98 -6.87,-10.55 -19.32,-17.65 -17.44,-33.51 1.39,-11.66 0.81,-23.6 -2.82,-35.37 -9.04,-29.32 -16.95,-58.98 -25.82,-88.36 -5.55,-18.38 -8.88,-37.07 -11.81,-56.04 -5.48,-35.43 -12.71,-70.59 -18.71,-105.95 -1.38,-8.12 -1.52,-16.66 -0.87,-24.89 1.59,-19.87 4.18,-39.66 5.93,-59.51 0.45,-5.16 1.9,-8.95 6.11,-12.11 7.33,-5.5 14.34,-11.44 21.93,-17.57z"/>
  <path class="fil1" d="M334.58 511.8c2.28,-1.79 4.69,-4.29 7.62,-5.85 11.09,-5.91 16.68,-14.06 16.82,-27.49 0.26,-25.72 4.22,-20.93 21.51,-21.8 10.72,-0.55 21.49,-0.4 32.23,-0.18 10.13,0.2 12.38,2.78 12.47,13.08 0.02,2.38 0.07,4.79 -0.23,7.15 -1.89,14.68 5.53,23.99 17.39,31.02 2.46,1.46 6.06,4.27 5.86,6.1 -0.26,2.37 -3.46,5.01 -6,6.43 -14.52,8.19 -29.18,16.1 -43.89,23.94 -1.98,1.05 -4.83,2.16 -6.68,1.52 -20.26,-7.01 -40.74,-13.76 -55.8,-30.35 -0.48,-0.53 -0.55,-1.44 -1.3,-3.57z"/>
  <path class="fil0" d="M317.52 367c4.57,-17.13 7.7,-32.21 12.69,-46.65 5.35,-15.47 14.92,-28.54 28.07,-38.7 20.92,-16.16 46.65,-16.48 67.73,-0.45 21.24,16.14 31.1,38.93 36.48,64.14 1.16,5.49 1.9,11.08 2.8,16.45 13.16,6.68 16.59,13.59 15.26,30.41 -1,12.59 -6.75,19.42 -18.88,23.35 -6.51,13.92 -12.69,27.14 -18.88,40.35 -0.31,0.68 -0.71,1.32 -1.06,1.99 -9.83,18.41 -24.55,27.69 -45.93,24.72 -3.71,-0.51 -7.5,-0.38 -11.24,-0.69 -16.78,-1.39 -30.35,-8.12 -38.47,-23.57 -5.41,-10.3 -11.03,-20.52 -15.69,-31.15 -2.54,-5.79 -5.43,-9.65 -11.54,-12.46 -11.52,-5.29 -17.22,-15.12 -16.82,-28.13 0.34,-11.32 5.63,-18.45 15.48,-19.61z"/>
  <path class="fil5" d="M579.93 520.61c0.82,25.93 2.17,51.85 2.25,77.78 0.06,16.73 -1.86,33.44 -2.71,50.17 -1.43,27.9 -2.27,55.84 -4.17,83.7 -1.52,22.27 -4.26,44.45 -6.38,66.68 -0.52,5.56 -1.02,11.13 -1.05,16.71 -0.14,26.34 -0.05,52.69 -0.2,79.04 -0.04,6.76 -0.35,13.59 -1.18,20.3 -0.73,5.87 -4.35,8.53 -8.64,7.4 -4.41,-1.15 -6.85,-6.91 -4.97,-11.76 0.15,-0.37 0.23,-0.87 0.51,-1.06 10.13,-7.2 7.19,-17.68 6.32,-27.21 -3.91,-42.44 1.99,-84.49 4.5,-126.69 1.15,-19.51 2.09,-39.05 3.4,-58.55 1.47,-21.89 3.8,-43.73 4.72,-65.64 0.92,-21.9 0.88,-43.86 0.68,-65.78 -0.14,-15.15 -1.46,-30.29 -1.88,-45.44 -0.52,-18.73 0.17,-37.53 -1.1,-56.2 -3.12,-45.77 -7.33,-91.45 -10.59,-137.21 -3.04,-42.78 -12.36,-84.46 -22.61,-125.82 -9.4,-37.93 -25.61,-73.04 -54.11,-101.16 -20.69,-20.41 -44.22,-37.03 -71.39,-47.18 -16.04,-6 -33.56,-6.21 -50.78,-4.15 -3.56,0.43 -7.13,1.23 -10.69,1.22 -42.17,-0.08 -77.48,17 -108.31,44.22 -40.51,35.76 -70.04,79.44 -90.44,129.34 -8.55,20.91 -10.64,43.33 -14.26,65.32 -7.74,46.98 -11.06,94.41 -10,141.94 0.48,21.42 3.78,42.94 7.63,64.07 10.5,57.68 21.58,115.27 33.24,172.72 4.99,24.6 12.34,48.69 17.95,73.16 4.18,18.26 6.69,36.89 11,55.11 8.54,36.08 17.78,71.98 26.78,107.95 1.25,4.97 2.23,9.89 6.85,13.49 4.06,3.16 3.68,8.09 0.61,11.74 -1.41,1.68 -5.05,2.74 -7.29,2.26 -4.48,-0.99 -9.2,-4.41 -7.52,-9.13 4.88,-13.78 -1.67,-25.87 -4.7,-38.25 -9.46,-38.74 -20.01,-77.21 -29.75,-115.89 -7.59,-30.16 -14.05,-60.53 -19.31,-91.25 -5.71,-33.38 -15.04,-66.13 -21.06,-99.46 -7.7,-42.78 -15.43,-85.68 -19.76,-128.88 -2.84,-28.39 -0.57,-57.42 0.94,-86.09 2.18,-41.51 8.9,-82.45 18,-123.03 8.95,-39.92 29.54,-73.89 53.8,-105.87 14.99,-19.76 31.87,-38.02 52.03,-52.63 11.24,-8.14 23.26,-15.66 35.88,-21.32 27.08,-12.17 55.48,-20.02 85.51,-20.28 23.9,-0.21 46.72,3.52 67.88,15.79 21.19,12.3 41.46,25.72 57.67,44.27 25.91,29.66 43.48,63.91 52.75,102.15 3.65,15.06 5.22,30.62 8.08,45.9 1.9,10.16 5.08,20.12 6.55,30.34 4.4,30.8 9.65,61.56 11.97,92.54 3.77,50.11 5.48,100.37 8.05,150.57 -0.23,0.01 -0.46,0.03 -0.7,0.05z"/>
  <path class="fil0" d="M344.01 1446.27c-8.4,-96.14 -16.66,-190.59 -24.9,-284.9 9.36,-2.67 51.26,-2.23 64.39,0.75 0.26,4.23 1.09,8.89 0.74,13.47 -2.22,28.66 -0.6,57.27 0.38,85.96 1.54,44.98 2.68,90.07 -2.57,134.99 -1.58,13.45 -2.16,27.02 -3.3,40.52 -0.32,3.84 -1,7.66 -1.66,12.55 -11.3,-1.13 -21.48,-2.16 -33.08,-3.34z"/>
  <path class="fil0" d="M444.66 1446.29c-11.86,1.22 -21.67,2.23 -32.08,3.3 -0.96,-3.34 -2.15,-5.83 -2.36,-8.42 -2.44,-28.6 -5.82,-57.17 -6.77,-85.83 -1.06,-31.45 -0.75,-63.02 0.62,-94.47 1.24,-28.29 2.7,-56.5 0.37,-84.77 -0.38,-4.6 -0.06,-9.26 -0.06,-15.36 22.52,0 43.35,0 65.19,0 -8.28,94.9 -16.55,189.68 -24.91,285.55z"/>
  <path class="fil3" d="M295.87 896.2c59.14,0 118.41,0 179.33,0 1.09,11.7 3.13,23.44 3.11,35.16 -0.08,85.76 -0.2,171.52 -6.56,257.12 -0.67,9.04 -1.09,18.11 -1.7,28.3 -25.09,-1.2 -49.16,5.07 -74.42,-1.43 -1.38,-28.47 -2.76,-57.02 -4.13,-85.56 -0.5,0 -0.99,0 -1.48,0 0,28.34 0,56.68 0,84.75 -13.87,3.93 -51.46,3.15 -70.53,-1.16 -7.56,-29.91 -27.47,-295.21 -23.62,-317.18z"/>
  <path class="fil3" d="M459.26 373.36c-0.65,-4.19 -1.61,-8.36 -1.88,-12.58 -0.85,-13.53 -2.43,-26.9 -7.49,-39.59 -1.94,-4.87 -3.91,-9.86 -6.75,-14.21 -5.94,-9.08 -13.96,-14.58 -25.59,-12.27 -3.68,0.73 -7.52,0.81 -11.1,1.84 -6.44,1.84 -12.3,1.22 -18.32,-1.81 -7.96,-4 -16.67,-2.58 -24.19,0.36 -18.84,7.34 -31.05,17.37 -31.07,41.76 -0.01,9.76 0.46,19.54 0.6,29.29 0.04,2.83 -0.32,5.66 -0.51,8.54 -7.55,0.75 -9.4,-4.4 -10.4,-8.9 -5.13,-22.85 -7.82,-45.89 -3.44,-69.23 3.11,-16.61 13.65,-26.56 29.37,-30.48 19.76,-4.92 40.14,-6.53 60.34,-5.05 12.15,0.89 24.07,5.26 36.02,8.35 9.16,2.37 15.15,8.94 17.66,17.52 7.77,26.64 10.98,53.64 3.1,80.94 -0.57,1.99 -2.09,3.71 -3.16,5.56 -1.07,-0.01 -2.13,-0.02 -3.19,-0.04z"/>
  <path class="fil4" d="M411.35 1442.39c9.9,-0.73 18.58,-1.32 27.26,-2 4.98,-0.4 7.64,2.3 8.12,6.77 3.31,30.8 10.33,61.48 4.83,92.67 -1.72,9.73 -4.17,19.56 -13.13,25.93 -11.64,8.26 -23.06,5.31 -27.38,-8.26 -2.63,-8.22 -4.33,-17.21 -4.08,-25.78 0.88,-29.44 2.8,-58.84 4.38,-89.33z"/>
  <path class="fil4" d="M377.87 1441.52c0.58,11.57 1.04,21.47 1.56,31.36 0.8,15.12 2.05,30.22 2.33,45.34 0.2,10.7 -0.86,21.44 -1.44,32.15 -0.09,1.57 -0.55,3.14 -1.03,4.66 -2.39,7.63 -6.19,14.22 -15.02,15.06 -8.86,0.85 -15.81,-3.84 -19.76,-11.02 -3.56,-6.47 -6.17,-14.02 -7,-21.33 -1.86,-16.58 -3.31,-33.23 -0.31,-50 2.24,-12.53 3.2,-25.28 4.84,-37.93 1.09,-8.32 2.56,-9.59 10.55,-9.26 3.97,0.17 7.94,0.76 11.91,0.94 3.93,0.16 7.87,0.03 13.37,0.03z"/>
  <path class="fil6" d="M294.07 827.24c-3.29,-38.55 -6.48,-77.1 -9.91,-115.64 -1.74,-19.46 -3.39,-38.95 -6.03,-58.29 -4.41,-32.38 -9.67,-64.65 -14.39,-96.99 -2.76,-18.99 9.02,-36.73 28.42,-40.92 13.18,-2.83 26.83,-3.81 40.33,-4.81 3.47,-0.25 7.43,2.15 10.72,4.09 12.38,7.25 24.56,14.83 36.83,22.25 7.28,4.41 14.33,3.68 21.41,-0.72 12.19,-7.58 24.39,-15.18 36.83,-22.34 3.16,-1.82 7.33,-3.01 10.91,-2.77 8.73,0.63 17.45,1.93 26.06,3.56 22.96,4.35 34.92,22.46 31.15,45.33 -2.67,16.12 -3.96,32.47 -6.38,48.65 -2.72,18.13 -6.84,36.07 -8.89,54.28 -4.33,38.43 -7.18,77.03 -11.61,115.46 -3.91,33.88 -4.11,67.65 -1.02,101.53 0.65,7.14 0.49,14.36 0.55,21.54 0.06,6.68 -2.72,11.48 -9.4,13.63 -17.08,5.48 -33.95,11.42 -52.42,10.7 -11.51,-0.44 -23.08,0.6 -34.62,1.09 -23.98,1.04 -46.65,-5.06 -69.08,-12.52 -2.64,-0.88 -5.1,-2.52 -7.8,-3.01 -10.93,-2.01 -15.06,-8.56 -14.69,-19.39 0.53,-15.54 0.22,-31.11 0.5,-46.66 0.11,-5.97 0.83,-11.94 1.27,-17.9 0.42,-0.06 0.84,-0.1 1.26,-0.15z"/>
  <path class="fil3" d="M409.1 366.08c19.76,-15.13 29.76,-14.89 41.05,2.25 -4.88,-1.3 -8.07,-1.75 -10.92,-2.98 -5.34,-2.32 -10.21,-3.01 -15.75,0.05 -3.83,2.1 -8.45,4.3 -14.38,0.68z"/>
  <path class="fil3" d="M336.93 366.38c5.55,-8.86 13.59,-9.83 21.29,-10.2 7.29,-0.36 13.61,2.65 18.7,10.2 -13.65,0 -25.98,0 -39.99,0z"/>
  <path class="fil3" d="M362.68 391.48c-5.55,-1.44 -10.14,-1.87 -13.88,-3.9 -2.21,-1.18 -3.85,-4.8 -4.13,-7.49 -0.11,-1.12 4.07,-3.89 6.18,-3.76 4.66,0.24 9.54,1.21 13.71,3.18 2.26,1.06 4.68,5 4.36,7.27 -0.27,1.96 -4.32,3.38 -6.24,4.7z"/>
  <path class="fil3" d="M424.3 392.23c-2.41,-1.89 -5.67,-3.25 -6.53,-5.52 -0.59,-1.56 1.66,-5.66 3.51,-6.39 4.98,-1.94 10.39,-3.07 15.72,-3.66 1.57,-0.17 4.49,2.26 4.92,3.97 0.42,1.66 -1.05,4.92 -2.6,5.73 -4.44,2.31 -9.34,3.73 -15.02,5.87z"/>
  <path class="fil7" d="M368.05 445.14c10.34,1.33 18.34,3.08 26.37,3.2 8.13,0.13 16.29,-1.34 24.62,-1.09 -7.89,8.63 -18.54,5.95 -28.21,6.32 -7.5,0.27 -15.69,0.92 -22.78,-8.43z"/>
  <path class="fil3" d="M769.09 925.67c-4.18,-0.53 -6.47,-0.6 -8.64,-1.15 -6.42,-1.66 -11.37,-7.07 -9.69,-11.05 2.54,-6.07 8.07,-4.51 12.9,-3.96 2.21,0.24 5.07,0.45 6.37,1.84 2.49,2.69 5.25,6.11 5.54,9.43 0.14,1.67 -4.9,3.77 -6.48,4.89z"/>
  <path class="fil7" d="M775.59 957.13c14.53,0 27.66,0 41.94,0 -4.5,11.13 -13.93,9.25 -21.04,9.9 -7.75,0.69 -15.85,-1.21 -20.9,-9.9z"/>
  <path class="fil3" d="M826.99 925.62c-1.05,-0.77 -4.85,-2.23 -5.92,-4.81 -0.68,-1.62 2.23,-5.62 4.46,-7.36 5.51,-4.35 15.45,-5.05 19.28,-1.72 1.14,1 2,3.18 1.8,4.67 -0.55,4.18 -9.75,8.88 -19.62,9.22z"/>
  <path class="fil3" d="M777 893.76c-11.28,0.72 -20.51,1.32 -29.68,1.9 9.15,-10.93 17.01,-11.9 29.68,-1.9z"/>
  <path class="fil7" d="M405.58 424.51c-2.44,8.77 -9.33,5.2 -14.39,5.8 -4.3,0.51 -7.83,-0.56 -7.79,-6.89 7.36,0.36 14.51,0.71 22.18,1.09z"/>
  <path class="fil3" d="M816.52 896.55c9.9,-11.58 18.19,-11.66 29.98,0 -10.2,0 -20.04,0 -29.98,0z"/>
  <path class="fil7" d="M805.84 938.18c-5.95,7.49 -11.24,7.3 -18.28,0 7.69,0 12.98,0 18.28,0z"/>
 </g>
</svg>
