<?xml version="1.0" encoding="UTF-8"?>
<!DOCTYPE svg PUBLIC "-//W3C//DTD SVG 1.1//EN" "http://www.w3.org/Graphics/SVG/1.1/DTD/svg11.dtd">
<!-- Creator: CorelDRAW 2017 -->
<svg xmlns="http://www.w3.org/2000/svg" xml:space="preserve" width="945px" height="413px" version="1.1" style="shape-rendering:geometricPrecision; text-rendering:geometricPrecision; image-rendering:optimizeQuality; fill-rule:evenodd; clip-rule:evenodd"
viewBox="0 0 945 413.44"
 xmlns:xlink="http://www.w3.org/1999/xlink">
 <defs>
  <style type="text/css">
   <![CDATA[
    .str0 {stroke:#D7263D;stroke-width:2.36;stroke-miterlimit:22.9256}
    .fil5 {fill:none;fill-rule:nonzero}
    .fil2 {fill:#D36135}
    .fil1 {fill:#FCC351}
    .fil3 {fill:#D7263D;fill-rule:nonzero}
    .fil4 {fill:#FCC351;fill-rule:nonzero}
    .fil0 {fill:url(#id0)}
   ]]>
  </style>
  <linearGradient id="id0" gradientUnits="userSpaceOnUse" x1="88.43" y1="145.81" x2="388.9" y2="145.81">
   <stop offset="0" style="stop-opacity:1; stop-color:#D7263D"/>
   <stop offset="1" style="stop-opacity:1; stop-color:#D36135"/>
  </linearGradient>
 </defs>
 <g id="Camada_x0020_1">
  <metadata id="CorelCorpID_0Corel-Layer"/>
  <path class="fil0" d="M288.22 276.87l34.85 -36.39c2.44,-2.83 4.43,-5.11 6.82,-7.83 19.42,-22.11 44.49,-60.22 54.05,-91.14 10.7,-34.61 3.45,-67.8 -15.63,-89.85 -19.92,-23.03 -46.4,-36.74 -79.04,-36.91 -39.52,-0.22 -74.95,21.57 -91.4,54.19l-55.37 0c-9.72,0 -17.68,7.95 -17.68,17.68l0 0c0,9.73 7.96,17.68 17.68,17.68l45.81 0 2.56 0c9.73,0 17.69,7.96 17.69,17.68l0 0c0,9.1 -6.96,16.64 -15.81,17.58l0.03 0.11 -86.67 0c-9.72,0 -17.68,7.95 -17.68,17.68l0 0c0,9.72 7.96,17.68 17.68,17.68l101.54 0 8.35 0 12.11 0c9.72,0 17.68,7.96 17.68,17.68l0 0c0,9.14 -7.02,16.71 -15.94,17.6l0.07 0.08 -72.56 0c-9.73,0 -17.69,7.96 -17.69,17.68l0 0c0,9.73 7.96,17.69 17.69,17.69l101.04 0c0.47,0.55 0.93,1.11 1.39,1.68l28.43 29.43z"/>
  <circle class="fil1" cx="288.52" cy="111.18" r="46.42"/>
  <path class="fil2" d="M267.69 124.98l0.49 -3.14c0.38,-0.22 0.49,0.12 0.94,-0.01 0.07,-2.78 -0.34,-2.66 -0.49,-3.82 -0.34,-2.52 0.42,1.3 0.08,-3.38 -0.06,-0.84 0.18,-2.19 0.19,-2.65 0.05,-1.49 -0.91,-3.25 -0.99,-4.49 -0.2,-2.95 -0.66,-1.46 -1.15,-4.38 2.14,1.85 5.6,12.18 6.45,13.4l2.68 7.94c0.66,2.66 1.56,5.53 2.25,8.21 0.73,2.87 1.19,5.48 1.84,8.42l0.19 1.33c0.81,1.66 1.79,10.06 2.21,14.8 1.81,0.2 3.55,0.35 5.6,0.4 2.05,0.04 3.41,0 5.46,-0.26 0.82,-5 1.78,-11.06 3.1,-14.62l1.55 -6.2c0.38,-0.45 1.41,-4.27 1.84,-5.41 0.4,-1.06 2.02,-4.72 2.09,-5.6 0.69,-1.05 1.28,-2.74 1.88,-4.1 0.69,-1.58 1.58,-2.96 2.09,-4.41 0.41,-0.54 1.13,-1.91 1.58,-2.71 0.77,-1.36 0.94,-1.97 1.99,-2.69 -0.03,0.15 -2.13,5.75 -2.2,7.61 -0.03,0.69 0.21,1.34 0.2,2.28 -0.02,1.33 -0.51,1.42 -0.28,2.45 0.56,2.51 -0.26,1.66 -0.15,3.11 0.15,1.9 -0.24,0.72 0.67,1.39 0.09,-0.45 -0.51,-0.25 0.35,-0.42 0.13,2.14 1.83,7.43 2.94,8.7 4.91,-7.11 0.59,-8.8 3.39,-9.9l-0.3 -3.7 1 -0.32c-0.21,-1.08 -0.53,-2.01 -0.75,-2.99 -0.82,-3.61 0.84,1.71 -0.38,-4.15 -0.09,-0.44 -0.1,-0.16 -0.07,-0.7 0.12,-2.38 -0.32,1.67 0.15,-0.61 0.01,-0.06 0.05,-0.15 0.06,-0.2 0.15,-0.95 -0.31,-1.36 -0.6,-2.38 0.68,0.67 1.86,2.13 2.77,2.66 0.03,0.02 0.12,0.05 0.15,0.07 1.44,0.84 2.5,3.73 4.04,5.77l0.66 1c2.72,4.24 2.34,6.94 3.03,8 2.61,-4.81 1.81,-13.04 -3.72,-17.45 -0.94,-0.75 -3.56,-2.81 -4.58,-3.2 2.19,-0.24 9.31,2.46 11.46,3.49 2.74,1.3 4.12,3.47 5.26,4.07 0.01,-4.3 -3.67,-7.41 -6.53,-8.99 -3.92,-2.15 -8.67,-2.72 -13.68,-2.39 -0.02,-7.26 1.21,-6.96 -2.36,-12.92 -2.3,-3.85 -6.2,-4.89 -11.75,-4.77l1.06 0.78c5.87,3.28 3.14,2.41 6.37,6.35 0.51,0.62 1.06,1.29 1.32,2.01 0.4,1.13 -0.41,-0.34 0.47,1.1l1.51 3.04c0.44,0.97 0.46,2.36 0.47,3.47 -2.68,-1.19 -4.95,-4.09 -10.93,-5.7 -4.54,-1.23 -8.32,-1.18 -11.91,1.8 -0.76,0.63 -0.68,0.39 -1.04,1.2 7.01,0.28 8.82,-0.12 14.77,2.34 2.1,0.86 -0.42,0.17 3.56,1.65l0.45 0.2c1.91,0.81 1.72,0.35 3.05,1.32 -4.96,0.06 -7.88,-0.14 -12.06,2.02 -2.46,1.27 -6.5,4.37 -6.74,7.46l-0.46 1.04c-0.04,0.12 -0.23,0.99 -0.25,1.04 -0.11,1.67 -0.29,3.88 0.34,5.36l1 -1.8c0.48,-1.2 0.22,-1.2 1.14,-1.84l0.45 -0.45c3.39,-3.78 1.99,-0.29 3.24,-3.1 2.81,-0.8 0.67,-0.71 2.96,-2.12 1.56,-0.96 0.07,0.56 3.22,-1.68 2.15,-1.53 4.25,-3.31 7.63,-3.54 -0.59,1.21 -2.71,3.22 -4.36,6.69l-1.66 3.35c-0.51,1.07 -0.93,2.04 -1.45,3.03l-0.23 0.64c-0.75,1.46 -1.07,3.67 -2.33,4.79 -0.08,1.33 -1.73,5.16 -2.47,6.35 -0.29,1.49 -0.77,2.2 -0.95,3.17 -0.14,0.23 -0.27,0.45 -0.42,0.68 -0.03,0.05 -0.14,0.27 -0.16,0.22 -0.03,-0.06 -0.12,0.14 -0.17,0.21 0.02,1.1 -0.52,2.12 -0.83,3.23 -1.23,1.68 -4.34,13.38 -4.74,14.29l-0.23 0.48c-0.49,-4.09 -2.24,-11.26 -3.58,-14.77 -0.79,-2.92 -1.8,-5.83 -2.68,-8.73l-1.98 -6.18c-0.16,-0.49 -0.3,-1.01 -0.53,-1.47 -0.27,-0.55 -0.13,-0.33 -0.43,-0.69 0.01,-1.08 -0.9,-3.25 -1.39,-4.13l-0.67 -2.7c-0.05,-0.07 -0.12,-0.16 -0.15,-0.2l-0.61 -0.86c-0.03,-0.14 -0.1,-0.16 -0.16,-0.23 -0.03,-1.71 -3.89,-9.87 -5.19,-12.28 -0.82,-1.53 -1.64,-2.31 -2.3,-3.73 2.9,0.29 4.57,1.68 6.24,3.05 3.45,2.84 1.52,1.55 3.77,2.59l4.4 3.99c2.07,1.13 0.87,0.97 2.16,2.17 1.32,1.21 1.71,2.06 2.13,4.76 1.75,-1.8 1.22,-9.73 -3.55,-14.57 -3.84,-3.89 -7.68,-4.82 -14.7,-4.63 0.85,-0.85 3.32,-1.63 4.62,-2.16 0.8,-0.32 1.64,-1.34 4.36,-2.48 3.66,-1.54 7.92,-1.39 12.19,-1.6 -0.47,-1.29 -3,-3.12 -4.64,-3.69 -8.27,-2.83 -17.15,6.14 -18.5,6.74 0,-2.62 0.02,-3.08 1.03,-4.88 0.86,-1.54 0.05,0.1 0.21,-1.02 0.23,-1.57 3.75,-6.92 3.87,-7.2 0.04,-0.08 0.5,-2.24 3.42,-4.17 0.87,-0.56 1.83,-0.91 2.49,-1.57 -5.2,-0.16 -9.19,0.84 -11.5,5.3 -3.23,6.21 -2.68,6.96 -2.3,14.59 -5.5,-0.31 -9.61,0.3 -13.53,2.89 -2.48,1.63 -6.34,5.23 -6.07,9.93 1.09,-0.84 1.88,-2.28 2.85,-3.03l3.98 -2.54c1.21,-0.69 7.76,-3 9.28,-3.02 -3.09,2.75 -6.21,4.31 -8,8.87 -1.36,3.45 -2.06,11.5 0.17,14.57 0.49,-2.32 0.47,-3.95 1.42,-6.1l1.9 -4c1.26,-1.97 2.81,-5.48 3.74,-6.29 0.03,-0.03 0.11,-0.08 0.14,-0.1 1.09,-0.82 1.93,-2.08 2.89,-3.29 -0.12,0.95 -0.2,0.64 -0.39,1.43 -0.57,2.47 -0.09,0.75 0.09,1.55 0.22,1 -0.31,2 -0.54,3.19 -0.49,2.59 0.76,-0.34 0.07,2.95 -0.26,1.25 -0.52,2.21 -0.73,3.49l1.01 0.33 -0.77 3.91c0.11,0.03 0.21,-0.02 0.22,0.04 0.23,0.77 -0.12,-0.5 1,0.3 -0.01,3.18 0.07,7.45 2.26,10.29 0.33,0.42 0.16,0.23 0.51,0.53l2.2 -6.37z"/>
  <circle class="fil1" cx="101.13" cy="229.16" r="6.32"/>
  <circle class="fil1" cx="63.91" cy="155.79" r="16.08"/>
  <circle class="fil1" cx="121.53" cy="229.16" r="10.94"/>
  <circle class="fil1" cx="31.63" cy="155.79" r="10.94"/>
  <circle class="fil1" cx="11.23" cy="155.79" r="6.32"/>
  <circle class="fil1" cx="110.59" cy="84.82" r="6.32"/>
  <path class="fil3" d="M592.44 391.56c-1.43,-0.48 -2.15,-1.34 -2.15,-2.62 0,-1.44 0.39,-2.96 1.2,-4.54 1.1,-1.58 2.62,-2.66 4.53,-3.22 1.91,-0.57 3.73,-0.69 5.49,-0.36 5.58,1.58 11.19,2.86 16.83,3.82 5.64,0.95 11.43,1.76 17.31,2.39 -1.76,-4.15 -2.89,-8.96 -3.46,-14.45 -0.57,-5.49 -0.75,-10.71 -0.6,-15.63 0.15,-5.73 0.63,-11.55 1.44,-17.43 1.28,-12.26 3.61,-24.32 7.04,-36.17 3.43,-11.84 7.19,-22.91 11.34,-33.18 4.14,-10.26 8.23,-19.36 12.29,-27.33 4.06,-7.97 7.37,-14.18 9.91,-18.62 -3.49,0.32 -6.72,0.62 -9.67,0.95 -2.95,0.33 -5.94,0.72 -8.95,1.2 -3.02,0.47 -6.21,1.07 -9.55,1.79 -3.34,0.71 -7.16,1.55 -11.46,2.5 -0.63,0.15 -1.52,0.24 -2.63,0.24 -1.58,-0.33 -3.13,-0.83 -4.65,-1.55 -1.52,-0.72 -2.89,-1.55 -4.18,-2.51 -1.1,-0.95 -1.46,-2.09 -1.07,-3.43 0.38,-1.34 1.31,-2.27 2.74,-2.74 9.88,-2.84 20.03,-4.87 30.44,-6.15 10.41,-1.25 21.52,-1.73 33.3,-1.4 8.6,0.47 16.23,1.34 22.92,2.59 2.86,0.48 5.64,1.14 8.35,1.91 2.72,0.81 5.11,1.73 7.17,2.87 2.05,1.1 3.73,2.41 5.01,3.91 1.28,1.52 1.82,3.22 1.67,5.13 -0.33,3.19 -1.52,5.94 -3.58,8.23 -2.06,2.3 -4.51,4.27 -7.28,5.85 -2.78,1.58 -5.52,2.87 -8.24,3.82 -2.71,0.96 -4.86,1.58 -6.44,1.91 -0.81,0.33 -1.53,0.27 -2.15,-0.12 -0.63,-0.38 -0.96,-0.98 -0.96,-1.79 -0.32,-1.28 -0.24,-2.47 0.24,-3.58 0.48,-1.1 1.34,-1.67 2.63,-1.67 1.1,-0.15 2.71,-0.48 4.77,-0.95 2.06,-0.48 4.21,-1.2 6.45,-2.15 2.24,-0.96 4.3,-2.18 6.2,-3.7 1.91,-1.52 3.26,-3.46 4.06,-5.85 0.33,-0.96 -0.03,-1.82 -1.07,-2.63 -1.05,-0.8 -2.48,-1.43 -4.3,-1.91 -1.82,-0.47 -4.03,-0.83 -6.56,-1.07 -2.54,-0.24 -5.11,-0.45 -7.64,-0.6 -6.21,-0.33 -13.37,-0.33 -21.49,0 -0.47,0.12 -1.34,0.18 -2.62,0.18 -6.06,11.46 -11.34,22.44 -15.88,32.94 -4.53,10.51 -8.23,19.82 -11.1,27.94 -3.49,9.54 -6.35,18.47 -8.59,26.73 -3.67,15.61 -5.76,28.2 -6.33,37.84 -0.57,9.64 -0.33,17.22 0.72,22.8 1.04,5.58 2.53,9.46 4.53,11.7 2,2.23 3.79,3.58 5.37,4.05 0.15,0.15 0.27,0.24 0.36,0.24 0.09,0 0.21,0.09 0.36,0.24 7.79,0 15.52,-0.36 23.16,-1.07 7.64,-0.72 15.27,-1.88 22.91,-3.46 2.54,-0.48 4.3,0.38 5.26,2.62 0.47,0.96 0.47,1.82 0,2.63 -0.48,0.8 -1.11,1.34 -1.91,1.67 -18.3,4.62 -36.92,7.19 -55.87,7.76 -18.94,0.56 -37.47,-1.64 -55.62,-6.57z"/>
  <path id="1" class="fil3" d="M665.73 376.76c-6.21,0 -9.64,-4.09 -10.26,-12.29 -0.63,-8.21 0.71,-19.55 4.05,-34.02 4.45,-17.19 8.99,-32.95 13.61,-47.27 1.91,-6.06 3.97,-12.08 6.21,-18.14 2.24,-6.06 4.44,-11.67 6.68,-16.83 2.24,-5.16 4.51,-9.64 6.81,-13.37 2.29,-3.73 4.5,-6.33 6.56,-7.76 3.19,-2.24 5.28,-2.06 6.33,0.48 1.04,2.54 1.28,6.56 0.71,12.06 -0.56,5.49 -1.82,12.02 -3.82,19.57 -2,7.55 -4.53,15.31 -7.64,23.28 -3.1,7.96 -6.68,15.66 -10.74,23.15 -4.06,7.49 -8.32,13.94 -12.77,19.34 -0.33,1.58 -0.6,2.98 -0.83,4.18 -0.24,1.19 -0.51,2.17 -0.84,2.98 -0.33,0.95 -0.57,1.82 -0.72,2.63 -0.47,2.38 -1.07,5.34 -1.79,8.83 -0.71,3.49 -1.22,6.92 -1.55,10.26 -0.33,3.35 -0.45,6.21 -0.36,8.6 0.09,2.38 0.75,3.73 2.03,4.06 1.29,0.32 2.75,-0.27 4.42,-1.79 1.67,-1.53 3.31,-3.38 4.89,-5.61 1.58,-2.24 3.02,-4.54 4.3,-6.93 1.28,-2.38 2.24,-4.44 2.86,-6.2 0.33,-0.81 0.84,-1.29 1.56,-1.44 0.71,-0.15 1.31,0.15 1.79,0.96 0.14,0.33 0.32,0.59 0.47,0.83 0.15,0.24 0.33,0.51 0.48,0.84 0.15,0.81 0.15,1.52 0,2.15 -0.33,1.28 -1.16,3.37 -2.51,6.32 -1.34,2.96 -3.07,6 -5.13,9.19 -2.06,3.2 -4.38,5.97 -6.92,8.36 -2.54,2.39 -5.16,3.58 -7.88,3.58zm35.09 -141.8c-2.06,3.34 -4.2,7.79 -6.44,13.37 -2.24,5.58 -4.42,11.61 -6.57,18.14 -2.15,6.54 -4.21,13.28 -6.2,20.29 -2,7.01 -3.79,13.61 -5.38,19.82 6.06,-11.46 10.72,-21.64 13.97,-30.56 3.25,-8.92 5.7,-16.38 7.28,-22.44 1.76,-7.16 2.87,-13.37 3.34,-18.62z"/>
  <path id="2" class="fil3" d="M682.2 378.91c-0.62,-0.48 -0.95,-1.28 -0.95,-2.39 0,-1.58 0.12,-4.32 0.36,-8.23 0.23,-3.91 0.74,-9.1 1.55,-15.64 0.8,-6.54 1.91,-14.47 3.34,-23.87 1.43,-9.4 3.43,-20.29 5.97,-32.71 2.53,-13.22 5.64,-25.06 9.31,-35.57 3.67,-10.5 7.43,-19.33 11.34,-26.5 3.91,-7.16 7.76,-12.53 11.58,-16.11 3.81,-3.58 7.25,-4.98 10.26,-4.18 1.91,0.48 3.01,2.75 3.34,6.81 0.33,4.06 -0.12,9.1 -1.31,15.16 -1.19,6.05 -3.01,12.77 -5.49,20.17 -2.48,7.4 -5.4,14.77 -8.83,22.08 -3.44,7.31 -7.26,14.23 -11.46,20.77 -4.21,6.53 -8.63,11.93 -13.25,16.23 -0.81,5.25 -1.58,10.74 -2.39,16.47 -0.8,5.73 -1.52,11.61 -2.15,17.67 2.24,-4.78 4.9,-9.67 8,-14.68 3.1,-5.01 6.71,-9.43 10.86,-13.25 1.43,-1.43 3.13,-2.18 5.13,-2.27 2,-0.09 3.79,0.6 5.38,2.03 0.95,0.81 1.28,1.82 0.95,3.1 -1.1,4.15 -2.24,8.69 -3.34,13.61 -1.1,4.92 -2,9.58 -2.63,13.97 -0.62,4.38 -0.86,8.08 -0.71,11.1 0.15,3.01 0.95,4.62 2.38,4.77 1.29,0.15 2.63,-0.57 4.06,-2.15 1.43,-1.58 2.75,-3.55 3.94,-5.85 1.19,-2.29 2.3,-4.68 3.34,-7.16 1.05,-2.47 1.88,-4.56 2.51,-6.32 0.33,-0.81 0.84,-1.29 1.55,-1.44 0.72,-0.15 1.31,0.15 1.79,0.96 0.33,0.48 0.63,1.04 0.96,1.67 0.15,0.81 0.15,1.52 0,2.15 -0.33,1.28 -0.99,3.43 -2.03,6.44 -1.05,3.02 -2.39,6.09 -4.06,9.19 -1.67,3.11 -3.67,5.85 -5.97,8.24 -2.3,2.39 -4.8,3.58 -7.52,3.58 -3.19,0 -5.49,-1.31 -6.92,-3.94 -1.43,-2.62 -2.36,-5.94 -2.75,-9.9 -0.38,-3.97 -0.32,-8.39 0.24,-13.25 0.57,-4.87 1.31,-9.52 2.27,-13.97 -3.34,4.45 -6.77,10.3 -10.27,17.55 -3.49,7.25 -6.59,16.02 -9.31,26.38 0,0.62 -0.38,1.1 -1.19,1.43 -0.95,0.15 -2.18,0.12 -3.7,-0.12 -1.52,-0.24 -2.89,-0.93 -4.18,-2.03zm49.42 -157.56c-0.81,0 -2.3,1.67 -4.54,5.02 -2.24,3.34 -4.86,8.35 -7.87,15.03 -3.02,6.69 -6.21,15.02 -9.55,24.95 -3.35,9.94 -6.36,21.61 -9.08,34.98 2.87,-3.83 6.21,-8.81 10.03,-14.93 3.82,-6.11 7.25,-13.16 10.27,-21.12 2.86,-7.64 5.13,-14.24 6.8,-19.82 1.67,-5.58 2.86,-10.14 3.58,-13.72 0.72,-3.58 1.07,-6.21 1.07,-7.88 0,-1.67 -0.23,-2.51 -0.71,-2.51z"/>
  <path id="3" class="fil3" d="M743.55 380.1c-4.62,-0.62 -7.84,-3.07 -9.66,-7.28 -1.82,-4.21 -2.84,-9.04 -2.99,-14.44 -0.15,-5.4 0.36,-10.83 1.55,-16.23 1.2,-5.41 2.42,-9.79 3.7,-13.13 1.11,-3.02 2.72,-6.24 4.78,-9.67 2.06,-3.43 4.42,-6.48 7.04,-9.19 2.63,-2.72 5.52,-4.69 8.71,-5.97 3.2,-1.28 6.54,-1.34 10.03,-0.24 1.58,0.63 2.86,1.67 3.82,3.1 0.81,1.29 1.31,2.96 1.55,5.02 0.24,2.06 -0.21,4.92 -1.31,8.59 -1.58,4.3 -3.67,8.03 -6.21,11.22 -2.24,2.72 -5.13,5.22 -8.71,7.52 -3.58,2.3 -8.15,3.37 -13.73,3.22 -0.48,2.24 -0.92,4.99 -1.31,8.24 -0.39,3.25 -0.6,6.53 -0.6,9.79 0,3.25 0.36,6.08 1.08,8.47 0.71,2.39 1.94,3.82 3.7,4.3 2.71,0.8 5.16,0.74 7.4,-0.12 2.24,-0.87 4.2,-1.94 5.97,-3.22 1.91,-1.58 3.73,-3.44 5.49,-5.49 0.95,-1.11 2.05,-2.54 3.34,-4.3 1.28,-1.76 2.47,-3.55 3.58,-5.37 1.1,-1.82 2.15,-3.61 3.1,-5.37 0.96,-1.76 1.67,-3.11 2.15,-4.06 0.33,-0.81 0.87,-1.23 1.67,-1.32 0.81,-0.08 1.34,0.21 1.67,0.84 0.33,0.63 0.57,1.19 0.72,1.67 0,0.33 -0.15,0.96 -0.48,1.91 -0.33,0.63 -0.83,1.7 -1.55,3.22 -0.72,1.53 -1.64,3.26 -2.75,5.26 -1.1,2 -2.29,4.03 -3.58,6.08 -1.28,2.06 -2.62,4.06 -4.06,5.97 -1.9,2.54 -4.05,4.69 -6.44,6.45 -2.24,1.58 -4.8,2.89 -7.76,3.94 -2.95,1.04 -6.24,1.22 -9.91,0.59zm1.44 -47.03c0,0.33 -0.09,0.63 -0.24,0.96 -0.15,0.33 -0.27,0.63 -0.36,0.95 -0.09,0.33 -0.27,0.72 -0.6,1.2 3.2,-0.33 6.48,-1.4 9.91,-3.22 3.43,-1.82 6.33,-4.9 8.71,-9.2 1.44,-2.71 2.3,-4.86 2.63,-6.44 0.33,-1.58 0.33,-2.87 0,-3.82 -0.33,-1.1 -0.87,-2 -1.67,-2.63 -0.96,0 -2.03,0.12 -3.22,0.36 -1.2,0.24 -2.54,1.05 -4.06,2.39 -1.52,1.34 -3.2,3.55 -5.02,6.56 -1.82,3.02 -3.85,7.31 -6.08,12.89zm24.76 -35.09c-0.8,-0.15 -2,-0.86 -3.58,-2.15 -1.58,-1.28 -3.19,-2.59 -4.77,-3.93 -1.58,-1.35 -2.84,-2.6 -3.7,-3.7 -0.87,-1.11 -0.93,-1.68 -0.12,-1.68 4.63,0.63 7.91,0.84 9.91,0.6 2,-0.24 3.79,-0.21 5.37,0.12 1.43,0.48 2.53,1.4 3.34,2.75 0.8,1.34 1.04,2.83 0.72,4.41 -0.48,1.43 -1.41,2.54 -2.75,3.34 -1.34,0.81 -2.83,0.87 -4.42,0.24z"/>
  <path id="4" class="fil3" d="M813.14 376.76c-4.15,0 -6.95,-2.18 -8.47,-6.56 -1.52,-4.39 -2.12,-9.58 -1.79,-15.64 -2.39,6.21 -4.99,11.73 -7.79,16.59 -2.81,4.87 -5.7,7.67 -8.74,8.48 -2.72,0.62 -4.87,0.15 -6.45,-1.44 -0.96,-0.8 -1.7,-1.79 -2.27,-2.98 -0.56,-1.19 -0.98,-2.36 -1.31,-3.46 -0.48,-1.29 -0.72,-2.54 -0.72,-3.82 -0.47,-3.82 -0.47,-8.21 0,-13.13 0.48,-4.93 1.2,-9.79 2.15,-14.56 0.96,-4.78 2.03,-9.19 3.22,-13.25 1.2,-4.06 2.27,-7.19 3.23,-9.43 0.32,-0.63 0.8,-1.29 1.43,-1.91 0.66,-0.48 1.52,-0.96 2.63,-1.43 1.13,-0.48 2.56,-0.87 4.32,-1.2 0.81,-0.15 1.4,0 1.79,0.48 0.39,0.48 0.45,1.04 0.12,1.67 -0.8,1.76 -1.7,4.3 -2.74,7.64 -1.05,3.34 -2.09,6.95 -3.14,10.86 -1.01,3.91 -1.94,7.88 -2.74,11.94 -0.81,4.06 -1.28,7.61 -1.43,10.62 -0.15,2.72 -0.21,5.04 -0.12,7.04 0.09,2 0.12,3.85 0.12,5.61 0.47,0.81 1.31,0.39 2.5,-1.19 1.2,-1.58 2.6,-3.85 4.21,-6.8 1.58,-2.96 3.31,-6.33 5.13,-10.15 1.85,-3.82 3.55,-7.55 5.17,-11.22 1.58,-3.67 3.01,-6.92 4.29,-9.79 1.29,-2.86 2.15,-4.92 2.63,-6.2 1.43,-5.26 2.77,-9.08 4.06,-11.46 0.32,-0.63 0.8,-1.29 1.43,-1.91 0.62,-0.48 1.52,-0.99 2.62,-1.55 1.11,-0.57 2.54,-0.99 4.3,-1.32 0.63,0 1.2,0.24 1.67,0.72 0.48,0.48 0.57,0.95 0.24,1.43 -0.8,1.91 -1.67,4.66 -2.62,8.24 -0.96,3.58 -1.94,7.52 -2.99,11.81 -1.04,4.3 -1.94,8.69 -2.74,13.13 -0.81,4.45 -1.35,8.51 -1.68,12.18 -0.32,3.67 -0.35,6.68 -0.11,9.07 0.23,2.39 0.92,3.58 2.02,3.58 1.29,0.15 2.63,-0.57 4.06,-2.15 1.44,-1.58 2.75,-3.55 3.94,-5.85 1.19,-2.29 2.3,-4.68 3.34,-7.16 1.05,-2.47 1.79,-4.56 2.27,-6.32 0.33,-0.81 0.87,-1.29 1.67,-1.44 0.81,-0.15 1.43,0.15 1.91,0.96 0.15,0.33 0.33,0.59 0.48,0.83 0.15,0.24 0.33,0.51 0.48,0.84 0.15,0.81 0.15,1.52 0,2.15 -0.33,1.28 -1.05,3.43 -2.15,6.44 -1.11,3.02 -2.51,6.09 -4.18,9.19 -1.67,3.11 -3.61,5.85 -5.85,8.24 -2.23,2.39 -4.68,3.58 -7.4,3.58z"/>
  <path id="5" class="fil3" d="M873.42 333.31c0.33,0.96 0.15,1.88 -0.48,2.75 -0.62,0.86 -1.43,1.4 -2.38,1.55 -2.24,0.33 -5.02,0.81 -8.36,1.43 -3.34,0.63 -6.83,1.82 -10.5,3.58 0.95,2.24 1.94,5.29 2.98,9.19 1.04,3.91 1.07,7.91 0.12,12.06 -0.48,2.06 -1.1,3.97 -1.91,5.73 -0.81,1.76 -1.82,3.49 -3.1,5.25 -1.29,1.76 -3.02,3.25 -5.26,4.54 -1.91,1.1 -4.38,1.76 -7.4,1.91 -3.01,0.15 -5.58,-0.39 -7.63,-1.67 -2.06,-1.29 -3.59,-2.87 -4.54,-4.78 -0.81,-1.76 -1.22,-3.91 -1.31,-6.44 -0.09,-2.54 0.98,-5.64 3.22,-9.31 1.76,-2.87 3.61,-5.97 5.61,-9.31 2,-3.35 4.56,-6.06 7.76,-8.12 -1.44,-2.24 -2.9,-4.33 -4.42,-6.33 -1.52,-2 -2.65,-4.06 -3.46,-6.2 -0.81,-2.15 -1.17,-4.51 -1.08,-7.05 0.09,-2.53 0.84,-5.49 2.27,-8.83 2.06,-4.62 4.33,-7.85 6.81,-9.67 2.47,-1.82 4.8,-2.98 7.04,-3.46 2.54,-0.63 5.16,-0.57 7.88,0.24 1.28,0.63 2.29,1.67 3.1,3.1 0.63,1.29 1.07,2.9 1.31,4.9 0.24,2 -0.03,4.65 -0.83,7.99 -0.96,3.35 -2.12,5.88 -3.46,7.64 -1.35,1.76 -2.72,2.87 -4.06,3.35 -1.35,0.47 -2.54,0.44 -3.58,-0.12 -1.05,-0.57 -1.64,-1.47 -1.79,-2.75 -0.15,-0.95 0.03,-2.18 0.59,-3.7 0.57,-1.52 1.11,-2.98 1.67,-4.42 0.57,-1.43 0.93,-2.71 1.08,-3.82 0.15,-1.1 -0.24,-1.67 -1.19,-1.67 -0.81,0 -1.59,0.24 -2.39,0.72 -0.81,0.48 -1.55,1.19 -2.27,2.15 -0.72,0.95 -1.46,2.47 -2.27,4.53 -0.8,1.91 -1.1,3.59 -0.95,5.02 0.15,1.43 0.59,2.77 1.31,4.06 0.72,1.28 1.67,2.62 2.86,4.05 1.2,1.44 2.51,3.2 3.94,5.26 0,0 0.09,0.08 0.24,0.23 7.31,-3.19 14.56,-5.16 21.73,-5.96 1.76,0 2.77,0.8 3.1,2.38zm-39.39 39.15c1.43,0.33 2.83,0.09 4.18,-0.71 1.34,-0.81 2.53,-1.94 3.58,-3.46 1.04,-1.52 1.94,-3.23 2.74,-5.14 0.81,-1.91 1.29,-3.82 1.44,-5.73 0,-1.28 -0.33,-2.89 -0.96,-4.89 -0.63,-2 -1.19,-3.55 -1.67,-4.65 -1.76,1.28 -3.19,3.1 -4.3,5.49 -1.1,2.38 -2.38,4.53 -3.82,6.44 -1.43,2.06 -2.47,3.97 -3.1,5.73 -0.63,1.43 -0.93,2.84 -0.84,4.18 0.09,1.34 0.99,2.27 2.75,2.74z"/>
  <path class="fil4" d="M522.7 257.94c0,5.52 -1.77,10.07 -5.31,13.62 -3.49,3.54 -8,5.31 -13.52,5.31 -5.47,0 -10.02,-1.77 -13.52,-5.31 -3.54,-3.55 -5.31,-8.1 -5.31,-13.62l0 -71.08c0,-4.6 -1.62,-8.5 -4.86,-11.74 -3.24,-3.24 -7.14,-4.86 -11.7,-4.86 -4.55,0 -8.45,1.62 -11.69,4.86 -3.24,3.24 -4.86,7.14 -4.86,11.74l0 71.08c0,5.52 -1.77,10.07 -5.32,13.62 -3.49,3.54 -7.99,5.31 -13.51,5.31 -5.47,0 -10.03,-1.77 -13.52,-5.31 -3.54,-3.55 -5.31,-8.1 -5.31,-13.62l0 -71.23c0,-4.56 -1.63,-8.45 -4.87,-11.64 -3.24,-3.19 -7.13,-4.81 -11.69,-4.81 -4.56,0 -8.45,1.62 -11.69,4.86 -3.24,3.24 -4.86,7.14 -4.86,11.74l0 71.08c0,5.52 -1.78,10.07 -5.32,13.62 -3.49,3.54 -8,5.31 -13.52,5.31 -5.46,0 -10.02,-1.77 -13.51,-5.31 -3.55,-3.55 -5.32,-8.1 -5.32,-13.62l0 -106.41c0,-5.52 1.77,-10.08 5.32,-13.62 3.54,-3.55 8.05,-5.32 13.56,-5.32 5.27,0 9.62,1.62 13.07,4.91 7.08,-3.29 14.52,-4.91 22.27,-4.91 13.47,0 25.26,4.41 35.39,13.17 10.12,-8.76 21.92,-13.17 35.38,-13.17 14.99,0 27.8,5.27 38.38,15.85 10.58,10.58 15.84,23.39 15.84,38.42l0 71.08z"/>
  <path id="1" class="fil4" d="M674 204.73c0,20.1 -6.99,37.16 -20.96,51.13 -13.97,14.03 -30.98,21.01 -51.03,21.01 -20.05,0 -37.06,-6.98 -51.03,-21.01 -13.97,-13.97 -20.96,-31.03 -20.96,-51.13 0,-20.09 6.99,-37.15 20.96,-51.13 13.97,-14.02 30.98,-21.01 51.03,-21.01 20.05,0 37.06,6.99 51.03,21.01 13.97,13.98 20.96,31.04 20.96,51.13zm-37.67 0c0,-9.56 -3.34,-17.71 -10.02,-24.45 -6.63,-6.68 -14.73,-10.02 -24.3,-10.02 -9.57,0 -17.67,3.34 -24.3,10.02 -6.68,6.74 -10.03,14.89 -10.03,24.45 0,9.57 3.35,17.72 10.03,24.46 6.63,6.68 14.73,10.02 24.3,10.02 9.57,0 17.67,-3.34 24.3,-10.02 6.68,-6.74 10.02,-14.89 10.02,-24.46z"/>
  <path id="2" class="fil4" d="M813.75 151.02c0,2.89 -0.76,5.87 -2.33,9.01l-51.44 102.87c-1.26,2.53 -2.78,5.06 -4.5,7.6 -3.7,4.25 -8.35,6.37 -14.02,6.37 -5.57,0 -10.28,-2.12 -14.03,-6.37 -0.86,-0.97 -2.33,-3.45 -4.4,-7.55l-51.54 -102.92c-1.47,-2.99 -2.23,-5.97 -2.23,-9.01 0,-5.16 2.03,-9.52 6.03,-13.11 4,-3.55 8.55,-5.32 13.72,-5.32 7.24,0 12.6,3.5 16.15,10.48l36.35 72.55 36.24 -72.55c3.55,-6.98 8.96,-10.48 16.25,-10.48 5.17,0 9.77,1.77 13.77,5.32 4,3.59 5.98,7.95 5.98,13.11z"/>
  <path id="3" class="fil4" d="M940.08 230.75c0,2.94 -0.96,6.28 -2.83,9.98 -5.62,10.98 -14.33,19.79 -26.23,26.43 -11.39,6.47 -23.43,9.71 -36.09,9.71 -19.95,0 -36.96,-7.03 -50.93,-21.05 -14.02,-14.03 -21.01,-31.04 -21.01,-51.09 0,-20.04 6.99,-37.05 21.01,-51.08 13.97,-14.02 30.98,-21.06 50.93,-21.06 9.77,0 19.54,2.23 29.41,6.69 9.82,4.45 18.02,10.32 24.66,17.61 7.19,7.95 10.83,15.44 10.83,22.43 0,6.48 -3.14,11.49 -9.47,15.14l-70.62 40.7c4.81,2.68 9.87,4.05 15.19,4.05 8.2,0 14.98,-2.33 20.4,-7.04 3.7,-4.25 7.39,-8.5 10.99,-12.7 4.96,-4.97 9.62,-7.45 14.02,-7.45 5.11,0 9.67,1.88 13.72,5.52 4,3.7 6.02,8.1 6.02,13.21zm-49.71 -56.7c-4.81,-2.53 -9.92,-3.79 -15.39,-3.79 -9.01,0 -16.86,3.09 -23.49,9.31 -6.58,6.23 -10.13,13.88 -10.58,22.99l49.46 -28.51z"/>
  <path id="4" class="fil5 str0" d="M522.7 257.94c0,5.52 -1.77,10.07 -5.31,13.62 -3.49,3.54 -8,5.31 -13.52,5.31 -5.47,0 -10.02,-1.77 -13.52,-5.31 -3.54,-3.55 -5.31,-8.1 -5.31,-13.62l0 -71.08c0,-4.6 -1.62,-8.5 -4.86,-11.74 -3.24,-3.24 -7.14,-4.86 -11.7,-4.86 -4.55,0 -8.45,1.62 -11.69,4.86 -3.24,3.24 -4.86,7.14 -4.86,11.74l0 71.08c0,5.52 -1.77,10.07 -5.32,13.62 -3.49,3.54 -7.99,5.31 -13.51,5.31 -5.47,0 -10.03,-1.77 -13.52,-5.31 -3.54,-3.55 -5.31,-8.1 -5.31,-13.62l0 -71.23c0,-4.56 -1.63,-8.45 -4.87,-11.64 -3.24,-3.19 -7.13,-4.81 -11.69,-4.81 -4.56,0 -8.45,1.62 -11.69,4.86 -3.24,3.24 -4.86,7.14 -4.86,11.74l0 71.08c0,5.52 -1.78,10.07 -5.32,13.62 -3.49,3.54 -8,5.31 -13.52,5.31 -5.46,0 -10.02,-1.77 -13.51,-5.31 -3.55,-3.55 -5.32,-8.1 -5.32,-13.62l0 -106.41c0,-5.52 1.77,-10.08 5.32,-13.62 3.54,-3.55 8.05,-5.32 13.56,-5.32 5.27,0 9.62,1.62 13.07,4.91 7.08,-3.29 14.52,-4.91 22.27,-4.91 13.47,0 25.26,4.41 35.39,13.17 10.12,-8.76 21.92,-13.17 35.38,-13.17 14.99,0 27.8,5.27 38.38,15.85 10.58,10.58 15.84,23.39 15.84,38.42l0 71.08z"/>
  <path id="5" class="fil5 str0" d="M674 204.73c0,20.1 -6.99,37.16 -20.96,51.13 -13.97,14.03 -30.98,21.01 -51.03,21.01 -20.05,0 -37.06,-6.98 -51.03,-21.01 -13.97,-13.97 -20.96,-31.03 -20.96,-51.13 0,-20.09 6.99,-37.15 20.96,-51.13 13.97,-14.02 30.98,-21.01 51.03,-21.01 20.05,0 37.06,6.99 51.03,21.01 13.97,13.98 20.96,31.04 20.96,51.13zm-37.67 0c0,-9.56 -3.34,-17.71 -10.02,-24.45 -6.63,-6.68 -14.73,-10.02 -24.3,-10.02 -9.57,0 -17.67,3.34 -24.3,10.02 -6.68,6.74 -10.03,14.89 -10.03,24.45 0,9.57 3.35,17.72 10.03,24.46 6.63,6.68 14.73,10.02 24.3,10.02 9.57,0 17.67,-3.34 24.3,-10.02 6.68,-6.74 10.02,-14.89 10.02,-24.46z"/>
  <path id="6" class="fil5 str0" d="M813.75 151.02c0,2.89 -0.76,5.87 -2.33,9.01l-51.44 102.87c-1.26,2.53 -2.78,5.06 -4.5,7.6 -3.7,4.25 -8.35,6.37 -14.02,6.37 -5.57,0 -10.28,-2.12 -14.03,-6.37 -0.86,-0.97 -2.33,-3.45 -4.4,-7.55l-51.54 -102.92c-1.47,-2.99 -2.23,-5.97 -2.23,-9.01 0,-5.16 2.03,-9.52 6.03,-13.11 4,-3.55 8.55,-5.32 13.72,-5.32 7.24,0 12.6,3.5 16.15,10.48l36.35 72.55 36.24 -72.55c3.55,-6.98 8.96,-10.48 16.25,-10.48 5.17,0 9.77,1.77 13.77,5.32 4,3.59 5.98,7.95 5.98,13.11z"/>
  <path id="7" class="fil5 str0" d="M940.08 230.75c0,2.94 -0.96,6.28 -2.83,9.98 -5.62,10.98 -14.33,19.79 -26.23,26.43 -11.39,6.47 -23.43,9.71 -36.09,9.71 -19.95,0 -36.96,-7.03 -50.93,-21.05 -14.02,-14.03 -21.01,-31.04 -21.01,-51.09 0,-20.04 6.99,-37.05 21.01,-51.08 13.97,-14.02 30.98,-21.06 50.93,-21.06 9.77,0 19.54,2.23 29.41,6.69 9.82,4.45 18.02,10.32 24.66,17.61 7.19,7.95 10.83,15.44 10.83,22.43 0,6.48 -3.14,11.49 -9.47,15.14l-70.62 40.7c4.81,2.68 9.87,4.05 15.19,4.05 8.2,0 14.98,-2.33 20.4,-7.04 3.7,-4.25 7.39,-8.5 10.99,-12.7 4.96,-4.97 9.62,-7.45 14.02,-7.45 5.11,0 9.67,1.88 13.72,5.52 4,3.7 6.02,8.1 6.02,13.21zm-49.71 -56.7c-4.81,-2.53 -9.92,-3.79 -15.39,-3.79 -9.01,0 -16.86,3.09 -23.49,9.31 -6.58,6.23 -10.13,13.88 -10.58,22.99l49.46 -28.51z"/>
 </g>
</svg>
