<?xml version="1.0" encoding="UTF-8"?>
<!DOCTYPE svg PUBLIC "-//W3C//DTD SVG 1.1//EN" "http://www.w3.org/Graphics/SVG/1.1/DTD/svg11.dtd">
<!-- Creator: CorelDRAW 2017 -->
<svg xmlns="http://www.w3.org/2000/svg" xml:space="preserve" width="297mm" height="210mm" version="1.1" style="shape-rendering:geometricPrecision; text-rendering:geometricPrecision; image-rendering:optimizeQuality; fill-rule:evenodd; clip-rule:evenodd"
viewBox="0 0 29700 21000"
 xmlns:xlink="http://www.w3.org/1999/xlink">
 <defs>
  <style type="text/css">
   <![CDATA[
    .str2 {stroke:#EFC64B;stroke-width:423.33;stroke-miterlimit:10;stroke-opacity:0.200000}
    .str0 {stroke:white;stroke-width:388.06;stroke-miterlimit:10;stroke-opacity:0.200000}
    .str1 {stroke:white;stroke-width:176.39;stroke-miterlimit:10;stroke-opacity:0.200000}
    .str3 {stroke:#D7263D;stroke-width:10;stroke-miterlimit:22.9256}
    .fil8 {fill:none}
    .fil4 {fill:none;fill-rule:nonzero}
    .fil11 {fill:#D36135}
    .fil10 {fill:#FCC351}
    .fil0 {fill:white}
    .fil12 {fill:#D7263D;fill-rule:nonzero}
    .fil13 {fill:#FCC351;fill-rule:nonzero}
    .fil1 {fill:#E6E6E6;fill-opacity:0.200000}
    .fil2 {fill:#A3C654;fill-rule:nonzero;fill-opacity:0.200000}
    .fil3 {fill:#ACCAFB;fill-rule:nonzero;fill-opacity:0.200000}
    .fil6 {fill:#C3BFBC;fill-rule:nonzero;fill-opacity:0.200000}
    .fil7 {fill:#EFC64B;fill-rule:nonzero;fill-opacity:0.200000}
    .fil5 {fill:white;fill-rule:nonzero;fill-opacity:0.200000}
    .fil9 {fill:url(#id1)}
   ]]>
  </style>
    <clipPath id="id0">
     <path d="M14850 2979.32c4545.68,0 8230.68,3685 8230.68,8230.68 0,4545.68 -3685,8230.68 -8230.68,8230.68 -4545.68,0 -8230.68,-3685 -8230.68,-8230.68 0,-4545.68 3685,-8230.68 8230.68,-8230.68z"/>
    </clipPath>
  <linearGradient id="id1" gradientUnits="userSpaceOnUse" x1="4129.22" y1="9891.14" x2="11059.29" y2="9891.14">
   <stop offset="0" style="stop-opacity:1; stop-color:#D7263D"/>
   <stop offset="1" style="stop-opacity:1; stop-color:#D36135"/>
  </linearGradient>
 </defs>
 <g id="Camada_x0020_1">
  <metadata id="CorelCorpID_0Corel-Layer"/>
  <g id="_2850651245952">
   <circle class="fil0" cx="14850" cy="11210" r="8230.68"/>
   <g>
   </g>
   <g style="clip-path:url(#id0)">
    <g id="_2850651250688">
     <polygon class="fil1" points="6619.32,3060.56 23080.68,3060.56 23080.68,19359.45 6619.32,19359.45 "/>
     <path class="fil2" d="M13375.61 17757.87l-6427.04 889.37c-124.87,17.28 -230.01,81.99 -301.28,172.41l0 549.91 7803.95 0 -585.8 -1338.01c-83.35,-190.39 -283.51,-302.23 -489.83,-273.68z"/>
     <path class="fil3" d="M23080.68 7450.01c-70.51,41.39 -138.47,87.43 -203.05,137.59 -63.48,49.31 -124.41,103.42 -182.01,161.8 -208.84,211.67 -371.15,464.73 -495.8,740.14 -147.21,325.29 -241.47,678.62 -297.41,1031.61 -77.19,487.2 -91.22,991.62 -105.23,1496.05 -6.04,217.93 -12.11,435.88 -22.11,638.08 -18.58,375.74 -52.54,755.53 -123.58,1127.39 -72.89,381.58 -184.93,755.8 -359.04,1110.78 -186.51,380.23 -426.21,705.74 -666.13,1031.55 -132.05,179.33 -264.2,358.8 -378.49,534.64 -372,572.37 -627.79,1200.27 -806.96,1859.44 -182.83,672.65 -285.89,1373.44 -350.5,2079.64l-645.69 -58.32c68.17,-745.16 176.53,-1483.23 368.28,-2188.67 195.42,-718.92 477.43,-1408.41 890.86,-2044.54 129.95,-199.94 264.44,-382.57 398.82,-565.07 225.02,-305.58 449.82,-610.87 607.67,-932.66 145.12,-295.87 239.99,-615.53 303.11,-945.97 64.98,-340.18 96.21,-690.7 113.42,-1038.64 10.8,-218.37 16.46,-421.92 22.11,-625.4 14.57,-524.48 29.15,-1048.93 112.85,-1577.18 64.98,-410.11 174.55,-820.74 345.72,-1198.96 154.15,-340.6 358.53,-657.25 625.44,-927.78 75.72,-76.75 157.94,-149.54 245.56,-217.59 87.04,-67.58 178.81,-129.76 274.23,-185.77l327.93 557.84z"/>
     <path class="fil4 str0" d="M6695.22 15900.97c-16.01,0 -31.98,-0.1 -47.93,-0.25"/>
     <path class="fil5" d="M6662.67 5250.03c62.03,5.45 124.11,13.65 186.01,24.56 60.87,10.72 121.7,24.24 182.21,40.48 122.17,32.78 241.25,76.93 355.86,131.1 114.39,54.06 225.4,119.29 331.56,194.25 204.87,144.68 385.59,323.17 531.9,525.5 144.18,199.34 255.6,422.39 324.6,659.65 38.97,133.96 63.12,264.21 79.57,388.86 16.81,127.49 25.17,239.49 32.99,344.45 4.81,64.79 9.51,127.67 12.81,162.44 4.51,47.45 10.05,93.86 17.66,139.49 90.65,542.34 539.48,1042.67 1014.69,1572.32l0.36 -0.31 0.08 0.79c562.96,627.43 1201.05,1338.59 1402.49,2303.1 108.94,521.65 70.52,1071.68 -97.15,1593.6 -166.77,519.13 -461.84,1011.1 -867.15,1419.73 -366.75,369.74 -777.32,637.44 -1186.64,830.99 -535.14,253.04 -1067.64,378.92 -1496.04,440.51 -133.3,19.17 -266.56,33.59 -398.79,43.21 -134.67,9.78 -266.45,14.73 -394.35,14.73l-0.12 0 0 -357.02 0.12 0c123.94,0 247.31,-4.47 369.19,-13.33 124.36,-9.03 249.2,-22.54 373.61,-40.43 400.21,-57.53 896.88,-174.76 1393.99,-409.82 375.27,-177.45 751.15,-422.34 1085.96,-759.87 364.89,-367.89 630.47,-810.55 780.46,-1277.48 149.08,-464.09 183.58,-951.61 87.37,-1412.31 -182.06,-871.66 -785.62,-1544.51 -1318.26,-2138.14l-0.35 0.31 -0.08 -0.79c-511.29,-569.84 -994.22,-1108.11 -1101.73,-1751.23 -8.31,-49.75 -14.8,-105.28 -20.45,-164.59 -6.85,-71.99 -10.49,-120.79 -14.21,-170.8 -7.83,-105.19 -16.21,-217.39 -30.21,-323.53 -14.37,-108.97 -35.19,-221.85 -68.36,-335.87 -57.45,-197.51 -150.64,-383.8 -271.48,-550.87 -123.8,-171.2 -276.02,-321.75 -448.02,-443.21 -86.5,-61.08 -179.68,-115.52 -278.41,-162.19 -94.7,-44.76 -193.65,-81.38 -295.74,-108.78 -49.27,-13.22 -99.84,-24.41 -151.46,-33.5 -50.79,-8.95 -102.61,-15.76 -155.25,-20.38l30.76 -355.62z"/>
     <path class="fil3" d="M6647.29 15251.57c241.86,2.6 484.32,-14.57 723.18,-48.91 820.23,-117.93 1628.68,-447.08 2211.53,-1034.69 582.85,-587.59 910.6,-1453.4 741.59,-2262.62 -317.52,-1520.34 -2167.74,-2376.68 -2423.82,-3908.51 -52.22,-312.37 -32.76,-636.75 -121.23,-940.9 -130.93,-450.08 -509.16,-820.05 -962.88,-941.83 -55.38,-14.86 -111.64,-25.93 -168.37,-33.38l0 9170.84z"/>
     <path class="fil5" d="M6659.87 4120.13c325.6,23.19 650.78,54.49 974.2,101.23 325.69,47.07 648.46,109.56 966.39,194.81 521.45,139.8 1034.95,347.33 1496.93,632.33 418.47,258.15 793.64,579.3 1093.2,970.57 136.33,178.07 253.15,364.53 369.78,550.68 187.71,299.63 374.97,598.51 623.6,825.77 279.5,255.47 624.22,414.79 995,523.12 382.36,111.69 795.56,170.07 1195.51,222.45l8565.3 1121.81 -46.13 352.84 -8565.31 -1121.81c-413.67,-54.18 -841.83,-114.79 -1248.64,-233.62 -418.38,-122.23 -810.74,-305.12 -1136.21,-602.61 -287.52,-262.8 -486.78,-580.84 -686.52,-899.68 -112.62,-179.75 -225.42,-359.79 -350.21,-522.79 -272.31,-355.67 -614.44,-648.29 -996.72,-884.11 -429.27,-264.82 -910.51,-458.75 -1401.86,-590.48 -304.59,-81.67 -613.3,-141.48 -924.45,-186.44 -313.42,-45.29 -630.51,-75.77 -949.02,-98.45l25.16 -355.62z"/>
     <path class="fil2" d="M11233.24 7728.94c-238.14,-254.15 -479.97,-730.24 -757.21,-941.3 -268.47,-204.38 -606.89,-215.83 -905.36,-2.14 -384.3,275.16 -495.76,796.21 -283.64,1217.96 248.13,493.36 674.32,848.74 1058.68,1247.75 867.86,900.98 1447.12,2036.59 1689.74,3244.39 39.38,196.05 313.71,213.02 377.51,23.47l1069.46 -3032.3c98.52,-279.31 -68.83,-581.55 -358.2,-647.63 -711.01,-162.34 -1407.04,-593.75 -1890.98,-1110.2z"/>
     <polygon class="fil5" points="8253.11,6573.64 10257.27,5252.92 14412.34,4410.48 17568.15,2979.32 17714.96,3304.27 14526.8,4750.09 10397.86,5587.23 8450.26,6870.69 "/>
     <path class="fil4 str0" d="M10977.71 12649.57c251.26,407.59 678.71,702.85 1149.6,794.09 19.62,3.8 39.3,7.25 59.03,10.34 659.52,103.29 1296.11,-292.56 1520.35,-919.76"/>
     <polygon class="fil5" points="13538.21,12474.97 14988.4,8418.68 14031.75,3173.18 14382.69,3110.42 15356.51,8450.07 13875.17,12593.5 "/>
     <polygon class="fil5" points="12802.29,13399.21 15389.62,19298.43 15062.44,19440.68 12475.11,13541.46 "/>
     <polygon class="fil5" points="22890.85,18414.29 14163.58,17127.76 6675.26,18319.09 6619.32,17967.65 14163.99,16767.35 22942.58,18061.45 "/>
     <polygon class="fil5" points="19586.54,3152.26 19234.18,8965.18 17766.36,14069.17 17260.57,17404.5 16906.83,17351.5 17414.31,14004.99 17419.21,13982.67 18880.19,8902.49 19230.01,3131.34 "/>
     <polygon class="fil5" points="9161.56,9057.33 11526.74,6825.43 11637.96,6942.69 9272.77,9174.59 "/>
     <path class="fil5" d="M10682.83 11131.17c184.42,-295.19 444.7,-530.37 744.89,-704.49 323.74,-187.78 694.1,-304.53 1065.5,-348.87 354.53,-42.32 710.39,-25.91 1062.22,27.89 350.14,53.53 695.94,143.99 1032.26,250.26l-48.94 154.67c-329.36,-104.07 -667.16,-192.52 -1007.47,-244.56 -338.62,-51.79 -680.2,-67.68 -1019,-27.24 -350.41,41.82 -699.17,151.6 -1003.21,327.94 -278.03,161.27 -518.61,378.32 -688.34,649.97l-137.91 -85.57z"/>
     <polygon class="fil5" points="10428.68,8053.61 12299.92,10148.57 12178.54,10256.34 10307.3,8161.38 "/>
     <polygon class="fil6" points="14152.93,6722.17 12239.23,6935.96 12239.23,5922.15 14152.93,5922.15 "/>
     <polygon class="fil6" points="12732.05,5435.33 12732.05,5694.97 14152.93,5694.97 14152.93,5159.46 "/>
     <polygon class="fil6" points="12008.07,6238.6 11467.11,6238.6 11467.11,5642.23 12008.07,5533.14 "/>
     <path class="fil2" d="M14594.22 7533.73c-22.99,-131.81 -88.57,-272.24 -215.18,-316.42 -77.63,-27.08 -162.91,-12.46 -243.81,2.44 -124.87,23.01 -249.76,46.01 -374.65,69.03 -104.2,19.2 -211.66,39.68 -299.69,98.52 -88.02,58.83 -152.14,166.8 -126.66,269.39 18.95,76.32 83.45,134.89 155.5,166.81 72.04,31.91 151.75,41.28 230.05,50.28 250.99,28.85 501.98,57.69 752.96,86.54l69.72 8.56c39.49,-13.5 78.98,-27 118.47,-40.5 -48.8,-124.61 -43.72,-262.85 -66.71,-394.65z"/>
     <path class="fil5" d="M12714.62 7834.51c5.67,-151.64 53.69,-299.8 133.54,-427.61 79.97,-127.99 192.13,-236.34 325.91,-308.12 71.19,-38.2 146.29,-65.86 223.1,-87.43 73.24,-20.58 149.55,-35.75 225.72,-49.49 209.98,-37.88 419.96,-65.67 628.95,-83.26 208.79,-17.59 420.35,-25.31 633.67,-23.11l-1.27 161.65c-204.65,-2.13 -411.34,5.6 -619.06,23.1 -207.51,17.47 -412.41,44.42 -613.7,80.73 -70.02,12.62 -140.67,26.71 -210.46,46.32 -66.25,18.6 -130.4,42.13 -190.04,74.13 -108.35,58.14 -199.54,146.42 -264.91,251.05 -65.47,104.81 -104.81,225.34 -109.39,347.75l-162.06 -5.71z"/>
     <polygon class="fil6" points="13610.6,4083.01 10977.71,4083.01 10977.71,3141.8 13610.6,3141.8 "/>
     <polygon class="fil6" points="10010.05,3782.8 9315.47,3782.8 9315.47,3141.8 10010.05,3141.8 "/>
     <polygon class="fil6" points="9017.62,3782.8 8323.04,3782.8 8323.04,3141.8 9017.62,3141.8 "/>
     <polygon class="fil6" points="8025.19,3782.8 7330.6,3782.8 7330.6,3141.8 8025.19,3141.8 "/>
     <path class="fil5" d="M9214.54 4685.04c197.61,-69.25 401.48,-143.06 584.76,-241.32 178.15,-95.51 337.36,-214.54 452.51,-376.13 60.15,-84.42 105.94,-177.66 139.96,-275.53 38.48,-110.67 62.25,-228.15 74.93,-346.24 5.46,-50.89 8.97,-101.1 10.94,-150.7 2.04,-51.52 2.57,-102.38 2.03,-152.69l162.06 -1.27c0.59,54.09 0.05,107.63 -2.03,160.31 -2.16,54.6 -5.89,108.51 -11.57,161.46 -13.82,128.68 -40.18,258.01 -83.19,381.74 -39.09,112.44 -91.75,219.63 -160.94,316.74 -131.7,184.8 -309.85,318.83 -507.8,424.95 -192.83,103.38 -403.9,179.84 -608.28,251.46l-53.38 -152.78z"/>
     <path class="fil2" d="M10439.06 4842.47c-61.77,0 -111.85,49.96 -111.85,111.57 0,61.61 50.08,111.57 111.85,111.57 61.77,0 111.86,-49.96 111.86,-111.57 0,-61.61 -50.09,-111.57 -111.86,-111.57z"/>
     <path class="fil2" d="M10977.71 4730.9c-61.77,0 -111.84,49.96 -111.84,111.57 0,61.62 50.07,111.57 111.84,111.57 61.77,0 111.86,-49.95 111.86,-111.57 0,-61.61 -50.09,-111.57 -111.86,-111.57z"/>
     <path class="fil2" d="M13915.07 4083.01c-61.77,0 -111.86,49.95 -111.86,111.57 0,61.61 50.09,111.56 111.86,111.56 61.77,0 111.85,-49.95 111.85,-111.56 0,-61.62 -50.08,-111.57 -111.85,-111.57z"/>
     <path class="fil2" d="M9292.73 4282.61c-61.78,0 -111.85,49.96 -111.85,111.57 0,61.62 50.07,111.57 111.85,111.57 61.77,0 111.85,-49.95 111.85,-111.57 0,-61.61 -50.08,-111.57 -111.85,-111.57z"/>
     <path class="fil2" d="M6860.46 3235.78c-61.78,0 -111.86,49.96 -111.86,111.57 0,61.61 50.08,111.57 111.86,111.57 61.77,0 111.84,-49.96 111.84,-111.57 0,-61.61 -50.07,-111.57 -111.84,-111.57z"/>
     <path class="fil2" d="M8536.2 5957.63c-61.77,0 -111.85,49.95 -111.85,111.57 0,61.61 50.08,111.56 111.85,111.56 61.77,0 111.86,-49.95 111.86,-111.56 0,-61.62 -50.09,-111.57 -111.86,-111.57z"/>
     <path class="fil2" d="M9646.59 6317.5c-61.77,0 -111.85,49.94 -111.85,111.56 0,61.61 50.08,111.56 111.85,111.56 61.78,0 111.85,-49.95 111.85,-111.56 0,-61.62 -50.07,-111.56 -111.85,-111.56z"/>
     <path class="fil2" d="M15050.91 4761.43c-61.77,0 -111.86,49.94 -111.86,111.56 0,61.62 50.09,111.57 111.86,111.57 61.77,0 111.85,-49.95 111.85,-111.57 0,-61.62 -50.08,-111.56 -111.85,-111.56z"/>
     <path class="fil2" d="M17668.24 6772.5c-61.78,0 -111.86,49.95 -111.86,111.56 0,61.61 50.08,111.57 111.86,111.57 61.77,0 111.84,-49.96 111.84,-111.57 0,-61.61 -50.07,-111.56 -111.84,-111.56z"/>
     <path class="fil2" d="M18392.93 6772.5c-61.78,0 -111.86,49.95 -111.86,111.56 0,61.61 50.08,111.57 111.86,111.57 61.77,0 111.84,-49.96 111.84,-111.57 0,-61.61 -50.07,-111.56 -111.84,-111.56z"/>
     <path class="fil2" d="M16502.28 8975.01c-61.78,0 -111.85,49.94 -111.85,111.57 0,61.61 50.07,111.56 111.85,111.56 61.77,0 111.86,-49.95 111.86,-111.56 0,-61.63 -50.09,-111.57 -111.86,-111.57z"/>
     <path class="fil2" d="M20733.22 12111.42c-61.77,0 -111.86,49.95 -111.86,111.57 0,61.62 50.09,111.56 111.86,111.56 61.77,0 111.85,-49.94 111.85,-111.56 0,-61.62 -50.08,-111.57 -111.85,-111.57z"/>
     <path class="fil2" d="M22524.89 8711.71c-61.77,0 -111.86,49.96 -111.86,111.57 0,61.61 50.09,111.57 111.86,111.57 61.78,0 111.85,-49.96 111.85,-111.57 0,-61.61 -50.07,-111.57 -111.85,-111.57z"/>
     <path class="fil2" d="M19824.17 4515.48c-61.78,0 -111.86,49.94 -111.86,111.56 0,61.62 50.08,111.56 111.86,111.56 61.77,0 111.84,-49.94 111.84,-111.56 0,-61.62 -50.07,-111.56 -111.84,-111.56z"/>
     <path class="fil2" d="M20159.72 5583.4c-61.77,0 -111.85,49.95 -111.85,111.57 0,61.61 50.08,111.57 111.85,111.57 61.77,0 111.86,-49.96 111.86,-111.57 0,-61.62 -50.09,-111.57 -111.86,-111.57z"/>
     <path class="fil2" d="M22413.03 5583.4c-61.77,0 -111.84,49.95 -111.84,111.57 0,61.61 50.07,111.57 111.84,111.57 61.78,0 111.86,-49.96 111.86,-111.57 0,-61.62 -50.08,-111.57 -111.86,-111.57z"/>
     <path class="fil2" d="M21974.85 6782.24c-61.77,0 -111.86,49.96 -111.86,111.57 0,61.61 50.09,111.57 111.86,111.57 61.77,0 111.85,-49.96 111.85,-111.57 0,-61.61 -50.08,-111.57 -111.85,-111.57z"/>
     <path class="fil2" d="M22636.74 12532.01c-61.77,0 -111.85,49.96 -111.85,111.57 0,61.61 50.08,111.57 111.85,111.57 61.77,0 111.86,-49.96 111.86,-111.57 0,-61.61 -50.09,-111.57 -111.86,-111.57z"/>
     <path class="fil2" d="M11896.21 6518.19c-61.77,0 -111.84,49.95 -111.84,111.56 0,61.62 50.07,111.56 111.84,111.56 61.77,0 111.86,-49.94 111.86,-111.56 0,-61.61 -50.09,-111.56 -111.86,-111.56z"/>
     <path class="fil2" d="M12455.47 7167.29c-61.77,0 -111.85,49.96 -111.85,111.57 0,61.62 50.08,111.57 111.85,111.57 61.78,0 111.85,-49.95 111.85,-111.57 0,-61.61 -50.07,-111.57 -111.85,-111.57z"/>
     <path class="fil2" d="M13728.42 8579.11c-61.78,0 -111.86,49.95 -111.86,111.57 0,61.61 50.08,111.56 111.86,111.56 61.77,0 111.85,-49.95 111.85,-111.56 0,-61.62 -50.08,-111.57 -111.85,-111.57z"/>
     <path class="fil2" d="M11582.35 12378.48c-61.77,0 -111.86,49.96 -111.86,111.57 0,61.62 50.09,111.57 111.86,111.57 61.77,0 111.85,-49.95 111.85,-111.57 0,-61.61 -50.08,-111.57 -111.85,-111.57z"/>
     <path class="fil2" d="M14563.23 16464.79c-61.77,0 -111.86,49.95 -111.86,111.56 0,61.62 50.09,111.57 111.86,111.57 61.77,0 111.85,-49.95 111.85,-111.57 0,-61.61 -50.08,-111.56 -111.85,-111.56z"/>
     <path class="fil2" d="M10722.99 16836c-61.78,0 -111.85,49.95 -111.85,111.56 0,61.62 50.07,111.57 111.85,111.57 61.77,0 111.85,-49.95 111.85,-111.57 0,-61.61 -50.08,-111.56 -111.85,-111.56z"/>
     <path class="fil2" d="M9462.11 17046.22c-61.77,0 -111.86,49.95 -111.86,111.57 0,61.61 50.09,111.57 111.86,111.57 61.77,0 111.85,-49.96 111.85,-111.57 0,-61.62 -50.08,-111.57 -111.85,-111.57z"/>
     <path class="fil2" d="M7078.63 17483.76c-61.77,0 -111.84,49.95 -111.84,111.56 0,61.62 50.07,111.57 111.84,111.57 61.77,0 111.86,-49.95 111.86,-111.57 0,-61.61 -50.09,-111.56 -111.86,-111.56z"/>
     <path class="fil2" d="M16675.52 16823.09c-61.77,0 -111.86,49.95 -111.86,111.56 0,61.62 50.09,111.57 111.86,111.57 61.77,0 111.85,-49.95 111.85,-111.57 0,-61.61 -50.08,-111.56 -111.85,-111.56z"/>
     <path class="fil2" d="M18281.07 17894.12c-61.78,0 -111.85,49.96 -111.85,111.57 0,61.61 50.07,111.57 111.85,111.57 61.78,0 111.86,-49.96 111.86,-111.57 0,-61.61 -50.08,-111.57 -111.86,-111.57z"/>
     <path class="fil2" d="M19954.79 17219.3c-61.78,0 -111.85,49.96 -111.85,111.57 0,61.61 50.07,111.57 111.85,111.57 61.77,0 111.86,-49.96 111.86,-111.57 0,-61.61 -50.09,-111.57 -111.86,-111.57z"/>
     <path class="fil2" d="M21589.87 18541.86c-61.78,0 -111.85,49.96 -111.85,111.57 0,61.61 50.07,111.57 111.85,111.57 61.77,0 111.85,-49.96 111.85,-111.57 0,-61.61 -50.08,-111.57 -111.85,-111.57z"/>
     <path class="fil2" d="M16294.17 18974.01c-61.78,0 -111.86,49.95 -111.86,111.56 0,61.62 50.08,111.57 111.86,111.57 61.77,0 111.85,-49.95 111.85,-111.57 0,-61.61 -50.08,-111.56 -111.85,-111.56z"/>
     <path class="fil2" d="M11279.12 13586.01c-61.77,0 -111.85,49.96 -111.85,111.57 0,61.62 50.08,111.57 111.85,111.57 61.77,0 111.86,-49.95 111.86,-111.57 0,-61.61 -50.09,-111.57 -111.86,-111.57z"/>
     <path class="fil2" d="M22053.55 14349.57c-61.78,0 -111.85,49.95 -111.85,111.56 0,61.62 50.07,111.57 111.85,111.57 61.77,0 111.85,-49.95 111.85,-111.57 0,-61.61 -50.08,-111.56 -111.85,-111.56z"/>
     <path class="fil2" d="M22636.74 14909.11c-61.77,0 -111.85,49.94 -111.85,111.57 0,61.61 50.08,111.55 111.85,111.55 61.77,0 111.86,-49.94 111.86,-111.55 0,-61.63 -50.09,-111.57 -111.86,-111.57z"/>
     <path class="fil2" d="M17330.97 13048.17c-61.77,0 -111.86,49.95 -111.86,111.57 0,61.61 50.09,111.57 111.86,111.57 61.77,0 111.85,-49.96 111.85,-111.57 0,-61.62 -50.08,-111.57 -111.85,-111.57z"/>
     <path class="fil2" d="M13834.3 14589.38c-61.78,0 -111.86,49.95 -111.86,111.57 0,61.61 50.08,111.57 111.86,111.57 61.77,0 111.85,-49.96 111.85,-111.57 0,-61.62 -50.08,-111.57 -111.85,-111.57z"/>
     <path class="fil2" d="M16451.81 12477.87c-61.77,0 -111.85,49.95 -111.85,111.56 0,61.62 50.08,111.57 111.85,111.57 61.78,0 111.85,-49.95 111.85,-111.57 0,-61.61 -50.07,-111.56 -111.85,-111.56z"/>
     <path class="fil2" d="M17591.28 12429.19c-61.77,0 -111.85,49.96 -111.85,111.57 0,61.62 50.08,111.57 111.85,111.57 61.78,0 111.85,-49.95 111.85,-111.57 0,-61.61 -50.07,-111.57 -111.85,-111.57z"/>
     <path class="fil2" d="M15153.55 9999.11c-61.77,0 -111.86,49.95 -111.86,111.57 0,61.62 50.09,111.56 111.86,111.56 61.77,0 111.85,-49.94 111.85,-111.56 0,-61.62 -50.08,-111.57 -111.85,-111.57z"/>
     <path class="fil2" d="M12159.91 12905.89c-61.77,0 -111.85,49.95 -111.85,111.56 0,61.62 50.08,111.57 111.85,111.57 61.77,0 111.86,-49.95 111.86,-111.57 0,-61.61 -50.09,-111.56 -111.86,-111.56z"/>
     <polygon class="fil6" points="9891.01,6162.77 10090.51,6400.54 10501.43,6057.5 10301.94,5819.73 "/>
     <polygon class="fil5" points="14923.8,6850.65 19213.09,6030.58 19243.61,6189.68 14954.31,7009.75 "/>
     <path class="fil5" d="M19429.46 3964.52c248.34,-14.16 498.09,21.9 731.8,102.18 233.71,80.29 452.88,205.43 640.06,369.36 242.5,212.39 416.42,470.37 590.71,728.88 127.05,188.46 254.34,377.26 405.11,538.92 142.74,153.04 309.23,283.53 490.34,394.54 205.44,125.92 427.59,225.79 654.27,304.45l-0.07 0.21 15.36 5.3 0.14 -0.42 16.86 5.73 -114.65 337.5 -16.86 -5.74 -0.7 -0.69 -16.83 -5.8 -0.7 0c-251.97,-87.44 -497.99,-197.87 -724.17,-336.52 -206.09,-126.31 -397.5,-276.9 -564.44,-455.9 -168.37,-180.54 -304.34,-382.21 -440.08,-583.54 -161.23,-239.15 -322.13,-477.82 -529.18,-659.16 -150.98,-132.23 -329.5,-233.76 -521.22,-299.63 -191.7,-65.85 -395.21,-95.51 -596.18,-84.05l-19.57 -355.62z"/>
     <polygon class="fil5" points="14173.31,11115.53 17652.88,13852.97 22916.72,13852.97 22916.72,14209.99 17529.48,14209.99 13952.4,11395.83 "/>
     <path class="fil2" d="M19355.63 14573.09l-1207.29 -0.39c-80.06,-0.03 -148.14,58.28 -160.24,137.23l-317.98 2076.34c-13.6,88.83 48.05,171.68 137.23,184.41l517.76 73.89c81.3,11.61 158.63,-39.22 179.36,-118.47 195.75,-748.17 528.86,-1468.43 981.95,-2096.37 77.36,-107.23 1.66,-256.6 -130.79,-256.64z"/>
     <path class="fil2" d="M19885.87 3141.8l-24.58 309.51c-7.38,92.9 59.12,176.14 151.8,187.89 486.25,61.67 927.01,384.94 1259.02,752.06 116.53,128.86 228.12,276.13 391.81,334.94 150.78,54.17 317.3,22.47 474.26,-9.79l778.54 -159.99 0 -1414.62 -3030.85 0z"/>
     <path class="fil5" d="M8842.43 15444.26c236.59,402.23 521.2,776.47 844.99,1113.55 323.67,336.94 686.41,636.56 1079.41,889.66l-87.69 136.29c-403.68,-259.98 -776.25,-567.71 -1108.65,-913.75 -332.28,-345.9 -624.58,-730.37 -867.87,-1143.98l139.81 -81.77z"/>
     <polygon class="fil5" points="14522.95,10331.99 18606.94,10410.1 18604.39,10571.74 14520.4,10493.63 "/>
     <path class="fil5" d="M22952.94 14429.06c-241.48,120.62 -461.57,285.69 -645.1,484.05 -178.66,193.11 -322.29,417.61 -416.74,663.11 -135.07,351.06 -175.88,732.26 -216.55,1112.32 -11.15,104.21 -22.31,208.39 -33.66,299.65 -51.62,414.61 -134.17,826.29 -246.31,1230.68 -112.21,404.63 -253.71,800.52 -423.17,1183.33l-148.72 -65.28c166.83,-376.9 305.79,-765.36 415.55,-1161.16 109.53,-394.96 190.37,-798.78 241.22,-1207.22 13.3,-106.85 23.48,-201.95 33.66,-297.11 41.84,-390.97 83.81,-783.12 226.08,-1152.9 101.99,-265.07 256.77,-507.15 449.16,-715.09 196.43,-212.29 432.56,-389.26 692.14,-518.91l72.44 144.53z"/>
     <polygon class="fil6" points="16799.4,8229.2 18605.66,8434.37 18659.18,7278.86 16799.4,7278.86 "/>
     <polygon class="fil6" points="16457.75,8172.41 15693.08,8172.41 15693.08,7060.8 16457.75,7060.8 "/>
     <polygon class="fil6" points="16323.71,4242.04 15479.96,4623.51 15636.14,6292.1 16323.71,6105.09 "/>
     <polygon class="fil6" points="16835.83,4339.47 16835.83,6294.75 18659.18,5798.84 18800.55,3451.22 "/>
     <polygon class="fil6" points="9250.4,5651.69 8756.89,5651.69 8756.89,5159.46 9250.4,5159.46 "/>
     <polygon class="fil6" points="8404.39,5446.29 7910.88,5446.29 7910.88,4954.04 8404.39,4954.04 "/>
     <polygon class="fil6" points="7577.35,5200.17 7083.85,5200.17 7083.85,4707.92 7577.35,4707.92 "/>
     <polygon class="fil6" points="22168.32,12056.24 22916.72,12056.24 22916.72,9946.65 22168.32,9946.65 "/>
     <polygon class="fil6" points="22916.72,13397.74 21821.24,13397.74 21821.24,12921.72 22916.72,12921.72 "/>
     <polygon class="fil6" points="19517.52,11958.88 19517.52,11050.13 19120.51,11050.13 18469.73,13538.38 20367.83,13538.38 20367.83,11958.88 "/>
     <polygon class="fil6" points="19503.9,9546.36 19250.66,10451.87 20845.07,10451.87 20845.07,9681.12 "/>
     <polygon class="fil6" points="20845.07,11601.87 20047.87,11601.87 20047.87,10806.72 20845.07,10806.72 "/>
     <path class="fil2" d="M14645.99 3141.8l111.6 632.48c12.33,69.9 87.66,109.22 152.27,79.48l1388.93 -639.4c33.97,-15.64 53.5,-42.89 60.31,-72.56l-1713.11 0z"/>
     <polygon class="fil6" points="15041.69,12591.17 14440.34,12111.42 13834.3,13426.37 14425.53,14002.59 "/>
     <polygon class="fil6" points="16218.02,13529.6 15252.26,12759.15 14624.69,14196.7 15538.14,15086.92 "/>
     <polygon class="fil6" points="16428.58,13697.58 15737.31,15281.04 16685.52,16205.15 17035.31,14181.61 "/>
     <polygon class="fil6" points="15367.69,17829.21 15652.41,18817.82 16787.37,18817.82 16787.37,17829.21 "/>
     <polygon class="fil6" points="17824.38,19093.69 17265.9,19093.69 17265.9,17926.58 17824.38,17926.58 "/>
     <polygon class="fil6" points="18187.73,10080.85 15774.43,10080.85 15774.43,9350.6 18187.73,9350.6 "/>
     <polygon class="fil6" points="15920.85,9086.58 15454.47,9086.58 15454.47,8875.61 15920.85,8875.61 "/>
     <polygon class="fil6" points="16766.87,10806.72 16563.66,10806.72 16563.66,11921.01 17650.84,11921.01 17987.07,10806.72 "/>
     <polygon class="fil6" points="15183.3,10693.12 15183.3,10920.31 15872.05,10920.31 15872.05,10693.12 "/>
     <polygon class="fil6" points="15183.3,11060.36 15183.3,11287.54 15872.05,11287.54 15872.05,11060.36 "/>
     <polygon class="fil6" points="15183.3,11427.59 15183.3,11654.78 15872.05,11654.78 15872.05,11427.59 "/>
     <line class="fil4 str1" x1="15333.72" y1="12255.5" x2="18066.56" y2= "12255.5" />
     <path class="fil2" d="M12605.88 15321.17l-397.5 1294.14c-22.51,73.32 39.2,145.04 115.27,133.96l1036.8 -151.02c72.57,-10.57 112.06,-90.36 76.33,-154.24l-639.31 -1143.14c-44.94,-80.36 -164.57,-67.69 -191.59,20.3z"/>
     <polygon class="fil5" points="21383.12,5284.56 22904.32,5049.87 22929.11,5209.62 21407.92,5444.31 "/>
     <polygon class="fil6" points="21271.47,7227.45 21330.44,6294.75 19712.31,6249.11 19661.02,7227.45 "/>
     <polygon class="fil6" points="19648.72,7494.59 19597.75,8466.83 21184.01,8643.02 21256.63,7494.59 "/>
     <polygon class="fil6" points="21593.73,15097.91 21672.1,14720.3 20996.92,14720.3 20797.57,15097.91 "/>
     <polygon class="fil6" points="21433.74,15868.73 21545.02,15332.59 20673.68,15332.59 20390.64,15868.73 "/>
     <polygon class="fil6" points="20266.75,16103.41 19810.4,16967.85 21175.88,17111.14 21385.03,16103.41 "/>
     <polygon class="fil6" points="22227.65,16717.46 22916.72,16717.46 22916.72,15332.59 22227.65,15332.59 "/>
     <polygon class="fil6" points="22916.72,17547.32 21941.7,17547.32 21941.7,17121.94 22916.72,17121.94 "/>
     <polygon class="fil5" points="10779.87,17537.64 12588.97,19311.88 12475.2,19427.24 10666.1,17653.01 "/>
     <polygon class="fil5" points="8582.72,17961.21 8425.7,19378.44 8264.26,19360.68 8421.29,17943.46 "/>
     <polygon class="fil5" points="13329.96,13113.78 16085.21,17111.83 15951.74,17203.74 13196.49,13205.69 "/>
     <polygon class="fil6" points="20638.99,18996.32 19605.88,18996.32 19605.88,18388.43 20638.99,18388.43 "/>
     <polygon class="fil6" points="21867.34,18574.4 21625.45,19369.56 22611.61,19369.56 22575.06,18692.38 "/>
     <polygon class="fil6" points="9033.47,17281.59 6858.79,17281.59 6858.79,16389.06 9033.47,16389.06 "/>
     <polygon class="fil6" points="10896.18,14263.22 9780.29,15900.97 11021.77,16500.38 11777.59,14614.83 "/>
     <line class="fil4 str2" x1="10661.09" y1="19369.56" x2="14218.37" y2= "8758.2" />
     <path class="fil4 str2" d="M14218.37 8758.2c608.77,-1816 2174.13,-3147.55 4068.07,-3460.46"/>
     <polygon class="fil7" points="18255.17,5106.05 22885.45,4341.05 22947.98,4724.43 18317.71,5489.43 "/>
     <polygon class="fil7" points="11756.73,19304.9 17486.83,3077.14 17854.41,3206.45 12124.31,19434.22 "/>
     <polygon class="fil7" points="22950.27,3597.32 15347.3,4923.73 15280.19,4540.35 22883.16,3213.94 "/>
     <path class="fil4 str2" d="M15313.74 4732.04c-2419.52,422.11 -4910.6,96.95 -7139.77,-931.94"/>
     <line class="fil4 str2" x1="8173.97" y1="3800.1" x2="6747.72" y2= "3141.8" />
     <polygon class="fil6" points="14159.63,15903.62 14345.26,16275.46 14933.84,16102.36 14683.26,15711.36 "/>
     <polygon class="fil6" points="14593.57,15571.4 14283.08,15086.92 13834.3,15251.85 14086.7,15757.49 "/>
    </g>
   </g>
   <path class="fil8 str3" d="M14850 2979.32c4545.68,0 8230.68,3685 8230.68,8230.68 0,4545.68 -3685,8230.68 -8230.68,8230.68 -4545.68,0 -8230.68,-3685 -8230.68,-8230.68 0,-4545.68 3685,-8230.68 8230.68,-8230.68z"/>
   <path class="fil9" d="M8737.11 12914.04l803.79 -839.32c56.45,-65.27 102.31,-118 157.34,-180.67 447.83,-509.98 1026.09,-1388.98 1246.64,-2102.17 246.85,-798.26 79.55,-1563.61 -360.35,-2072.11 -459.52,-531.18 -1070.32,-847.42 -1823.04,-851.48 -911.46,-4.92 -1728.66,497.64 -2108.18,1249.87l-1276.89 0c-224.3,0 -407.82,183.51 -407.82,407.81l0 0.01c0,224.3 183.52,407.81 407.82,407.81l1056.56 0 59.03 0c224.29,0 407.81,183.52 407.81,407.82l0 0c0,209.7 -160.41,383.73 -364.57,405.5l0.71 2.31 -1998.93 0c-224.3,0 -407.81,183.52 -407.81,407.82l0 0c0,224.3 183.51,407.82 407.81,407.82l2341.94 0 192.65 0 279.11 0c224.3,0 407.81,183.51 407.81,407.81l0 0c0,210.71 -161.94,385.41 -367.51,405.81l1.45 2.01 -1673.55 0c-224.3,0 -407.82,183.51 -407.82,407.81l0 0.01c0,224.3 183.52,407.81 407.82,407.81l2330.52 0c10.76,12.76 21.48,25.66 32.13,38.72l655.53 679z"/>
   <circle class="fil10" cx="8744.11" cy="9092.51" r="1070.75"/>
   <path class="fil11" d="M8263.64 9410.81l11.34 -72.56c8.75,-5.01 11.24,2.79 21.6,-0.14 1.68,-64.12 -7.74,-61.42 -11.28,-88.06 -7.77,-58.2 9.74,29.86 1.85,-78.02 -1.41,-19.36 4.21,-50.42 4.55,-61.03 1.12,-34.37 -20.96,-75.15 -22.87,-103.7 -4.57,-67.9 -15.35,-33.73 -26.64,-100.97 49.3,42.63 129.3,280.79 148.72,309.17l61.85 182.92c15.32,61.53 36.11,127.51 51.93,189.35 16.97,66.35 27.44,126.59 42.51,194.21l4.43 30.68c18.63,38.46 41.1,232.15 50.83,341.32 41.81,4.68 81.84,8.2 129.16,9.28 47.32,1.08 78.7,0 126.08,-5.95 18.69,-115.4 41.03,-254.98 71.47,-337.12l35.71 -143.05c8.7,-10.36 32.46,-98.5 42.47,-124.84 9.25,-24.33 46.53,-108.79 48.05,-129.13 15.97,-24.31 29.58,-63.1 43.39,-94.65 15.92,-36.38 36.6,-68.18 48.34,-101.58 9.44,-12.39 26.09,-44.1 36.4,-62.46 17.63,-31.44 21.67,-45.58 45.82,-62.14 -0.7,3.58 -49.05,132.59 -50.74,175.42 -0.64,15.98 4.95,31.03 4.6,52.62 -0.5,30.71 -11.76,32.8 -6.4,56.65 12.99,57.71 -5.95,38.33 -3.34,71.64 3.43,43.96 -5.63,16.7 15.23,32.08 2.27,-10.35 -11.76,-5.66 8.23,-9.6 3,49.23 42.18,171.17 67.85,200.68 113.23,-164.04 13.45,-203.1 78.05,-228.41l-6.9 -85.29 23.09 -7.41c-4.82,-24.99 -12.19,-46.35 -17.32,-68.94 -18.87,-83.23 19.31,39.48 -8.64,-95.68 -2.12,-10.24 -2.41,-3.88 -1.79,-16.35 2.78,-54.84 -7.37,38.63 3.45,-14.05 0.24,-1.18 1.17,-3.28 1.37,-4.46 3.53,-22 -7.12,-31.36 -13.74,-54.95 15.72,15.43 42.82,49.22 63.83,61.33 0.74,0.43 2.79,1.18 3.51,1.6 33.27,19.51 57.65,86.04 93.28,133.15l15.1 23.12c62.81,97.78 53.97,159.9 70.01,184.33 60.09,-110.77 41.74,-300.59 -85.83,-402.3 -21.82,-17.4 -82.1,-65.01 -105.61,-73.87 50.44,-5.57 214.65,56.82 264.32,80.42 63.04,29.94 94.82,80.05 121.18,93.85 0.31,-99.11 -84.53,-170.8 -150.57,-207.19 -90.36,-49.79 -199.89,-62.73 -315.42,-55.17 -0.59,-167.44 27.71,-160.44 -54.45,-298.04 -53.04,-88.83 -143.13,-112.75 -271.18,-109.9l24.5 17.81c135.4,75.8 72.53,55.75 147,146.53 11.75,14.31 24.39,29.77 30.34,46.41 9.3,25.94 -9.34,-7.98 11,25.41l34.83 69.94c10.02,22.49 10.6,54.44 10.84,80.19 -62.01,-27.55 -114.2,-94.28 -252.26,-131.54 -104.72,-28.26 -191.84,-27.21 -274.55,41.51 -17.63,14.65 -15.65,8.91 -23.99,27.72 161.49,6.49 203.38,-2.76 340.5,53.85 48.45,19.99 -9.67,4.08 82.14,38.17l10.45 4.69c44.04,18.6 39.54,7.87 70.24,30.36 -114.29,1.35 -181.75,-3.25 -278.05,46.49 -56.82,29.36 -149.92,100.95 -155.41,172.15l-10.77 24.03c-0.89,2.65 -5.28,22.74 -5.58,23.94 -2.58,38.55 -6.66,89.48 7.69,123.51l23.14 -41.45c11,-27.66 5.06,-27.52 26.27,-42.36l10.28 -10.33c78.23,-87.2 46,-6.88 74.96,-71.51 64.71,-18.42 15.25,-16.5 68.19,-49.02 35.86,-22.02 1.65,13.07 74.17,-38.64 49.71,-35.46 98.09,-76.46 176.07,-81.64 -13.73,27.81 -62.49,74.1 -100.63,154.28l-38.35 77.11c-11.62,24.88 -21.24,47.06 -33.22,69.97l-5.47 14.83c-17.27,33.56 -24.63,84.52 -53.63,110.4 -1.91,30.6 -39.93,119.01 -57.02,146.44 -6.66,34.45 -17.89,50.84 -21.83,73.18 -3.24,5.36 -6.36,10.42 -9.8,15.64 -0.77,1.14 -3.17,6.28 -3.76,5.04 -0.59,-1.24 -2.62,3.29 -3.9,4.96 0.54,25.44 -11.82,48.76 -19.12,74.37 -28.39,38.87 -100.11,308.56 -109.17,329.73l-5.51 10.92c-11.18,-94.24 -51.54,-259.62 -82.38,-340.65 -18.3,-67.38 -41.6,-134.34 -62.01,-201.25l-45.6 -142.62c-3.7,-11.28 -6.8,-23.17 -12.17,-33.83 -6.35,-12.64 -2.95,-7.56 -10.01,-15.99 0.35,-24.95 -20.67,-74.9 -32.02,-95.31l-15.39 -62.26c-1.27,-1.4 -2.66,-3.53 -3.39,-4.55l-14.11 -19.88c-0.64,-3.05 -2.37,-3.62 -3.75,-5.27 -0.81,-39.4 -89.76,-227.59 -119.64,-283.27 -18.95,-35.29 -37.89,-53.15 -53.11,-86.05 66.81,6.91 105.46,38.76 144.02,70.5 79.52,65.45 34.85,35.69 86.96,59.79l101.39 91.91c47.64,26.11 20.01,22.49 49.79,49.96 30.47,28.08 39.51,47.69 49.24,109.86 40.16,-41.46 28.16,-224.3 -82.09,-336.08 -88.42,-89.64 -177.02,-111.05 -338.97,-106.59 19.68,-19.78 76.59,-37.75 106.7,-49.86 18.45,-7.43 37.78,-30.95 100.43,-57.3 84.51,-35.53 182.6,-31.99 281.19,-36.97 -10.95,-29.59 -69.07,-71.99 -106.98,-84.98 -190.88,-65.4 -395.53,141.55 -426.63,155.3 -0.16,-60.29 0.48,-70.82 23.62,-112.34 19.87,-35.7 1.23,2.19 4.99,-23.66 5.26,-36.2 86.36,-159.55 89.21,-166.05 0.76,-1.73 11.57,-51.67 78.91,-96.08 19.88,-13.11 42.08,-21.11 57.24,-36.19 -119.74,-3.77 -211.93,19.3 -265.2,122.05 -74.33,143.39 -61.74,160.51 -53.06,336.68 -126.83,-7.17 -221.63,6.85 -312.05,66.5 -57.11,37.69 -146.24,120.75 -139.82,229.1 25.11,-19.42 43.3,-52.56 65.57,-69.79l91.95 -58.6c27.79,-15.99 178.83,-69.38 213.94,-69.78 -71.27,63.48 -143.19,99.48 -184.61,204.55 -31.37,79.58 -47.52,265.21 4.09,336.01 11.16,-53.43 10.85,-90.94 32.62,-140.5l43.89 -92.3c29.11,-45.52 64.71,-126.48 86.3,-145.21 0.69,-0.59 2.58,-1.7 3.26,-2.21 25.1,-18.86 44.42,-47.99 66.48,-75.86 -2.69,21.87 -4.58,14.75 -8.81,32.91 -13.31,57.07 -2.24,17.24 1.93,35.76 5.2,23.1 -7.19,46.15 -12.44,73.7 -11.37,59.73 17.51,-7.89 1.63,67.86 -6.08,28.98 -12,50.97 -16.77,80.65l23.23 7.53 -17.69 90.15c2.52,0.79 4.71,-0.36 5.1,1 5.13,17.7 -2.74,-11.58 23,6.78 -0.16,73.53 1.61,172.02 52.15,237.35 7.61,9.83 3.56,5.36 11.74,12.24l50.66 -146.76z"/>
   <circle class="fil10" cx="4422.06" cy="11813.48" r="145.66"/>
   <circle class="fil10" cx="3563.75" cy="10121.32" r="370.84"/>
   <circle class="fil10" cx="4892.69" cy="11813.47" r="252.3"/>
   <circle class="fil10" cx="2819.24" cy="10121.31" r="252.3"/>
   <circle class="fil10" cx="2348.61" cy="10121.31" r="145.66"/>
   <circle class="fil10" cx="4640.39" cy="8484.51" r="145.66"/>
   <path class="fil12" d="M15753.84 15559.19c-33.04,-11.01 -49.56,-30.97 -49.56,-60.57 0,-33.03 8.95,-68.13 27.53,-104.61 25.47,-36.48 60.57,-61.26 104.62,-74.33 44.05,-13.08 86.03,-15.83 126.64,-8.26 128.7,36.48 258.09,66.07 388.17,88.09 130.08,22.03 263.6,40.61 399.18,55.06 -40.6,-95.66 -66.76,-206.47 -79.83,-333.11 -13.08,-126.64 -17.21,-247.08 -13.77,-360.64 3.44,-132.15 14.46,-266.35 33.04,-401.94 29.59,-282.87 83.28,-560.92 162.42,-834.16 79.15,-273.23 165.87,-528.57 261.54,-765.33 95.67,-236.76 189.96,-446.68 283.56,-630.44 93.6,-183.76 170,-326.92 228.5,-429.47 -80.53,7.57 -154.86,14.46 -223,22.03 -68.13,7.57 -136.96,16.51 -206.47,27.53 -69.51,11.01 -143.16,24.77 -220.24,41.29 -77.08,16.52 -165.18,35.79 -264.29,57.81 -14.45,3.45 -35.1,5.51 -60.56,5.51 -36.48,-7.57 -72.27,-19.27 -107.37,-35.79 -35.1,-16.52 -66.76,-35.79 -96.36,-57.81 -25.46,-22.03 -33.72,-48.18 -24.77,-79.15 8.94,-30.97 30.28,-52.31 63.32,-63.32 227.81,-65.38 461.81,-112.18 702.01,-141.78 240.2,-28.91 496.23,-39.92 768.09,-32.35 198.21,11.02 374.41,30.97 528.57,59.88 66.08,11.01 130.08,26.15 192.71,44.05 62.63,18.58 117.69,39.92 165.18,66.07 47.49,25.47 86.04,55.75 115.63,90.16 29.59,35.1 41.98,74.33 38.54,118.38 -7.57,73.64 -35.1,136.96 -82.59,189.96 -47.49,52.99 -103.92,98.42 -167.93,134.89 -64.01,36.48 -127.33,66.08 -189.96,88.1 -62.63,22.02 -112.18,36.48 -148.66,44.05 -18.58,7.57 -35.1,6.19 -49.55,-2.75 -14.46,-8.95 -22.03,-22.72 -22.03,-41.3 -7.57,-29.59 -5.5,-57.12 5.51,-82.59 11.01,-25.46 30.97,-38.54 60.56,-38.54 25.47,-3.44 62.63,-11.01 110.12,-22.03 47.49,-11.01 97.05,-27.53 148.67,-49.55 51.61,-22.02 99.1,-50.24 143.15,-85.34 44.05,-35.1 75.02,-79.84 93.6,-134.9 7.57,-22.02 -0.68,-41.98 -24.77,-60.57 -24.09,-18.58 -57.13,-33.03 -99.11,-44.04 -41.98,-11.02 -92.91,-19.27 -151.42,-24.78 -58.5,-5.51 -117.69,-10.32 -176.19,-13.77 -143.15,-7.57 -308.33,-7.57 -495.54,0 -11.01,2.76 -30.97,4.13 -60.56,4.13 -139.72,264.29 -261.54,517.57 -366.15,759.83 -104.62,242.27 -189.96,457 -256.03,644.2 -80.53,220.24 -146.6,426.03 -198.22,616.68 -84.65,359.95 -132.83,650.39 -145.91,872.7 -13.07,222.3 -7.57,397.12 16.52,525.82 24.09,128.7 58.5,218.18 104.61,269.79 46.12,51.62 87.41,82.59 123.89,93.61 3.44,3.44 6.19,5.5 8.26,5.5 2.06,0 4.82,2.07 8.26,5.51 179.63,0 357.89,-8.26 534.08,-24.78 176.19,-16.52 352.38,-43.36 528.58,-79.84 58.5,-11.01 99.1,8.95 121.13,60.57 11.01,22.02 11.01,41.98 0,60.57 -11.01,18.58 -25.47,30.97 -44.05,38.54 -421.9,106.68 -851.37,165.87 -1288.4,178.94 -437.04,13.08 -864.45,-37.85 -1282.9,-151.41zm1690.34 -341.37c-143.15,0 -222.3,-94.29 -236.75,-283.56 -14.46,-189.27 16.51,-450.81 93.6,-784.61 102.55,-396.43 207.16,-759.83 313.84,-1090.19 44.05,-139.71 91.54,-278.74 143.16,-418.45 51.61,-139.72 102.55,-269.11 154.16,-388.17 51.62,-119.07 103.93,-222.31 156.92,-308.34 53,-86.03 103.93,-145.91 151.42,-178.95 73.64,-51.61 121.82,-47.49 145.91,11.02 24.09,58.5 29.59,151.41 16.52,278.05 -13.08,126.64 -41.99,277.36 -88.1,451.49 -46.11,174.13 -104.61,353.07 -176.19,536.84 -71.58,183.76 -154.17,361.33 -247.77,534.08 -93.6,172.75 -192.02,321.41 -294.57,445.98 -7.57,36.48 -13.77,68.83 -19.27,96.36 -5.51,27.53 -11.7,50.24 -19.27,68.82 -7.57,22.03 -13.08,41.99 -16.52,60.57 -11.01,55.06 -24.78,123.2 -41.3,203.72 -16.52,80.53 -28.22,159.68 -35.79,236.76 -7.57,77.08 -10.32,143.16 -8.26,198.22 2.07,55.06 17.21,86.03 46.81,93.6 29.59,7.57 63.31,-6.2 101.86,-41.3 38.54,-35.1 76.39,-77.77 112.87,-129.39 36.48,-51.62 69.51,-104.61 99.11,-159.67 29.59,-55.06 51.62,-102.55 66.07,-143.16 7.57,-18.58 19.27,-29.59 35.79,-33.03 16.52,-3.45 30.28,3.44 41.29,22.02 3.45,7.57 7.57,13.77 11.02,19.27 3.44,5.51 7.57,11.7 11.01,19.27 3.44,18.58 3.44,35.1 0,49.56 -7.57,29.59 -26.84,77.77 -57.82,145.91 -30.97,68.13 -70.88,138.33 -118.37,211.98 -47.49,73.64 -101.18,137.65 -159.68,192.71 -58.5,55.06 -119.07,82.59 -181.7,82.59zm809.39 -3270.57c-47.49,77.09 -97.05,179.64 -148.67,308.34 -51.61,128.7 -101.86,267.73 -151.41,418.45 -49.56,150.73 -97.04,306.28 -143.16,468.01 -46.11,161.74 -87.4,313.85 -123.88,457 139.71,-264.29 247.08,-498.98 322.1,-704.77 75.02,-205.78 131.45,-377.85 167.93,-517.56 40.61,-165.18 66.07,-308.34 77.09,-429.47zm-429.47 3320.12c-14.45,-11.01 -22.02,-29.59 -22.02,-55.06 0,-36.48 2.75,-99.8 8.26,-189.96 5.5,-90.16 17.2,-209.91 35.79,-360.64 18.58,-150.73 44.04,-333.8 77.08,-550.6 33.04,-216.8 79.15,-468.01 137.65,-754.32 58.5,-304.9 130.08,-578.13 214.73,-820.4 84.66,-242.26 171.38,-445.98 261.54,-611.16 90.16,-165.18 178.94,-289.07 267.04,-371.66 88.1,-82.59 167.24,-114.93 236.76,-96.35 44.05,11.01 69.51,63.32 77.08,156.92 7.57,93.6 -2.75,209.92 -30.28,349.63 -27.53,139.71 -69.51,294.57 -126.64,465.26 -57.12,170.68 -124.57,340.68 -203.72,509.3 -79.15,168.62 -167.25,328.3 -264.29,479.02 -97.04,150.73 -198.9,275.3 -305.58,374.41 -18.58,121.13 -36.48,247.77 -55.06,379.92 -18.58,132.14 -35.1,267.73 -49.56,407.44 51.62,-110.12 112.88,-222.99 184.45,-338.62 71.58,-115.62 154.86,-217.49 250.53,-305.58 33.03,-33.04 72.26,-50.24 118.38,-52.31 46.11,-2.06 87.4,13.77 123.88,46.8 22.03,18.58 29.6,41.99 22.03,71.58 -25.47,95.67 -51.62,200.28 -77.09,313.84 -25.46,113.56 -46.11,220.93 -60.56,322.1 -14.46,101.18 -19.96,186.52 -16.52,256.03 3.44,69.52 22.02,106.68 55.06,110.12 29.59,3.44 60.56,-13.07 93.6,-49.55 33.04,-36.48 63.32,-81.9 90.85,-134.9 27.53,-52.99 52.99,-108.05 77.08,-165.18 24.09,-57.12 43.36,-105.3 57.82,-145.91 7.57,-18.58 19.27,-29.59 35.78,-33.03 16.52,-3.45 30.29,3.44 41.3,22.02 7.57,11.01 14.45,24.09 22.02,38.54 3.45,18.58 3.45,35.1 0,49.56 -7.57,29.59 -22.71,79.14 -46.8,148.66 -24.09,69.51 -55.06,140.4 -93.6,211.98 -38.54,71.58 -84.65,134.9 -137.65,189.96 -52.99,55.06 -110.81,82.59 -173.44,82.59 -73.64,0 -126.64,-30.29 -159.67,-90.85 -33.04,-60.57 -54.37,-136.96 -63.32,-228.5 -8.95,-91.54 -7.57,-193.4 5.5,-305.58 13.08,-112.19 30.29,-219.56 52.31,-322.11 -77.08,102.55 -156.23,237.45 -236.76,404.7 -80.52,167.24 -152.1,369.59 -214.73,608.41 0,14.45 -8.95,25.46 -27.53,33.03 -22.02,3.45 -50.24,2.76 -85.34,-2.75 -35.1,-5.51 -66.76,-21.33 -96.36,-46.8zm1139.74 -3633.96c-18.58,0 -52.99,38.54 -104.61,115.63 -51.62,77.08 -112.18,192.71 -181.7,346.87 -69.51,154.17 -143.15,346.19 -220.24,575.38 -77.08,229.19 -146.6,498.29 -209.23,806.63 66.08,-88.1 143.16,-203.03 231.26,-344.12 88.09,-141.1 167.24,-303.52 236.75,-487.29 66.08,-176.19 118.38,-328.29 156.92,-456.99 38.55,-128.71 66.08,-234.01 82.59,-316.6 16.52,-82.59 24.78,-143.15 24.78,-181.7 0,-38.54 -5.5,-57.81 -16.52,-57.81zm275.31 3661.49c-106.68,-14.45 -181.01,-70.89 -223,-167.93 -41.98,-97.05 -65.38,-208.54 -68.82,-333.12 -3.44,-124.57 8.26,-249.83 35.79,-374.4 27.53,-124.58 55.75,-225.75 85.34,-302.83 25.47,-69.52 62.63,-143.85 110.12,-223 47.49,-79.15 101.86,-149.35 162.43,-211.98 60.56,-62.63 127.33,-108.05 200.97,-137.65 73.64,-29.59 150.72,-30.97 231.25,-5.5 36.48,14.45 66.07,38.54 88.1,71.57 18.58,29.6 30.28,68.14 35.78,115.63 5.51,47.49 -4.81,113.56 -30.28,198.22 -36.48,99.1 -84.65,185.14 -143.15,258.78 -51.62,62.63 -118.38,120.44 -200.97,173.44 -82.59,52.99 -187.9,77.77 -316.6,74.33 -11.01,51.62 -21.33,114.94 -30.28,189.96 -8.95,75.01 -13.77,150.72 -13.77,225.74 0,75.02 8.26,140.4 24.78,195.46 16.52,55.06 44.74,88.1 85.34,99.11 62.63,18.58 119.07,17.21 170.69,-2.75 51.62,-19.96 97.04,-44.74 137.65,-74.33 44.05,-36.48 86.03,-79.15 126.64,-126.64 22.02,-25.47 47.49,-58.5 77.08,-99.11 29.6,-40.6 57.13,-81.9 82.59,-123.88 25.47,-41.99 49.56,-83.28 71.58,-123.89 22.02,-40.6 38.54,-71.58 49.55,-93.6 7.57,-18.58 19.96,-28.22 38.55,-30.28 18.58,-2.07 30.97,4.81 38.54,19.27 7.57,14.45 13.07,27.53 16.52,38.54 0,7.57 -3.45,22.02 -11.02,44.05 -7.57,14.45 -19.27,39.23 -35.79,74.33 -16.51,35.1 -37.85,75.02 -63.31,121.13 -25.47,46.11 -53,92.91 -82.59,140.4 -29.6,47.49 -60.57,93.61 -93.61,137.65 -44.04,58.51 -93.6,108.06 -148.66,148.67 -51.62,36.47 -110.81,66.76 -178.94,90.84 -68.14,24.09 -143.85,28.22 -228.5,13.77zm33.03 -1084.68c0,7.57 -2.06,14.45 -5.5,22.02 -3.44,7.57 -6.2,14.46 -8.26,22.03 -2.07,7.57 -6.2,16.51 -13.77,27.53 73.65,-7.57 149.35,-32.35 228.5,-74.33 79.15,-41.99 145.91,-112.88 200.97,-211.99 33.04,-62.63 53,-112.18 60.57,-148.66 7.57,-36.48 7.57,-66.07 0,-88.09 -7.57,-25.47 -19.96,-46.12 -38.54,-60.57 -22.03,0 -46.81,2.75 -74.34,8.26 -27.53,5.51 -58.5,24.09 -93.6,55.06 -35.1,30.97 -73.64,81.9 -115.62,151.41 -41.99,69.52 -88.79,168.63 -140.41,297.33zm571.25 -809.38c-18.58,-3.45 -46.11,-19.96 -82.59,-49.56 -36.48,-29.59 -73.64,-59.88 -110.12,-90.85 -36.48,-30.97 -65.38,-59.87 -85.34,-85.34 -19.96,-25.47 -21.34,-38.54 -2.75,-38.54 106.67,14.45 182.38,19.27 228.49,13.76 46.12,-5.5 87.41,-4.81 123.89,2.76 33.04,11.01 58.5,32.34 77.08,63.32 18.59,30.97 24.09,65.38 16.52,101.86 -11.01,33.03 -32.35,58.5 -63.32,77.08 -30.97,18.58 -65.38,19.96 -101.86,5.51zm1000.71 1816.98c-95.66,0 -160.36,-50.25 -195.46,-151.42 -35.1,-101.17 -48.86,-220.93 -41.29,-360.64 -55.06,143.15 -114.94,270.48 -179.64,382.67 -64.69,112.18 -131.45,176.88 -201.65,195.46 -62.63,14.45 -112.19,3.44 -148.67,-33.04 -22.02,-18.58 -39.23,-41.29 -52.3,-68.82 -13.08,-27.53 -22.71,-54.37 -30.29,-79.84 -11.01,-29.59 -16.51,-58.5 -16.51,-88.1 -11.02,-88.09 -11.02,-189.26 0,-302.83 11.01,-113.56 27.53,-225.74 49.55,-335.86 22.02,-110.12 46.8,-211.98 74.33,-305.58 27.53,-93.61 52.31,-165.87 74.33,-217.49 7.57,-14.46 18.59,-29.6 33.04,-44.05 15.14,-11.01 35.1,-22.02 60.56,-33.04 26.16,-11.01 59.19,-19.96 99.8,-27.53 18.58,-3.44 32.35,0 41.3,11.02 8.94,11.01 10.32,24.08 2.75,38.54 -18.58,40.6 -39.23,99.11 -63.32,176.19 -24.09,77.08 -48.18,160.36 -72.27,250.52 -23.4,90.16 -44.73,181.7 -63.32,275.3 -18.58,93.61 -29.59,175.51 -33.03,245.02 -3.44,62.63 -4.82,116.31 -2.75,162.43 2.06,46.11 2.75,88.78 2.75,129.39 11.01,18.58 30.28,8.95 57.81,-27.53 27.53,-36.48 59.88,-88.79 97.04,-156.92 36.48,-68.14 76.4,-145.91 118.38,-234.01 42.68,-88.09 81.91,-174.13 119.07,-258.78 36.48,-84.65 69.51,-159.67 99.11,-225.75 29.59,-66.07 49.55,-113.56 60.56,-143.15 33.04,-121.13 64.01,-209.23 93.61,-264.29 7.57,-14.45 18.58,-29.59 33.03,-44.05 14.46,-11.01 35.1,-22.71 60.57,-35.79 25.46,-13.07 58.5,-22.71 99.11,-30.28 14.45,0 27.53,5.51 38.54,16.52 11.01,11.01 13.08,22.02 5.5,33.03 -18.58,44.05 -38.54,107.37 -60.56,189.96 -22.03,82.59 -44.74,173.44 -68.83,272.55 -24.08,99.11 -44.73,200.28 -63.32,302.83 -18.58,102.55 -30.97,196.15 -38.54,280.8 -7.57,84.66 -8.26,154.17 -2.75,209.23 5.51,55.06 21.34,82.59 46.8,82.59 29.6,3.44 60.57,-13.07 93.6,-49.55 33.04,-36.48 63.32,-81.9 90.85,-134.9 27.53,-52.99 53,-108.05 77.09,-165.18 24.08,-57.12 41.29,-105.3 52.3,-145.91 7.57,-18.58 19.96,-29.59 38.54,-33.03 18.59,-3.45 33.04,3.44 44.05,22.02 3.44,7.57 7.57,13.77 11.01,19.27 3.45,5.51 7.58,11.7 11.02,19.27 3.44,18.58 3.44,35.1 0,49.56 -7.57,29.59 -24.09,79.14 -49.56,148.66 -25.46,69.51 -57.81,140.4 -96.35,211.98 -38.54,71.58 -83.28,134.9 -134.9,189.96 -51.62,55.06 -108.05,82.59 -170.69,82.59zm1390.27 -1002.1c7.57,22.03 3.44,43.36 -11.01,63.32 -14.46,19.96 -33.04,32.35 -55.06,35.79 -51.62,7.57 -115.63,18.58 -192.71,33.04 -77.09,14.45 -157.61,41.98 -242.27,82.59 22.03,51.62 44.74,121.82 68.83,211.98 24.09,90.16 24.78,182.39 2.75,278.05 -11.01,47.49 -25.46,91.54 -44.05,132.15 -18.58,40.6 -41.98,80.52 -71.57,121.13 -29.6,40.6 -69.52,75.02 -121.14,104.61 -44.04,25.47 -101.17,40.61 -170.68,44.05 -69.52,3.44 -128.7,-8.95 -176.19,-38.54 -47.49,-29.6 -82.59,-66.07 -104.62,-110.12 -18.58,-40.61 -28.22,-90.16 -30.28,-148.66 -2.07,-58.51 22.71,-130.08 74.33,-214.74 40.61,-66.07 83.28,-137.65 129.39,-214.73 46.11,-77.09 105.3,-139.72 178.95,-187.21 -33.04,-51.61 -66.76,-99.79 -101.87,-145.9 -35.1,-46.12 -61.25,-93.61 -79.83,-143.16 -18.58,-49.55 -26.84,-103.93 -24.78,-162.43 2.07,-58.5 19.27,-126.64 52.31,-203.72 47.49,-106.68 99.79,-181.01 156.92,-222.99 57.12,-41.99 110.81,-68.83 162.43,-79.84 58.5,-14.45 119.06,-13.08 181.69,5.51 29.6,14.45 53,38.54 71.58,71.57 14.46,29.6 24.78,66.76 30.28,112.88 5.51,46.11 -0.68,107.36 -19.27,184.45 -22.02,77.08 -48.86,135.58 -79.83,176.19 -30.97,40.61 -62.63,66.07 -93.61,77.08 -30.97,11.02 -58.5,10.33 -82.59,-2.75 -24.08,-13.08 -37.85,-33.72 -41.29,-63.32 -3.44,-22.02 0.69,-50.24 13.76,-85.34 13.08,-35.1 25.47,-68.83 38.55,-101.86 13.07,-33.04 21.33,-62.63 24.77,-88.1 3.45,-25.46 -5.5,-38.54 -27.53,-38.54 -18.58,0 -36.47,5.51 -55.06,16.52 -18.58,11.01 -35.79,27.53 -52.3,49.55 -16.52,22.03 -33.73,57.13 -52.31,104.62 -18.58,44.04 -25.47,82.59 -22.02,115.62 3.44,33.04 13.76,64.01 30.28,93.6 16.52,29.6 38.54,60.57 66.07,93.61 27.53,33.03 57.81,73.64 90.85,121.13 0,0 2.06,2.06 5.51,5.5 168.62,-73.64 335.86,-119.06 501.04,-137.65 40.61,0 64.01,18.59 71.58,55.06zm-908.49 902.99c33.04,7.57 65.38,2.06 96.35,-16.52 30.98,-18.58 58.51,-44.74 82.59,-79.84 24.09,-35.1 44.74,-74.33 63.32,-118.38 18.59,-44.04 29.6,-88.09 33.04,-132.14 0,-29.59 -7.57,-66.76 -22.02,-112.87 -14.46,-46.12 -27.53,-81.9 -38.55,-107.37 -40.6,29.59 -73.64,71.58 -99.1,126.64 -25.47,55.06 -55.06,104.61 -88.1,148.66 -33.04,47.49 -57.12,91.54 -71.58,132.14 -14.45,33.04 -21.33,65.39 -19.27,96.36 2.07,30.97 22.71,52.31 63.32,63.32z"/>
   <path class="fil13" d="M14145.42 12477.34c0,127.27 -40.87,232.36 -122.6,314.09 -80.57,81.74 -184.49,122.61 -311.76,122.61 -126.1,0 -231.19,-40.87 -311.75,-122.61 -81.74,-81.73 -122.61,-186.82 -122.61,-314.09l0 -1639.35c0,-106.26 -37.36,-196.17 -112.09,-270.89 -74.73,-74.73 -164.63,-112.1 -269.72,-112.1 -105.09,0 -195,37.37 -269.72,112.1 -74.73,74.72 -112.1,164.63 -112.1,270.89l0 1639.35c0,127.27 -40.86,232.36 -122.6,314.09 -80.57,81.74 -184.48,122.61 -311.76,122.61 -126.1,0 -231.19,-40.87 -311.75,-122.61 -81.74,-81.73 -122.61,-186.82 -122.61,-314.09l0 -1642.86c0,-105.08 -37.36,-194.99 -112.09,-268.55 -74.73,-73.56 -164.63,-110.93 -269.72,-110.93 -105.09,0 -195,37.37 -269.72,112.1 -74.73,74.72 -112.1,164.63 -112.1,270.89l0 1639.35c0,127.27 -40.86,232.36 -122.6,314.09 -80.56,81.74 -184.48,122.61 -311.76,122.61 -126.1,0 -231.19,-40.87 -311.75,-122.61 -81.74,-81.73 -122.6,-186.82 -122.6,-314.09l0 -2454.36c0,-127.27 40.86,-232.36 122.6,-314.09 81.73,-81.74 185.65,-122.6 312.92,-122.6 121.44,0 221.85,37.36 301.25,113.26 163.47,-75.9 335.11,-113.26 513.76,-113.26 310.59,0 582.65,101.58 816.17,303.58 233.53,-202 505.59,-303.58 816.18,-303.58 345.62,0 641.03,121.43 885.06,365.46 244.04,244.04 365.47,539.45 365.47,886.24l0 1639.35zm3489.46 -1227.18c0,463.55 -161.13,857.04 -483.4,1179.31 -322.26,323.43 -714.59,484.57 -1176.97,484.57 -462.38,0 -854.7,-161.14 -1176.97,-484.57 -322.27,-322.27 -483.4,-715.76 -483.4,-1179.31 0,-463.55 161.13,-857.04 483.4,-1179.31 322.27,-323.43 714.59,-484.56 1176.97,-484.56 462.38,0 854.71,161.13 1176.97,484.56 322.27,322.27 483.4,715.76 483.4,1179.31zm-868.71 0c0,-220.68 -77.07,-408.67 -231.19,-563.97 -152.96,-154.12 -339.79,-231.19 -560.47,-231.19 -220.68,0 -407.5,77.07 -560.46,231.19 -154.13,155.3 -231.19,343.29 -231.19,563.97 0,220.68 77.06,408.67 231.19,563.97 152.96,154.12 339.78,231.19 560.46,231.19 220.68,0 407.51,-77.07 560.47,-231.19 154.12,-155.3 231.19,-343.29 231.19,-563.97zm4091.97 -1238.86c0,66.56 -17.51,135.45 -53.71,207.84l-1186.31 2372.63c-29.19,58.38 -64.22,116.76 -103.92,175.14 -85.24,98.09 -192.66,147.13 -323.44,147.13 -128.44,0 -237.03,-49.04 -323.43,-147.13 -19.85,-22.18 -53.71,-79.39 -101.59,-173.97l-1188.64 -2373.8c-33.87,-68.89 -51.38,-137.78 -51.38,-207.84 0,-119.09 46.71,-219.51 138.95,-302.41 92.24,-81.74 197.33,-122.6 316.43,-122.6 166.97,0 290.74,80.56 372.47,241.7l838.36 1673.21 836.02 -1673.21c81.74,-161.14 206.68,-241.7 374.81,-241.7 119.1,0 225.36,40.86 317.6,122.6 92.24,82.9 137.78,183.32 137.78,302.41zm2913.84 1839.02c0,67.73 -22.19,144.79 -65.39,230.03 -129.61,253.37 -330.44,456.54 -604.83,609.5 -262.72,149.46 -540.62,224.19 -832.53,224.19 -460.04,0 -852.37,-162.31 -1174.63,-485.74 -323.44,-323.43 -484.57,-715.76 -484.57,-1178.14 0,-462.38 161.13,-854.71 484.57,-1178.14 322.26,-323.43 714.59,-485.73 1174.63,-485.73 225.36,0 450.71,51.37 678.4,154.12 226.52,102.75 415.68,238.2 568.64,406.34 165.8,183.32 249.87,356.13 249.87,517.26 0,149.46 -72.39,265.05 -218.35,349.12l-1628.84 938.78c110.92,61.88 227.68,93.41 350.28,93.41 189.16,0 345.62,-53.71 470.56,-162.3 85.24,-98.08 170.47,-196.17 253.38,-293.08 114.42,-114.43 221.85,-171.64 323.43,-171.64 117.93,0 223.02,43.2 316.43,127.27 92.24,85.24 138.95,186.82 138.95,304.75zm-1146.62 -1307.74c-110.92,-58.39 -228.85,-87.58 -354.96,-87.58 -207.84,0 -388.82,71.23 -541.78,214.85 -151.79,143.62 -233.53,319.93 -244.03,530.1l1140.77 -657.37z"/>
   <path class="fil12" d="M14155.42 12477.34c0,64.9 -10.47,124.26 -31.4,177.87 -20.94,53.66 -52.34,101.5 -94.13,143.29 -82.55,83.68 -188.84,125.54 -318.83,125.54 -128.78,0 -236.26,-41.85 -318.78,-125.54l-0.08 -0.08c-41.81,-41.82 -73.19,-89.62 -94.1,-143.21 -20.93,-53.61 -31.4,-112.97 -31.4,-177.87l0 -1639.35c0,-51.86 -9.09,-99.65 -27.24,-143.48 -18.14,-43.8 -45.47,-83.89 -81.92,-120.34 -36.39,-36.42 -76.49,-63.74 -120.24,-81.92 -43.69,-18.16 -91.17,-27.25 -142.41,-27.25 -51.23,0 -98.72,9.09 -142.42,27.25 -43.74,18.17 -83.85,45.49 -120.23,81.88 -36.46,36.45 -63.76,76.53 -81.92,120.38 -18.16,43.88 -27.25,91.66 -27.25,143.48l0 1639.35c0,64.91 -10.47,124.27 -31.4,177.88 -20.91,53.59 -52.28,101.38 -94.09,143.2 -41.3,41.89 -88.59,73.32 -141.84,94.27 -53.13,20.89 -112.16,31.35 -177.03,31.35 -128.78,0 -236.26,-41.85 -318.78,-125.54l-0.08 -0.08c-41.81,-41.82 -73.19,-89.62 -94.1,-143.21 -20.93,-53.61 -31.4,-112.97 -31.4,-177.87l0 -1642.86c0,-51.28 -9.11,-98.81 -27.29,-142.39 -18.17,-43.52 -45.45,-83.28 -81.79,-119.05 -36.52,-35.95 -76.73,-63.03 -120.59,-81.07 -43.59,-17.93 -90.99,-26.97 -142.14,-26.97 -51.23,0 -98.72,9.09 -142.42,27.25 -43.74,18.17 -83.85,45.49 -120.23,81.88 -36.46,36.45 -63.76,76.53 -81.92,120.38 -18.16,43.88 -27.25,91.66 -27.25,143.48l0 1639.35c0,64.91 -10.47,124.27 -31.4,177.88 -20.91,53.59 -52.28,101.38 -94.09,143.2l-0.08 0.08c-82.52,83.69 -188.79,125.54 -318.79,125.54 -128.78,0 -236.26,-41.85 -318.78,-125.54l-0.08 -0.08c-41.81,-41.82 -73.18,-89.61 -94.09,-143.2 -20.93,-53.61 -31.4,-112.97 -31.4,-177.88l0 -2454.36c0,-64.91 10.47,-124.27 31.4,-177.88 20.92,-53.6 52.3,-101.41 94.13,-143.24 41.89,-41.89 89.46,-73.29 142.82,-94.22 53.29,-20.9 112.31,-31.35 177.17,-31.35 61.86,0 118.49,9.56 169.87,28.83 49.43,18.53 93.88,46.01 133.31,82.55 80.16,-36.71 162.34,-64.25 246.33,-82.77 86.72,-19.11 175.3,-28.61 265.5,-28.61 156.3,0 303.01,25.58 440.13,76.57 134.73,50.12 260.11,124.81 376.04,223.87 115.84,-98.98 241.1,-173.63 375.71,-223.74 137.2,-51.08 284.04,-76.7 440.47,-76.7 174.07,0 335.61,30.63 484.42,92 148.82,61.38 284.8,153.48 407.71,276.39 122.92,122.92 215.02,258.89 276.4,407.87 61.37,148.97 92,310.79 92,485.44l0 1639.35zm-50 170.61c19.99,-51.22 30,-108.15 30,-170.61l0 -1639.35c0,-172.12 -30.11,-331.42 -90.44,-477.86 -60.33,-146.42 -151,-280.21 -272.1,-401.31 -121.1,-121.1 -254.89,-211.76 -401.15,-272.09 -146.28,-60.33 -305.29,-90.44 -476.84,-90.44 -154.15,0 -298.67,25.18 -433.51,75.38 -134.89,50.21 -260.3,125.53 -376.15,225.74l-6.51 5.64 -6.53 -5.64c-115.95,-100.3 -241.47,-175.65 -376.48,-225.87 -134.75,-50.11 -279.15,-75.25 -433.17,-75.25 -88.97,0 -176.11,9.32 -261.2,28.07 -84.64,18.66 -167.51,46.7 -248.38,84.25l-6.15 2.86 -4.91 -4.69c-38.73,-37.02 -82.57,-64.66 -131.46,-82.98 -49.02,-18.38 -103.34,-27.51 -162.91,-27.51 -62.4,0 -119,9.98 -169.91,29.95 -50.81,19.92 -96.1,49.83 -135.94,89.68 -39.86,39.85 -69.74,85.38 -89.67,136.44 -19.99,51.22 -30,108.15 -30,170.62l0 2454.36c0,62.47 10.01,119.4 30,170.62 19.93,51.06 49.81,96.59 89.63,136.4l0.08 0.08c78.58,79.73 181.29,119.6 304.64,119.6 124.52,0 226.08,-39.88 304.65,-119.6l0.08 -0.08c39.82,-39.81 69.7,-85.34 89.63,-136.4 19.99,-51.22 30,-108.15 30,-170.62l0 -1639.35c0,-54.42 9.6,-104.75 28.81,-151.1 19.19,-46.3 47.95,-88.55 86.22,-126.82 38.34,-38.35 80.59,-67.09 126.71,-86.26 46.2,-19.2 96.25,-28.81 150.08,-28.81 53.68,0 103.61,9.57 149.72,28.53 46.28,19.03 88.63,47.53 126.99,85.29 38.3,37.69 67.05,79.63 86.25,125.61 19.22,46.07 28.85,96.16 28.85,150.05l0 1642.86c0,62.46 10.01,119.39 30,170.61 19.93,51.06 49.82,96.6 89.64,136.41l0.08 0.08c78.58,79.73 181.29,119.6 304.64,119.6 62.4,0 119.01,-9.99 169.77,-29.95 50.63,-19.92 95.61,-49.81 134.88,-89.65l0.08 -0.08c39.82,-39.81 69.7,-85.34 89.63,-136.4 19.99,-51.22 30,-108.15 30,-170.62l0 -1639.35c0,-54.42 9.6,-104.75 28.81,-151.1 19.19,-46.3 47.95,-88.55 86.22,-126.82 38.34,-38.35 80.59,-67.09 126.71,-86.26 46.2,-19.2 96.25,-28.81 150.08,-28.81 53.83,0 103.88,9.61 150.07,28.81 46.15,19.17 88.38,47.93 126.68,86.22 38.29,38.25 67.05,80.52 86.26,126.9 19.19,46.35 28.8,96.66 28.8,151.06l0 1639.35c0,62.46 10.01,119.39 30,170.61 19.93,51.06 49.82,96.6 89.64,136.41l0.08 0.08c78.58,79.73 181.29,119.6 304.64,119.6 124.51,0 226.07,-39.88 304.65,-119.6 39.89,-39.93 69.8,-85.46 89.71,-136.49zm3539.46 -1397.79c0,233.07 -40.57,448.66 -121.68,646.55 -81.08,197.81 -202.64,377.82 -364.65,539.83 -162.08,162.63 -341.84,284.51 -539.22,365.72 -197.41,81.23 -412.38,121.78 -644.82,121.78 -232.45,0 -447.4,-40.55 -644.82,-121.78 -197.39,-81.22 -377.13,-203.09 -539.2,-365.74 -162.03,-161.99 -283.59,-342 -364.67,-539.81 -81.11,-197.89 -121.68,-413.48 -121.68,-646.55 0,-233.07 40.57,-448.66 121.68,-646.55 81.08,-197.81 202.64,-377.82 364.65,-539.83 162.09,-162.63 341.83,-284.5 539.22,-365.72 197.42,-81.22 412.37,-121.77 644.82,-121.77 232.44,0 447.4,40.55 644.82,121.77 197.38,81.21 377.14,203.09 539.2,365.74 162.03,161.99 283.59,342 364.67,539.81 81.11,197.89 121.68,413.48 121.68,646.55zm-140.12 638.97c80.07,-195.35 120.12,-408.41 120.12,-638.97 0,-230.56 -40.05,-443.62 -120.12,-638.97 -80.04,-195.26 -200.17,-373.09 -360.35,-533.27 -160.18,-160.81 -337.75,-281.23 -532.66,-361.42 -194.89,-80.19 -407.32,-120.21 -637.24,-120.21 -229.93,0 -442.35,40.03 -637.24,120.21 -194.91,80.19 -372.48,200.62 -532.66,361.38 -160.18,160.22 -280.31,338.05 -360.35,533.31 -80.07,195.35 -120.12,408.41 -120.12,638.97 0,230.56 40.05,443.62 120.12,638.97 80.04,195.26 200.17,373.09 360.35,533.27 160.18,160.8 337.75,281.23 532.66,361.42 194.89,80.19 407.31,120.22 637.24,120.22 229.92,0 442.35,-40.03 637.24,-120.22 194.91,-80.19 372.48,-200.61 532.66,-361.38 160.18,-160.22 280.31,-338.05 360.35,-533.31zm-748.59 -638.97c0,-109.08 -19.01,-209.99 -57.02,-302.71 -38.02,-92.77 -95.12,-177.53 -171.24,-254.23 -75.53,-76.1 -159.41,-133.19 -251.56,-171.2 -92.14,-38 -192.77,-57.02 -301.84,-57.02 -109.07,0 -209.69,19.02 -301.83,57.02 -92.15,38.01 -176.03,95.1 -251.56,171.2 -76.12,76.7 -133.22,161.46 -171.24,254.23 -38.01,92.72 -57.02,193.63 -57.02,302.71 0,109.07 19.01,209.99 57.02,302.71 38.02,92.77 95.12,177.53 171.24,254.23 75.53,76.1 159.41,133.19 251.56,171.2 92.14,38 192.76,57.02 301.83,57.02 109.07,0 209.7,-19.02 301.84,-57.02 92.15,-38.01 176.03,-95.1 251.56,-171.2 76.12,-76.7 133.22,-161.46 171.24,-254.23 38.01,-92.72 57.02,-193.64 57.02,-302.71zm-38.58 -310.29c39.04,95.25 58.58,198.69 58.58,310.29 0,111.6 -19.54,215.04 -58.58,310.29 -39.02,95.21 -97.55,182.13 -175.54,260.71 -77.41,78 -163.47,136.54 -258.12,175.58 -94.66,39.04 -197.82,58.58 -309.42,58.58 -111.6,0 -214.75,-19.54 -309.41,-58.58 -94.65,-39.04 -180.71,-97.58 -258.12,-175.58 -77.99,-78.58 -136.52,-165.5 -175.54,-260.71 -39.04,-95.25 -58.58,-198.69 -58.58,-310.29 0,-111.6 19.54,-215.04 58.58,-310.29 39.02,-95.21 97.55,-182.13 175.54,-260.71 77.41,-78 163.47,-136.54 258.12,-175.58 94.66,-39.04 197.81,-58.58 309.41,-58.58 111.6,0 214.76,19.54 309.42,58.58 94.65,39.04 180.71,97.58 258.12,175.58 77.99,78.58 136.52,165.5 175.54,260.71zm4150.55 -928.57c0,34.01 -4.5,68.7 -13.63,104.19 -9.07,35.28 -22.76,71.28 -41.17,108.1l-1186.31 2372.63c-29.38,58.77 -64.65,117.55 -104.59,176.28l-0.7 0.93c-43.56,50.13 -92.87,87.78 -148.04,112.89 -55.23,25.14 -116.18,37.72 -182.94,37.72 -65.73,0 -126.45,-12.61 -181.83,-37.79 -55.21,-25.1 -105.03,-62.7 -149.1,-112.74 -10.57,-11.87 -24.67,-32.71 -42.22,-62.78 -16.77,-28.73 -37.05,-66.41 -60.78,-113.3l-1188.64 -2373.84c-17.29,-35.17 -30.4,-70.3 -39.17,-105.55 -8.81,-35.4 -13.3,-70.97 -13.3,-106.74 0,-60.98 12,-117.25 35.83,-168.96 23.77,-51.6 59.32,-98.52 106.44,-140.87 47.09,-41.7 97.44,-72.98 151.23,-93.83 53.89,-20.9 111.15,-31.35 171.88,-31.35 85.42,0 159.92,20.69 223.63,62.06 63.53,41.25 116.08,102.99 157.75,185.15l829.42 1655.4 827.1 -1655.36c41.73,-82.23 94.59,-143.98 158.57,-185.23 64.11,-41.34 139.2,-62.02 225.19,-62.02 60.77,0 118.38,10.47 172.6,31.4 54.03,20.85 104.62,52.12 151.6,93.74 47.24,42.42 82.51,89.36 105.98,140.95 23.52,51.67 35.2,107.94 35.2,168.92zm-32.93 99.27c8.66,-33.67 12.93,-66.73 12.93,-99.27 0,-58.11 -11.09,-111.61 -33.4,-160.64 -22.33,-49.09 -55.99,-93.85 -101.06,-134.35 -45.13,-40.01 -93.69,-70.03 -145.5,-90.02 -51.81,-20 -107.01,-30 -165.42,-30 -82.12,0 -153.6,19.61 -214.41,58.82 -60.93,39.28 -111.43,98.41 -151.47,177.32l-844.92 1691.06 -847.28 -1691.02c-40.06,-78.95 -90.3,-138.11 -150.81,-177.4 -60.34,-39.18 -131.22,-58.78 -212.77,-58.78 -58.35,0 -113.22,9.98 -164.7,29.95 -51.55,19.98 -99.87,50.01 -145.07,90.05 -45.08,40.56 -79.05,85.33 -101.66,134.41 -22.58,48.99 -33.95,102.49 -33.95,160.6 0,34.26 4.28,68.23 12.68,101.98 8.44,33.91 21.05,67.7 37.65,101.48l1188.58 2373.7c23.39,46.16 43.48,83.49 60.24,112.19 17.03,29.17 30.33,48.94 39.88,59.62 42.25,47.92 89.82,83.86 142.42,107.78 52.72,23.98 110.7,35.99 173.59,35.99 64,0 122.19,-11.95 174.66,-35.84 52.41,-23.85 99.35,-59.69 140.94,-107.46 39.28,-57.83 73.97,-115.65 102.85,-173.42l1186.31 -2372.63c17.78,-35.56 30.98,-70.24 39.69,-104.12zm2946.77 1739.75c0,34.62 -5.65,71.59 -16.76,110.72 -11.11,39.12 -27.75,80.44 -49.72,123.8 -65.32,127.67 -148.55,242.65 -249.96,344.94 -101.33,102.21 -220.86,191.81 -358.86,268.74 -132.09,75.15 -267.99,131.52 -407.52,169.09 -139.71,37.62 -283.08,56.43 -429.93,56.43 -231.27,0 -445.61,-40.84 -642.72,-122.34 -197.11,-81.52 -376.89,-203.69 -538.96,-366.35 -162.64,-162.59 -284.51,-342.64 -365.74,-540.22 -81.23,-197.56 -121.78,-412.52 -121.78,-644.97 0,-232.45 40.55,-447.41 121.78,-644.97 81.23,-197.58 203.1,-377.63 365.72,-540.24 162.09,-162.64 341.87,-284.82 538.98,-366.32 197.1,-81.5 411.46,-122.34 642.72,-122.34 113.34,0 226.77,12.94 340.52,38.8 113.65,25.83 227.56,64.58 341.98,116.22 113.84,51.63 218.34,111.52 313.59,179.62 95.32,68.15 181.4,144.53 258.33,229.1 83.72,92.61 146.82,182.61 188.95,269.82 42.25,87.48 63.54,172.28 63.54,254.16 0,76.62 -18.61,144.65 -55.96,204.35 -37.2,59.48 -92.98,110.53 -167.43,153.4l-1613.41 929.89c49.76,26.34 100.76,46.56 152.95,60.52 57.5,15.38 116.49,23.15 176.94,23.15 93.48,0 178.82,-13.25 256.12,-39.88 76.95,-26.5 146.05,-66.3 207.39,-119.5l127.07 -146.42c42.04,-48.55 84.02,-97.23 125.78,-146.06l0.51 -0.59c57.91,-57.91 114.18,-101.42 168.91,-130.49 55.31,-29.38 109.14,-44.08 161.59,-44.08 60.22,0 117.23,11.06 171.12,32.85 53.81,21.76 104.45,54.21 151.99,97l0.08 0.08c47.16,43.58 82.73,91.47 106.49,143.6 23.75,52.07 35.7,108.25 35.7,168.49zm-35.98 105.29c10.59,-37.3 15.98,-72.46 15.98,-105.29 0,-57.47 -11.32,-110.88 -33.82,-160.21 -22.62,-49.62 -56.62,-95.34 -101.81,-137.12 -45.83,-41.25 -94.49,-72.47 -146.05,-93.32 -51.46,-20.81 -105.99,-31.37 -163.7,-31.37 -49.13,0 -99.84,13.92 -152.21,41.74 -52.96,28.13 -107.63,70.46 -164.12,126.94 -40.96,47.88 -82.94,96.55 -125.38,145.58 -33.81,38.96 -93.92,117.19 -128.58,148 -63.45,55.15 -134.91,96.37 -214.48,123.78 -79.42,27.36 -166.93,40.98 -262.6,40.98 -62.15,0 -122.87,-8.01 -182.1,-23.85 -59.12,-15.81 -116.8,-39.49 -173.02,-70.85l-15.35 -8.57 1644.07 -947.55c71.5,-41.17 124.93,-89.99 160.39,-146.68 35.32,-56.46 52.92,-120.98 52.92,-193.81 0,-78.92 -20.61,-160.8 -61.5,-245.48 -41.33,-85.56 -103.36,-174.01 -185.73,-265.08 -76.03,-83.53 -161.04,-158.98 -255.15,-226.26 -94.19,-67.34 -197.57,-126.59 -310.23,-177.68 -113.25,-51.11 -225.9,-89.45 -338.16,-114.96 -112.17,-25.5 -224.13,-38.26 -336.14,-38.26 -228.72,0 -440.56,40.32 -635.14,120.78 -194.63,80.48 -372.23,201.21 -532.42,361.98 -160.8,160.83 -281.25,338.7 -361.42,533.72 -80.19,195.03 -120.22,407.46 -120.22,637.39 0,229.93 40.03,442.36 120.22,637.39 80.17,195.02 200.62,372.89 361.42,533.68 160.2,160.82 337.78,281.54 532.42,362.03 194.59,80.46 406.41,120.78 635.14,120.78 145.14,0 286.8,-18.58 424.77,-55.73 137.97,-37.15 272.31,-92.87 402.84,-167.13 136.43,-76.04 254.5,-164.53 354.56,-265.46 99.97,-100.83 181.99,-214.13 246.3,-339.85 21.35,-42.18 37.52,-82.34 48.3,-120.26zm-1141.5 -1412.5c-49.67,-24.7 -100.75,-43.56 -153.3,-56.53 -58.26,-14.38 -118.49,-21.58 -180.8,-21.58 -102.89,0 -199.03,17.63 -288.24,53 -88.96,35.27 -171.25,88.28 -246.7,159.12 -74.94,70.87 -132.59,149.85 -172.78,237 -37.8,81.99 -60.18,171.27 -67.02,267.96l1108.84 -638.97zm-148.54 -75.91c59.9,14.79 117.88,36.99 174.05,66.55l15.99 8.41c-390.6,225.44 -781.45,450.51 -1172.29,675.54l0.92 -18.22c5.31,-106.38 28.68,-204.26 69.93,-293.72 41.23,-89.41 100.38,-170.43 177.22,-243.14 77.25,-72.57 161.66,-126.91 253.04,-163.14 91.7,-36.35 190.29,-54.48 295.58,-54.48 63.8,0 125.62,7.41 185.56,22.2z"/>
  </g>
 </g>
</svg>
