<?xml version="1.0" encoding="UTF-8"?>
<!DOCTYPE svg PUBLIC "-//W3C//DTD SVG 1.1//EN" "http://www.w3.org/Graphics/SVG/1.1/DTD/svg11.dtd">
<!-- Creator: CorelDRAW 2017 -->
<svg xmlns="http://www.w3.org/2000/svg" xml:space="preserve" width="102.51mm" height="16.02mm" version="1.1" style="shape-rendering:geometricPrecision; text-rendering:geometricPrecision; image-rendering:optimizeQuality; fill-rule:evenodd; clip-rule:evenodd"
viewBox="0 0 10251 1602"
 xmlns:xlink="http://www.w3.org/1999/xlink">
 <defs>
  <style type="text/css">
   <![CDATA[
    .fil9 {fill:#FEFEFE;fill-rule:nonzero}
    .fil5 {fill:#FDD4B2;fill-rule:nonzero}
    .fil2 {fill:#FFCA31;fill-rule:nonzero}
    .fil3 {fill:#FCC6A2;fill-rule:nonzero}
    .fil4 {fill:#FBDD2C;fill-rule:nonzero}
    .fil11 {fill:#E8E9E8;fill-rule:nonzero}
    .fil12 {fill:#DFC24E;fill-rule:nonzero}
    .fil8 {fill:#C9C8CD;fill-rule:nonzero}
    .fil6 {fill:#9DA5A7;fill-rule:nonzero}
    .fil1 {fill:#58566A;fill-rule:nonzero}
    .fil10 {fill:#59748C;fill-rule:nonzero}
    .fil0 {fill:#3A4353;fill-rule:nonzero}
    .fil7 {fill:#3A3868;fill-rule:nonzero}
   ]]>
  </style>
 </defs>
 <g id="Camada_x0020_1">
  <metadata id="CorelCorpID_0Corel-Layer"/>
  <g id="_1672185590800">
   <path class="fil0" d="M694.13 1516.65c-0.53,12.88 -3.57,27.87 -13.09,40.77 -14.25,19.33 -35.81,19.07 -50.02,-0.41 -16.89,-23.14 -16.74,-64.45 0.32,-87.29 14.39,-19.24 35.8,-19.05 50.06,0.45 7.88,10.78 12.79,27.62 12.73,46.48z"/>
   <path class="fil1" d="M1609.19 1539.9c4.14,-1.14 7.49,-2.76 10.9,-2.91 67.54,-3.17 135.09,-6.18 202.63,-9.23 3.06,-0.15 6.14,-0.62 9.21,-0.61 12.02,0.06 24.2,13.96 22.19,25.85 -0.42,2.45 -3.1,5.3 -5.47,6.42 -2.58,1.21 -6.01,0.7 -9.09,0.82 -66.61,2.6 -133.23,5.23 -199.86,7.78 -21.62,0.82 -30.24,-6.74 -30.51,-28.12z"/>
   <path class="fil2" d="M1190.47 529.06c-14.14,4.5 -29.54,9.4 -45.88,14.6 -3.87,-20.89 -7.03,-39.76 -1.4,-60.09 6.13,-22.07 8.49,-45.19 12.49,-67.85 1.32,-7.47 2.59,-14.95 3.94,-22.76 9.85,0.25 12.24,7.36 13.24,13.31 6.75,39.84 12.81,79.78 19.07,119.69 0.07,0.41 -0.4,0.91 -1.46,3.1z"/>
   <path class="fil3" d="M1098.15 254.65c2.99,3.15 6.18,6.12 8.89,9.48 6.44,7.95 12.03,16.69 19.16,23.93 5.03,5.12 6.39,10.14 5.04,16.56 -0.85,4 -1.64,8.05 -2.9,11.92 -3.74,11.52 -5.88,22.49 2.5,33.45 2.34,3.06 2.3,8.97 1.48,13.22 -2.29,12.02 -4.8,24.12 -8.62,35.72 -5.3,16.03 -11.6,31.75 -18.11,47.34 -1.54,3.69 -5.49,8.61 -8.6,8.81 -3.26,0.21 -8.5,-3.85 -9.99,-7.29 -5.69,-13.13 -10.16,-26.8 -15.19,-40.22 -8.93,-23.86 -17.93,-47.69 -27.25,-72.39 5.31,-7.95 14.42,-11.9 22.85,-16.27 10.38,-5.39 16.27,-12.76 17.91,-24.7 1.78,-13.01 5.44,-25.76 8.28,-38.61 1.52,-0.32 3.04,-0.63 4.55,-0.95z"/>
   <path class="fil4" d="M1098.6 705.48c-48.92,-4.81 -96.88,-8.1 -143.58,-26.99 0.37,-4.22 0.51,-8.68 1.16,-13.06 9.48,-63.94 20.21,-127.74 28.04,-191.88 3.64,-29.87 1.74,-60.43 2.28,-90.68 0.11,-6.16 0,-12.33 -0.11,-18.48 -0.17,-8.03 3.68,-14.44 10.35,-17.6 17.53,-8.3 35.53,-15.62 54.99,-24.06 13.99,39.35 27.63,77.7 41.27,116.05 0.99,-0.06 2,-0.12 3.01,-0.18 10.4,-30.3 20.8,-60.61 31.97,-93.18 11.98,15.26 22.71,28.27 32.53,41.93 2.29,3.18 2.64,8.79 1.94,12.96 -4.63,27.92 -7.17,55.9 -6.02,84.28 0.65,16.5 -5.06,31.33 -17.38,42.95 -7.25,6.84 -11.72,15.03 -15.51,24.28 -18.15,44.47 -25.41,90.67 -24.22,138.44 0.11,4.49 -0.41,8.98 -0.72,15.22z"/>
   <path class="fil4" d="M436.94 1427.8c1.62,-27.69 1.49,-55.64 5.47,-82.99 3,-20.54 10.06,-40.76 17.49,-60.3 9.6,-25.31 32.16,-35.66 56.11,-43.78 49.66,-16.83 83.41,15.73 102.67,47.12 16.18,26.38 26.46,55.51 36.82,84.57 16.71,46.89 22.17,95.92 28.34,144.81 2.74,21.69 -1,28.89 -21.14,37.03 -11.2,4.53 -23.65,7.66 -35.66,8.1 -39,1.43 -78.06,1.6 -117.1,1.63 -12.78,0 -25.64,-1.37 -38.34,-3.07 -18.21,-2.45 -26.74,-10.44 -28.49,-28.7 -3.33,-34.7 -5.49,-69.52 -8.14,-104.28 0.66,-0.05 1.31,-0.1 1.97,-0.14z"/>
   <path class="fil5" d="M993.8 893.22c0,8.65 -0.05,15.79 0.01,22.92 0.72,87.28 2.22,174.55 1.95,261.83 -0.18,54.61 5.46,108.58 12.17,162.59 5.13,41.26 9.5,82.62 14.99,123.82 1.67,12.55 5.52,24.89 9.16,37.1 2.57,8.7 6.45,17.02 10.31,26.98 -17.23,2.76 -32.64,0.96 -49.49,0.59 1.09,-12.29 2.54,-22.91 2.77,-33.55 0.21,-8.57 0.19,-17.5 -1.86,-25.73 -10.71,-42.82 -23.48,-85.16 -32.75,-128.26 -6.34,-29.44 -8.98,-59.78 -11.75,-89.86 -6.39,-69.5 -11.54,-139.12 -17.8,-208.63 -4.92,-54.7 -10.78,-109.31 -16.16,-163.97 -0.19,-1.94 0.27,-3.93 0.6,-7.71 25.83,7.26 50.8,14.28 77.85,21.88z"/>
   <path class="fil5" d="M1034.24 898.26c25.94,1.28 49.42,2.45 73.88,3.66 1.89,6.24 3.83,11.96 5.38,17.8 44.02,165.22 84.82,331.25 124.42,497.58 0.83,3.49 2.01,6.92 2.58,10.46 5.1,31.4 14.75,60.72 37.66,84.15 1,1.02 1.32,2.68 1.95,4.01 5.43,27.18 -38.19,6.29 -47.3,-1.92 -2.29,-2.07 -3.84,-6.09 -3.94,-9.28 -0.72,-24.14 -9.66,-46.08 -17.79,-68.22 -4.96,-13.49 -10.08,-26.95 -15.72,-40.16 -28.73,-67.21 -48.94,-137.12 -69.17,-207.24 -23.75,-82.35 -51.44,-163.56 -77.42,-245.28 -4.49,-14.13 -9.01,-28.25 -14.53,-45.56z"/>
   <path class="fil5" d="M1075.76 202.92c5.28,-15.25 9.92,-29.32 15.09,-43.21 1.58,-4.25 4.31,-8.18 6.97,-11.93 16.37,-23.09 37.02,-39.1 67.07,-35.38 28.73,3.55 44.89,23.11 54.77,48.33 9.65,24.62 11.59,49.94 2.18,75.24 -4.28,11.53 -8.15,23.46 -14.33,33.96 -5.59,9.5 -12.9,18.76 -21.46,25.63 -27.03,21.77 -60.93,18.56 -84.16,-7.17 -5.09,-5.64 -9.32,-12.3 -12.84,-19.07 -5.03,-9.69 -7.62,-19.9 -20.36,-24.47 -8.54,-3.08 -11.35,-14.03 -12.89,-23.39 -2.97,-18.06 3.67,-23.9 19.96,-18.54z"/>
   <path class="fil6" d="M1226.41 905.53c4.99,-2.88 8.01,-4.63 12.56,-7.27 114.53,142.49 228.92,284.84 343.84,427.81 -4.11,4.45 -7.49,8.1 -12.42,13.42 -114.71,-144.71 -228.75,-288.59 -343.98,-433.96z"/>
   <path class="fil6" d="M1835.39 1539.94c-73.36,2.58 -145.54,5.13 -217.7,7.68 -0.93,-15.8 0,-17.56 12.66,-20.5 17.49,-4.09 35.11,-7.7 52.65,-11.6 2.95,-0.65 5.81,-1.73 9.32,-2.8 0.43,-11.44 -2.59,-20.89 -10.58,-29.28 -10.24,-10.74 -19.57,-22.31 -30.95,-35.42 7.33,-2.26 12.89,-3.98 19.63,-6.06 6.64,7.71 13.3,15.38 19.89,23.09 10.68,12.5 21.54,24.85 31.91,37.61 5.57,6.85 12.05,9.95 21.01,10.46 23.06,1.33 46.07,3.73 69.1,5.49 12.12,0.92 20.33,6.12 23.06,21.33z"/>
   <path class="fil7" d="M1180.84 70.92c66.51,21.2 84.33,127.31 44.06,161.11 0.43,-11.18 1.38,-22.84 1.13,-34.47 -0.14,-7.09 -1.47,-14.34 -3.4,-21.2 -14.06,-50.02 -79.68,-56.2 -105.55,-26.59 -13.96,15.98 -22.33,35.42 -25.97,56.59 -0.82,4.77 -1.89,9.51 -3.03,15.23 -10.3,-4.38 -14.63,-11.63 -15.93,-19.56 -3.6,-21.72 -8.34,-43.64 -8.31,-65.46 0.05,-20.97 12.63,-37.5 30.32,-49.22 5.09,-3.37 10.61,-6.08 16.94,-9.66 -7.52,-20.02 -7.14,-38.3 13.16,-51.13 13.43,-8.5 26.83,-9.41 40.4,-0.42 16,10.63 22.17,25.03 16.18,44.78z"/>
   <path class="fil0" d="M489.19 1438.24c1.48,31.22 2.99,62.46 4.45,93.68 0.33,7.17 0.86,14.35 0.65,21.51 -0.22,8.03 -2.48,9.68 -10.48,8.98 -0.49,-0.05 -0.99,-0.22 -1.5,-0.28 -25.27,-3.35 -30.54,-8.36 -31.27,-34.18 -1.67,-58.39 -2.34,-116.82 -4.06,-175.21 -0.46,-15.3 6.34,-27.74 12.35,-40.62 4.34,-9.28 12.65,-4.27 19.15,-3.57 6.19,0.7 12.01,3.46 12.24,11.33 0.05,2.04 -0.23,4.1 -0.23,6.15 -0.01,37.39 -0.01,74.79 -0.01,112.19 -0.43,0.01 -0.87,0.01 -1.29,0.02z"/>
   <path class="fil0" d="M553.33 1442.1c27.28,-2.22 51.29,-4.11 75.29,-6.15 9.72,-0.83 19.4,-2.19 29.12,-3 10.7,-0.89 12.97,0.54 14.5,10.86 1.71,11.67 3.02,23.45 3.5,35.22 0.44,10.73 -2.32,13.58 -13.31,14.68 -30.14,3.02 -60.3,5.81 -90.48,8.38 -10.81,0.92 -12.98,-0.9 -14.1,-11.17 -1.71,-15.64 -2.93,-31.33 -4.52,-48.82z"/>
   <path class="fil1" d="M1552.92 1331.46c7.91,-6.18 15.1,-11.77 23.29,-18.15 4.58,5.1 8.81,9.39 12.57,14.06 30.37,37.51 60.58,75.12 91.02,112.57 3.11,3.83 6.99,8.82 11.2,9.61 10.11,1.88 13.23,8.24 15.18,17.54 -6.67,1.83 -13.22,3.16 -19.42,5.41 -13.05,4.74 -22.91,0.49 -31.08,-9.83 -33.14,-41.86 -66.31,-83.67 -99.46,-125.53 -0.93,-1.18 -1.53,-2.6 -3.3,-5.68z"/>
   <path class="fil0" d="M581.92 1357.72c-5.63,0.26 -11.26,0.62 -16.89,0.77 -12.13,0.31 -13.76,-0.5 -15.62,-11.73 -2.11,-12.61 -4.17,-25.36 -4.49,-38.1 -0.44,-17.87 8.48,-29.33 23.78,-33.4 18.95,-5.05 37.27,-0.46 44.41,14.5 8.05,16.93 13.68,35.16 18.91,53.22 2.64,9.18 -0.05,11.47 -10.2,12.48 -13.25,1.31 -26.57,1.98 -39.85,2.94 -0.01,-0.23 -0.04,-0.46 -0.05,-0.68z"/>
   <path class="fil8" d="M639.02 1557.22c-14.78,0 -29.58,0.14 -44.36,-0.08 -5.09,-0.08 -10.5,-0.13 -15.09,-1.91 -3,-1.18 -4.79,-5.45 -7.13,-8.32 2.56,-2.02 4.84,-4.85 7.75,-5.82 3.24,-1.09 7.07,-0.43 10.63,-0.7 22.38,-1.66 44.78,-3.14 67.13,-5.12 11.01,-0.98 15.76,0.34 16.35,6.04 0.67,6.43 -6.66,13.41 -15.36,13.95 -6.62,0.42 -13.28,0.08 -19.92,0.08 0,0.64 0,1.25 0,1.88z"/>
   <path class="fil9" d="M1258.32 943.25c12.22,7.55 21.04,18.68 29.05,30.47 1.9,2.79 3.41,6.93 2.84,10.04 -0.63,3.47 -3.18,7.55 -6.13,9.3 -2.2,1.32 -6.96,0.3 -9.48,-1.35 -3.28,-2.14 -5.63,-5.81 -8.09,-9.04 -4.64,-6.09 -8.95,-12.42 -13.58,-18.51 -8.2,-10.77 -7.75,-12.88 5.39,-20.91z"/>
   <path class="fil2" d="M591.26 1523.26c-0.55,5.57 -4.68,7.85 -10.48,7.73 -5.94,-0.13 -10.83,-5.17 -10.62,-10.93 0.24,-6.18 4.11,-9.27 9.84,-9.75 5.94,-0.52 11.52,5.76 11.26,12.95z"/>
   <path class="fil2" d="M674.67 1511.15c-0.36,8.98 -4.7,13.6 -9.63,12.52 -5.6,-1.22 -9.18,-4.79 -8.7,-10.87 0.45,-5.83 3.92,-10.59 9.76,-9.2 3.83,0.92 6.71,5.8 8.57,7.55z"/>
   <path class="fil0" d="M962.33 625.13c47.45,12.26 93.05,24.05 140.47,36.3 9.18,113.16 24.38,225.27 53.7,334.69 -14.58,5.2 -215.85,8.11 -241.18,3.9 -2.2,-21.3 -5.41,-43.06 -6.48,-64.92 -2.46,-50.23 -4.51,-100.51 -5.51,-150.79 -0.79,-39.54 6.1,-77.95 26.23,-112.61 9.42,-16.22 21.6,-30.86 32.77,-46.57z"/>
   <path class="fil2" d="M998.61 349.44c-1.63,23.85 -4.29,46.3 -4.37,68.75 -0.09,21.08 -6.76,37.59 -24.24,49.65 -4.1,2.83 -7.59,6.56 -12.45,10.85 -12.82,-12.05 -25.01,-23.5 -38.02,-35.73 3.82,-5.84 7.01,-10.96 10.42,-15.94 14.78,-21.6 29.8,-43.04 44.33,-64.81 5.32,-7.97 12.29,-11.77 24.33,-12.77z"/>
   <path class="fil0" d="M508.49 1528.51c-0.55,12.87 -3.59,27.87 -13.1,40.77 -14.25,19.33 -35.81,19.07 -50.02,-0.41 -16.88,-23.15 -16.74,-64.46 0.32,-87.29 14.39,-19.25 35.8,-19.06 50.05,0.45 7.89,10.79 12.8,27.62 12.75,46.48z"/>
   <path class="fil10" d="M489.71 1521.89c-0.57,12.34 -2.47,23.91 -9.86,33.75 -9.88,13.15 -23.11,13.19 -33.16,0.27 -13.16,-16.89 -13.26,-50.96 -0.2,-68.1 9.98,-13.12 23.18,-13.3 33.13,-0.27 7.83,10.23 9.65,22.33 10.09,34.35z"/>
   <path class="fil9" d="M493.07 1312.17c-8.32,-2.31 -15.55,-4.32 -23.85,-6.62 0.77,-4.74 1.47,-8.97 2.36,-14.37 10.25,1.4 19.33,2.45 28.32,3.96 6.1,1.01 10.27,4.08 10.27,11.2 -0.04,50.71 0.05,101.41 0.04,152.13 0,0.91 -0.77,1.81 -1.51,3.4 -5.01,0 -10.31,0 -17.47,0 -0.54,-50.34 1.13,-99.76 1.84,-149.7z"/>
   <path class="fil11" d="M675.59 1486.7c-27.91,2.58 -55.28,5.12 -84.14,7.79 -1.65,-11.22 -3.11,-21.08 -4.91,-33.26 30.15,-2.33 58.87,-4.53 89.05,-6.86 0,11.08 0,20.57 0,32.33z"/>
   <path class="fil12" d="M501.5 1262.72c16.96,-22.9 67.22,-29.42 87.43,-12.18 -0.63,0.62 -1.34,1.83 -1.87,1.76 -21.14,-3 -38.85,6.15 -56.38,15.87 -13.13,7.3 -15.79,6.93 -29.18,-5.45z"/>
   <path class="fil6" d="M1097.76 724.91c-7.46,4.17 -12.71,7.11 -17.76,9.94 -11.65,-9.6 -22.38,-19.08 -33.76,-27.7 -24.01,-18.15 -51.48,-21.3 -80.4,-17.47 -32.07,4.24 -51.41,22.27 -64.56,51.89 -21.88,49.27 -28.75,101.64 -35.79,153.85 -10.62,78.86 -19.2,158.08 -35.58,235.96 -10.68,50.81 -27.91,99.84 -58.47,142.96 -9.16,12.93 -17.42,26.11 -29.99,36.71 -22.05,18.58 -47.55,25.97 -75.17,27.34 -14.75,0.73 -56.05,-6.72 -70.83,-8.07 -7.65,-0.69 -13.41,-4.85 -14.61,-13.43 -1.57,-11.14 5.45,-17.41 16.4,-14.81 36.96,8.78 98.83,10.92 127.56,-14.93 16.07,-14.44 28.77,-33.45 40.16,-52.11 32.19,-52.8 43.07,-112.66 53.27,-172.42 11.07,-64.76 19.82,-129.85 27.81,-195.09 5.66,-46.18 16.28,-91.93 32.12,-136.07 7.91,-22.06 21.95,-39.75 41.97,-51.49 9.87,-5.78 21.79,-8.86 33.18,-11.15 20.72,-4.17 41.39,-4.04 62.45,0.81 23.85,5.47 44.07,15.56 60.11,34.23 5.96,6.96 13.22,12.79 21.89,21.05z"/>
   <path class="fil1" d="M1173.18 795.2c1.12,-0.58 2.24,-1.15 3.37,-1.74 -0.38,-11.8 0.13,-24.02 -8.19,-34.06 -11.13,-13.43 -22.44,-26.79 -34.65,-39.23 -14.83,-15.12 -18.38,-14.88 -34.96,-1.97 -1.14,0.89 -1.88,2.32 -3.21,4.01 4.44,6.75 8.87,13.47 13.85,21.04 17.96,-3.3 28.85,7.01 38.23,20.27 3.85,5.45 8.27,10.48 12.48,15.68 4.33,5.34 8.71,10.67 13.08,16zm86.79 110.53c-8.93,7.46 -17.39,14.53 -26.8,22.4 -11.13,-13.11 -21.36,-25.13 -31.56,-37.19 -5.63,-6.65 -11.53,-13.13 -16.73,-20.11 -4.67,-6.24 -10.12,-10.23 -18.13,-9.16 -16.88,2.24 -26.36,-7.93 -36.05,-21.74 5.9,-5.77 11.82,-11.56 18.55,-18.13 -8.67,-9.91 -16.72,-19.82 -25.64,-28.85 -2.87,-2.89 -7.97,-4.35 -12.26,-4.94 -12.68,-1.75 -25.47,-2.94 -38.24,-3.99 -13.13,-1.06 -21.4,-8.16 -27.23,-19.53 -6.51,-12.68 -4.32,-20.59 13.06,-25.01 2.37,-0.61 5.04,-0.08 9.59,-0.08 -3.65,-6.18 -6.57,-11.11 -9.28,-15.71 0.59,-1.56 0.66,-2.91 1.34,-3.37 13.01,-8.94 26.1,-17.75 39.16,-26.62 7.88,-5.35 15.77,-5.91 24.61,-1.72 14.31,6.8 25.46,17.19 35.25,29.19 8.11,9.92 15.42,20.5 23.46,30.49 12.61,15.63 16.3,33.33 10.18,52.02 -3.44,10.52 -0.21,17.16 6.04,24.77 17.25,21.02 33.92,42.5 50.76,63.85 3.14,3.98 6.03,8.14 9.92,13.43z"/>
   <path class="fil4" d="M1062.14 776.55c8.59,-1.88 12.45,-3.52 16.29,-3.44 15.3,0.36 30.59,1.23 45.9,1.94 6.33,0.3 11.22,3.02 11.46,9.79 0.24,6.59 -5.52,8.47 -10.5,9.02 -17.41,1.93 -34.76,0.86 -51.38,-4.78 -3.78,-1.28 -6.24,-6.44 -11.77,-12.53z"/>
   <path class="fil4" d="M1167.78 870.58c-1.61,-1.52 -5.84,-3.77 -7.12,-7.14 -1.79,-4.68 0.54,-9.28 6.17,-10.39 6.51,-1.26 13.11,-2.6 19.71,-2.8 6.18,-0.18 11.05,5.21 10.57,10.69 -0.49,5.81 -4.57,7.28 -9.73,7.53 -5.11,0.26 -10.2,1.02 -15.28,1.56 -0.52,0.06 -1.02,0.13 -4.32,0.55z"/>
   <path class="fil5" d="M1245.97 812.21c-5.82,-25.52 -10.94,-51.19 -16.1,-76.85 -11.43,-56.85 -22.87,-113.7 -33.93,-170.62 -2.23,-11.51 -3.96,-23.38 -5.7,-35.6 -12.11,3.85 -25.27,8.03 -38.99,12.41 10.09,44.02 19.52,86.67 30.14,128.94 11.89,47.27 25.39,94.15 37.98,141.26 1.28,4.79 3.48,12.01 1.23,14.57 -9.29,10.6 -6.65,24.56 -11.95,36.09 -0.78,1.71 0.61,4.4 1.31,8.43 5.67,-4.25 9.88,-7.42 14.32,-10.76 5.01,5.52 9.69,10.71 16.1,17.79 4.13,-23.35 10.58,-43.77 5.59,-65.66z"/>
   <path class="fil6" d="M1274.18 1522.46c1.28,-4.61 2.05,-7.38 2.81,-10.16 1.44,0.43 2.7,0.43 3.3,1.05 9.99,10.27 20.04,20.48 29.78,30.99 6.17,6.65 4.49,14.71 -4.05,18.66 -8.78,4.07 -17.78,3.13 -26.89,0.11 -22.79,-7.56 -36.92,-24.98 -49.87,-43.59 -2.18,-3.14 -1.87,-8.03 -3.41,-15.44 17.97,6.83 32.57,12.38 48.33,18.38z"/>
   <path class="fil6" d="M994.67 1521.71c25.38,8.21 25.38,8.21 45.63,2.27 2.49,5.23 5.38,10.56 7.63,16.13 3.43,8.52 1.1,14.83 -6.6,19.37 -12.81,7.54 -25.78,5.83 -38.21,-0.38 -6.13,-3.06 -9.96,-9.1 -9.94,-16.35 0.01,-6.52 0.88,-13.04 1.49,-21.04z"/>
   <path class="fil5" d="M975.09 658.68c-3.14,-2.59 -6.66,-5.02 -10.41,-6.48 -10.34,-4.02 -15.95,-11.73 -20.52,-21.52 -11.75,-25.1 -23.68,-50.16 -36.96,-74.47 -5.91,-10.84 -4.64,-18.23 2.51,-27.52 13.95,-18.12 27.13,-37.01 41.02,-56.42 -10.3,-9.67 -20.4,-19.16 -30.99,-29.12 -19.83,27.08 -38.35,52.82 -57.43,77.96 -7.7,10.13 -7.72,18.84 -0.96,29.38 19.12,29.82 37.75,59.95 56.23,90.17 4.22,6.9 6.74,14.82 10.69,21.91 2.12,3.83 5.06,7.69 8.58,10.14 8.26,5.73 17.1,10.62 26.76,16.49 2.61,-1.3 11.03,5.17 15.24,3.61 26.98,-10.01 6.61,-25.58 -3.76,-34.13z"/>
  </g>
 </g>
</svg>
