<?xml version="1.0" encoding="UTF-8"?>
<!DOCTYPE svg PUBLIC "-//W3C//DTD SVG 1.1//EN" "http://www.w3.org/Graphics/SVG/1.1/DTD/svg11.dtd">
<!-- Creator: CorelDRAW 2017 -->
<svg xmlns="http://www.w3.org/2000/svg" xml:space="preserve" width="102.51mm" height="16.02mm" version="1.1" style="shape-rendering:geometricPrecision; text-rendering:geometricPrecision; image-rendering:optimizeQuality; fill-rule:evenodd; clip-rule:evenodd"
viewBox="0 0 10251 1602"
 xmlns:xlink="http://www.w3.org/1999/xlink">
 <defs>
  <style type="text/css">
   <![CDATA[
    .fil4 {fill:#131F2A;fill-rule:nonzero}
    .fil5 {fill:#343A40;fill-rule:nonzero}
    .fil1 {fill:#3F464D;fill-rule:nonzero}
    .fil6 {fill:#7ECEFB;fill-rule:nonzero}
    .fil3 {fill:#98581D;fill-rule:nonzero}
    .fil2 {fill:#FF8066;fill-rule:nonzero}
    .fil7 {fill:white;fill-rule:nonzero}
    .fil0 {fill:#CCCCCC;fill-rule:nonzero}
   ]]>
  </style>
 </defs>
 <g id="Camada_x0020_1">
  <metadata id="CorelCorpID_0Corel-Layer"/>
  <g id="_1671136422240">
   <path class="fil0" d="M5889 1284.5c0,17.35 -388.09,31.41 -866.82,31.41 -478.73,0 -866.82,-14.06 -866.82,-31.41 0,-17.35 388.09,-31.41 866.82,-31.41 478.73,0 866.82,14.06 866.82,31.41z"/>
   <path class="fil1" d="M5637.58 1149.98c0,5.98 14.73,83.18 24.12,131.8 1.84,9.54 15.33,9.96 17.8,0.57l34.84 -132.37 -76.76 0z"/>
   <path class="fil1" d="M4253.86 1149.98c0,5.98 14.73,83.18 24.12,131.8 1.84,9.54 15.32,9.96 17.8,0.57l34.83 -132.37 -76.75 0z"/>
   <path class="fil2" d="M5550.26 363.45c-308.89,-97.36 -621.13,251.81 -715.14,271.96 -94.01,20.14 -151.09,-117.51 -319.41,-127.59 -168.32,-10.07 -297.32,113.41 -337.36,218.24 -34.63,90.65 -34.03,297.41 -5.62,398.95 8.46,30.25 36.33,50.95 67.75,50.95l1469.34 0c30.57,0 57.5,-19.72 67.09,-48.75 80.9,-244.78 61.94,-672.79 -226.65,-763.76z"/>
   <path class="fil3" d="M4511.36 499.56c11.01,-12.34 59.76,-20.4 69.98,-14.84 10.21,5.56 29.7,20.41 31.56,24.13 1.86,3.71 -5.57,75.19 -19.5,77.05 -13.92,1.86 -83.94,-25.06 -89.78,-28.78 -5.84,-3.71 -4.67,-43.63 7.74,-57.56z"/>
   <path class="fil4" d="M4584.53 511.73c-3.92,23.49 -9.46,46.51 -16.64,69.16 2.2,0.65 4.33,1.25 6.37,1.8 7.18,-22.66 12.72,-45.69 16.65,-69.2 0.69,-4.17 -5.69,-5.96 -6.38,-1.76z"/>
   <path class="fil4" d="M4554.92 507.1c-4.35,21.94 -7.85,43.96 -10.52,66.12 2.11,0.74 4.24,1.48 6.36,2.2 2.65,-22.31 6.17,-44.49 10.54,-66.56 0.82,-4.16 -5.55,-5.94 -6.38,-1.76z"/>
   <path class="fil4" d="M4525.35 506.03c-2.54,19.43 -4.1,38.88 -4.67,58.41 2.07,0.81 4.26,1.65 6.55,2.52 0.51,-20.38 2.09,-40.67 4.74,-60.93 0.55,-4.21 -6.07,-4.17 -6.62,0z"/>
   <g>
    <g>
     <path class="fil5" d="M4927.68 319.82c20.09,-75.55 -1.47,-160.81 -55.06,-217.73 -11.69,-12.42 -25.09,-23.74 -40.99,-29.91 -21.79,-8.47 -46.31,-6.52 -69.02,-0.99 -44.09,10.75 -85.43,35.32 -112.49,71.76 -27.05,36.43 -38.61,85 -26.71,128.79 7.62,28.04 24.35,53.98 25.36,83.02 1.2,34.21 -19.41,64.71 -33.68,95.82 -15.79,34.44 -23.95,75.79 -6.85,109.6 11.77,23.28 34.41,40.71 41.75,65.74 9.06,30.95 -7.4,66.93 7.82,95.36 13.68,25.54 46.76,33.02 75.73,33.15 42.17,0.18 84.36,-9.49 122.25,-28.02 35.5,-17.36 68.7,-44.57 81.12,-82.08 8.13,-24.55 6.65,-51.1 5.09,-76.92 -2.33,-38.27 -4.66,-76.65 -11.36,-114.4 -3.39,-19.07 -7.91,-38.39 -5.52,-57.61 1.56,-12.55 6.04,-24.82 5.44,-37.44l-2.88 -38.14z"/>
    </g>
    <g>
     <path class="fil3" d="M4918.38 293.78c0,0 17.06,-93.1 -21.73,-91.55 -38.79,1.56 -35.68,29.48 -35.68,40.35 0,10.86 20.7,34.13 20.7,34.13l-14.5 13.97c0,0 -65.17,-80.69 -82.24,-74.48 -12.95,4.71 -70.6,33.54 -118.66,43.1 22.3,27.4 64.66,67.28 61.25,76.38 -4.65,12.41 -12.53,33.88 -6.66,46.16 4.04,8.45 110.51,55.1 117.98,38.97 7.46,-16.14 42.83,-49.45 42.83,-49.45l78.6 15.81 24.83 -88.73 -66.72 -4.66z"/>
    </g>
   </g>
   <path class="fil0" d="M4165.14 831.16c0,0 0.86,-2.2 2.99,-6.05 2.17,-3.82 5.59,-9.33 10.81,-15.75 5.16,-6.44 12.22,-13.82 21.74,-20.59 9.4,-6.83 21.17,-13.45 35.17,-17.38 13.92,-3.73 29.81,-6.27 46.25,-4.24 4.14,0.14 8.2,1.11 12.34,1.87 4.16,0.96 8.2,1.52 12.54,2.93l6 1.9 6.26 2.5c4.21,1.66 8.07,3.82 11.99,6.04 15.47,9.24 28.53,22.65 38.58,38.11 9.87,15.6 17.47,32.92 22.8,50.92 2.69,8.99 4.88,18.14 6.62,27.33 1.61,9.22 2.79,18.46 3.65,27.65 1.5,18.41 1.74,36.55 1.1,53.97 -0.54,17.3 -1.24,34.02 -2.29,49.87 -0.9,15.84 -2.04,30.82 -3.08,44.64 -1.15,13.82 -2.19,26.48 -3.39,37.7 -1.16,11.21 -2,21 -3,29.05 -1.86,16.1 -3.16,25.29 -3.16,25.29l-1.32 -0.05c0,0 -0.44,-9.26 -0.79,-25.44 -0.24,-8.1 -0.17,-17.91 -0.28,-29.18 -0.15,-11.26 0,-23.96 0.14,-37.82 0.25,-13.85 0.51,-28.85 1.1,-44.71 0.43,-15.87 1.29,-32.59 2.37,-49.87 1.31,-17.15 1.56,-34.85 0.96,-52.74 -0.26,-8.95 -0.83,-17.96 -1.82,-26.96 -0.84,-9.02 -2.08,-18.04 -3.83,-26.97 -3.63,-17.79 -9.44,-35.4 -19.17,-50.49 -9.61,-15.09 -23.21,-27.22 -38.51,-34 -3.8,-1.65 -7.68,-3.31 -11.52,-4.38l-5.72 -1.67 -6.16 -1.28c-3.7,-0.84 -7.93,-0.97 -11.76,-1.53 -3.9,-0.5 -7.73,-1.22 -11.56,-1.11 -3.81,-0.07 -7.55,-0.32 -11.24,-0.47 -3.68,0.21 -7.29,0.43 -10.85,0.64 -3.59,-0.01 -7,0.76 -10.39,1.29 -3.38,0.58 -6.75,0.98 -9.88,2.05 -12.92,2.9 -23.93,8.4 -33.26,13.88 -4.72,2.7 -8.75,5.82 -12.64,8.55 -3.62,3.03 -7.08,5.74 -9.93,8.49 -5.91,5.3 -9.95,10.14 -12.67,13.44 -2.79,3.28 -4.04,5.21 -4.04,5.21l-1.15 -0.64z"/>
   <path class="fil0" d="M4411.2 1057.44c0,0 4.47,-0.23 12.86,-0.66 8.38,-0.34 20.68,-0.83 36.34,-1.46 15.65,-0.65 34.66,-0.94 56.46,-1.54 21.8,-0.65 46.4,-0.95 73.24,-1.3 26.83,-0.18 55.9,-0.48 86.65,-0.18 30.74,0.26 63.17,1.44 96.71,2.24 33.55,1.02 68.21,1.64 103.43,1.51 17.61,-0.14 35.36,-0.28 53.18,-0.42 17.82,-0.38 35.7,-0.77 53.59,-1.15 17.89,-0.45 35.78,-0.89 53.6,-1.33 17.82,-0.3 35.57,-0.59 53.18,-0.88 35.22,-0.35 69.88,-0.69 103.42,-1.02 33.55,-0.27 65.97,-0.35 96.72,-0.05 30.75,0.13 59.82,0.65 86.65,1.12 26.84,0.46 51.43,0.79 73.24,1.5 21.8,0.63 40.81,1.19 56.46,1.64 31.31,1.11 49.2,1.98 49.2,1.98l0 1.32c0,0 -17.89,0.87 -49.2,1.98 -15.65,0.45 -34.66,1.01 -56.46,1.64 -21.81,0.71 -46.4,1.04 -73.24,1.49 -26.83,0.48 -55.9,1 -86.65,1.13 -30.75,0.3 -63.17,0.22 -96.72,-0.05 -33.54,-0.33 -68.2,-0.67 -103.42,-1.02 -17.61,-0.29 -35.36,-0.58 -53.18,-0.88 -17.82,-0.44 -35.71,-0.88 -53.6,-1.33 -17.89,-0.38 -35.77,-0.77 -53.59,-1.15 -17.82,-0.14 -35.57,-0.28 -53.18,-0.42 -35.22,-0.13 -69.88,0.49 -103.43,1.51 -33.54,0.81 -65.97,1.98 -96.71,2.24 -30.75,0.3 -59.82,0 -86.65,-0.18 -26.84,-0.35 -51.44,-0.65 -73.24,-1.29 -21.8,-0.61 -40.81,-0.89 -56.46,-1.56 -15.66,-0.62 -27.96,-1.11 -36.34,-1.44 -8.39,-0.44 -12.86,-0.67 -12.86,-0.67l0 -1.32z"/>
   <g>
    <path class="fil6" d="M4927.67 304.9c-46.04,49.72 25.53,293.1 54.39,310.94 28.87,17.85 88.51,-7.54 88.51,-7.54 0,0 159.51,109.01 166.8,95.31 7.29,-13.7 62.34,-218.39 53.37,-224.26 -8.96,-5.86 -38.05,2.19 -61.89,-19.51 -23.84,-21.7 -228.93,-232.94 -301.18,-154.94z"/>
    <g>
     <path class="fil5" d="M5578.32 705.36c9.21,-19.41 16.82,-40.21 19.83,-61.36 -56.7,-32.98 -151.37,-99.87 -151.37,-99.87l-80.35 181.87c0,0 92.07,22.28 176.1,39.78 13.72,-19 25.75,-39.24 35.79,-60.42z"/>
     <path class="fil3" d="M6076.25 576.84c-3.71,-6.71 -23.43,-27.42 -28.83,-27.9 -5.4,-0.48 -58.23,-65.92 -69.1,-70.14 -10.86,-4.22 -43.16,-0.59 -51.08,3.73 -7.93,4.32 -11.89,44.19 -16.45,48.39 -3.37,3.1 -57.33,44.64 -222.72,89.3 -29.75,8.04 -45.22,40.19 -49.79,41.58 -4.57,1.4 -19.97,-6.07 -40.13,-17.8 -3.01,21.15 -10.62,41.95 -19.83,61.36 -10.04,21.18 -22.07,41.42 -35.79,60.42 63.64,13.25 122.67,23.76 133.56,19.76 25.29,-9.3 283.44,-190.38 296.52,-200.95 13.09,-10.56 113.55,63.29 124.11,56.78 10.56,-6.5 -16.76,-57.81 -20.47,-64.53z"/>
     <path class="fil2" d="M5807.32 831.48c0,0 -40.66,-76.7 -137.68,-55.44 -97.02,21.25 -95.17,152.46 -94.25,193.11 0.92,40.66 9.24,197.74 9.24,197.74l222.69 -335.41z"/>
     <path class="fil0" d="M5806.74 831.8c0,0 -1.25,-1.93 -4.04,-5.21 -2.72,-3.3 -6.76,-8.14 -12.67,-13.44 -2.85,-2.75 -6.31,-5.46 -9.93,-8.49 -3.89,-2.73 -7.92,-5.85 -12.65,-8.55 -9.32,-5.48 -20.33,-10.98 -33.25,-13.88 -3.13,-1.07 -6.49,-1.47 -9.88,-2.05 -3.39,-0.53 -6.8,-1.3 -10.39,-1.29 -3.56,-0.21 -7.17,-0.43 -10.85,-0.64 -3.69,0.15 -7.43,0.4 -11.24,0.47 -3.83,-0.11 -7.66,0.61 -11.56,1.11 -3.83,0.56 -8.06,0.69 -11.76,1.53l-6.16 1.28 -5.73 1.67c-3.82,1.07 -7.71,2.73 -11.51,4.38 -15.3,6.78 -28.9,18.91 -38.51,34 -9.73,15.09 -15.54,32.7 -19.16,50.49 -1.76,8.93 -3,17.95 -3.84,26.97 -0.98,9 -1.56,18.01 -1.82,26.96 -0.6,17.89 -0.35,35.59 0.96,52.74 1.08,17.28 1.94,34 2.38,49.87 0.58,15.86 0.84,30.86 1.09,44.71 0.14,13.86 0.29,26.56 0.14,37.82 -0.11,11.27 -0.04,21.08 -0.28,29.18 -0.35,16.18 -0.79,25.44 -0.79,25.44l-1.32 0.05c0,0 -1.3,-9.19 -3.16,-25.29 -1,-8.05 -1.84,-17.84 -3.01,-29.05 -1.19,-11.22 -2.23,-23.88 -3.38,-37.7 -1.04,-13.82 -2.18,-28.8 -3.08,-44.64 -1.05,-15.85 -1.75,-32.57 -2.29,-49.87 -0.64,-17.42 -0.4,-35.56 1.11,-53.97 0.85,-9.19 2.03,-18.43 3.64,-27.65 1.74,-9.19 3.93,-18.34 6.62,-27.33 5.33,-18 12.93,-35.32 22.8,-50.92 10.05,-15.46 23.11,-28.87 38.58,-38.11 3.92,-2.22 7.78,-4.38 12,-6.04l6.25 -2.5 6 -1.9c4.34,-1.41 8.38,-1.97 12.54,-2.93 4.14,-0.76 8.2,-1.73 12.34,-1.87 16.44,-2.03 32.33,0.51 46.25,4.24 14,3.93 25.77,10.55 35.17,17.38 9.52,6.77 16.58,14.15 21.74,20.59 5.23,6.42 8.65,11.93 10.81,15.75 2.13,3.85 3,6.05 3,6.05l-1.16 0.64z"/>
    </g>
    <g>
     <path class="fil1" d="M5369.21 770.81c56.66,-98.66 115.82,-188.8 90.84,-229.9 -65.24,-107.36 -169.31,-61.56 -169.31,-61.56 -47.79,101.52 -79.54,195.72 -100.42,275.95 38.1,-12.09 80.24,-12.79 119.56,-4.22 20.47,4.45 40.22,11.28 59.33,19.73z"/>
     <path class="fil3" d="M5560 893.74c-8.77,2.68 -48.14,30.69 -53.99,32.47 -5.84,1.79 -154.33,-25.81 -169.84,-24.27 -15.51,1.55 -67.06,27.82 -67.06,27.82 0,0 50.85,-73.21 100.1,-158.95 -19.11,-8.45 -38.86,-15.28 -59.33,-19.73 -39.32,-8.57 -81.46,-7.87 -119.56,4.22 -39.74,152.77 -40.01,254.93 -36.3,260.67 5.66,8.74 83.91,29.72 95.38,33 11.48,3.27 267.17,-65.97 279.04,-69.89 5.99,-1.97 28.13,73.01 27.76,78.95 -0.37,5.95 -26.32,21.16 -26.32,21.16 0,0 0.65,9.28 2.13,11.74 1.48,2.46 16.18,5.26 21.05,4.5 4.87,-0.76 16.06,-16.57 18.99,-18.92 2.92,-2.35 33.49,-16.79 36.06,-22.68 2.57,-5.89 -13.44,-137.97 -14.77,-141.94 -1.33,-3.97 -24.57,-20.83 -33.34,-18.15z"/>
    </g>
   </g>
   <path class="fil3" d="M4964.08 309.78c60.82,-47.2 106.35,39.72 118.44,91.53 12.08,51.81 101.88,279.76 89.79,307.39 -12.08,27.63 -207.92,63.28 -217.23,74.34 -9.31,11.05 -29.48,81.25 -40.34,90.37 -10.87,9.13 -67.74,-11.04 -67.74,-11.04 0,0 -5.67,-60.52 0,-68.28 5.67,-7.76 44.46,-66.72 58.43,-68.27 13.96,-1.55 24.82,18.38 38.79,7.64 13.96,-10.74 134.99,-61.25 134.99,-61.25 0,0 -160.28,-327.39 -115.13,-362.43z"/>
   <g>
    <path class="fil7" d="M4750.29 928.6c-4.17,0 -8.26,-1.95 -10.83,-5.62 -4.22,-5.97 -2.78,-14.23 3.19,-18.43l122.88 -86.55c5.97,-4.22 14.24,-2.78 18.43,3.2 4.21,5.97 2.78,14.23 -3.2,18.43l-122.87 86.55c-2.31,1.64 -4.97,2.42 -7.6,2.42z"/>
    <g>
     <path class="fil7" d="M4828.41 854.72c-36.83,-19.2 -75.4,-24.28 -108.76,0.13 -5.64,4.13 -12.28,10.13 -19.37,17.24 21.71,4.48 43.28,9.88 63,19.85 10.08,5.09 19.74,11.47 26.87,20.23 8.37,10.28 12.52,22.68 15.53,35.69 11.41,-6.45 20.6,-12.69 25.69,-18.18 37.72,-40.66 19.12,-63.44 -2.96,-74.96z"/>
     <path class="fil1" d="M4763.28 891.94c-19.72,-9.97 -41.29,-15.37 -63,-19.85 -34.81,34.95 -80.84,97.51 -77.46,105.62 4.07,9.76 43.13,27.67 55.33,24.41 9.65,-2.57 84.54,-29.95 127.53,-54.26 -3.01,-13.01 -7.16,-25.41 -15.53,-35.69 -7.13,-8.76 -16.79,-15.14 -26.87,-20.23z"/>
    </g>
   </g>
   <path class="fil4" d="M4756.75 312.09c5.35,7.11 7.53,14.5 4.87,16.5 -2.66,2 -9.15,-2.15 -14.5,-9.26 -5.35,-7.12 -7.53,-14.5 -4.87,-16.5 2.66,-2 9.15,2.14 14.5,9.26z"/>
   <path class="fil4" d="M4750.99 254.37c-10.04,3.73 -21.86,3.09 -30.85,9.47 -7.38,5.24 -8.99,13.41 -10.01,21.89 -0.51,4.22 6.11,4.18 6.62,0 1.13,-9.36 3.97,-16.35 13.54,-19.53 7.35,-2.44 15.16,-2.74 22.46,-5.45 3.96,-1.47 2.24,-7.87 -1.76,-6.38z"/>
   <path class="fil4" d="M4802.26 399.71c3.21,-3.37 6.43,-6.74 9.64,-10.12 2.94,-3.08 -1.74,-7.76 -4.68,-4.67 -3.21,3.37 -6.43,6.74 -9.64,10.11 -2.94,3.08 1.73,7.77 4.68,4.68z"/>
   <path class="fil4" d="M4896.34 218.89c-15.72,15.31 -15.57,46.1 -7.06,64.85 1.76,3.87 7.46,0.51 5.71,-3.34 -7.2,-15.87 -7.29,-43.86 6.03,-56.83 3.06,-2.97 -1.63,-7.65 -4.68,-4.68z"/>
   <path class="fil4" d="M4888.65 258.1c6.41,1.22 11.86,4.28 16.21,9.14 2.85,3.18 7.52,-1.51 4.68,-4.68 -5.04,-5.62 -11.71,-9.42 -19.13,-10.84 -4.16,-0.79 -5.95,5.58 -1.76,6.38z"/>
   <g>
    <path class="fil2" d="M5242.47 1320.82c-6.19,20.41 -13.01,67.07 4.53,84.8 17.54,17.73 294.61,104.56 311.84,103.64 17.23,-0.92 289.08,-107.07 288.75,-131.94 -0.33,-24.87 5.33,-39.25 -2.59,-48.54 -7.92,-9.29 -275.19,-123 -320.72,-115.71 -33.54,5.37 -276.14,89.05 -281.81,107.75z"/>
    <path class="fil0" d="M5542.53 1423.9c-11.01,-7.41 -231.74,-82.43 -298.75,-105.12 -0.68,0.75 -1.13,1.43 -1.31,2.04 -6.19,20.41 -13.01,67.07 4.53,84.8 16.9,17.09 274.63,98.29 308.89,103.39 -1.14,-29.77 -4.37,-79.07 -13.36,-85.11z"/>
   </g>
   <g>
    <path class="fil2" d="M4879.5 1424.61c0,-32.37 -91.94,-147.97 -108.82,-163.92 -8.39,-7.93 -88.3,-13.17 -170.35,-13.85l0 -0.03c-0.54,0 -1.08,0.01 -1.62,0.01 -0.55,0 -1.09,-0.01 -1.64,-0.01l0 0.03c-82.04,0.68 -161.95,5.92 -170.34,13.85 -16.88,15.95 -108.83,131.55 -108.83,163.92 0,32.37 -8.71,69.36 0,78.61 8.66,9.19 113.2,32.06 279.17,32.36l0 0.01c0.56,0 1.09,-0.01 1.64,-0.01 0.54,0 1.07,0.01 1.62,0.01l0 -0.01c165.98,-0.3 270.52,-23.17 279.17,-32.36 8.71,-9.25 0,-46.24 0,-78.61z"/>
    <path class="fil0" d="M4879.5 1424.61c0,-3.17 -0.9,-7.16 -2.51,-11.76 -49.54,7.28 -186.27,26.05 -278.28,26.05 -114,0 -279.15,-22.09 -279.51,-22.14 -0.82,2.96 -1.3,5.62 -1.3,7.85 0,32.37 -8.71,69.36 0,78.61 8.66,9.19 113.2,32.06 279.17,32.36l0 0.01c0.56,0 1.09,-0.01 1.64,-0.01 0.54,0 1.07,0.01 1.62,0.01l0 -0.01c165.98,-0.3 270.52,-23.17 279.17,-32.36 8.71,-9.25 0,-46.24 0,-78.61z"/>
   </g>
  </g>
 </g>
</svg>
