<?xml version="1.0" encoding="UTF-8"?>
<!DOCTYPE svg PUBLIC "-//W3C//DTD SVG 1.1//EN" "http://www.w3.org/Graphics/SVG/1.1/DTD/svg11.dtd">
<!-- Creator: CorelDRAW 2017 -->
<svg xmlns="http://www.w3.org/2000/svg" xml:space="preserve" width="102.51mm" height="16.02mm" version="1.1" style="shape-rendering:geometricPrecision; text-rendering:geometricPrecision; image-rendering:optimizeQuality; fill-rule:evenodd; clip-rule:evenodd"
viewBox="0 0 10251 1602"
 xmlns:xlink="http://www.w3.org/1999/xlink">
 <defs>
  <style type="text/css">
   <![CDATA[
    .str0 {stroke:#447E6E;stroke-width:7.62;stroke-linecap:round;stroke-miterlimit:10}
    .str1 {stroke:#902626;stroke-width:7.62;stroke-linecap:round;stroke-miterlimit:10}
    .str2 {stroke:#892D2D;stroke-width:7.62;stroke-linecap:round;stroke-linejoin:round;stroke-miterlimit:10}
    .fil15 {fill:none;fill-rule:nonzero}
    .fil14 {fill:#00AC87;fill-rule:nonzero}
    .fil13 {fill:#0C343D;fill-rule:nonzero}
    .fil9 {fill:#134452;fill-rule:nonzero}
    .fil11 {fill:#161518;fill-rule:nonzero}
    .fil10 {fill:#21BC85;fill-rule:nonzero}
    .fil4 {fill:#4B0C05;fill-rule:nonzero}
    .fil1 {fill:#4F7E74;fill-rule:nonzero}
    .fil30 {fill:#56696D;fill-rule:nonzero}
    .fil16 {fill:#56897C;fill-rule:nonzero}
    .fil3 {fill:#67180C;fill-rule:nonzero}
    .fil20 {fill:#6EB8BA;fill-rule:nonzero}
    .fil2 {fill:#70A397;fill-rule:nonzero}
    .fil27 {fill:#75C1C3;fill-rule:nonzero}
    .fil28 {fill:#89CFD4;fill-rule:nonzero}
    .fil23 {fill:#903636;fill-rule:nonzero}
    .fil22 {fill:#AFA89E;fill-rule:nonzero}
    .fil19 {fill:#BA5B5B;fill-rule:nonzero}
    .fil29 {fill:#BF9370;fill-rule:nonzero}
    .fil21 {fill:#CCC6BD;fill-rule:nonzero}
    .fil7 {fill:#CD6982;fill-rule:nonzero}
    .fil17 {fill:#D3C697;fill-rule:nonzero}
    .fil8 {fill:#DB5042;fill-rule:nonzero}
    .fil6 {fill:#DD798C;fill-rule:nonzero}
    .fil18 {fill:#E2D6AA;fill-rule:nonzero}
    .fil12 {fill:#E9D372;fill-rule:nonzero}
    .fil24 {fill:#EF899A;fill-rule:nonzero}
    .fil26 {fill:#F4EBC8;fill-rule:nonzero}
    .fil25 {fill:#F4EBCD;fill-rule:nonzero}
    .fil5 {fill:#F98A70;fill-rule:nonzero}
    .fil0 {fill:#F98E00;fill-rule:nonzero}
    .fil31 {fill:#FFEB99;fill-rule:nonzero}
   ]]>
  </style>
 </defs>
 <g id="Camada_x0020_1">
  <metadata id="CorelCorpID_0Corel-Layer"/>
  <g id="_1670867605072">
   <path class="fil0" d="M1869.76 1478.75c0,0 -0.23,1.83 -0.61,4.89 -1.88,15.44 -7.25,62.14 -3.11,62.14 4.97,0 52.13,3.72 67.03,6.2 14.89,2.49 57.09,11.17 81.92,-6.2 24.82,-17.38 -74.47,-19.86 -78.2,-31.03 -3.72,-11.17 -1.24,-24.83 -1.24,-24.83 0,0 -36.27,6.33 -43.44,3.73l-22.35 -14.9z"/>
   <path class="fil0" d="M1689.18 1483.59c-4.32,19.39 -8.64,38.78 -12.96,58.16 -3.89,17.48 -4.97,33.63 -24.51,39.34 -9.02,2.64 -18.52,3.68 -27.91,3.04 -2.7,-0.18 -5.68,-0.65 -7.36,-2.77 -1.02,-1.28 -1.37,-2.95 -1.64,-4.57 -2.78,-16.81 3.87,-32.49 13.12,-46.41 10.34,-15.57 23.63,-29.61 29.79,-47.25 0.66,-1.92 1.47,-4.11 3.38,-4.79 1.04,-0.38 2.19,-0.2 3.29,-0.02 5.68,0.96 19.12,4.32 24.8,5.27z"/>
   <path class="fil1" d="M1923.17 170.31c3.73,-27.85 14,-56.85 36.91,-73.13 12.26,-8.7 27.07,-12.99 41.74,-16.31 8.27,-1.86 16.91,-3.47 25.15,-1.5 7.12,1.71 13.33,5.94 19.36,10.09 13.26,9.12 26.52,18.24 39.78,27.36 -39.11,46.78 -103.86,68.59 -162.94,53.49z"/>
   <path class="fil2" d="M1812.25 210.77c10.72,48.41 133.35,84.16 243.16,59.85 109.8,-24.3 190.13,-83.24 179.42,-131.65 -10.72,-48.41 -108.42,-67.96 -218.22,-43.66 -109.8,24.3 -215.07,67.05 -204.36,115.46z"/>
   <path class="fil3" d="M1939.07 169.89c-18.58,36.03 -45.75,71.46 -84.86,82.11 -11.76,3.2 -24.47,4.13 -34.81,10.58 -10.49,6.54 -17.13,18.15 -19.64,30.25 -2.52,12.1 -1.28,24.69 1.3,36.78 3.78,-8.79 7.55,-16.59 11.34,-25.37 -10.57,30.48 3.04,67.51 30.83,83.89 18.17,10.7 39.92,12.71 60.55,17.04 55.1,11.56 108.59,41.28 164.26,32.92 3.75,-0.57 4.81,-3.7 5.55,-7.42 0.75,-3.72 -0.05,-7.57 -1.03,-11.24 -4.32,-16.19 -12.19,-33.69 -4.96,-48.81 4.94,-10.32 16.07,-16.93 19.87,-27.71 -8.59,13.57 -11.78,35.1 -7.49,50.47 1.6,5.75 4.04,11.77 9.11,14.93 8.08,5.05 21.33,4.61 22.05,17.39 0.31,5.41 -2.43,10.64 -6.24,14.5 5.25,-0.49 10.22,-3.39 13.22,-7.73 11.29,-16.3 -10.98,-24.4 -15.81,-37.65 -2.98,-8.17 -2.17,-18.37 4.26,-24.22 3.93,-3.58 9.27,-5.05 14.17,-7.09 23.19,-9.65 38.39,-35.66 35.43,-60.59 -2.64,-22.24 -17.78,-41.34 -21.35,-63.45 -3.21,-19.85 3.01,-41.39 -5.49,-59.6 -9.82,-21.05 -35.38,-29.33 -58.48,-31.78 -46.13,-4.9 -91.27,-0.8 -131.78,21.8z"/>
   <g>
    <g>
     <path class="fil4" d="M2101.64 157.62c14.95,49.18 67.28,105.61 27.96,156.75 -9.97,12.96 -23.58,23.01 -32.27,36.98 -7.71,12.4 -12.73,27.52 -4.96,41.57 4.16,7.53 12.19,11.81 16.58,19.1 6.41,10.66 6.14,25 -8.65,26.27 -1.35,0.11 -1.62,-2.05 -0.32,-2.36 23.96,-5.85 -10.13,-39.05 -12.94,-46.83 -2.15,-5.99 -2.14,-12.41 -1.09,-18.62 3.32,-19.53 18.42,-33.11 31.29,-46.79 51.75,-54.99 -1.37,-108.49 -18.01,-165.4 -0.45,-1.55 1.95,-2.2 2.41,-0.67z"/>
    </g>
   </g>
   <g>
    <g>
     <path class="fil4" d="M2115.56 196.04c12.84,39.2 17.91,82.55 -10.35,116.29 -20.4,24.38 -55.67,46.58 -40.04,83.63 6.62,15.67 20.52,25.74 11.77,43.57 -0.9,1.85 -3.59,0.23 -2.73,-1.6 10.14,-21.68 -19.38,-41.82 -16.27,-64.66 2.04,-15.02 11.22,-27.82 21.22,-38.68 17.36,-18.85 36.05,-34.1 41.76,-60.49 5.6,-25.85 0.05,-52.64 -7.68,-77.42 -0.46,-1.49 1.84,-2.1 2.32,-0.64z"/>
    </g>
   </g>
   <g>
    <g>
     <path class="fil4" d="M2109.99 227.94c0.6,29.81 -11.36,56.63 -34.7,75.43 -13.88,11.18 -30.16,19.71 -40.46,34.68 -15.27,22.22 -14.16,48.37 -2.95,71.98 0.58,1.22 -1.09,2.23 -1.83,1.07 -15.04,-23.59 -13.13,-55.51 4.12,-77.55 11.92,-15.23 29.84,-23.56 44.03,-36.26 19.99,-17.9 29.72,-42.73 29.29,-69.35 -0.02,-1.61 2.47,-1.61 2.5,0z"/>
    </g>
   </g>
   <g>
    <g>
     <path class="fil4" d="M1941.34 171.83c-21.75,25.19 -44.54,51.47 -74.9,66.47 -14.37,7.11 -30.56,9.06 -44.81,16.16 -24.56,12.23 -32.13,40.58 -20.65,64.83 0.62,1.33 -1.21,2.45 -1.99,1.16 -15.01,-24.75 -5.12,-57.25 21.06,-69.7 21.42,-10.2 43.78,-12.65 63.9,-26.73 21.24,-14.87 38.57,-34.66 55.56,-54.03 1.1,-1.26 2.92,0.58 1.83,1.84z"/>
    </g>
   </g>
   <g>
    <g>
     <path class="fil4" d="M1926 187.61c-0.82,35.18 -29.53,56.5 -56.39,74.38 -20.33,13.54 -42.73,28.35 -50.89,52.72 -8.09,24.15 -0.41,47.39 13.32,67.51 0.45,0.65 -0.51,1.31 -1.05,0.82 -25.3,-23.29 -24.99,-64.16 -4.55,-90.35 29.21,-37.41 94.95,-49.57 96.87,-105.08 0.06,-1.73 2.73,-1.74 2.69,0z"/>
    </g>
   </g>
   <g>
    <g>
     <path class="fil4" d="M1938.82 180.54c8.85,34.11 -19.14,56.35 -42.22,76.21 -38.28,32.95 -59.54,81.79 -32.27,128.88 0.7,1.21 -1.03,2.13 -1.83,1.07 -20.63,-27.65 -17.65,-64.81 -1.28,-93.8 9,-15.94 21.52,-28.83 35.35,-40.65 21.52,-18.39 47.72,-38.84 39.75,-71.02 -0.41,-1.62 2.08,-2.31 2.5,-0.69z"/>
    </g>
   </g>
   <g>
    <g>
     <path class="fil4" d="M1947.16 215.79c-36.68,45.9 -54.69,97.75 -63.51,155.17 -0.16,1.02 -1.83,0.77 -1.8,-0.24 2.11,-57.27 27.7,-112.88 63.41,-156.83 1.09,-1.35 2.97,0.57 1.9,1.9z"/>
    </g>
   </g>
   <g>
    <g>
     <path class="fil4" d="M1947 221.47c-17.11,48.26 -28.65,98.96 -46.95,146.65 -0.24,0.63 -1.13,0.39 -1.01,-0.29 8.28,-49.81 28.28,-99.71 45.37,-147.08 0.58,-1.61 3.17,-0.92 2.59,0.72z"/>
    </g>
   </g>
   <path class="fil5" d="M2180.92 859.61c0,0 15.44,20.01 19.45,29.73 4,9.72 -8.58,27.45 -14.87,26.87 -6.29,-0.57 -4.58,-56.6 -4.58,-56.6z"/>
   <path class="fil6" d="M2248.65 1062.67l-126.65 -92.81c0,0 -149.59,135.39 -152.86,139.76 -3.28,4.36 55.68,139.75 200.9,177.97l78.61 -224.92z"/>
   <path class="fil7" d="M1969.14 1109.62c2.43,-3.25 85.72,-78.9 128.29,-117.51 -33.47,98.51 4.08,215.22 71.5,295.16 -144.39,-38.62 -203.06,-173.3 -199.79,-177.65z"/>
   <polygon class="fil6" points="2181.91,1251.97 2391.55,1177.73 2415.57,1142.79 2445.05,1217.03 2392.64,1194.1 2173.18,1277.08 2160.07,1267.26 "/>
   <g>
    <path class="fil6" d="M2221.91 906.83c45.46,51.92 23.15,162.96 22.17,167.67l-16.83 -3.48c0.22,-1.07 21.62,-107.31 -18.27,-152.86 -10.59,-12.1 -24.49,-18.6 -42.11,-19.88 2.29,-5.51 4.45,-11.09 6.65,-16.67 19.7,2.56 35.93,10.98 48.39,25.22z"/>
    <path class="fil7" d="M2151.57 881.08c7.74,-0.55 15.05,-0.36 21.95,0.53 -2.2,5.58 -4.36,11.16 -6.65,16.67 -4.47,-0.32 -9.11,-0.4 -14.07,-0.05 -42.2,3.01 -67.38,46.41 -74.83,129l-17.12 -1.55c8.32,-92.24 38.85,-140.89 90.72,-144.6z"/>
   </g>
   <path class="fil5" d="M2172.35 872.76c-14.3,-7.43 -8.58,-6.86 -11.44,-7.44 -4.39,-0.86 -13.38,20.48 -14.67,23.41 -5.76,13.05 -7.15,25.77 9.72,30.81 6.76,2.02 14.42,0.8 20.22,-3.21 2.51,-1.73 4.71,-3.96 7.49,-5.22 3.38,-1.53 7.72,-1.73 9.85,-4.77 1.41,-2.01 1.33,-4.8 0.31,-7.03 -4.1,-8.88 -12.63,-21.95 -21.48,-26.55z"/>
   <path class="fil8" d="M1630.9 800.27l-20.83 73.59c0,0 8.33,3.24 14.35,-17.12 6.02,-20.37 6.02,-58.32 6.02,-58.32l0.46 1.85z"/>
   <path class="fil5" d="M1672.52 781.17c0,0 -1.96,1.49 -0.17,11.62 1.79,10.14 1.19,28.62 -3.58,47.69 0,0 -8.34,0 -8.34,-6.56 0,-6.55 2.98,-22.65 -5.96,-30.4 0,0 -14.31,37.56 -17.88,44.71 -3.58,7.15 4.76,35.86 -2.99,44.7l-4.17 0.6c0,0 -8.94,-43.51 -9.54,-48.28 -0.59,-4.77 17.52,-75.78 17.52,-75.78l35.11 11.7z"/>
   <path class="fil5" d="M1990.82 296.69l-9.36 50.32c0,0 35.11,5.86 53.83,16.39 18.72,10.53 38.62,83.08 57.34,167.34 18.72,84.26 97.13,356.92 97.13,356.92l-37.45 3.51 -122.87 -312.45c0,0 -15.21,59.68 -21.07,97.13 -5.85,37.45 33.94,117.02 28.09,201.28 -5.85,84.25 -94.79,615.53 -94.79,615.53 -15.21,16.39 -85.43,-2.34 -85.43,-2.34l36.28 -531.28c0,0 -83.08,209.47 -87.76,228.19 -4.69,18.73 -104.16,314.8 -104.16,314.8 -36.27,7.02 -67.87,-31.6 -67.87,-31.6 0,0 79.58,-321.81 84.26,-352.24 4.68,-30.42 45.64,-305.43 58.51,-365.11 12.87,-59.68 35.11,-105.32 64.36,-148.62 29.26,-43.29 19.9,-112.34 19.9,-112.34 0,0 -60.86,111.17 -72.56,125.22 -11.7,14.04 -114.68,163.83 -114.68,163.83l-35.11 -11.7c0,0 85.43,-150.96 106.49,-195.43 21.07,-44.47 98.3,-215.32 111.17,-222.35 12.88,-7.02 79.58,-10.53 81.92,-15.21 2.02,-4.04 10.86,-99.49 10.86,-99.49l42.97 59.7z"/>
   <path class="fil9" d="M1716.99 1118.19c4.68,-30.42 45.64,-305.43 58.51,-365.11 7.4,-34.33 17.92,-63.99 31.07,-91.26 63.9,30.24 132.74,-19.15 203.07,-19.52 7.72,42.25 38.77,136.8 34.22,202.33 -5.85,84.26 -102.19,648.03 -102.19,648.03 -15.21,16.39 -85.43,-2.34 -85.43,-2.34l36.28 -531.28c0,0 -83.08,209.47 -87.76,228.19 -4.69,18.73 -104.16,314.8 -104.16,314.8 -36.27,7.02 -67.87,-31.6 -67.87,-31.6 0,0 79.58,-321.81 84.26,-352.24z"/>
   <path class="fil10" d="M2504.28 1543.71c27.24,-38.45 40.74,-86.42 37.56,-133.44 -7.98,8.48 -14.94,20.53 -18.69,31.55 -11.75,34.52 -18.38,65.44 -18.87,101.89z"/>
   <path class="fil10" d="M2485.4 1554.56c14.57,-37.03 13.76,-78.36 8.11,-117.75 -1.57,-10.96 -3.55,-22.02 -8.29,-32.02 -4.73,-10 -12.58,-18.95 -22.95,-22.84 -12.97,27.37 -7.34,59.8 -2.21,89.64 5.13,29.85 15.55,54.32 25.34,82.97z"/>
   <path class="fil10" d="M2323.81 1549.19c0.64,1.73 3.26,0.51 4.43,-0.91 17.52,-21.14 26.69,-49.03 25.14,-76.44 -22.34,20.99 -40.35,48.65 -29.57,77.35z"/>
   <path class="fil10" d="M2268.02 1577.35c3.49,-0.77 5.28,-4.54 6.53,-7.89 6.75,-18.17 11.85,-37.22 12.02,-56.61 0.18,-19.39 -4.91,-39.25 -16.82,-54.55 -13.43,39.41 -13.95,79.25 -1.73,119.05z"/>
   <path class="fil10" d="M2313.42 1567.47c-23.77,-60.87 -20.97,-131.61 7.54,-190.41 8.24,27.84 10.36,57.64 7.45,86.53 -3.88,38.46 -7.44,65.97 -14.99,103.88z"/>
   <path class="fil8" d="M1964.03 343.85c-14.75,-22.13 -13.65,-53.74 -4.9,-81.28l31.69 34.12 -9.19 49.4c-6.19,1.23 -12.61,0.26 -17.6,-2.24z"/>
   <path class="fil5" d="M2047.29 194.67c3.57,-0.38 5.65,-0.61 8.01,-2.25 6.65,-4.65 11.94,-11.22 15.05,-18.72 1.42,-3.42 4.3,-7.39 3.27,-10.95 -3.68,12.81 -16.25,21.65 -29.36,24.05 -13.11,2.39 -26.63,1.03 -39.16,-3.5 6.43,-0.34 12.93,-3.41 16.28,-8.91 3.35,-5.49 2.77,-13.42 -2.11,-17.62 0.36,3.62 -1.88,6.98 -4.36,9.64 -4.99,5.34 -11.44,9.31 -18.46,11.36 -5.8,1.7 -11.93,2.09 -17.74,3.79 -5.81,1.69 -12.74,4.82 -15.14,10.38 -0.68,-4.51 -1.66,-9.13 -4.31,-12.84 -2.65,-3.72 -7.37,-6.3 -11.79,-5.16 -2.06,0.53 -3.87,1.81 -5.42,3.27 -6.77,6.33 -9.32,15.95 -10.5,25.14 -1.15,8.86 -1.16,18.43 3.56,26 2.71,4.34 6.43,7.91 11.23,9.67 0.98,17.46 7.07,34.36 15.66,49.6 8.59,15.23 20.19,27.36 31.71,40.52 22.76,5.39 46.79,-1.25 67.79,-11.54 15.19,-7.44 30.55,-18.26 34.95,-34.59 2.94,-10.88 2.71,-21.08 8.12,-31.28 5.61,-10.59 10.19,-20.74 11.59,-32.82 0.85,-7.3 0.59,-15.02 -2.8,-21.55 -3.92,-7.56 -11.46,-12.5 -16.8,-19.14 -3.12,7.4 -7.91,14.05 -14.97,17.9 -7.05,3.85 -15.42,5.24 -23.34,3.86 -3.45,-0.6 -6.61,-1.43 -10.96,-4.31z"/>
   <g>
    <path class="fil11" d="M2077.61 249.47c0,3.57 2.9,6.47 6.47,6.47 3.57,0 6.47,-2.9 6.47,-6.47 0,-3.57 -2.9,-6.47 -6.47,-6.47 -3.57,0 -6.47,2.9 -6.47,6.47z"/>
    <path class="fil11" d="M2022.56 220.65c0,3.57 2.9,6.47 6.47,6.47 3.57,0 6.46,-2.9 6.46,-6.47 0,-3.57 -2.89,-6.47 -6.46,-6.47 -3.57,0 -6.47,2.9 -6.47,6.47z"/>
   </g>
   <path class="fil8" d="M2069.68 233.1c0,-1.95 -1.57,-3.57 -3.52,-3.57 -1.95,-0.01 -3.57,1.56 -3.58,3.51l0.02 8.78c0.08,3.06 0.29,6.1 0.72,9.06l1.17 6.2c0.65,3.17 1.31,6.37 1.46,9.52 0.09,1.81 0,3.65 -0.24,5.45 -0.23,1.82 -0.66,3.61 -1.23,5.32 -0.66,1.98 -1.62,3.95 -2.87,5.54 -0.95,1.21 -2.12,2.23 -3.47,2.82 -0.89,0.39 -1.89,0.64 -2.91,0.74 -1.1,0.11 -2.32,0.09 -3.53,0.02 -3.12,-0.22 -6.19,-0.92 -9.06,-2.02 -2.89,-1.12 -5.64,-2.66 -8.09,-4.57 -1.55,-1.2 -3.79,-0.92 -5,0.63 -1.2,1.54 -0.92,3.78 0.63,4.99 2.99,2.32 6.37,4.22 9.95,5.58 3.57,1.35 7.34,2.22 11.11,2.48 1.52,0.1 3.13,0.11 4.74,-0.06 1.71,-0.18 3.44,-0.6 5.04,-1.31 2.48,-1.11 4.52,-2.85 6.16,-4.92 1.8,-2.26 3.12,-4.96 4.02,-7.66 0.71,-2.15 1.24,-4.38 1.54,-6.61 0.31,-2.22 0.42,-4.5 0.3,-6.76 -0.17,-3.62 -0.89,-7.12 -1.61,-10.6l-1.07 -5.8c-0.4,-2.76 -0.6,-5.5 -0.67,-8.21l-0.01 -8.55z"/>
   <g>
    <g>
     <g>
      <path class="fil3" d="M2101.38 234.64c-0.92,-2.25 -2.36,-4.21 -3.32,-6.43 -0.91,-2.1 -2.05,-4.04 -3.39,-5.89 -3.06,-4.2 3.98,-9.71 7.25,-5.6 1.94,2.44 3.64,4.93 4.9,7.79 1.27,2.87 1.22,6.18 0.98,9.26 -0.31,3.81 -5.03,4.27 -6.42,0.87z"/>
     </g>
    </g>
    <g>
     <g>
      <path class="fil3" d="M2027.22 190.1c6.17,-2.32 13.24,-1.89 19.02,1.3 5.44,3 0.66,10.75 -4.8,8.21 -3.91,-1.81 -7.69,-2.04 -11.76,-0.61 -5.65,1.97 -7.94,-6.83 -2.46,-8.9z"/>
     </g>
    </g>
   </g>
   <path class="fil8" d="M2033.12 306.95c1.95,0.08 3.63,-1.43 3.71,-3.38 0.09,-1.95 -1.43,-3.63 -3.38,-3.71 -2.24,-0.1 -4.42,-0.9 -6.41,-2.07 -2.6,-1.55 -4.98,-3.78 -7.01,-6.15 -3.11,-3.62 -5.72,-7.69 -7.73,-11.98 -2,-4.3 -3.46,-8.91 -4.25,-13.61 -0.32,-1.93 -2.16,-3.22 -4.09,-2.91 -1.93,0.32 -3.23,2.16 -2.91,4.09 0.89,5.31 2.55,10.53 4.83,15.43 2.29,4.89 5.25,9.5 8.75,13.59 2.48,2.88 5.44,5.64 8.78,7.62 2.94,1.75 6.22,2.91 9.71,3.08z"/>
   <path class="fil12" d="M1796.94 683.43c11.71,-28.56 26.16,-54.15 42.92,-78.97 29.26,-43.29 19.9,-112.34 19.9,-112.34 0,0 -60.86,111.17 -72.56,125.22 -4.41,5.29 -21.82,29.91 -41.78,58.51 -11.42,-3.92 -26.27,-12 -40.02,-28.57 16.39,-30.03 31.25,-57.94 38.5,-73.24 21.07,-44.47 98.3,-215.32 111.18,-222.35 12.87,-7.02 79.57,-10.53 81.91,-15.21 0.53,-1.05 1.33,-7.59 2.24,-16.67 8.23,5.34 24.84,14.72 43.96,17.92l-1.73 9.28c0,0 35.11,5.86 53.83,16.39 18.72,10.53 38.62,83.08 57.34,167.34 7.14,32.11 22.94,91.59 39.77,152.91 -11.94,11.43 -28.8,23.88 -49.84,30.14l-53.12 -135.07c0,0 -15.21,59.68 -21.07,97.13 -1.38,8.89 -0.18,20.18 2.35,33.32l-213.78 -25.74z"/>
   <path class="fil9" d="M1795.85 686.14c11.9,-29.65 26.72,-56.08 44.01,-81.68 6.26,-9.25 10.73,-19.68 13.93,-30.37 9.4,-0.67 24.69,-2.84 26.22,-9.76 11.9,-53.51 7.19,-187.88 5.89,-219.28 6.23,-0.86 12.74,-1.67 18.95,-2.45l13.2 96.44c42.51,10.07 87.25,7.83 87.25,7.83l-10.44 -97.15c5.07,1.14 11.07,2.64 17.2,4.48 0.89,25.01 14.5,82.6 14.5,82.6 0,0 20.86,40.8 24.22,59.81 1.89,10.7 -8.6,59.4 -16.91,85.6 -0.05,0.16 -21.15,65.84 -25.5,93.64 -2.05,13.15 1.53,31.51 6.78,53.43 -48.35,1.55 -171.09,-30.12 -219.3,-43.14z"/>
   <path class="fil13" d="M2023.4 491.47c0,0 -39.15,8.21 -102.92,-5.68 0,0 3.16,57.46 18.94,65.67 6.53,3.4 51.15,9.47 62.51,5.68 11.37,-3.79 21.47,-65.67 21.47,-65.67z"/>
   <g>
    <g>
     <path class="fil4" d="M2095.58 153.41c15.83,24.01 -14.07,49.2 -37.78,44.01 -0.76,-0.17 -0.8,-1.44 0,-1.58 10.7,-1.76 20.86,-1.92 29.66,-9.29 9.33,-7.81 12.71,-21.37 6.04,-31.93 -0.83,-1.32 1.23,-2.5 2.08,-1.21z"/>
    </g>
   </g>
   <g>
    <g>
     <path class="fil4" d="M2081.8 151.23c0.72,10.95 -2.1,21.59 -9.07,30.22 -5.43,6.73 -15.91,15.22 -25.17,13.7 -0.35,-0.06 -0.33,-0.54 -0.09,-0.7 7.65,-5.19 15.91,-6.52 22.43,-13.92 7.13,-8.1 10.07,-18.66 9.5,-29.3 -0.09,-1.55 2.3,-1.54 2.4,0z"/>
    </g>
   </g>
   <g>
    <g>
     <path class="fil4" d="M2078.53 149.95c-7.61,24.89 -36.53,46.18 -62.84,34.18 -0.73,-0.33 -0.38,-1.58 0.41,-1.52 13.18,1.08 24.88,2.19 37.04,-4.39 11.46,-6.19 19.14,-16.66 23.08,-28.91 0.47,-1.46 2.77,-0.85 2.31,0.64z"/>
    </g>
   </g>
   <g>
    <g>
     <path class="fil4" d="M2060.55 148.29c-4.79,8.01 -10.86,15.06 -18.41,20.62 -6.41,4.71 -17,11.44 -25.28,10.37 -0.52,-0.06 -0.72,-0.66 -0.27,-0.98 6.53,-4.55 15.06,-5.98 21.89,-10.55 8.15,-5.47 14.76,-12.39 19.99,-20.68 0.83,-1.3 2.88,-0.12 2.08,1.22z"/>
    </g>
   </g>
   <g>
    <g>
     <path class="fil4" d="M2043.84 148.04c-3.83,6.2 -8.02,12.13 -12.73,17.68 -4.39,5.17 -9.57,11.95 -15.78,14.89 -0.65,0.31 -1.48,-0.35 -1.05,-1.06 3.34,-5.41 9.19,-9.49 13.48,-14.22 5.21,-5.75 9.82,-11.97 14,-18.5 0.84,-1.3 2.9,-0.11 2.08,1.21z"/>
    </g>
   </g>
   <g>
    <g>
     <path class="fil4" d="M2019.89 147.62c1.68,11.18 -4.76,20.43 -14.55,25.51 -15.65,8.12 -31.95,6.6 -44.6,20.7 -0.91,1.02 -2.19,-0.28 -1.74,-1.34 3.82,-8.92 13.26,-12.75 22.08,-15.33 5.91,-1.73 12.08,-2.65 17.88,-4.81 11.93,-4.45 17.36,-12.65 19.64,-24.73 0.11,-0.63 1.2,-0.65 1.29,0z"/>
    </g>
   </g>
   <g>
    <g>
     <path class="fil4" d="M2016.21 150.83c-6.29,7.35 -14.55,10.71 -23.78,12.98 -13.99,3.44 -24.66,5.67 -36.11,15.12 -0.75,0.61 -1.83,-0.14 -1.36,-1.05 10.76,-20.77 44.51,-11.8 59.34,-28.96 1.14,-1.31 3.02,0.6 1.91,1.91z"/>
    </g>
   </g>
   <g>
    <g>
     <path class="fil4" d="M2108.56 158.44c12.81,15.97 28.28,42.45 24.32,63.87 -0.08,0.4 -0.63,0.32 -0.74,0 -3.38,-9.45 -3.67,-19.72 -7.06,-29.32 -4.24,-11.98 -10.52,-22.74 -18.42,-32.65 -1.07,-1.34 0.82,-3.25 1.9,-1.9z"/>
    </g>
   </g>
   <path class="fil5" d="M2178.05 849.27c4.94,10.55 11.22,20.47 18.64,29.45 1.87,2.26 3.9,4.67 4.18,7.6 0.29,3.12 -1.5,6.03 -3.28,8.61 -1.95,2.83 -3.98,5.6 -6.09,8.32 -7.77,0.4 -14.83,0.76 -22.53,1.91 -3.39,0.51 -7.18,1 -9.95,-1 -0.5,-0.36 -0.96,-0.81 -1.12,-1.4 -0.4,-1.34 0.86,-2.56 1.98,-3.4 6.82,-5.1 13.83,-9.95 21.02,-14.52 -5.61,-10.4 -6.58,-24.37 -2.85,-35.57z"/>
   <path class="fil3" d="M2386.35 1581.66c-9.87,-12.61 -20.18,-25.58 -34.33,-33.07 -14.15,-7.5 -33.32,-8.02 -44.81,3.14 -6.2,6.03 -9.91,15.01 -17.82,18.52 -7.05,3.14 -15.16,0.9 -22.77,-0.38 -10.58,-1.77 -21.73,-1.5 -31.67,2.55 -9.94,4.04 -18.5,12.22 -21.37,22.56l172.77 -13.32z"/>
   <path class="fil3" d="M2582.67 1568.65c3.88,-9.6 -5.82,-19.04 -14.81,-24.17 -19.48,-11.11 -43.33,-18.18 -64.29,-10.19 -11.25,4.29 -20.55,12.49 -31.31,17.89 -10.06,5.04 -21.16,7.46 -32.3,8.52 -5.45,0.51 -10.92,0.68 -16.38,0.7 -2.82,0.01 -11.18,-1.98 -12.7,-0.57 -2.5,2.31 -5.62,3.96 -8.94,4.7l180.73 3.12z"/>
  </g>
  <g id="_1670867582992">
   <path class="fil3" d="M9268.1 1551.02c-15.78,-27.41 -43.62,-45.29 -70.4,-62.1 -12.44,-7.81 -25.39,-15.8 -39.96,-17.61 -21.14,-2.63 -43.24,8.13 -63.39,1.22 -18.83,-6.45 -32.82,-27.45 -52.67,-25.83 -8.4,0.68 -15.8,5.5 -22.94,9.97 -30.57,19.16 -63.46,34.63 -97.72,45.95l347.08 48.4z"/>
   <g>
    <path class="fil14" d="M9140.14 948.91c-0.22,-7.42 1.57,-17.26 8.96,-18.02 3.5,-0.36 6.75,1.74 9.53,3.91 17.6,13.74 27.18,35.11 34.43,55.81 10.65,30.43 5.14,64.1 -3.77,95.09 -9.98,34.68 -20.41,67.74 -28.14,102.73 0,0 -18.62,-158.67 -21.01,-239.52z"/>
    <path class="fil14" d="M9156.22 1249.05c-2.77,-2.88 -5.1,-13.5 -6.15,-17.47 -1.8,-6.79 -3.58,-13.58 -5.36,-20.38 -9.15,-34.96 -15.2,-70.69 -18.92,-106.63 -3.2,-30.94 0.87,-68.64 -20.58,-94.1 -2.54,-3.01 -5.62,-5.88 -9.48,-6.65 -17.29,-3.47 -20.85,50.3 -21.61,61.17 -2.35,33.55 -2.89,68.13 8.46,99.79 13.09,36.48 46.81,56.3 73.64,84.27z"/>
    <path class="fil14" d="M9187.84 1245.57c5.04,-22.42 27.6,-37 46.24,-50.44 25.11,-18.1 49.26,-40.2 59.32,-69.47 8.48,-24.67 5.66,-52.97 -7.51,-75.48 -22.62,-4.66 -44.08,16.39 -55.06,36.71 -8.09,14.97 -13.27,31.31 -17.98,47.67 -11.65,40.52 -18.81,69.31 -25.01,111.01z"/>
    <path class="fil14" d="M9117.61 1283.16c-8.11,-15.81 -17.37,-31.25 -29.79,-43.95 -12.42,-12.7 -28.32,-22.57 -45.87,-25.29 -7.53,-1.17 -16.14,-0.66 -21.44,4.81 -5.47,5.64 -5.55,14.57 -4.02,22.27 4.89,24.7 22.3,45.32 42.45,60.41 11.9,8.9 24.85,16.2 37.91,23.24 13.35,7.2 40.91,13.83 48.94,27.86 -6.06,-10.59 -8.09,-22.13 -12.18,-33.28 -4.48,-12.24 -10.05,-24.47 -16,-36.07z"/>
    <path class="fil14" d="M9262 1290.83c8.42,-8.3 18.18,-15.98 29.78,-18.3 2.34,-0.47 4.9,-0.68 6.99,0.47 1.99,1.1 3.16,3.23 4.12,5.3 9.05,19.58 7.47,42.73 0.41,63.11 -4.33,12.46 -10.77,24.45 -20.44,33.43 -9.68,8.97 -22.87,14.65 -36,13.41 -17.06,-1.62 -28.9,-5.93 -45.98,-3.1 3.61,-0.66 12.39,-23.44 14.52,-27.12 4.37,-7.57 7.92,-15.36 12.5,-22.86 9.75,-15.94 20.78,-31.18 34.1,-44.34z"/>
    <path class="fil14" d="M9077.12 1360.06c-19.47,-11.2 -41.26,-19.97 -55.71,-37.18 -4.81,-5.72 -8.76,-12.34 -14.79,-16.75 -6.04,-4.41 -15.22,-5.86 -20.64,-0.72 -4.05,3.86 -4.74,10.06 -4.39,15.64 1.86,29.83 25.15,53.95 50.05,70.46 12.37,8.2 26.39,15.49 41.21,14.63 9.4,-0.55 18.13,-4.43 27.52,-3.43 6.68,0.72 22.4,5.05 25.04,12.48 -4.53,-12.72 -9.51,-25.6 -19.48,-34.6 -8.77,-7.9 -18.59,-14.65 -28.81,-20.53z"/>
   </g>
   <g>
    <path class="fil15 str0" d="M9169.4 1510.9c-10.07,-31.76 -2.61,-65.98 0.32,-99.16 1.54,-17.44 2.79,-34.99 1.68,-52.46 -6.95,-109.19 -18.32,-207.6 -7.8,-307.85"/>
    <path class="fil15 str0" d="M9165.3 1273.02c-11.57,-38.72 -32.51,-64.84 -44.5,-103.43 -8.76,-28.18 -11.2,-58.3 -7.09,-87.52"/>
    <path class="fil15 str0" d="M9171.49 1388.5c-20.24,-28.38 -41.98,-59.22 -62.22,-87.6 -14.46,-20.26 -29.96,-41.41 -52.62,-51.71"/>
    <path class="fil15 str0" d="M9164.79 1485.18c-9.36,-38.32 -32.25,-72.86 -64.66,-95.36 -29.61,-20.55 -66.12,-31.43 -91.34,-57.18"/>
    <path class="fil15 str0" d="M9170.15 1339.59c-0.44,-36.63 8.88,-72.87 22.79,-106.76 13.93,-33.89 32.39,-65.69 51.02,-97.24"/>
    <path class="fil15 str0" d="M9164.27 1467.65c7.26,-28.84 15.87,-59.04 35.95,-80.97 11.7,-12.78 26.78,-21.88 41.63,-30.81 12.32,-7.4 24.64,-14.81 36.96,-22.22"/>
   </g>
   <path class="fil3" d="M9455.99 1558.3c2.85,-16.3 -8.11,-32.51 -22.34,-40.94 -14.23,-8.43 -31.14,-10.75 -47.56,-12.77 -16.42,-2.02 -33.33,-4.08 -47.78,-12.11 -12.21,-6.77 -21.79,-17.32 -32.84,-25.85 -11.05,-8.53 -24.96,-15.26 -38.61,-12.34 -28.68,6.14 -37.66,49.04 -66.49,54.43 -9.88,1.85 -19.94,-1.36 -29.98,-1.84 -19.87,-0.94 -39.87,9.8 -50.06,26.88l335.66 24.54z"/>
   <path class="fil0" d="M8409.85 1311.83c-16.48,-5.69 -34.28,-5.73 -51.7,-6.48 -65.22,-2.79 -129.97,-16.43 -190.78,-40.18 -20.91,21.63 -33.19,49.89 -36.66,79.77 -2,17.21 -0.75,34.6 0.5,51.87 19.87,11.81 37.48,23.77 57.35,35.57 3.07,-4.07 -0.7,-9.25 -3.78,-13.32 -7.83,-10.35 -15.66,-20.7 -23.49,-31.05 14.92,-0.51 32.06,2.11 46.98,1.59 18.3,-0.63 36.66,-1.26 54.87,0.68 22.36,2.37 44.11,8.58 66.09,13.36 63.99,13.92 130.58,15.74 195.24,5.35 -26.43,-50.13 -61.04,-78.67 -114.62,-97.16z"/>
   <path class="fil16" d="M8229.06 1285.32c42.14,11.34 85.49,18.16 129.09,20.03 17.42,0.75 35.22,0.79 51.7,6.48 53.58,18.49 88.19,47.03 114.62,97.16 -64.66,10.39 -131.25,8.57 -195.24,-5.35 -21.98,-4.78 -43.73,-10.99 -66.09,-13.36 -15.22,-1.62 -30.55,-1.43 -45.87,-0.96 -2.11,-35.57 1.54,-70.49 11.79,-104z"/>
   <path class="fil17" d="M8604.36 296.38c3.67,-41.15 -6.78,-84.78 -34.51,-115.41 -27.72,-30.63 -74.12,-45.38 -112.51,-30.1 -13.21,5.26 -24.98,13.67 -35.48,23.26 -24.24,22.13 -42.23,51.04 -51.38,82.57 -10.19,35.1 -9.45,72.3 -13.08,108.67 -2.09,20.99 -5.98,42.63 -18.08,59.91 -12.1,17.28 -34.39,29 -54.59,22.94 -20.21,-6.06 -32.06,-34.12 -18.28,-50.09 -13.68,11.37 -21.38,34.25 -18.35,51.79 3.04,17.53 15.95,33 32.66,39.12 0.86,-0.67 -2.4,-1.34 -2.79,-0.32 -0.4,1.02 -1.57,1.47 -2.63,1.73 -8.79,2.16 -18.71,-1.42 -24.09,-8.7 -10.94,17.35 -3.4,40.07 6.62,57.97 19.14,34.18 44.59,66.1 78.88,85.04 28.17,15.56 61.53,21.53 93.35,16.72 21.54,-3.27 43.37,-12.15 56.41,-29.6 7.43,-9.95 11.52,-21.99 14.48,-34.05 8.35,-34.05 8.52,-69.47 9.84,-104.5 1.32,-35.03 3.96,-70.67 16.84,-103.28 12.87,-32.6 43.36,-62.8 76.69,-73.67z"/>
   <g>
    <g>
     <path class="fil18" d="M8588.38 231.66c-37.4,-72.55 -124.54,-81.81 -181.58,-25.7 -2.08,2.05 -5.08,-1.02 -3.17,-3.17 55.44,-62.52 151.63,-46.08 188.8,26.51 1.37,2.68 -2.66,5.05 -4.05,2.36z"/>
    </g>
   </g>
   <g>
    <g>
     <path class="fil18" d="M8334.19 484.18c-24.65,11.99 -56.62,8.74 -73.9,-14.26 -16.87,-22.46 -14.63,-54.94 4.13,-75.42 2.99,-3.27 7.67,1.53 4.83,4.83 -15.08,17.55 -18.31,43.59 -5.56,63.53 14.39,22.51 44.31,26.63 67.15,15.59 3.82,-1.85 7.19,3.86 3.35,5.73z"/>
    </g>
   </g>
   <g>
    <g>
     <path class="fil18" d="M8605.31 301.97c-15.23,-48.21 -50.56,-94.73 -105.62,-96.88 -60.49,-2.36 -84.79,50.06 -98.29,99.67 -11.15,40.99 -20.6,82.48 -32.22,123.34 -6.94,24.37 -14.54,40.96 -34.94,56.17 -3.53,2.63 -6.95,-3.31 -3.45,-5.9 31.72,-23.52 36.81,-70.34 46.09,-105.63 7.59,-28.83 14.19,-58.15 23.14,-86.59 10.12,-32.13 25.14,-64.23 57.36,-78.99 71.37,-32.7 133.33,29.9 152.64,93.51 0.91,3.02 -3.76,4.28 -4.71,1.3z"/>
    </g>
   </g>
   <g>
    <g>
     <path class="fil18" d="M8596.43 309.51c-26.11,-31.41 -63.21,-63.48 -107.3,-49.51 -43.89,13.91 -64.55,60 -78.76,99.57 -14.57,40.59 -25.95,87.22 -62.25,114.28 -1.03,0.77 -2.06,-0.83 -1.3,-1.69 35.15,-40.2 46.49,-85.02 65.99,-133.3 10.75,-26.6 24.87,-51.91 48.25,-69.3 52.29,-38.88 103.1,-5.92 136.75,38.89 0.6,0.79 -0.74,1.83 -1.38,1.06z"/>
    </g>
   </g>
   <g>
    <g>
     <path class="fil18" d="M8574.67 321.2c-56.84,-55.39 -100.83,26.46 -107.76,71.99 -4.24,27.85 -3.33,56.52 -9.96,84.02 -9.43,39.15 -33.19,75.71 -70.42,93.16 -55.88,26.21 -152.11,-11.39 -137.22,-85.23 0.14,-0.65 1.19,-0.66 1.32,0 15.04,76.09 91.91,122.09 158.83,64.13 50.06,-43.36 42.76,-105.52 53.22,-164.18 9.17,-51.38 63.04,-118.75 115.58,-67.47 2.34,2.28 -1.25,5.86 -3.59,3.58z"/>
    </g>
   </g>
   <g>
    <g>
     <path class="fil18" d="M8554.01 340.87c-61.4,32.68 -45.52,105.5 -51.74,162.67 -3.81,35.07 -17.99,66.44 -45.53,89.15 -51.37,42.38 -130.34,35.04 -171.92,-17.3 -1.37,-1.73 0.82,-4.1 2.49,-2.49 37.18,35.89 86.03,54.63 136.35,33.47 57,-23.96 73.24,-76.03 75.02,-133.31 1.55,-49.96 0.32,-110.95 54.25,-134.04 1.23,-0.53 2.34,1.18 1.08,1.85z"/>
    </g>
   </g>
   <path class="fil19" d="M8487.44 682.12c0,0 64.19,22.47 80.24,35.31 16.05,12.84 117.15,292.08 117.15,292.08l155.67 133.2 -35.31 38.52c0,0 -171.71,-94.69 -186.16,-113.95 -14.44,-19.26 -105.92,-207.02 -105.92,-207.02l-25.67 -178.14z"/>
   <path class="fil6" d="M8619.04 1067.28c-14.45,-19.26 -105.93,-207.02 -105.93,-207.02l-25.67 -178.14c0,0 64.19,22.47 80.24,35.31 16.05,12.83 117.15,292.08 117.15,292.08l23.41 20.03c-16,23.63 -28.43,50.34 -49.59,66.48 -20.33,-12.84 -35.72,-23.54 -39.61,-28.74z"/>
   <path class="fil20" d="M8809.24 1090.1l-50.91 76.99 53.4 29.8 72.02 32.29c0,0 55.88,-9.94 62.09,-26.08 6.21,-16.14 1.24,-40.98 1.24,-40.98 0,0 -23.59,-17.39 -31.04,-24.83 -7.45,-7.46 -4.97,-17.39 -21.11,-11.18 -16.15,6.21 -53.4,1.24 -53.4,1.24l-32.29 -37.25z"/>
   <path class="fil21" d="M8941.46 1103.92c5.02,3.35 9.75,7.21 15.2,9.82 53.14,25.43 80.81,-51.73 90.53,-87.87 7.25,-26.98 9.05,-55.98 0.94,-82.72 -13.45,-2.08 -27.42,5.77 -39.5,12.03 -21.78,11.28 -43.88,22.79 -61.61,39.72 -17.74,16.94 -30.84,40.35 -29.75,64.86 0.72,16.2 10.7,35.15 24.19,44.16z"/>
   <path class="fil22" d="M8946.73 1079.01c3.85,-5.71 11.62,-7.22 17.33,-3.37 5.71,3.85 7.22,11.62 3.37,17.33l-60.98 90.18c-3.85,5.71 -11.62,7.22 -17.33,3.37 -5.71,-3.85 -7.22,-11.62 -3.37,-17.33l60.98 -90.18z"/>
   <path class="fil20" d="M8935.03 1159.47c0,0 -42.52,-2.24 -52.6,3.36 -10.07,5.59 -17.9,42.53 -17.9,42.53l19.22 23.82c0,0 42.33,-22.71 45.69,-27.18 3.36,-4.48 5.59,-42.53 5.59,-42.53z"/>
   <path class="fil20" d="M8909.29 1128.13c0,0 8.95,53.72 5.6,62.67 -3.36,8.96 -32.46,-42.52 -32.46,-42.52 0,0 -11.19,-13.43 -14.55,-16.79 -3.35,-3.36 41.41,-3.36 41.41,-3.36z"/>
   <path class="fil19" d="M8442.63 468.8l-34.81 178.21c0,0 -67.82,38.26 -81.75,64.72 -13.92,26.45 13.53,135.77 45.55,183.11 32.02,47.34 -4.18,111.38 -12.53,123.91 -8.35,12.53 -126.7,121.13 -26.45,240.87 100.24,119.73 114.16,128.08 114.16,128.08l-303.51 -65.43c0,0 -26.46,-18.1 -34.81,-18.1 -8.35,0 -61.26,132.26 -61.26,132.26 0,0 26.45,16.71 47.34,20.89 0,0 4.17,-8.36 -11.14,-19.49l36.2 -54.3c0,0 469.19,178.21 506.79,168.46 37.59,-9.74 142.01,-104.42 143.4,-108.6 1.39,-4.17 -174.03,-323 -174.03,-323 0,0 -59.87,-135.05 -52.91,-178.21 6.96,-43.16 40.38,-84.93 27.85,-123.92 -12.53,-38.98 -48.74,-123.91 -48.74,-123.91l-20.88 -8.35c0,0 -15.31,-75.18 -8.35,-118.35 6.96,-43.16 -50.12,-98.85 -50.12,-98.85z"/>
   <path class="fil23" d="M8459.14 487.26c16.26,20 38.07,52.74 33.61,80.39 -3.81,23.6 -0.95,56.72 2.42,81.94 -9.14,0 -17.95,-3.98 -23.56,-11.19 -31.82,-40.86 -45.14,-108.28 -12.47,-151.14z"/>
   <path class="fil24" d="M8359.88 1017.5c9.51,-14.82 42.91,-76.58 11.74,-122.66 -32.02,-47.34 -57.57,-160.41 -44.2,-187.15 16.14,-32.28 54.09,-51.18 74.07,-58.43 14.43,42.98 59.79,74.01 98.79,66.21 7.25,-7.25 8.9,-14.54 9.28,-26.09l12.43 4.97c0,0 36.2,84.93 48.73,123.91 12.53,38.99 -20.89,80.76 -27.85,123.92 -3.79,23.52 12.27,74.33 27.67,115.71 -68.56,30.42 -159.78,15.71 -210.66,-40.39z"/>
   <path class="fil2" d="M8446.8 1387.7c0,0 -13.92,-8.35 -114.16,-128.08 -100.25,-119.74 18.1,-228.34 26.45,-240.87 0.22,-0.33 0.54,-0.84 0.79,-1.25 50.88,56.1 142.1,70.81 210.66,40.39 12.85,34.53 25.24,62.5 25.24,62.5 0,0 175.42,318.83 174.03,323 -1.39,4.18 -105.81,98.86 -143.4,108.6 -27.26,7.07 -281.45,-84.69 -419.13,-135.67 3.41,-26.19 14.04,-51.47 28.5,-74.11l211.02 45.49z"/>
   <path class="fil0" d="M8108.48 1304.17c8.35,0 34.81,18.1 34.81,18.1l92.49 19.94c-14.46,22.64 -25.09,47.92 -28.5,74.11 -52.18,-19.32 -87.66,-32.79 -87.66,-32.79l-36.2 54.3c15.31,11.13 11.14,19.49 11.14,19.49 -20.89,-4.18 -47.34,-20.89 -47.34,-20.89 0,0 52.91,-132.26 61.26,-132.26z"/>
   <path class="fil19" d="M8714.27 367.62c18.36,29.93 10.88,74.02 -3.29,104.11 -15.4,32.68 -39.24,60.26 -57.29,91.37 -10.76,18.54 -21.74,37.35 -37.28,52.1 -15.55,14.76 -36.59,25.16 -57.92,23.06 -37.23,-3.66 -63.46,-28.4 -87.96,-56.68 -24.49,-28.27 -37.34,-68.84 -25.01,-104.16 0.19,-0.54 1.18,-1.11 0.77,-0.71 -0.4,0.39 -1.08,0.22 -1.61,0.01 -13.02,-5.23 -22.77,-17.87 -24.52,-31.79 -1.76,-13.93 4.55,-28.58 15.87,-36.88 6.66,-4.89 17,-7.14 22.57,-1.03 10.41,-16.86 13.11,-42.91 22.99,-60.08 16.66,-28.96 51.25,-44.21 84.65,-44.95 33.39,-0.74 65.83,10.98 95.96,25.38 20.08,9.6 40.43,21.29 52.07,40.25z"/>
   <g>
    <path class="fil11" d="M8631 515.15c0,5.13 4.16,9.29 9.29,9.29 5.13,0 9.29,-4.16 9.29,-9.29 0,-5.13 -4.16,-9.29 -9.29,-9.29 -5.13,0 -9.29,4.16 -9.29,9.29z"/>
    <path class="fil11" d="M8549.39 474.34c0,5.13 4.16,9.29 9.29,9.29 5.13,0 9.29,-4.16 9.29,-9.29 0,-5.13 -4.16,-9.29 -9.29,-9.29 -5.13,0 -9.29,4.16 -9.29,9.29z"/>
   </g>
   <path class="fil15 str1" d="M8618.43 464.75c-3.02,15.49 -3.48,31.49 -1.34,47.13 1.42,10.38 3.95,21.06 1.1,31.14 -3.73,13.15 -17.37,22.76 -31.02,21.84 -11.94,-0.8 -22.2,-8.51 -31.13,-16.48"/>
   <path class="fil15 str2" d="M8557 586.66c-0.36,0.41 0.82,0.52 0.75,-0.02 -0.08,-0.54 -0.75,-0.73 -1.29,-0.82 -6.2,-1.07 -11.07,-5.86 -14.85,-10.89 -12.2,-16.26 -17.12,-36.79 -19.9,-56.92 -0.12,0.69 1.31,1.19 0.89,0.63 -1.79,-2.39 -5,-3.64 -7.94,-3.07"/>
   <g>
    <g>
     <g>
      <path class="fil25" d="M8553.12 414.65c13.73,-11.05 38.35,-2.23 48.73,9.71 1.78,2.05 0.75,6.04 -2.42,5.83 -7.85,-0.52 -15.53,-1.94 -23.24,-3.43 -7.33,-1.42 -16,-1.64 -22.28,-5.98 -1.86,-1.28 -2.9,-4.43 -0.79,-6.13z"/>
     </g>
    </g>
    <g>
     <g>
      <path class="fil25" d="M8680.39 496.89c-6.74,-3.26 -8.51,-14.13 -11.86,-20.22 -4.05,-7.34 -8.81,-14.68 -11.38,-22.7 -0.47,-1.47 1.11,-3.23 2.64,-2.64 8.77,3.34 15.3,10.87 19.52,19.03 3.45,6.67 10.15,18.35 5.08,25.48 -0.97,1.37 -2.47,1.79 -4,1.05z"/>
     </g>
    </g>
   </g>
   <path class="fil18" d="M8616.81 442.55c9.64,-0.69 19.58,-1.9 27.9,-6.82 8.57,-5.07 14.53,-13.58 19.42,-22.26 6.81,-12.08 12.21,-26.23 8.57,-39.61 -0.32,-1.17 -2.55,-1.82 -2.08,-0.7 -5.9,20.06 -18.23,33.24 -37.12,42.2 -18.88,8.97 -41.59,9.49 -60.87,1.38 -9.35,-3.93 -14.52,-6.92 -20.73,-14.95 1.69,2.46 0.87,0.54 -0.95,2.9 -9.99,12.9 -20.98,25.44 -34.97,33.82 -14,8.37 -31.57,12.1 -46.89,6.5 1.24,-2.14 1.76,-4.57 0.69,-6.8 -3.03,-6.32 -6.47,-12.58 -11.46,-17.5 -5,-4.92 -11.79,-8.39 -18.79,-8.04 -7,0.34 -13.94,5.17 -15.43,12.02 -5.14,-26.63 -9.77,-55.7 -6.82,-82.66 2.95,-26.96 15.31,-54.24 38.25,-68.7 13.43,-8.47 29.43,-11.97 45.25,-13.41 38.57,-3.5 78.14,4.69 112.15,23.22 35.56,19.38 66.01,50.05 105.56,58.79 18.88,4.17 40.81,3.95 53.95,18.15 5.26,5.67 8.33,13.01 10.69,20.38 7.12,22.17 8.48,47.19 -1.63,68.17 -10.11,20.98 -33.58,36.33 -56.5,32.2 7.36,-1.46 14.15,-5.18 18.2,-11.49 10.26,-15.98 11.95,-37.12 4.38,-54.54 6.63,7.61 2.4,15.85 -3.61,23.95 -11.67,15.73 -28.55,28.46 -47.93,31.3 -27.58,4.05 -55.94,-12.2 -79.23,-27.5z"/>
   <g>
    <g>
     <g>
      <path class="fil26" d="M8672.79 362.24c-0.41,38.41 -33.44,71.36 -73,64.67 -1.43,-0.25 -1.09,-2.59 0.35,-2.53 37.77,1.45 69.14,-22.59 69.61,-62.14 0.02,-1.96 3.07,-1.96 3.04,0z"/>
     </g>
    </g>
    <g>
     <g>
      <path class="fil26" d="M8659.83 321.39c4.57,53.25 -54.93,81.45 -100.52,82.03 -0.73,0.01 -0.86,-1.07 -0.17,-1.27 21,-6.11 42.16,-7.44 61.64,-18.63 22.57,-12.96 38.62,-35.41 36.7,-62.13 -0.1,-1.52 2.22,-1.49 2.35,0z"/>
     </g>
    </g>
    <g>
     <g>
      <path class="fil26" d="M8561.28 404.62c-11.5,27.99 -54.43,52.81 -83.47,35.77 -0.38,-0.23 -0.24,-0.9 0.24,-0.87 15.34,0.9 28.16,3.36 43.21,-2.01 17.21,-6.14 29.37,-18.01 38.52,-33.52 0.46,-0.77 1.86,-0.26 1.5,0.63z"/>
     </g>
    </g>
    <g>
     <g>
      <path class="fil26" d="M8658.39 319.06c27.11,17.45 42.8,50.43 33.44,82.46 -8.84,30.22 -41.1,54.28 -72.86,50.36 -0.9,-0.11 -0.91,-1.3 0,-1.41 31.06,-3.78 59.97,-17.32 69.69,-49.82 9.17,-30.62 -5.79,-62.31 -31.69,-79.16 -1.51,-0.98 -0.11,-3.41 1.42,-2.43z"/>
     </g>
    </g>
    <g>
     <g>
      <path class="fil26" d="M8664.81 319.95c36.9,10.85 85.51,34.09 80.03,80.31 -5.02,42.44 -49.45,64.39 -88.54,59.6 -1.17,-0.15 -1.24,-1.84 0,-1.88 39.49,-1.23 90.37,-19.24 85.28,-68.57 -4.18,-40.54 -44.73,-54.8 -77.18,-67.99 -0.88,-0.36 -0.56,-1.76 0.41,-1.47z"/>
     </g>
    </g>
    <g>
     <g>
      <path class="fil26" d="M8667.69 316.97c43.11,15.89 106.05,27.44 114.76,81.58 6.33,39.38 -19.79,73.55 -55.57,86.9 -1.35,0.5 -2.31,-1.74 -0.99,-2.36 39.62,-18.81 70.07,-61.55 45.96,-105.62 -19.07,-34.88 -70.47,-44.6 -104.94,-57.68 -1.74,-0.66 -1,-3.48 0.78,-2.82z"/>
     </g>
    </g>
    <g>
     <g>
      <path class="fil26" d="M8654.13 310.72c-23.88,19.98 -49.86,19.14 -79.81,18.36 -65.16,-1.7 -117.1,28.39 -138.23,91.93 -0.59,1.78 -3.35,1.05 -2.82,-0.77 10.33,-35.46 33.62,-64.67 66.82,-81.51 48.07,-24.38 109.77,5.23 152.05,-30 1.38,-1.15 3.38,0.83 1.99,1.99z"/>
     </g>
    </g>
    <g>
     <g>
      <path class="fil26" d="M8641.17 308.74c-88.25,-46.74 -181,-8.98 -222.83,78.05 -0.51,1.07 -2.34,0.32 -1.93,-0.81 34.31,-92.7 141.76,-124.85 225.88,-79.16 1.26,0.68 0.14,2.59 -1.12,1.92z"/>
     </g>
    </g>
    <g>
     <g>
      <path class="fil26" d="M8646.97 309.88c-71.61,-50.74 -158.16,-47.12 -221.64,14.41 -1.14,1.11 -2.78,-0.56 -1.74,-1.74 59.39,-66.98 155.44,-64.82 224.74,-14.99 1.39,1 0.06,3.33 -1.36,2.32z"/>
     </g>
    </g>
   </g>
   <path class="fil27" d="M8789.16 375.84l-358.93 -87.59c0,0 -19.11,32.72 -15.07,39.99 0.55,1 380.71,84.94 380.71,84.94 0,0 -4.29,-25.22 -6.71,-37.34z"/>
   <path class="fil28" d="M8795.87 413.18c0,0 126.05,90.49 45.25,88.88 -80.8,-1.62 -348.26,-159.18 -348.26,-159.18l303.01 70.3z"/>
   <path class="fil12" d="M8554.19 777.9c0,0 -38.73,6.68 -68.12,8.02 -29.38,1.33 -45.4,-4.01 -45.4,-4.01 0,0 -9.35,162.94 -24.05,212.36 -14.69,49.41 -25.37,80.13 -66.77,180.3 -41.41,100.17 205.17,280.63 215.02,311.19 13.36,41.4 8.02,69.45 -8.01,76.12 0,0 50.75,9.35 62.77,10.69 12.02,1.33 136.23,-41.4 145.58,-60.1 9.35,-18.7 28.04,-113.53 5.34,-152.26 -22.7,-38.73 -84.14,-108.18 -114.86,-152.25 -30.72,-44.08 -96.16,-173.62 -104.17,-209.69 -8.02,-36.06 -12.02,-57.42 2.67,-92.15 14.69,-34.73 38.73,-64.11 0,-128.22z"/>
   <path class="fil19" d="M8430.97 762.83l141.21 224.59 173.48 151.97 -9.41 44.38c0,0 -225.93,-122.38 -243.42,-147.94 -17.48,-25.55 -122.38,-154.65 -139.86,-177.52 -17.48,-22.86 78,-95.48 78,-95.48z"/>
   <path class="fil24" d="M8430.97 762.83l141.21 224.59 95.27 83.45c-12.49,18.7 -24.11,37.97 -38.81,52.84 -60.89,-34.9 -126.69,-74.55 -135.81,-87.88 -17.48,-25.55 -122.38,-154.65 -139.86,-177.52 -17.48,-22.86 78,-95.48 78,-95.48z"/>
   <path class="fil28" d="M8749.95 1115.56l-29.66 66.34 39.02 20.29c0,0 62.44,69.46 76.49,73.37 14.05,3.9 62.44,-41.37 69.46,-45.27 7.03,-3.9 -53.85,-3.12 -60.87,-6.25 -7.03,-3.12 -26.54,-29.65 -24.2,-40.58 2.34,-10.93 28.1,-16.39 22.64,-29.66l-53.08 4.69 -39.8 -42.93z"/>
   <path class="fil29" d="M8473.55 1073.93c-6.96,-9 -13.92,-17.97 -20.75,-26.93 -0.76,-1 -1.64,-2.07 -2.87,-2.3 -0.92,-0.17 -1.85,0.16 -2.73,0.49 -4.5,1.68 -9,3.36 -13.5,5.04 1.4,10.21 18.63,26.05 24.84,34.94 6.06,8.69 11.78,17.68 18.13,26.15 9.36,12.48 18.92,25.16 31.59,34.26 2.03,1.46 4.2,2.85 6.66,3.24 2.46,0.41 5.28,-0.42 6.56,-2.56 1.87,-3.12 -0.22,-7.04 -2.26,-10.05 -14.18,-21.28 -29.91,-41.88 -45.67,-62.28z"/>
   <path class="fil30" d="M8528.21 1116.32c-7.41,-18.59 -6.23,-39.75 -13.72,-58.3 -0.56,-1.38 -1.18,-2.77 -2.27,-3.78 -1.03,-0.97 -2.4,-1.51 -3.77,-1.86 -9.3,-2.39 -19.95,3.77 -22.5,13.02 -1.43,5.17 -0.55,10.73 1.2,15.81 5.29,15.42 17.68,26.68 28.94,37.86 2.33,2.32 13.25,17.06 15.82,16.97 7.69,-0.26 -2.63,-17.04 -3.7,-19.72z"/>
   <path class="fil31" d="M8515.74 1109.06c-19.36,-1.35 -38.72,-2.69 -58.07,-4.03 7.63,47.99 14.09,105.57 64.7,126.33 14.49,5.94 31.13,5.18 46.02,0.32 14.9,-4.85 28.26,-13.54 40.62,-23.17 4.64,-3.62 9.46,-7.88 10.51,-13.66 1.42,-7.85 -4.49,-14.88 -9.47,-21.1 -15.66,-19.59 -25.6,-43.71 -28.29,-68.64 0,0 -44.85,5.42 -66.02,3.95z"/>
   <path class="fil12" d="M8464.5 790.4c-4.59,0.7 -10.29,1.59 -14.87,2.2 -18.03,-42.77 -65.9,-88.18 -110.4,-102.14 6.09,-7.15 13.18,-13.31 20.47,-18.7 49.92,15.22 98.2,68.13 104.8,118.64z"/>
   <path class="fil12" d="M8521.99 694.35c0,0 19.56,51.15 34.48,89.44 -3.52,0.67 -12.41,-0.7 -15.97,0 -17.65,-25.53 -33.82,-66.78 -38,-97.48l19.49 8.04z"/>
  </g>
 </g>
</svg>
