<?xml version="1.0" encoding="UTF-8"?>
<!DOCTYPE svg PUBLIC "-//W3C//DTD SVG 1.1//EN" "http://www.w3.org/Graphics/SVG/1.1/DTD/svg11.dtd">
<!-- Creator: CorelDRAW 2017 -->
<svg xmlns="http://www.w3.org/2000/svg" xml:space="preserve" width="102.51mm" height="16.02mm" version="1.1" style="shape-rendering:geometricPrecision; text-rendering:geometricPrecision; image-rendering:optimizeQuality; fill-rule:evenodd; clip-rule:evenodd"
viewBox="0 0 10251 1602"
 xmlns:xlink="http://www.w3.org/1999/xlink">
 <defs>
  <style type="text/css">
   <![CDATA[
    .fil0 {fill:#151515;fill-rule:nonzero}
    .fil17 {fill:#1A2442;fill-rule:nonzero}
    .fil9 {fill:#24346B;fill-rule:nonzero}
    .fil1 {fill:#313131;fill-rule:nonzero}
    .fil22 {fill:#3A2616;fill-rule:nonzero}
    .fil3 {fill:#444444;fill-rule:nonzero}
    .fil10 {fill:#445795;fill-rule:nonzero}
    .fil21 {fill:#563B1F;fill-rule:nonzero}
    .fil23 {fill:#59362A;fill-rule:nonzero}
    .fil18 {fill:#871A13;fill-rule:nonzero}
    .fil15 {fill:#875D3B;fill-rule:nonzero}
    .fil16 {fill:#997049;fill-rule:nonzero}
    .fil13 {fill:#A54B28;fill-rule:nonzero}
    .fil20 {fill:#C64428;fill-rule:nonzero}
    .fil12 {fill:#CD413B;fill-rule:nonzero}
    .fil8 {fill:#D45421;fill-rule:nonzero}
    .fil14 {fill:#D66B3A;fill-rule:nonzero}
    .fil24 {fill:#DB502B;fill-rule:nonzero}
    .fil6 {fill:#E87026;fill-rule:nonzero}
    .fil19 {fill:#EF794B;fill-rule:nonzero}
    .fil4 {fill:#F49E75;fill-rule:nonzero}
    .fil11 {fill:#FF504D;fill-rule:nonzero}
    .fil7 {fill:#FFAC13;fill-rule:nonzero}
    .fil5 {fill:#FFCDA5;fill-rule:nonzero}
    .fil2 {fill:white;fill-rule:nonzero}
   ]]>
  </style>
 </defs>
 <g id="Camada_x0020_1">
  <metadata id="CorelCorpID_0Corel-Layer"/>
  <g id="_2301278294960">
   <g>
    <polygon class="fil0" points="9181.59,878.62 9364.85,1139.32 9398.41,1454.22 9492.62,1454.22 9492.62,1122.54 9395.83,878.62 "/>
    <polygon class="fil1" points="9500.54,1492.29 9389.99,1492.29 9389.99,1454.22 9500.54,1454.22 "/>
    <g>
     <path class="fil0" d="M9556.63 1558.12l-15.29 -5.65c-23.46,-8.67 -41.71,-27.53 -49.62,-51.25l-2.97 -8.93 -72.27 0 -7.19 84.53 173.08 0c-6.79,-8.29 -15.51,-14.91 -25.74,-18.7z"/>
     <path class="fil2" d="M9409.29 1576.82l-1.2 14.2 183.26 0c-2.26,-5.23 -5.44,-9.87 -8.98,-14.2l-173.08 0z"/>
    </g>
   </g>
   <g>
    <path class="fil1" d="M9504.22 887.66l35.97 235.82c4.93,32.35 -7.09,64.96 -31.84,86.37l-170.6 147.57 -52.91 -56.78 147.12 -187.13 -77.43 -218.11 149.69 -7.74z"/>
    <polygon class="fil3" points="9344.2,1364.35 9278.38,1293.71 9253.86,1322.11 9319.68,1392.74 "/>
    <g>
     <path class="fil1" d="M9324.08 1497.88l-24.33 -60.67c-6.08,-15.13 -4,-32.31 5.51,-45.56l5.83 -8.13 -43.96 -47.17 -61.05 66.08 121.68 123.52c0.96,-9.46 -0.07,-19.08 -3.68,-28.07z"/>
     <path class="fil2" d="M9206.08 1402.43l-10.29 11.14 127.77 129.7c2.37,-5.56 3.59,-11.41 4.2,-17.32l-121.68 -123.52z"/>
    </g>
   </g>
   <g>
    <polygon class="fil4" points="9377.76,235.92 9361.12,277.22 9315.85,250.9 9319.57,220.1 "/>
    <path class="fil1" d="M9367.32 233.52c-29.5,17.85 -69.25,12.92 -97.62,-6.68 -28.38,-19.59 -46.35,-51.57 -55.4,-84.85 -8,-29.45 -9.19,-62.73 6.79,-88.73 15.99,-25.99 53.25,-39.97 78.68,-23.09 10.64,-18.29 25.82,-33.97 46.74,-37.2 20.92,-3.23 43.16,3.45 58.83,17.69 14.6,13.26 23.9,32.68 41.42,41.74 16.23,8.39 36.97,6.35 51.69,17.19 14.45,10.64 18.57,31.76 12.49,48.64 -6.08,16.89 -20.57,29.68 -36.68,37.59 -16.11,7.9 -33.92,11.54 -51.52,15.11 -6.43,9.82 -12.98,23.36 -19.42,33.18 -8.43,12.86 -22.84,21.44 -36,29.41z"/>
    <path class="fil5" d="M9333.65 244.2c23.46,5.79 37.54,4.2 54.89,-4.05 17.35,-8.25 30.52,-23.61 39.57,-40.56 9.05,-16.95 14.39,-35.59 19.66,-54.07 -10.28,0.95 -21.97,-0.24 -31.26,-4.74 -5.71,13.2 -11,26.67 -16.7,39.88 -1.55,-5.95 -4.62,-11.09 -8.83,-15.57 -4.21,-4.48 -10.19,-7.52 -16.33,-7.29 -7.99,0.29 -15.21,6.32 -17.73,13.9 -2.52,7.59 -0.61,16.28 4.16,22.69 4.78,6.41 12.17,10.61 19.96,12.37 -8.86,14.72 -30.26,36.08 -47.39,37.44z"/>
   </g>
   <g>
    <path class="fil6" d="M9230.16 321.21l-95.85 155.35c-10.01,16.23 -9.31,36.88 1.77,52.39l106.63 149.26 38.23 -32.31 -69.38 -133.19 98.25 -138.82c14.1,-19.92 10.92,-47.26 -7.37,-63.41 -22.2,-19.61 -56.72,-14.49 -72.28,10.73z"/>
    <path class="fil7" d="M9241.91 290.99c-26.69,209.53 -85.87,414.91 -174.78,606.51 76.52,-2.32 151.56,11.42 227.34,22.28 75.79,10.86 154.85,15.78 227.34,-8.87 -9.7,-120.53 -21.85,-242.34 -31.55,-362.87 -5.02,-62.32 -10.38,-126.06 -36.1,-183.05 -25.72,-56.98 -76.22,-106.86 -138.31,-114.09 -18.29,18.61 -48.51,34.24 -73.94,40.09z"/>
    <path class="fil6" d="M9348.33 386.33l-73.97 197.54c-7.73,20.64 -2.33,43.89 13.7,59l154.23 145.41 36.13 -45.17 -108.4 -135.51 80.38 -179.32c11.54,-25.74 1.83,-56.02 -22.52,-70.25 -29.56,-17.27 -67.55,-3.76 -79.55,28.3z"/>
    <polygon class="fil8" points="9430.66,838.64 9504.22,746.68 9497.14,719.72 9423.57,811.67 "/>
    <g>
     <path class="fil6" d="M9132.99 278.36c-22.25,37.32 14.58,81.95 55.45,67.2l131.13 -47.34 -125.42 -122.43 -61.16 102.57z"/>
     <polygon class="fil6" points="9214.3,141.99 9194.15,175.79 9319.57,298.22 9377.76,277.22 "/>
    </g>
   </g>
  </g>
  <g id="_2301278338000">
   <g>
    <g>
     <path class="fil9" d="M3782.37 879.89l-34.61 -128.51 -142.26 138.53c20.81,31.87 40.66,64.36 59.64,97.35 36.6,-38.38 75.79,-74.28 117.23,-107.37z"/>
     <path class="fil10" d="M3961.47 1338.85c-29.09,-95.18 -71.32,-186.33 -127.77,-268.3l-51.33 -190.66c-41.44,33.09 -80.63,68.99 -117.23,107.37 72.48,125.95 131.53,259.61 175.64,398.07l120.69 -46.48z"/>
    </g>
    <g>
     <path class="fil2" d="M3909.95 1552.66c-9.5,0.91 -19.77,1.65 -27.92,-3.07 -6.59,-3.82 -10.3,-11.2 -10.31,-18.5l-49.79 26.73c-12.3,6.61 -22.62,16.36 -29.9,28.28l187.96 0 -14.58 -38.71c-18.49,1.76 -36.98,3.52 -55.46,5.27z"/>
     <path class="fil4" d="M3919.39 1355.05l-61.17 23.57 7.91 26.63c20.16,-5.75 40.12,-12.16 59.84,-19.25l-6.58 -30.95z"/>
     <path class="fil5" d="M3882.03 1549.59c8.15,4.72 18.42,3.98 27.92,3.07 18.48,-1.75 36.97,-3.51 55.46,-5.27l-11.69 -31.02 -27.75 -130.37c-19.72,7.09 -39.68,13.5 -59.84,19.25l25.56 86.03c4.34,14.61 -2.18,30.26 -15.6,37.47l-4.37 2.34c0.01,7.3 3.72,14.68 10.31,18.5z"/>
    </g>
   </g>
   <g>
    <path class="fil4" d="M3419.97 770.66l-30.2 39.61c-10.86,14.25 -7.83,34.64 6.69,45.12l2.87 2.07c8.58,6.2 20.68,3.16 25.31,-6.36l5.58 -11.47 0.71 0c8.27,0 15.24,-6.16 16.25,-14.37l3.36 -27.35 -30.57 -27.25z"/>
    <g>
     <path class="fil11" d="M3529.09 570.27l-14.96 53.78 -101.06 140.47 46.49 41.43 101.05 -144.51 5.19 -15.95c-1.65,-13.17 -4.13,-26.18 -8.97,-38.5 -5.67,-14.46 -15.1,-28.02 -27.74,-36.72z"/>
     <path class="fil12" d="M3546.46 507.84l-17.37 62.43c12.64,8.7 22.07,22.26 27.74,36.72 4.84,12.32 7.32,25.33 8.97,38.5l21.09 -64.89 -40.43 -72.76z"/>
    </g>
   </g>
   <g>
    <path class="fil4" d="M3579.32 282.1c8.24,23.53 16.48,47.05 24.72,70.58 2.22,6.32 9.71,11.06 16.39,10.58 6.69,-0.48 12.84,-4.1 17.62,-8.8 4.79,-4.69 8.39,-10.43 11.95,-16.11 -1.31,-29.87 -3.98,-58.3 -5.29,-88.17 -12.13,-3.34 -24.64,-2.29 -36.06,2.98 -11.42,5.27 -24.01,17.55 -29.33,28.94z"/>
    <path class="fil13" d="M3757.33 88.12c0,28.47 -23.07,51.54 -51.53,51.54 -28.47,0 -51.54,-23.07 -51.54,-51.54 0,-28.46 23.07,-51.53 51.54,-51.53 28.46,0 51.53,23.07 51.53,51.53z"/>
    <path class="fil14" d="M3670 107.56c19.31,20.67 26.18,50.31 26.25,78.59 0.04,13.53 -1.36,27.3 -6.6,39.77 -5.24,12.47 -14.72,23.6 -27.29,28.59 -12.19,4.85 -25.9,3.57 -38.84,1.39 -36.88,-6.22 -72.61,-19.21 -104.87,-38.15 -9.34,-5.48 -18.74,-11.81 -24.12,-21.22 -5.62,-9.82 -6.1,-22.01 -3.16,-32.95 2.94,-10.92 9.04,-20.76 15.94,-29.73 19.07,-24.78 45.82,-44.52 76.42,-50.96 30.59,-6.45 64.92,1.83 86.27,24.67z"/>
    <path class="fil5" d="M3503.52 194.26c0.88,17.7 -4.9,35.66 -15.93,49.53 4.48,2.95 8.96,5.89 13.44,8.83 5.54,18.75 11.72,38.45 28.29,48.82 17.05,10.67 40.06,7.05 57.12,-3.61 17.07,-10.66 29.48,-27.18 41.49,-43.32 7.7,0.33 16.29,-0.68 22.86,-4.69 6.57,-4.01 11.68,-10.7 12.86,-18.3 1.18,-7.61 -1.96,-15.95 -8.4,-20.16 -6.82,-4.46 -16.07,-3.73 -23.3,0.01 -7.23,3.73 -12.79,10.03 -17.68,16.54 -14.25,-16.24 -24.86,-39.37 -28.85,-60.61 -21.88,17.67 -54.18,31.73 -81.9,26.96z"/>
   </g>
   <g>
    <path class="fil11" d="M3747.62 470.84c-0.43,-23.7 -2.18,-47.38 -9.12,-69.96 -5.81,-18.89 -18.54,-38.43 -34.46,-53.18 -14.91,-13.81 -36.48,-17.77 -55.73,-11.23l-29.39 9.98c-15.14,5.14 -30.93,10.69 -41.9,22.32 -11.93,12.64 -16.27,30.39 -21.35,47.01 -7.14,23.36 -16.57,46.03 -28.1,67.56 -9.46,17.67 -7.92,39.33 4.81,54.81 4.77,5.8 10.22,11.01 16.27,15.43 11.25,8.23 19.93,19.52 23.33,33.03 8.82,35.07 16.98,70.52 26.18,105.37 49.08,-12.83 100.51,-22.03 149.59,-34.86 0.01,-25.88 0.01,-52.16 0.01,-78.45l-82.62 -172.76 82.48 64.93z"/>
    <path class="fil12" d="M3747.76 494c0.01,-7.7 0,-15.43 -0.14,-23.16l-82.48 -64.93 82.62 172.76c0,-28.36 0,-56.75 0,-84.67z"/>
   </g>
   <g>
    <path class="fil10" d="M3598.16 691.98l-151.17 266.73c-22.05,38.92 -23.65,86.16 -4.29,126.47l114.4 238.17 144.39 -75.59 -144.39 -242.36 184.47 -152c45.16,-37.2 57.65,-101.18 29.8,-152.64l-23.62 -43.64 -78 0 -71.59 34.86z"/>
    <g>
     <path class="fil4" d="M3627.15 1286.67l-54.49 28.53 13.81 29.49c15.81,-8.42 31.63,-16.84 47.44,-25.27l-6.76 -32.75z"/>
     <path class="fil5" d="M3630.02 1413.85c8.26,-6.16 14.97,-14.12 21.96,-21.69 2.53,-2.73 5.17,-5.38 7.89,-7.94 -10.74,-12.07 -18.11,-26.76 -21.38,-42.58l-4.58 -22.22c-15.81,8.43 -31.63,16.85 -47.44,25.27l2.11 4.5c10.08,21.53 8.94,46.5 -2.69,67.08 4.17,3.87 9.74,6.45 15.44,7.02 10.25,1.01 20.43,-3.28 28.69,-9.44z"/>
     <path class="fil2" d="M3659.87 1384.22c-2.72,2.56 -5.36,5.21 -7.89,7.94 -6.99,7.57 -13.7,15.53 -21.96,21.69 -8.26,6.16 -18.44,10.45 -28.69,9.44 -5.7,-0.57 -11.27,-3.15 -15.44,-7.02 -0.54,0.95 -0.98,1.95 -1.56,2.88l-34.58 55.21c-7.85,12.54 -9.79,27.9 -5.31,42.01l143.5 -100.59 -28.07 -31.56z"/>
    </g>
   </g>
   <g>
    <g>
     <path class="fil15" d="M3641.58 591.05l-8.07 -0.52 14.18 -220.9c0.8,-12.43 7.91,-23.24 19,-28.9 11.12,-5.66 24.04,-5.07 34.57,1.57l211.29 133.23 -4.31 6.84 -211.29 -133.24c-8.09,-5.11 -18.04,-5.56 -26.58,-1.2 -8.53,4.35 -14,12.66 -14.61,22.23l-14.18 220.89z"/>
    </g>
    <path class="fil16" d="M3624.07 582.03l293.73 -115.88 36.35 134.67c13.37,49.55 -9.78,101.7 -55.5,125.02l-77.14 39.34c-57.81,29.48 -128.4,2.01 -151.07,-58.8l-46.37 -124.35z"/>
   </g>
   <g>
    <polygon class="fil5" points="3846.84,765.25 3838.85,805.28 3853.67,805.28 3856.37,839.63 3908.92,816.06 3889.45,751.38 "/>
    <path class="fil11" d="M3658.54 398.33c46.1,54.01 109.02,106.58 138.9,169.91l38.04 200.71 57.94 -18.86 -32.14 -173.76c-5.44,-29.37 -17.94,-56.98 -36.43,-80.44l-110.29 -139.97c-13.24,-19.94 -42.08,-21.16 -56.94,-2.4 -10.49,13.22 -10.04,31.97 0.92,44.81z"/>
   </g>
  </g>
  <g id="_2301287815248">
   <g>
    <g>
     <path class="fil1" d="M6396.78 1463.05l50.52 20.03c-5.35,18.52 3.29,38.21 20.52,46.83l48.99 24.49c8.36,4.18 15.25,10.6 20.09,18.41l-177.47 0 37.35 -109.76z"/>
     <path class="fil2" d="M6536.9 1572.81c2.2,3.55 4.03,7.36 5.29,11.42l-186.65 0 3.89 -11.42 177.47 0z"/>
    </g>
    <g>
     <path class="fil17" d="M6518.11 902.6l8.06 -83.16 147.21 104.58 -38.41 138.26c-51.18,-42.64 -91.7,-98.01 -116.86,-159.68z"/>
     <path class="fil9" d="M6492.52 1166.55l25.59 -263.95c25.16,61.67 65.68,117.04 116.86,159.68l-31.69 114.08 -143 315.44 -81.31 -32.24 26.29 -105.19c16.9,-67.58 46.51,-131.32 87.26,-187.82z"/>
    </g>
   </g>
   <g>
    <path class="fil4" d="M6785.7 306.25c-26.33,6.81 -47.78,29.71 -52.84,56.43 -13.13,-6.34 -28.01,-16.65 -41.14,-22.99l18.48 -62.53 75.5 29.09z"/>
    <path class="fil18" d="M6823.38 202.24c18.07,-6.31 36.45,-14.39 48.61,-29.18 12.17,-14.78 16.04,-37.98 4.05,-52.9 -7.73,-9.61 -20.19,-14.01 -32.26,-16.55 -12.07,-2.55 -24.61,-3.77 -35.79,-8.97 -16.22,-7.56 -27.54,-22.47 -40.95,-34.31 -13.42,-11.84 -32.37,-21.09 -48.84,-14.09 -11.13,4.74 -18.3,15.95 -21.88,27.51 -3.58,11.55 -4.22,23.78 -6.28,35.7 -2.07,11.92 -5.87,24.1 -14.39,32.68 -9.38,9.44 -23.72,13.78 -30.63,25.15 -8.51,14 -2.04,32.17 6.18,46.34 13.69,23.61 37.4,46.85 59,63.54l113.18 -74.92z"/>
    <path class="fil5" d="M6836.12 187.34c-8.23,21.5 -3.22,47.48 12.42,64.38 -6.3,2.54 -12.61,5.08 -18.91,7.62 -3.19,11.93 -9.19,23.1 -15.16,33.92 -5.96,10.82 -15.01,20.43 -26.65,24.55 -14.73,5.21 -31.49,0.83 -44.56,-7.72 -13.08,-8.54 -23.18,-20.84 -33.06,-32.93 5.16,-6.29 13,-13.92 18.16,-20.22 -6.34,2.32 -13.88,-0.14 -18.68,-4.88 -4.8,-4.74 -7.34,-11.35 -8.63,-17.97 -1.78,-9.12 -0.86,-19.84 6.29,-25.76 6.88,-5.69 17.69,-4.74 24.82,0.63 7.12,5.38 10.94,14.23 12.24,23.06 14.95,-9.39 28.1,-24.65 34.05,-41.27 5.94,-16.62 6.13,-35.24 0.53,-51.98 17.68,15.52 39.46,33.05 57.14,48.57z"/>
   </g>
   <g>
    <g>
     <path class="fil7" d="M6571.31 360.51c10.78,-7.6 20.11,-17.18 31.27,-24.23 1.44,-0.9 2.93,-1.76 4.46,-2.57 4.07,15.94 4.5,32.78 1.19,48.91 -7.04,5.59 -13.74,11.66 -21.09,16.84 -32.56,22.97 -78.39,25.38 -113.19,5.97l-15.83 -38.95c34.79,19.41 80.63,17 113.19,-5.97z"/>
     <path class="fil6" d="M6607.04 333.71c10.29,-5.43 22.29,-8.25 33.13,-4.47l15.84 38.96c-12.46,-4.35 -26.44,0 -37.6,7.03 -3.55,2.25 -6.89,4.78 -10.18,7.39 3.31,-16.13 2.88,-32.97 -1.19,-48.91z"/>
    </g>
    <path class="fil7" d="M6746.47 402.86c12.15,-8.64 22.85,-21.21 29.03,-35.23 4.69,-10.65 1.92,-23.31 -6.82,-30.98 -29.59,-25.99 -68.43,-41.33 -107.78,-42.66 -15.85,-0.54 -28.74,11.93 -28.78,27.78 -0.05,18.22 6.25,36.29 6.25,36.29 39.3,-7.1 84.67,12.46 108.1,44.8z"/>
   </g>
   <g>
    <g>
     <path class="fil14" d="M6769.77 533.4c23.42,54.43 56.99,104.5 98.75,146.55 9.31,9.38 19.07,18.43 26.94,29.04 7.88,10.62 13.85,23.12 14.35,36.33l-31.05 32.19c-30.06,-22.94 -58.82,-49 -85.2,-76.1 -10.86,-11.17 -21.74,-22.45 -32.31,-33.98 -7.38,-44.55 -4.54,-90.81 8.52,-134.03z"/>
     <path class="fil13" d="M6747.92 470.97c5.78,21.3 13.13,42.16 21.85,62.43 -13.06,43.22 -15.9,89.48 -8.52,134.03 -24.01,-26.17 -46.28,-53.81 -62.04,-85.48 13.51,-38.01 29.28,-75.63 48.71,-110.98z"/>
    </g>
    <path class="fil5" d="M6909.81 745.32l39.89 15.29c13.91,5.34 20.32,21.39 13.92,34.84l-6.39 13.42c-5.05,10.59 -18.54,13.89 -27.91,6.82l-50.56 -38.18 31.05 -32.19z"/>
   </g>
   <g>
    <path class="fil9" d="M6692.03 735.36l155.29 265.8c15.74,26.95 27.71,55.94 35.56,86.15l83.23 320.38 -81.04 25.23 -49.56 -107.86c-30.31,-65.98 -49.65,-136.46 -57.25,-208.66l-2.54 -24.15 -197.64 -166.1c-41.69,-35.04 -65.3,-87.06 -64.23,-141.52l0.98 -49.27 177.2 0z"/>
    <g>
     <path class="fil1" d="M6906.87 1426.13l52.94 -16.48 9.59 10.89c16.6,18.85 39.38,31.17 64.24,34.75l32.86 4.73c8.22,1.18 15.91,4.31 22.79,8.74l-162.3 47.69 -20.12 -90.32z"/>
     <path class="fil2" d="M7089.29 1468.76c4.54,2.91 8.79,6.29 12.38,10.43l-171.74 50.47 -2.94 -13.21 162.3 -47.69z"/>
    </g>
   </g>
   <g>
    <g>
     <g>
      <path class="fil14" d="M6517.49 620.4c4.66,-29.6 4.72,-60.1 8.26,-89.99 2.8,-23.71 12.27,-49.08 24.67,-72.4l79.99 -56.22 -56.67 19.33c1.65,-2.22 3.29,-4.53 4.96,-6.64 12.69,-16.01 25.54,-32.17 41.59,-44.79 16.06,-12.63 35.88,-21.56 56.29,-20.81 35.9,1.31 65.15,32.87 74.68,67.5 9.53,34.63 3.39,71.52 -4.86,106.48 -8.26,34.96 -18.66,70.06 -17.49,105.96 0.68,21.18 5.37,42.79 -0.07,63.27 -5.02,18.93 -18.94,35.29 -36.81,43.27l-177.2 0 80.04 -25.84 -77.38 -89.12z"/>
      <path class="fil13" d="M6499.18 693.31c1.34,-15.06 7.5,-29.19 11.82,-43.67 2.87,-9.61 4.94,-19.38 6.49,-29.24l77.38 89.12 -80.04 25.84c-12.82,-8.01 -16.99,-27 -15.65,-42.05z"/>
      <path class="fil13" d="M6550.42 458.01c7.04,-13.23 15,-25.7 23.32,-36.89l56.67 -19.33 -79.99 56.22z"/>
     </g>
     <polygon class="fil19" points="6686.57,660.53 6608.76,730.56 6582.25,720.87 6660.06,650.85 "/>
     <polygon class="fil13" points="6671.85,468.9 6553.86,549.7 6647.44,662.2 6585.76,559.51 "/>
    </g>
    <path class="fil14" d="M6553.86 549.7c35.47,-24.99 83.53,-57.15 124.6,-85.33 18.25,-12.52 22.58,-37.59 9.63,-55.54 -12.62,-17.5 -36.97,-21.59 -54.63,-9.18l-149.73 105.23c-22.11,15.54 -25.92,46.78 -8.21,67.19l119.35 137.45 52.57 -47.32 -93.58 -112.5z"/>
   </g>
  </g>
  <g id="_2301287808816">
   <path class="fil20" d="M783.39 645.42c-6.08,2.72 -13.41,0.91 -18.87,-2.89 -5.45,-3.81 -9.42,-9.35 -13.27,-14.77 -8.59,-12.08 -17.58,-25.49 -16.55,-40.29 0.92,-13.09 9.53,-24.21 18,-34.23 34.09,-40.37 90.09,-95.84 130.97,-129.31 7.28,-5.96 18.16,-4.79 24,2.58 7.21,9.1 12.73,19.21 12.37,30.55 -0.41,12.71 -8.23,23.83 -15.74,34.09 -30.68,41.91 -79.54,102.05 -110.22,143.96 -2.96,4.05 -6.12,8.26 -10.69,10.31z"/>
   <path class="fil4" d="M886.4 416.66c-4.33,1.27 -8.59,2.8 -12.74,4.58 -5.63,2.42 -8.54,8.64 -6.82,14.52 2.12,7.24 4.61,14.48 7.49,21.45 2.56,6.2 9.07,9.81 15.68,8.67 2.77,-0.47 5.54,-0.97 8.3,-1.61 -0.52,-5.35 -3.11,-10.93 -3.63,-16.28 -0.98,-10.03 -5.2,-21.73 -8.28,-31.33z"/>
   <path class="fil5" d="M879.09 411.76c10.94,-9.72 23.56,-17.53 37.14,-22.97 21.18,20.1 34.78,47.51 37.37,76.59 -12.13,11.34 -26.94,19.71 -43.26,22.78 -17.2,-21.8 -26.88,-48.99 -31.25,-76.4z"/>
   <path class="fil21" d="M861.54 1043.51l65.17 235.61c4.15,14.99 3.7,30.88 -1.28,45.62l-8.87 26.22 -91.91 31.63 -40.82 -30.8c-15.16,-11.44 -25.61,-28.03 -29.38,-46.64l-33.77 -167 -19.08 -33.36 48.61 -357.16 111.33 295.88z"/>
   <polygon class="fil22" points="750.21,747.63 701.6,1104.79 658.1,1028.73 "/>
   <path class="fil2" d="M1116.13 1539.47l-199.57 53.55 -6.97 -15.96 190.43 -49.03c5.84,3.02 11.29,6.82 16.11,11.44z"/>
   <polygon class="fil4" points="824.65,1382.59 916.56,1350.96 941.3,1445.54 864.04,1472.78 "/>
   <path class="fil1" d="M969.09 1503.03c8.24,6.18 18.12,10.24 28.88,11.14l76.24 6.39c9.08,0.76 17.83,3.35 25.81,7.47l-190.43 49.03 -22.79 -52.18 82.29 -21.85z"/>
   <path class="fil2" d="M864.04 1472.78l77.26 -27.24 7.04 26.89c3.29,12.58 10.81,23.16 20.75,30.6l-82.29 21.85 -22.76 -52.1z"/>
   <path class="fil4" d="M869.76 273.79c-30.19,6.66 -57.09,26.95 -71.78,54.14 -15.01,-14.52 -25.9,-32.54 -31.61,-52.62 16.11,-14.51 34.11,-26.64 53.3,-36.73 14.66,13.12 32.14,27.16 50.09,35.21z"/>
   <path class="fil5" d="M833.72 155.32c6.18,-14.94 16.15,-29.82 30.19,-37.67 -0.35,5.12 5.54,9.89 10.14,12.38 17.38,9.4 37.17,14.3 56.93,14.11 6.05,-0.06 12.19,-0.65 17.8,-2.89 -5.19,33.74 1.85,69.25 19.82,98.28 -8.97,3.51 -18.19,4.7 -27.82,5 -9.12,21.43 -31.42,37.09 -54.43,40.74 -23,3.65 -56.46,-8.12 -71.76,-25.68 -23.04,-26.45 5.73,-71.86 19.13,-104.27z"/>
   <path class="fil23" d="M863.93 116.96c0.91,-4.93 5.36,-8.28 9.47,-11.14 7.93,-5.51 15.74,-10.28 23.67,-15.79 4.86,3.47 11.85,2.39 16.77,-0.98 4.93,-3.36 8.25,-8.55 11.4,-13.62 3.15,-5.06 6.4,-10.28 11.24,-13.76 9.16,-6.57 22.68,-5.11 31.37,2.06 8.68,7.18 12.72,19.02 12.05,30.27 -0.67,11.25 -5.58,21.92 -12.18,31.05 -4.82,6.66 -10.79,12.81 -18.37,16.01 -0.18,0.07 -0.38,0.12 -0.57,0.19 -5.61,2.24 -11.75,2.83 -17.8,2.89 -19.76,0.19 -39.55,-4.71 -56.93,-14.11 -4.6,-2.49 -10.49,-7.26 -10.14,-12.38 0.02,-0.23 -0.02,-0.46 0.02,-0.69z"/>
   <path class="fil24" d="M741.24 290.53c5.19,-9.56 1.98,-21.55 -3.22,-31.11 -5.19,-9.56 -12.32,-18.25 -15.36,-28.7 -3.78,-12.98 -0.78,-26.8 0.28,-40.28 1.71,-21.86 -1.9,-44.12 -10.43,-64.32 -6.24,-14.75 -15.1,-28.6 -18.26,-44.3 -3.15,-15.7 1.38,-34.64 15.69,-41.84 8.42,-4.24 18.38,-3.59 27.79,-2.83 26.07,2.08 52.16,4.16 78.24,6.25 12.17,0.97 24.46,1.96 36.12,5.56 21.79,6.72 41.86,22.67 51.83,43.16 -53.57,57.92 -92.97,147.87 -105.31,225.79 -13.38,1.87 -22.94,-12.42 -36.37,-13.92 -4.46,-0.49 -8.95,-1.19 -13.04,-3 -4.1,-1.82 -6.22,-6.33 -7.96,-10.46z"/>
   <path class="fil21" d="M750.21 747.63l-106.74 384.11c-9.77,35.2 -32.74,65.26 -64.12,83.96l-148.27 88.33c-6.37,3.8 -13.65,5.8 -21.06,5.8l-32.7 0 -50.62 -74.83 0 -25.29c0,-14.37 7.49,-27.69 19.77,-35.16l143.11 -87.02 29.6 -283.93 28.71 -55.97 202.32 0z"/>
   <polygon class="fil5" points="326.7,1235 377.32,1309.83 286.15,1348.9 257.22,1283.99 "/>
   <path class="fil2" d="M257.22 1283.99l28.93 64.91 -19.94 8.55c-12.93,5.54 -23.74,14.82 -31.22,26.46l-22.74 -68.21 44.97 -31.71z"/>
   <path class="fil1" d="M212.25 1315.7l22.74 68.21c-2.7,4.2 -4.99,8.68 -6.76,13.44l-26.72 71.97c-3.16,8.53 -7.71,16.4 -13.21,23.56l-15.54 -176.64 39.49 -0.54z"/>
   <path class="fil2" d="M172.76 1316.24l15.54 176.64c-3.99,5.19 -8.41,10.06 -13.47,14.3l-16.14 -190.75 14.07 -0.19z"/>
   <path class="fil20" d="M683.13 599.26l-22.17 -171.94 114.83 -28.89 48.79 95.83c-8.19,24.68 -19.83,48.25 -29.93,72.29 -12.68,30.2 -23.07,62.52 -20.19,95.14 1.47,16.68 6.39,33.21 4.82,49.88 -1.11,11.81 -6.95,24.01 -16.14,30.8l-11.3 -10.39c-37.81,-34.77 -62.14,-81.77 -68.71,-132.72z"/>
   <path class="fil24" d="M526.27 652.76c15.83,-54.34 31.66,-108.69 47.49,-163.03 13.97,-47.94 28.44,-96.94 57.75,-137.36 29.31,-40.42 83.87,-79.9 131.59,-65.19 22.8,7.03 39.05,27.32 50.02,48.51 21.98,42.46 28.14,92.88 17.03,139.39 -1.55,6.49 -3.47,12.86 -5.57,19.18l-48.79 -95.83 -114.83 28.89 22.17 171.94c6.57,50.95 30.9,97.95 68.71,132.72l11.3 10.39c-3.78,2.79 -8.07,4.76 -12.93,5.26l-202.32 0c-15.58,-11.54 -28.2,-36.8 -28.69,-56.18 -0.33,-13.16 3.39,-26.05 7.07,-38.69z"/>
   <path class="fil5" d="M901.59 753.19c15.35,-0.64 26.95,14.27 31.59,28.92 4.63,14.65 5.32,30.72 12.89,44.09 6.84,12.1 19.21,20.91 32.87,23.43 11.89,2.19 26.15,-1.54 31.28,-12.48 4.24,-9.04 1,-19.71 -3,-28.86 -17.52,-40.08 -49.46,-73.69 -88.6,-93.24 -6.65,10.13 -13.54,26.54 -17.03,38.14z"/>
   <path class="fil24" d="M660.96 427.31c18.73,58.07 34.94,117.52 49.96,176.75 9.52,37.51 32.18,70.35 64.04,92.34 39.32,27.15 79.02,54.21 117.98,81.46 7.79,5.44 17.99,6.4 26.43,2.03 9.44,-4.89 17.81,-11.87 24.22,-20.36 6.55,-8.67 9.43,-18.66 10.45,-29.18 0.91,-9.27 -3.69,-18.16 -11.37,-23.42 -46.81,-32.05 -91.34,-68.93 -131.27,-109.01l-35.61 -199.49c-6.59,-36.91 -45.69,-58.46 -80.29,-43.99 -0.4,0.17 -0.8,0.33 -1.2,0.5 -28.23,11.91 -42.75,43.22 -33.34,72.37z"/>
  </g>
 </g>
</svg>
