<?xml version="1.0" encoding="UTF-8"?>
<!DOCTYPE svg PUBLIC "-//W3C//DTD SVG 1.1//EN" "http://www.w3.org/Graphics/SVG/1.1/DTD/svg11.dtd">
<!-- Creator: CorelDRAW 2017 -->
<svg xmlns="http://www.w3.org/2000/svg" xml:space="preserve" width="102.51mm" height="16.02mm" version="1.1" style="shape-rendering:geometricPrecision; text-rendering:geometricPrecision; image-rendering:optimizeQuality; fill-rule:evenodd; clip-rule:evenodd"
viewBox="0 0 10251 1602"
 xmlns:xlink="http://www.w3.org/1999/xlink">
 <defs>
  <style type="text/css">
   <![CDATA[
    .fil18 {fill:#FEFEFE;fill-rule:nonzero}
    .fil22 {fill:#F06274;fill-rule:nonzero}
    .fil9 {fill:#FBE6AB;fill-rule:nonzero}
    .fil8 {fill:#FBCD4C;fill-rule:nonzero}
    .fil21 {fill:#F2A483;fill-rule:nonzero}
    .fil7 {fill:#F4B631;fill-rule:nonzero}
    .fil16 {fill:#E78837;fill-rule:nonzero}
    .fil17 {fill:#DC5043;fill-rule:nonzero}
    .fil30 {fill:#E2896A;fill-rule:nonzero}
    .fil28 {fill:#D03D39;fill-rule:nonzero}
    .fil10 {fill:#CECDCC;fill-rule:nonzero}
    .fil32 {fill:#BA3538;fill-rule:nonzero}
    .fil29 {fill:#A33C39;fill-rule:nonzero}
    .fil11 {fill:#B8B8B9;fill-rule:nonzero}
    .fil27 {fill:#ACADAE;fill-rule:nonzero}
    .fil14 {fill:#9BB8E0;fill-rule:nonzero}
    .fil3 {fill:#95D4E5;fill-rule:nonzero}
    .fil25 {fill:#9C9D9D;fill-rule:nonzero}
    .fil1 {fill:#867B70;fill-rule:nonzero}
    .fil15 {fill:#8C8E8D;fill-rule:nonzero}
    .fil24 {fill:#878889;fill-rule:nonzero}
    .fil4 {fill:#71645C;fill-rule:nonzero}
    .fil26 {fill:#7B7A7B;fill-rule:nonzero}
    .fil6 {fill:#737473;fill-rule:nonzero}
    .fil23 {fill:#727272;fill-rule:nonzero}
    .fil13 {fill:#758FB9;fill-rule:nonzero}
    .fil33 {fill:#616364;fill-rule:nonzero}
    .fil20 {fill:#616262;fill-rule:nonzero}
    .fil5 {fill:#595A5A;fill-rule:nonzero}
    .fil31 {fill:#6BA14C;fill-rule:nonzero}
    .fil0 {fill:#6B859F;fill-rule:nonzero}
    .fil12 {fill:#4F4F4F;fill-rule:nonzero}
    .fil19 {fill:#414242;fill-rule:nonzero}
    .fil2 {fill:#3B94A3;fill-rule:nonzero}
   ]]>
  </style>
 </defs>
 <g id="Camada_x0020_1">
  <metadata id="CorelCorpID_0Corel-Layer"/>
  <polygon class="fil0" points="-0,1602 10251,1602 10251,889.09 -0,889.09 "/>
  <polygon class="fil1" points="-2.21,889.09 10250.99,889.09 10250.99,768.58 -2.21,768.58 "/>
  <polygon class="fil2" points="448.47,293.84 479.56,293.84 479.56,241.22 448.47,241.22 "/>
  <polygon class="fil3" points="366.15,293.84 397.24,293.84 397.24,241.22 366.15,241.22 "/>
  <polygon class="fil2" points="366.15,380.29 397.24,380.29 397.24,327.67 366.15,327.67 "/>
  <polygon class="fil2" points="39.14,380.29 70.24,380.29 70.24,327.67 39.14,327.67 "/>
  <polygon class="fil3" points="283.84,380.29 314.93,380.29 314.93,327.67 283.84,327.67 "/>
  <polygon class="fil3" points="448.47,463.08 479.56,463.08 479.56,410.45 448.47,410.45 "/>
  <polygon class="fil2" points="283.84,463.08 314.93,463.08 314.93,410.45 283.84,410.45 "/>
  <polygon class="fil3" points="121.51,463.08 152.6,463.08 152.6,410.45 121.51,410.45 "/>
  <polygon class="fil2" points="203.82,294.58 234.91,294.58 234.91,241.96 203.82,241.96 "/>
  <polygon class="fil3" points="121.26,293.84 152.35,293.84 152.35,241.22 121.26,241.22 "/>
  <polygon class="fil3" points="1409.77,289.28 1580.28,289.28 1580.28,277.71 1409.77,277.71 "/>
  <polygon class="fil3" points="1409.77,328.66 1580.28,328.66 1580.28,317.09 1409.77,317.09 "/>
  <polygon class="fil3" points="1409.77,454.89 1580.28,454.89 1580.28,443.32 1409.77,443.32 "/>
  <polygon class="fil3" points="1409.77,369.92 1580.28,369.92 1580.28,358.34 1409.77,358.34 "/>
  <polygon class="fil2" points="1796.74,304.41 1874.67,304.41 1874.67,292.83 1796.74,292.83 "/>
  <polygon class="fil2" points="1796.74,332.62 1874.67,332.62 1874.67,321.03 1796.74,321.03 "/>
  <polygon class="fil2" points="1796.74,362.49 1874.67,362.49 1874.67,350.91 1796.74,350.91 "/>
  <polygon class="fil2" points="1796.74,390.69 1874.67,390.69 1874.67,379.11 1796.74,379.11 "/>
  <polygon class="fil2" points="653.2,307.52 797.84,307.52 797.84,295.95 653.2,295.95 "/>
  <polygon class="fil2" points="653.2,345.85 797.84,345.85 797.84,334.28 653.2,334.28 "/>
  <polygon class="fil2" points="653.2,385.23 797.84,385.23 797.84,373.65 653.2,373.65 "/>
  <polygon class="fil2" points="653.2,511.46 797.84,511.46 797.84,499.88 653.2,499.88 "/>
  <polygon class="fil2" points="653.2,426.5 797.84,426.5 797.84,414.92 653.2,414.92 "/>
  <polygon class="fil2" points="653.2,266.44 797.84,266.44 797.84,254.86 653.2,254.86 "/>
  <polygon class="fil4" points="-2.21,768.58 10250.99,768.58 10250.99,737.95 -2.21,737.95 "/>
  <polygon class="fil5" points="-2.21,43.72 10250.99,43.72 10250.99,34.7 -2.21,34.7 "/>
  <polygon class="fil5" points="-2.21,153.77 10184.51,153.77 10184.51,147 -2.21,147 "/>
  <path class="fil5" d="M844.55 56.02l54.93 0 31.58 69.58 -86.51 -69.58zm65.61 0l0 -13.31c0,-6.91 -6.7,-12.56 -14.89,-12.56l-53.23 0c-8.2,0 -14.9,5.65 -14.9,12.56l0 13.31 0.09 0 -0.09 0.12 98.58 73.28 -128.83 92.54 3.46 4.83 123.28 -88.56 -76.82 102.47 19.76 0 68.09 -97.68 1.54 81.4 5.95 -0.11 -1 -90.59 -30.99 -77.7z"/>
  <path class="fil5" d="M639.57 644.14c-25.91,0 -46.91,21 -46.91,46.9 0,25.91 21,46.91 46.91,46.91 25.9,0 46.9,-21 46.9,-46.91 0,-25.9 -21,-46.9 -46.9,-46.9z"/>
  <path class="fil6" d="M639.57 659.02c-17.69,0 -32.02,14.34 -32.02,32.02 0,17.69 14.33,32.03 32.02,32.03 17.68,0 32.02,-14.34 32.02,-32.03 0,-17.68 -14.34,-32.02 -32.02,-32.02z"/>
  <path class="fil5" d="M757.02 644.14c-25.91,0 -46.91,21 -46.91,46.9 0,25.91 21,46.91 46.91,46.91 25.91,0 46.91,-21 46.91,-46.91 0,-25.9 -21,-46.9 -46.91,-46.9z"/>
  <path class="fil6" d="M757.02 659.02c-17.69,0 -32.02,14.34 -32.02,32.02 0,17.69 14.33,32.03 32.02,32.03 17.68,0 32.02,-14.34 32.02,-32.03 0,-17.68 -14.34,-32.02 -32.02,-32.02z"/>
  <polygon class="fil5" points="568.78,704.26 837.78,704.26 837.78,677.53 568.78,677.53 "/>
  <path class="fil5" d="M1613.4 644.14c-25.91,0 -46.9,21 -46.9,46.9 0,25.91 20.99,46.91 46.9,46.91 25.9,0 46.9,-21 46.9,-46.91 0,-25.9 -21,-46.9 -46.9,-46.9z"/>
  <path class="fil6" d="M1613.4 659.02c-17.69,0 -32.03,14.34 -32.03,32.02 0,17.69 14.34,32.03 32.03,32.03 17.68,0 32.02,-14.34 32.02,-32.03 0,-17.68 -14.34,-32.02 -32.02,-32.02z"/>
  <path class="fil5" d="M1730.85 644.14c-25.91,0 -46.91,21 -46.91,46.9 0,25.91 21,46.91 46.91,46.91 25.91,0 46.9,-21 46.9,-46.91 0,-25.9 -20.99,-46.9 -46.9,-46.9z"/>
  <path class="fil6" d="M1730.85 659.02c-17.69,0 -32.03,14.34 -32.03,32.02 0,17.69 14.34,32.03 32.03,32.03 17.68,0 32.02,-14.34 32.02,-32.03 0,-17.68 -14.34,-32.02 -32.02,-32.02z"/>
  <polygon class="fil5" points="1542.61,704.26 1811.61,704.26 1811.61,677.53 1542.61,677.53 "/>
  <path class="fil5" d="M907.66 644.14c-25.9,0 -46.9,21 -46.9,46.9 0,25.91 21,46.91 46.9,46.91 25.9,0 46.91,-21 46.91,-46.91 0,-25.9 -21.01,-46.9 -46.91,-46.9z"/>
  <path class="fil6" d="M907.66 659.02c-17.68,0 -32.02,14.34 -32.02,32.02 0,17.69 14.34,32.03 32.02,32.03 17.69,0 32.02,-14.34 32.02,-32.03 0,-17.68 -14.33,-32.02 -32.02,-32.02z"/>
  <path class="fil5" d="M1025.11 644.14c-25.9,0 -46.91,21 -46.91,46.9 0,25.91 21.01,46.91 46.91,46.91 25.91,0 46.91,-21 46.91,-46.91 0,-25.9 -21,-46.9 -46.91,-46.9z"/>
  <path class="fil6" d="M1025.11 659.02c-17.68,0 -32.02,14.34 -32.02,32.02 0,17.69 14.34,32.03 32.02,32.03 17.69,0 32.02,-14.34 32.02,-32.03 0,-17.68 -14.33,-32.02 -32.02,-32.02z"/>
  <polygon class="fil5" points="836.88,704.26 1105.87,704.26 1105.87,677.53 836.88,677.53 "/>
  <path class="fil7" d="M512.23 262l0 43.56 1.86 1.22 647.82 0 0 -44.05 -641.99 0c-2.63,0 -5.19,-0.28 -7.69,-0.73z"/>
  <path class="fil7" d="M1903.59 251.32c-33.19,-19.29 -87.61,-27.49 -138.59,-30.73 -0.65,23.28 -19.84,42.14 -43.27,42.14l-527.64 0 0 44.05 739.21 0c0,-21.04 -7.8,-42.72 -29.71,-55.46z"/>
  <path class="fil8" d="M514.09 262.73c3.34,0 3.2,0 5.83,0l641.99 0 0 -44.06 -647.82 0 0 44.06z"/>
  <path class="fil8" d="M1194.09 218.67l0 44.06 527.64 0c23.43,0 42.62,-18.86 43.27,-42.14 -23.04,-1.46 -45.38,-1.92 -64.73,-1.92l-506.18 0z"/>
  <path class="fil8" d="M514.09 690.89l647.82 0 0 -111.57 -581.34 0c-13.85,0 -25.18,-11.34 -25.18,-25.19l0 -139.98c0,-13.85 11.33,-25.18 25.18,-25.18l581.34 0 0 -70.31 -647.82 0 0 372.23z"/>
  <path class="fil8" d="M1923.7 318.66l-729.61 0 0 70.31 499.12 0c13.85,0 25.19,11.33 25.19,25.18l0 139.98c0,13.85 -11.34,25.19 -25.19,25.19l-499.12 0 0 111.57 293.04 0 0 -45.29c0,-5.77 4.73,-10.5 10.51,-10.5l101.09 0c5.77,0 10.5,4.73 10.5,10.5l0 45.29 314.5 0 0 -94.59 -149 0c-13.07,0 -23.76,-10.7 -23.76,-23.77l0 -210.6c0,-13.07 10.69,-23.77 23.76,-23.77l149 0 0 -30.7 -0.03 -0.68 0 11.88z"/>
  <path class="fil9" d="M1598.73 635.1l-101.09 0c-5.78,0 -10.51,4.73 -10.51,10.5l0 45.29 122.1 0 0 -45.29c0,-5.77 -4.73,-10.5 -10.5,-10.5z"/>
  <path class="fil9" d="M690.12 635.1l-101.1 0c-5.77,0 -10.5,4.73 -10.5,10.5l0 45.29 122.1 0 0 -45.29c0,-5.77 -4.73,-10.5 -10.5,-10.5z"/>
  <polygon class="fil9" points="555.39,370.8 1718.39,370.8 1718.39,336.83 555.39,336.83 "/>
  <polygon class="fil5" points="1194.09,318.66 1923.7,318.66 1923.7,306.78 1194.09,306.78 "/>
  <polygon class="fil5" points="514.09,318.66 1161.91,318.66 1161.91,306.78 514.09,306.78 "/>
  <path class="fil5" d="M1693.21 388.97l-499.12 0 0 190.35 499.12 0c13.85,0 25.19,-11.34 25.19,-25.19l0 -139.98c0,-13.85 -11.34,-25.18 -25.19,-25.18z"/>
  <polygon class="fil5" points="503.74,579.32 1161.91,579.32 1161.91,388.97 503.74,388.97 "/>
  <polygon class="fil6" points="1161.91,306.78 1194.09,306.78 1194.09,231.02 1161.91,231.02 "/>
  <polygon class="fil6" points="1161.91,690.89 1194.09,690.89 1194.09,579.32 1161.91,579.32 "/>
  <polygon class="fil6" points="1161.91,388.97 1194.09,388.97 1194.09,318.67 1161.91,318.67 "/>
  <polygon class="fil6" points="1161.91,318.66 1194.09,318.66 1194.09,306.78 1161.91,306.78 "/>
  <polygon class="fil6" points="1161.91,579.32 1194.09,579.32 1194.09,388.97 1161.91,388.97 "/>
  <path class="fil5" d="M1750.97 361.93l0 210.6c0,13.07 10.69,23.77 23.76,23.77l149 0 0 -15.21 -136.66 0c-12.11,0 -22.01,-9.91 -22.01,-22.02l0 -148.08c0,-12.11 9.9,-22.02 22.01,-22.02l136.66 0 0 -50.81 -149 0c-13.07,0 -23.76,10.7 -23.76,23.77z"/>
  <path class="fil6" d="M1765.06 410.99l0 148.08c0,12.11 9.9,22.02 22.01,22.02l136.66 0 0 -192.12 -136.66 0c-12.11,0 -22.01,9.91 -22.01,22.02z"/>
  <polygon class="fil5" points="1172.26,690.89 1183.74,690.89 1183.74,231.02 1172.26,231.02 "/>
  <path class="fil5" d="M1691.67 631.58l-12.37 0c-10.35,0 -18.83,8.47 -18.83,18.82l0 41.11 280.75 0 0 -29.96 -232.71 -10.15 -16.84 -19.82z"/>
  <path class="fil6" d="M1922.4 631.58l-230.73 0 0 15.49c0,7.99 6.49,14.48 14.48,14.48l235.07 0 0 -11.15c0,-10.35 -8.47,-18.82 -18.82,-18.82z"/>
  <polygon class="fil6" points="514.09,488.49 514.09,520.68 662.1,388.97 628.39,388.97 "/>
  <polygon class="fil6" points="514.09,536.03 514.09,547.42 693.25,388.97 681.37,388.97 "/>
  <polygon class="fil6" points="1194.09,545.44 1194.09,566.73 1396.81,388.97 1373.65,388.97 "/>
  <polygon class="fil6" points="740.14,579.32 783.08,579.32 998.9,388.97 965.18,388.97 "/>
  <polygon class="fil6" points="1424.29,579.32 1467.24,579.32 1677.1,388.97 1643.39,388.97 "/>
  <polygon class="fil6" points="597.89,579.32 654.58,579.32 880.19,388.97 830.04,388.97 "/>
  <polygon class="fil6" points="1194.09,483.17 1194.09,516.6 1344.46,388.97 1310.73,388.97 "/>
  <path class="fil5" d="M20.04 691.04c0,-16.85 -8.91,-31.58 -22.25,-39.85l0 79.7c13.34,-8.26 22.25,-23 22.25,-39.85z"/>
  <path class="fil6" d="M-2.21 670.83l0 40.42c4.54,-5.52 7.37,-12.5 7.37,-20.21 0,-7.7 -2.83,-14.68 -7.37,-20.21z"/>
  <path class="fil5" d="M90.59 644.14c-25.91,0 -46.91,21 -46.91,46.9 0,25.91 21,46.91 46.91,46.91 25.9,0 46.9,-21 46.9,-46.91 0,-25.9 -21,-46.9 -46.9,-46.9z"/>
  <path class="fil6" d="M90.59 659.02c-17.69,0 -32.03,14.34 -32.03,32.02 0,17.69 14.34,32.03 32.03,32.03 17.68,0 32.02,-14.34 32.02,-32.03 0,-17.68 -14.34,-32.02 -32.02,-32.02z"/>
  <polygon class="fil5" points="-2.21,704.26 171.35,704.26 171.35,677.53 -2.21,677.53 "/>
  <path class="fil5" d="M241.23 644.14c-25.91,0 -46.91,21 -46.91,46.9 0,25.91 21,46.91 46.91,46.91 25.9,0 46.91,-21 46.91,-46.91 0,-25.9 -21.01,-46.9 -46.91,-46.9z"/>
  <path class="fil6" d="M241.23 659.02c-17.69,0 -32.02,14.34 -32.02,32.02 0,17.69 14.33,32.03 32.02,32.03 17.68,0 32.02,-14.34 32.02,-32.03 0,-17.68 -14.34,-32.02 -32.02,-32.02z"/>
  <path class="fil5" d="M358.68 644.14c-25.91,0 -46.91,21 -46.91,46.9 0,25.91 21,46.91 46.91,46.91 25.9,0 46.9,-21 46.9,-46.91 0,-25.9 -21,-46.9 -46.9,-46.9z"/>
  <path class="fil6" d="M358.68 659.02c-17.69,0 -32.02,14.34 -32.02,32.02 0,17.69 14.33,32.03 32.02,32.03 17.68,0 32.02,-14.34 32.02,-32.03 0,-17.68 -14.34,-32.02 -32.02,-32.02z"/>
  <polygon class="fil5" points="170.44,704.26 439.44,704.26 439.44,677.53 170.44,677.53 "/>
  <polygon class="fil7" points="-2.21,306.78 481.91,306.78 481.91,262.73 -2.21,262.73 "/>
  <polygon class="fil8" points="-2.21,262.73 481.91,262.73 481.91,218.67 -2.21,218.67 "/>
  <polygon class="fil8" points="-2.21,690.89 481.91,690.89 481.91,579.32 -2.21,579.32 "/>
  <polygon class="fil8" points="-2.21,388.97 481.91,388.97 481.91,318.67 -2.21,318.67 "/>
  <path class="fil9" d="M38.86 645.6c0,-5.77 -4.72,-10.5 -10.5,-10.5l-30.57 0 0 55.79 41.07 0 0 -45.29z"/>
  <polygon class="fil9" points="-2.21,370.8 498,370.8 498,336.83 -2.21,336.83 "/>
  <polygon class="fil5" points="-2.21,318.66 481.91,318.66 481.91,306.78 -2.21,306.78 "/>
  <polygon class="fil5" points="-2.21,579.32 481.91,579.32 481.91,388.97 -2.21,388.97 "/>
  <polygon class="fil6" points="481.9,306.78 514.09,306.78 514.09,231.02 481.9,231.02 "/>
  <polygon class="fil6" points="481.9,690.89 514.09,690.89 514.09,579.32 481.9,579.32 "/>
  <polygon class="fil6" points="481.9,388.97 514.09,388.97 514.09,318.67 481.9,318.67 "/>
  <polygon class="fil6" points="481.9,318.66 514.09,318.66 514.09,306.78 481.9,306.78 "/>
  <polygon class="fil6" points="481.9,579.32 514.09,579.32 514.09,388.97 481.9,388.97 "/>
  <polygon class="fil5" points="492.26,690.89 503.74,690.89 503.74,231.02 492.26,231.02 "/>
  <polygon class="fil6" points="-2.21,388.97 -2.21,411.77 23.4,388.97 "/>
  <polygon class="fil6" points="42.67,388.97 -2.21,428.43 -2.21,439.17 54.56,388.97 "/>
  <polygon class="fil6" points="60.14,579.32 103.08,579.32 318.9,388.97 285.18,388.97 "/>
  <polygon class="fil6" points="150.04,388.97 -2.21,513.81 -2.21,559.74 200.19,388.97 "/>
  <g id="_2301244440896">
   <path class="fil8" d="M5345.42 350.91l-637.85 0c-19.72,0 -35.86,16.15 -35.86,35.86l0 81.49c0,19.72 16.14,35.86 35.86,35.86l637.85 0c19.71,0 35.85,-16.14 35.85,-35.86l0 -81.49c0,-19.71 -16.14,-35.86 -35.85,-35.86z"/>
   <path class="fil8" d="M5512.92 401.89l-1955.26 0c-26.06,0 -47.38,21.32 -47.38,47.38l0 75.76 2156.85 0c0,0 32.38,128.03 36.29,216.88 0.7,15.72 1.77,46.75 2.84,79.26 0.78,23.63 6.79,71.12 49.36,71.13 -5.79,-123.29 -23.83,-283.49 -23.83,-283.49 -16.43,-123.37 -105.06,-206.92 -218.87,-206.92z"/>
   <path class="fil10" d="M5755.62 892.3c0.65,13.88 1.15,27.3 1.45,39.95l0.07 0c0,0 0,-14.44 -1.51,-39.95l-0.01 0z"/>
   <path class="fil10" d="M5706.26 821.17c-1.07,-32.51 -2.14,-63.54 -2.84,-79.26 -3.91,-88.85 -36.29,-216.88 -36.29,-216.88l-2156.85 0 0 407.22 2246.79 0c-0.3,-12.65 -0.8,-26.07 -1.45,-39.95 -42.57,-0.01 -48.58,-47.5 -49.36,-71.13z"/>
   <path class="fil11" d="M5667.13 932.25l-2156.85 0 0 69.85c157.63,28.83 295.8,46.06 295.8,46.06l1867.69 0c25.34,0 77.44,-0.62 81.93,-46.06 1.74,-17.62 2.02,-41.92 1.37,-69.85l-89.94 0z"/>
   <path class="fil6" d="M3992.52 868.27c-79.62,0 -144.16,64.55 -144.16,144.16 0,12.14 1.66,23.86 4.48,35.11l279.36 0c2.83,-11.25 4.49,-22.97 4.49,-35.11 0,-79.61 -64.55,-144.16 -144.17,-144.16z"/>
   <path class="fil6" d="M5116.76 868.27c-79.63,0 -144.17,64.55 -144.17,144.16 0,12.14 1.66,23.86 4.49,35.11l279.36 0c2.82,-11.25 4.49,-22.97 4.49,-35.11 0,-79.61 -64.55,-144.16 -144.17,-144.16z"/>
   <path class="fil12" d="M5524.8 445.85l-2011.06 0c-1.17,0 -2.31,0.1 -3.46,0.14l0 79.04 2156.85 0c-21.28,-46.05 -77.06,-79.18 -142.33,-79.18z"/>
   <path class="fil5" d="M5116.76 889.83c-69.16,0 -125.22,56.06 -125.22,125.22 0,69.16 56.06,125.22 125.22,125.22 69.15,0 125.22,-56.06 125.22,-125.22 0,-69.16 -56.07,-125.22 -125.22,-125.22z"/>
   <path class="fil12" d="M5116.76 915c-55.26,0 -100.05,44.79 -100.05,100.05 0,55.25 44.79,100.05 100.05,100.05 55.25,0 100.05,-44.8 100.05,-100.05 0,-55.26 -44.8,-100.05 -100.05,-100.05z"/>
   <path class="fil10" d="M5116.76 932.25c-45.72,0 -82.79,37.08 -82.79,82.8 0,45.72 37.07,82.78 82.79,82.78 45.72,0 82.79,-37.06 82.79,-82.78 0,-45.72 -37.07,-82.8 -82.79,-82.8z"/>
   <path class="fil11" d="M5116.76 955.29c-33.01,0 -59.76,26.75 -59.76,59.76 0,33 26.75,59.76 59.76,59.76 33,0 59.76,-26.76 59.76,-59.76 0,-33.01 -26.76,-59.76 -59.76,-59.76z"/>
   <path class="fil5" d="M5116.76 973.95c-22.7,0 -41.09,18.4 -41.09,41.1 0,22.69 18.39,41.09 41.09,41.09 22.69,0 41.1,-18.4 41.1,-41.09 0,-22.7 -18.41,-41.1 -41.1,-41.1z"/>
   <path class="fil5" d="M3992.52 887.21c-69.15,0 -125.22,56.06 -125.22,125.22 0,69.16 56.07,125.22 125.22,125.22 69.16,0 125.22,-56.06 125.22,-125.22 0,-69.16 -56.06,-125.22 -125.22,-125.22z"/>
   <path class="fil12" d="M3992.52 912.39c-55.25,0 -100.05,44.79 -100.05,100.04 0,55.26 44.8,100.05 100.05,100.05 55.25,0 100.05,-44.79 100.05,-100.05 0,-55.25 -44.8,-100.04 -100.05,-100.04z"/>
   <path class="fil10" d="M3992.52 929.64c-45.72,0 -82.78,37.07 -82.78,82.79 0,45.73 37.06,82.79 82.78,82.79 45.72,0 82.8,-37.06 82.8,-82.79 0,-45.72 -37.08,-82.79 -82.8,-82.79z"/>
   <path class="fil11" d="M3992.52 952.67c-33.01,0 -59.76,26.76 -59.76,59.76 0,33 26.75,59.77 59.76,59.77 33.01,0 59.76,-26.77 59.76,-59.77 0,-33 -26.75,-59.76 -59.76,-59.76z"/>
   <path class="fil5" d="M3992.52 971.34c-22.7,0 -41.09,18.39 -41.09,41.09 0,22.69 18.39,41.1 41.09,41.1 22.7,0 41.1,-18.41 41.1,-41.1 0,-22.7 -18.4,-41.09 -41.1,-41.09z"/>
   <path class="fil5" d="M5667.13 525.03l-2156.85 0 0 238.13 1982.11 0c0,0 112.6,0 150.13,0 30.26,0 48.74,-3.25 55.1,-21.25 7.92,-22.45 5.53,-49.04 0.93,-88.77 -9.52,-82.36 -31.42,-128.11 -31.42,-128.11z"/>
   <polygon class="fil12" points="4174.35,1031.48 4470.14,1031.48 4470.14,542.74 4174.35,542.74 "/>
   <polygon class="fil12" points="5307.13,1030.97 5602.93,1030.97 5602.93,542.22 5307.13,542.22 "/>
   <polygon class="fil13" points="3527.61,641.09 3527.61,744.77 3663.96,744.77 3663.96,543.41 3663.88,543.41 "/>
   <polygon class="fil14" points="3527.61,543.41 3527.61,744.11 3663.96,650.97 3663.88,543.41 "/>
   <polygon class="fil13" points="3687.13,639.19 3687.13,744.11 3823.47,744.11 3823.47,542.75 3821.68,542.75 "/>
   <polygon class="fil14" points="3687.13,639.19 3823.47,542.75 3687.13,542.75 "/>
   <polygon class="fil14" points="3859.88,643.86 3912.55,606.11 3859.88,606.11 "/>
   <polygon class="fil14" points="3859.88,588.18 3937.56,588.18 4000.95,542.75 3859.88,542.75 "/>
   <polygon class="fil15" points="4185.56,744.11 4311.41,656.06 4311.41,554.91 4185.56,554.91 "/>
   <polygon class="fil15" points="4330.46,644.41 4455.32,554.91 4330.46,554.91 "/>
   <polygon class="fil13" points="4480.96,639.33 4480.96,744.11 4617.3,744.11 4617.3,542.75 4615.71,542.75 "/>
   <polygon class="fil14" points="4480.96,743.36 4502.29,743.36 4617.3,661.33 4617.3,542.75 4480.96,542.75 "/>
   <polygon class="fil14" points="4653.71,644.01 4706.59,606.11 4653.71,606.11 "/>
   <polygon class="fil14" points="4653.71,588.18 4731.59,588.18 4794.99,542.75 4653.71,542.75 "/>
   <polygon class="fil13" points="4993.72,744.77 5130.07,744.77 5130.07,544.14 4993.72,641.87 "/>
   <polygon class="fil14" points="4993.72,744.77 5130.07,652.75 5130.07,543.41 4993.72,543.41 "/>
   <polygon class="fil13" points="5153.24,639.44 5153.24,744.11 5289.58,744.11 5289.58,542.75 5288.13,542.75 "/>
   <polygon class="fil14" points="5153.24,639.44 5288.13,542.75 5153.24,542.75 "/>
   <polygon class="fil13" points="3859.88,643.86 3859.88,706.01 3996.36,606.11 3912.55,606.11 "/>
   <polygon class="fil13" points="3863.49,744.11 4163.15,744.11 4163.15,606.11 4052,606.11 "/>
   <polygon class="fil13" points="4132.15,547.44 4076.5,588.18 4163.15,588.18 4163.15,542.75 4128.72,542.75 "/>
   <polygon class="fil13" points="3937.56,588.18 4020.86,588.18 4082.93,542.75 4000.95,542.75 "/>
   <polygon class="fil14" points="3859.88,706.01 3859.88,744.11 3863.49,744.11 4052,606.11 3996.36,606.11 "/>
   <polygon class="fil14" points="4082.93,542.75 4020.86,588.18 4076.5,588.18 4138.72,542.75 "/>
   <polygon class="fil13" points="4653.71,644.01 4653.71,716.56 4804.59,606.11 4706.59,606.11 "/>
   <polygon class="fil13" points="4671.71,744.11 4956.97,744.11 4956.97,606.11 4860.24,606.11 "/>
   <polygon class="fil13" points="4731.59,588.18 4829.09,588.18 4891.16,542.75 4794.99,542.75 "/>
   <polygon class="fil13" points="4940.38,547.44 4884.73,588.18 4956.97,588.18 4956.97,542.75 4936.94,542.75 "/>
   <polygon class="fil14" points="4653.71,716.56 4653.71,744.11 4671.71,744.11 4860.24,606.11 4804.59,606.11 "/>
   <polygon class="fil14" points="4891.16,542.75 4829.09,588.18 4884.73,588.18 4947.2,542.75 "/>
   <polygon class="fil6" points="4185.56,776.76 4311.41,684.62 4311.41,653.14 4185.56,743.36 "/>
   <polygon class="fil6" points="4185.56,1018.77 4311.41,1018.77 4311.41,725.35 4185.56,817.49 "/>
   <polygon class="fil15" points="4185.56,817.49 4311.41,725.35 4311.41,684.62 4185.56,776.76 "/>
   <polygon class="fil6" points="4330.46,644.41 4330.46,879.25 4456.33,787.11 4456.33,554.91 4455.32,554.91 "/>
   <polygon class="fil6" points="4330.46,1018.77 4456.33,1018.77 4456.33,743.36 4330.46,835.5 "/>
   <polygon class="fil15" points="4330.46,713.53 4456.33,621.39 4456.33,580.66 4330.46,672.8 "/>
   <polygon class="fil6" points="5318.33,1018.26 5444.2,1018.26 5444.2,741.91 5318.33,834.04 "/>
   <polygon class="fil15" points="5318.33,834.04 5444.2,741.91 5444.2,701.18 5318.33,793.31 "/>
   <polygon class="fil6" points="5463.25,880.11 5589.12,787.98 5589.12,554.52 5463.25,644.75 "/>
   <polygon class="fil6" points="5463.25,1018.26 5589.12,1018.26 5589.12,759.91 5463.25,852.05 "/>
   <polygon class="fil15" points="5463.25,644.75 5589.12,554.52 5589.12,554.39 5463.25,554.39 "/>
   <polygon class="fil15" points="5463.25,727.77 5589.12,635.63 5589.12,594.9 5463.25,687.04 "/>
   <polygon class="fil6" points="5318.33,793.31 5444.2,701.18 5444.2,554.57 5318.33,644.8 "/>
   <polygon class="fil15" points="5318.33,751.11 5444.2,661.33 5444.2,554.39 5318.33,554.39 "/>
   <path class="fil16" d="M4533.32 1001.42l-27.59 0c-2.87,0 -5.2,2.33 -5.2,5.19l0 6.23c0,2.85 2.33,5.2 5.2,5.2l27.59 0c2.86,0 5.2,-2.35 5.2,-5.2l0 -6.23c0,-2.86 -2.34,-5.19 -5.2,-5.19z"/>
   <path class="fil16" d="M4941.84 1001.42l-27.59 0c-2.86,0 -5.2,2.33 -5.2,5.19l0 6.23c0,2.85 2.34,5.2 5.2,5.2l27.59 0c2.85,0 5.2,-2.35 5.2,-5.2l0 -6.23c0,-2.86 -2.35,-5.19 -5.2,-5.19z"/>
   <path class="fil16" d="M5293.72 923.94l-27.61 0c-2.85,0 -5.18,2.34 -5.18,5.2l0 6.23c0,2.86 2.33,5.19 5.18,5.19l27.61 0c2.85,0 5.19,-2.33 5.19,-5.19l0 -6.23c0,-2.86 -2.34,-5.2 -5.19,-5.2z"/>
   <path class="fil16" d="M3817.65 1001.42l-27.6 0c-2.86,0 -5.2,2.33 -5.2,5.19l0 6.23c0,2.85 2.34,5.2 5.2,5.2l27.6 0c2.85,0 5.19,-2.35 5.19,-5.2l0 -6.23c0,-2.86 -2.34,-5.19 -5.19,-5.19z"/>
   <polygon class="fil12" points="3555.1,974.58 3803.85,974.58 3803.85,795.4 3555.1,795.4 "/>
   <polygon class="fil6" points="3565.19,965.1 3581.99,965.1 3581.99,804.88 3565.19,804.88 "/>
   <polygon class="fil6" points="3724.29,965.1 3743.34,965.1 3743.34,804.88 3724.29,804.88 "/>
   <polygon class="fil6" points="3697.4,965.1 3716.45,965.1 3716.45,804.88 3697.4,804.88 "/>
   <polygon class="fil6" points="3778.08,965.1 3793.76,965.1 3793.76,804.88 3778.08,804.88 "/>
   <polygon class="fil6" points="3616.72,965.1 3635.78,965.1 3635.78,804.88 3616.72,804.88 "/>
   <polygon class="fil6" points="3670.51,965.1 3689.56,965.1 3689.56,804.88 3670.51,804.88 "/>
   <polygon class="fil6" points="3589.83,965.1 3608.88,965.1 3608.88,804.88 3589.83,804.88 "/>
   <polygon class="fil6" points="3751.19,965.1 3770.23,965.1 3770.23,804.88 3751.19,804.88 "/>
   <polygon class="fil6" points="3643.62,965.1 3662.67,965.1 3662.67,804.88 3643.62,804.88 "/>
   <polygon class="fil12" points="3581.99,965.1 3589.83,965.1 3589.83,804.88 3581.99,804.88 "/>
   <polygon class="fil12" points="3608.88,965.1 3616.72,965.1 3616.72,804.88 3608.88,804.88 "/>
   <polygon class="fil12" points="3635.78,965.1 3643.62,965.1 3643.62,804.88 3635.78,804.88 "/>
   <polygon class="fil12" points="3662.67,965.1 3670.51,965.1 3670.51,804.88 3662.67,804.88 "/>
   <polygon class="fil12" points="3689.56,965.1 3697.4,965.1 3697.4,804.88 3689.56,804.88 "/>
   <polygon class="fil12" points="3716.45,965.1 3724.29,965.1 3724.29,804.88 3716.45,804.88 "/>
   <polygon class="fil12" points="3743.34,965.1 3751.19,965.1 3751.19,804.88 3743.34,804.88 "/>
   <polygon class="fil12" points="3770.23,965.1 3778.08,965.1 3778.08,804.88 3770.23,804.88 "/>
   <polygon class="fil17" points="5627.96,957.91 5677.26,1001.42 5755.7,1001.42 5757.07,932.25 5627.96,932.25 "/>
   <polygon class="fil5" points="5648.13,591.09 5781.47,591.09 5781.47,565.46 5648.13,565.46 "/>
   <path class="fil5" d="M5820.42 565.46l-64.8 0 0 136.94c0,9.44 7.72,17.16 17.16,17.16l47.64 0c9.44,0 17.16,-7.72 17.16,-17.16l0 -119.78c0,-9.44 -7.72,-17.16 -17.16,-17.16z"/>
  </g>
  <g id="_2301232762640">
   <polygon class="fil18" points="1554.54,1233.82 1605.89,1233.82 1605.89,1223.55 1554.54,1223.55 "/>
   <polygon class="fil18" points="1451.84,1233.82 1503.19,1233.82 1503.19,1223.55 1451.84,1223.55 "/>
   <polygon class="fil18" points="1349.14,1233.82 1400.49,1233.82 1400.49,1223.55 1349.14,1223.55 "/>
   <polygon class="fil18" points="1657.24,1233.82 1708.59,1233.82 1708.59,1223.55 1657.24,1223.55 "/>
   <polygon class="fil18" points="1246.44,1233.82 1297.79,1233.82 1297.79,1223.55 1246.44,1223.55 "/>
   <polygon class="fil18" points="1143.75,1233.82 1195.09,1233.82 1195.09,1223.55 1143.75,1223.55 "/>
   <polygon class="fil18" points="1759.94,1233.82 1811.29,1233.82 1811.29,1223.55 1759.94,1223.55 "/>
   <polygon class="fil18" points="2170.74,1233.82 2222.09,1233.82 2222.09,1223.55 2170.74,1223.55 "/>
   <polygon class="fil18" points="1862.64,1233.82 1913.99,1233.82 1913.99,1223.55 1862.64,1223.55 "/>
   <polygon class="fil18" points="322.15,1233.82 373.5,1233.82 373.5,1223.55 322.15,1223.55 "/>
   <polygon class="fil18" points="219.46,1233.82 270.8,1233.82 270.8,1223.55 219.46,1223.55 "/>
   <polygon class="fil18" points="14.06,1233.82 65.41,1233.82 65.41,1223.55 14.06,1223.55 "/>
   <polygon class="fil18" points="424.85,1233.82 476.2,1233.82 476.2,1223.55 424.85,1223.55 "/>
   <polygon class="fil18" points="116.76,1233.82 168.11,1233.82 168.11,1223.55 116.76,1223.55 "/>
   <polygon class="fil18" points="527.55,1233.82 578.9,1233.82 578.9,1223.55 527.55,1223.55 "/>
   <polygon class="fil18" points="835.65,1233.82 887,1233.82 887,1223.55 835.65,1223.55 "/>
   <polygon class="fil18" points="938.35,1233.82 989.7,1233.82 989.7,1223.55 938.35,1223.55 "/>
   <polygon class="fil18" points="630.25,1233.82 681.6,1233.82 681.6,1223.55 630.25,1223.55 "/>
   <polygon class="fil18" points="732.95,1233.82 784.3,1233.82 784.3,1223.55 732.95,1223.55 "/>
   <polygon class="fil18" points="1041.05,1233.82 1092.4,1233.82 1092.4,1223.55 1041.05,1223.55 "/>
   <polygon class="fil18" points="2376.13,1233.82 2427.48,1233.82 2427.48,1223.55 2376.13,1223.55 "/>
   <polygon class="fil18" points="4019.32,1233.82 4070.67,1233.82 4070.67,1223.55 4019.32,1223.55 "/>
   <polygon class="fil18" points="3916.62,1233.82 3967.97,1233.82 3967.97,1223.55 3916.62,1223.55 "/>
   <polygon class="fil18" points="3813.92,1233.82 3865.27,1233.82 3865.27,1223.55 3813.92,1223.55 "/>
   <polygon class="fil18" points="2273.44,1233.82 2324.79,1233.82 2324.79,1223.55 2273.44,1223.55 "/>
   <polygon class="fil18" points="3505.82,1233.82 3557.17,1233.82 3557.17,1223.55 3505.82,1223.55 "/>
   <polygon class="fil18" points="3608.52,1233.82 3659.87,1233.82 3659.87,1223.55 3608.52,1223.55 "/>
   <polygon class="fil18" points="4532.81,1233.82 4584.16,1233.82 4584.16,1223.55 4532.81,1223.55 "/>
   <polygon class="fil18" points="4122.02,1233.82 4173.37,1233.82 4173.37,1223.55 4122.02,1223.55 "/>
   <polygon class="fil18" points="4430.11,1233.82 4481.46,1233.82 4481.46,1223.55 4430.11,1223.55 "/>
   <polygon class="fil18" points="4224.72,1233.82 4276.07,1233.82 4276.07,1223.55 4224.72,1223.55 "/>
   <polygon class="fil18" points="4327.42,1233.82 4378.77,1233.82 4378.77,1223.55 4327.42,1223.55 "/>
   <polygon class="fil18" points="3711.22,1233.82 3762.57,1233.82 3762.57,1223.55 3711.22,1223.55 "/>
   <polygon class="fil18" points="2786.93,1233.82 2838.28,1233.82 2838.28,1223.55 2786.93,1223.55 "/>
   <polygon class="fil18" points="2684.23,1233.82 2735.58,1233.82 2735.58,1223.55 2684.23,1223.55 "/>
   <polygon class="fil18" points="2478.83,1233.82 2530.18,1233.82 2530.18,1223.55 2478.83,1223.55 "/>
   <polygon class="fil18" points="2889.63,1233.82 2940.98,1233.82 2940.98,1223.55 2889.63,1223.55 "/>
   <polygon class="fil18" points="2581.53,1233.82 2632.88,1233.82 2632.88,1223.55 2581.53,1223.55 "/>
   <polygon class="fil18" points="3197.73,1233.82 3249.08,1233.82 3249.08,1223.55 3197.73,1223.55 "/>
   <polygon class="fil18" points="3300.43,1233.82 3351.78,1233.82 3351.78,1223.55 3300.43,1223.55 "/>
   <polygon class="fil18" points="3403.13,1233.82 3454.48,1233.82 3454.48,1223.55 3403.13,1223.55 "/>
   <polygon class="fil18" points="2992.33,1233.82 3043.68,1233.82 3043.68,1223.55 2992.33,1223.55 "/>
   <polygon class="fil18" points="3095.03,1233.82 3146.38,1233.82 3146.38,1223.55 3095.03,1223.55 "/>
   <polygon class="fil18" points="1965.34,1233.82 2016.69,1233.82 2016.69,1223.55 1965.34,1223.55 "/>
   <polygon class="fil18" points="2061.81,1233.82 2113.16,1233.82 2113.16,1223.55 2061.81,1223.55 "/>
  </g>
  <g id="_2301282213248">
   <polygon class="fil18" points="6164.15,1233.82 6215.5,1233.82 6215.5,1223.55 6164.15,1223.55 "/>
   <polygon class="fil18" points="6061.45,1233.82 6112.8,1233.82 6112.8,1223.55 6061.45,1223.55 "/>
   <polygon class="fil18" points="5958.75,1233.82 6010.1,1233.82 6010.1,1223.55 5958.75,1223.55 "/>
   <polygon class="fil18" points="6266.85,1233.82 6318.2,1233.82 6318.2,1223.55 6266.85,1223.55 "/>
   <polygon class="fil18" points="5856.05,1233.82 5907.4,1233.82 5907.4,1223.55 5856.05,1223.55 "/>
   <polygon class="fil18" points="5753.36,1233.82 5804.7,1233.82 5804.7,1223.55 5753.36,1223.55 "/>
   <polygon class="fil18" points="6369.55,1233.82 6420.9,1233.82 6420.9,1223.55 6369.55,1223.55 "/>
   <polygon class="fil18" points="6780.35,1233.82 6831.7,1233.82 6831.7,1223.55 6780.35,1223.55 "/>
   <polygon class="fil18" points="6472.25,1233.82 6523.6,1233.82 6523.6,1223.55 6472.25,1223.55 "/>
   <polygon class="fil18" points="4931.76,1233.82 4983.11,1233.82 4983.11,1223.55 4931.76,1223.55 "/>
   <polygon class="fil18" points="4829.07,1233.82 4880.41,1233.82 4880.41,1223.55 4829.07,1223.55 "/>
   <polygon class="fil18" points="4623.67,1233.82 4675.02,1233.82 4675.02,1223.55 4623.67,1223.55 "/>
   <polygon class="fil18" points="5034.46,1233.82 5085.81,1233.82 5085.81,1223.55 5034.46,1223.55 "/>
   <polygon class="fil18" points="4726.37,1233.82 4777.72,1233.82 4777.72,1223.55 4726.37,1223.55 "/>
   <polygon class="fil18" points="5137.16,1233.82 5188.51,1233.82 5188.51,1223.55 5137.16,1223.55 "/>
   <polygon class="fil18" points="5445.26,1233.82 5496.61,1233.82 5496.61,1223.55 5445.26,1223.55 "/>
   <polygon class="fil18" points="5547.96,1233.82 5599.31,1233.82 5599.31,1223.55 5547.96,1223.55 "/>
   <polygon class="fil18" points="5239.86,1233.82 5291.21,1233.82 5291.21,1223.55 5239.86,1223.55 "/>
   <polygon class="fil18" points="5342.56,1233.82 5393.91,1233.82 5393.91,1223.55 5342.56,1223.55 "/>
   <polygon class="fil18" points="5650.66,1233.82 5702.01,1233.82 5702.01,1223.55 5650.66,1223.55 "/>
   <polygon class="fil18" points="6985.74,1233.82 7037.09,1233.82 7037.09,1223.55 6985.74,1223.55 "/>
   <polygon class="fil18" points="8628.93,1233.82 8680.28,1233.82 8680.28,1223.55 8628.93,1223.55 "/>
   <polygon class="fil18" points="8526.23,1233.82 8577.58,1233.82 8577.58,1223.55 8526.23,1223.55 "/>
   <polygon class="fil18" points="8423.53,1233.82 8474.88,1233.82 8474.88,1223.55 8423.53,1223.55 "/>
   <polygon class="fil18" points="6883.05,1233.82 6934.4,1233.82 6934.4,1223.55 6883.05,1223.55 "/>
   <polygon class="fil18" points="8115.43,1233.82 8166.78,1233.82 8166.78,1223.55 8115.43,1223.55 "/>
   <polygon class="fil18" points="8218.13,1233.82 8269.48,1233.82 8269.48,1223.55 8218.13,1223.55 "/>
   <polygon class="fil18" points="9142.42,1233.82 9193.77,1233.82 9193.77,1223.55 9142.42,1223.55 "/>
   <polygon class="fil18" points="8731.63,1233.82 8782.98,1233.82 8782.98,1223.55 8731.63,1223.55 "/>
   <polygon class="fil18" points="9039.72,1233.82 9091.07,1233.82 9091.07,1223.55 9039.72,1223.55 "/>
   <polygon class="fil18" points="8834.33,1233.82 8885.68,1233.82 8885.68,1223.55 8834.33,1223.55 "/>
   <polygon class="fil18" points="8937.03,1233.82 8988.38,1233.82 8988.38,1223.55 8937.03,1223.55 "/>
   <polygon class="fil18" points="8320.83,1233.82 8372.18,1233.82 8372.18,1223.55 8320.83,1223.55 "/>
   <polygon class="fil18" points="7396.54,1233.82 7447.89,1233.82 7447.89,1223.55 7396.54,1223.55 "/>
   <polygon class="fil18" points="7293.84,1233.82 7345.19,1233.82 7345.19,1223.55 7293.84,1223.55 "/>
   <polygon class="fil18" points="7088.44,1233.82 7139.79,1233.82 7139.79,1223.55 7088.44,1223.55 "/>
   <polygon class="fil18" points="7499.24,1233.82 7550.59,1233.82 7550.59,1223.55 7499.24,1223.55 "/>
   <polygon class="fil18" points="7191.14,1233.82 7242.49,1233.82 7242.49,1223.55 7191.14,1223.55 "/>
   <polygon class="fil18" points="7807.34,1233.82 7858.69,1233.82 7858.69,1223.55 7807.34,1223.55 "/>
   <polygon class="fil18" points="7910.04,1233.82 7961.39,1233.82 7961.39,1223.55 7910.04,1223.55 "/>
   <polygon class="fil18" points="8012.74,1233.82 8064.09,1233.82 8064.09,1223.55 8012.74,1223.55 "/>
   <polygon class="fil18" points="7601.94,1233.82 7653.29,1233.82 7653.29,1223.55 7601.94,1223.55 "/>
   <polygon class="fil18" points="7704.64,1233.82 7755.99,1233.82 7755.99,1223.55 7704.64,1223.55 "/>
   <polygon class="fil18" points="6574.95,1233.82 6626.3,1233.82 6626.3,1223.55 6574.95,1223.55 "/>
   <polygon class="fil18" points="6671.42,1233.82 6722.77,1233.82 6722.77,1223.55 6671.42,1223.55 "/>
  </g>
  <polygon class="fil18" points="10150.75,1234.09 10202.1,1234.09 10202.1,1223.82 10150.75,1223.82 "/>
  <polygon class="fil18" points="10048.06,1234.09 10099.4,1234.09 10099.4,1223.82 10048.06,1223.82 "/>
  <polygon class="fil18" points="9226.46,1234.09 9277.81,1234.09 9277.81,1223.82 9226.46,1223.82 "/>
  <polygon class="fil18" points="9123.77,1234.09 9175.11,1234.09 9175.11,1223.82 9123.77,1223.82 "/>
  <polygon class="fil18" points="8918.37,1234.09 8969.72,1234.09 8969.72,1223.82 8918.37,1223.82 "/>
  <polygon class="fil18" points="9329.16,1234.09 9380.51,1234.09 9380.51,1223.82 9329.16,1223.82 "/>
  <polygon class="fil18" points="9021.07,1234.09 9072.42,1234.09 9072.42,1223.82 9021.07,1223.82 "/>
  <polygon class="fil18" points="9431.86,1234.09 9483.21,1234.09 9483.21,1223.82 9431.86,1223.82 "/>
  <polygon class="fil18" points="9739.96,1234.09 9791.31,1234.09 9791.31,1223.82 9739.96,1223.82 "/>
  <polygon class="fil18" points="9842.66,1234.09 9894.01,1234.09 9894.01,1223.82 9842.66,1223.82 "/>
  <polygon class="fil18" points="9534.56,1234.09 9585.91,1234.09 9585.91,1223.82 9534.56,1223.82 "/>
  <polygon class="fil18" points="9637.26,1234.09 9688.61,1234.09 9688.61,1223.82 9637.26,1223.82 "/>
  <polygon class="fil18" points="9945.36,1234.09 9996.71,1234.09 9996.71,1223.82 9945.36,1223.82 "/>
  <g id="_2300920752352">
   <path class="fil19" d="M9018.33 977.49l1.25 0.47c0,0 1.62,8.91 -10.55,15.41 -12.16,6.49 -19.35,7.67 -24.73,6.49 -1.58,-0.34 -2.72,-0.87 -3.48,-1.57 -2.72,1.85 -5.35,3.49 -7.75,4.68 -10.37,5.19 -6.59,11.41 -2.7,12.7 3.89,1.29 13.93,4.19 30.96,0 9.16,-2.25 31.38,-10.65 36.57,-15.84 5.18,-5.18 1.68,-20.25 1.68,-20.25 0,0 -11.43,-2.01 -21.25,-2.09z"/>
   <path class="fil20" d="M9018.33 977.49c-5.08,-0.05 -9.74,0.41 -12.14,1.96 -6.14,3.95 -16.3,12.66 -25.37,18.84 0.76,0.7 1.9,1.23 3.48,1.57 5.38,1.18 12.57,0 24.73,-6.49 12.17,-6.5 10.55,-15.41 10.55,-15.41l-1.25 -0.47z"/>
   <path class="fil19" d="M8934.79 977.49l1.24 0.47c0,0 1.63,8.91 -10.54,15.41 -12.17,6.49 -19.35,7.67 -24.74,6.49 -1.58,-0.34 -2.71,-0.87 -3.48,-1.57 -2.72,1.85 -5.35,3.49 -7.74,4.68 -10.36,5.19 -6.59,11.41 -2.7,12.7 3.89,1.29 13.92,4.19 30.96,0 9.16,-2.25 31.39,-10.65 36.57,-15.84 5.18,-5.18 1.69,-20.25 1.69,-20.25 0,0 -11.44,-2.01 -21.26,-2.09z"/>
   <path class="fil20" d="M8934.79 977.49c-5.09,-0.05 -9.74,0.41 -12.14,1.96 -6.13,3.95 -16.29,12.66 -25.38,18.84 0.77,0.7 1.9,1.23 3.48,1.57 5.39,1.18 12.57,0 24.74,-6.49 12.17,-6.5 10.54,-15.41 10.54,-15.41l-1.24 -0.47z"/>
   <path class="fil21" d="M8782.65 954.51l-17.32 -0.65 0.69 19.84c-17.42,5.67 -47.4,18.96 -36.82,21.58 8.24,2.02 32.96,-1.54 41.83,-4.8 5.52,-2.03 13.94,-5.23 12.42,-14.45 -1.2,-7.27 -0.8,-21.52 -0.8,-21.52z"/>
   <path class="fil22" d="M8760.72 987.72c-11.04,2.32 -20.92,-3.49 -20.92,-3.49 0,0 -9.29,2.91 -16.26,7.55 -6.98,4.65 -1.74,6.98 13.36,8.14 15.1,1.16 37.19,-4.64 46.12,-12.27 2.02,-1.74 0.65,-10.9 0.65,-10.9 0,0 -11.91,8.65 -22.95,10.97z"/>
   <path class="fil21" d="M8692.31 973.23c-18.13,2.71 -49.88,10.88 -39.87,15.2 7.78,3.36 32.75,3.93 42.04,2.16 5.78,-1.1 14.62,-2.86 14.63,-12.21 0.01,-7.36 1.69,-21.36 1.69,-21.36l-16.45 -3.16 -2.04 19.37z"/>
   <path class="fil22" d="M8664.71 979.3c0,0 -9.64,1.33 -17.28,4.77 -7.65,3.43 -2.87,6.58 11.84,10.22 14.7,3.64 37.43,1.53 47.49,-4.52 2.3,-1.38 2.45,-10.64 2.45,-10.64 0,0 -13.18,6.57 -24.44,7.05 -11.27,0.47 -20.06,-6.88 -20.06,-6.88z"/>
   <path class="fil18" d="M8571.23 985.73c-1.44,2.72 -2.79,5.37 -4.15,8.05l909.68 0 0 -36.74 -855.27 0c-15.89,0 -36.99,3.8 -50.26,28.69z"/>
   <path class="fil10" d="M9723.74 1035.76c-19.66,6.28 -40.43,4.63 -54.73,-10.95 -20.03,-21.84 -34.57,-31.03 -73.41,-31.03 -31.23,0 -95.99,0 -120.24,0l0 458.24 387.29 0c0,0 0,-123.8 0,-165.08 0,-64.04 -48.19,-149.75 -99.22,-206.84 -11.62,-13.03 -25.62,-28.66 -39.69,-44.34z"/>
   <path class="fil18" d="M9590.76 957.04c-28.85,0 -115.4,0 -115.4,0l0 36.74c24.25,0 89.01,0 120.24,0 38.84,0 53.38,9.19 73.41,31.03 14.3,15.58 35.07,17.23 54.73,10.95 -14.94,-16.67 -29.97,-33.4 -42.29,-47.12 -16.66,-18.55 -52.47,-31.6 -90.69,-31.6z"/>
   <path class="fil10" d="M8525.8 1229.88c0,38.42 0.58,74.76 1.25,103.43 153.67,0 738,0 799.27,0 39.33,0 102.33,0 150.44,0l0 -339.53 -909.68 0c-30.84,60.39 -41.28,113.04 -41.28,236.1z"/>
   <path class="fil11" d="M8527.05 1333.31c1.16,36.49 2.48,60.56 2.48,60.56 0,44.82 37.51,58.15 106.54,58.15l1185.39 0 0 -118.71c-65.58,0 -151.44,0 -205.05,0 -83.5,0 -879.91,0 -1089.36,0z"/>
   <path class="fil11" d="M9724.63 1244.07l-1140.33 0c-4.08,0 -7.42,3.34 -7.42,7.42 0,4.09 3.34,7.42 7.42,7.42l1140.33 0c4.07,0 7.41,-3.33 7.41,-7.42 0,-4.08 -3.34,-7.42 -7.41,-7.42z"/>
   <path class="fil5" d="M9422.66 1061.23l-762.05 0c0,0 -44.15,0 -57.25,0 -15.66,0 -19.26,7.84 -21.37,19.92 -4.61,26.21 -9.43,66.15 -8.03,100.35 0.25,6.03 7.69,17.07 17.07,17.07l831.63 0c9.39,0 17.07,-7.68 17.07,-17.07l0 -103.2c0,-9.39 -7.68,-17.07 -17.07,-17.07z"/>
   <polygon class="fil5" points="9028.03,1441.9 9035.27,1441.9 9035.27,993.78 9028.03,993.78 "/>
   <polygon class="fil5" points="9031.64,1001.02 9479.78,1001.02 9479.78,993.78 9031.64,993.78 "/>
   <polygon class="fil5" points="9031.64,1441.9 9479.78,1441.9 9479.78,1434.66 9031.64,1434.66 "/>
   <path class="fil5" d="M9719.76 1073.95c-3.81,-4.17 -13.65,-12.72 -31.4,-12.72l-160.56 0c-8.78,0 -15.96,7.19 -15.96,15.97l0 116.51c0,2.67 2.18,4.86 4.85,4.86l272.42 0c1.53,0 2.76,-0.12 4.02,-0.24l3.22 -15.86c0,-6.48 -4.55,-13.86 -5.36,-15.17 -28.04,-44.85 -41.88,-61.27 -71.23,-93.35z"/>
   <polygon class="fil5" points="9474.68,1441.9 9481.92,1441.9 9481.92,993.78 9474.68,993.78 "/>
   <polygon class="fil5" points="9789.11,1426.48 9796.35,1426.48 9796.35,1182.47 9789.11,1182.47 "/>
   <path class="fil23" d="M8823.75 1300.86c-67.11,0 -121.52,54.41 -121.52,121.51 0,10.11 1.38,19.89 3.71,29.29l235.63 0c2.33,-9.4 3.7,-19.18 3.7,-29.29 0,-67.1 -54.41,-121.51 -121.52,-121.51z"/>
   <path class="fil5" d="M8823.75 1319.33c-56.9,0 -103.04,46.13 -103.04,103.04 0,56.91 46.14,103.05 103.04,103.05 56.92,0 103.05,-46.14 103.05,-103.05 0,-56.91 -46.13,-103.04 -103.05,-103.04z"/>
   <path class="fil12" d="M8823.75 1340.05c-45.47,0 -82.33,36.85 -82.33,82.32 0,45.47 36.86,82.33 82.33,82.33 45.47,0 82.33,-36.86 82.33,-82.33 0,-45.47 -36.86,-82.32 -82.33,-82.32z"/>
   <path class="fil10" d="M8823.75 1354.25c-37.62,0 -68.12,30.5 -68.12,68.12 0,37.63 30.5,68.13 68.12,68.13 37.63,0 68.13,-30.5 68.13,-68.13 0,-37.62 -30.5,-68.12 -68.13,-68.12z"/>
   <path class="fil11" d="M8823.75 1373.2c-27.15,0 -49.17,22.02 -49.17,49.17 0,27.16 22.02,49.18 49.17,49.18 27.16,0 49.18,-22.02 49.18,-49.18 0,-27.15 -22.02,-49.17 -49.18,-49.17z"/>
   <path class="fil5" d="M8823.75 1388.56c-18.67,0 -33.81,15.14 -33.81,33.81 0,18.68 15.14,33.82 33.81,33.82 18.68,0 33.82,-15.14 33.82,-33.82 0,-18.67 -15.14,-33.81 -33.82,-33.81z"/>
   <path class="fil23" d="M9635.61 1300.86c-67.1,0 -121.51,54.41 -121.51,121.51 0,10.11 1.38,19.89 3.71,29.29l235.62 0c2.33,-9.4 3.71,-19.18 3.71,-29.29 0,-67.1 -54.41,-121.51 -121.53,-121.51z"/>
   <path class="fil5" d="M9635.61 1319.33c-56.9,0 -103.03,46.13 -103.03,103.04 0,56.91 46.13,103.05 103.03,103.05 56.92,0 103.05,-46.14 103.05,-103.05 0,-56.91 -46.13,-103.04 -103.05,-103.04z"/>
   <path class="fil12" d="M9635.61 1340.05c-45.46,0 -82.32,36.85 -82.32,82.32 0,45.47 36.86,82.33 82.32,82.33 45.48,0 82.34,-36.86 82.34,-82.33 0,-45.47 -36.86,-82.32 -82.34,-82.32z"/>
   <path class="fil10" d="M9635.61 1354.25c-37.61,0 -68.11,30.5 -68.11,68.12 0,37.63 30.5,68.13 68.11,68.13 37.63,0 68.14,-30.5 68.14,-68.13 0,-37.62 -30.51,-68.12 -68.14,-68.12z"/>
   <path class="fil11" d="M9635.61 1373.2c-27.15,0 -49.17,22.02 -49.17,49.17 0,27.16 22.02,49.18 49.17,49.18 27.17,0 49.19,-22.02 49.19,-49.18 0,-27.15 -22.02,-49.17 -49.19,-49.17z"/>
   <path class="fil5" d="M9635.61 1388.56c-18.66,0 -33.8,15.14 -33.8,33.81 0,18.68 15.14,33.82 33.8,33.82 18.69,0 33.82,-15.14 33.82,-33.82 0,-18.67 -15.13,-33.81 -33.82,-33.81z"/>
   <path class="fil11" d="M9862.65 1333.31l-66.3 0 0 118.71 66.3 0c13.12,0 23.84,-10.18 23.84,-22.63l0 -73.46c0,-12.44 -10.72,-22.62 -23.84,-22.62z"/>
   <path class="fil5" d="M9520.03 1226.15l0 -76.44 -8.19 0 0 76.44c0,41.23 10.06,59.71 44.84,82.39 28.3,18.43 54.51,29.78 54.77,29.89l3.24 -7.52c-0.26,-0.11 -25.84,-11.2 -53.53,-29.24 -35.41,-23.08 -41.13,-41.16 -41.13,-75.52z"/>
   <polygon class="fil5" points="9732.04,1426.48 9796.35,1426.48 9796.35,1418.28 9732.04,1418.28 "/>
   <polygon class="fil17" points="9796.35,1323.56 9862.66,1323.56 9862.66,1278.16 9796.35,1278.16 "/>
   <path class="fil17" d="M8532.38 1232.29l-6.35 0 0 95.05 6.35 0c6.5,0 11.81,-5.32 11.81,-11.81l0 -71.43c0,-6.48 -5.31,-11.81 -11.81,-11.81z"/>
   <path class="fil24" d="M8596.95 1159.94c-0.52,5.65 1.25,13.2 10.07,13.2l263.01 0c8.81,0 16.03,-7.21 16.03,-16.03l0 -38.56 -285.2 0c-1.12,11.16 -2.33,24.57 -3.91,41.39z"/>
   <path class="fil24" d="M8914.38 1158.7c0,7.94 6.5,14.44 14.45,14.44l66.86 0c7.95,0 14.45,-6.5 14.45,-14.44l0 -40.15 -95.76 0 0 40.15z"/>
   <path class="fil24" d="M9058.04 1159.06c0,7.74 6.33,14.08 14.08,14.08l81.92 0 0 -54.59 -96 0 0 40.51z"/>
   <polygon class="fil24" points="9167.51,1173.14 9319.89,1173.14 9319.89,1118.55 9167.51,1118.55 "/>
   <path class="fil24" d="M9333.37 1173.14l67.91 0c7.74,0 14.08,-6.34 14.08,-14.08l0 -40.51 -81.99 0 0 54.59z"/>
   <path class="fil25" d="M8870.03 1083.96l-249.01 0c-8.82,0 -16.05,-0.11 -18.09,15.93 -0.7,5.51 -1.37,11.65 -2.07,18.66l285.2 0 0 -18.55c0,-8.82 -7.22,-16.04 -16.03,-16.04z"/>
   <path class="fil25" d="M8995.69 1083.96l-66.86 0c-7.95,0 -14.45,6.5 -14.45,14.45l0 20.14 95.76 0 0 -20.14c0,-7.95 -6.5,-14.45 -14.45,-14.45z"/>
   <path class="fil25" d="M9058.04 1098.05l0 20.5 96 0 0 -34.59 -81.92 0c-7.75,0 -14.08,6.33 -14.08,14.09z"/>
   <polygon class="fil25" points="9167.51,1118.55 9319.89,1118.55 9319.89,1083.96 9167.51,1083.96 "/>
   <path class="fil25" d="M9401.28 1083.96l-67.91 0 0 34.59 81.99 0 0 -20.5c0,-7.76 -6.34,-14.09 -14.08,-14.09z"/>
   <path class="fil5" d="M9430.86 1211.14l-47.63 0c-4.87,0 -8.87,3.99 -8.87,8.87 0,4.88 4,8.87 8.87,8.87l47.63 0c4.87,0 8.87,-3.99 8.87,-8.87 0,-4.88 -4,-8.87 -8.87,-8.87z"/>
   <path class="fil5" d="M9599.43 1211.14l-47.62 0c-4.87,0 -8.87,3.99 -8.87,8.87 0,4.88 4,8.87 8.87,8.87l47.62 0c4.89,0 8.88,-3.99 8.88,-8.87 0,-4.88 -3.99,-8.87 -8.88,-8.87z"/>
  </g>
  <g id="_2301183831360">
   <path class="fil12" d="M6981.34 1358.18c-7.52,0 -13.6,6.07 -13.6,13.59 0,7.51 6.08,13.6 13.6,13.6 7.51,0 13.6,-6.09 13.6,-13.6 0,-7.52 -6.09,-13.59 -13.6,-13.59z"/>
   <path class="fil12" d="M6915.7 1402.7c-7.5,0 -13.59,6.09 -13.59,13.59 0,7.52 6.09,13.61 13.59,13.61 7.52,0 13.61,-6.09 13.61,-13.61 0,-7.5 -6.09,-13.59 -13.61,-13.59z"/>
   <path class="fil12" d="M7048.43 1402.7c-7.51,0 -13.6,6.09 -13.6,13.59 0,7.52 6.09,13.61 13.6,13.61 7.51,0 13.6,-6.09 13.6,-13.61 0,-7.5 -6.09,-13.59 -13.6,-13.59z"/>
   <path class="fil12" d="M6938.08 1487.7c-7.5,0 -13.6,6.09 -13.6,13.6 0,7.5 6.1,13.59 13.6,13.59 7.52,0 13.6,-6.09 13.6,-13.59 0,-7.51 -6.08,-13.6 -13.6,-13.6z"/>
   <path class="fil12" d="M7024.01 1487.7c-7.51,0 -13.6,6.09 -13.6,13.6 0,7.5 6.09,13.59 13.6,13.59 7.51,0 13.6,-6.09 13.6,-13.59 0,-7.51 -6.09,-13.6 -13.6,-13.6z"/>
   <path class="fil12" d="M7000.3 1447.96l-6.17 -13.86 37.74 -10.33 -31.57 24.19zm15.66 41.46l-29.89 -24.31 13.45 -11.43 16.44 35.74zm-41.91 -59.52l7.35 -38.14 7.23 38.14 -14.58 0zm-27.34 59.52l16.44 -35.74 13.44 11.43 -29.88 24.31zm-15.91 -65.65l37.74 10.33 -6.16 13.86 -31.58 -24.19zm62.16 5.75l-11.62 -54.69 -11.64 54.69 -60.6 -17.38 50.5 39.53 -25.53 55.01 47.27 -40.12 47.27 40.12 -25.53 -55.01 50.5 -39.53 -60.62 17.38z"/>
   <path class="fil5" d="M6981.51 1510.44c-36.96,0 -66.91,-29.96 -66.91,-66.92 0,-36.95 29.95,-66.92 66.91,-66.92 36.96,0 66.92,29.97 66.92,66.92 0,36.96 -29.96,66.92 -66.92,66.92zm0 -158.59c-50.63,0 -91.68,41.04 -91.68,91.67 0,50.63 41.05,91.68 91.68,91.68 50.64,0 91.67,-41.05 91.67,-91.68 0,-50.63 -41.03,-91.67 -91.67,-91.67z"/>
   <path class="fil12" d="M6981.51 1525.28c-45.07,0 -81.76,-36.68 -81.76,-81.76 0,-45.08 36.69,-81.76 81.76,-81.76 45.08,0 81.76,36.68 81.76,81.76 0,45.08 -36.68,81.76 -81.76,81.76zm0 -168.46c-47.8,0 -86.7,38.89 -86.7,86.7 0,47.8 38.9,86.7 86.7,86.7 47.81,0 86.7,-38.9 86.7,-86.7 0,-47.81 -38.89,-86.7 -86.7,-86.7z"/>
   <path class="fil12" d="M6501.33 1358.18c-7.51,0 -13.59,6.07 -13.59,13.59 0,7.51 6.08,13.6 13.59,13.6 7.51,0 13.6,-6.09 13.6,-13.6 0,-7.52 -6.09,-13.59 -13.6,-13.59z"/>
   <path class="fil12" d="M6435.7 1402.7c-7.51,0 -13.6,6.09 -13.6,13.59 0,7.52 6.09,13.61 13.6,13.61 7.52,0 13.6,-6.09 13.6,-13.61 0,-7.5 -6.08,-13.59 -13.6,-13.59z"/>
   <path class="fil12" d="M6568.43 1402.7c-7.52,0 -13.61,6.09 -13.61,13.59 0,7.52 6.09,13.61 13.61,13.61 7.51,0 13.6,-6.09 13.6,-13.61 0,-7.5 -6.09,-13.59 -13.6,-13.59z"/>
   <path class="fil12" d="M6458.08 1487.7c-7.51,0 -13.6,6.09 -13.6,13.6 0,7.5 6.09,13.59 13.6,13.59 7.51,0 13.6,-6.09 13.6,-13.59 0,-7.51 -6.09,-13.6 -13.6,-13.6z"/>
   <path class="fil12" d="M6544.01 1487.7c-7.51,0 -13.6,6.09 -13.6,13.6 0,7.5 6.09,13.59 13.6,13.59 7.5,0 13.59,-6.09 13.59,-13.59 0,-7.51 -6.09,-13.6 -13.59,-13.6z"/>
   <path class="fil12" d="M6520.29 1447.96l-6.17 -13.86 37.74 -10.33 -31.57 24.19zm15.66 41.46l-29.88 -24.31 13.44 -11.43 16.44 35.74zm-41.91 -59.52l7.36 -38.14 7.23 38.14 -14.59 0zm-27.34 59.52l16.45 -35.74 13.44 11.43 -29.89 24.31zm-15.9 -65.65l37.74 10.33 -6.16 13.86 -31.58 -24.19zm62.16 5.75l-11.63 -54.69 -11.62 54.69 -60.61 -17.38 50.49 39.53 -25.53 55.01 47.27 -40.12 47.28 40.12 -25.54 -55.01 50.5 -39.53 -60.61 17.38z"/>
   <path class="fil5" d="M6501.51 1510.44c-36.96,0 -66.92,-29.96 -66.92,-66.92 0,-36.95 29.96,-66.92 66.92,-66.92 36.96,0 66.92,29.97 66.92,66.92 0,36.96 -29.96,66.92 -66.92,66.92zm0 -158.59c-50.63,0 -91.68,41.04 -91.68,91.67 0,50.63 41.05,91.68 91.68,91.68 50.63,0 91.68,-41.05 91.68,-91.68 0,-50.63 -41.05,-91.67 -91.68,-91.67z"/>
   <path class="fil12" d="M6501.51 1525.28c-45.07,0 -81.76,-36.68 -81.76,-81.76 0,-45.08 36.69,-81.76 81.76,-81.76 45.08,0 81.76,36.68 81.76,81.76 0,45.08 -36.68,81.76 -81.76,81.76zm0 -168.46c-47.81,0 -86.7,38.89 -86.7,86.7 0,47.8 38.89,86.7 86.7,86.7 47.81,0 86.7,-38.9 86.7,-86.7 0,-47.81 -38.89,-86.7 -86.7,-86.7z"/>
   <path class="fil12" d="M6957.01 1224.27c-16.48,-6.42 -42.41,-14.46 -42.41,-14.46 0,0 26.62,18.49 22.87,31.42 -3.74,12.92 -52.75,25.54 -52.75,25.54l50.2 22.81c0,0 29.8,-15.94 38.42,-28.38 8.61,-12.45 0.15,-30.52 -16.33,-36.93z"/>
   <path class="fil24" d="M6468.8 1251.27l-0.45 1.77c-1.4,5.49 1.95,11.1 7.42,12.5l1.26 0.32 5.06 -21.81 -0.8 -0.21c-5.47,-1.4 -11.11,1.95 -12.49,7.43z"/>
   <path class="fil24" d="M6526.88 1255.42l-41.2 -10.46 -5.06 21.81 40.73 10.36c5.49,1.39 11.1,-1.96 12.5,-7.43l0.45 -1.78c1.4,-5.48 -1.95,-11.1 -7.42,-12.5z"/>
   <polygon class="fil5" points="6477.03,1265.86 6480.62,1266.77 6485.68,1244.96 6482.09,1244.05 "/>
   <path class="fil5" d="M6871.81 1261.2c0,0 6.13,26.39 23,33.66 16.87,7.26 73.8,15.55 73.8,15.55l8.33 -15.55c0,0 -32.05,-14.41 -57.31,-22.12 -25.26,-7.7 -47.82,-11.54 -47.82,-11.54z"/>
   <path class="fil12" d="M6724.7 1319.57c-19.08,-0.13 -60.59,22.77 -60.59,22.77l16.35 40.27c0,0 11.51,11.82 55.47,-10.84 43.98,-22.65 7.86,-52.07 -11.23,-52.2z"/>
   <path class="fil5" d="M6722.36 1384.18c-13.34,0 -24.15,10.81 -24.15,24.15 0,13.34 10.81,24.16 24.15,24.16 13.35,0 24.16,-10.82 24.16,-24.16 0,-13.34 -10.81,-24.15 -24.16,-24.15z"/>
   <path class="fil26" d="M6722.36 1392.5c-8.75,0 -15.83,7.08 -15.83,15.83 0,8.75 7.08,15.84 15.83,15.84 8.75,0 15.84,-7.09 15.84,-15.84 0,-8.75 -7.09,-15.83 -15.84,-15.83z"/>
   <path class="fil5" d="M6459.9 1275.67c0,0 -15.56,40.46 -20.49,52.48 -4.93,12.01 4.11,15.18 9.89,0 5.79,-15.18 22.38,-38.57 22.38,-38.57l72.33 0 -23 -29.68 -61.11 15.77z"/>
   <path class="fil27" d="M6903.06 1149.84c-20.64,-3.09 -47.67,18.93 -47.67,18.93l131.18 56.69c0,0 -70.77,-73.71 -83.51,-75.62z"/>
   <path class="fil28" d="M6961.14 1341.5c-21.96,3.44 -30.45,8.29 -47.81,20.26 -16.43,11.34 -23.5,18.86 -23.5,18.86 0,0 5.06,2.72 11.44,5.49 11.01,-9.66 28.36,-24 38.55,-27.93 16.37,-6.33 35.33,-6.33 51.81,-3.3 1.88,0.34 3.6,0.74 5.32,1.14l13.46 -8.93c0,0 -18.99,-10.35 -49.27,-5.59z"/>
   <path class="fil17" d="M6939.82 1358.18c-10.19,3.93 -27.54,18.27 -38.55,27.93 5.47,2.38 11.91,4.82 17.01,5.65 21.54,3.5 47.6,-15.16 47.6,-15.16l31.07 -20.58c-1.72,-0.4 -3.44,-0.8 -5.32,-1.14 -16.48,-3.03 -35.44,-3.03 -51.81,3.3z"/>
   <path class="fil17" d="M6972.19 1210.76c-25.74,-17.34 -116.8,-41.99 -116.8,-41.99l2.03 20.25c0,0 64.79,25.3 95.09,42.47 9.05,5.11 13,11.56 12.31,17.78 0,0 26.11,15.36 32.13,28.13 3.4,7.21 7.25,15.09 9.96,20.57 10.62,-2.5 21.44,-8.15 15.35,-20.84 -10.81,-22.54 -32.83,-54.77 -50.07,-66.37z"/>
   <path class="fil28" d="M6964.82 1249.27c-0.49,4.24 -3.1,8.38 -7.81,11.93 -9.29,7 -28.39,14.47 -28.39,14.47l61.97 24.33c0,0 8.09,-0.08 16.32,-2.03 -2.71,-5.48 -6.56,-13.36 -9.96,-20.57 -6.02,-12.77 -32.13,-28.13 -32.13,-28.13z"/>
   <path class="fil24" d="M6895.33 1319.15c-3.23,-4.27 -9.37,-5.12 -13.64,-1.89 -4.27,3.23 -5.12,9.38 -1.89,13.65l91.34 120.68c3.23,4.27 9.37,5.13 13.64,1.89 4.27,-3.24 5.12,-9.37 1.89,-13.64l-91.34 -120.69z"/>
   <path class="fil27" d="M6917.65 1361.76c0,0 22.34,33.57 32.48,45.74 11.42,13.72 18.22,3.33 19.24,-4.8 1.33,-10.45 2.12,-18.17 3.41,-30.67l-48.39 -24.94 -6.74 14.67z"/>
   <path class="fil5" d="M6811.64 1253.41c-40.35,-7.06 -107.31,54.77 -107.31,54.77l-42.51 40.94 42.51 30.1c0,0 34.81,-24.19 75.58,-30.1 40.75,-5.91 144.48,-36.98 144.48,-36.98l-53.01 -58.61c0,0 -19.39,6.95 -59.74,-0.12z"/>
   <polygon class="fil12" points="6724.7,1319.57 6684.95,1365.46 6855.75,1285.26 6793.11,1255.88 "/>
   <path class="fil28" d="M6648.56 1469.79l-33.43 -22.31 -12.68 11.25 43.11 25.55 212.55 0c0.03,-3.22 -0.79,-8.4 -1.67,-14.53l-207.88 0.04z"/>
   <path class="fil29" d="M6973.34 1312.42c-1.41,-0.61 -3.01,-1.29 -4.73,-2.01 -2.93,2.53 -6.45,5.54 -10.77,9.16 -19.78,16.63 -63.47,37.77 -81.49,39.63 -18.02,1.86 -130.02,6.26 -130.02,6.26 0,0 1.33,25.68 -3.04,37.24 -4.36,11.55 -39.73,40.82 -39.73,40.82l-8.77 -7.99c-2.25,1.44 -4.4,2.61 -6.37,3.36 -21.8,8.28 -59.45,-3.67 -59.45,-3.67l-13.84 12.26 33.43 22.31 207.88 -0.04c-1.48,-10.34 -3.12,-23.41 -1.05,-34.53 5.19,-27.92 17.95,-37.5 29.22,-45.48 6.78,-4.81 35.89,-26.21 62.1,-46.11 21.03,-15.96 37.9,-26.25 26.63,-31.21z"/>
   <path class="fil28" d="M6816.09 1326.87c-34.4,11.5 -85.73,15.47 -85.73,15.47 0,0 -0.01,19.42 1.88,45.78 0.72,10.08 -21.08,36.86 -37.45,47.41l8.77 7.99c0,0 35.37,-29.27 39.73,-40.82 4.37,-11.56 3.04,-37.24 3.04,-37.24 0,0 112,-4.4 130.02,-6.26 18.02,-1.86 61.71,-23 81.49,-39.63 4.32,-3.62 7.84,-6.63 10.77,-9.16 -22.5,-9.37 -69.56,-26.29 -69.56,-26.29 -27.67,22.95 -48.58,31.26 -82.96,42.75z"/>
   <path class="fil24" d="M6692.81 1410.83c0,-19.9 2.43,-38.04 2.43,-38.04l-47.96 -34.15c0,0 -3.24,44.66 -4.62,66.1 -1.37,21.43 30.78,32.88 37.8,42.2 7.03,9.31 29.99,0.08 24.28,-14.26 -2.33,-5.84 -11.93,-9.61 -11.93,-21.85z"/>
   <path class="fil24" d="M6628.87 1343.21l-122.18 91.53c-1.93,1.45 -2.33,4.2 -0.88,6.13 1.44,1.92 4.2,2.32 6.12,0.87l122.18 -91.52c1.92,-1.45 2.33,-4.2 0.88,-6.13 -1.44,-1.94 -4.2,-2.33 -6.12,-0.88z"/>
   <polygon class="fil24" points="6491.32,1450.7 6532.78,1450.7 6532.78,1435.22 6491.32,1435.22 "/>
   <path class="fil24" d="M6582.14 1382.59c-2.51,1.99 -4.94,4.07 -7.59,5.86l0.71 1.14 30.42 32.29c-9.93,12.17 -18.94,18.33 -26.83,18.33 -10.74,0 -70.47,-2.18 -71.08,-2.19l-0.18 -0.01c-2.64,0 -4.84,2.1 -4.93,4.77 -0.1,2.73 2.03,5.02 4.76,5.12 2.46,0.1 60.52,2.2 71.43,2.2 11.99,0 24.17,-8.34 37.28,-25.5l2.55 -3.34 -36.22 -38.45 -0.32 -0.22z"/>
   <path class="fil24" d="M6638.4 1337.32c-1.8,-2.6 -5.41,-3.25 -8,-1.45l-22.92 15.9c-2.58,1.8 -3.24,5.4 -1.43,8l4.58 6.6c1.79,2.6 5.4,3.25 8,1.45l22.91 -15.9c2.59,-1.81 3.24,-5.4 1.44,-8l-4.58 -6.6z"/>
   <polygon class="fil27" points="6605.02,1319.57 6644.43,1374.83 6683.21,1334.85 6618.68,1312.42 "/>
   <path class="fil27" d="M6506.07 1437.92c-2.59,0 -4.69,2.1 -4.69,4.69 0,2.6 2.1,4.71 4.69,4.71 2.6,0 4.7,-2.11 4.7,-4.71 0,-2.59 -2.1,-4.69 -4.7,-4.69z"/>
   <path class="fil27" d="M6659.6 1416.29c-7.1,-6.95 -17.65,-18.57 -31.86,-23.81 -7.37,-2.72 -17.68,-7.03 -23.71,-8.86 -5.61,-1.7 -12.98,-2.57 -9.47,6.07 5.1,12.62 12.72,31.7 17.31,40.21 1.55,2.89 5.04,7.29 16.89,9.87 17.52,3.82 45.14,9.51 56.38,10.33 12.55,0.92 -17.97,-26.39 -25.54,-33.81z"/>
   <path class="fil5" d="M6678.75 1439.98c-1.96,0 -3.55,1.59 -3.55,3.54 0,1.95 1.59,3.54 3.55,3.54 1.95,0 3.53,-1.59 3.53,-3.54 0,-1.95 -1.58,-3.54 -3.53,-3.54z"/>
   <path class="fil5" d="M6645.45 1407.3c-1.95,0 -3.53,1.58 -3.53,3.53 0,1.95 1.58,3.53 3.53,3.53 1.95,0 3.54,-1.58 3.54,-3.53 0,-1.95 -1.59,-3.53 -3.54,-3.53z"/>
   <path class="fil17" d="M6751.8 1235.45c-46.38,17.77 -63.38,33.69 -63.38,33.69l16.32 22.67c0,0 47.77,-36.67 75.01,-41.61 22.35,-4.06 64.52,6.02 85.83,15.1l5.8 -11.77c-19.39,-15.16 -67.67,-37.95 -119.58,-18.08z"/>
   <path class="fil28" d="M6779.75 1250.2c-27.24,4.94 -75.01,41.61 -75.01,41.61l19.96 27.76c0,0 30,-28.59 48.91,-30.88 18.91,-2.29 82.14,-3.43 82.14,-3.43l9.83 -19.96c-21.31,-9.08 -63.48,-19.16 -85.83,-15.1z"/>
   <path class="fil12" d="M6871.38 1253.53c-13.06,-10.34 -31.41,-9.93 -30.48,3.48 0.93,13.4 28.22,48.02 28.22,48.02 0,0 22,-9.3 29.93,-20.91 -5.5,-6.73 -17.69,-22.69 -27.67,-30.59z"/>
   <path class="fil17" d="M6589.67 1285.16c-17.57,2.17 -44.62,-53.5 -55.71,-53.5 -11.09,0 -46.22,-2.08 -46.22,-2.08 0,0 -12.29,-0.84 -19.92,0 -1.89,0.22 -7,2.69 2,7.39 14.8,7.72 41.54,24.09 54.04,38.65 17.89,20.81 34.44,37.53 44.57,40.42 14.84,4.22 29.26,4.22 43.78,3.53 9.97,-0.47 35.07,19.07 35.07,19.07l41.14 -44.27c0,0 -81.19,-11.4 -98.75,-9.21z"/>
   <path class="fil5" d="M6675.75 1284.12c-23.07,5.06 -44,7.69 -72.69,3.06 -29.89,-4.83 -51.36,-30.39 -60.63,-43.99 -4.73,-6.93 -2.39,-10.81 1.04,-12.97 -9.97,-7.41 -42.53,-6.16 -56.06,-5.29 -3.71,0.25 -9.72,5.41 -0.32,7.97 10.91,2.99 44.2,9.67 44.2,9.67 0,0 22.54,38.11 44.09,48.41 21.56,10.29 101.52,8.02 101.52,8.02l-29.62 39.64 37.67 26.82 39.75 -45.89 -28.85 -40.11c-5.29,1.3 -11.95,2.86 -20.1,4.66z"/>
   <path class="fil24" d="M6614.13 1275.62c-25.2,-4.09 -62.11,-35.59 -69.08,-43.96l-1.58 -1.44c-3.43,2.16 -5.77,6.04 -1.04,12.97 9.27,13.6 30.74,39.16 60.63,43.99 28.69,4.63 49.62,2 72.69,-3.06 8.15,-1.8 14.81,-3.36 20.1,-4.66l-7.43 -10.32c0,0 -49.09,10.56 -74.29,6.48z"/>
   <polygon class="fil18" points="6796.04,1351.85 6855.39,1351.85 6855.39,1342.34 6796.04,1342.34 "/>
   <path class="fil18" d="M6915.7 1323.56c-8.34,-2.48 -22.45,-7.52 -36.06,-11.14 -4.1,-1.08 -11.67,6.1 -16.34,11.12 -2.42,2.59 1.98,4.52 5.59,4.47 8.67,-0.11 21.37,-0.21 33.22,0.09 16.8,0.43 21.93,-2.07 13.59,-4.54z"/>
   <path class="fil5" d="M6960.35 1399.36c-1.85,0 -3.34,1.5 -3.34,3.34 0,1.83 1.49,3.33 3.34,3.33 1.84,0 3.32,-1.5 3.32,-3.33 0,-1.84 -1.48,-3.34 -3.32,-3.34z"/>
   <path class="fil5" d="M6934.14 1365.11c-1.85,0 -3.34,1.49 -3.34,3.32 0,1.84 1.49,3.34 3.34,3.34 1.84,0 3.33,-1.5 3.33,-3.34 0,-1.83 -1.49,-3.32 -3.33,-3.32z"/>
   <path class="fil5" d="M6675.51 1371.77c-2.73,0 -4.96,2.23 -4.96,4.95l0 32.51c0,2.72 2.23,4.95 4.96,4.95 2.72,0 4.95,-2.23 4.95,-4.95l0 -32.51c0,-2.72 -2.23,-4.95 -4.95,-4.95z"/>
   <polygon class="fil12" points="6676.91,1299 6647.28,1338.64 6666.48,1352.31 6715.15,1306.3 6704.74,1291.81 "/>
   <path class="fil28" d="M6612.21 1319.57l35.07 19.07 29.63 -39.64c0,0 -17.65,8.07 -36.03,13.42 -10.33,3.02 -28.67,7.15 -28.67,7.15z"/>
   <path class="fil5" d="M6855.75 1255.88c-2.33,1.68 -2.35,5.19 -0.63,9.63 5.18,13.32 24.12,34.49 24.12,34.49 11.32,-6.23 16.62,-12.05 16.62,-12.05 0,0 -29,-40.12 -40.11,-32.07z"/>
   <path class="fil27" d="M6976.08 1231.62c-0.3,12.54 20.3,18.69 31.84,40.63 4.11,7.82 11.86,3.97 12.17,0.49 -4.21,-10.53 -13.89,-23.47 -13.89,-23.47l-30.12 -17.65z"/>
   <path class="fil12" d="M6937.47 1141.81l0 47.21c0,0 19.54,-5.09 19.54,-23.6 0,-18.53 -19.54,-23.61 -19.54,-23.61z"/>
   <polygon class="fil12" points="6945.21,1198.32 6957.01,1202.71 6957.01,1165.42 6945.21,1165.42 "/>
   <path class="fil27" d="M6816.43 1184.06c0.1,-13.46 -11.48,-34.52 -11.48,-34.52l-25.04 66.18 14.84 24.5 101.38 -16.88 2.32 -14.9 -82.02 3.64c0,0 -0.09,-14.56 0,-28.02z"/>
   <polygon class="fil30" points="6763.81,1142.16 6783.41,1166.72 6825.68,1133.02 6806.08,1108.44 "/>
   <path class="fil31" d="M6810.96 1052.46c1.09,-10.35 7.43,-19.5 13.62,-26.16 -25.61,6.42 -46.16,29.74 -46.16,56.66 9.75,12.91 30.96,32.33 52.96,52.61 0.01,0 9.37,-11.84 -0.56,-32.2 -5.41,-11.1 -22.07,-29.79 -19.86,-50.91z"/>
   <path class="fil31" d="M6871.25 1035.38c-18.9,8.06 -35.32,26.74 -35.89,39.43 -0.66,14.49 16.98,30.37 20.84,51.15 3.42,18.41 -10.25,23.1 -10.25,23.1l-0.21 -0.2c4.29,4.01 8.53,8 12.63,11.94 5.78,-2.58 10.6,-7.1 15.98,-13.64 -3.8,-8.82 -9.71,-22.19 -15.79,-34.58 -10.22,-20.87 -10.94,-46.83 0,-45.68 7.31,0.77 25.5,19.48 36.77,31.8 0.77,-5.63 1.04,-11.29 0.56,-16.83 -1.62,-19.1 -10.72,-36.04 -24.64,-46.49z"/>
   <path class="fil18" d="M6831.38 1135.57l14.36 13.29c-4.76,-4.43 -9.58,-8.88 -14.36,-13.29z"/>
   <path class="fil18" d="M6871.25 1035.38c-9.09,-6.81 -20.21,-10.87 -32.72,-10.87 -4.77,0 -9.43,0.66 -13.95,1.79 -6.19,6.66 -12.53,15.81 -13.62,26.16 -2.21,21.12 14.45,39.81 19.86,50.91 9.93,20.36 0.57,32.2 0.56,32.2 4.78,4.41 9.6,8.86 14.36,13.29l0.21 0.2c0,0 13.67,-4.69 10.25,-23.1 -3.86,-20.78 -21.5,-36.66 -20.84,-51.15 0.57,-12.69 16.99,-31.37 35.89,-39.43z"/>
   <path class="fil12" d="M6858.56 1066.9c-10.94,-1.15 -10.22,24.81 0,45.68 6.08,12.39 11.99,25.76 15.79,34.58 10.14,-12.33 18.47,-30.23 20.98,-48.46 -11.27,-12.32 -29.46,-31.03 -36.77,-31.8z"/>
   <polygon class="fil12" points="6776.56,1088.56 6858,1161.99 6864.64,1156.78 6778.61,1078.54 "/>
   <path class="fil12" d="M6636.33 1383.17l-16.4 -20.72c0,0 -26.37,13.29 -37.71,20.71 -2.72,16.34 22.74,67.16 55.93,69.68 9.34,-14.37 -10.3,-44.18 -10.64,-56.76 -0.26,-9.59 8.82,-12.91 8.82,-12.91z"/>
   <path class="fil12" d="M6907.95 1229.38c-3.69,0 -6.7,3.01 -6.7,6.7 0,3.69 3.01,6.7 6.7,6.7l32.29 0 0.52 -0.05 0 -13.3 -0.52 -0.05 -32.29 0z"/>
   <path class="fil30" d="M6909.1 1215.72c-12.96,-4.22 -38.42,0 -38.42,0 0,0 -4.93,20.29 2.3,24.5 7.22,4.18 38.1,-8.04 38.1,-8.04 0,0 2.37,17.05 6.57,17.09 4.2,0.04 3.35,-13.19 3.35,-13.19 0,0 4.07,16.03 7.62,13.19 3.55,-2.83 4.36,-6.49 2.18,-13.19 -2.18,-6.7 -8.74,-16.15 -21.7,-20.36z"/>
   <path class="fil12" d="M6901.25 1225.48c-5.83,0 -10.6,4.77 -10.6,10.6 0,5.83 4.77,10.6 10.6,10.6 5.83,0 10.6,-4.77 10.6,-10.6 0,-5.83 -4.77,-10.6 -10.6,-10.6z"/>
   <path class="fil31" d="M6760.77 1112.91c-7.83,5.03 -18.05,13.88 -26.01,28.9 -9.99,18.83 -5.86,62.61 -1.08,86.5 23.86,-10.62 50.35,-23.62 60.16,-32.89 11.04,-10.45 21.93,-34.73 11.59,-59.71 -4.9,-11.85 -17.25,-21.94 -44.66,-22.8z"/>
   <path class="fil18" d="M6735.29 1115.39c-6.2,7.28 -12.99,17.11 -17.72,28.74 -10.41,25.56 -1.77,68.91 4.79,88.05l0.34 0.93c3.54,-1.53 7.22,-3.14 10.98,-4.8 -4.78,-23.89 -8.91,-67.67 1.08,-86.5 7.96,-15.02 18.18,-23.87 26.01,-28.9 -1.29,-0.04 -2.58,-0.08 -3.93,-0.08 -7,0 -13.91,0.76 -21.55,2.56z"/>
   <path class="fil31" d="M6735.29 1115.39c-14.31,3.38 -31.26,10.52 -56.54,23.81 -17.41,9.15 -76.13,34.24 -96.72,74.6 -12.09,23.7 3.01,53.06 25.34,65.55 22.34,12.51 81.05,35.95 81.05,35.95l-81.7 49.8 11.96 13.57c16.83,-7.16 74.94,-32.01 89.5,-40.03 17.09,-9.42 19.11,-17.02 20.44,-30.81 0.63,-6.56 3.61,-10.99 6.57,-13.85 -16.72,-22.59 -45.89,-47.11 -45.89,-47.11 0,0 14.77,-5.74 33.4,-13.76l-0.34 -0.93c-6.56,-19.14 -15.2,-62.49 -4.79,-88.05 4.73,-11.63 11.52,-21.46 17.72,-28.74z"/>
   <path class="fil18" d="M6728.62 1307.83c-1.33,13.79 -3.35,21.39 -20.44,30.81 -14.56,8.02 -72.67,32.87 -89.5,40.03l14.1 15.99c0,0 109.45,-41.75 113.74,-74.43 0.9,-6.92 -4.04,-16.4 -11.33,-26.25 -2.96,2.86 -5.94,7.29 -6.57,13.85z"/>
   <polygon class="fil31" points="6778.61,1122.9 6805.06,1157.45 6818.89,1146.86 6792.46,1112.31 "/>
   <path class="fil18" d="M6798.75 1222.92c0,0 5.85,-33.13 6.91,-45.89 1.99,-23.8 -10.91,-56.5 -35.31,-45.27 -22.96,10.57 -20.99,70.29 -18.36,91.16 2.2,17.38 7.29,34.08 27.92,37.87 20.61,3.79 102.51,-18.01 102.51,-18.01l-7.54 -28.64 -76.13 8.78z"/>
   <path class="fil18" d="M6635.86 1195.42c-5.57,-11.49 -7.2,-28.7 -7.2,-28.7l-8.67 6.03c0,0 1.39,14.75 15.87,37.06 8.49,13.09 53.44,37.06 53.44,37.06l6.55 -2.6c0,0 -48.57,-25.29 -59.99,-48.85z"/>
   <polygon class="fil18" points="6670.1,1215.72 6706.74,1215.72 6706.74,1208.44 6670.1,1208.44 "/>
  </g>
  <g id="_2301154864944">
   <path class="fil18" d="M1065.63 1074.08c-67.6,-0.67 -185.81,70.31 -185.81,70.31 0,0 12.07,50.16 80.68,84.26 68.6,34.09 533.25,-7.46 533.25,-7.46 0,0 -88.51,-66.01 -161.23,-114.82 -72.72,-48.8 -199.28,-31.64 -266.89,-32.29z"/>
   <path class="fil28" d="M1597.54 1248.3c-149.57,-0.25 -140.39,171.81 -140.39,171.81 0,0 -415.04,-17.59 -445.55,-54.01 -30.52,-36.42 -59.25,-129.81 -170,-125.84 -110.76,3.98 -131.11,95.33 -149.42,97.46 -13.72,1.6 -110.88,-4.02 -158.69,-6.93 0.24,22.93 40.69,91.03 40.69,91.03 0,0 80.71,12.59 157.37,20.59 -7.72,-16.02 -12.17,-33.92 -12.17,-52.89 0,-67.5 54.72,-122.22 122.22,-122.22 67.49,0 122.21,54.72 122.21,122.22 0,22.38 -6.12,43.28 -16.62,61.33 157.64,1.47 394.48,1.36 550.84,-0.26 -10.41,-17.98 -16.47,-38.8 -16.47,-61.07 0,-67.5 54.72,-122.22 122.21,-122.22 67.51,0 122.23,54.72 122.23,122.22 0,20.21 -4.99,39.22 -13.67,56.01 70.97,-1.74 156.27,-3.02 156.27,-3.02 0,0 1.54,-8.1 3.06,-20.59l-125.61 0.33c0,0 18.48,-173.67 -148.51,-173.95z"/>
   <path class="fil32" d="M1603.77 1267.3c-67.49,0 -122.21,54.72 -122.21,122.22 0,22.27 6.06,43.09 16.47,61.07 64.62,-0.67 115.51,-1.59 141.33,-2.78 17.42,-0.79 44.01,-1.57 72.97,-2.28 8.68,-16.79 13.67,-35.8 13.67,-56.01 0,-67.5 -54.72,-122.22 -122.23,-122.22z"/>
   <path class="fil32" d="M841.6 1267.3c-67.5,0 -122.22,54.72 -122.22,122.22 0,18.97 4.45,36.87 12.17,52.89 22.27,2.33 44.2,4.27 63.71,5.4 23.3,1.35 79.2,2.36 151.93,3.04 10.5,-18.05 16.62,-38.95 16.62,-61.33 0,-67.5 -54.72,-122.22 -122.21,-122.22z"/>
   <path class="fil17" d="M1429.83 1209.43c-61.35,-0.23 -195.32,-0.96 -303.57,-3 -14.05,-0.26 -27.64,-0.55 -40.61,-0.86 -51.72,-1.23 -93.15,-2.85 -110.6,-4.97 -67.04,-8.14 -91.62,-54.02 -91.62,-54.02 0,0 62.21,-30.54 149.69,-51.56 11.54,-2.78 23.76,-4.82 36.44,-6.25 90.9,-10.27 204.99,11.26 254.67,26.61 74.6,23.06 139.12,94.15 139.12,94.15 0,0 -12.5,-0.02 -33.52,-0.1zm399.28 59.67c-54.86,-26.22 -296.53,-68.5 -296.53,-68.5 0,0 -125.61,-90.64 -209.7,-111.7 -79.54,-19.92 -151.85,-30.59 -232.95,-26.76 -71.27,3.37 -142.15,22.45 -200.54,47.82 -147.08,63.87 -311.14,90.64 -311.14,90.64 0,0 -45.18,91.81 -44.76,130.19 47.81,2.91 144.97,8.53 158.69,6.93 18.31,-2.13 38.66,-93.48 149.42,-97.46 110.75,-3.97 139.48,89.42 170,125.84 30.51,36.42 445.55,54.01 445.55,54.01 0,0 -9.18,-172.06 140.39,-171.81 166.99,0.28 148.51,173.95 148.51,173.95l125.61 -0.33c2.48,-20.33 4.94,-52.29 0.75,-80.06 -5.7,-37.84 -27.11,-65.01 -43.3,-72.76z"/>
   <path class="fil10" d="M1053.81 1188.29c-15.05,-0.28 -85.95,0.22 -115.64,-15.26 -19.77,-10.32 -12.03,-26.45 4.49,-33.91 16.51,-7.46 83.69,-26.62 115.73,-28.61 21.92,-1.35 23.26,2.16 25.43,7.58 4.34,10.86 7.17,40.69 7.12,57.48 -0.04,14.7 -18.31,13.06 -37.13,12.72zm270.42 -72.91c-49.68,-15.35 -163.77,-36.88 -254.67,-26.61 -12.68,1.43 -24.9,3.47 -36.44,6.25 -87.48,21.02 -149.69,51.56 -149.69,51.56 0,0 24.58,45.88 91.62,54.02 17.45,2.12 58.88,3.74 110.6,4.97 12.97,0.31 26.56,0.6 40.61,0.86l-8.87 -94.44c0,0 97.66,-2.03 177,14.25 63.18,12.95 116.34,63.21 135.44,83.19 21.02,0.08 33.52,0.1 33.52,0.1 0,0 -64.52,-71.09 -139.12,-94.15z"/>
   <path class="fil8" d="M1827.35 1289.23c-18.17,-13.32 -52.8,-19.21 -87.4,-21.93 -22.2,-1.74 -13.7,15.46 -4.76,28.01 4.99,6.99 6.79,12.55 23.08,13.12 21.7,0.78 86.77,3.86 86.77,3.86 0,0 -11.83,-18.77 -17.69,-23.06z"/>
   <path class="fil28" d="M1456.5 1209.53l2.69 79.43c0,44.55 -3.96,62.17 -15.95,80.29 -4.39,6.66 -16.08,24.25 -56.14,21.48 -65.51,-4.67 -217.65,-16 -243.01,-19.23 -30.23,-3.85 -30.52,-10.45 -31.62,-34.99 -0.14,-3.12 -0.29,-6.51 -0.52,-10.19 -2.01,-32.35 -1.22,-119.34 -1.21,-120.22l-7.59 -0.13c-0.01,0.87 0.18,90.69 2.19,123.17 0.24,3.66 0.38,7.02 0.52,10.12 1.13,25.16 4.09,31.99 37.72,36.28 25.45,3.24 177.69,14.57 243.24,19.25 2.97,0.21 5.81,0.31 8.5,0.31 35.71,0 47.32,-17.55 51.32,-23.61 12.16,-18.38 18.75,-36.94 18.75,-82.26l-2.04 -79.7 -6.85 0z"/>
   <path class="fil28" d="M960.73 1236.61c3.08,4.06 8.65,10.5 8.65,10.5 0,0 255.23,9.17 316.57,10.26 42.15,0.76 162.37,4.98 215.37,4.15 12.48,-1.01 21.95,-5.59 21.95,-5.59 0,0 -159.26,-5.82 -224.3,-9.66 -75.28,-4.46 -285.94,-8.93 -338.24,-9.66z"/>
   <path class="fil10" d="M1193.61 1223.89l-50.31 0c-4.92,0 -8.96,4.03 -8.96,8.96 0,4.93 4.04,8.96 8.96,8.96l50.31 0c4.93,0 8.96,-4.03 8.96,-8.96 0,-4.93 -4.03,-8.96 -8.96,-8.96z"/>
   <path class="fil28" d="M1362.35 1129.08c-56.74,-25.42 -129.34,-37.28 -163.3,-40.29 -38.17,-3.37 -117.58,-10.38 -175.83,6.57 -56.81,16.55 -142.52,48.68 -143.4,49.03l-2.75 1.11 2.03 2.17c1.49,1.59 28.99,37.31 61.55,49.26 23.2,8.52 66.14,8.13 68.09,8.11l-0.05 -2.04c-0.48,0 -42.64,-3.99 -65.25,-11.92 -19.38,-6.78 -48.93,-34.44 -56.93,-42.64 15.46,-6.15 86.96,-34.35 137.85,-49.16 57.5,-16.76 136.41,-9.78 174.32,-6.43 33.71,2.98 105.08,16.32 161.33,41.52 51.9,23.24 94.39,72.86 96.49,75.16l6.85 0c-0.49,-0.55 -48.31,-56.86 -101,-80.45z"/>
   <polygon class="fil18" points="576.89,1232.85 650.14,1232.85 586.38,1209.53 "/>
   <path class="fil28" d="M693.53 1237.86c-14.91,0.51 -30.51,17.8 -40.01,27.06 -9.49,9.26 -37.97,35.49 -25.76,38.9 12.2,3.41 36.62,4.74 51.53,0 14.92,-4.73 36.84,-40.65 43.48,-51.42 13.19,-21.37 -14.32,-15.04 -29.24,-14.54z"/>
   <path class="fil28" d="M1817.78 1365.41c-14.76,-0.46 -25.93,24.64 0,32.43 25.93,7.8 55.7,6.01 55.7,6.01l1 -38.44c0,0 -41.95,0.46 -56.7,0z"/>
   <path class="fil18" d="M1601.28 1334.57c-33.04,0 -59.81,26.77 -59.81,59.8 0,33.03 26.77,59.81 59.81,59.81 33.03,0 59.8,-26.78 59.8,-59.81 0,-33.03 -26.77,-59.8 -59.8,-59.8z"/>
   <path class="fil12" d="M1601.83 1468.95c-41.84,0 -75.75,-33.91 -75.75,-75.74 0,-41.83 33.91,-75.74 75.75,-75.74 41.83,0 75.74,33.91 75.74,75.74 0,41.83 -33.91,75.74 -75.74,75.74zm0 -179.51c-57.31,0 -103.77,46.46 -103.77,103.77 0,57.31 46.46,103.77 103.77,103.77 57.31,0 103.77,-46.46 103.77,-103.77 0,-57.31 -46.46,-103.77 -103.77,-103.77z"/>
   <path class="fil5" d="M1601.83 1451.85c-32.39,0 -58.65,-26.26 -58.65,-58.64 0,-32.39 26.26,-58.64 58.65,-58.64 32.39,0 58.64,26.25 58.64,58.64 0,32.38 -26.25,58.64 -58.64,58.64zm0 -134.38c-41.84,0 -75.75,33.91 -75.75,75.74 0,41.83 33.91,75.74 75.75,75.74 41.83,0 75.74,-33.91 75.74,-75.74 0,-41.83 -33.91,-75.74 -75.74,-75.74z"/>
   <path class="fil10" d="M1655.68 1406.47c-6.92,-2.8 -21.65,-10.1 -27.26,-23.13 -2.54,-12.98 5.29,-25.44 9.58,-32.22 12.43,10.18 19.34,24.77 19.34,42.09 0,4.58 -0.62,9.01 -1.66,13.26zm-50 42.06c-0.55,-8.15 -0.15,-22.59 7.93,-32.6 11.3,-9.13 30.82,-3.68 39.32,-1.1 -7.77,19.24 -25.61,32.21 -47.25,33.7zm-34.05 -101.86c8.7,-5.66 19.05,-8.98 30.2,-8.98 11.15,0 20.39,2.62 29.09,8.28 -4.7,5.76 -14.93,18.45 -29.09,19.97 -14.17,-1.52 -25.51,-13.51 -30.2,-19.27zm25.21 101.81c-21.26,-1.91 -38.6,-14.74 -46.16,-33.79 8.98,-2.6 27.36,-7.54 38.24,1.24 8.06,9.99 8.47,24.38 7.92,32.55zm-50.53 -55.27c0,-16.96 6.84,-31.43 18.84,-41.61 4.29,6.96 11.42,19.16 8.94,31.74 -5.33,12.44 -18.96,19.63 -26.23,22.7 -0.97,-4.12 -1.55,-8.4 -1.55,-12.83zm55.52 -63.76c-35.21,0 -63.76,28.55 -63.76,63.76 0,35.22 28.55,63.76 63.76,63.76 35.21,0 63.76,-28.54 63.76,-63.76 0,-35.21 -28.55,-63.76 -63.76,-63.76z"/>
   <path class="fil33" d="M1601.83 1381.42c-6.1,0 -11.05,4.95 -11.05,11.05 0,6.1 4.95,11.04 11.05,11.04 6.09,0 11.04,-4.94 11.04,-11.04 0,-6.1 -4.95,-11.05 -11.04,-11.05z"/>
   <path class="fil10" d="M1601.83 1387.41c-2.79,0 -5.06,2.27 -5.06,5.06 0,2.8 2.27,5.05 5.06,5.05 2.79,0 5.06,-2.25 5.06,-5.05 0,-2.79 -2.27,-5.06 -5.06,-5.06z"/>
   <path class="fil18" d="M841.6 1334.57c-33.03,0 -59.81,26.77 -59.81,59.8 0,33.03 26.78,59.81 59.81,59.81 33.02,0 59.8,-26.78 59.8,-59.81 0,-33.03 -26.78,-59.8 -59.8,-59.8z"/>
   <path class="fil12" d="M841.04 1468.95c-41.83,0 -75.75,-33.91 -75.75,-75.74 0,-41.83 33.92,-75.74 75.75,-75.74 41.83,0 75.74,33.91 75.74,75.74 0,41.83 -33.91,75.74 -75.74,75.74zm0 -179.51c-57.31,0 -103.77,46.46 -103.77,103.77 0,57.31 46.46,103.77 103.77,103.77 57.31,0 103.77,-46.46 103.77,-103.77 0,-57.31 -46.46,-103.77 -103.77,-103.77z"/>
   <path class="fil5" d="M841.04 1451.85c-32.39,0 -58.65,-26.26 -58.65,-58.64 0,-32.39 26.26,-58.64 58.65,-58.64 32.38,0 58.64,26.25 58.64,58.64 0,32.38 -26.26,58.64 -58.64,58.64zm0 -134.38c-41.83,0 -75.75,33.91 -75.75,75.74 0,41.83 33.92,75.74 75.75,75.74 41.83,0 75.74,-33.91 75.74,-75.74 0,-41.83 -33.91,-75.74 -75.74,-75.74z"/>
   <path class="fil10" d="M894.89 1406.47c-6.92,-2.8 -21.66,-10.1 -27.26,-23.13 -2.55,-12.98 5.29,-25.44 9.58,-32.22 12.43,10.18 19.34,24.77 19.34,42.09 0,4.58 -0.62,9.01 -1.66,13.26zm-50 42.06c-0.55,-8.15 -0.15,-22.59 7.93,-32.6 11.31,-9.13 30.82,-3.68 39.32,-1.1 -7.76,19.24 -25.61,32.21 -47.25,33.7zm-34.05 -101.86c8.7,-5.66 19.05,-8.98 30.2,-8.98 11.14,0 20.39,2.62 29.09,8.28 -4.7,5.76 -14.93,18.45 -29.09,19.97 -14.17,-1.52 -25.51,-13.51 -30.2,-19.27zm25.21 101.81c-21.26,-1.91 -38.6,-14.74 -46.16,-33.79 8.98,-2.6 27.36,-7.54 38.23,1.24 8.06,9.99 8.48,24.38 7.93,32.55zm-50.53 -55.27c0,-16.96 6.84,-31.43 18.83,-41.61 4.3,6.96 11.43,19.16 8.96,31.74 -5.35,12.44 -18.98,19.63 -26.23,22.7 -0.98,-4.12 -1.56,-8.4 -1.56,-12.83zm55.52 -63.76c-35.22,0 -63.76,28.55 -63.76,63.76 0,35.22 28.54,63.76 63.76,63.76 35.21,0 63.76,-28.54 63.76,-63.76 0,-35.21 -28.55,-63.76 -63.76,-63.76z"/>
   <path class="fil33" d="M841.04 1381.42c-6.1,0 -11.04,4.95 -11.04,11.05 0,6.1 4.94,11.04 11.04,11.04 6.1,0 11.04,-4.94 11.04,-11.04 0,-6.1 -4.94,-11.05 -11.04,-11.05z"/>
   <path class="fil10" d="M841.04 1387.41c-2.79,0 -5.06,2.27 -5.06,5.06 0,2.8 2.27,5.05 5.06,5.05 2.79,0 5.05,-2.25 5.05,-5.05 0,-2.79 -2.26,-5.06 -5.05,-5.06z"/>
  </g>
 </g>
</svg>
