<?xml version="1.0" encoding="UTF-8"?>
<!DOCTYPE svg PUBLIC "-//W3C//DTD SVG 1.1//EN" "http://www.w3.org/Graphics/SVG/1.1/DTD/svg11.dtd">
<!-- Creator: CorelDRAW 2017 -->
<svg xmlns="http://www.w3.org/2000/svg" xml:space="preserve" width="102.51mm" height="16.02mm" version="1.1" style="shape-rendering:geometricPrecision; text-rendering:geometricPrecision; image-rendering:optimizeQuality; fill-rule:evenodd; clip-rule:evenodd"
viewBox="0 0 10251 1602"
 xmlns:xlink="http://www.w3.org/1999/xlink">
 <defs>
  <style type="text/css">
   <![CDATA[
    .fil4 {fill:#FEFEFE;fill-rule:nonzero}
    .fil10 {fill:#FBE6AB;fill-rule:nonzero}
    .fil9 {fill:#FBCD4C;fill-rule:nonzero}
    .fil17 {fill:#FAC141;fill-rule:nonzero}
    .fil22 {fill:#F7BF9D;fill-rule:nonzero}
    .fil25 {fill:#F4A433;fill-rule:nonzero}
    .fil21 {fill:#F2A483;fill-rule:nonzero}
    .fil8 {fill:#F4B631;fill-rule:nonzero}
    .fil16 {fill:#E16092;fill-rule:nonzero}
    .fil11 {fill:#DC5043;fill-rule:nonzero}
    .fil26 {fill:#E4B139;fill-rule:nonzero}
    .fil12 {fill:#D03D39;fill-rule:nonzero}
    .fil24 {fill:#CC4439;fill-rule:nonzero}
    .fil18 {fill:#CF4882;fill-rule:nonzero}
    .fil15 {fill:#CECDCC;fill-rule:nonzero}
    .fil19 {fill:#B9346E;fill-rule:nonzero}
    .fil23 {fill:#824236;fill-rule:nonzero}
    .fil6 {fill:#95D4E5;fill-rule:nonzero}
    .fil1 {fill:#867B70;fill-rule:nonzero}
    .fil14 {fill:#878889;fill-rule:nonzero}
    .fil2 {fill:#71645C;fill-rule:nonzero}
    .fil7 {fill:#737473;fill-rule:nonzero}
    .fil20 {fill:#616364;fill-rule:nonzero}
    .fil3 {fill:#595A5A;fill-rule:nonzero}
    .fil0 {fill:#6B859F;fill-rule:nonzero}
    .fil13 {fill:#4F4F4F;fill-rule:nonzero}
    .fil28 {fill:#4D7DB1;fill-rule:nonzero}
    .fil5 {fill:#3B94A3;fill-rule:nonzero}
    .fil27 {fill:#496D9C;fill-rule:nonzero}
   ]]>
  </style>
 </defs>
 <g id="Camada_x0020_1">
  <metadata id="CorelCorpID_0Corel-Layer"/>
  <polygon class="fil0" points="-0,1602 10251,1602 10251,889.09 -0,889.09 "/>
  <polygon class="fil1" points="-2.21,889.09 10250.99,889.09 10250.99,768.58 -2.21,768.58 "/>
  <polygon class="fil2" points="-2.21,768.58 10250.99,768.58 10250.99,737.95 -2.21,737.95 "/>
  <polygon class="fil3" points="-2.21,43.72 10250.99,43.72 10250.99,34.7 -2.21,34.7 "/>
  <polygon class="fil3" points="-2.21,153.77 10184.51,153.77 10184.51,147 -2.21,147 "/>
  <g id="_2301334878752">
   <polygon class="fil4" points="1554.54,1233.82 1605.89,1233.82 1605.89,1223.55 1554.54,1223.55 "/>
   <polygon class="fil4" points="1451.84,1233.82 1503.19,1233.82 1503.19,1223.55 1451.84,1223.55 "/>
   <polygon class="fil4" points="1349.14,1233.82 1400.49,1233.82 1400.49,1223.55 1349.14,1223.55 "/>
   <polygon class="fil4" points="1657.24,1233.82 1708.59,1233.82 1708.59,1223.55 1657.24,1223.55 "/>
   <polygon class="fil4" points="1246.44,1233.82 1297.79,1233.82 1297.79,1223.55 1246.44,1223.55 "/>
   <polygon class="fil4" points="1143.75,1233.82 1195.09,1233.82 1195.09,1223.55 1143.75,1223.55 "/>
   <polygon class="fil4" points="1759.94,1233.82 1811.29,1233.82 1811.29,1223.55 1759.94,1223.55 "/>
   <polygon class="fil4" points="2170.74,1233.82 2222.09,1233.82 2222.09,1223.55 2170.74,1223.55 "/>
   <polygon class="fil4" points="1862.64,1233.82 1913.99,1233.82 1913.99,1223.55 1862.64,1223.55 "/>
   <polygon class="fil4" points="322.15,1233.82 373.5,1233.82 373.5,1223.55 322.15,1223.55 "/>
   <polygon class="fil4" points="219.46,1233.82 270.8,1233.82 270.8,1223.55 219.46,1223.55 "/>
   <polygon class="fil4" points="14.06,1233.82 65.41,1233.82 65.41,1223.55 14.06,1223.55 "/>
   <polygon class="fil4" points="424.85,1233.82 476.2,1233.82 476.2,1223.55 424.85,1223.55 "/>
   <polygon class="fil4" points="116.76,1233.82 168.11,1233.82 168.11,1223.55 116.76,1223.55 "/>
   <polygon class="fil4" points="527.55,1233.82 578.9,1233.82 578.9,1223.55 527.55,1223.55 "/>
   <polygon class="fil4" points="835.65,1233.82 887,1233.82 887,1223.55 835.65,1223.55 "/>
   <polygon class="fil4" points="938.35,1233.82 989.7,1233.82 989.7,1223.55 938.35,1223.55 "/>
   <polygon class="fil4" points="630.25,1233.82 681.6,1233.82 681.6,1223.55 630.25,1223.55 "/>
   <polygon class="fil4" points="732.95,1233.82 784.3,1233.82 784.3,1223.55 732.95,1223.55 "/>
   <polygon class="fil4" points="1041.05,1233.82 1092.4,1233.82 1092.4,1223.55 1041.05,1223.55 "/>
   <polygon class="fil4" points="2376.13,1233.82 2427.48,1233.82 2427.48,1223.55 2376.13,1223.55 "/>
   <polygon class="fil4" points="4019.32,1233.82 4070.67,1233.82 4070.67,1223.55 4019.32,1223.55 "/>
   <polygon class="fil4" points="3916.62,1233.82 3967.97,1233.82 3967.97,1223.55 3916.62,1223.55 "/>
   <polygon class="fil4" points="3813.92,1233.82 3865.27,1233.82 3865.27,1223.55 3813.92,1223.55 "/>
   <polygon class="fil4" points="2273.44,1233.82 2324.79,1233.82 2324.79,1223.55 2273.44,1223.55 "/>
   <polygon class="fil4" points="3505.82,1233.82 3557.17,1233.82 3557.17,1223.55 3505.82,1223.55 "/>
   <polygon class="fil4" points="3608.52,1233.82 3659.87,1233.82 3659.87,1223.55 3608.52,1223.55 "/>
   <polygon class="fil4" points="4532.81,1233.82 4584.16,1233.82 4584.16,1223.55 4532.81,1223.55 "/>
   <polygon class="fil4" points="4122.02,1233.82 4173.37,1233.82 4173.37,1223.55 4122.02,1223.55 "/>
   <polygon class="fil4" points="4430.11,1233.82 4481.46,1233.82 4481.46,1223.55 4430.11,1223.55 "/>
   <polygon class="fil4" points="4224.72,1233.82 4276.07,1233.82 4276.07,1223.55 4224.72,1223.55 "/>
   <polygon class="fil4" points="4327.42,1233.82 4378.77,1233.82 4378.77,1223.55 4327.42,1223.55 "/>
   <polygon class="fil4" points="3711.22,1233.82 3762.57,1233.82 3762.57,1223.55 3711.22,1223.55 "/>
   <polygon class="fil4" points="2786.93,1233.82 2838.28,1233.82 2838.28,1223.55 2786.93,1223.55 "/>
   <polygon class="fil4" points="2684.23,1233.82 2735.58,1233.82 2735.58,1223.55 2684.23,1223.55 "/>
   <polygon class="fil4" points="2478.83,1233.82 2530.18,1233.82 2530.18,1223.55 2478.83,1223.55 "/>
   <polygon class="fil4" points="2889.63,1233.82 2940.98,1233.82 2940.98,1223.55 2889.63,1223.55 "/>
   <polygon class="fil4" points="2581.53,1233.82 2632.88,1233.82 2632.88,1223.55 2581.53,1223.55 "/>
   <polygon class="fil4" points="3197.73,1233.82 3249.08,1233.82 3249.08,1223.55 3197.73,1223.55 "/>
   <polygon class="fil4" points="3300.43,1233.82 3351.78,1233.82 3351.78,1223.55 3300.43,1223.55 "/>
   <polygon class="fil4" points="3403.13,1233.82 3454.48,1233.82 3454.48,1223.55 3403.13,1223.55 "/>
   <polygon class="fil4" points="2992.33,1233.82 3043.68,1233.82 3043.68,1223.55 2992.33,1223.55 "/>
   <polygon class="fil4" points="3095.03,1233.82 3146.38,1233.82 3146.38,1223.55 3095.03,1223.55 "/>
   <polygon class="fil4" points="1965.34,1233.82 2016.69,1233.82 2016.69,1223.55 1965.34,1223.55 "/>
   <polygon class="fil4" points="2061.81,1233.82 2113.16,1233.82 2113.16,1223.55 2061.81,1223.55 "/>
  </g>
  <g id="_2301334867616">
   <polygon class="fil4" points="6164.15,1233.82 6215.5,1233.82 6215.5,1223.55 6164.15,1223.55 "/>
   <polygon class="fil4" points="6061.45,1233.82 6112.8,1233.82 6112.8,1223.55 6061.45,1223.55 "/>
   <polygon class="fil4" points="5958.75,1233.82 6010.1,1233.82 6010.1,1223.55 5958.75,1223.55 "/>
   <polygon class="fil4" points="6266.85,1233.82 6318.2,1233.82 6318.2,1223.55 6266.85,1223.55 "/>
   <polygon class="fil4" points="5856.05,1233.82 5907.4,1233.82 5907.4,1223.55 5856.05,1223.55 "/>
   <polygon class="fil4" points="5753.36,1233.82 5804.7,1233.82 5804.7,1223.55 5753.36,1223.55 "/>
   <polygon class="fil4" points="6369.55,1233.82 6420.9,1233.82 6420.9,1223.55 6369.55,1223.55 "/>
   <polygon class="fil4" points="6780.35,1233.82 6831.7,1233.82 6831.7,1223.55 6780.35,1223.55 "/>
   <polygon class="fil4" points="6472.25,1233.82 6523.6,1233.82 6523.6,1223.55 6472.25,1223.55 "/>
   <polygon class="fil4" points="4931.76,1233.82 4983.11,1233.82 4983.11,1223.55 4931.76,1223.55 "/>
   <polygon class="fil4" points="4829.07,1233.82 4880.41,1233.82 4880.41,1223.55 4829.07,1223.55 "/>
   <polygon class="fil4" points="4623.67,1233.82 4675.02,1233.82 4675.02,1223.55 4623.67,1223.55 "/>
   <polygon class="fil4" points="5034.46,1233.82 5085.81,1233.82 5085.81,1223.55 5034.46,1223.55 "/>
   <polygon class="fil4" points="4726.37,1233.82 4777.72,1233.82 4777.72,1223.55 4726.37,1223.55 "/>
   <polygon class="fil4" points="5137.16,1233.82 5188.51,1233.82 5188.51,1223.55 5137.16,1223.55 "/>
   <polygon class="fil4" points="5445.26,1233.82 5496.61,1233.82 5496.61,1223.55 5445.26,1223.55 "/>
   <polygon class="fil4" points="5547.96,1233.82 5599.31,1233.82 5599.31,1223.55 5547.96,1223.55 "/>
   <polygon class="fil4" points="5239.86,1233.82 5291.21,1233.82 5291.21,1223.55 5239.86,1223.55 "/>
   <polygon class="fil4" points="5342.56,1233.82 5393.91,1233.82 5393.91,1223.55 5342.56,1223.55 "/>
   <polygon class="fil4" points="5650.66,1233.82 5702.01,1233.82 5702.01,1223.55 5650.66,1223.55 "/>
   <polygon class="fil4" points="6985.74,1233.82 7037.09,1233.82 7037.09,1223.55 6985.74,1223.55 "/>
   <polygon class="fil4" points="8628.93,1233.82 8680.28,1233.82 8680.28,1223.55 8628.93,1223.55 "/>
   <polygon class="fil4" points="8526.23,1233.82 8577.58,1233.82 8577.58,1223.55 8526.23,1223.55 "/>
   <polygon class="fil4" points="8423.53,1233.82 8474.88,1233.82 8474.88,1223.55 8423.53,1223.55 "/>
   <polygon class="fil4" points="6883.05,1233.82 6934.4,1233.82 6934.4,1223.55 6883.05,1223.55 "/>
   <polygon class="fil4" points="8115.43,1233.82 8166.78,1233.82 8166.78,1223.55 8115.43,1223.55 "/>
   <polygon class="fil4" points="8218.13,1233.82 8269.48,1233.82 8269.48,1223.55 8218.13,1223.55 "/>
   <polygon class="fil4" points="9142.42,1233.82 9193.77,1233.82 9193.77,1223.55 9142.42,1223.55 "/>
   <polygon class="fil4" points="8731.63,1233.82 8782.98,1233.82 8782.98,1223.55 8731.63,1223.55 "/>
   <polygon class="fil4" points="9039.72,1233.82 9091.07,1233.82 9091.07,1223.55 9039.72,1223.55 "/>
   <polygon class="fil4" points="8834.33,1233.82 8885.68,1233.82 8885.68,1223.55 8834.33,1223.55 "/>
   <polygon class="fil4" points="8937.03,1233.82 8988.38,1233.82 8988.38,1223.55 8937.03,1223.55 "/>
   <polygon class="fil4" points="8320.83,1233.82 8372.18,1233.82 8372.18,1223.55 8320.83,1223.55 "/>
   <polygon class="fil4" points="7396.54,1233.82 7447.89,1233.82 7447.89,1223.55 7396.54,1223.55 "/>
   <polygon class="fil4" points="7293.84,1233.82 7345.19,1233.82 7345.19,1223.55 7293.84,1223.55 "/>
   <polygon class="fil4" points="7088.44,1233.82 7139.79,1233.82 7139.79,1223.55 7088.44,1223.55 "/>
   <polygon class="fil4" points="7499.24,1233.82 7550.59,1233.82 7550.59,1223.55 7499.24,1223.55 "/>
   <polygon class="fil4" points="7191.14,1233.82 7242.49,1233.82 7242.49,1223.55 7191.14,1223.55 "/>
   <polygon class="fil4" points="7807.34,1233.82 7858.69,1233.82 7858.69,1223.55 7807.34,1223.55 "/>
   <polygon class="fil4" points="7910.04,1233.82 7961.39,1233.82 7961.39,1223.55 7910.04,1223.55 "/>
   <polygon class="fil4" points="8012.74,1233.82 8064.09,1233.82 8064.09,1223.55 8012.74,1223.55 "/>
   <polygon class="fil4" points="7601.94,1233.82 7653.29,1233.82 7653.29,1223.55 7601.94,1223.55 "/>
   <polygon class="fil4" points="7704.64,1233.82 7755.99,1233.82 7755.99,1223.55 7704.64,1223.55 "/>
   <polygon class="fil4" points="6574.95,1233.82 6626.3,1233.82 6626.3,1223.55 6574.95,1223.55 "/>
   <polygon class="fil4" points="6671.42,1233.82 6722.77,1233.82 6722.77,1223.55 6671.42,1223.55 "/>
  </g>
  <polygon class="fil4" points="10150.75,1234.09 10202.1,1234.09 10202.1,1223.82 10150.75,1223.82 "/>
  <polygon class="fil4" points="10048.06,1234.09 10099.4,1234.09 10099.4,1223.82 10048.06,1223.82 "/>
  <polygon class="fil4" points="9226.46,1234.09 9277.81,1234.09 9277.81,1223.82 9226.46,1223.82 "/>
  <polygon class="fil4" points="9123.77,1234.09 9175.11,1234.09 9175.11,1223.82 9123.77,1223.82 "/>
  <polygon class="fil4" points="8918.37,1234.09 8969.72,1234.09 8969.72,1223.82 8918.37,1223.82 "/>
  <polygon class="fil4" points="9329.16,1234.09 9380.51,1234.09 9380.51,1223.82 9329.16,1223.82 "/>
  <polygon class="fil4" points="9021.07,1234.09 9072.42,1234.09 9072.42,1223.82 9021.07,1223.82 "/>
  <polygon class="fil4" points="9431.86,1234.09 9483.21,1234.09 9483.21,1223.82 9431.86,1223.82 "/>
  <polygon class="fil4" points="9739.96,1234.09 9791.31,1234.09 9791.31,1223.82 9739.96,1223.82 "/>
  <polygon class="fil4" points="9842.66,1234.09 9894.01,1234.09 9894.01,1223.82 9842.66,1223.82 "/>
  <polygon class="fil4" points="9534.56,1234.09 9585.91,1234.09 9585.91,1223.82 9534.56,1223.82 "/>
  <polygon class="fil4" points="9637.26,1234.09 9688.61,1234.09 9688.61,1223.82 9637.26,1223.82 "/>
  <polygon class="fil4" points="9945.36,1234.09 9996.71,1234.09 9996.71,1223.82 9945.36,1223.82 "/>
  <g id="_2301330524736">
   <polygon class="fil5" points="7425.62,293.84 7456.71,293.84 7456.71,241.22 7425.62,241.22 "/>
   <polygon class="fil6" points="7343.3,293.84 7374.39,293.84 7374.39,241.22 7343.3,241.22 "/>
   <polygon class="fil5" points="7343.3,380.29 7374.39,380.29 7374.39,327.67 7343.3,327.67 "/>
   <polygon class="fil5" points="7016.29,380.29 7047.39,380.29 7047.39,327.67 7016.29,327.67 "/>
   <polygon class="fil6" points="7260.99,380.29 7292.08,380.29 7292.08,327.67 7260.99,327.67 "/>
   <polygon class="fil6" points="7425.62,463.08 7456.71,463.08 7456.71,410.45 7425.62,410.45 "/>
   <polygon class="fil5" points="7260.99,463.08 7292.08,463.08 7292.08,410.45 7260.99,410.45 "/>
   <polygon class="fil6" points="7098.66,463.08 7129.75,463.08 7129.75,410.45 7098.66,410.45 "/>
   <polygon class="fil5" points="7180.97,294.58 7212.06,294.58 7212.06,241.96 7180.97,241.96 "/>
   <polygon class="fil6" points="7098.41,293.84 7129.5,293.84 7129.5,241.22 7098.41,241.22 "/>
   <polygon class="fil6" points="8386.92,289.28 8557.43,289.28 8557.43,277.71 8386.92,277.71 "/>
   <polygon class="fil6" points="8386.92,328.66 8557.43,328.66 8557.43,317.09 8386.92,317.09 "/>
   <polygon class="fil6" points="8386.92,454.89 8557.43,454.89 8557.43,443.32 8386.92,443.32 "/>
   <polygon class="fil6" points="8386.92,369.92 8557.43,369.92 8557.43,358.34 8386.92,358.34 "/>
   <polygon class="fil5" points="8773.89,304.41 8851.82,304.41 8851.82,292.83 8773.89,292.83 "/>
   <polygon class="fil5" points="8773.89,332.62 8851.82,332.62 8851.82,321.03 8773.89,321.03 "/>
   <polygon class="fil5" points="8773.89,362.49 8851.82,362.49 8851.82,350.91 8773.89,350.91 "/>
   <polygon class="fil5" points="8773.89,390.69 8851.82,390.69 8851.82,379.11 8773.89,379.11 "/>
   <polygon class="fil5" points="7630.35,307.52 7774.99,307.52 7774.99,295.95 7630.35,295.95 "/>
   <polygon class="fil5" points="7630.35,345.85 7774.99,345.85 7774.99,334.28 7630.35,334.28 "/>
   <polygon class="fil5" points="7630.35,385.23 7774.99,385.23 7774.99,373.65 7630.35,373.65 "/>
   <polygon class="fil5" points="7630.35,511.46 7774.99,511.46 7774.99,499.88 7630.35,499.88 "/>
   <polygon class="fil5" points="7630.35,426.5 7774.99,426.5 7774.99,414.92 7630.35,414.92 "/>
   <polygon class="fil5" points="7630.35,266.44 7774.99,266.44 7774.99,254.86 7630.35,254.86 "/>
   <path class="fil3" d="M7821.7 56.02l54.93 0 31.58 69.58 -86.51 -69.58zm65.61 0l0 -13.31c0,-6.91 -6.7,-12.56 -14.89,-12.56l-53.23 0c-8.2,0 -14.9,5.65 -14.9,12.56l0 13.31 0.09 0 -0.09 0.12 98.58 73.28 -128.83 92.54 3.46 4.83 123.28 -88.56 -76.82 102.47 19.76 0 68.09 -97.68 1.54 81.4 5.95 -0.11 -1 -90.59 -30.99 -77.7z"/>
   <path class="fil3" d="M7616.72 644.14c-25.91,0 -46.91,21 -46.91,46.9 0,25.91 21,46.91 46.91,46.91 25.9,0 46.9,-21 46.9,-46.91 0,-25.9 -21,-46.9 -46.9,-46.9z"/>
   <path class="fil7" d="M7616.72 659.02c-17.69,0 -32.02,14.34 -32.02,32.02 0,17.69 14.33,32.03 32.02,32.03 17.68,0 32.02,-14.34 32.02,-32.03 0,-17.68 -14.34,-32.02 -32.02,-32.02z"/>
   <path class="fil3" d="M7734.17 644.14c-25.91,0 -46.91,21 -46.91,46.9 0,25.91 21,46.91 46.91,46.91 25.91,0 46.91,-21 46.91,-46.91 0,-25.9 -21,-46.9 -46.91,-46.9z"/>
   <path class="fil7" d="M7734.17 659.02c-17.69,0 -32.02,14.34 -32.02,32.02 0,17.69 14.33,32.03 32.02,32.03 17.68,0 32.02,-14.34 32.02,-32.03 0,-17.68 -14.34,-32.02 -32.02,-32.02z"/>
   <polygon class="fil3" points="7545.93,704.26 7814.93,704.26 7814.93,677.53 7545.93,677.53 "/>
   <path class="fil3" d="M8590.55 644.14c-25.91,0 -46.9,21 -46.9,46.9 0,25.91 20.99,46.91 46.9,46.91 25.9,0 46.9,-21 46.9,-46.91 0,-25.9 -21,-46.9 -46.9,-46.9z"/>
   <path class="fil7" d="M8590.55 659.02c-17.69,0 -32.03,14.34 -32.03,32.02 0,17.69 14.34,32.03 32.03,32.03 17.68,0 32.02,-14.34 32.02,-32.03 0,-17.68 -14.34,-32.02 -32.02,-32.02z"/>
   <path class="fil3" d="M8708 644.14c-25.91,0 -46.91,21 -46.91,46.9 0,25.91 21,46.91 46.91,46.91 25.91,0 46.9,-21 46.9,-46.91 0,-25.9 -20.99,-46.9 -46.9,-46.9z"/>
   <path class="fil7" d="M8708 659.02c-17.69,0 -32.03,14.34 -32.03,32.02 0,17.69 14.34,32.03 32.03,32.03 17.68,0 32.02,-14.34 32.02,-32.03 0,-17.68 -14.34,-32.02 -32.02,-32.02z"/>
   <polygon class="fil3" points="8519.76,704.26 8788.76,704.26 8788.76,677.53 8519.76,677.53 "/>
   <path class="fil3" d="M7884.81 644.14c-25.9,0 -46.9,21 -46.9,46.9 0,25.91 21,46.91 46.9,46.91 25.9,0 46.91,-21 46.91,-46.91 0,-25.9 -21.01,-46.9 -46.91,-46.9z"/>
   <path class="fil7" d="M7884.81 659.02c-17.68,0 -32.02,14.34 -32.02,32.02 0,17.69 14.34,32.03 32.02,32.03 17.69,0 32.02,-14.34 32.02,-32.03 0,-17.68 -14.33,-32.02 -32.02,-32.02z"/>
   <path class="fil3" d="M8002.26 644.14c-25.9,0 -46.91,21 -46.91,46.9 0,25.91 21.01,46.91 46.91,46.91 25.91,0 46.91,-21 46.91,-46.91 0,-25.9 -21,-46.9 -46.91,-46.9z"/>
   <path class="fil7" d="M8002.26 659.02c-17.68,0 -32.02,14.34 -32.02,32.02 0,17.69 14.34,32.03 32.02,32.03 17.69,0 32.02,-14.34 32.02,-32.03 0,-17.68 -14.33,-32.02 -32.02,-32.02z"/>
   <polygon class="fil3" points="7814.03,704.26 8083.02,704.26 8083.02,677.53 7814.03,677.53 "/>
   <path class="fil8" d="M7489.38 262l0 43.56 1.86 1.22 647.82 0 0 -44.05 -641.99 0c-2.63,0 -5.19,-0.28 -7.69,-0.73z"/>
   <path class="fil8" d="M8880.74 251.32c-33.19,-19.29 -87.61,-27.49 -138.59,-30.73 -0.65,23.28 -19.84,42.14 -43.27,42.14l-527.64 0 0 44.05 739.21 0c0,-21.04 -7.8,-42.72 -29.71,-55.46z"/>
   <path class="fil9" d="M7491.24 262.73c3.34,0 3.2,0 5.83,0l641.99 0 0 -44.06 -647.82 0 0 44.06z"/>
   <path class="fil9" d="M8171.24 218.67l0 44.06 527.64 0c23.43,0 42.62,-18.86 43.27,-42.14 -23.04,-1.46 -45.38,-1.92 -64.73,-1.92l-506.18 0z"/>
   <path class="fil9" d="M7491.24 690.89l647.82 0 0 -111.57 -581.34 0c-13.85,0 -25.18,-11.34 -25.18,-25.19l0 -139.98c0,-13.85 11.33,-25.18 25.18,-25.18l581.34 0 0 -70.31 -647.82 0 0 372.23z"/>
   <path class="fil9" d="M8900.85 318.66l-729.61 0 0 70.31 499.12 0c13.85,0 25.19,11.33 25.19,25.18l0 139.98c0,13.85 -11.34,25.19 -25.19,25.19l-499.12 0 0 111.57 293.04 0 0 -45.29c0,-5.77 4.73,-10.5 10.51,-10.5l101.09 0c5.77,0 10.5,4.73 10.5,10.5l0 45.29 314.5 0 0 -94.59 -149 0c-13.07,0 -23.76,-10.7 -23.76,-23.77l0 -210.6c0,-13.07 10.69,-23.77 23.76,-23.77l149 0 0 -30.7 -0.03 -0.68 0 11.88z"/>
   <path class="fil10" d="M8575.88 635.1l-101.09 0c-5.78,0 -10.51,4.73 -10.51,10.5l0 45.29 122.1 0 0 -45.29c0,-5.77 -4.73,-10.5 -10.5,-10.5z"/>
   <path class="fil10" d="M7667.27 635.1l-101.1 0c-5.77,0 -10.5,4.73 -10.5,10.5l0 45.29 122.1 0 0 -45.29c0,-5.77 -4.73,-10.5 -10.5,-10.5z"/>
   <polygon class="fil10" points="7532.54,370.8 8695.54,370.8 8695.54,336.83 7532.54,336.83 "/>
   <polygon class="fil3" points="8171.24,318.66 8900.85,318.66 8900.85,306.78 8171.24,306.78 "/>
   <polygon class="fil3" points="7491.24,318.66 8139.06,318.66 8139.06,306.78 7491.24,306.78 "/>
   <path class="fil3" d="M8670.36 388.97l-499.12 0 0 190.35 499.12 0c13.85,0 25.19,-11.34 25.19,-25.19l0 -139.98c0,-13.85 -11.34,-25.18 -25.19,-25.18z"/>
   <polygon class="fil3" points="7480.89,579.32 8139.06,579.32 8139.06,388.97 7480.89,388.97 "/>
   <polygon class="fil7" points="8139.06,306.78 8171.24,306.78 8171.24,231.02 8139.06,231.02 "/>
   <polygon class="fil7" points="8139.06,690.89 8171.24,690.89 8171.24,579.32 8139.06,579.32 "/>
   <polygon class="fil7" points="8139.06,388.97 8171.24,388.97 8171.24,318.67 8139.06,318.67 "/>
   <polygon class="fil7" points="8139.06,318.66 8171.24,318.66 8171.24,306.78 8139.06,306.78 "/>
   <polygon class="fil7" points="8139.06,579.32 8171.24,579.32 8171.24,388.97 8139.06,388.97 "/>
   <path class="fil3" d="M8728.12 361.93l0 210.6c0,13.07 10.69,23.77 23.76,23.77l149 0 0 -15.21 -136.66 0c-12.11,0 -22.01,-9.91 -22.01,-22.02l0 -148.08c0,-12.11 9.9,-22.02 22.01,-22.02l136.66 0 0 -50.81 -149 0c-13.07,0 -23.76,10.7 -23.76,23.77z"/>
   <path class="fil7" d="M8742.21 410.99l0 148.08c0,12.11 9.9,22.02 22.01,22.02l136.66 0 0 -192.12 -136.66 0c-12.11,0 -22.01,9.91 -22.01,22.02z"/>
   <polygon class="fil3" points="8149.41,690.89 8160.89,690.89 8160.89,231.02 8149.41,231.02 "/>
   <path class="fil3" d="M8668.82 631.58l-12.37 0c-10.35,0 -18.83,8.47 -18.83,18.82l0 41.11 280.75 0 0 -29.96 -232.71 -10.15 -16.84 -19.82z"/>
   <path class="fil7" d="M8899.55 631.58l-230.73 0 0 15.49c0,7.99 6.49,14.48 14.48,14.48l235.07 0 0 -11.15c0,-10.35 -8.47,-18.82 -18.82,-18.82z"/>
   <polygon class="fil7" points="7491.24,488.49 7491.24,520.68 7639.25,388.97 7605.54,388.97 "/>
   <polygon class="fil7" points="7491.24,536.03 7491.24,547.42 7670.4,388.97 7658.52,388.97 "/>
   <polygon class="fil7" points="8171.24,545.44 8171.24,566.73 8373.96,388.97 8350.8,388.97 "/>
   <polygon class="fil7" points="7717.29,579.32 7760.23,579.32 7976.05,388.97 7942.33,388.97 "/>
   <polygon class="fil7" points="8401.44,579.32 8444.39,579.32 8654.25,388.97 8620.54,388.97 "/>
   <polygon class="fil7" points="7575.04,579.32 7631.73,579.32 7857.34,388.97 7807.19,388.97 "/>
   <polygon class="fil7" points="8171.24,483.17 8171.24,516.6 8321.61,388.97 8287.88,388.97 "/>
   <path class="fil7" d="M6974.94 670.83l0 40.42c4.54,-5.52 7.37,-12.5 7.37,-20.21 0,-7.7 -2.83,-14.68 -7.37,-20.21z"/>
   <path class="fil3" d="M7067.74 644.14c-25.91,0 -46.91,21 -46.91,46.9 0,25.91 21,46.91 46.91,46.91 25.9,0 46.9,-21 46.9,-46.91 0,-25.9 -21,-46.9 -46.9,-46.9z"/>
   <path class="fil3" d="M6953.15 644.14c-25.91,0 -46.91,21 -46.91,46.9 0,25.91 21,46.91 46.91,46.91 25.9,0 46.9,-21 46.9,-46.91 0,-25.9 -21,-46.9 -46.9,-46.9z"/>
   <path class="fil7" d="M7067.74 659.02c-17.69,0 -32.03,14.34 -32.03,32.02 0,17.69 14.34,32.03 32.03,32.03 17.68,0 32.02,-14.34 32.02,-32.03 0,-17.68 -14.34,-32.02 -32.02,-32.02z"/>
   <polygon class="fil3" points="6974.94,704.26 7148.5,704.26 7148.5,677.53 6974.94,677.53 "/>
   <path class="fil3" d="M7218.38 644.14c-25.91,0 -46.91,21 -46.91,46.9 0,25.91 21,46.91 46.91,46.91 25.9,0 46.91,-21 46.91,-46.91 0,-25.9 -21.01,-46.9 -46.91,-46.9z"/>
   <path class="fil7" d="M7218.38 659.02c-17.69,0 -32.02,14.34 -32.02,32.02 0,17.69 14.33,32.03 32.02,32.03 17.68,0 32.02,-14.34 32.02,-32.03 0,-17.68 -14.34,-32.02 -32.02,-32.02z"/>
   <path class="fil3" d="M7335.83 644.14c-25.91,0 -46.91,21 -46.91,46.9 0,25.91 21,46.91 46.91,46.91 25.9,0 46.9,-21 46.9,-46.91 0,-25.9 -21,-46.9 -46.9,-46.9z"/>
   <path class="fil7" d="M7335.83 659.02c-17.69,0 -32.02,14.34 -32.02,32.02 0,17.69 14.33,32.03 32.02,32.03 17.68,0 32.02,-14.34 32.02,-32.03 0,-17.68 -14.34,-32.02 -32.02,-32.02z"/>
   <polygon class="fil3" points="7147.59,704.26 7416.59,704.26 7416.59,677.53 7147.59,677.53 "/>
   <path class="fil8" d="M6974.94 306.78l10 0 474.12 0 0 -44.06 -474.12 0 -10 0 -12.42 0c-23.44,0 -42.63,-18.85 -43.28,-42.13 -50.97,3.24 -105.4,11.44 -138.59,30.73 -21.91,12.73 -29.71,34.42 -29.71,55.46l224 0z"/>
   <path class="fil9" d="M6974.94 262.72l10 0 474.12 0 0 -44.05 -474.12 0 -3.71 0 -6.29 0 0 0.04c-17.14,0.14 -36.17,0.64 -55.7,1.88 0.65,23.28 19.84,42.13 43.28,42.13l12.42 0z"/>
   <polygon class="fil9" points="6974.94,690.89 7459.06,690.89 7459.06,579.32 6974.94,579.32 "/>
   <path class="fil9" d="M6984.94 388.98l474.12 0 0 -70.31 -474.12 0 -10 0 -214.4 0 0 -11.89 -0.04 0.68 0 30.7 149.01 0c13.07,0 23.76,10.7 23.76,23.77l0 210.6c0,13.07 -10.69,23.77 -23.76,23.77l-149.01 0 0 94.59 224.44 0 0 -112.33c-10.93,-2.74 -19.09,-12.68 -19.09,-24.43l0 -139.98c0,-11.75 8.16,-21.67 19.09,-24.41l0 -0.76z"/>
   <polygon class="fil10" points="6974.94,370.8 7475.15,370.8 7475.15,336.83 6974.94,336.83 "/>
   <polygon class="fil3" points="6974.94,318.66 7459.06,318.66 7459.06,306.78 6974.94,306.78 "/>
   <path class="fil3" d="M6977.15 579.32l0.56 0 481.35 0 0 -190.35 -481.91 0.01c-12.2,2.76 -21.3,12.76 -21.3,24.61l0 141.09c0,11.85 9.09,21.86 21.29,24.63l0.01 0.01z"/>
   <polygon class="fil7" points="7459.05,306.78 7491.24,306.78 7491.24,231.02 7459.05,231.02 "/>
   <polygon class="fil7" points="7459.05,690.89 7491.24,690.89 7491.24,579.32 7459.05,579.32 "/>
   <polygon class="fil7" points="7459.05,388.97 7491.24,388.97 7491.24,318.67 7459.05,318.67 "/>
   <polygon class="fil7" points="7459.05,318.66 7491.24,318.66 7491.24,306.78 7459.05,306.78 "/>
   <polygon class="fil7" points="7459.05,579.32 7491.24,579.32 7491.24,388.97 7459.05,388.97 "/>
   <polygon class="fil3" points="7469.41,690.89 7480.89,690.89 7480.89,231.02 7469.41,231.02 "/>
   <polygon class="fil7" points="7019.82,388.97 6955.83,447.34 6955.83,458.08 7031.71,388.97 "/>
   <polygon class="fil7" points="7037.29,579.32 7080.23,579.32 7296.05,388.97 7262.33,388.97 "/>
   <polygon class="fil7" points="7120.58,388.98 6955.86,508.7 6955.86,554.63 7177.34,388.97 "/>
   <polygon class="fil5" points="6887.5,362.49 6809.57,362.49 6809.57,350.91 6887.5,350.91 "/>
   <polygon class="fil5" points="6887.5,390.69 6809.57,390.69 6809.57,379.11 6887.5,379.11 "/>
   <path class="fil7" d="M6953.39 659.02c15.8,0 28.92,11.44 31.55,26.47l0 11.1c-2.63,15.05 -15.75,26.48 -31.55,26.48 -17.69,0 -32.03,-14.33 -32.03,-32.03 0,-17.68 14.34,-32.02 32.03,-32.02z"/>
   <polygon class="fil3" points="6984.94,704.26 6872.63,704.26 6872.63,677.53 6984.94,677.53 "/>
   <polygon class="fil10" points="6984.94,370.81 6965.85,370.81 6965.85,336.83 6984.94,336.83 "/>
   <polygon class="fil3" points="6984.94,318.67 6760.54,318.67 6760.54,306.78 6984.94,306.78 "/>
   <path class="fil3" d="M6933.27 361.93l0 210.6c0,13.07 -10.69,23.77 -23.76,23.77l-149 0 0 -15.21 136.66 0c12.11,0 22.01,-9.91 22.01,-22.02l0 -148.08c0,-12.11 -9.9,-22.02 -22.01,-22.02l-136.66 0 0 -50.81 149 0c13.07,0 23.76,10.7 23.76,23.77z"/>
   <path class="fil7" d="M6919.18 410.99l0 148.08c0,12.11 -9.9,22.02 -22.01,22.02l-136.66 0 0 -192.12 136.66 0c12.11,0 22.01,9.91 22.01,22.02z"/>
   <path class="fil3" d="M6984.94 691.51l-10 0 -231.92 0 0 -29.97 231.92 -10.11 0 -19.85 32.5 0c6.14,0 11.16,5.08 11.16,11.29l0 48.64 -33.66 0z"/>
   <path class="fil7" d="M6761.84 631.58c68.89,0 137.78,0 206.67,0 5.48,0 9.43,-1.16 13.28,1.91 3.85,3.07 3.15,6.83 3.15,11.2 0,8.75 3.14,16.85 -6.85,16.85l-235.07 0 0 -11.14c0,-10.35 8.47,-18.82 18.82,-18.82z"/>
  </g>
  <g id="_2301330511168">
   <path class="fil8" d="M934.3 1035.79c111.72,-5.3 581.19,30.57 581.19,30.57l14.38 31.49c-254.31,-3.45 -563.23,-8.44 -786.99,-14.73l25.32 -30.09c0,0 102.5,-14.24 166.1,-17.24z"/>
   <path class="fil9" d="M478.1 748.85c70.95,-9.4 145.02,-46.43 204.17,-65.86 85.93,-28.22 179.73,-55.14 328.15,-43.9 144.97,10.98 391.59,138.78 391.59,138.78 0,0 256.68,-7.36 415.8,45.42 -0.58,17.62 3.29,37.83 21.88,46.55 36.16,16.99 51.84,29.36 80.06,48.25 12.04,8.07 34.56,10.75 56.44,11.21 3.89,4.95 5.69,7.8 5.69,7.8l7.15 166.1c0,0 -201.55,-1.88 -459.16,-5.35l-14.38 -31.49c0,0 -469.47,-35.87 -581.19,-30.57 -63.6,3 -166.1,17.24 -166.1,17.24l-25.32 30.09c-56.51,-1.58 -107.61,-3.25 -150.99,-5.01 -45.77,-1.84 -109.03,-23.9 -161.58,-45.86 5.41,-24.38 13.21,-65.36 9.76,-85.84 -6.73,-39.99 -25.08,-42.34 -31.67,-96.62 -1.84,-15.12 -9.15,-23.93 -17.98,-29.11 2.83,-16.86 -0.44,-34.64 -8.23,-42.43 -8.09,-8.09 -20.51,-12.47 -27.36,-14.41l1.48 -14.99c0,0 83.63,5.06 121.79,0z"/>
   <path class="fil10" d="M1976.19 929.3c-21.88,-0.46 -44.4,-3.14 -56.44,-11.21 -28.22,-18.89 -43.9,-31.26 -80.06,-48.25 -18.59,-8.72 -22.46,-28.93 -21.88,-46.55 22.73,7.54 43.46,16.3 61.17,26.5 56.25,32.35 85.81,64.99 97.21,79.51z"/>
   <path class="fil8" d="M376.31 849.79c7.73,-7.18 12.24,-17.95 14.11,-29.11 8.83,5.18 16.14,13.99 17.98,29.11 6.59,54.28 24.94,56.63 31.67,96.62 3.45,20.48 -4.35,61.46 -9.76,85.84 -54.39,-22.73 -97.3,-45.38 -97.3,-45.38l12.39 -126.6c10.38,-0.51 22.77,-2.92 30.91,-10.48z"/>
   <path class="fil11" d="M382.19 778.25c7.79,7.79 11.06,25.57 8.23,42.43 -17.32,-10.13 -40.56,-5.98 -40.56,-5.98l4.97 -50.86c6.85,1.94 19.27,6.32 27.36,14.41z"/>
   <path class="fil12" d="M390.42 820.68c-1.87,11.16 -6.38,21.93 -14.11,29.11 -8.14,7.56 -20.53,9.97 -30.91,10.48l4.46 -45.57c0,0 23.24,-4.15 40.56,5.98z"/>
   <path class="fil3" d="M981.08 667.25c146.08,5.16 281.7,111.25 281.7,111.25 0,0 -238.29,9.7 -401.08,-12.26 -162.77,-21.94 -196.64,-48.75 -196.64,-48.75 0,0 188.89,-54.73 316.02,-50.24z"/>
   <path class="fil8" d="M1438.75 845.66c0,0 -78.02,125.12 -170.77,130.76 -92.75,5.61 -184.93,7.11 -325.17,-43.53 -90.22,-32.59 -174.61,-118.19 -174.61,-118.19 0,0 143.03,22.51 287.08,30.96 144.05,8.44 383.47,0 383.47,0z"/>
   <path class="fil3" d="M416.1 995.65c26.01,30.83 132.95,45.03 132.95,45.03l11.94 34.33c0,0 -102.7,-21.76 -142.54,-34.33 -39.84,-12.58 -85.44,-53.81 -85.44,-53.81l4.88 -49.77c0,0 52.19,27.71 78.21,58.55z"/>
   <path class="fil13" d="M667.44 833.69c89.43,0 161.95,72.51 161.95,161.96 0,32.94 -9.9,63.54 -26.79,89.12 -11.07,-0.24 -29.44,-0.67 -44.12,-1.21 -22.56,-0.84 -209.11,-10.93 -209.11,-10.93l-27.43 -6.19c-10.44,-21.42 -16.46,-45.37 -16.46,-70.79 0,-89.45 72.51,-161.96 161.96,-161.96z"/>
   <path class="fil13" d="M1626.39 833.69c89.45,0 161.96,72.51 161.96,161.96 0,29.58 -7.98,57.28 -21.84,81.13 -1.58,2.72 -8.85,14.86 -16.49,23.84 -11.06,-0.23 -245.97,-3.1 -245.97,-3.1 -16.17,-13.34 -27.21,-39.89 -28.95,-44.43 -6.85,-17.85 -10.67,-37.18 -10.67,-57.44 0,-89.45 72.51,-161.96 161.96,-161.96z"/>
   <path class="fil14" d="M1037.47 692.4c59.94,14.88 169.65,70.17 169.65,70.17 -27.04,0.1 -131.11,-3.78 -212.85,-7.06 -22.82,-0.91 -90.93,-8.62 -90.93,-8.62l-28.23 -54.09c0,0 92.9,-17.65 162.36,-0.4z"/>
   <path class="fil14" d="M849.64 742.58l-132.1 -21.26c0,0 89.93,-17.58 113.68,-21.08l18.42 42.34z"/>
   <path class="fil14" d="M1405.08 778.5l-108.2 0c0,0 -32.53,-24.94 -83.09,-52.77 -42.2,-23.23 -128.45,-55.66 -128.45,-55.66l14.43 -14.26c143.91,38.95 305.31,122.69 305.31,122.69z"/>
   <path class="fil13" d="M1989.03 958.08l-5.81 94.95 -102.18 0c0.33,-1.52 0.63,-3.03 1.08,-4.68 21.95,-79.93 106.91,-90.27 106.91,-90.27z"/>
   <path class="fil3" d="M1300.96 822.22c11.79,29.75 8.4,169.3 6.32,229.56 -2.78,-0.16 -4.73,-0.01 -7.07,-0.27 2.02,-60.2 5.32,-198.61 -5.82,-226.69 -12.19,-30.71 -54.45,-54.41 -54.87,-54.66l0.89 -7.59c1.83,1.01 47.41,26.57 60.55,59.65z"/>
   <path class="fil3" d="M879.24 759.64l3.9 5.87c-0.32,0.22 -33.25,22.3 -49.24,50.91 -27,48.31 33.45,191.83 47.58,223.94 -2.52,0.16 -5.05,0.25 -7.59,0.32 -16.46,-37.45 -74.4,-177.14 -46.15,-227.7 16.83,-30.14 50.09,-52.4 51.5,-53.34z"/>
   <path class="fil4" d="M667.39 908.54c46.75,0 84.66,37.91 84.66,84.66 0,46.76 -37.91,84.66 -84.66,84.66 -46.76,0 -84.66,-37.9 -84.66,-84.66 0,-46.75 37.9,-84.66 84.66,-84.66z"/>
   <path class="fil3" d="M667.39 1100.43c59.21,0 107.22,-48 107.22,-107.23 0,-59.21 -48.01,-107.22 -107.22,-107.22 -59.23,0 -107.24,48.01 -107.24,107.22 0,59.23 48.01,107.23 107.24,107.23zm0 -254.13c81.12,0 146.9,65.76 146.9,146.9 0,81.14 -65.78,146.91 -146.9,146.91 -81.14,0 -146.92,-65.77 -146.92,-146.91 0,-81.14 65.78,-146.9 146.92,-146.9z"/>
   <path class="fil15" d="M667.39 868.86c68.66,0 124.32,55.68 124.32,124.34 0,68.68 -55.66,124.34 -124.32,124.34 -68.67,0 -124.34,-55.66 -124.34,-124.34 0,-68.66 55.67,-124.34 124.34,-124.34z"/>
   <path class="fil13" d="M667.39 903.83c49.35,0 89.37,40.02 89.37,89.37 0,49.37 -40.02,89.39 -89.37,89.39 -49.37,0 -89.39,-40.02 -89.39,-89.39 0,-49.35 40.02,-89.37 89.39,-89.37z"/>
   <path class="fil15" d="M667.39 952.43c22.51,0 40.76,18.26 40.76,40.77 0,22.52 -18.25,40.77 -40.76,40.77 -22.52,0 -40.77,-18.25 -40.77,-40.77 0,-22.51 18.25,-40.77 40.77,-40.77z"/>
   <polygon class="fil15" points="661.83,957.93 634.38,981.39 591.4,920.78 611.69,905.09 "/>
   <path class="fil13" d="M618.27 925.57l23.23 28.76c1.62,2.02 1.31,4.98 -0.71,6.62 -2,1.62 -4.98,1.3 -6.6,-0.71l-23.24 -28.76c-1.61,-2.02 -1.3,-4.98 0.71,-6.62 2.01,-1.61 4.99,-1.3 6.61,0.71z"/>
   <polygon class="fil15" points="743.36,921.1 700.38,981.71 672.93,958.27 723.07,905.41 "/>
   <path class="fil13" d="M716.49 925.9c1.62,-2 4.6,-2.33 6.61,-0.7 2.02,1.62 2.33,4.59 0.71,6.61l-23.23 28.76c-1.62,2.01 -4.6,2.32 -6.61,0.7 -2.02,-1.62 -2.33,-4.6 -0.71,-6.61l23.23 -28.76z"/>
   <polygon class="fil15" points="764.38,1026.85 752.44,1049.55 685.31,1017.69 703.66,986.61 "/>
   <path class="fil13" d="M710.72 1006.01l32.35 17.9c2.25,1.26 3.08,4.13 1.83,6.39 -1.25,2.26 -4.13,3.08 -6.38,1.83l-32.36 -17.9c-2.26,-1.25 -3.08,-4.13 -1.83,-6.39 1.26,-2.26 4.12,-3.09 6.39,-1.83z"/>
   <polygon class="fil15" points="647.77,1019.16 580.64,1051.02 568.7,1028.32 629.42,988.08 "/>
   <path class="fil13" d="M590.01 1025.38l32.35 -17.9c2.27,-1.26 5.13,-0.43 6.39,1.84 1.25,2.25 0.43,5.13 -1.83,6.38l-32.36 17.91c-2.25,1.24 -5.13,0.42 -6.38,-1.84 -1.25,-2.27 -0.42,-5.14 1.83,-6.39z"/>
   <polygon class="fil15" points="680.23,1097.9 654.59,1097.16 649.34,1024.5 685.42,1023.79 "/>
   <path class="fil13" d="M667.51 1035.51c2.58,0.03 4.69,2.16 4.67,4.74l-0.29 36.97c-0.01,2.59 -2.15,4.68 -4.74,4.66 -2.58,-0.01 -4.67,-2.14 -4.66,-4.73l0.29 -36.97c0.02,-2.58 2.14,-4.68 4.73,-4.67z"/>
   <path class="fil3" d="M667.39 977.13c8.87,0 16.08,7.19 16.08,16.07 0,8.89 -7.21,16.09 -16.08,16.09 -8.89,0 -16.09,-7.2 -16.09,-16.09 0,-8.88 7.2,-16.07 16.09,-16.07z"/>
   <path class="fil4" d="M1626.39 910.15c46.76,0 84.66,37.9 84.66,84.66 0,46.76 -37.9,84.66 -84.66,84.66 -46.75,0 -84.67,-37.9 -84.67,-84.66 0,-46.76 37.92,-84.66 84.67,-84.66z"/>
   <path class="fil3" d="M1626.39 1102.03c59.22,0 107.23,-48 107.23,-107.22 0,-59.23 -48.01,-107.23 -107.23,-107.23 -59.21,0 -107.22,48 -107.22,107.23 0,59.22 48.01,107.22 107.22,107.22zm0 -254.13c81.13,0 146.9,65.78 146.9,146.91 0,81.13 -65.77,146.9 -146.9,146.9 -81.14,0 -146.91,-65.77 -146.91,-146.9 0,-81.13 65.77,-146.91 146.91,-146.91z"/>
   <path class="fil15" d="M1626.39 870.48c68.67,0 124.33,55.66 124.33,124.33 0,68.66 -55.66,124.34 -124.33,124.34 -68.66,0 -124.34,-55.68 -124.34,-124.34 0,-68.67 55.68,-124.33 124.34,-124.33z"/>
   <path class="fil13" d="M1626.39 905.43c49.37,0 89.39,40.01 89.39,89.38 0,49.36 -40.02,89.37 -89.39,89.37 -49.36,0 -89.38,-40.01 -89.38,-89.37 0,-49.37 40.02,-89.38 89.38,-89.38z"/>
   <path class="fil15" d="M1626.39 954.04c22.52,0 40.77,18.25 40.77,40.77 0,22.51 -18.25,40.77 -40.77,40.77 -22.51,0 -40.77,-18.26 -40.77,-40.77 0,-22.52 18.26,-40.77 40.77,-40.77z"/>
   <polygon class="fil15" points="1620.84,959.54 1593.4,982.98 1550.41,922.38 1570.7,906.69 "/>
   <path class="fil13" d="M1577.28 927.17l23.22 28.77c1.63,2 1.31,4.98 -0.7,6.6 -2,1.63 -4.98,1.31 -6.6,-0.7l-23.23 -28.76c-1.63,-2.01 -1.31,-4.99 0.71,-6.61 2,-1.62 4.97,-1.31 6.6,0.7z"/>
   <polygon class="fil15" points="1702.38,922.71 1659.39,983.31 1631.95,959.86 1682.09,907.02 "/>
   <path class="fil13" d="M1675.5 927.51c1.63,-2.02 4.6,-2.33 6.61,-0.71 2.01,1.62 2.33,4.6 0.7,6.62l-23.22 28.75c-1.63,2.02 -4.6,2.33 -6.6,0.7 -2.03,-1.62 -2.34,-4.59 -0.72,-6.61l23.23 -28.75z"/>
   <polygon class="fil15" points="1723.39,1028.46 1711.44,1051.15 1644.32,1019.29 1662.67,988.2 "/>
   <path class="fil13" d="M1669.72 1007.61l32.34 17.91c2.27,1.25 3.1,4.12 1.85,6.38 -1.26,2.27 -4.13,3.09 -6.4,1.84l-32.34 -17.9c-2.25,-1.25 -3.09,-4.13 -1.83,-6.39 1.25,-2.27 4.13,-3.09 6.38,-1.84z"/>
   <polygon class="fil15" points="1606.78,1020.76 1539.65,1052.63 1527.72,1029.93 1588.44,989.67 "/>
   <path class="fil13" d="M1549.03 1026.99l32.34 -17.91c2.25,-1.25 5.13,-0.43 6.38,1.83 1.26,2.27 0.44,5.15 -1.83,6.4l-32.34 17.91c-2.26,1.24 -5.14,0.42 -6.4,-1.85 -1.24,-2.25 -0.42,-5.14 1.85,-6.38z"/>
   <polygon class="fil15" points="1639.24,1099.5 1613.6,1098.76 1608.35,1026.1 1644.44,1025.38 "/>
   <path class="fil13" d="M1626.52 1037.12c2.58,0.02 4.68,2.15 4.66,4.74l-0.28 36.96c-0.01,2.58 -2.16,4.69 -4.74,4.67 -2.58,-0.02 -4.68,-2.15 -4.66,-4.74l0.29 -36.96c0.01,-2.59 2.14,-4.69 4.73,-4.67z"/>
   <path class="fil3" d="M1626.39 978.72c8.89,0 16.09,7.2 16.09,16.09 0,8.88 -7.2,16.09 -16.09,16.09 -8.89,0 -16.08,-7.21 -16.08,-16.09 0,-8.89 7.19,-16.09 16.08,-16.09z"/>
  </g>
  <g id="_2301330504128">
   <path class="fil16" d="M4116.4 925.62c226.43,-31.15 389.35,-0.34 561.48,105.08 41.47,25.38 75.72,50.57 104.82,75.23 -11.27,6.28 -21.56,18.73 -9.96,43.08 20.65,43.35 126.99,85.06 127.15,85.12 14.12,19.77 26.49,38.64 38.36,56.27 51.37,76.33 62.93,159.23 62.93,159.23l-879.65 0c-2.63,-23.01 -38.06,-51.48 -46.53,-83.04 -22.26,-82.91 -87.68,-110.43 -153.78,-89.88 -55.25,17.17 -68.4,22.69 -89.86,59.92 4.7,-58.2 19.45,-187.64 50.96,-270.35 26.33,-69.11 96.61,-121.73 234.08,-140.66z"/>
   <path class="fil17" d="M4782.7 1105.93c53.29,45.18 88.9,88.58 117.19,128.2 -0.16,-0.06 -106.5,-41.77 -127.15,-85.12 -11.6,-24.35 -1.31,-36.8 9.96,-43.08z"/>
   <path class="fil18" d="M4153.63 1449.63l-336.33 0c0,0 -58.43,-63.82 14.06,-172.08 255.5,-93.68 322.27,172.08 322.27,172.08z"/>
   <path class="fil18" d="M4828.05 1257.85c32.42,9.83 78.18,27.87 110.2,32.55 83.88,12.28 101.13,92.09 102.31,159.23 -36.87,0 -84.04,0 -133.56,0 0.15,-2.72 0.41,-5.42 0.41,-8.19 0,-77.66 -62.95,-140.62 -140.61,-140.62 -77.66,0 -140.62,62.96 -140.62,140.62 0,2.77 0.26,5.47 0.42,8.19 -11.21,0 -17.66,0 -17.66,0 0,0 -4.3,-89.31 37.3,-144.82 41.6,-55.5 94.25,-73.47 181.81,-46.96z"/>
   <path class="fil19" d="M4766.8 1300.82c77.66,0 140.61,62.96 140.61,140.62 0,2.77 -0.26,5.47 -0.41,8.19 -111.76,0 -235.44,0 -280.4,0 -0.16,-2.72 -0.42,-5.42 -0.42,-8.19 0,-77.66 62.96,-140.62 140.62,-140.62z"/>
   <path class="fil19" d="M3957.51 1300.82c77.65,0 140.61,62.96 140.61,140.62 0,2.77 -0.26,5.47 -0.41,8.19 -111.77,0 -235.44,0 -280.41,0 -0.16,-2.72 -0.41,-5.42 -0.41,-8.19 0,-77.66 62.95,-140.62 140.62,-140.62z"/>
   <path class="fil4" d="M3952.53 1372.74c38.78,0 70.2,31.44 70.2,70.21 0,38.77 -31.42,70.2 -70.2,70.2 -38.78,0 -70.21,-31.43 -70.21,-70.2 0,-38.77 31.43,-70.21 70.21,-70.21z"/>
   <path class="fil13" d="M3953.18 1530.5c49.1,0 88.91,-39.81 88.91,-88.91 0,-49.11 -39.81,-88.93 -88.91,-88.93 -49.11,0 -88.92,39.82 -88.92,88.93 0,49.1 39.81,88.91 88.92,88.91zm0 -210.74c67.27,0 121.82,54.55 121.82,121.83 0,67.28 -54.55,121.81 -121.82,121.81 -67.28,0 -121.82,-54.53 -121.82,-121.81 0,-67.28 54.54,-121.83 121.82,-121.83z"/>
   <path class="fil3" d="M3953.18 1510.43c38.02,0 68.84,-30.83 68.84,-68.84 0,-38.02 -30.82,-68.85 -68.84,-68.85 -38.03,0 -68.84,30.83 -68.84,68.85 0,38.01 30.81,68.84 68.84,68.84zm0 -157.77c49.1,0 88.91,39.82 88.91,88.93 0,49.1 -39.81,88.91 -88.91,88.91 -49.11,0 -88.92,-39.81 -88.92,-88.91 0,-49.11 39.81,-88.93 88.92,-88.93z"/>
   <path class="fil15" d="M3889.82 1456.65c8.53,-3.61 24.53,-12.04 30.8,-26.65 2.9,-14.76 -5.47,-29.08 -10.5,-37.27 -14.1,11.95 -22.12,28.93 -22.12,48.86 0,5.19 0.68,10.22 1.82,15.06zm57.51 49.81c0.64,-9.58 0.15,-26.48 -9.31,-38.2 -12.77,-10.31 -34.34,-4.51 -44.89,-1.47 8.88,22.39 29.24,37.44 54.2,39.67zm39.99 -120.33c-10.2,-6.64 -21.06,-9.71 -34.14,-9.71 -13.09,0 -25.24,3.88 -35.46,10.52 5.51,6.78 18.83,20.86 35.46,22.63 16.62,-1.77 28.64,-16.68 34.14,-23.44zm-29.62 120.4c25.41,-1.75 46.36,-16.98 55.47,-39.56 -9.98,-3.02 -32.89,-9.43 -46.16,1.29 -9.49,11.74 -9.96,28.7 -9.31,38.27zm60.65 -64.94c0,-20.34 -8.12,-37.47 -22.71,-49.41 -5.03,7.96 -14.23,22.58 -11.24,37.82 6.58,15.3 23.86,23.86 32,27.16 1.22,-5 1.95,-10.2 1.95,-15.57zm-65.17 -74.86c41.34,0 74.84,33.51 74.84,74.86 0,41.34 -33.5,74.85 -74.84,74.85 -41.34,0 -74.85,-33.51 -74.85,-74.85 0,-41.35 33.51,-74.86 74.85,-74.86z"/>
   <path class="fil20" d="M3953.18 1427.76c7.16,0 12.96,5.8 12.96,12.95 0,7.16 -5.8,12.97 -12.96,12.97 -7.17,0 -12.97,-5.81 -12.97,-12.97 0,-7.15 5.8,-12.95 12.97,-12.95z"/>
   <path class="fil15" d="M3953.18 1434.78c3.27,0 5.94,2.65 5.94,5.93 0,3.29 -2.67,5.94 -5.94,5.94 -3.28,0 -5.94,-2.65 -5.94,-5.94 0,-3.28 2.66,-5.93 5.94,-5.93z"/>
   <path class="fil4" d="M4766.14 1372.59c38.78,0 70.21,31.43 70.21,70.21 0,38.77 -31.43,70.21 -70.21,70.21 -38.76,0 -70.2,-31.44 -70.2,-70.21 0,-38.78 31.44,-70.21 70.2,-70.21z"/>
   <path class="fil13" d="M4766.8 1530.36c49.11,0 88.92,-39.81 88.92,-88.92 0,-49.11 -39.81,-88.92 -88.92,-88.92 -49.11,0 -88.92,39.81 -88.92,88.92 0,49.11 39.81,88.92 88.92,88.92zm0 -210.74c67.27,0 121.82,54.54 121.82,121.82 0,67.28 -54.55,121.82 -121.82,121.82 -67.28,0 -121.82,-54.54 -121.82,-121.82 0,-67.28 54.54,-121.82 121.82,-121.82z"/>
   <path class="fil3" d="M4766.8 1510.27c38.02,0 68.84,-30.81 68.84,-68.83 0,-38.02 -30.82,-68.85 -68.84,-68.85 -38.03,0 -68.85,30.83 -68.85,68.85 0,38.02 30.82,68.83 68.85,68.83zm0 -157.75c49.11,0 88.92,39.81 88.92,88.92 0,49.11 -39.81,88.92 -88.92,88.92 -49.11,0 -88.92,-39.81 -88.92,-88.92 0,-49.11 39.81,-88.92 88.92,-88.92z"/>
   <path class="fil15" d="M4703.45 1456.5c8.52,-3.6 24.52,-12.04 30.8,-26.64 2.89,-14.77 -5.48,-29.1 -10.52,-37.27 -14.08,11.95 -22.1,28.93 -22.1,48.85 0,5.19 0.67,10.22 1.82,15.06zm57.49 49.82c0.65,-9.58 0.16,-26.48 -9.31,-38.21 -12.76,-10.3 -34.33,-4.51 -44.88,-1.46 8.88,22.37 29.24,37.44 54.19,39.67zm40.01 -120.34c-10.21,-6.64 -21.07,-9.72 -34.15,-9.72 -13.09,0 -25.25,3.9 -35.45,10.54 5.51,6.76 18.82,20.85 35.45,22.61 16.62,-1.76 28.64,-16.66 34.15,-23.43zm-29.63 120.4c25.41,-1.75 46.35,-16.98 55.47,-39.56 -9.98,-3.02 -32.89,-9.43 -46.16,1.29 -9.49,11.75 -9.96,28.71 -9.31,38.27zm60.65 -64.94c0,-20.33 -8.12,-37.46 -22.71,-49.42 -5.04,7.98 -14.24,22.6 -11.24,37.84 6.57,15.3 23.87,23.86 32,27.15 1.22,-5.01 1.95,-10.19 1.95,-15.57zm-65.17 -74.85c41.34,0 74.85,33.51 74.85,74.85 0,41.33 -33.51,74.85 -74.85,74.85 -41.34,0 -74.86,-33.52 -74.86,-74.85 0,-41.34 33.52,-74.85 74.86,-74.85z"/>
   <path class="fil20" d="M4766.8 1427.61c7.16,0 12.96,5.79 12.96,12.96 0,7.17 -5.8,12.96 -12.96,12.96 -7.16,0 -12.97,-5.79 -12.97,-12.96 0,-7.17 5.81,-12.96 12.97,-12.96z"/>
   <path class="fil15" d="M4766.8 1434.63c3.28,0 5.94,2.67 5.94,5.94 0,3.28 -2.66,5.93 -5.94,5.93 -3.29,0 -5.94,-2.65 -5.94,-5.93 0,-3.27 2.65,-5.94 5.94,-5.94z"/>
   <path class="fil18" d="M4135.91 1210.71l494.62 0c12.88,0 23.41,10.55 23.41,23.42 0,12.88 -10.53,23.43 -23.41,23.43l-494.62 0c-12.88,0 -23.42,-10.55 -23.42,-23.43 0,-12.87 10.54,-23.42 23.42,-23.42z"/>
   <path class="fil18" d="M4139.12 1392.18c21.2,17.39 56.17,21.05 83.1,21.05l398.82 -3.82 0 40.09 -504.64 0 -12.55 -101.78c0,0 24.3,35.45 35.27,44.46z"/>
   <path class="fil3" d="M3976.11 1024.08c75.9,-64.55 159.3,-62.84 259.47,-67.97 100.15,-5.14 216.24,12.92 320.26,61.63 86.3,40.42 122.04,70.64 150.91,109.15 14.42,19.25 8.37,35.1 -61.77,35.1 -70.15,0 -724.66,0 -724.66,0 0,0 9.4,-98.46 55.79,-137.91z"/>
   <path class="fil19" d="M5001.18 1362.15l0.48 54.06c0,0 -24.19,0.48 -24.19,-24.19 0,-24.65 23.71,-29.87 23.71,-29.87z"/>
   <path class="fil3" d="M4191.02 1301.82c0,42.98 29.85,60.51 103.03,60.51 24,0 58.06,-0.05 92.75,-0.1 52.3,-0.06 106.08,-0.11 129.24,-0.04l0.57 0c40.51,0 54.8,-14.05 63.52,-62.16 8.26,-45.48 9.89,-137.19 9.91,-138.1l8.8 0.13c-0.06,3.8 -1.65,93.35 -10.04,139.54 -8.34,45.99 -21.83,69.39 -72.25,69.39l-0.54 0c-23.14,-0.08 -76.92,-0.02 -129.19,0.05 -34.71,0.04 -68.76,0.09 -92.77,0.09 -55.31,0 -111.84,-8.23 -111.84,-69.31l0 -139.83 8.81 0 0 139.83z"/>
   <path class="fil14" d="M4173.72 989.49l-4.91 141.79 -213.64 0c0,0 6.1,-48.47 28.64,-72.66 71.27,-76.46 189.91,-69.13 189.91,-69.13z"/>
   <path class="fil14" d="M4621.04 1092.23c45.95,30.81 18.27,39.05 -12.22,39.05 -99.16,0 -396.6,0 -396.6,0l0 -141.79c204.25,-14.16 362.88,71.91 408.82,102.74z"/>
  </g>
  <g id="_2301330547872">
   <polygon class="fil4" points="9532.28,568.88 9485.5,568.88 9485.5,559.52 9532.28,559.52 "/>
   <polygon class="fil21" points="9569.57,642.71 9567.84,682.54 9540.42,681.34 9542.15,641.53 "/>
   <path class="fil22" d="M9541.86 552.83l39.38 1.71c13.04,0.56 23.25,11.69 22.68,24.74l-1.61 36.93c0,20.21 -13.33,34.92 -37.19,33.89 -16.52,0 -39.82,-16.65 -38.78,-40.52l1.6 -34.07c0.57,-13.05 0.88,-23.25 13.92,-22.68z"/>
   <path class="fil22" d="M9534.54 588.61c0,0 -1.47,20.21 -8.24,17.69 -12.97,-4.82 -10.94,-21.43 -6.31,-25.23 5.78,-4.75 14.55,7.54 14.55,7.54z"/>
   <path class="fil23" d="M9534.51 578.54c-0.49,1.93 -1.06,3.74 -1.72,5.09 -3.72,7.55 -9.63,8.52 -9.63,8.52 0,0 1.29,-5.33 -0.9,-14.72 -0.85,-3.64 -4.61,-14.21 -4.61,-14.21l34.24 1.69c0,0 -7.41,11.74 -17.38,13.63z"/>
   <path class="fil24" d="M9562.85 518.33c27.71,0.96 49.47,23.63 49.23,50.9 0,0 -32.44,-4.09 -66.55,-2.82 -11.01,0.4 -12.68,13.73 -21.36,21.42 -6.06,5.39 -15.11,7.65 -15.11,7.65 0.12,-1.91 -1.9,-21.32 1.82,-35.39 6.35,-23.99 26.19,-42.65 51.97,-41.76z"/>
   <path class="fil3" d="M9522.19 580.14c5.98,-7.98 10.99,-20.49 21,-21 10.01,-0.49 53.92,-0.7 68.5,3.41 8.58,3.6 10.38,11.16 10.38,11.16 0,0 -11.98,5.02 -38.5,1.62 -20.1,-2.59 -34.54,-9.36 -42.55,-5.86 -8.01,3.51 -6.17,9.26 -13.91,16.42 -10.69,9.88 -18.05,9.59 -18.05,9.59l-0.44 -4.74c0,0 7.59,-2.61 13.57,-10.6z"/>
   <path class="fil3" d="M9527.21 608.33c2.48,-0.36 2.69,-8.45 2.39,-14.78 -0.33,-7.25 -0.54,-18.04 -0.54,-18.04l7.1 -7.45c0,0 0.21,30.17 -0.16,33.4 -0.75,6.7 -0.99,12.48 -6.89,14.98 -2.13,0.89 -7.05,0.39 -10.52,-5.53 -3.16,-5.37 -4.24,-17.75 -4.24,-17.75l4.31 -4.44c0,0 1.28,20.66 8.55,19.61z"/>
   <path class="fil3" d="M9531.74 612.53c0.24,5.96 4.43,22.45 18.2,29.81 13.38,7.15 34.9,4.17 34.9,4.17 0,0 -11.57,12.17 -35.56,1.78 -22.72,-9.83 -24.83,-34.53 -24.83,-34.53 0,0 2.2,-1.75 7.29,-1.23z"/>
   <path class="fil23" d="M9558.44 575.14c4.98,0.34 8.81,3.57 10.79,7.82 0.68,1.46 -0.71,2.37 -1.65,1.12 -3.67,-4.83 -10.3,-7.1 -15.63,-4.83 -2.04,0.87 -4.03,2.04 -6.4,4.09l-0.85 -1.53c3,-4.03 8.68,-7.02 13.74,-6.67z"/>
   <path class="fil23" d="M9588.22 577.72c4.43,-0.27 7.82,0.94 10.44,4.14 1.49,1.82 0.52,3.21 -1.13,1.84 -2.61,-2.12 -5.49,-3.45 -8.91,-3.12 -3.28,0.32 -5.25,1.89 -7.74,3.81l-0.57 -0.32c0.34,-3.55 4.75,-6.16 7.91,-6.35z"/>
   <path class="fil21" d="M9580.87 613.24c1.17,-1.03 1.35,-1.57 0.81,-2.98 -0.75,-1.95 -2.2,-3.54 -2.99,-5.51 -0.51,-1.27 0.27,-1.84 1.06,-1.02 1.36,1.42 2.63,3.7 3.57,5.06 0.8,1.13 1.83,2.62 1.51,4.05 -0.61,2.73 -3.4,4.61 -6.06,5.69 -2.12,0.85 -3.2,-0.69 -1.6,-2.36 1.01,-1.04 2.79,-2.12 3.7,-2.93z"/>
   <path class="fil23" d="M9563.28 630.28c1.89,1.21 -0.6,1.4 -2.94,3.05 -3.16,-3.21 -4.1,-6.76 -4.1,-6.76l4.84 0c0.29,1.3 0.89,2.88 2.2,3.71z"/>
   <path class="fil4" d="M9563.28 630.28c-1.31,-0.83 -1.91,-2.41 -2.2,-3.71l23.76 0c-0.15,1 -0.55,2.23 -1.65,3.06 -0.82,0.61 -0.23,0.85 0.62,1.66l0.87 0.93c-2.45,3.04 -6.17,6.17 -11.15,6.18 -6.44,0.01 -10.57,-2.41 -13.19,-5.07 2.34,-1.65 4.83,-1.84 2.94,-3.05z"/>
   <path class="fil23" d="M9584.84 626.57l3.32 0c0,0 -1.18,2.79 -3.48,5.65l-0.87 -0.93c-0.85,-0.81 -1.44,-1.05 -0.62,-1.66 1.1,-0.83 1.5,-2.06 1.65,-3.06z"/>
   <path class="fil21" d="M9622.07 711.97c0,0 19.26,19.28 31.41,21.51 12.16,2.22 51.83,-1.49 51.83,-1.49l-10.01 15.2c0,0 -44.91,9.14 -52.1,7.3 -15.56,-3.95 -30.73,-11.75 -39.26,-22.86 -8.52,-11.13 18.13,-19.66 18.13,-19.66z"/>
   <polygon class="fil13" points="9547.16,1070.4 9481.45,1070.4 9481.45,1012.86 9547.16,1012.86 "/>
   <path class="fil3" d="M9819.87 982.62c40.95,0 74.14,33.2 74.14,74.15 0,40.95 -33.19,74.15 -74.14,74.15 -40.96,0 -74.15,-33.2 -74.15,-74.15 0,-40.95 33.19,-74.15 74.15,-74.15z"/>
   <path class="fil13" d="M9819.87 1002.01c30.23,0 54.75,24.52 54.75,54.76 0,30.23 -24.52,54.76 -54.75,54.76 -30.25,0 -54.76,-24.53 -54.76,-54.76 0,-30.24 24.51,-54.76 54.76,-54.76z"/>
   <path class="fil15" d="M9819.87 1008.83c26.46,0 47.93,21.46 47.93,47.94 0,26.47 -21.47,47.94 -47.93,47.94 -26.48,0 -47.94,-21.47 -47.94,-47.94 0,-26.48 21.46,-47.94 47.94,-47.94z"/>
   <path class="fil3" d="M9819.87 1018.87c20.93,0 37.9,16.97 37.9,37.9 0,20.93 -16.97,37.9 -37.9,37.9 -20.94,0 -37.9,-16.97 -37.9,-37.9 0,-20.93 16.96,-37.9 37.9,-37.9z"/>
   <path class="fil15" d="M9819.87 1040.36c9.05,0 16.41,7.34 16.41,16.41 0,9.06 -7.36,16.41 -16.41,16.41 -9.07,0 -16.41,-7.35 -16.41,-16.41 0,-9.07 7.34,-16.41 16.41,-16.41z"/>
   <path class="fil3" d="M9819.87 1042.61c2.01,0 3.65,1.63 3.65,3.65 0,2.01 -1.64,3.65 -3.65,3.65 -2.02,0 -3.66,-1.64 -3.66,-3.65 0,-2.02 1.64,-3.65 3.66,-3.65z"/>
   <path class="fil3" d="M9819.87 1063.09c2.01,0 3.65,1.64 3.65,3.66 0,2.02 -1.64,3.65 -3.65,3.65 -2.02,0 -3.66,-1.63 -3.66,-3.65 0,-2.02 1.64,-3.66 3.66,-3.66z"/>
   <path class="fil3" d="M9809.94 1053.11c2.02,0 3.66,1.64 3.66,3.66 0,2.02 -1.64,3.65 -3.66,3.65 -2.01,0 -3.65,-1.63 -3.65,-3.65 0,-2.02 1.64,-3.66 3.65,-3.66z"/>
   <path class="fil3" d="M9830.16 1053.11c2.01,0 3.65,1.64 3.65,3.66 0,2.02 -1.64,3.65 -3.65,3.65 -2.02,0 -3.66,-1.63 -3.66,-3.65 0,-2.02 1.64,-3.66 3.66,-3.66z"/>
   <path class="fil3" d="M9819.87 1053.11c2.01,0 3.65,1.64 3.65,3.66 0,2.02 -1.64,3.65 -3.65,3.65 -2.02,0 -3.66,-1.63 -3.66,-3.65 0,-2.02 1.64,-3.66 3.66,-3.66z"/>
   <path class="fil3" d="M9426.69 982.62c40.96,0 74.16,33.2 74.16,74.15 0,40.95 -33.2,74.15 -74.16,74.15 -40.94,0 -74.14,-33.2 -74.14,-74.15 0,-40.95 33.2,-74.15 74.14,-74.15z"/>
   <path class="fil13" d="M9426.69 1002.01c30.25,0 54.76,24.52 54.76,54.76 0,30.23 -24.51,54.76 -54.76,54.76 -30.23,0 -54.74,-24.53 -54.74,-54.76 0,-30.24 24.51,-54.76 54.74,-54.76z"/>
   <path class="fil15" d="M9426.69 1008.83c26.48,0 47.94,21.46 47.94,47.94 0,26.47 -21.46,47.94 -47.94,47.94 -26.46,0 -47.92,-21.47 -47.92,-47.94 0,-26.48 21.46,-47.94 47.92,-47.94z"/>
   <path class="fil3" d="M9426.69 1018.87c20.94,0 37.9,16.97 37.9,37.9 0,20.93 -16.96,37.9 -37.9,37.9 -20.92,0 -37.89,-16.97 -37.89,-37.9 0,-20.93 16.97,-37.9 37.89,-37.9z"/>
   <path class="fil15" d="M9426.69 1040.36c9.07,0 16.42,7.34 16.42,16.41 0,9.06 -7.35,16.41 -16.42,16.41 -9.05,0 -16.39,-7.35 -16.39,-16.41 0,-9.07 7.34,-16.41 16.39,-16.41z"/>
   <path class="fil3" d="M9426.69 1042.61c2.03,0 3.66,1.63 3.66,3.65 0,2.01 -1.63,3.65 -3.66,3.65 -2.01,0 -3.64,-1.64 -3.64,-3.65 0,-2.02 1.63,-3.65 3.64,-3.65z"/>
   <path class="fil3" d="M9426.69 1063.09c2.03,0 3.66,1.64 3.66,3.66 0,2.02 -1.63,3.65 -3.66,3.65 -2.01,0 -3.64,-1.63 -3.64,-3.65 0,-2.02 1.63,-3.66 3.64,-3.66z"/>
   <path class="fil3" d="M9416.78 1053.11c2.02,0 3.66,1.64 3.66,3.66 0,2.02 -1.64,3.65 -3.66,3.65 -2.02,0 -3.65,-1.63 -3.65,-3.65 0,-2.02 1.63,-3.66 3.65,-3.66z"/>
   <path class="fil3" d="M9437 1053.11c2.01,0 3.64,1.64 3.64,3.66 0,2.02 -1.63,3.65 -3.64,3.65 -2.03,0 -3.66,-1.63 -3.66,-3.65 0,-2.02 1.63,-3.66 3.66,-3.66z"/>
   <path class="fil3" d="M9426.69 1053.11c2.03,0 3.66,1.64 3.66,3.66 0,2.02 -1.63,3.65 -3.66,3.65 -2.01,0 -3.64,-1.63 -3.64,-3.65 0,-2.02 1.63,-3.66 3.64,-3.66z"/>
   <path class="fil14" d="M9516.36 1006.29c14.54,0 26.32,11.78 26.32,26.31 0,14.54 -11.78,26.33 -26.32,26.33 -14.53,0 -26.32,-11.79 -26.32,-26.33 0,-14.53 11.79,-26.31 26.32,-26.31z"/>
   <path class="fil15" d="M9516.36 1016.72c8.78,0 15.89,7.11 15.89,15.88 0,8.78 -7.11,15.89 -15.89,15.89 -8.78,0 -15.89,-7.11 -15.89,-15.89 0,-8.77 7.11,-15.88 15.89,-15.88z"/>
   <polygon class="fil3" points="9542.3,1076.62 9498.1,1076.62 9498.1,1060.48 9542.3,1060.48 "/>
   <path class="fil13" d="M9389.08 1015.6c8.28,-5.03 15.96,-2.28 26.23,1.52 27.5,10.2 48.66,27.38 69.57,35.36 3.79,1.45 10.36,2.97 15.97,4.56l0 23.89c-15.09,5.92 -36.01,7.73 -55.51,5.01 -21.84,-3.06 -77.94,-20.71 -77.94,-37.65 0,-12.04 12.17,-26.91 21.68,-32.69z"/>
   <path class="fil15" d="M9400.67 1023.93c30.61,0.64 64.46,32.21 67.86,36.22 4.85,5.69 3.43,15.96 -8.27,15.96 -15.97,0 -44.47,-5.95 -63.87,-15.11 -10.2,-4.82 -19.39,-12.3 -15.97,-19.68 2.61,-5.62 12.42,-17.55 20.25,-17.39z"/>
   <path class="fil3" d="M9401.95 1028.53c1.65,0 2.99,1.34 2.99,2.99 0,1.65 -1.34,2.99 -2.99,2.99 -1.65,0 -2.99,-1.34 -2.99,-2.99 0,-1.65 1.34,-2.99 2.99,-2.99z"/>
   <path class="fil3" d="M9387.27 1042.07c1.65,0 3,1.34 3,2.99 0,1.66 -1.35,3 -3,3 -1.66,0 -2.99,-1.34 -2.99,-3 0,-1.65 1.33,-2.99 2.99,-2.99z"/>
   <path class="fil3" d="M9461.97 1064.6c1.66,0 3,1.33 3,2.99 0,1.66 -1.34,3 -3,3 -1.65,0 -2.99,-1.34 -2.99,-3 0,-1.66 1.34,-2.99 2.99,-2.99z"/>
   <path class="fil3" d="M9422.23 1037.74c6.4,2.44 11.19,5.46 10.7,6.74 -0.49,1.29 -6.08,0.36 -12.48,-2.08 -6.39,-2.44 -11.19,-5.47 -10.7,-6.75 0.5,-1.29 6.08,-0.35 12.48,2.09z"/>
   <path class="fil3" d="M9414.41 1051.95c10.09,3.84 17.89,8.02 17.39,9.3 -0.48,1.29 -9.07,-0.79 -19.17,-4.64 -10.1,-3.85 -17.89,-8.01 -17.4,-9.3 0.49,-1.29 9.08,0.78 19.18,4.64z"/>
   <path class="fil3" d="M9419.62 1045.73c10.1,3.84 17.89,8.02 17.39,9.3 -0.48,1.29 -9.07,-0.79 -19.16,-4.64 -10.11,-3.85 -17.9,-8.01 -17.41,-9.3 0.49,-1.29 9.08,0.78 19.18,4.64z"/>
   <path class="fil17" d="M9784.02 929c30.19,-10.34 69.36,9.06 95.21,33.62 25.86,24.56 3.88,31.03 -20.68,32.32 -24.56,1.29 -65.76,6.33 -81.28,14.22 -15.52,7.89 -24.3,30.64 -33.9,30.64 -9.59,0 -27.97,0 -27.97,0 0,0 38.44,-100.45 68.62,-110.8z"/>
   <path class="fil3" d="M9685.73 737.38c17.11,-5.7 21.68,-29.65 21.68,-29.65 0,0 20.21,0.69 32.71,3.07 4.32,12.61 12.74,36.75 17.89,51.47 -6.22,3.22 -11.22,5.21 -19.32,8.42 -15.9,6.29 -7.89,14.84 -7.89,14.84l-45.07 19.15c0,0 -12.75,-29.97 -17.1,-39.91 -5.33,-12.18 0,-21.68 17.1,-27.39z"/>
   <path class="fil17" d="M9768.61 741.57c0.36,5.82 -2.22,16.34 -10.26,20.53l-0.34 0.17c-5.15,-14.72 -13.57,-38.86 -17.89,-51.47 2.87,0.55 5.33,1.18 7.05,1.92 17.64,7.56 20.89,19.88 21.44,28.85z"/>
   <path class="fil25" d="M9533.42 1054.74c18.88,0.11 42.39,2.42 57.64,2.27 27.38,-0.26 68.44,-5.16 94.67,-42.06 26.23,-36.91 28.52,-100.78 22.82,-130.43 -5.71,-29.65 -5.72,-87.1 -5.72,-87.1l39.27 -16.69c0,0 48.38,96.95 55.32,116.34 6.93,19.38 4.41,26.23 -6.31,35.35 -10.71,9.12 -38.93,60.75 -49.01,82.53 -9.55,20.66 -23.66,58.26 -62.44,66.25 -32.67,6.72 -117.31,6.66 -143.15,6.47 -4.83,-0.04 -9.64,-2.32 -12.3,-5.32 -4.07,-4.62 -9.63,-11.04 -11.47,-13.81 -8.3,-12.49 5.67,-13.89 20.68,-13.8z"/>
   <path class="fil17" d="M9566.31 989.68c0.66,5.93 3.84,11.55 8.07,16.06l-9.55 10.98c0,0 6.14,9.8 20.75,9.8 14.61,0 54.5,0 70.2,0 15.69,0 24.25,-4.9 29.95,-11.57 3.5,-4.09 0.14,-9.53 -2.98,-13.12 6.18,-7.58 8.12,-17.09 8.3,-25.54 0.51,-23.39 1.53,-39.3 0.39,-59.35 -1.14,-20.04 -5.71,-112.26 -5.71,-112.26l56.37 -23.95c0,0 -29,28.51 -24.89,39.92 4.1,11.4 36.95,75.28 34.43,96.29 -2.52,21.02 -31.69,77.07 -41.96,98.01 -10.26,20.93 -35.35,45.53 -57.02,45.53 -21.68,0 -115.33,0 -115.33,0l-15.84 -24.84 -56.52 -113.95 99.86 21.56c0,0 -0.81,25.78 1.48,46.43z"/>
   <path class="fil3" d="M9593.36 1016.05c17.46,0.85 46.72,1.5 63.85,-1.1 12.41,-1.89 20.42,-6.84 25.54,-13.12 3.12,3.59 6.48,9.03 2.98,13.12 -5.7,6.67 -14.26,14.43 -29.95,14.43 -15.7,0 -55.59,0 -70.2,0 -14.61,0 -20.75,-12.66 -20.75,-12.66l9.55 -10.98c5.61,5.96 13.05,10.01 18.98,10.31z"/>
   <polygon class="fil17" points="9558.75,1087.72 9554.95,1087.72 9533.42,1054.74 9538.6,1055.41 "/>
   <path class="fil17" d="M9379.69 944.97c14.05,-14.26 35.92,-20.03 63.42,-15.97 27.5,4.07 65.23,15.46 74.96,33.65 10.03,18.75 -3.94,54.44 -11.08,70.21 -29.85,-5.68 -99.24,-18.73 -144.14,-25.7 -4.89,-0.77 -8.31,-2.48 -10.57,-4.94l0.27 -0.21c0,0 13.09,-42.78 27.14,-57.04z"/>
   <path class="fil25" d="M9370.76 940.18c24.89,-31.36 75.39,-23.73 97.91,-18.22 26.65,6.53 71.07,26.43 68.56,60.83 -2.01,27.48 -15.74,52.85 -15.74,52.85 0,0 -5.46,-1.05 -14.5,-2.78 7.14,-15.77 21.11,-51.46 11.08,-70.21 -9.73,-18.19 -47.46,-29.58 -74.96,-33.65 -27.5,-4.06 -49.37,1.71 -63.42,15.97 -14.05,14.26 -27.14,57.04 -27.14,57.04l-0.27 0.21c-3.99,-4.37 -4.25,-11.12 -2.23,-19.23 3.09,-12.33 9.09,-28.19 20.71,-42.81z"/>
   <path class="fil3" d="M9439.94 901.23c37.35,1.15 89.51,2.06 121.91,-16.1 22.78,14.19 24.52,31.43 23.51,37.03 -1.14,6.3 -4.54,24.19 -20.67,25.08 -13.53,0.76 -39.49,-2.84 -65.29,-13.51 -22.14,-9.15 -41.74,-14.55 -56.33,-14.99 -38.13,-1.14 -56.47,7.94 -56.47,7.94 -19.78,-9.2 -19.2,-35.32 -19.2,-35.32 0,0 35.18,8.73 72.54,9.87z"/>
   <path class="fil14" d="M9445.43 872.49c31.06,3.72 49.68,15.94 106.85,7.47 3.57,1.66 6.71,3.39 9.57,5.17 -32.4,18.16 -84.56,17.25 -121.91,16.1 -37.36,-1.14 -72.54,-9.87 -72.54,-9.87 0,0 11.18,-7.02 27.8,-11.84 12.8,-3.71 33.43,-9.03 50.23,-7.03z"/>
   <path class="fil4" d="M9357.88 907.66l75.38 0c3.08,0 5.6,2.52 5.6,5.6 0,3.07 -2.52,5.59 -5.6,5.59l-75.38 0c-3.08,0 -5.6,-2.52 -5.6,-5.59 0,-3.08 2.52,-5.6 5.6,-5.6z"/>
   <path class="fil4" d="M9655.43 1058.06c19.34,-2.46 40.33,-20.19 52.21,-44.13l1.21 -2.41c12.72,-25.65 30.16,-60.77 34.7,-74.71 4.26,-13.11 8.68,-26.66 -0.94,-50.83 -9.4,-23.62 -12.29,-30.52 -18.19,-43.46 -1.17,-2.57 -2.56,-5.03 -3.9,-7.38 -5.14,-9.06 -10.47,-18.43 -0.11,-31.86 11.85,-15.35 19.95,-24.02 20.03,-24.11l3.34 3.12c-0.09,0.08 -8.05,8.61 -19.76,23.79 -8.5,11.02 -4.74,17.63 0.47,26.8 1.39,2.45 2.83,4.99 4.09,7.75 5.93,13.02 8.84,19.95 18.27,43.66 10.23,25.71 5.56,40.05 1.04,53.93 -4.64,14.26 -22.17,49.55 -34.97,75.32l-1.19 2.42c-12.53,25.25 -34.93,43.99 -55.73,46.62 -3.44,0.43 -9.48,0.61 -17.12,0.61 -34.96,0 -98.05,-2.51 -101.55,-2.71l-3.91 -5.74c1.05,0.06 103.24,5.7 122.01,3.32z"/>
   <polygon class="fil3" points="9495.56,1010.59 9493.43,1021.79 9383.34,1000.88 9385.47,989.68 "/>
   <path class="fil4" d="M9368.85 973.5c0.7,-2.21 3.08,-3.45 5.28,-2.76l2.84 0.9c2.21,0.7 3.44,3.08 2.75,5.29l-4.68 14.81c-0.7,2.21 -3.08,3.44 -5.28,2.75l-2.85 -0.9c-2.2,-0.7 -3.44,-3.08 -2.74,-5.29l4.68 -14.8z"/>
   <path class="fil3" d="M9714.25 885.13c-1.16,-10.59 -1.72,-15.73 5.41,-17.62 5.59,-1.49 7.9,3.32 10.94,11.69 3.04,8.36 6.84,25.1 6.84,39.65 0,14.56 -4.57,24.98 -9.13,34.1 -4.56,9.13 -7.6,10.65 -14.06,7.6 -6.47,-3.04 -7.23,-5.32 -5.18,-13.2 2.04,-7.9 6.62,-49.03 5.18,-62.22z"/>
   <polygon class="fil17" points="9741.05,892.51 9708.06,892.51 9708.06,888.43 9741.05,888.43 "/>
   <polygon class="fil17" points="9741.05,918.28 9708.06,918.28 9708.06,914.2 9741.05,914.2 "/>
   <polygon class="fil17" points="9739.24,944.51 9706.26,944.51 9706.26,940.43 9739.24,940.43 "/>
   <path class="fil4" d="M9670.53 746.88l14.82 0c4.19,0 7.6,3.43 7.6,7.61l0 0c0,4.18 -3.41,7.61 -7.6,7.61l-14.82 0c-4.19,0 -7.61,-3.43 -7.61,-7.61l0 0c0,-4.18 3.42,-7.61 7.61,-7.61z"/>
   <path class="fil14" d="M9662.92 741.57c7.11,0 12.93,5.81 12.93,12.92l0 0c0,7.11 -5.82,12.93 -12.93,12.93 -7.11,0 -12.93,-5.82 -12.93,-12.93l0 0c0,-7.11 5.82,-12.92 12.93,-12.92z"/>
   <path class="fil25" d="M9698.2 677.97c0,19.24 -22.35,26.7 -22.35,26.7l0 -53.4c0,0 22.35,7.45 22.35,26.7z"/>
   <path class="fil25" d="M9695.3 674.08c1.59,0 2.9,1.31 2.9,2.9l0 61.69c0,1.59 -1.31,2.9 -2.9,2.9 -1.6,0 -2.9,-1.31 -2.9,-2.9l0 -61.69c0,-1.59 1.3,-2.9 2.9,-2.9z"/>
   <path class="fil26" d="M9664.88 981.83c0.68,2.27 1.48,4.92 2.44,7.92 2,6.27 7.96,11.56 13.96,13.76 -3.1,3.65 -14.5,10.8 -15.68,11.52l-22.79 0 0.73 -33.2 21.34 0z"/>
   <path class="fil11" d="M9686.89 995.3c-1.33,3.14 -3.53,5.75 -5.61,8.21 -6,-2.2 -11.96,-7.49 -13.96,-13.76 -0.96,-3 -1.76,-5.65 -2.44,-7.92l12.7 0c0,0 1.81,8.02 9.31,13.47z"/>
   <path class="fil11" d="M9665.6 1015.03c-3.45,2.07 -7.04,3.48 -10.75,4.5l-12.13 0 0.09 -4.5 22.79 0z"/>
   <path class="fil9" d="M9607.06 984.09c0.67,2.27 1.48,4.91 2.43,7.92 3.04,9.53 10.94,14.22 22.94,14.5 5.54,0.12 8.61,-1.55 10.29,-3.14 4.45,1.76 8.9,3.89 11.46,6.45 1.13,1.13 1.54,4.56 1.68,7.46l-70.86 0 0.72 -33.19 21.34 0z"/>
   <path class="fil11" d="M9629.62 998.47c1.86,1.1 7.48,2.7 13.1,4.9 -1.68,1.59 -4.75,3.26 -10.29,3.14 -12,-0.28 -19.9,-4.97 -22.94,-14.5 -0.95,-3.01 -1.76,-5.65 -2.43,-7.92l12.69 0c0,0 0.64,8.95 9.87,14.38z"/>
   <path class="fil11" d="M9655.86 1017.28c0.12,2.44 0.04,4.51 0.04,4.51l-71 0 0.1 -4.51 70.86 0z"/>
   <path class="fil27" d="M9633.05 849.8c8.94,3.36 18.34,11.89 22.73,30.21 9.9,41.31 22.28,103.39 22.28,103.39l-34.86 6.28 -27.61 -90.12 -75.17 -58.16 26.88 -18.29c0,0 41.11,17.42 65.75,26.69z"/>
   <path class="fil28" d="M9520.2 825.79c0,0 71.65,16.07 81.49,30.02 12.04,17.05 18.79,112.52 18.72,130.13l-35.41 6.95 -19.66 -100.38c0,0 -25.75,1.13 -75.3,-7.38 -42.13,-7.22 -18.9,-75.28 -18.9,-75.28l49.06 15.94z"/>
   <path class="fil12" d="M9588.16 674.64c6.16,3.25 39.48,37.71 39.48,37.71 0,0 -2.04,8.7 -10.38,16.31 -9.01,8.22 -13.32,9.64 -13.32,9.64l-23.63 -18.72 -4.57 -47.45c0,0 6.27,-0.73 12.42,2.51z"/>
   <path class="fil11" d="M9471.32 773.8c4.82,-5.73 8.08,-20.63 8.81,-23.7 5.76,-23.98 4.29,-34.87 7.71,-52.41 5.19,-26.55 16.07,-29.53 16.07,-29.53l37.35 -6.13c0,0 4.9,9.5 15.68,9.5 10.35,0 11.45,-7.79 11.45,-7.79 0,0 8.41,4.97 19.77,10.9 9.16,18.26 4.35,44.37 0,72.87 -3.16,20.78 -5.98,8.7 -10.4,28.16 -3.02,13.27 6.05,25.99 0.01,34.09 -6.36,8.49 0.13,10.09 -1.43,15 -5.57,20.39 -88.89,28.47 -111.75,-7.07 0,-11.12 1.71,-15.16 6.55,-22.43 5.19,-7.79 -4.54,-15.84 0.18,-21.46z"/>
   <path class="fil22" d="M9571.93 762.86c17.31,3.47 38.69,-4.76 51.96,-7.42 14.86,-2.99 28.34,-8.18 28.34,-8.18 0,0 -2.86,3.49 -2.07,9.23 0.58,4.21 3.32,6.82 3.32,6.82 0,0 -14.73,6.94 -29.04,12.49 -14.14,5.51 -35.33,15.46 -57.54,13.65 -23.25,-1.91 -45.86,-28.05 -57,-50.28 10.88,-6.26 16.07,-10.08 27.97,-12.38 4.3,11.47 21.97,33.65 34.06,36.07z"/>
   <path class="fil12" d="M9523.67 685.01c7.46,18.6 17.02,33.62 20.36,44.83 -9.18,6.39 -25.54,15 -37.89,21.3 -7.51,-9.57 -14.61,-32.07 -15.18,-36.94 -6.34,-53.72 21.86,-56.28 32.71,-29.19z"/>
   <path class="fil22" d="M9678.64 740.29c5.73,1.96 12.54,9.74 11.18,11.97 -1.37,2.23 -9.09,-5.1 -9.09,-5.1 0,0 5.18,6.63 1.42,7.45 -1.82,0.4 -4.37,-1.35 -6.53,-3.24 -0.76,-3.5 -3.73,-6.46 -7.18,-8.29 -1.38,-0.75 -2.86,-1.23 -4.37,-1.53 5.38,-1.74 11.26,-2.4 14.57,-1.26z"/>
   <path class="fil23" d="M9563.13 592.15c1.54,0 2.79,1.24 2.79,2.78 0,1.54 -1.25,2.79 -2.79,2.79 -1.53,0 -2.77,-1.25 -2.77,-2.79 0,-1.54 1.24,-2.78 2.77,-2.78z"/>
   <path class="fil23" d="M9592.33 592.15c1.54,0 2.78,1.24 2.78,2.78 0,1.54 -1.24,2.79 -2.78,2.79 -1.53,0 -2.78,-1.25 -2.78,-2.79 0,-1.54 1.25,-2.78 2.78,-2.78z"/>
   <polygon class="fil23" points="9567.58,593.73 9552.16,593.73 9552.16,591.03 9567.58,591.03 "/>
   <polygon class="fil23" points="9597.26,593.73 9581.83,593.73 9581.83,591.03 9597.26,591.03 "/>
  </g>
 </g>
</svg>
