<?xml version="1.0" encoding="UTF-8"?>
<!DOCTYPE svg PUBLIC "-//W3C//DTD SVG 1.1//EN" "http://www.w3.org/Graphics/SVG/1.1/DTD/svg11.dtd">
<!-- Creator: CorelDRAW 2017 -->
<svg xmlns="http://www.w3.org/2000/svg" xml:space="preserve" width="102.51mm" height="16.02mm" version="1.1" style="shape-rendering:geometricPrecision; text-rendering:geometricPrecision; image-rendering:optimizeQuality; fill-rule:evenodd; clip-rule:evenodd"
viewBox="0 0 10251 1602"
 xmlns:xlink="http://www.w3.org/1999/xlink">
 <defs>
  <style type="text/css">
   <![CDATA[
    .fil2 {fill:black;fill-rule:nonzero}
    .fil1 {fill:#282828;fill-rule:nonzero}
    .fil7 {fill:#300901;fill-rule:nonzero}
    .fil4 {fill:#5E2014;fill-rule:nonzero}
    .fil6 {fill:#F4810F;fill-rule:nonzero}
    .fil0 {fill:#F4CDBA;fill-rule:nonzero}
    .fil5 {fill:#F7B90D;fill-rule:nonzero}
    .fil3 {fill:#FFEADC;fill-rule:nonzero}
   ]]>
  </style>
 </defs>
 <g id="Camada_x0020_1">
  <metadata id="CorelCorpID_0Corel-Layer"/>
  <g id="_2301288466912">
   <path class="fil0" d="M5289.91 1407.36c7.99,42.37 6.39,79.13 13.05,119.5 7.81,47.32 140.91,-3.53 172.18,-7.91 31.27,-4.46 19.26,-36.44 -39.01,-40.68 -86.04,-6.3 -89.59,-63.26 -89.59,-63.26l-56.63 -7.65z"/>
   <path class="fil0" d="M4899.89 1148.51l-110.3 27.62 -98.89 81.97c0,0 -48.97,40.24 -10.51,-47.81 35.81,-82.04 34.34,-77.96 37.33,-90.07 2.53,-10.02 16.27,-25.84 52.64,-21.97 31.51,3.26 141.7,-39.24 141.7,-39.24l-11.97 89.5z"/>
   <path class="fil1" d="M4671.6 1223.58c20.73,-63.89 20.46,-81.62 33.49,-111 10.61,-23.98 29.65,-19.15 68.92,-16.28 4.29,0.32 -26.21,77.98 -57.45,141.69 0,0 -79.44,91.9 -44.96,-14.41z"/>
   <path class="fil0" d="M5223.83 342.1c-23.49,23.45 -174.92,176.88 -177.28,212.09 -2.31,35.22 74.11,156.66 109.3,196.64 35.27,39.86 45.68,-20.51 45.68,-20.51 0,0 -86.75,-140.25 -82.02,-161.34 4.72,-21.15 103.11,-70.18 114.81,-84.35 11.79,-13.99 -10.49,-142.53 -10.49,-142.53z"/>
   <path class="fil2" d="M5317.2 775.26c4.3,34.89 42.29,327.16 42.99,374.74 0.64,47.49 17.75,269.89 19.65,289.87 -39.23,9.2 -98.52,18.71 -98.52,18.71 0,0 -24.58,-136.08 -55.15,-290.13 -25.48,-128.43 -107.67,-245.63 -105.51,-269.19 2.15,-23.55 103.28,-171.64 103.28,-171.64l93.26 47.64z"/>
   <path class="fil1" d="M5298.82 860.55c-16.92,31.11 -114.06,228.22 -169.93,257.24 -55.93,29.04 -292.65,58.34 -306.94,59 -14.26,0.72 -16.73,-94.18 -16.73,-94.18 0,0 205.15,-59.12 220.46,-68.93 63.8,-40.77 48.3,-188.04 74.04,-245.05 26.81,-59.34 48.31,-81.13 48.31,-81.13l187.8 47.9 -37.01 125.15z"/>
   <path class="fil3" d="M5341.02 266.76c-23.97,27.19 -22.39,59.59 -17.59,74.73 6.34,20 -0.23,24.76 -33.12,13.37 -28.87,-10.03 -34.08,-14.86 -52.59,-16.88 10.44,-15.5 19.02,-84.61 3.99,-126.39 -14.99,-41.75 99.31,55.17 99.31,55.17z"/>
   <path class="fil0" d="M5242.1 207.92c-8.47,-23.75 83.22,28.61 113.57,51.3l-76.54 87.75c-19.13,-7.25 -25.32,-10.94 -41.01,-12.71 10.44,-15.52 18.95,-84.61 3.98,-126.34z"/>
   <path class="fil3" d="M5233.51 150.75c-4.89,69.01 38.39,140.35 93.26,144.22 54.89,3.91 85.31,-49.94 90.25,-118.97 4.95,-68.96 -22.2,-114.56 -77.02,-118.41 -54.83,-3.93 -101.54,24.11 -106.49,93.16z"/>
   <path class="fil3" d="M5405.18 168.99c2.71,16.05 -6.09,26.28 8.18,67.79 0,10.98 -28.34,8.51 -33.7,9.34 -5.35,0.91 25.52,-77.13 25.52,-77.13z"/>
   <path class="fil0" d="M5325.41 295.14c6.11,0.47 11.84,0.26 17.33,-0.74 -53.41,-23.54 -25.54,-160 -12.01,-184.3 -8.38,-3.51 18.24,-51.6 7.93,-52.38 -54.87,-3.93 -101.52,24.15 -106.49,93.15 -4.91,69.1 38.37,140.38 93.24,144.27z"/>
   <path class="fil4" d="M5413.77 114.12c3.03,-16.43 -22.24,-61.87 -100.96,-58.86 -32.72,1.29 -53.26,8.83 -66.53,20.53 -16.58,10.14 -33.4,27.89 -48.31,59.27 -45.63,60.78 -112.74,121.94 -147.36,90.27 2.39,6.14 8.17,12.82 16.74,18.11 -12.21,-2.68 -23.98,-7.95 -34.96,-17.18 -1.67,12.73 8.19,32.63 28.2,44.67 -11.63,-4.17 -23.58,-11.57 -32,-19.75 -9.23,-8.91 8.74,24.24 29.4,33.06 -8.61,-2.91 -24.19,-8.89 -30.83,-17.74 -4.33,-5.78 -2.91,35.36 57.55,39.42 14.61,0.93 30.83,-3.63 42.24,-8.82 -16.45,9.38 -28.91,13.94 -77.48,7.65 75.15,35.46 202.81,-0.46 245.52,-80.28 4.61,-5.73 6.72,-11.05 3.85,-15.06 -6.68,-9.19 -16.63,-42.5 -1.26,-43.63 7.38,-0.51 16.26,4.74 16.26,4.74l27.69 -23.43c20.94,4.05 68.45,13.29 88.48,13.67 13.13,-30.34 -9.95,-46.41 -16.24,-46.64z"/>
   <path class="fil5" d="M5325.28 348.84c10.57,19.37 58.85,103.3 64.14,134.9 5.3,31.77 -21.19,168.5 -45.89,231.95 -24.6,63.34 -19.31,72.16 -29.88,72.16 -10.58,0 -188.74,-63.19 -192.2,-70.25 -3.55,-7.01 53.09,-88.26 54.83,-121.75 1.78,-33.41 -22.24,-131.38 0.67,-187.68 22.9,-56.39 61.62,-85.82 67.01,-82.29 39.95,25.58 81.32,22.96 81.32,22.96z"/>
   <path class="fil1" d="M5474.52 1518.95c29.34,-4.12 27.85,-36.12 -28.95,-39.62 -13.35,17.37 -57.43,21.87 -79.78,23.15 -28.01,1.62 -45.76,-6.62 -67.33,-1.98 1.56,8.4 1.83,17.27 3.84,26.36 10.61,46.79 140.98,-3.53 172.22,-7.91z"/>
   <path class="fil6" d="M5344.52 715.69c24.67,-63.45 51.11,-200.18 45.84,-231.95 -5.26,-31.6 -53.56,-115.53 -64.08,-134.9 0,0 -21.74,-0.59 -43.11,-5.78 -6.68,11.95 -42.61,37.89 -45.92,84.19 -2.79,38.43 22.94,126.45 6.82,190.57 -9.33,35.13 -25.32,77.34 -51.15,129.15 51.83,20.25 114.72,40.88 121.67,40.88 10.54,0 5.27,-8.82 29.93,-72.16z"/>
   <path class="fil3" d="M5259.63 356.41c31.19,-5.65 62.14,10.48 65.65,42.18 3.56,31.63 10.02,137.42 20.62,144.4 10.61,7.09 126.73,19.45 142.63,12.37 15.89,-7 35.23,-36.91 49.33,-36.91 14.05,0 42.24,10.48 47.55,26.38 5.27,15.8 3.51,28.13 -12.33,33.47 -15.85,5.2 -12.35,-3.52 -28.19,0 -15.84,3.48 -14.07,5.2 -36.99,14.02 -22.87,8.79 -174.3,52.84 -206.04,29.94 -31.66,-22.83 -70.52,-142.88 -75.69,-190.12 -7.03,-65.18 33.46,-75.73 33.46,-75.73z"/>
   <path class="fil7" d="M5085.65 306.41c14.69,0.96 26.95,-2.12 38.35,-7.34 -17.24,7 -25,12.42 -73.54,6.11 75.13,35.54 202.82,-0.37 245.49,-80.28 4.57,-5.7 6.73,-11.1 3.84,-15.03 -6.71,-9.14 -16.64,-42.43 -1.25,-43.6 7.36,-0.57 13.82,8.18 13.82,8.18l30.12 -27c20.98,4.26 68.41,13.31 88.46,13.84 13.2,-30.29 -9.89,-46.51 -16.17,-46.75 2.52,-13.7 -17.84,-42.36 -37.98,-47.74 -43.07,11.41 -71.58,60.78 -99.36,108.29 -72.28,123.68 -193.01,137.99 -245.42,107.02 7.12,10.29 22.54,22.26 53.64,24.3z"/>
   <path class="fil0" d="M5326.54 398.59c-2.81,-25.41 -20.39,-34.01 -34.25,-40.25 1.53,30.34 17.09,125.6 27.06,152.22 11.53,30.6 25.54,32.91 37.53,35.67l0 -0.06c-4.83,-1.15 -8.27,-2.12 -9.72,-3.18 -10.5,-6.98 -17.09,-112.77 -20.62,-144.4z"/>
  </g>
 </g>
</svg>
