<?xml version="1.0" encoding="UTF-8"?>
<!DOCTYPE svg PUBLIC "-//W3C//DTD SVG 1.1//EN" "http://www.w3.org/Graphics/SVG/1.1/DTD/svg11.dtd">
<!-- Creator: CorelDRAW 2017 -->
<svg xmlns="http://www.w3.org/2000/svg" xml:space="preserve" width="102.51mm" height="16.02mm" version="1.1" style="shape-rendering:geometricPrecision; text-rendering:geometricPrecision; image-rendering:optimizeQuality; fill-rule:evenodd; clip-rule:evenodd"
viewBox="0 0 10251 1602"
 xmlns:xlink="http://www.w3.org/1999/xlink">
 <defs>
  <style type="text/css">
   <![CDATA[
    .fil5 {fill:#FEFEFE;fill-rule:nonzero}
    .fil7 {fill:#FAC141;fill-rule:nonzero}
    .fil1 {fill:#F2A483;fill-rule:nonzero}
    .fil2 {fill:#E8E7E8;fill-rule:nonzero}
    .fil8 {fill:#DC5043;fill-rule:nonzero}
    .fil12 {fill:#E2896A;fill-rule:nonzero}
    .fil9 {fill:#D03D39;fill-rule:nonzero}
    .fil13 {fill:#A33C39;fill-rule:nonzero}
    .fil0 {fill:#7F322F;fill-rule:nonzero}
    .fil11 {fill:#824236;fill-rule:nonzero}
    .fil3 {fill:#ACADAE;fill-rule:nonzero}
    .fil10 {fill:#737473;fill-rule:nonzero}
    .fil4 {fill:#595A5A;fill-rule:nonzero}
    .fil6 {fill:#4A4A4A;fill-rule:nonzero}
    .fil16 {fill:black;fill-rule:nonzero}
    .fil20 {fill:#250700;fill-rule:nonzero}
    .fil15 {fill:#282828;fill-rule:nonzero}
    .fil23 {fill:#300901;fill-rule:nonzero}
    .fil22 {fill:#5E2014;fill-rule:nonzero}
    .fil14 {fill:#D09B0B;fill-rule:nonzero}
    .fil18 {fill:#D8D2CA;fill-rule:nonzero}
    .fil17 {fill:#F4CDBA;fill-rule:nonzero}
    .fil19 {fill:#FFEADC;fill-rule:nonzero}
    .fil21 {fill:white;fill-rule:nonzero}
   ]]>
  </style>
 </defs>
 <g id="Camada_x0020_1">
  <metadata id="CorelCorpID_0Corel-Layer"/>
  <g id="_2301337893376">
   <path class="fil0" d="M915.65 871.7c-54.59,-47.79 -252.46,-143.11 -252.46,-143.11l0 143.11 148.24 61.23 -73.43 181.69 61.95 42.81c0,0 98.93,-133.41 120.89,-169.15 23.63,-38.43 35.95,-80.55 -5.19,-116.58z"/>
   <path class="fil1" d="M1058.67 617.85c-14.13,-3.47 -35.36,-1.72 -51.85,0 -16.49,1.75 -45.82,0.65 -45.82,0.65 0,0 -21.01,28.57 -3.36,41.04 27.68,19.56 53.76,8.06 65.97,1.96 15.12,-7.6 27.49,1.52 26.63,4.16 -0.86,2.68 4.63,17.3 9.89,12.48 9.1,-8.35 20.55,-21.43 21.37,-30.75 0.82,-9.31 -8.69,-26.07 -22.83,-29.54z"/>
   <polygon class="fil2" points="802.68,1135.7 802.49,1135.58 "/>
   <path class="fil2" d="M809.73 1211.74c-8.54,-4.11 -27.34,-19.93 -38.14,-38.33 -10.79,-18.43 12.2,-30.84 12.2,-30.84 0,0 6.02,1.93 12.75,4.14 3.75,-7.29 5.32,-10.17 5.95,-11.13 -2.02,-1.42 -39.61,-27.52 -54.06,-25.5 -13.86,1.93 -39.55,29.67 -51.43,43.29 6.64,7.22 20.55,21.67 36.39,34.56 22.17,18.07 56.48,42.2 71.76,50.26 8.37,4.42 17.9,8.71 24.86,11.72 6.16,-7.19 6.71,-17.74 -2.65,-34.15 -4.86,-0.1 -11.28,-0.96 -17.63,-4.02z"/>
   <path class="fil3" d="M793.05 1153.5c1.35,-2.63 2.48,-4.86 3.49,-6.79 -6.73,-2.21 -12.75,-4.14 -12.75,-4.14 0,0 -22.99,12.41 -12.2,30.84 10.8,18.4 29.6,34.22 38.14,38.33 6.35,3.06 12.77,3.92 17.63,4.02l-2.9 -5c-16.54,-25.52 -40.56,-39.23 -31.41,-57.26z"/>
   <path class="fil3" d="M733.39 1187.93c-15.84,-12.89 -29.75,-27.34 -36.39,-34.56 -3.93,4.5 -6.36,7.47 -6.36,7.47 0,0 65.97,73.48 131.31,95.51 3.22,-1.83 5.93,-3.96 8.06,-6.44 -6.96,-3.01 -16.49,-7.3 -24.86,-11.72 -15.28,-8.06 -49.59,-32.19 -71.76,-50.26z"/>
   <path class="fil4" d="M364.04 1304.63l135.36 -135.35c33.57,35.61 54.61,83.03 56.15,135.35l-191.51 0zm135.36 147.63l-135.36 -135.37 191.51 0c-1.54,52.35 -22.58,99.76 -56.15,135.37zm-144.04 64.81l0 -191.48 135.37 135.34c-35.61,33.57 -83.03,54.6 -135.37,56.14zm-6.2 -412.92l0.06 -0.03 0.09 0.03 -0.15 0zm-6.06 191.81l-135.37 -135.37c35.62,-33.57 83.05,-54.59 135.37,-56.15l0 191.52zm0 221.11c-52.32,-1.54 -99.75,-22.54 -135.37,-56.14l135.37 -135.34 0 191.48zm-200.18 -200.18l191.51 0 -135.36 135.37c-33.58,-35.61 -54.61,-83.02 -56.15,-135.37zm56.15 -147.63l135.36 135.37 -191.51 0c1.54,-52.32 22.57,-99.74 56.15,-135.37zm-56.47 141.6l0 -0.19 0 0.19zm212.76 -206.42c52.34,1.56 99.76,22.58 135.37,56.15l-135.37 135.37 0 -191.52zm-6.14 -37.08c-134.21,0 -243.41,109.18 -243.41,243.41 0,134.21 109.2,243.41 243.41,243.41 134.24,0 243.44,-109.2 243.44,-243.41 0,-134.23 -109.2,-243.41 -243.44,-243.41z"/>
   <polygon class="fil5" points="1093.98,939.29 1252.68,1341.57 1287.8,1320.74 1135.16,933.84 "/>
   <path class="fil3" d="M349.22 1256.35c-30.04,0 -54.4,24.36 -54.4,54.42 0,30.06 24.36,54.42 54.4,54.42 30.06,0 54.42,-24.36 54.42,-54.42 0,-30.06 -24.36,-54.42 -54.42,-54.42z"/>
   <path class="fil6" d="M721.35 1194.04c-3.73,-11.91 -16.55,-18.58 -28.46,-14.81 -11.88,3.74 -18.55,16.53 -14.8,28.44l29.63 94.1c3.75,11.91 16.56,18.57 28.45,14.81 11.91,-3.75 18.57,-16.53 14.83,-28.44l-29.65 -94.1z"/>
   <path class="fil7" d="M727 1289.19l-153.42 -275.31 442.12 -122.47 -288.7 397.78zm-355.42 7.04l167.77 -277.59 154.7 277.59 -322.47 0zm646.9 -470.41l12.68 32.18 -476.72 121.55 -71.26 -127.86 -30.21 11.93 72.62 130.34 -197.49 326.78 404.72 0 11.78 9.22 304.31 -427 14.33 36.33 37.72 -14.26 -44.78 -113.58 -37.7 14.37z"/>
   <path class="fil5" d="M349.22 1281.12c-16.37,0 -29.62,13.28 -29.62,29.65 0,16.37 13.25,29.63 29.62,29.63 16.39,0 29.65,-13.26 29.65,-29.63 0,-16.37 -13.26,-29.65 -29.65,-29.65z"/>
   <path class="fil4" d="M734.36 1360.96c-31.18,0 -56.55,-25.34 -56.55,-56.52 0,-31.18 25.37,-56.55 56.55,-56.55 31.17,0 56.52,25.37 56.52,56.55 0,31.18 -25.35,56.52 -56.52,56.52zm0 -125.31c-37.95,0 -68.81,30.84 -68.81,68.79 0,37.92 30.86,68.78 68.81,68.78 37.93,0 68.78,-30.86 68.78,-68.78 0,-37.95 -30.85,-68.79 -68.78,-68.79z"/>
   <path class="fil4" d="M734.36 1274.5c-16.54,0 -29.93,13.4 -29.93,29.94 0,16.53 13.39,29.94 29.93,29.94 16.53,0 29.93,-13.41 29.93,-29.94 0,-16.54 -13.4,-29.94 -29.93,-29.94z"/>
   <path class="fil4" d="M847.74 1305.6l-96.24 -21.65c-12.18,-2.73 -24.38,4.96 -27.12,17.15 -2.73,12.17 4.99,24.35 17.15,27.12l96.24 21.65c12.18,2.74 24.38,-4.98 27.12,-17.16 2.73,-12.16 -4.99,-24.36 -17.15,-27.11z"/>
   <path class="fil4" d="M1277.71 1304.64l135.37 -135.36c33.57,35.61 54.58,83.03 56.12,135.36l-191.49 0zm135.34 147.62l-135.34 -135.35 191.49 0c-1.54,52.33 -22.57,99.74 -56.15,135.35zm-144.01 64.81l0 -191.48 135.35 135.34c-35.62,33.6 -83.03,54.6 -135.35,56.14zm-6.23 -412.92l0.15 0 -0.15 0zm-6.04 191.83l-135.36 -135.39c35.61,-33.57 83.03,-54.59 135.36,-56.15l0 191.54zm0 221.12c-52.33,-1.57 -99.75,-22.57 -135.36,-56.15l135.36 -135.36 0 191.51zm-200.2 -200.19l191.51 0 -135.34 135.35c-33.59,-35.61 -54.61,-83.02 -56.17,-135.35zm-0.29 -6.04l-0.02 -0.1 0.02 -0.1 0 0.2zm56.44 -141.59l135.36 135.36 -191.51 0c1.56,-52.33 22.58,-99.75 56.15,-135.36zm156.32 -64.84c52.32,1.56 99.73,22.58 135.35,56.17l-135.35 135.35 0 -191.52zm-6.14 -37.08c-134.24,0 -243.42,109.2 -243.42,243.41 0,134.21 109.18,243.41 243.42,243.41 134.21,0 243.41,-109.2 243.41,-243.41 0,-134.21 -109.2,-243.41 -243.41,-243.41z"/>
   <path class="fil3" d="M1262.9 1256.35c-30.06,0 -54.42,24.36 -54.42,54.42 0,30.06 24.36,54.42 54.42,54.42 30.06,0 54.42,-24.36 54.42,-54.42 0,-30.06 -24.36,-54.42 -54.42,-54.42z"/>
   <path class="fil5" d="M1262.9 1281.12c-16.37,0 -29.65,13.28 -29.65,29.65 0,16.37 13.28,29.63 29.65,29.63 16.37,0 29.64,-13.26 29.64,-29.63 0,-16.37 -13.27,-29.65 -29.64,-29.65z"/>
   <path class="fil5" d="M1084.61 920.79c-22.19,8.04 -25.05,9.16 -25.05,9.16 0,0 9.67,25.77 13.88,36.52 9.66,-2 16.06,-4.72 23.71,-4.02 7.28,0.63 10.08,10.45 13.59,19.35 9.05,22.93 34.52,-22.4 34.52,-22.4 0,0 -5.97,-16.87 -11.4,-29.26 -5.41,-12.42 -22.44,-19.04 -49.25,-9.35z"/>
   <path class="fil4" d="M498.92 870.31l-1.5 0.79 -13.04 -29 -38.64 18.41 18 28.5c-3.17,1.69 -4.37,5.67 -2.69,8.82 1.69,3.17 5.64,4.37 8.82,2.68l35.17 -18.7c3.18,-1.67 4.37,-5.65 2.69,-8.8 -1.68,-3.19 -5.64,-4.39 -8.81,-2.7z"/>
   <path class="fil8" d="M507.35 794.6c-37.99,6.13 -116.33,12.49 -171.57,29.89 -13.46,4.23 -13.59,15.88 -11.7,24.26 16.01,-3.31 44.12,-7.39 64.37,-1.02 29.9,9.39 43.8,15.59 62.21,11.3 14.22,-3.32 79.96,-33.59 109.01,-47.16 -9.91,-9.17 -28.02,-21.2 -52.32,-17.27z"/>
   <path class="fil9" d="M559.67 811.87c-29.05,13.57 -94.79,43.84 -109.01,47.16 -18.41,4.29 -32.31,-1.91 -62.21,-11.3 -20.25,-6.37 -48.36,-2.29 -64.37,1.02 1.2,5.28 3.18,9.28 3.18,9.28 0,0 31.05,-2.13 51.98,1.34 13.3,2.19 33.7,10.1 46.85,15.57 7.55,3.15 27.56,-0.69 34.54,-3.65 40.75,-17.22 107.65,-49.97 107.65,-49.97 0,0 -3.03,-4.28 -8.61,-9.45z"/>
   <path class="fil4" d="M1018.48 665.54c0,0 5.61,11.65 0,23.29 -3.41,7.05 -10.1,13.5 -15.85,19.42 -8.94,9.19 -11.08,15.41 -11.08,15.41l0.04 0.04c-7.28,16.22 3.01,41.24 3.01,41.24l3.26 8.33 -4.67 2.1c-3.96,1.79 -5.75,6.48 -3.96,10.44 1.79,3.97 6.49,5.76 10.44,3.97l3.98 -1.78 14.83 37.82 37.7 -14.37 -15.72 -40.01 3.3 -1.5c3.95,-1.76 5.74,-6.47 3.95,-10.42 -1.78,-3.98 -6.47,-5.75 -10.45,-3.98l-2.56 1.17 -4.89 -12.45c-2.08,-5.02 -0.33,-9.93 1.43,-13.8 5.96,-13.02 21.8,-23.45 26.07,-36.52 3.62,-11.15 -0.88,-30.19 -2.32,-37.3 -0.46,-2.4 -36.51,8.9 -36.51,8.9z"/>
   <path class="fil10" d="M1036.54 630.99c-13.02,0 -23.57,10.55 -23.57,23.57 0,13.02 10.55,23.58 23.57,23.58 13.03,0 23.59,-10.56 23.59,-23.58 0,-13.02 -10.56,-23.57 -23.59,-23.57z"/>
   <path class="fil11" d="M561.88 244.06c-18.89,3.38 -44.77,8.33 -52.63,-23.17 -8.61,4.38 -5.41,31.41 7.19,35.05 -12.83,8.33 -26.55,23.44 -25.64,47.74 0.9,24.26 15.73,53.72 43.63,53.74 23.62,0.02 29,-25.64 29,-25.64 0,0 -31.7,14.85 -37.41,-5.67 -3.69,-13.19 4.6,-27.95 39.69,-34.26 35.09,-6.31 55.43,-35.91 55.43,-35.91l-16.07 -18.49c0,0 -24.3,3.2 -43.19,6.61z"/>
   <path class="fil8" d="M633.17 204.32c0,0 -4.06,14.32 -12.03,21.52 -7.99,7.19 -25.87,12.96 -25.87,12.96 0,0 -2.13,25.2 13.9,30.71 11.97,-12.19 24,-20.28 41.53,-26.63 17.52,-6.36 13.69,-38.16 13.69,-38.16l-31.22 -0.4z"/>
   <polygon class="fil12" points="663.19,377.83 727.94,393.52 750.72,299.51 685.99,283.81 "/>
   <path class="fil1" d="M761.47 80.66l-95.54 -4.17c-31.67,-1.36 -21.65,24.2 -23.04,55.86l3.64 73.25c-3.64,69.4 52.21,107.03 86.63,107.03 53.72,0 83.41,-56.77 83.41,-105.83l-0.04 -66.09c1.36,-31.65 -23.4,-58.68 -55.06,-60.05z"/>
   <path class="fil1" d="M629.28 169.58c-11.23,9.24 -15.02,37.81 16.49,49.53 16.41,6.1 18.62,-34.02 18.62,-34.02 0,0 -21.08,-27.03 -35.11,-15.51z"/>
   <path class="fil11" d="M705.45 146.44c-12.28,-0.81 -26.06,6.42 -33.32,16.22 -1.49,2.02 0.42,5.1 2.04,3.71 5.76,-4.99 10.61,-7.83 15.55,-9.94 12.92,-5.5 29.03,0.03 37.91,11.75 2.29,3.01 5.66,0.8 4.02,-2.74 -4.8,-10.3 -14.1,-18.18 -26.2,-19z"/>
   <path class="fil11" d="M777.74 152.71c-7.69,0.47 -18.37,6.8 -19.19,15.42l1.37 0.8c6.06,-4.67 10.83,-8.49 18.78,-9.27 8.29,-0.8 15.31,2.42 21.61,7.57 4.04,3.31 6.37,-0.04 2.75,-4.46 -6.35,-7.77 -14.57,-10.71 -25.32,-10.06z"/>
   <path class="fil11" d="M773.4 58.05c-28.5,-13.45 -64.98,-17.75 -114.35,13.04 -53.1,33.14 -32.4,101.19 -32.4,101.19 0,0 20.18,5.53 48.13,-0.36 45.02,-9.51 98.62,-56.74 98.62,-56.74 0,0 17.44,42.82 43.15,47.7 6.68,-61.2 -11.7,-89.98 -43.15,-104.83z"/>
   <path class="fil11" d="M693.25 193.23c-0.27,0.53 -0.25,3.36 2.45,1.35 10.28,-7.69 20.29,-10.18 29.04,0.77 2.46,3.12 6.55,-1.77 3.92,-4.83 -9.34,-10.84 -27.96,-11.41 -35.41,2.71z"/>
   <path class="fil11" d="M764.8 191.89c-2.06,3.42 1.45,5.11 3.09,3.55 8.58,-8.06 17.48,-9.89 25.64,-1.09 2.76,2.96 4.29,0.27 2.02,-3.14 -6.96,-10.58 -23.91,-10.64 -30.75,0.68z"/>
   <path class="fil5" d="M766.92 264l-46.23 0c0.56,2.54 1.72,5.61 4.28,7.23 3.69,2.36 -1.17,2.74 -5.71,5.93 5.08,5.18 13.14,9.9 25.66,9.87 9.7,-0.02 16.93,-6.12 21.69,-12.03l-1.69 -1.81 -1.2 -3.24c2.13,-1.59 2.91,-3.99 3.2,-5.95z"/>
   <path class="fil11" d="M763.72 269.95l1.2 3.24 1.69 1.81c4.5,-5.58 6.79,-11 6.79,-11l-6.48 0c-0.29,1.96 -1.07,4.36 -3.2,5.95z"/>
   <path class="fil11" d="M720.69 264l-9.43 0c0,0 1.83,6.92 8,13.16 4.54,-3.19 9.4,-3.57 5.71,-5.93 -2.56,-1.62 -3.72,-4.69 -4.28,-7.23z"/>
   <path class="fil8" d="M743.09 255.98c-10.19,0 -31.83,8.02 -31.83,8.02l40.41 0c0,0 -1.76,-8.02 -8.58,-8.02z"/>
   <path class="fil8" d="M751.67 264l21.73 0c0,0 -8.6,-8.02 -13.57,-8.06 -4.96,-0.02 -8.16,8.06 -8.16,8.06z"/>
   <path class="fil8" d="M748.98 282.55c-18.39,1.29 -37.72,-18.55 -37.72,-18.55 0,0 8,29.13 36.18,28.51 22.22,-0.49 25.96,-28.51 25.96,-28.51 0,0 -8.75,17.45 -24.42,18.55z"/>
   <path class="fil12" d="M762.36 230.47c-1.83,2.46 -3.03,5.04 -6.17,6.18 -3.03,1.09 -5.34,0 -8.28,-0.7 -3.03,-0.73 -6.19,3.48 -3.33,5.71 7.72,6.03 22.61,0 20.7,-10.82l-2.92 -0.37z"/>
   <path class="fil12" d="M633.21 190.08c-0.69,12.53 11.57,14.64 11.57,14.64l0 -21.84c0,0 -10.89,-5.34 -11.57,7.2z"/>
   <polygon class="fil2" points="815.12,1221.39 815.35,1221.32 "/>
   <path class="fil2" d="M890.85 1257.64c-3.39,3.5 -8.37,7.61 -14.94,10.19 -8.81,3.48 -33.21,6.5 -54.06,1.92 -20.83,-4.61 -14.33,-29.91 -14.33,-29.91 0,0 5.52,-3.1 11.72,-6.55 -2.8,-7.7 -3.83,-10.78 -4.12,-11.9 -2.4,0.5 -47.1,10.32 -55.45,22.29 -8,11.51 -5.12,49.19 -3.2,67.18 9.82,0.01 29.85,-0.36 50.1,-3.22 28.32,-3.98 69.34,-12.75 85.63,-18.45 8.94,-3.14 18.55,-7.22 25.49,-10.29 -1.09,-9.43 -8.43,-16.98 -26.84,-21.26z"/>
   <path class="fil3" d="M821.85 1240.47c-1.01,-2.76 -1.87,-5.11 -2.61,-7.18 -6.2,3.45 -11.72,6.55 -11.72,6.55 0,0 -6.5,25.3 14.33,29.91 20.85,4.58 45.25,1.56 54.06,-1.92 6.57,-2.58 11.55,-6.69 14.94,-10.19 -1.86,-0.45 -3.56,-0.91 -5.66,-1.29 -29.96,-5.2 -56.34,3.1 -63.34,-15.88z"/>
   <path class="fil3" d="M806.57 1307.64c-20.25,2.86 -40.28,3.23 -50.1,3.22 0.63,5.92 1.15,9.71 1.15,9.71 0,0 98.75,1.56 159.31,-31.38 0.84,-3.63 1.14,-7.05 0.76,-10.29 -6.94,3.07 -16.55,7.15 -25.49,10.29 -16.29,5.7 -57.31,14.47 -85.63,18.45z"/>
   <path class="fil13" d="M653.26 685.29l-144.77 -37.82c0,0 -55.27,43.86 -41.8,130.91 12.92,83.7 137.87,161.75 179.25,219.18 46.64,64.73 108.51,265.06 108.51,265.06l74.08 -25.67c0,0 -42.76,-247.66 -65.58,-310.56 -22.83,-62.9 -109.69,-241.1 -109.69,-241.1z"/>
   <path class="fil5" d="M734.72 371.85c-32.32,-3.22 -59.2,-44.51 -59.2,-44.51 0,0 -63.53,1.43 -113.91,90.09 -30.19,53.12 -47.14,190.87 -84.49,271.71 82.55,73.73 205.83,50.66 205.83,50.66 0,0 -32.95,-114.98 -6.15,-155.82 14.48,-22.02 31.77,-34.45 57.92,-50.42 21.2,-12.96 29.49,-40.75 22.54,-71.95 -6.77,-30.6 -21.12,-67.99 -22.54,-89.76z"/>
   <path class="fil2" d="M663.21 374.35c-31.49,-16.15 -62.83,-11.8 -77.46,55.22 -13.1,60.13 121.05,200.57 182.41,221.56 61.35,20.99 205.76,22.89 205.76,22.89l0 -60.5c0,0 -158.76,-43.32 -186.19,-54.78 -27.41,-11.45 -83.1,-163.11 -124.52,-184.39z"/>
  </g>
  <g id="_2301337863520">
   <path class="fil14" d="M9834.41 995.12c4.29,-14.96 8.09,-30.12 11.36,-45.5 2.1,-10.28 3.99,-20.66 5.6,-31.12 -4.15,26.07 -9.85,51.66 -16.96,76.62z"/>
   <path class="fil15" d="M8725.13 1535.27c144.69,0 261.94,-117.25 261.94,-261.88 0,-144.62 -117.25,-261.87 -261.94,-261.87 -144.55,0 -261.84,117.25 -261.84,261.87 0,144.63 117.29,261.88 261.84,261.88zm0 -562.18c165.86,0 300.39,134.51 300.39,300.3 0,165.87 -134.53,300.28 -300.39,300.28 -165.8,0 -300.23,-134.41 -300.23,-300.28 0,-165.79 134.43,-300.3 300.23,-300.3z"/>
   <polygon class="fil15" points="8725.13,1006.65 8725.13,1267.35 "/>
   <polygon class="fil15" points="8725.13,1279.44 8725.13,1540.11 "/>
   <polygon class="fil15" points="8762.31,1009.23 8725.98,1267.41 "/>
   <polygon class="fil15" points="8724.34,1279.35 8688.16,1537.53 "/>
   <polygon class="fil16" points="8798.69,1016.91 8726.86,1267.5 "/>
   <polygon class="fil15" points="8723.54,1279.18 8651.66,1529.94 "/>
   <polygon class="fil15" points="8833.77,1029.7 8727.63,1267.79 "/>
   <polygon class="fil15" points="8722.7,1278.95 8616.63,1517.06 "/>
   <polygon class="fil15" points="8866.51,1047.2 8728.41,1268.29 "/>
   <polygon class="fil15" points="8721.99,1278.57 8583.89,1499.65 "/>
   <polygon class="fil15" points="8896.65,1069.01 8729.12,1268.73 "/>
   <polygon class="fil15" points="8721.22,1278.01 8553.77,1477.77 "/>
   <polygon class="fil15" points="8923.38,1094.87 8729.66,1269.3 "/>
   <polygon class="fil15" points="8720.63,1277.44 8526.95,1451.87 "/>
   <polygon class="fil15" points="8946.38,1124.13 8730.13,1269.93 "/>
   <polygon class="fil15" points="8720.1,1276.75 8504.1,1422.55 "/>
   <polygon class="fil15" points="8964.97,1156.44 8730.59,1270.71 "/>
   <polygon class="fil15" points="8719.79,1276.06 8485.43,1390.3 "/>
   <polygon class="fil15" points="8978.94,1190.87 8730.91,1271.5 "/>
   <polygon class="fil15" points="8719.39,1275.26 8471.48,1355.8 "/>
   <polygon class="fil15" points="8987.87,1227.04 8731.17,1272.26 "/>
   <polygon class="fil15" points="8719.14,1274.38 8462.49,1319.64 "/>
   <polygon class="fil15" points="8991.78,1264.04 8731.2,1273.14 "/>
   <polygon class="fil15" points="8719.14,1273.6 8458.63,1282.62 "/>
   <polygon class="fil15" points="8990.45,1301.2 8731.17,1274 "/>
   <polygon class="fil15" points="8719.14,1272.76 8459.91,1245.46 "/>
   <polygon class="fil15" points="8984.01,1337.91 8731.17,1274.86 "/>
   <polygon class="fil15" points="8719.33,1271.99 8466.37,1208.83 "/>
   <polygon class="fil15" points="8972.48,1373.29 8730.87,1275.66 "/>
   <polygon class="fil15" points="8719.64,1271.13 8477.91,1173.46 "/>
   <polygon class="fil15" points="8956.26,1406.77 8730.44,1276.46 "/>
   <polygon class="fil15" points="8719.94,1270.31 8494.14,1139.99 "/>
   <polygon class="fil15" points="8935.39,1437.58 8729.92,1277.09 "/>
   <polygon class="fil15" points="8720.4,1269.62 8515.01,1109.16 "/>
   <polygon class="fil15" points="8910.43,1465.23 8729.46,1277.69 "/>
   <polygon class="fil15" points="8720.9,1269.05 8539.8,1081.47 "/>
   <polygon class="fil15" points="8879.32,1491.18 8728.66,1278.41 "/>
   <polygon class="fil15" points="8721.67,1268.44 8571.14,1055.67 "/>
   <polygon class="fil15" points="8837.2,1515.4 8727.71,1278.86 "/>
   <polygon class="fil15" points="8722.64,1267.79 8613.21,1031.27 "/>
   <polygon class="fil15" points="8807.86,1528.89 8729.27,1280.36 "/>
   <polygon class="fil15" points="8725.66,1268.73 8647.07,1020.14 "/>
   <polygon class="fil15" points="8766.42,1536.88 8726.12,1279.35 "/>
   <polygon class="fil15" points="8724.15,1267.41 8684.03,1009.8 "/>
   <path class="fil16" d="M8692.8 1273.39c0,17.79 14.51,32.3 32.33,32.3 17.98,0 32.29,-14.51 32.29,-32.3 0,-17.89 -14.31,-32.34 -32.29,-32.34 -17.82,0 -32.33,14.45 -32.33,32.34z"/>
   <path class="fil16" d="M8725.13 1573.67c-165.8,0 -300.23,-134.41 -300.23,-300.28 0,-137.03 91.78,-252.64 217.17,-288.64l21.88 34.07c-115.15,27.5 -200.66,131.03 -200.66,254.57 0,144.63 117.29,261.88 261.84,261.88 83.68,0 158.12,-39.25 206.05,-100.33l21.77 34.04c-55.04,64.15 -136.67,104.69 -227.82,104.69z"/>
   <path class="fil16" d="M8777.58 835.98c6.67,-5.9 7.4,-16.15 1.67,-22.8 0.23,-0.26 -0.96,-1.05 -2.7,-4.79 -1.79,-3.71 -3.59,-9.18 -3.59,-16.17 0,-5.64 1.05,-12.14 4.55,-20.07 9.13,-20.12 23.79,-27.6 36,-27.67 6.18,0.07 11.83,1.99 16.46,5.77 6.84,5.62 17.14,4.53 22.68,-2.31 5.74,-6.98 4.54,-17.13 -2.29,-22.73 -10.55,-8.54 -23.6,-12.94 -36.85,-12.94 -25.95,-0.09 -52.21,16.69 -65.47,46.9 -5.35,11.89 -7.49,23.11 -7.3,33.05 0.08,25.34 12.78,40.4 14.02,42 3.25,3.73 7.71,5.61 12.24,5.61 3.76,0 7.55,-1.32 10.58,-3.85z"/>
   <path class="fil17" d="M8873.13 674.53c-10.75,4.32 -66.65,23.7 -79.55,30.06 -12.88,6.5 -15.59,13.72 -17.71,37.42 -2.22,23.7 6.97,43 17.71,45.1 10.84,2.07 11.87,1.36 19.38,-7.26 4.4,-5.16 16.17,-45.12 26.85,-47.26 10.8,-2.22 64.43,-22.57 68.75,-29.03 4.33,-6.44 -35.43,-29.03 -35.43,-29.03z"/>
   <path class="fil16" d="M9357.01 638.83c-65.32,18.33 -319.68,142.49 -335.26,199.89 -15.69,57.44 3.23,60.81 35.45,101.02 34.81,43.61 212.77,198.81 212.77,198.81l75.51 -78.64c0,0 -175.21,-162.12 -167.43,-164.72l153.17 -59.76 25.79 -196.6z"/>
   <path class="fil18" d="M9120.64 349.4c-18.04,35.53 -111.37,187.51 -152.7,224.95 -41.4,37.44 -122.53,100.98 -122.53,100.98l43.69 36.31c0,0 144.65,-85.41 166.52,-105.55 21.81,-20.1 114.19,-169.18 114.19,-169.18l-49.17 -87.51z"/>
   <path class="fil17" d="M9131.55 362c-36.5,-18.33 -73.56,-47.13 -73.56,-47.13l37.86 -75.03c0,0 116.6,43.88 129.67,51.71 12.92,7.86 -93.97,70.45 -93.97,70.45z"/>
   <path class="fil19" d="M8931.24 138.39c17.81,-65.57 167.02,-122.04 199.72,-23.81 59.63,178.9 -50.65,223.66 -50.65,223.66 -38.72,5.98 -47.68,12 -77.57,5.98 -14.6,-2.92 -29.78,-20.94 -42.72,-45.71 -12.65,-0.54 -26.37,-2.62 -26.52,-11.56 4.16,-12.83 6.86,-23.3 8.31,-32.3 -12.92,-40.25 -19.06,-85.47 -10.57,-116.26z"/>
   <path class="fil20" d="M9345.48 1027.65c18.29,20.87 49.5,23.55 33.87,54.79 -15.58,31.25 -67.73,75.65 -80.84,88.68 -13.08,13.11 -70.39,54.79 -83.54,23.45 -13.03,-31.3 54.78,-135.61 54.78,-135.61l75.73 -31.31z"/>
   <polygon class="fil16" points="8829.28,873.15 9467.62,876.39 9468.69,841.96 8837.5,841.89 "/>
   <polygon class="fil16" points="9258.37,1265.99 9287.78,1279.56 9526.35,763.55 9497.02,749.92 "/>
   <polygon class="fil16" points="9178.3,1278.24 9201.48,1256 8870.54,851.92 8844.42,867.9 "/>
   <polygon class="fil16" points="8712.99,1260.6 8739.31,1269.76 8872.28,750.69 8845.91,741.53 "/>
   <path class="fil15" d="M9406.03 782.43c0,15.92 -59.21,51.43 -41.15,51.43l217.07 -22.72c18.04,0 32.61,-12.79 32.61,-28.71 0,-15.92 -14.57,-28.89 -32.61,-28.89l-143.22 0c-18.1,0 -32.7,12.97 -32.7,28.89z"/>
   <polygon class="fil16" points="9665.33,1287.87 9687.96,1260.53 9455.45,822.18 9432.94,849.59 "/>
   <path class="fil15" d="M9671.66 1535.27c144.56,0 261.9,-117.25 261.9,-261.88 0,-144.62 -117.34,-261.87 -261.9,-261.87 -144.69,0 -261.96,117.25 -261.96,261.87 0,144.63 117.27,261.88 261.96,261.88zm0 -562.18c165.81,0 300.24,134.51 300.24,300.3 0,165.87 -134.43,300.28 -300.24,300.28 -165.87,0 -300.36,-134.41 -300.36,-300.28 0,-165.79 134.49,-300.3 300.36,-300.3z"/>
   <polygon class="fil15" points="9671.66,1006.65 9671.66,1267.35 "/>
   <polygon class="fil15" points="9671.66,1279.44 9671.66,1540.11 "/>
   <polygon class="fil15" points="9708.68,1009.23 9672.44,1267.41 "/>
   <polygon class="fil15" points="9670.88,1279.35 9634.58,1537.53 "/>
   <polygon class="fil15" points="9745.24,1016.91 9673.3,1267.5 "/>
   <polygon class="fil15" points="9669.96,1279.18 9598.1,1529.94 "/>
   <polygon class="fil15" points="9780.12,1029.7 9674.09,1267.79 "/>
   <polygon class="fil15" points="9669.16,1278.95 9563.12,1517.06 "/>
   <polygon class="fil15" points="9812.97,1047.2 9674.79,1268.29 "/>
   <polygon class="fil15" points="9668.47,1278.57 9530.27,1499.65 "/>
   <polygon class="fil15" points="9843.03,1069.01 9675.52,1268.73 "/>
   <polygon class="fil15" points="9667.68,1278.01 9500.23,1477.77 "/>
   <polygon class="fil15" points="9869.73,1094.87 9676.15,1269.3 "/>
   <polygon class="fil15" points="9666.58,1276.75 9450.5,1422.55 "/>
   <polygon class="fil15" points="9911.4,1156.44 9677.07,1270.71 "/>
   <polygon class="fil15" points="9666.25,1276.06 9431.91,1390.3 "/>
   <polygon class="fil15" points="9925.31,1190.87 9677.39,1271.5 "/>
   <polygon class="fil15" points="9665.87,1275.26 9417.95,1355.8 "/>
   <polygon class="fil15" points="9934.25,1227.04 9677.64,1272.26 "/>
   <polygon class="fil15" points="9665.68,1274.38 9408.93,1319.64 "/>
   <polygon class="fil15" points="9938.15,1264.04 9677.68,1273.14 "/>
   <polygon class="fil15" points="9665.55,1273.6 9405.08,1282.62 "/>
   <polygon class="fil15" points="9936.91,1301.2 9677.64,1274 "/>
   <polygon class="fil15" points="9665.62,1272.76 9406.34,1245.46 "/>
   <polygon class="fil15" points="9930.49,1337.91 9677.55,1274.86 "/>
   <polygon class="fil15" points="9665.68,1271.99 9412.77,1208.83 "/>
   <polygon class="fil15" points="9918.95,1373.29 9677.22,1275.66 "/>
   <polygon class="fil15" points="9665.93,1271.13 9424.3,1173.46 "/>
   <polygon class="fil15" points="9902.56,1406.77 9676.86,1276.46 "/>
   <polygon class="fil15" points="9666.4,1270.31 9440.6,1139.99 "/>
   <polygon class="fil15" points="9881.87,1437.58 9676.38,1277.09 "/>
   <polygon class="fil15" points="9666.9,1269.62 9461.51,1109.16 "/>
   <polygon class="fil15" points="9856.91,1465.23 9675.81,1277.69 "/>
   <polygon class="fil15" points="9667.42,1269.05 9486.34,1081.47 "/>
   <polygon class="fil15" points="9825.7,1491.18 9675.2,1278.41 "/>
   <polygon class="fil15" points="9668.03,1268.44 9517.54,1055.67 "/>
   <polygon class="fil15" points="9783.56,1515.4 9674.17,1278.86 "/>
   <polygon class="fil15" points="9669.16,1267.79 9559.7,1031.27 "/>
   <polygon class="fil15" points="9754.22,1528.89 9675.73,1280.36 "/>
   <polygon class="fil15" points="9672.06,1268.73 9593.61,1020.14 "/>
   <polygon class="fil15" points="9712.92,1536.88 9672.61,1279.35 "/>
   <polygon class="fil15" points="9670.71,1267.41 9630.4,1009.8 "/>
   <path class="fil16" d="M9639.26 1273.39c0,17.79 14.53,32.3 32.4,32.3 17.87,0 32.3,-14.51 32.3,-32.3 0,-17.89 -14.43,-32.34 -32.3,-32.34 -17.87,0 -32.4,14.45 -32.4,32.34z"/>
   <path class="fil16" d="M8813.04 872.48c6.71,-5.9 7.45,-16.2 1.66,-22.83 0.17,-0.25 -1.74,-1.82 -4.11,-7 -2.5,-5.22 -5.01,-12.86 -5.01,-22.49 0,-8.18 1.68,-17.81 7.13,-29.28 6.69,-14.56 24.79,-22.67 44.23,-22.67 10.68,0 21.04,2.68 27.3,6.48 6.37,4.11 7.77,7.15 7.94,10.87 0,1.11 -0.29,2.91 -1.34,5.59l-0.11 0c-3.03,8.21 1.16,17.64 9.45,20.74 8.3,3.22 17.65,-0.92 20.78,-9.22 2.04,-5.41 3.46,-11.25 3.46,-17.11 -1.99,-36.08 -37.42,-49.53 -67.48,-49.7 -27.35,0 -58.64,11.24 -73.24,41.09 -7.51,15.61 -10.41,30.33 -10.26,43.21 0.07,30.82 15.59,49 16.86,50.59 3.13,3.69 7.75,5.64 12.26,5.64 3.64,0 7.42,-1.32 10.48,-3.91z"/>
   <path class="fil16" d="M9306.59 1350.39c-0.09,38.59 -31.32,69.87 -69.87,69.87 -38.62,0 -69.72,-31.28 -69.89,-69.87 0.17,-38.55 31.27,-69.87 69.89,-69.87 38.55,0 69.78,31.32 69.87,69.87zm32.24 0c0,-56.48 -45.67,-102.09 -102.11,-102.09 -56.42,0 -102.11,45.61 -102.11,102.09 0,56.38 45.69,102.21 102.11,102.21 56.44,0 102.11,-45.83 102.11,-102.21z"/>
   <polygon class="fil16" points="9680.13,1294.41 9677.01,1275.34 9319.93,1333.7 9323.13,1352.74 "/>
   <path class="fil16" d="M9071.71 1373.84c0,14.83 11.89,26.77 26.72,26.77l117.42 0c14.64,0 26.66,-11.94 26.66,-26.77 0,-14.72 -12.02,-26.74 -26.66,-26.74l-117.42 0c-14.83,0 -26.72,12.02 -26.72,26.74z"/>
   <path class="fil18" d="M9268.87 1240.61c-10.44,20.83 -14.28,38.03 -19.31,75.25 -5.35,38.79 -19.07,50.68 -62.11,50.06 -46.98,-0.7 -119.47,-0.7 -119.47,-0.7 0,0 -33.38,-22.44 25.67,-56.87 36.33,-21.26 78.51,-53.79 78.51,-53.79l2.71 -30.48 94 16.53z"/>
   <path class="fil15" d="M9534.17 614.67c15.85,38.24 59.07,118.68 4.95,149.99 -83.82,48.26 -270.25,515.7 -270.25,515.7l-108.62 -16.87c0,0 135.49,-515 141.97,-540.72 9.63,-38.8 3.17,-81.63 3.17,-88.76 0,-7.24 228.78,-19.34 228.78,-19.34z"/>
   <path class="fil21" d="M9171.07 270.28c39.11,7.8 217,35.53 376.1,368.55 0,0 -213.69,74.17 -244.95,74.17 -11.72,-43.02 -172.24,-217.2 -176.17,-334.62 -1.82,-54.66 45.02,-108.1 45.02,-108.1z"/>
   <path class="fil17" d="M8967.65 101.26c49.36,-19.4 146.3,-44.3 165.54,13.32 59.59,178.9 -50.7,223.66 -50.7,223.66 -4.47,0.63 -42.01,7.15 -45.81,7.84 36.81,-77.88 -20.09,-216.29 -69.03,-244.82z"/>
   <path class="fil22" d="M9108.64 63.94c-16.86,-15.16 -53.98,-29.82 -101.43,-16.54 -46.04,12.86 -59.45,26.66 -81,66.38 -11.06,20.16 -0.99,54.37 -0.99,54.37 0,0 16.76,-8.37 28.59,-8.37 11.76,0 25.13,-10.38 45.28,6.25 17.06,13.95 26.01,33.08 26.01,33.08 0,0 51.79,4.51 56.8,19.63 5.08,15.23 68.7,44.01 68.7,44.01 0,0 20.07,-69.51 18.87,-106.66 -2.64,-86.71 -56.9,-88.51 -60.83,-92.15z"/>
   <path class="fil17" d="M9052.56 203.83c5.56,-9.1 8.68,-21.92 20.64,-15.6 11.98,6.41 35.36,47.75 21.01,66.55 -14.3,18.77 -41.65,-50.95 -41.65,-50.95z"/>
   <path class="fil23" d="M8998.13 166.1c-20.22,-16.6 -33.52,-6.19 -45.35,-6.19 -11.75,0 -28.52,8.24 -28.52,8.24 0,0 -10.22,-33.94 0.96,-54.33 21.54,-39.7 34.94,-53.5 81.04,-66.38 18.61,-5.18 35.54,-6.11 50.41,-4.37 -19.99,14.06 -55.86,49.95 -23.14,156.71 -14.28,-3.34 -9.46,-0.58 -9.46,-0.58 0,0 -8.91,-19.14 -25.94,-33.1z"/>
   <path class="fil18" d="M9121.67 393.88c-1.13,-33.91 57.7,-35.32 72.45,-59.71 98.35,19.38 237.71,195.02 290.17,325.62 -64.71,21.41 -163.27,55.39 -182.07,55.39 -11.72,-43.04 -176.73,-203.94 -180.55,-321.3z"/>
   <path class="fil19" d="M8905.67 704.42c-10.82,4.24 -66.66,23.64 -79.52,30.04 -12.98,6.44 -19.4,17.22 -21.6,40.83 -2.12,23.63 0,42.96 10.74,45.17 10.86,2.11 22.61,-2.21 30.12,-10.81 4.46,-5.03 16.19,-45.09 26.87,-47.28 10.72,-2.11 64.52,-22.48 68.75,-28.92 4.33,-6.57 -35.36,-29.03 -35.36,-29.03z"/>
   <path class="fil21" d="M9259.37 351.58c15.38,23.7 33.48,34.75 33.48,34.75 -15.6,49.57 -127.42,194.72 -166.48,244.3 -39.14,49.57 -182.56,130.42 -182.56,130.42l-57.54 -58.81c0,0 159.18,-128.96 187.95,-175.88 28.61,-47 66.41,-150.87 86.03,-177.44 36.24,-49.36 79.85,-27.15 99.12,2.66z"/>
   <path class="fil19" d="M9195.75 274.56l-35.46 -9.61c0,0 -24.15,73.54 -40.3,91.81 1.12,23.7 7.03,36.08 7.03,36.08 8.58,-1.16 68.73,-118.28 68.73,-118.28z"/>
   <path class="fil16" d="M9671.66 1573.67c-165.87,0 -300.36,-134.41 -300.36,-300.28 0,-137.03 91.84,-252.64 217.23,-288.64l21.88 34.07c-115.13,27.5 -200.71,131.03 -200.71,254.57 0,144.63 117.27,261.88 261.96,261.88 83.61,0 158.02,-39.25 205.94,-100.33l21.81 34.04c-54.98,64.15 -136.66,104.69 -227.75,104.69z"/>
  </g>
 </g>
</svg>
