<?xml version="1.0" encoding="UTF-8"?>
<!DOCTYPE svg PUBLIC "-//W3C//DTD SVG 1.1//EN" "http://www.w3.org/Graphics/SVG/1.1/DTD/svg11.dtd">
<!-- Creator: CorelDRAW 2017 -->
<svg xmlns="http://www.w3.org/2000/svg" xml:space="preserve" width="102.51mm" height="16.02mm" version="1.1" style="shape-rendering:geometricPrecision; text-rendering:geometricPrecision; image-rendering:optimizeQuality; fill-rule:evenodd; clip-rule:evenodd"
viewBox="0 0 10251 1602"
 xmlns:xlink="http://www.w3.org/1999/xlink">
 <defs>
  <style type="text/css">
   <![CDATA[
    .str0 {stroke:#1B293E;stroke-width:80.23;stroke-miterlimit:10}
    .fil5 {fill:none;fill-rule:nonzero}
    .fil12 {fill:#1B293E;fill-rule:nonzero}
    .fil11 {fill:#3D5472;fill-rule:nonzero}
    .fil1 {fill:#6D837E;fill-rule:nonzero}
    .fil10 {fill:#722D52;fill-rule:nonzero}
    .fil8 {fill:#7C6942;fill-rule:nonzero}
    .fil6 {fill:#82938F;fill-rule:nonzero}
    .fil4 {fill:#B22E70;fill-rule:nonzero}
    .fil7 {fill:#C498F3;fill-rule:nonzero}
    .fil3 {fill:#E27C49;fill-rule:nonzero}
    .fil9 {fill:#EEAC51;fill-rule:nonzero}
    .fil0 {fill:#F1B394;fill-rule:nonzero}
    .fil13 {fill:#FFC066;fill-rule:nonzero}
    .fil2 {fill:white;fill-rule:nonzero}
   ]]>
  </style>
 </defs>
 <g id="Camada_x0020_1">
  <metadata id="CorelCorpID_0Corel-Layer"/>
  <g id="_2301335743232">
   <path class="fil0" d="M2147.1 309.06c0,0 -36.58,6.96 -41.8,22.64 -5.23,15.67 -43.54,-64.44 -43.54,-64.44l29.61 -17.42 55.73 59.22z"/>
   <path class="fil1" d="M1698.32 709.98c0,0 98.59,260.19 93.62,300.98 -4.97,40.79 -60.57,321.99 -60.57,321.99l54.24 0.9c0,0 89.16,-243.76 94.97,-329.22 5.81,-85.46 -31.89,-327.7 -31.89,-327.7l-150.37 33.05z"/>
   <path class="fil2" d="M1807.46 1343.69c0,0 76.87,53.36 93.36,76.65 16.49,23.28 2.81,47.98 2.81,47.98 0,0 -82.31,-25.93 -141.32,-56 -11.26,-5.75 -63.3,-20.99 -67.24,-31.44 -8.26,-21.93 38.29,-69.99 38.29,-69.99l74.1 32.8z"/>
   <g>
    <path class="fil3" d="M1796.47 1449.51c4.46,0 8.66,-2.72 10.34,-7.15l61.12 -161.54c2.16,-5.71 -0.71,-12.09 -6.43,-14.25 -5.7,-2.16 -12.09,0.72 -14.25,6.43l-61.12 161.54c-2.16,5.71 0.71,12.09 6.43,14.25 1.28,0.49 2.6,0.72 3.91,0.72z"/>
    <path class="fil4" d="M1746.96 1433.29l89.55 34.74c6.72,2.6 14.34,-0.76 16.95,-7.48 2.6,-6.72 -0.76,-14.34 -7.48,-16.95l-89.55 -34.73c-6.72,-2.6 -14.34,0.76 -16.95,7.48 -2.6,6.72 0.76,14.34 7.48,16.94z"/>
    <g>
     <path class="fil3" d="M1781.9 1257.75c0,49.76 40.34,90.1 90.1,90.1 49.76,0 90.1,-40.34 90.1,-90.1 0,-49.76 -40.34,-90.1 -90.1,-90.1 -49.76,0 -90.1,40.34 -90.1,90.1z"/>
     <path class="fil4" d="M1799.09 1257.75c0,40.26 32.64,72.9 72.91,72.9 40.26,0 72.9,-32.64 72.9,-72.9 0,-40.27 -32.64,-72.91 -72.9,-72.91 -40.27,0 -72.91,32.64 -72.91,72.91z"/>
    </g>
    <path class="fil4" d="M1720.2 1190.67l67.92 67.92c5.09,5.09 13.43,5.09 18.52,0 5.09,-5.09 5.09,-13.43 0,-18.52l-67.92 -67.92c-5.09,-5.1 -13.43,-5.1 -18.52,0 -5.09,5.09 -5.09,13.43 0,18.52z"/>
   </g>
   <g>
    <path class="fil5 str0" d="M2021.06 1262.52c0,141.43 114.65,256.08 256.08,256.08 141.43,0 256.08,-114.65 256.08,-256.08 0,-141.43 -114.65,-256.08 -256.08,-256.08 -141.43,0 -256.08,114.65 -256.08,256.08z"/>
    <path class="fil4" d="M2250.36 1262.52c0,14.79 11.99,26.78 26.78,26.78 14.79,0 26.78,-11.99 26.78,-26.78 0,-14.79 -11.99,-26.78 -26.78,-26.78 -14.79,0 -26.78,11.99 -26.78,26.78z"/>
   </g>
   <g>
    <path class="fil3" d="M2277.14 1506.01c134.26,0 243.49,-109.23 243.49,-243.49 0,-134.26 -109.23,-243.49 -243.49,-243.49 -134.26,0 -243.49,109.23 -243.49,243.49 0,134.26 109.23,243.49 243.49,243.49zm0 -463.63l0 0c121.38,0 220.14,98.76 220.14,220.14 0,121.38 -98.76,220.13 -220.14,220.13 -121.38,0 -220.14,-98.75 -220.14,-220.13 0,-121.38 98.76,-220.14 220.14,-220.14z"/>
   </g>
   <g>
    <path class="fil5 str0" d="M1215.8 1262.52c0,141.43 114.65,256.08 256.08,256.08 141.43,0 256.08,-114.65 256.08,-256.08 0,-141.43 -114.65,-256.08 -256.08,-256.08 -141.43,0 -256.08,114.65 -256.08,256.08z"/>
    <path class="fil4" d="M1445.1 1262.52c0,14.79 11.99,26.78 26.78,26.78 14.79,0 26.78,-11.99 26.78,-26.78 0,-14.79 -11.99,-26.78 -26.78,-26.78 -14.79,0 -26.78,11.99 -26.78,26.78z"/>
    <g>
     <path class="fil3" d="M1473.35 1506.01c134.26,0 243.5,-109.23 243.5,-243.49 0,-134.26 -109.24,-243.49 -243.5,-243.49 -134.26,0 -243.48,109.23 -243.48,243.49 0,134.26 109.22,243.49 243.48,243.49zm0 -463.63l0 0c121.39,0 220.14,98.76 220.14,220.14 0,121.38 -98.75,220.13 -220.14,220.13 -121.38,0 -220.13,-98.75 -220.13,-220.13 0,-121.38 98.75,-220.14 220.13,-220.14z"/>
    </g>
   </g>
   <path class="fil3" d="M1628.19 900.26c0.15,0 0.3,-0.01 0.44,-0.02l560.47 -21.92c11.98,0.33 101.64,2.63 121.8,-0.85 43.06,-7.42 72.86,-72.41 76.11,-79.79 2.47,-5.59 -0.06,-12.11 -5.65,-14.58 -5.59,-2.47 -12.11,0.07 -14.58,5.65 -7.54,17.06 -32.97,62.33 -59.64,66.93 -15.42,2.65 -90.26,1.28 -117.8,0.53 -0.24,-0.01 -0.49,-0.01 -0.73,0l-560.84 21.94c-6.11,0.24 -10.85,5.38 -10.62,11.48 0.24,5.96 5.14,10.62 11.04,10.63z"/>
   <path class="fil6" d="M1847.04 648.84c0,0 207.29,213.54 200.26,246.05 -7.03,32.5 -223.7,240.58 -223.7,240.58l-40.23 -41.93c0,0 130.43,-161.75 139.42,-194.43 14.32,-52.12 -222.93,-136.69 -247.61,-207.31 -24.68,-70.62 -0.36,-87.13 -0.36,-87.13l172.22 44.17z"/>
   <g>
    <path class="fil3" d="M2279.53 1271.87c0.83,0 1.68,-0.1 2.53,-0.29 5.94,-1.4 9.64,-7.34 8.24,-13.29l-90.62 -391.65c-1.39,-5.95 -7.33,-9.63 -13.28,-8.25 -5.95,1.39 -9.64,7.34 -8.25,13.28l90.62 391.66c1.2,5.09 5.74,8.54 10.76,8.54z"/>
    <path class="fil3" d="M1842.13 1274.61c1.87,0 3.78,-0.48 5.52,-1.49 5.28,-3.06 7.09,-9.82 4.04,-15.1l-242.71 -419.61c-3.06,-5.29 -9.82,-7.1 -15.11,-4.03 -5.29,3.06 -7.09,9.82 -4.04,15.1l242.71 419.6c2.05,3.55 5.77,5.53 9.59,5.53z"/>
    <path class="fil4" d="M1702.25 815.15c-4.12,-28.79 -28.8,-24.68 -98.73,-20.57 -69.93,4.12 -62.17,-28.72 -115.18,-20.57 -53.48,8.23 -61.71,57.6 8.22,86.39 36.09,14.86 209.8,-16.45 205.69,-45.25z"/>
    <path class="fil3" d="M1469.82 1275.29c0.04,0 0.09,0 0.13,0l403.15 -4.8c3.02,-0.04 5.9,-1.31 7.96,-3.52l321.56 -345.56c4.16,-4.46 3.9,-11.46 -0.57,-15.62 -4.46,-4.16 -11.46,-3.91 -15.62,0.56l-318.33 342.09 -381.52 4.54 151.81 -359.48c2.37,-5.63 -0.26,-12.11 -5.89,-14.49 -5.62,-2.36 -12.11,0.26 -14.49,5.89l-158.38 375.03c-1.44,3.44 -1.06,7.38 1.01,10.47 2.06,3.06 5.5,4.89 9.18,4.89z"/>
   </g>
   <path class="fil2" d="M1833.21 1152.33c0,0 49.98,79.12 56.09,106.99 6.1,27.87 -16.12,45.29 -16.12,45.29 0,0 -65.69,-55.98 -108.3,-106.68 -8.13,-9.68 -50.11,-44 -49.66,-55.17 0.94,-23.41 62.55,-49.52 62.55,-49.52l55.44 59.09z"/>
   <g>
    <path class="fil0" d="M2163.11 128.67c43.99,0 65.38,42.81 67.54,97.37l20.73 46.32 -21.43 4.29c-7.49,39.98 -7.35,48.82 -22.36,51.82 -45.58,9.12 -149.17,-58.74 -149.17,-117.69 0,-58.95 58.21,-82.11 104.69,-82.11z"/>
   </g>
   <path class="fil7" d="M2053.63 257.54c0,0 -131.9,27.44 -245.86,154.06 -113.96,126.63 -132.95,193.07 -132.95,193.07l172.22 44.17c0,0 46.2,-110.61 125.34,-142.27 79.14,-31.65 128.58,-135.55 131.9,-164.61 3.33,-29.06 -50.65,-84.42 -50.65,-84.42z"/>
   <path class="fil0" d="M2267.73 798.7l-38.07 21.24c0,0 -2.04,21.95 10.3,40.46 5.21,7.82 9.48,18.43 26.08,22.12 22.7,5.05 79.72,7.31 81.5,-8.73 3.09,-27.77 -79.81,-75.09 -79.81,-75.09 0,0 -77.29,-165.93 -102.25,-238.31 -31.65,-91.81 -77.06,-231.02 -117.12,-221.6 -53.82,12.67 -2.78,129.79 50.65,250.09 53.42,120.29 136.12,237.42 136.12,237.42l32.6 -27.6z"/>
   <path class="fil8" d="M2228.69 157.67c0,0 -89.08,119.11 -184.51,134.36 -233.24,37.27 -258.57,-64.03 -258.57,-64.03 0,0 169.72,-32.54 255.36,-109.74 48.24,-43.49 187.83,-46.43 187.72,39.41z"/>
  </g>
  <g id="_2301335736128">
   <polygon class="fil9" points="6748.32,804.3 6926.99,1049.2 6986.14,1356.88 7047.29,1361.49 7016.99,993.92 6873.34,724.22 "/>
   <path class="fil2" d="M7058.56 1341.19c0,0 87.36,22.62 110.05,38.19 22.69,15.56 18.56,42.47 18.56,42.47 0,0 -83.13,4.02 -146.55,-3.5 -12.1,-1.44 -64.27,2.14 -71.32,-6.01 -14.79,-17.07 11.28,-76.09 11.28,-76.09l77.98 4.94z"/>
   <g>
    <path class="fil4" d="M7044.18 1472.22c4.3,0 8.36,-2.63 9.97,-6.9l58.94 -155.77c2.09,-5.51 -0.69,-11.66 -6.2,-13.74 -5.49,-2.09 -11.65,0.69 -13.74,6.2l-58.94 155.77c-2.08,5.51 0.69,11.66 6.2,13.74 1.24,0.47 2.52,0.7 3.77,0.7z"/>
    <path class="fil4" d="M6996.44 1456.58l86.36 33.49c6.47,2.51 13.82,-0.73 16.34,-7.21 2.51,-6.47 -0.74,-13.83 -7.21,-16.34l-86.36 -33.49c-6.47,-2.51 -13.83,0.73 -16.34,7.21 -2.51,6.48 0.73,13.83 7.21,16.34z"/>
    <g>
     <path class="fil4" d="M7030.13 1287.3c0,47.98 38.9,86.88 86.89,86.88 47.98,0 86.88,-38.9 86.88,-86.88 0,-47.98 -38.9,-86.88 -86.88,-86.88 -47.99,0 -86.89,38.9 -86.89,86.88z"/>
     <path class="fil10" d="M7046.71 1287.3c0,38.83 31.48,70.3 70.31,70.3 38.82,0 70.3,-31.47 70.3,-70.3 0,-38.83 -31.48,-70.3 -70.3,-70.3 -38.83,0 -70.31,31.47 -70.31,70.3z"/>
    </g>
    <path class="fil4" d="M7043.24 1237.48l84.68 37.51c6.35,2.82 13.85,-0.08 16.67,-6.43 2.81,-6.35 -0.09,-13.85 -6.44,-16.66l-84.68 -37.52c-6.35,-2.81 -13.85,0.08 -16.66,6.43 -2.82,6.35 0.08,13.85 6.43,16.67z"/>
   </g>
   <g>
    <path class="fil5 str0" d="M7260.76 1291.9c0,136.38 110.55,246.94 246.93,246.94 136.38,0 246.94,-110.56 246.94,-246.94 0,-136.38 -110.56,-246.93 -246.94,-246.93 -136.38,0 -246.93,110.55 -246.93,246.93z"/>
    <path class="fil4" d="M7481.87 1291.9c0,14.26 11.56,25.82 25.82,25.82 14.26,0 25.83,-11.56 25.83,-25.82 0,-14.26 -11.57,-25.82 -25.83,-25.82 -14.26,0 -25.82,11.56 -25.82,25.82z"/>
   </g>
   <g>
    <path class="fil4" d="M7507.69 1526.7c129.47,0 234.8,-105.34 234.8,-234.8 0,-129.47 -105.33,-234.79 -234.8,-234.79 -129.46,0 -234.79,105.32 -234.79,234.79 0,129.46 105.33,234.8 234.79,234.8zm0 -447.07l0 0c117.05,0 212.28,95.23 212.28,212.27 0,117.05 -95.23,212.28 -212.28,212.28 -117.05,0 -212.28,-95.23 -212.28,-212.28 0,-117.04 95.23,-212.27 212.28,-212.27z"/>
   </g>
   <g>
    <path class="fil5 str0" d="M6484.25 1291.9c0,136.38 110.55,246.94 246.93,246.94 136.38,0 246.94,-110.56 246.94,-246.94 0,-136.38 -110.56,-246.93 -246.94,-246.93 -136.38,0 -246.93,110.55 -246.93,246.93z"/>
    <path class="fil4" d="M6705.36 1291.9c0,14.26 11.56,25.82 25.82,25.82 14.27,0 25.83,-11.56 25.83,-25.82 0,-14.26 -11.56,-25.82 -25.83,-25.82 -14.26,0 -25.82,11.56 -25.82,25.82z"/>
    <g>
     <path class="fil4" d="M6732.61 1526.7c129.46,0 234.79,-105.34 234.79,-234.8 0,-129.47 -105.33,-234.79 -234.79,-234.79 -129.47,0 -234.8,105.32 -234.8,234.79 0,129.46 105.33,234.8 234.8,234.8zm0 -447.07l0 0c117.05,0 212.27,95.23 212.27,212.27 0,117.05 -95.22,212.28 -212.27,212.28 -117.05,0 -212.28,-95.23 -212.28,-212.28 0,-117.04 95.23,-212.27 212.28,-212.27z"/>
    </g>
   </g>
   <g>
    <path class="fil4" d="M7510 1300.91c0.8,0 1.62,-0.09 2.43,-0.28 5.74,-1.34 9.3,-7.07 7.96,-12.81l-162.69 -607.63c-1.34,-5.73 -7.07,-9.28 -12.81,-7.95 -5.73,1.34 -9.29,7.07 -7.95,12.81l162.69 607.63c1.15,4.92 5.53,8.23 10.37,8.23z"/>
    <path class="fil4" d="M7088.21 1303.56c1.81,0 3.65,-0.46 5.33,-1.43 5.09,-2.96 6.84,-9.47 3.89,-14.57l-234.04 -404.62c-2.95,-5.1 -9.47,-6.85 -14.57,-3.89 -5.1,2.95 -6.84,9.47 -3.9,14.56l234.05 404.62c1.98,3.42 5.56,5.33 9.24,5.33z"/>
    <path class="fil10" d="M6953.33 860.51c-3.97,-27.77 -27.77,-23.8 -95.21,-19.84 -67.43,3.97 -59.95,-27.7 -111.07,-19.83 -51.57,7.93 -59.5,55.53 7.93,83.3 34.8,14.33 202.31,-15.87 198.35,-43.63z"/>
    <path class="fil4" d="M6872.93 942.23c0.65,0 1.32,-0.05 1.98,-0.18l510.8 -93.62c5.95,-1.09 9.88,-6.78 8.79,-12.73 -1.08,-5.93 -6.77,-9.9 -12.73,-8.78l-510.8 93.62c-5.94,1.08 -9.87,6.78 -8.78,12.73 0.96,5.27 5.56,8.96 10.74,8.96z"/>
    <path class="fil4" d="M6729.2 1304.22c0.04,0 0.08,-0.01 0.12,-0.01l388.76 -4.62c2.91,-0.04 5.69,-1.26 7.67,-3.4l302.09 -323.92c4.01,-4.31 3.77,-11.06 -0.54,-15.07 -4.31,-4.01 -11.06,-3.77 -15.07,0.54l-298.97 320.58 -367.9 4.38 146.38 -346.64c2.29,-5.43 -0.24,-11.68 -5.67,-13.97 -5.42,-2.28 -11.68,0.25 -13.97,5.67l-152.72 361.65c-1.4,3.31 -1.03,7.1 0.97,10.09 1.98,2.95 5.3,4.72 8.85,4.72z"/>
   </g>
   <g>
    <path class="fil0" d="M7048.65 127.56c40.09,6.8 52.96,49.13 46.49,99.19l11.72 45.42 -20.19 0.59c-6.64,28.78 -14.25,43.36 -28.39,43.77 -42.96,1.26 -126.87,-76.61 -117.74,-130.34 9.12,-53.72 65.75,-65.82 108.11,-58.63z"/>
   </g>
   <path class="fil11" d="M6936.03 316.7c0,0 -88.4,35.49 -126.17,195.37 -37.77,159.87 -65.12,201.47 -65.12,201.47l179.08 -8.14c0,0 25.05,-68.86 77.33,-132.28 52.29,-63.42 21.15,-184.24 10.51,-210.36 -10.64,-26.12 -75.63,-46.06 -75.63,-46.06z"/>
   <path class="fil0" d="M7026.36 295.22c0,0 -24.28,48.49 -14.49,65.13 9.79,16.63 -77.88,-39.58 -77.88,-39.58l22.83 -79.25 69.54 53.7z"/>
   <path class="fil12" d="M6932.94 90.12c45.49,-38.24 176.55,-13.12 163.32,64.3 0,0 -124.64,150.04 -164.3,97.16 -48.84,-65.12 -42.98,-124.51 0.98,-161.46z"/>
   <path class="fil0" d="M6983.83 219.71c-3.62,21.32 22.07,51.77 34.39,53.86 12.32,2.09 6.61,-24.97 10.23,-46.29 3.62,-21.31 7.37,-24.89 -3.28,-31.95 -20.64,-13.66 -37.72,3.07 -41.34,24.38z"/>
   <path class="fil2" d="M6996.32 245.84c-0.76,4.44 2.23,8.66 6.67,9.41 4.45,0.75 8.66,-2.24 9.41,-6.68 0.75,-4.44 -2.23,-8.65 -6.67,-9.4 -4.45,-0.76 -8.66,2.23 -9.41,6.67z"/>
   <path class="fil0" d="M6940.1 392c42.74,-18.32 107.86,166.87 148.56,193.33 40.7,26.46 199.44,38.67 199.44,38.67l-2.04 42.73c0,0 -207.57,-2.03 -242.17,-26.45 -34.6,-24.42 -169.68,-220.04 -103.79,-248.28z"/>
   <polygon class="fil0" points="7253.5,626.03 7336.94,615.86 7369.5,658.59 7324.73,689.12 7281.99,662.66 "/>
   <path class="fil4" d="M7290.13 685.05c0,12.36 10.02,22.38 22.39,22.38 12.36,0 22.38,-10.02 22.38,-22.38 0,-12.36 -10.02,-22.39 -22.38,-22.39 -12.37,0 -22.39,10.03 -22.39,22.39z"/>
   <path class="fil13" d="M6921.78 703.36c0,0 241.98,90.29 248.51,115.12 6.54,24.83 -79.84,326.55 -79.84,326.55l-66.56 -26.53c0,0 48.36,-216.79 38.87,-237.18 -9.48,-20.39 -253.98,-12.15 -305.79,-62.35 -51.8,-50.2 8.12,-136.98 8.12,-136.98l156.69 21.37z"/>
   <path class="fil2" d="M7092.27 1147.63c0,0 77.28,46.59 94.59,67.97 17.31,21.39 5.68,46.01 5.68,46.01 0,0 -80.82,-19.85 -139.46,-45.14 -11.2,-4.83 -62.22,-16.27 -66.66,-26.09 -9.3,-20.59 32.51,-69.72 32.51,-69.72l73.34 26.97z"/>
   <path class="fil12" d="M6940.21 111.1c0,0 23.17,-73.38 -44.42,-79.17 -67.59,-5.8 -15.45,102.34 15.45,90.76 30.9,-11.59 30.9,-11.59 30.9,-11.59l-1.93 0z"/>
   <path class="fil11" d="M7021.5 475.44l-77.33 40.7c0,0 -54.95,-109.89 -18.31,-132.28 36.63,-22.39 95.64,91.58 95.64,91.58z"/>
   <path class="fil4" d="M7564.86 825.47l-179.15 22.96 50.95 190.72 70.99 -7.1c29.24,-2.93 51.77,-27.08 52.66,-56.46l4.55 -150.12z"/>
  </g>
 </g>
</svg>
