<?xml version="1.0" encoding="UTF-8"?>
<!DOCTYPE svg PUBLIC "-//W3C//DTD SVG 1.1//EN" "http://www.w3.org/Graphics/SVG/1.1/DTD/svg11.dtd">
<!-- Creator: CorelDRAW 2017 -->
<svg xmlns="http://www.w3.org/2000/svg" xml:space="preserve" width="102.51mm" height="16.02mm" version="1.1" style="shape-rendering:geometricPrecision; text-rendering:geometricPrecision; image-rendering:optimizeQuality; fill-rule:evenodd; clip-rule:evenodd"
viewBox="0 0 10251 1602"
 xmlns:xlink="http://www.w3.org/1999/xlink">
 <defs>
  <style type="text/css">
   <![CDATA[
    .str0 {stroke:#F5875B;stroke-width:6;stroke-linecap:round;stroke-miterlimit:10}
    .str2 {stroke:#4B4B4F;stroke-width:7.96;stroke-linecap:round;stroke-linejoin:round;stroke-miterlimit:10}
    .str3 {stroke:#F05E70;stroke-width:15.93;stroke-linecap:round;stroke-linejoin:round;stroke-miterlimit:10}
    .str5 {stroke:#BFA09C;stroke-width:5.97;stroke-linecap:round;stroke-linejoin:round;stroke-miterlimit:10}
    .str4 {stroke:#F16876;stroke-width:5.97;stroke-linecap:round;stroke-linejoin:round;stroke-miterlimit:10}
    .str1 {stroke:#26303E;stroke-width:6;stroke-linecap:round;stroke-linejoin:round;stroke-miterlimit:10}
    .fil7 {fill:none;fill-rule:nonzero}
    .fil16 {fill:#FEFEFE;fill-rule:nonzero}
    .fil0 {fill:#FBC3A1;fill-rule:nonzero}
    .fil8 {fill:#FAB995;fill-rule:nonzero}
    .fil4 {fill:#F9A87C;fill-rule:nonzero}
    .fil11 {fill:#F8A577;fill-rule:nonzero}
    .fil3 {fill:#F79E76;fill-rule:nonzero}
    .fil14 {fill:#F58E64;fill-rule:nonzero}
    .fil6 {fill:#F5875B;fill-rule:nonzero}
    .fil10 {fill:#F37F88;fill-rule:nonzero}
    .fil17 {fill:#F2767F;fill-rule:nonzero}
    .fil15 {fill:#F16876;fill-rule:nonzero}
    .fil20 {fill:#F05E70;fill-rule:nonzero}
    .fil24 {fill:#F6E7DF;fill-rule:nonzero}
    .fil23 {fill:#D6BCB8;fill-rule:nonzero}
    .fil22 {fill:#9F7C71;fill-rule:nonzero}
    .fil21 {fill:#936E65;fill-rule:nonzero}
    .fil13 {fill:#57585B;fill-rule:nonzero}
    .fil12 {fill:#4B4B4F;fill-rule:nonzero}
    .fil2 {fill:#2A3238;fill-rule:nonzero}
    .fil9 {fill:#282F34;fill-rule:nonzero}
    .fil18 {fill:#222326;fill-rule:nonzero}
    .fil5 {fill:#27394A;fill-rule:nonzero}
    .fil1 {fill:#26303E;fill-rule:nonzero}
    .fil19 {fill:#262937;fill-rule:nonzero}
   ]]>
  </style>
 </defs>
 <g id="Camada_x0020_1">
  <metadata id="CorelCorpID_0Corel-Layer"/>
  <g id="_2301343879904">
   <polygon class="fil0" points="9519.89,1355.19 9569.26,1414.01 9512.98,1451.23 9464.77,1393.16 "/>
   <polygon class="fil0" points="8980.08,1451.16 8955.38,1523.88 8894.37,1495.06 8919.02,1423.72 "/>
   <path class="fil1" d="M9138.06 841.03l36.52 198.69c7.31,39.77 21.36,78 41.56,113.03l240.33 265.52 95.59 -56.45 -221.31 -305.97 -59.6 -352.38 -133.09 137.56z"/>
   <path class="fil2" d="M9564.97 1396.63c-3.79,-2.1 -8.55,-0.02 -9.45,4.22 -1.77,8.29 -6.87,20.86 -21.35,31.09 -15.03,10.64 -26.36,7.82 -32.67,4.29 -3.33,-1.85 -7.5,-0.71 -9.18,2.71l-53.67 109.64c-3.25,6.66 -3.73,14.35 -1.32,21.36l0 0c2.26,6.59 10.5,8.75 15.71,4.11l143.83 -127.95c5.67,-5.03 5.95,-13.78 0.62,-19.17l-26.14 -26.46c-0.43,-0.44 -0.92,-0.81 -1.46,-1.11l-4.92 -2.73z"/>
   <path class="fil0" d="M9468.87 828.46c-0.81,27.74 21.03,50.89 48.78,51.69 27.74,0.8 50.88,-21.04 51.69,-48.78 0.8,-27.74 -21.04,-50.89 -48.79,-51.69 -27.73,-0.8 -50.88,21.04 -51.68,48.78z"/>
   <polygon class="fil0" points="9470.57,842.95 9431.35,734.47 9481.89,716.22 9516.99,806.74 "/>
   <path class="fil0" d="M8922.4 735.01c-26.62,7.86 -41.83,35.8 -33.97,62.42 7.86,26.62 35.81,41.83 62.42,33.98 26.63,-7.86 41.84,-35.81 33.97,-62.43 -7.85,-26.62 -35.8,-41.83 -62.42,-33.97z"/>
   <polygon class="fil0" points="8909.17,741.13 9000.09,670.13 9033.13,712.5 8958,774 "/>
   <polygon class="fil3" points="9007.47,764.28 9190.96,568.47 9117.85,499.97 8934.36,695.77 "/>
   <path class="fil4" d="M9092.94 628.3l207.69 0 0 -289.37c0,-44.93 -36.42,-81.36 -81.36,-81.36l-4.87 0c-67.08,0 -121.46,54.37 -121.46,121.45l0 249.28z"/>
   <path class="fil5" d="M9092.94 628.3l-198.57 810.54 101.03 38.19 126.53 -410.8 144.1 -268.78c6.93,-11.99 13.73,-24.57 19.48,-37.55 10.91,-24.58 15.83,-51.4 15.6,-78.3l-0.48 -53.3 -207.69 0z"/>
   <path class="fil2" d="M8968.02 1511.2c-0.18,-4.33 -4.43,-7.32 -8.52,-5.9 -8,2.79 -21.4,4.95 -37.65,-2.12 -16.89,-7.34 -20.35,-18.49 -20.62,-25.73 -0.12,-3.8 -3.26,-6.77 -7.06,-6.43l-121.59 10.97c-7.39,0.66 -14.2,4.24 -18.94,9.94l0 0c-4.47,5.36 -2.04,13.52 4.62,15.57l183.99 56.63c7.24,2.23 14.87,-2.06 16.72,-9.42l9.07 -36.06c0.14,-0.6 0.21,-1.21 0.19,-1.83l-0.21 -5.62z"/>
   <path class="fil4" d="M9432.56 789.49l94.15 -34.29 -83.54 -269.74 -158.72 -195.76c-15.84,-22.69 -47.07,-28.24 -69.75,-12.41l0 0c-22.69,15.83 -28.24,47.06 -12.42,69.75l151.24 185.01 79.04 257.44z"/>
   <path class="fil6" d="M9215.1 263.99c-0.95,3.23 -2.2,7.88 -4.1,10.82 -1.79,3.22 -4.09,5.48 -6.58,7.4 -5.04,3.62 -12.65,5.96 -21.26,6.9 -3.64,0.25 -7.46,0.35 -11.02,-0.41 -1.6,-0.33 -3.76,-0.87 -5.71,-1.39 -1.88,-0.52 -3.48,-1.17 -4.85,-1.75 -2.74,-1.2 -4.38,-2.08 -6.08,-4.22 -1.76,-2.11 -3.12,-5.85 -4.07,-10.5l-0.18 -0.84c-1.06,-5.19 -6.11,-8.52 -11.29,-7.47 -3.26,0.67 -5.82,2.97 -6.98,5.83 -2.44,6.09 -3.47,13.55 -1.55,21.7 1.81,8.22 7.84,15.93 14.28,20.48 3.23,2.31 6.57,4.02 9.77,5.45 3.14,1.38 6.16,2.53 9.87,3.37 7.07,1.6 14.27,2.22 21.44,1.24 6.62,-1.03 13.09,-2.26 19.63,-5.24 6.48,-2.85 13.02,-6.98 18.15,-12.86 5.22,-5.77 8.68,-13.09 10.11,-20.27 1.31,-7.44 1.11,-13.87 -1.23,-21.43 -1.5,-4.8 -6.61,-7.49 -11.41,-5.99 -2.98,0.94 -5.15,3.26 -6,6.05l-0.94 3.13z"/>
   <path class="fil0" d="M9175.18 302.08l6.67 0c22.11,0 40.02,-17.92 40.02,-40.02l0 -146.91 -79.67 0 0 153.96c0,18.21 14.77,32.97 32.98,32.97z"/>
   <line class="fil7 str0" x1="9300.63" y1="467.36" x2="9251.84" y2= "411.95" />
   <path class="fil7 str0" d="M9388.22 505.3c0,0 -14.62,0 -22.53,23.58"/>
   <line class="fil7 str1" x1="9133.51" y1="694.16" x2="9087.99" y2= "745.43" />
   <line class="fil7 str1" x1="9003.72" y1="1439.62" x2="8904.74" y2= "1407.81" />
   <line class="fil7 str1" x1="9298.11" y1="647.67" x2="9091.48" y2= "647.67" />
   <polyline class="fil7 str1" points="9211.28,647.67 9038.32,1058.67 8954.23,1418.27 "/>
   <path class="fil8" d="M9175.5 203.7c0,0 4.7,40.54 -33.3,53.49l0 -26.97 33.3 -26.52z"/>
   <path class="fil0" d="M9082.84 115.15c0,47.82 38.76,86.59 86.59,86.59 47.82,0 86.59,-38.77 86.59,-86.59 0,-47.82 -38.77,-86.59 -86.59,-86.59 -47.83,0 -86.59,38.77 -86.59,86.59z"/>
   <path class="fil0" d="M9139.3 237.8l0 0c22.7,0 41.11,-18.4 41.11,-41.1l0 -82.92 -97.57 0 0 67.57c0,31.18 25.28,56.45 56.46,56.45z"/>
   <path class="fil0" d="M9085.36 134.49l-18.9 27.87c-2.69,4.53 0.79,10.12 6.31,10.12l21.92 4.14 -9.33 -42.13z"/>
   <path class="fil9" d="M9160.92 152.83c0,0 -28.12,-27.33 -12.04,-71.56 0,0 -34.69,3.97 -57.82,-2.98 13.85,-29.39 43.73,-49.73 78.37,-49.73 47.82,0 86.59,38.77 86.59,86.59 0,39.13 -25.95,72.18 -61.57,82.91l-33.53 -45.23z"/>
   <path class="fil0" d="M9156.13 152.65c0,13.14 10.65,23.79 23.79,23.79 13.14,0 23.8,-10.65 23.8,-23.79 0,-13.14 -10.66,-23.8 -23.8,-23.8 -13.14,0 -23.79,10.66 -23.79,23.8z"/>
   <path class="fil9" d="M9223.92 166.18l-2.05 41.27c0,0 -44.7,10.05 -44.7,-31.01l26.55 4.83 20.2 -15.09z"/>
  </g>
  <path class="fil10" d="M848.17 308.46c0.2,0 0.4,-0.01 0.6,-0.05 1.57,-0.34 2.59,-1.87 2.26,-3.44l-30 -145.48c-0.32,-1.57 -1.84,-2.57 -3.45,-2.26 -1.57,0.33 -2.58,1.87 -2.26,3.44l30 145.47c0.28,1.38 1.51,2.32 2.85,2.32z"/>
  <polygon class="fil11" points="452.25,1329.14 403.59,1387.11 459.05,1423.81 506.57,1366.56 "/>
  <polygon class="fil11" points="765.8,1448.99 767.62,1524.65 833.49,1515.53 831.31,1441.16 "/>
  <path class="fil12" d="M828.56 822.4l-35.99 195.82c-7.2,39.21 -21.05,76.89 -40.97,111.41l-236.85 261.69 -94.21 -55.64 226.08 -301.56 58.54 -347.29 123.4 135.57z"/>
  <path class="fil2" d="M407.82 1369.99c3.72,-2.07 8.43,-0.02 9.32,4.15 1.74,8.18 6.77,20.57 21.03,30.66 14.82,10.47 25.98,7.7 32.21,4.22 3.27,-1.83 7.38,-0.7 9.04,2.67l52.89 108.06c3.21,6.57 3.68,14.14 1.3,21.05l0 0c-2.23,6.49 -10.35,8.62 -15.49,4.06l-141.75 -126.11c-5.57,-4.97 -5.85,-13.59 -0.61,-18.9l25.76 -26.07c0.43,-0.43 0.91,-0.8 1.45,-1.1l4.85 -2.69z"/>
  <path class="fil13" d="M843.53 633.54l44.83 403.98 -33.83 418.4 -105.49 6.32 8.99 -414.59 -84.83 -197.41c-3.99,-13.05 -40,-77.9 -42.65,-91.64 -5.02,-26.03 -3.8,-52.88 2.39,-78.65l12.27 -51.08 198.32 4.67z"/>
  <path class="fil2" d="M759.47 1509.02c1.44,-4.03 6.31,-5.59 9.74,-3.05 6.71,4.99 18.67,10.96 36.05,9.09 18.04,-1.93 24.58,-11.38 26.95,-18.11 1.25,-3.54 5.08,-5.42 8.54,-3.98l111.13 46.12c6.75,2.8 12.11,8.18 14.89,14.93l0 0c2.62,6.35 -2.08,13.32 -8.94,13.29l-189.72 -0.93c-7.47,-0.03 -13.38,-6.32 -12.95,-13.78l2.09 -36.58c0.03,-0.61 0.16,-1.21 0.36,-1.78l1.86 -5.22z"/>
  <path class="fil11" d="M843.53 633.54l-198.32 -4.67 7.77 -269.65c0,-44.29 28.13,-95.74 72.42,-95.74l4.8 0c66.11,0 119.7,53.6 119.7,119.71l-6.37 250.35z"/>
  <path class="fil0" d="M768.86 307.36l-6.58 0c-21.8,0 -39.46,-17.66 -39.46,-39.44l0 -144.79 78.53 0 0 151.73c0,17.95 -14.55,32.5 -32.49,32.5z"/>
  <path class="fil0" d="M859.85 123.13c0,47.13 -38.2,85.34 -85.33,85.34 -47.13,0 -85.35,-38.21 -85.35,-85.34 0,-47.13 38.22,-85.34 85.35,-85.34 47.13,0 85.33,38.21 85.33,85.34z"/>
  <path class="fil0" d="M804.22 244.02l0 0c-22.38,0 -40.53,-18.14 -40.53,-40.53l0 -81.72 96.16 0 0 66.6c0,30.73 -24.9,55.65 -55.63,55.65z"/>
  <path class="fil0" d="M857.38 142.2l18.63 27.45c2.64,4.47 -0.79,9.98 -6.23,9.98l-21.61 4.08 9.21 -41.51z"/>
  <path class="fil9" d="M782.9 160.26c0,0 27.71,-26.94 11.87,-70.52 0,0 34.19,3.9 56.98,-2.94 -13.64,-28.96 -43.09,-49.01 -77.23,-49.01 -47.13,0 -85.35,38.21 -85.35,85.34 0,38.27 25.2,70.66 59.92,81.48l0.77 0.23 33.04 -44.58z"/>
  <path class="fil9" d="M720.81 173.42l-7.63 36.97c0,0 44.98,11.94 53.71,-26.86l-26.16 4.76 -19.92 -14.87z"/>
  <polygon class="fil9" points="797.56,182.9 787.63,182.9 787.63,128.03 797.56,128.03 "/>
  <path class="fil9" d="M859.85 181.5c0,0 -37.52,-13.06 -72.22,1.4l-11.39 49.41c0,0 11.3,17.28 42.61,10.48 35.87,-7.8 42.77,-44.75 41,-61.29z"/>
  <path class="fil9" d="M776.24 232.31c0,0 -13.17,-24.84 5.76,-64.66l10.59 -31.02 4.97 59.99 -21.32 35.69z"/>
  <path class="fil0" d="M787.63 160.07c0,12.96 -10.5,23.46 -23.45,23.46 -12.95,0 -23.45,-10.5 -23.45,-23.46 0,-12.94 10.5,-23.44 23.45,-23.44 12.95,0 23.45,10.5 23.45,23.44z"/>
  <path class="fil11" d="M710.96 265.42c0.03,-0.01 2.22,-26.2 2.22,-26.2l103.72 43.41 1.28 46.05 -83.91 -18.77 -23.31 -44.49z"/>
  <path class="fil10" d="M992.22 877.19c26.03,0 54.5,-16.19 85,-48.42 47.94,-50.65 66.47,-90.3 55.02,-117.86 -14.33,-34.56 -69.78,-36.4 -72.14,-36.46 -0.02,0 -0.04,0 -0.07,0 -1.58,0 -2.87,1.26 -2.92,2.84 -0.03,1.61 1.24,2.95 2.84,3 0.54,0.01 54.04,1.8 66.91,32.86 10.47,25.24 -7.66,62.79 -53.87,111.61 -40.72,43.05 -77.11,56.29 -108.19,39.44 -76.98,-41.82 -104.37,-266.78 -77.28,-378.73 13.31,-55.01 8.42,-95.42 1.98,-119.62 -4.88,-18.31 -14.9,-35.66 -29.79,-51.56 -52.51,-56.09 -84.66,-154.12 -84.98,-155.11 -0.51,-1.52 -2.12,-2.34 -3.69,-1.87 -1.51,0.49 -2.35,2.15 -1.86,3.67 0.32,1 32.87,100.24 86.27,157.29 14.23,15.2 23.8,31.71 28.42,49.07 6.27,23.55 11.02,62.94 -2.01,116.77 -27.54,113.76 -1.45,340.88 80.16,385.22 9.65,5.23 19.73,7.86 30.2,7.86z"/>
  <path class="fil1" d="M1089.86 704.39l-136.24 56.17c-2.19,0.9 -4.69,-0.14 -5.6,-2.34l-22.29 -54.07c-0.91,-2.19 0.14,-4.7 2.33,-5.6l136.22 -56.16c2.19,-0.9 4.7,0.14 5.6,2.33l22.3 54.07c0.9,2.19 -0.14,4.7 -2.32,5.6z"/>
  <path class="fil0" d="M710.6 430.03l78.14 165.91 1.47 3.12c3.19,6.77 8.49,11.91 14.72,14.99l196.21 96.83 25.62 -46.12 -185.9 -115.41 16.18 18.1 -62.91 -172.27 -83.53 34.85z"/>
  <path class="fil0" d="M1041.88 656.64c21.58,15.42 26.56,45.43 11.13,67 -15.42,21.58 -45.42,26.56 -67,11.14 -21.57,-15.43 -26.56,-45.43 -11.13,-67.01 15.43,-21.58 45.42,-26.56 67,-11.13z"/>
  <path class="fil14" d="M706.53 474.46l-26.8 -111.63c-8.08,-28.25 8.65,-59.47 37.39,-69.74l0 0c28.74,-10.27 56.15,5.66 66.7,32.55l52.06 102.48 -129.35 46.34z"/>
  <line class="fil7 str2" x1="838.45" y1="659.49" x2="647.27" y2= "653.45" />
  <polyline class="fil7 str2" points="742.86,659.49 815.26,1045.55 801.35,1425.24 "/>
  <line class="fil7 str2" x1="851.9" y1="1425.24" x2="752.69" y2= "1425.24" />
  <g id="_2301343866400">
   <path class="fil0" d="M5812.9 696.14c-16.32,17.36 -43.62,18.19 -60.98,1.87 -17.35,-16.33 -18.18,-43.62 -1.87,-60.98 16.33,-17.35 43.62,-18.18 60.97,-1.87 17.35,16.32 18.2,43.63 1.88,60.98z"/>
   <polygon class="fil0" points="5806.82,685.24 5896.39,643.05 5876.72,601.34 5800.53,635.1 "/>
   <path class="fil15" d="M5828.89 691.63l150.59 -54.06c8.2,-2.94 15.04,-8.75 19.27,-16.37l109.96 -198.19 -62.8 -34.84 -103.41 186.37 -137.87 49.5 24.26 67.59z"/>
   <path class="fil9" d="M5722.97 551.47l121.79 65.25c3.29,1.76 4.62,5.78 3.05,9.16l-28.78 61.69c-1.73,3.69 -6.22,5.15 -9.79,3.17l-119.83 -66.65c-3.18,-1.77 -4.48,-5.67 -3,-8.99l26.83 -60.29c1.66,-3.73 6.13,-5.26 9.73,-3.34z"/>
   <path class="fil16" d="M5726.32 568.55l98.67 50.13c2.3,1.18 3.33,3.92 2.35,6.33l-18.95 46.62c-1.12,2.78 -4.43,3.94 -7.05,2.48l-98.98 -55.2c-2.28,-1.27 -3.19,-4.09 -2.09,-6.46l19.26 -41.56c1.19,-2.56 4.28,-3.63 6.79,-2.34z"/>
   <path class="fil17" d="M5941.07 531.71c0,0 -36.55,-27.51 -37.4,-45.84 -0.85,-18.35 32.76,-75.79 32.76,-75.79l49.75 -92.53 -45.11 214.16z"/>
   <path class="fil18" d="M6063.95 227.7c0,0 9.93,52.99 53.28,52.99 101.22,0 130.25,96.94 54.19,148.19 -76.05,51.26 -177.33,-4.44 -167.78,-98.68 9.56,-94.22 9.56,-115.89 9.56,-115.89l50.75 13.39z"/>
   <path class="fil7 str3" d="M6078.83 255.77c0,0 -6.97,18 -32.77,16.38"/>
   <polygon class="fil17" points="6024.13,324.16 6104.69,390.19 6090.63,660.39 5933.79,655.53 5949.03,416.36 "/>
   <path class="fil0" d="M5935.55 887.24l122.38 242.74 278.98 314.77 49.35 -3.19c0,0 -97.66,-240.88 -230.02,-343.37l-90.07 -264 -130.62 53.05z"/>
   <path class="fil17" d="M6380.98 1418.45c-2.1,-3.5 -6.66,-4.22 -9.09,-1.38 -4.75,5.57 -13.03,7.93 -28.48,8.75 -16.04,0.86 -24.52,-2.01 -28.01,-7.85 -1.83,-3.09 -5.55,-4.25 -8.23,-2.42l-86.42 58.71c-5.25,3.58 -8.75,9.31 -9.72,15.94l0 0c-0.92,6.23 4.62,11.96 10.57,10.93l164.11 -28.58c6.47,-1.13 10.25,-7.78 8.28,-14.58l-9.6 -33.4c-0.15,-0.55 -0.39,-1.08 -0.69,-1.58l-2.72 -4.54z"/>
   <path class="fil0" d="M5956.27 810.06l-100.94 275.04 -70.95 367.34 51.71 5.63c0,0 123.36,-250.57 102.15,-347.32l167.24 -223.02 -149.21 -77.67z"/>
   <path class="fil17" d="M5845.62 1454.92c0.14,-4.07 -3.29,-7.17 -6.88,-6.09 -7.01,2.1 -15.25,-0.43 -28.66,-8.12 -13.93,-8 -19.51,-15.01 -19.26,-21.81 0.15,-3.59 -2.34,-6.59 -5.6,-6.52l-104.45 2.36c-6.35,0.15 -12.4,3.06 -16.82,8.1l0 0c-4.15,4.74 -2.61,12.56 2.94,14.92l153.32 65.16c6.03,2.56 12.82,-0.97 14.87,-7.75l10.08 -33.25c0.16,-0.55 0.26,-1.13 0.28,-1.72l0.18 -5.28z"/>
   <path class="fil18" d="M5901.83 177.18c0,47.17 68.32,93.29 106.46,93.29 38.14,0 31.65,-29.18 31.65,-76.35 0,-47.17 -30.92,-85.4 -69.06,-85.4 -38.14,0 -69.05,21.29 -69.05,68.46z"/>
   <path class="fil0" d="M6003.53 354.36l0 0c20.13,0 42.53,3.18 42.53,-16.95l0 -133.78 -72.57 0 0 140.2c0,16.59 13.45,10.53 30.04,10.53z"/>
   <path class="fil0" d="M5919.43 203.63c0,43.54 35.3,78.85 78.87,78.85 43.54,0 78.84,-35.31 78.84,-78.85 0,-43.56 -35.3,-78.87 -78.84,-78.87 -43.57,0 -78.87,35.31 -78.87,78.87z"/>
   <path class="fil0" d="M5970.85 307.91l0 0c20.68,0 37.44,-16.76 37.44,-37.44l0 -53.96 -88.86 -12.88 0 52.86c0,28.4 23.03,51.42 51.42,51.42z"/>
   <path class="fil0" d="M5921.72 221.24l-17.21 25.38c-2.44,4.13 0.73,9.22 5.74,9.22l19.98 3.77 -8.51 -38.37z"/>
   <path class="fil0" d="M5986.18 237.77c0,11.97 9.7,21.67 21.66,21.67 11.97,0 21.68,-9.7 21.68,-21.67 0,-11.97 -9.71,-21.67 -21.68,-21.67 -11.96,0 -21.66,9.7 -21.66,21.67z"/>
   <path class="fil19" d="M5941.07 162.61c0,47.16 45.42,109.54 92.58,109.54 47.18,0 71.04,-38.24 71.04,-85.42 0,-47.16 -38.23,-85.4 -85.4,-85.4 -47.17,0 -78.22,14.11 -78.22,61.28z"/>
   <polygon class="fil0" points="6039.94,350.48 5964.88,392.63 5978.92,331.34 "/>
   <path class="fil5" d="M5933.79 655.53l-103.24 350.32c0,0 291.67,137.05 448.44,-13.54l-188.36 -331.92 -156.84 -4.86z"/>
   <path class="fil0" d="M6126.32 843.02c1.37,23.78 -16.8,44.17 -40.58,45.55 -23.79,1.36 -44.18,-16.81 -45.54,-40.58 -1.38,-23.79 16.79,-44.19 40.57,-45.55 23.78,-1.38 44.18,16.79 45.55,40.58z"/>
   <polygon class="fil0" points="6114.24,839.94 6145.21,745.9 6101.41,731.49 6073.51,810.01 "/>
   <path class="fil17" d="M6131.07 820.91l75.71 -198.86c3.49,-9.16 3.09,-19.34 -1.12,-28.19l-87.47 -189.69c-8.51,-17.92 -29.93,-25.54 -47.85,-17.03l0 0c-17.91,8.51 -25.53,29.93 -17.03,47.85l80.9 175.84 -70.27 184.52 67.13 25.56z"/>
   <path class="fil20" d="M6045.95 338.27l-84.95 47.4 11.77 7.99 2.03 -47.38c0.09,-2.12 -1.55,-3.92 -3.68,-4.02 -1.9,-0.08 -3.53,1.23 -3.93,3.02l-10.21 46.31c-0.91,4.13 1.69,8.21 5.82,9.11 1.89,0.42 3.78,0.1 5.34,-0.78l0.62 -0.34 84.95 -47.4c3.84,-2.15 5.22,-7 3.08,-10.84 -2.15,-3.84 -7,-5.21 -10.84,-3.07z"/>
   <line class="fil7 str4" x1="6097" y1="529.96" x2="6065.3" y2= "461.04" />
   <path class="fil7 str4" d="M6168.95 614.57c0,0 -8.46,-7.45 -23.74,0"/>
   <path class="fil8" d="M5973.49 307.81c0,0 15.81,-2.22 30.5,-19.92 0,0 -1.59,25.04 -30.5,43.45l0 -23.53z"/>
  </g>
  <g id="_2301193770832">
   <path class="fil0" d="M3174.94 778.15c23.83,12.33 33.14,41.63 20.81,65.45 -12.33,23.82 -41.64,33.13 -65.45,20.8 -23.82,-12.33 -33.14,-41.63 -20.8,-65.45 12.33,-23.82 41.63,-33.13 65.44,-20.8z"/>
   <polygon class="fil0" points="3165.02,788.09 3091.76,704.07 3052.64,738.23 3112.66,810.33 "/>
   <path class="fil2" d="M2620.86 1459.25c1.22,-3.29 5.05,-4.45 7.62,-2.24 5.04,4.31 12.54,-1.56 26.03,-2.61 14.01,-1.08 20.94,2.44 22.98,-3.06 1.06,-2.9 4.08,-4.34 6.72,-3.05l96.08 44.31c5.15,2.51 9.12,7.11 11.08,12.78l0 0c1.82,5.34 -2.01,10.96 -7.32,10.74l-158.23 -9.14c-5.78,-0.25 -10.15,-5.63 -9.61,-11.78l2.72 -30.22c0.04,-0.5 0.16,-0.99 0.33,-1.47l1.6 -4.26z"/>
   <polygon class="fil21" points="2799.74,773.49 2775.58,1049.51 2614.25,1462.51 2703.99,1463.84 2887.67,1116.15 2943.26,893.99 "/>
   <path class="fil2" d="M3123.51 1478.13c0.23,-3.52 3.55,-5.87 6.63,-4.61 6.04,2.48 9.74,-4.31 22.31,-9.68 13.07,-5.58 22.45,-5.72 22.83,-11.61 0.21,-3.1 2.69,-5.45 5.56,-5.08l92.41 11.9c5.61,0.73 10.72,3.81 14.18,8.58l0 0c3.27,4.47 1.2,11.07 -3.92,12.58l-141.74 41.73c-5.58,1.64 -11.29,-2.05 -12.51,-8.08l-5.97 -29.65c-0.1,-0.49 -0.13,-0.99 -0.1,-1.5l0.32 -4.58z"/>
   <path class="fil22" d="M2996.3 761.56l120.47 304.42 79.23 388.02 -77.88 27.97 -116.29 -380.01c0,0 -238.71,-243.89 -224.52,-356.71l218.99 16.31z"/>
   <path class="fil0" d="M2917.25 339.93l-6.21 -2.1c-20.57,-6.93 -31.62,-29.23 -24.68,-49.81l46.11 -136.68 74.13 25.02 -48.32 143.24c-5.71,16.94 -24.09,26.05 -41.03,20.33z"/>
   <path class="fil8" d="M2946.2 258.65c0,0 -20.6,35.58 14.46,53.59l8.33 -24.82 -22.79 -28.77z"/>
   <path class="fil0" d="M3061.84 194.98c-15.01,44.5 -63.25,68.4 -107.75,53.39 -44.49,-15.01 -68.4,-63.25 -53.38,-107.74 15,-44.49 63.24,-68.4 107.73,-53.39 44.51,15.01 68.41,63.25 53.4,107.74z"/>
   <path class="fil0" d="M2970.81 291.39l0 0c-21.13,-7.13 -32.47,-30.03 -25.35,-51.15l26.03 -77.16 90.78 30.63 -21.22 62.87c-9.78,29.01 -41.23,44.59 -70.24,34.81z"/>
   <path class="fil0" d="M3053.42 212.19l8.85 31.86c1.07,5.07 -3.93,9.16 -9.05,7.44l-21.7 -3.03 21.9 -36.27z"/>
   <path class="fil23" d="M2882.88 242.65l105.93 83.38 -17.99 39.98c0,0 9.99,293.82 75.96,437.73l-300.17 13.99c0,0 -30.07,-388.25 136.27,-575.08z"/>
   <path class="fil24" d="M2878.13 348.36c0,0 49.02,-15.48 83.42,56.08 34.41,71.55 48.24,177.04 196.44,353.59l-80.85 20.4c0,0 -166.46,-90.01 -217.01,-236.45 -50.54,-146.45 -13.21,-195.61 18,-193.62z"/>
   <path class="fil24" d="M2981.88 206.87c0,0 34.52,-30.6 20.7,-43.28 -13.82,-12.68 -63.72,-43.55 -101.87,-22.96 0,0 -21.52,24.02 5.23,89.34l46.34 -8.43 29.6 -14.67z"/>
   <path class="fil0" d="M2981.88 206.87c-4.12,12.23 -17.37,18.79 -29.6,14.67 -12.24,-4.13 -18.8,-17.38 -14.68,-29.61 4.13,-12.22 17.39,-18.8 29.61,-14.67 12.23,4.13 18.79,17.38 14.67,29.61z"/>
   <line class="fil7 str5" x1="2954.59" y1="346.95" x2="2884.33" y2= "301.06" />
  </g>
 </g>
</svg>
