<?xml version="1.0" encoding="UTF-8"?>
<!DOCTYPE svg PUBLIC "-//W3C//DTD SVG 1.1//EN" "http://www.w3.org/Graphics/SVG/1.1/DTD/svg11.dtd">
<!-- Creator: CorelDRAW 2017 -->
<svg xmlns="http://www.w3.org/2000/svg" xml:space="preserve" width="102.51mm" height="16.02mm" version="1.1" style="shape-rendering:geometricPrecision; text-rendering:geometricPrecision; image-rendering:optimizeQuality; fill-rule:evenodd; clip-rule:evenodd"
viewBox="0 0 10251 1602"
 xmlns:xlink="http://www.w3.org/1999/xlink">
 <defs>
  <style type="text/css">
   <![CDATA[
    .str0 {stroke:#F5875B;stroke-width:5.84;stroke-linecap:round;stroke-miterlimit:10}
    .fil21 {fill:none;fill-rule:nonzero}
    .fil14 {fill:#FEFEFE;fill-rule:nonzero}
    .fil1 {fill:#FEF1EB;fill-rule:nonzero}
    .fil24 {fill:#FEE3C5;fill-rule:nonzero}
    .fil22 {fill:#FBC3AD;fill-rule:nonzero}
    .fil0 {fill:#FBC3A1;fill-rule:nonzero}
    .fil6 {fill:#FAB995;fill-rule:nonzero}
    .fil26 {fill:#FAB593;fill-rule:nonzero}
    .fil28 {fill:#FAB072;fill-rule:nonzero}
    .fil16 {fill:#F9A87C;fill-rule:nonzero}
    .fil23 {fill:#F79665;fill-rule:nonzero}
    .fil19 {fill:#F48587;fill-rule:nonzero}
    .fil20 {fill:#F37876;fill-rule:nonzero}
    .fil4 {fill:#F6E7DF;fill-rule:nonzero}
    .fil29 {fill:#E99A86;fill-rule:nonzero}
    .fil30 {fill:#B0745D;fill-rule:nonzero}
    .fil15 {fill:#7E533D;fill-rule:nonzero}
    .fil18 {fill:#7F533F;fill-rule:nonzero}
    .fil17 {fill:#704737;fill-rule:nonzero}
    .fil11 {fill:#858DC5;fill-rule:nonzero}
    .fil5 {fill:#3F3E3F;fill-rule:nonzero}
    .fil27 {fill:#3E3F3F;fill-rule:nonzero}
    .fil10 {fill:#6675B7;fill-rule:nonzero}
    .fil25 {fill:#323333;fill-rule:nonzero}
    .fil12 {fill:#5F6DA2;fill-rule:nonzero}
    .fil2 {fill:#2F3131;fill-rule:nonzero}
    .fil3 {fill:#2A3238;fill-rule:nonzero}
    .fil7 {fill:#282F34;fill-rule:nonzero}
    .fil13 {fill:#48538A;fill-rule:nonzero}
    .fil9 {fill:#255D98;fill-rule:nonzero}
    .fil8 {fill:#26303E;fill-rule:nonzero}
   ]]>
  </style>
 </defs>
 <g id="Camada_x0020_1">
  <metadata id="CorelCorpID_0Corel-Layer"/>
  <g id="_2301339327952">
   <polygon class="fil0" points="719.89,362 794.08,602.21 797.92,614.65 807.09,620.89 997.27,750.27 1029.43,706.27 848.39,564.37 861.41,583.04 797.99,339.77 "/>
   <path class="fil0" d="M1031.41 706.47c20.71,17.95 22.96,49.29 5.02,70 -17.95,20.72 -49.28,22.97 -70.01,5.02 -20.71,-17.95 -22.95,-49.29 -5.01,-69.99 17.95,-20.73 49.29,-22.97 70,-5.03z"/>
   <path class="fil1" d="M734.09 506.63l-21.48 -145.33c-5.92,-26.67 10.9,-53.09 37.57,-59.02l0 0c26.66,-5.92 53.09,10.89 59.01,37.56l40.61 115.85 -115.71 50.94z"/>
   <polygon class="fil0" points="381.51,1333.47 330.31,1389.41 384.24,1428.53 434.27,1373.28 "/>
   <polygon class="fil0" points="901.87,1458.51 923.15,1531.3 984.56,1505.46 963.26,1434.03 "/>
   <path class="fil2" d="M771.9 849.88l-44.45 194.47c-8.9,38.93 -24.4,76.05 -45.81,109.75l-248.36 251.75 -91.91 -59.76 231.32 -292.45 73.75 -345.11 125.46 141.35z"/>
   <path class="fil3" d="M335.27 1372.44c3.82,-1.91 8.44,0.35 9.16,4.57 1.39,8.26 5.88,20.88 19.73,31.58 14.38,11.14 25.67,8.83 32.05,5.62 3.36,-1.69 7.43,-0.39 8.94,3.06l48.29 110.45c2.94,6.7 3.08,14.3 0.4,21.12l0 0c-2.52,6.4 -10.74,8.18 -15.68,3.39l-136.46 -132.33c-5.37,-5.21 -5.28,-13.85 0.2,-18.94l26.91 -24.99c0.45,-0.42 0.95,-0.77 1.49,-1.04l4.97 -2.49z"/>
   <path class="fil4" d="M824.44 665.28l-204.9 -8.82 13.28 -308.82c1.91,-44.33 39.39,-78.72 83.73,-76.81l4.8 0.21c66.18,2.84 94.18,57.79 91.33,123.96l11.76 270.28z"/>
   <path class="fil5" d="M824.44 665.28l169.39 800.68 -101.29 33.39 -114.29 -426.61 -130.75 -271.28c-6.33,-12.12 -12.5,-24.81 -17.63,-37.87 -9.72,-24.71 -13.43,-51.38 -12.05,-77.91l1.72 -29.22 204.9 8.82z"/>
   <path class="fil3" d="M911.22 1518.25c0.35,-4.26 4.68,-7.04 8.64,-5.46 7.79,3.1 20.91,5.79 37.25,-0.5 16.96,-6.52 20.87,-17.36 21.42,-24.49 0.3,-3.75 3.52,-6.55 7.25,-6.05l119.48 15.98c7.25,0.96 13.83,4.79 18.27,10.61l0 0c4.17,5.48 1.43,13.43 -5.23,15.16l-183.92 48.06c-7.23,1.89 -14.58,-2.68 -16.08,-10l-7.43 -35.96c-0.11,-0.59 -0.15,-1.2 -0.1,-1.81l0.45 -5.54z"/>
   <polygon class="fil0" points="640.45,322.07 493.64,526.16 486.05,536.73 486.6,547.8 498.16,777.53 552.66,776.62 556.6,546.64 549.55,568.28 705.29,370.94 "/>
   <path class="fil0" d="M553.68 778.33c-1.8,27.35 -25.44,48.05 -52.79,46.23 -27.35,-1.8 -48.04,-25.45 -46.23,-52.79 1.8,-27.35 25.45,-48.05 52.8,-46.23 27.34,1.8 48.04,25.45 46.22,52.79z"/>
   <path class="fil1" d="M533.67 420.64l102.95 -104.81c17.68,-20.81 48.91,-23.34 69.72,-5.65l0 0c20.82,17.69 23.35,48.91 5.66,69.73l-67.88 102.28 -110.45 -61.55z"/>
   <path class="fil0" d="M750.37 316.29l-6.58 -0.29c-21.81,-0.93 -38.73,-19.37 -37.79,-41.18l6.23 -144.93 78.6 3.38 -6.53 151.88c-0.76,17.97 -15.96,31.91 -33.93,31.14z"/>
   <path class="fil6" d="M754.23 219.21c0,0 -6.35,39.8 30.59,54.18l1.13 -26.6 -31.72 -27.58z"/>
   <path class="fil0" d="M849.4 135.78c-2.03,47.19 -41.93,83.79 -89.1,81.76 -47.18,-2.03 -83.78,-41.92 -81.76,-89.1 2.03,-47.18 41.92,-83.78 89.11,-81.76 47.18,2.04 83.78,41.93 81.75,89.1z"/>
   <path class="fil0" d="M788.5 254.4l0 0c-22.4,-0.97 -39.78,-19.91 -38.82,-42.31l3.52 -81.8 96.26 4.14 -2.87 66.67c-1.32,30.76 -27.33,54.62 -58.09,53.3z"/>
   <path class="fil0" d="M846.09 154.76l17.47 28.3c2.46,4.58 -1.22,9.95 -6.65,9.71l-21.81 3.16 10.99 -41.17z"/>
   <path class="fil7" d="M770.78 169.64c0,0 28.23,-10.21 14.23,-54.51 0,0 39.55,6.24 62.33,-2.07 -8.34,-36.64 -40.33,-64.68 -79.69,-66.38 -47.19,-2.02 -87.08,34.58 -89.11,81.76 -1.64,38.24 22.09,71.69 56.26,84.07l0.98 0.33 35 -43.2z"/>
   <path class="fil0" d="M775.51 169.66c-0.56,12.97 -11.52,23.02 -24.48,22.47 -12.97,-0.56 -23.03,-11.52 -22.47,-24.48 0.56,-12.97 11.52,-23.03 24.49,-22.47 12.96,0.56 23.01,11.52 22.46,24.48z"/>
   <path class="fil7" d="M708.05 180.14l0.26 40.8c0,0 43.68,11.82 45.43,-28.7l-26.4 3.64 -19.29 -15.74z"/>
   <polygon class="fil4" points="671.94,282.09 705.01,250.8 784.82,273.39 782.9,317.69 725.68,340.47 "/>
   <polygon class="fil8" points="827.29,678.8 618.97,669.83 619.54,656.46 824.44,665.28 "/>
   <path class="fil7" d="M785.01 115.13c0,0 86.48,21.72 93.68,-31.22 5.76,-42.27 -32.13,-62.19 -62.19,-42.47 -20.15,13.22 -27.72,8.5 -42.02,5.83l10.53 67.86z"/>
  </g>
  <g id="_2301339321552">
   <polygon class="fil9" points="6829.8,197.63 6997.44,178.03 7016.75,159.96 7010.95,145.57 6963.09,133.22 6855.12,134.22 6805.13,152.32 6796.24,163.45 "/>
   <path class="fil3" d="M7266.65 1512.56c-1.2,-3.33 -5.25,-4.6 -8.08,-2.49 -5.56,4.17 -15.45,9.17 -29.85,7.69 -14.97,-1.53 -20.43,-9.35 -22.42,-14.91 -1.05,-2.94 -4.23,-4.47 -7.1,-3.27l-91.96 38.68c-5.57,2.35 -9.99,6.82 -12.29,12.43l0 0c-2.13,5.28 1.78,11.04 7.48,10.98l157.29 -1.51c6.18,-0.06 11.06,-5.3 10.68,-11.48l-1.88 -30.33c-0.03,-0.5 -0.14,-0.99 -0.3,-1.47l-1.57 -4.32z"/>
   <polygon class="fil10" points="7097.2,859.86 7114.17,1121.15 7268.52,1518.35 7182.39,1523.91 7008.4,1200.7 6939.95,960.2 "/>
   <path class="fil3" d="M6727.81 1515.42c-0.14,-3.53 -3.62,-5.98 -6.95,-4.82 -6.55,2.28 -17.5,4.05 -30.78,-1.73 -13.79,-6.01 -16.63,-15.1 -16.83,-21.01 -0.12,-3.12 -2.68,-5.55 -5.78,-5.27l-99.35 8.96c-6.03,0.55 -11.6,3.47 -15.48,8.13l0 0c-3.65,4.37 -1.66,11.04 3.78,12.72l150.34 46.28c5.92,1.82 12.15,-1.7 13.66,-7.71l7.41 -29.46c0.12,-0.48 0.18,-0.98 0.15,-1.49l-0.17 -4.6z"/>
   <path class="fil0" d="M6984.36 334.55l6.11 -2.46c20.23,-8.15 30.01,-31.16 21.86,-51.39l-54.19 -134.42 -72.91 29.4 56.79 140.86c6.72,16.66 25.68,24.73 42.34,18.01z"/>
   <path class="fil6" d="M6948.36 244.41c0,0 19.25,35.37 -10.73,61.24l-9.95 -24.68 20.68 -36.56z"/>
   <path class="fil0" d="M6830.92 197.58c17.64,43.74 67.41,64.92 111.17,47.28 43.75,-17.63 64.92,-67.41 47.29,-111.17 -17.64,-43.75 -67.41,-64.93 -111.17,-47.28 -43.77,17.63 -64.93,67.41 -47.29,111.17z"/>
   <path class="fil0" d="M6927.81 288.98l0 0c20.79,-8.38 30.84,-32.01 22.46,-52.79l-30.59 -75.86 -89.27 35.99 24.93 61.83c11.49,28.52 43.95,42.33 72.47,30.83z"/>
   <path class="fil0" d="M6840.36 214.34l-7.03 32.47c-0.77,5.14 4.47,8.96 9.52,6.93l21.59 -4.29 -24.08 -35.11z"/>
   <path class="fil7" d="M6916.25 203.24c0,0 -35.81,-14.64 -37.4,-61.02 0,0 -30.29,16.42 -54.01,18.6 1.83,-32 21.66,-61.64 53.37,-74.41 43.76,-17.65 93.53,3.53 111.17,47.28 14.34,35.58 3.02,75.14 -25.22,98.16l-0.54 0.42 -47.37 -29.03z"/>
   <path class="fil0" d="M6911.8 204.84c4.85,12.03 18.53,17.85 30.56,13 12.01,-4.85 17.84,-18.52 12.99,-30.55 -4.86,-12.02 -18.53,-17.84 -30.56,-12.99 -12.01,4.85 -17.83,18.53 -12.99,30.54z"/>
   <path class="fil7" d="M6978.82 192.22l13.37 38.51c0,0 -37.2,25.7 -52.36,-11.88l26.07 -5.36 12.92 -21.27z"/>
   <path class="fil11" d="M6887.14 841.65l-138.85 285.09 -99.13 369.49 76.46 29.8 144.51 -359.62c0,0 255.01,-221 243.68,-334.34l-226.67 9.58z"/>
   <path class="fil11" d="M6822.29 159.08l1.74 -70.32c0.08,-3.65 2.01,-7 5.17,-8.84 17.8,-10.44 80.4,-41.96 145.46,-13.78 3.29,1.43 5.57,4.52 6.14,8.04l9.84 61.12 -168.35 23.78z"/>
   <path class="fil10" d="M6821.79 148.29l1.09 -30.96c0,0 83.63,-25.22 164.89,-12.11l4.57 32.95 -170.55 10.12z"/>
   <path class="fil11" d="M7044.47 152.21c-26.71,-59.51 -258,-25.76 -273.91,10.31 -8.95,20.3 59.24,35.11 59.24,35.11 0,0 -16.81,-19.44 3.52,-27.39 20.35,-7.94 123.63,-32.93 162.04,-9.21 0,0 9.38,7.61 2.08,17 0,0 54.46,-9.3 47.03,-25.82z"/>
   <path class="fil0" d="M6753.12 435.56c-27.04,-12.71 -38.65,-44.93 -25.94,-71.96 12.71,-27.04 44.92,-38.66 71.97,-25.94 27.02,12.7 38.64,44.92 25.94,71.96 -12.72,27.04 -44.95,38.65 -71.97,25.94z"/>
   <polygon class="fil0" points="6747.2,423.13 6824.13,519.41 6867.49,488.19 6804.57,405.88 "/>
   <polygon class="fil12" points="6930.6,504.43 6851.77,432.7 6777.15,493.91 6900.85,653.87 "/>
   <path class="fil13" d="M7035.59 305.65c0,0 75.22,43.5 90.64,203.58 15.43,160.07 53.03,322.84 53.03,322.84l-327.49 37.81c0,0 8.03,-371.26 84.73,-522.65l-26.11 -41.58 113.35 -24.95 11.85 24.95z"/>
   <path class="fil7" d="M6689.34 316.21l83.52 107.09c2.24,2.89 6.37,3.52 9.37,1.42l54.97 -38.16c3.29,-2.29 3.94,-6.88 1.44,-10l-84.55 -104.98c-2.25,-2.78 -6.25,-3.38 -9.21,-1.4l-53.93 36.04c-3.33,2.23 -4.08,6.83 -1.61,9.99z"/>
   <path class="fil14" d="M6706.43 316.61l65.03 87.21c1.52,2.04 4.35,2.58 6.52,1.24l42 -26.14c2.5,-1.56 3.08,-4.95 1.23,-7.25l-69.98 -86.67c-1.61,-2 -4.5,-2.42 -6.61,-0.96l-37.04 25.59c-2.29,1.59 -2.81,4.74 -1.15,6.98z"/>
   <path class="fil0" d="M6899.21 842.44c-26.14,14.46 -35.61,47.38 -21.16,73.52 14.46,26.14 47.37,35.61 73.52,21.16 26.13,-14.45 35.61,-47.37 21.15,-73.51 -14.46,-26.15 -47.36,-35.62 -73.51,-21.17z"/>
   <polygon class="fil0" points="6894.12,855.24 6964.57,754.11 7009.89,782.42 6952.5,868.68 "/>
   <path class="fil12" d="M6995.6 360.91c0,0 -49.75,9.44 -41.16,90.66 8.6,81.23 36.2,181.35 36.2,181.35l-80.49 164.33 80.49 54.77c0,0 119.78,-162.45 123.53,-219.1 3.76,-56.68 -6.69,-304.12 -118.57,-272.01z"/>
  </g>
  <g id="_2301339315600">
   <polygon class="fil0" points="3651.78,1351.02 3704.14,1430.34 3756.17,1404.8 3697.2,1316.74 "/>
   <path class="fil15" d="M3750.06 1377.97c-3.4,-2.03 -7.84,-0.26 -8.78,3.59 -1.85,7.54 -6.89,18.91 -20.43,27.86 -14.07,9.3 -24.36,6.41 -30.05,2.99 -2.99,-1.8 -6.84,-0.87 -8.47,2.22l-52.28 98.85c-3.18,6 -3.83,13.03 -1.83,19.51l0 0c1.89,6.1 9.37,8.31 14.28,4.22l135.35 -113.03c5.32,-4.45 5.84,-12.45 1.11,-17.54l-23.16 -24.97c-0.39,-0.42 -0.83,-0.77 -1.32,-1.07l-4.42 -2.63z"/>
   <polygon class="fil2" points="3491.86,674.14 3578.18,1048.27 3720.87,1327.48 3653,1377.65 3461.84,1084.9 3395.45,938.9 "/>
   <polygon class="fil0" points="3294.1,1400.68 3288.11,1495.52 3345.03,1506.5 3351.01,1400.68 "/>
   <path class="fil16" d="M3413.23 264.5c0,0 -21.53,-3.6 -43.2,62.16l-29.14 30.79c-11.55,12.21 -16.22,29.36 -12.4,45.73 6.16,26.45 14.62,63.81 13.86,66.13 -1.21,3.6 -5.5,108.66 -5.5,108.66l168.31 0c0,0 85.36,-269.18 -29.7,-307.94l-62.23 -5.53z"/>
   <path class="fil17" d="M3382.31 65.24c0,0 -75.42,-16.57 -53.14,46.88 23.55,67.08 75.65,17.95 75.65,17.95l-22.51 -64.83z"/>
   <path class="fil0" d="M3434.06 276.81l0 0c19.59,0 41.4,-6.78 41.4,-6.78l0 -139.96 -70.64 0 0 149.56c0,16.14 13.08,-2.82 29.24,-2.82z"/>
   <path class="fil0" d="M3352.19 130.07c0,42.4 34.37,76.77 76.78,76.77 42.39,0 76.76,-34.37 76.76,-76.77 0,-42.4 -34.37,-76.77 -76.76,-76.77 -42.41,0 -76.78,34.37 -76.78,76.77z"/>
   <path class="fil0" d="M3402.24 231.59l0 0c20.13,0 36.45,-16.31 36.45,-36.45l0 -52.53 -86.5 -12.54 0 51.47c0,27.64 22.41,50.05 50.05,50.05z"/>
   <path class="fil0" d="M3354.43 147.22l-16.77 24.7c-2.38,4.03 0.71,8.98 5.61,8.98l19.43 3.67 -8.27 -37.35z"/>
   <path class="fil18" d="M3424.85 155.64c0,0 -82.45,-51.99 -57.54,-90.4 45.92,-70.76 118.61,0 118.61,0l-61.07 90.4z"/>
   <path class="fil18" d="M3467.03 53.3c0,0 69.44,15.07 57.56,62.67 -10.1,40.5 -3.78,32.33 16.82,49.93 20.62,17.6 32.56,41.47 28.21,77.27l-123.68 0c0,0 -50.49,-26.04 -5.8,-77.27 0,0 2.38,-39.9 -26.91,-45.33l53.8 -67.27z"/>
   <path class="fil0" d="M3424.85 155.64c0,11.65 9.44,21.09 21.09,21.09 11.65,0 21.09,-9.44 21.09,-21.09 0,-11.65 -9.44,-21.1 -21.09,-21.1 -11.65,0 -21.09,9.45 -21.09,21.1z"/>
   <path class="fil0" d="M3424.85 249.11c0,0 -24.14,26.58 -43,77.16 0,0 36.37,-39.62 93.61,-56.24l-50.61 -20.92z"/>
   <path class="fil5" d="M3336.85 577.97l-56.68 850.79 85.31 0 121.19 -654.39c0,0 56.23,-91.75 18.49,-196.4l-168.31 0z"/>
   <path class="fil15" d="M3356.32 1481.41c-1.5,-3.68 -6.1,-4.94 -9.17,-2.43 -6.05,4.91 -16.89,10.94 -33.1,9.93 -16.84,-1.05 -23.3,-9.56 -25.78,-15.71 -1.31,-3.24 -4.94,-4.83 -8.1,-3.34l-101.28 47.4c-6.15,2.88 -10.9,8.09 -13.21,14.47l0 0c-2.17,6.01 2.46,12.28 8.85,11.97l176.12 -8.67c6.94,-0.34 12.17,-6.42 11.46,-13.32l-3.45 -33.9c-0.06,-0.55 -0.2,-1.11 -0.41,-1.63l-1.93 -4.77z"/>
   <path class="fil19" d="M3473.05 666.55l0.45 0.8 0.37 0.59 0.45 0.65c-0.22,-1.22 -0.51,2.67 7.72,2.76 11.44,-14.28 3.13,-5.28 5.52,-9.03l-0.15 -0.55 -0.2 -0.66 -0.29 -0.84 -1.06 -2.79 -2.06 -5.25 -4.07 -10.38 -7.88 -20.83c-5.13,-13.91 -10.02,-27.92 -14.6,-42.01 -9.17,-28.18 -17.24,-56.73 -23.51,-85.58 -6.31,-28.83 -10.99,-58.04 -12.09,-87.25 -0.52,-14.6 -0.12,-29.19 1.76,-43.48 1.85,-14.11 5.41,-28.65 10.94,-40.75 2.82,-5.51 6.81,-9.21 12.87,-12.57 5.7,-3.21 11.88,-5.19 17.9,-5.18 12.14,-0.27 23.26,8.33 31.33,19.49 4.11,5.55 7.67,11.71 10.81,18.14 3.56,6.92 7.3,13.71 11.56,20.09 8.4,12.89 17.86,24.87 27.94,36.19 20.18,22.66 42.43,43.09 65.53,62.34 11.58,9.59 23.39,18.9 35.42,27.9 6,4.51 12.08,8.93 18.2,13.28l9.24 6.48c3.1,2.14 6.06,4.46 10.47,4.73l4.46 -6.82c-1.81,-3.84 -4.99,-5.75 -8.03,-7.86l-9.06 -6.43c-6,-4.32 -11.97,-8.73 -17.88,-13.21 -11.82,-8.95 -23.41,-18.2 -34.76,-27.71 -22.65,-19.08 -44.35,-39.29 -63.77,-61.34 -9.71,-11.03 -18.72,-22.59 -26.56,-34.77 -4,-6.06 -7.41,-12.38 -10.64,-18.76 -3.37,-6.99 -7.26,-13.84 -11.99,-20.31 -4.71,-6.45 -10.34,-12.59 -17.45,-17.39 -7.01,-4.83 -15.88,-7.95 -24.82,-7.89 -8.96,-0.04 -17.45,2.79 -24.72,6.83 -3.55,2.03 -7.18,4.3 -10.54,7.53 -3.27,3.12 -5.99,6.79 -8.05,10.77 -13.37,29.67 -15.46,60.74 -14.76,91.18 0.98,30.48 5.61,60.5 11.93,89.98 6.46,29.48 14.69,58.45 24.03,87.02 4.66,14.28 9.63,28.46 14.84,42.54l8 21.04 4.11 10.45 2.04 5.17 0.92 2.45 0.17 0.48c0,0 0.04,0.13 0,0l-0.03 -0.2c2.37,-3.64 -5.86,5.48 5.51,-8.7 8.14,0.09 7.77,3.85 7.47,2.55l0.27 0.36c0.03,0.06 0.04,0.07 -0.01,-0.01l-0.24 -0.42 -13.01 7.18z"/>
   <path class="fil0" d="M3177.29 685.22c-25.45,9.05 -38.75,37.03 -29.7,62.49 9.05,25.45 37.03,38.75 62.48,29.7 25.47,-9.06 38.76,-37.03 29.71,-62.49 -9.06,-25.46 -37.04,-38.76 -62.49,-29.7z"/>
   <polygon class="fil0" points="3185.84,696.49 3270.44,622.64 3304.83,662.08 3235.07,725.84 "/>
   <path class="fil16" d="M3270.59 707.37l181.87 -175.64c6.15,-5.55 10.5,-12.83 12.46,-20.88l37.23 -153.15c5.37,-22.09 -8.19,-44.36 -30.28,-49.73l0 0c-22.1,-5.38 -44.37,8.19 -49.74,30.28l-34.22 140.78 -172.41 167.13 55.09 61.21z"/>
   <path class="fil19" d="M3696.08 493.05c0,0 162.55,130.92 -6.87,252.38 -169.42,121.47 -234.25,-82.47 -234.25,-82.47l241.12 -169.91z"/>
   <path class="fil20" d="M3696.08 493.05l-241.12 169.91c0,0 84.37,116.45 214.33,32.69 129.95,-83.76 26.79,-202.6 26.79,-202.6z"/>
   <path class="fil16" d="M3670.69 712.46l0 0c11.38,0 20.7,-9.31 20.7,-20.69l0 0c0,-11.38 -9.32,-20.7 -20.7,-20.7l0 0c-11.38,0 -20.69,9.32 -20.69,20.7l0 0c0,11.38 9.31,20.69 20.69,20.69z"/>
   <line class="fil21 str0" x1="3342.88" y1="522.68" x2="3387.91" y2= "479.03" />
   <path class="fil21 str0" d="M3496.74 379.95l-26.76 128.55c-1.91,9.2 -6.77,17.51 -13.85,23.68l-42.9 37.44"/>
  </g>
  <g id="_2301341294400">
   <path class="fil22" d="M8553.67 1021.92l61.97 115.34 233.58 304.19 51.9 -14.41 -102.36 -183.1c0,0 -41.82,-125.42 -119.67,-151.38l-7.75 -121.1 -117.67 50.46z"/>
   <path class="fil22" d="M8472.31 867.2l-96.82 234.2 -64.11 350.64 39.25 19.63c0,0 135.86,-248.6 94,-319.24l124.5 -166.17 -96.82 -119.06z"/>
   <path class="fil23" d="M8459.86 717.55c0,0 -15.52,72.1 -18.79,121.31 -3.25,49.23 -47.66,147.68 -47.66,147.68 0,0 191.17,124.14 381.65,-27.82 0,0 -113.43,-188.34 -147.67,-252.55l-167.53 11.38z"/>
   <path class="fil18" d="M8367.41 1467.12c-0.14,-3.84 -3.92,-6.51 -7.55,-5.24 -7.12,2.48 -19.01,4.39 -33.44,-1.88 -15,-6.53 -18.08,-16.41 -18.32,-22.84 -0.11,-3.39 -2.91,-6.03 -6.27,-5.73l-107.99 9.75c-6.56,0.59 -12.62,3.77 -16.83,8.83l0 0c-3.96,4.75 -1.8,12.01 4.11,13.82l163.42 50.31c6.43,1.97 13.21,-1.85 14.85,-8.37l8.05 -32.03c0.13,-0.53 0.19,-1.08 0.17,-1.63l-0.2 -4.99z"/>
   <path class="fil18" d="M8897.02 1408.88c-2.49,-2.93 -7.11,-2.7 -9.19,0.54 -4.08,6.33 -12.25,15.17 -27.5,19.13 -15.82,4.1 -24.35,-1.79 -28.49,-6.71 -2.18,-2.59 -6.01,-2.96 -8.47,-0.64l-79.04 74.23c-4.81,4.51 -7.62,10.74 -7.81,17.32l0 0c-0.2,6.19 5.98,10.57 11.76,8.35l159.7 -61.09c6.28,-2.4 9.26,-9.58 6.54,-15.74l-13.4 -30.19c-0.23,-0.49 -0.52,-0.96 -0.88,-1.39l-3.22 -3.81z"/>
   <path class="fil24" d="M8497.09 348.35c0,0 -62.34,68.24 -37.23,369.2l169.96 0.23 0 -355.17c0,0 -12.17,-31.28 -76.45,-37.76l-56.28 23.5z"/>
   <path class="fil23" d="M8358.29 151.89c15.11,-34.83 279.77,9.67 280.26,58.62 0.5,48.96 -299.23,-14.87 -280.26,-58.62z"/>
   <path class="fil25" d="M8428.14 169.76c0,0 -66,2.93 -33.6,50.46 34.27,50.27 66.5,-1.83 66.5,-1.83l-32.9 -48.63z"/>
   <path class="fil26" d="M8520.64 339.59c16.2,-4.32 32.73,-14.74 32.73,-14.74l-30.85 -115.69 -58.39 15.58 32.96 123.61 23.55 -8.76z"/>
   <path class="fil0" d="M8417.53 229.99c9.35,35.04 45.34,55.88 80.38,46.54 35.05,-9.35 55.88,-45.34 46.54,-80.39 -9.35,-35.04 -45.34,-55.88 -80.39,-46.53 -35.04,9.34 -55.87,45.34 -46.53,80.38z"/>
   <path class="fil0" d="M8481.28 302.88l0 0c16.65,-4.44 26.54,-21.52 22.1,-38.17l-11.58 -43.43 -74.27 8.71 11.34 42.54c6.1,22.85 29.57,36.44 52.41,30.35z"/>
   <path class="fil22" d="M8423.16 243.67l-8.41 24.11c-1.08,3.86 2.56,7.27 6.6,6.18l16.88 -1.24 -15.07 -29.05z"/>
   <path class="fil22" d="M8417.53 229.99c9.35,35.04 45.34,55.88 80.38,46.54 35.05,-9.35 55.88,-45.34 46.54,-80.39 -9.35,-35.04 -45.34,-55.88 -80.39,-46.53 -35.04,9.34 -55.87,45.34 -46.53,80.38z"/>
   <path class="fil27" d="M8492.38 239.89c0,0 -88.77,-29.58 -76.63,-66.82 22.34,-68.61 98.02,-26.14 98.02,-26.14l-21.39 92.96z"/>
   <path class="fil27" d="M8513.77 146.93c0,0 42.48,-8.56 43.16,33.41 0.58,35.7 3.98,27.55 24.9,37.56 19.47,9.31 33.93,24.76 39.31,51.5 0.68,3.39 -1.31,6.78 -4.66,7.67l-94.84 25.29c-1.17,0.32 -2.39,0.29 -3.55,-0.06 -8.54,-2.61 -42.52,-16.19 -19.97,-62.08 0,0 -6.82,-33.51 -32.23,-31.54l47.88 -61.75z"/>
   <path class="fil0" d="M8481.6 237.03c2.57,9.62 12.46,15.35 22.09,12.78 9.63,-2.56 15.35,-12.45 12.79,-22.09 -2.57,-9.63 -12.46,-15.35 -22.09,-12.79 -9.63,2.57 -15.36,12.46 -12.79,22.1z"/>
   <path class="fil23" d="M8408.72 170.66c0,0 33.18,-97.82 112.99,-71.43 74.08,24.5 51.42,104.47 51.42,104.47l-164.41 -33.04z"/>
   <path class="fil28" d="M8569.13 173.41c-0.21,0 -0.41,-0.03 -0.62,-0.08 -44.66,-12.2 -90.58,-21.79 -136.45,-28.5 -1.3,-0.2 -2.2,-1.4 -2.01,-2.7 0.18,-1.3 1.29,-2.21 2.71,-2.01 46.06,6.73 92.15,16.36 137.01,28.62 1.27,0.34 2.02,1.65 1.67,2.92 -0.29,1.07 -1.26,1.76 -2.31,1.75z"/>
   <path class="fil18" d="M8485.11 563.94l-4.37 161.51c-0.31,11.55 9.24,21.07 21.11,21.07l219.22 0c12.54,0 22.31,-10.56 21,-22.69l-19.23 -141.72 -237.73 -18.17z"/>
   <path class="fil29" d="M8501.86 550.2c6.31,-42.8 13.9,-85.54 25.68,-126.92 6.02,-20.55 12.95,-41.13 23.3,-59.18 5.28,-8.89 11.39,-17.16 19.62,-20.88 8.42,-4.05 18.75,-5.3 27.99,-3.75 9.15,1.43 16.79,7.03 23.17,14.59 6.34,7.52 11.22,16.7 15.35,26.25 8.19,19.24 13.72,40.05 18.76,60.91 9.87,41.88 17.52,84.62 25.9,127.22l18.24 -3.77c-9.34,-42.34 -17.92,-84.9 -28.91,-127.27 -5.64,-21.15 -11.72,-42.36 -21,-62.88 -4.7,-10.21 -10.27,-20.34 -18.14,-29.29 -3.92,-4.46 -8.47,-8.58 -13.72,-11.86 -5.09,-3.34 -11.64,-5.61 -17.6,-6.49 -12.17,-1.68 -24.35,0.06 -35.43,5.59 -5.58,2.69 -10.59,7.14 -14.36,11.64 -3.8,4.57 -6.91,9.44 -9.67,14.39 -10.81,19.93 -17.26,41.04 -22.96,62.16 -11.04,42.39 -17.67,85.49 -23.04,128.63l6.82 0.91z"/>
   <path class="fil30" d="M8487.24 549.12l231.32 9.96c0,0 21.31,44.45 -5.05,71.4 -8.87,9.08 -21.62,13.58 -34.49,13.58l-141.88 0c-19.64,0 -37.6,-11.18 -45.38,-28.72 -6.49,-14.67 -10.25,-35.99 -4.52,-66.22z"/>
   <path class="fil25" d="M8408.62 291.93l92.91 -74.95c4.98,-4 12.22,-3.33 16.38,1.51l28.97 33.86c4.32,5.04 3.64,12.65 -1.51,16.83l-92.85 75.54c-4.99,4.06 -12.32,3.37 -16.47,-1.55l-29.05 -34.46c-4.26,-5.06 -3.53,-12.64 1.62,-16.78z"/>
   <path class="fil0" d="M8512.13 309.23c4.11,-25.53 -13.26,-49.57 -38.8,-53.68 -25.53,-4.11 -49.56,13.26 -53.68,38.79 -4.11,25.54 13.26,49.57 38.8,53.68 25.53,4.11 49.56,-13.26 53.68,-38.79z"/>
   <polygon class="fil0" points="8471.89,294.71 8494.96,399.7 8446.04,410.42 8424.61,322.53 "/>
   <path class="fil1" d="M8498.88 595.19c-2.79,0 -5.63,-0.36 -8.44,-1.08 -12.3,-3.16 -21.37,-13.67 -24.12,-26.08l-40.23 -187.48 67.08 -16.42 21.59 92.28 33.06 -91.25c11.95,-23.89 47.05,-35.49 69.32,-20.75l0 0c20.74,13.72 29.04,50.39 14.99,70.9l-104.78 163.62c-6.01,10.18 -16.9,16.26 -28.47,16.26z"/>
   <path class="fil16" d="M8621.24 648.51l0 0c6.48,0 11.78,-5.3 11.78,-11.79l0 -25.13c0,-6.49 -5.3,-11.79 -11.78,-11.79l0 0c-6.49,0 -11.8,5.3 -11.8,11.79l0 25.13c0,6.49 5.31,11.79 11.8,11.79z"/>
  </g>
 </g>
</svg>
