<?xml version="1.0" encoding="UTF-8"?>
<!DOCTYPE svg PUBLIC "-//W3C//DTD SVG 1.1//EN" "http://www.w3.org/Graphics/SVG/1.1/DTD/svg11.dtd">
<!-- Creator: CorelDRAW 2017 -->
<svg xmlns="http://www.w3.org/2000/svg" xml:space="preserve" width="70mm" height="40mm" version="1.1" style="shape-rendering:geometricPrecision; text-rendering:geometricPrecision; image-rendering:optimizeQuality; fill-rule:evenodd; clip-rule:evenodd"
viewBox="0 0 7000 4000"
 xmlns:xlink="http://www.w3.org/1999/xlink">
 <defs>
  <style type="text/css">
   <![CDATA[
    .fil0 {fill:white}
    .fil2 {fill:#F59593;fill-rule:nonzero}
    .fil5 {fill:#B55F5A;fill-rule:nonzero}
    .fil14 {fill:#EFF7F5;fill-rule:nonzero}
    .fil4 {fill:#C17775;fill-rule:nonzero}
    .fil6 {fill:#C2C5D0;fill-rule:nonzero}
    .fil16 {fill:#A2545C;fill-rule:nonzero}
    .fil11 {fill:#9DB2B6;fill-rule:nonzero}
    .fil10 {fill:#32788F;fill-rule:nonzero}
    .fil9 {fill:#2B6072;fill-rule:nonzero}
    .fil13 {fill:#31414A;fill-rule:nonzero}
    .fil1 {fill:#293339;fill-rule:nonzero}
    .fil15 {fill:#242A2E;fill-rule:nonzero}
    .fil3 {fill:#272F33;fill-rule:nonzero}
    .fil19 {fill:#3FAD1A;fill-rule:nonzero}
    .fil7 {fill:#4D4D4D;fill-rule:nonzero}
    .fil17 {fill:#74B3CE;fill-rule:nonzero}
    .fil8 {fill:gray;fill-rule:nonzero}
    .fil12 {fill:#FCC351;fill-rule:nonzero}
    .fil18 {fill:#FCC351;fill-rule:nonzero;fill-opacity:0.501961}
   ]]>
  </style>
 </defs>
 <g id="Camada_x0020_1">
  <metadata id="CorelCorpID_0Corel-Layer"/>
  <polygon class="fil0" points="3500,166.65 4293.86,624.99 5087.73,1083.33 5087.73,2000 5087.73,2916.67 4293.86,3375.01 3500,3833.35 2706.14,3375.01 1912.27,2916.67 1912.27,2000 1912.27,1083.33 2706.14,624.99 "/>
  <g id="_1353121981056">
   <path class="fil1" d="M1296.09 1241.45c21.3,59.14 23.25,127.88 3.18,185.06 -42.65,121.43 -174.85,198.65 -200.26,321.6 -12.78,62.14 2.42,128.17 -21.02,189.32 -18.01,47.19 -65.01,97.29 -104.04,129.36 -102.69,84.23 -234.71,135.69 -367.86,131.1 -144.8,-5.02 -384.27,-97.04 -368.2,-275.01 11.5,-128.06 104.71,-103.9 194.84,-143.01 101.2,-43.91 118,-117.11 90.94,-212.96 -36.06,-128.03 22.26,-175.22 141.61,-194.5 98.64,-15.89 146.52,-79.38 201.21,-158.74 50.64,-73.48 108.37,-138.64 200.49,-150.02 92.03,-11.36 151.57,49.05 201.1,122.12 11.49,16.94 20.83,35.76 28.01,55.68z"/>
   <path class="fil2" d="M1038.75 1568.69c3.77,-52.38 4.94,-109.03 -11.42,-159.81 48.91,19.45 130.08,74.29 130.08,74.29 -27.1,130.26 14.2,230.58 24.67,252.12 -37.09,27.7 -106.46,100.42 -164.05,-5.93 -0.66,0.19 10.58,-39.91 12.89,-99.42 3.73,-20.24 6.33,-40.69 7.83,-61.25z"/>
   <path class="fil3" d="M1150.74 1525.57c0.04,0 0.08,-0.01 0.08,-0.01 0.76,-6.94 1.64,-13.97 2.74,-21.1 -0.03,0 -0.03,0.01 -0.03,0.01 -1.14,7.14 -2.06,14.18 -2.79,21.1z"/>
   <path class="fil4" d="M1053.94 1605.84c6.7,-26.05 12.23,-50.85 14.32,-68.16 1.35,-11.4 13.47,-14.25 28.37,-14.25 7.47,0 15.67,0.71 23.54,1.43 7.87,0.72 15.45,1.43 21.75,1.43 3.37,0 6.37,-0.21 8.82,-0.72 0.73,-6.92 1.65,-13.96 2.79,-21.1 -9.85,2.94 -19.45,4.34 -28.89,4.34 -29.66,0 -57.55,-13.82 -85.19,-37.41 1.17,13.15 1.68,26.41 1.68,39.63 0,19.46 -1.03,38.83 -2.38,57.66 -0.26,3.88 -0.58,7.75 -0.95,11.63 3.03,-2.11 5.89,-4.31 8.38,-6.6 0,0 2.16,14.86 7.76,32.12z"/>
   <path class="fil2" d="M938.11 1349.99c82.51,118 153.76,196.05 246.2,140.6 92.41,-55.51 122.39,-175.45 66.86,-267.85 -55.51,-92.43 -175.37,-122.38 -267.81,-66.89 -92.44,55.51 -107.05,105.76 -45.25,194.14z"/>
   <path class="fil2" d="M1339.25 1649.72c39.36,-25.28 249.98,-62.99 214.83,-109.78 -35.03,-46.77 -222.26,37.95 -258.95,45.56 -35.18,7.3 -100.02,13.97 -126.16,42.28 -13.87,14.96 -10.14,49.18 9.81,58.71 22.92,10.98 61.22,26.98 160.47,-36.77z"/>
   <path class="fil2" d="M1532.74 1500.74c20.76,-20.81 108.88,-161.55 134.73,-258.83 4.68,-17.61 37.89,22.85 37.89,22.85 -9.19,44.87 -73.41,235.44 -112.22,278.51 -18.26,20.38 -67.03,46.34 -81.35,32.03 -27.38,-27.24 7.69,-61.27 20.95,-74.56z"/>
   <path class="fil2" d="M1705.36 1264.76c-0.95,2.28 -10.07,9.19 -24.42,1.48 -14.35,-7.68 -13.47,-24.33 -13.47,-24.33 3.21,-17.35 -6.05,-17.35 -2.9,-45.35 1.14,-9.93 -11.97,-46.69 -11.97,-46.69 0,0 16.55,-4.66 26.07,26.32 0.8,-45.09 -8.43,-81.98 2.6,-83.76 49.46,-7.11 72.05,66.61 60.51,103.93 -6.62,21.52 -20.93,31.85 -36.42,68.4z"/>
   <polygon class="fil2" points="750.81,2911.67 841.89,2937.19 851.05,2898.2 753.96,2879.71 "/>
   <path class="fil5" d="M723.97 2858.99c-7.14,17.83 -15.12,49.5 -18.71,67.8 -7.5,37.89 -4.5,61.8 -4.5,61.8l8.27 1.94 33.61 -127.11 -4.87 -1.21 -13.8 -3.22z"/>
   <path class="fil6" d="M763.14 2917.53c4.32,3.88 -5.23,12.26 -8.31,15.3 -3.99,3.99 -10.1,9.3 -14.09,13.18 -8.64,8.46 -11.94,18.53 -17.03,28.89 -2.89,6.04 -7.54,13.83 -14.68,15.63 0,0 -2.38,-41.96 6.67,-61.32 7.61,-16.4 16.11,-47.16 22.07,-67 0,0 5.46,-0.48 13.58,1.39 8.72,2.02 16.99,9.96 16.99,9.96 3.55,-0.44 5.39,1.72 4.58,3.44 -2.05,4.47 -3.77,3.77 -9.59,7.03 -4.8,2.67 -8.6,7.95 -7.43,11.89 3,9.89 3.62,13.22 3.18,20.14l4.06 1.47z"/>
   <path class="fil7" d="M1520.07 3062.69c-21.34,25.12 -49.94,26.32 -73,23.98 -183.68,-18.75 -603.38,-132.06 -662.22,-147.83 -5.96,-0.41 -18.92,-53.75 18.38,-70 62.79,27.38 321.04,55.42 380.97,50.37 65.09,-5.45 125.54,0.3 184.63,20.98 51.96,18.16 62.97,43.09 128.83,48.4 51.92,4.14 43.76,49.02 22.41,74.1z"/>
   <path class="fil7" d="M1231.5 2190.74c121.59,229.21 311.78,808.43 304.94,833.1 -9.93,35.92 -137.15,35.66 -120.82,13.77 20.32,-27.27 -14.39,-54.22 -32.66,-81.57 -58.17,-86.65 -384.3,-383.61 -315.14,-690.65l-9.3 -58.9 172.98 -15.75z"/>
   <polygon class="fil2" points="1074.77,3767.01 1091.83,3674.01 1052.19,3668.49 1042.71,3766.78 "/>
   <path class="fil5" d="M1024.8 3798.6c18.38,5.45 50.74,10.51 69.27,12.41 38.33,3.92 61.95,-1.21 61.95,-1.21l1.16 -8.46 -129.7 -21.74 -0.7 4.98 -1.98 14.02z"/>
   <path class="fil6" d="M1079.5 3754.19c3.51,-4.65 12.7,4.07 15.99,6.85 4.33,3.62 10.22,9.22 14.47,12.85 9.15,7.8 19.51,10.25 30.31,14.28 6.22,2.34 14.46,6.25 16.91,13.17 0,0 -41.51,6.23 -61.69,-0.95 -16.98,-6.04 -48.47,-11.71 -68.71,-15.81 0,0 -0.95,-5.42 0.14,-13.66 1.18,-8.9 8.28,-17.87 8.28,-17.87 -0.7,-3.47 1.28,-5.52 3.04,-4.83 4.68,1.61 4.1,3.48 7.91,8.93 3.11,4.44 8.71,7.8 12.51,6.23 9.52,-3.88 12.89,-4.79 19.74,-4.94l1.1 -4.25z"/>
   <path class="fil8" d="M1117.69 2989.76c26.72,11.02 37.37,15.7 38.22,38.84 6.66,184.59 -51.7,646.51 -59.21,706.99 0.41,5.93 -45.24,12.81 -66.48,-21.96 18.45,-65.91 7.76,-318.26 -5.45,-376.87 -14.4,-63.71 -17.03,-124.37 -4.62,-185.8 10.87,-53.89 36.43,-65.24 33.28,-131.25 -1.43,-30.24 33.98,-42.47 64.26,-29.95z"/>
   <path class="fil8" d="M1136.39 2315.17c6.95,76.59 32.11,714.97 20.03,737.49 -17.65,32.88 -108,53.3 -104.23,26.21 5.56,-39.94 -22.56,-88.27 -34.42,-118.94 -37.52,-97.43 -257.7,-523.61 -63.33,-771.11l261.25 3.34c-32.11,53.74 -79.3,123.01 -79.3,123.01z"/>
   <path class="fil2" d="M954.44 2188.82c50.3,-97.19 59.56,-173.85 52.83,-232.28 -13.99,-121.81 -59.2,-172.11 -64.8,-238.25 -1.98,-23.57 16.36,-110.28 16.36,-110.28 19.62,-0.97 65.35,-14.25 87.35,-34.29 0,0 12.19,84.37 54.29,84.61 42.07,-0.24 48,-78.46 48,-78.46 10.69,14.96 28.74,23.28 47.52,28.14 16.29,4.23 45.76,122.14 43.79,145.75 -5.64,66.16 -102.81,207.52 -8.28,436.98 0,0 -25.15,52.77 -116.78,55.16 -91.6,2.33 -160.28,-57.08 -160.28,-57.08z"/>
   <path class="fil9" d="M1195.08 2225.64c0.69,-0.4 1.39,-0.81 2.05,-1.21 -0.66,0.4 -1.36,0.81 -2.05,1.21 0,0.01 0,0 0,0z"/>
   <path class="fil10" d="M1109.45 2245.97c1.76,0 3.51,-0.02 5.27,-0.07 36.46,-0.93 62.35,-9.85 80.36,-20.26 0,0 0,0.01 0,0 -18.01,10.4 -43.94,19.31 -80.36,20.26 -1.76,0.05 -3.51,0.07 -5.27,0.07 -88.97,0 -155.01,-57.15 -155.01,-57.15l0 0c0,0 66.04,57.15 155.01,57.15z"/>
   <path class="fil11" d="M1000.97 2064.21c1.94,-8.94 3.51,-17.61 4.72,-26.04 0,0.01 0,0.01 0,0.01 -1.25,8.43 -2.78,17.1 -4.72,26.03z"/>
   <path class="fil3" d="M1005.69 2038.18c0,0 0,0 0,-0.01 2.64,-18.31 3.7,-35.45 3.48,-51.44l0 0c0.18,16 -0.84,33.13 -3.48,51.45z"/>
   <path class="fil11" d="M1191.42 2025.9c0,0 0.03,0 0.03,0 -0.91,-13.54 -1.24,-26.56 -0.95,-39.17l-0.07 0c-0.22,12.6 0.07,25.65 0.99,39.17z"/>
   <path class="fil4" d="M1109.45 2245.97c1.76,0 3.51,-0.02 5.27,-0.07 36.42,-0.95 62.35,-9.86 80.36,-20.26 0.69,-0.4 1.39,-0.81 2.05,-1.21 7.61,-4.59 13.69,-9.41 18.56,-13.93 -11.31,4.17 -22.81,7.37 -33.5,9.89 -9.89,2.35 -22.88,3.58 -37.2,3.58 -52.06,0 -121.69,-16.29 -124.37,-54.47 -10.68,-155.22 64.41,-118.53 170.8,-143.6 -0.92,-13.52 -1.21,-26.57 -0.99,-39.17l-181.26 0c0.22,15.99 -0.84,33.13 -3.48,51.44 -1.21,8.43 -2.78,17.1 -4.72,26.04 -8.06,37.09 -22.66,78.55 -46.53,124.61 0,0 66.04,57.15 155.01,57.15z"/>
   <path class="fil12" d="M959.45 1976.14c15.41,-111.22 -11.38,-191.71 -16.98,-257.85 -1.98,-23.57 16.36,-110.28 16.36,-110.28 19.62,-0.97 65.35,-14.25 87.35,-34.29 0,0 12.19,84.37 54.29,84.61 42.07,-0.24 48,-78.46 48,-78.46 10.69,14.96 28.74,23.28 47.52,28.14 16.29,4.23 45.76,122.14 43.79,145.75 -5.64,66.16 -8.28,154.39 -8.28,231.98 -37.74,40.78 -234.34,31.18 -272.05,-9.6z"/>
   <path class="fil2" d="M833.81 1643.45c-36.55,-29.2 -242.15,-88.36 -202.42,-131.29 39.64,-42.93 217.21,60.65 252.93,71.96 34.27,10.87 98.01,24.18 121.12,55.07 12.22,16.29 5.04,49.96 -15.79,57.38 -24.01,8.53 -63.73,20.52 -155.84,-53.12z"/>
   <path class="fil2" d="M656.68 1475.39c-18.53,-22.84 -107.85,-248.45 -114.15,-271.7 -4.83,-17.56 -39.98,18.89 -39.98,18.89 3.44,31.26 55.47,242.04 89.66,288.89 16.11,22.12 61.94,52.97 77.61,40.24 30.02,-24.32 -1.32,-61.76 -13.14,-76.32z"/>
   <path class="fil2" d="M502.55 1222.58c0.62,2.34 8.97,10.15 24.05,3.97 15.08,-6.16 15.93,-22.86 15.93,-22.86 -1.43,-17.56 7.76,-16.61 7.51,-44.79 -0.12,-10.01 16.72,-45.2 16.72,-45.2 0,0 -15.96,-6.33 -28.66,23.51 3.88,-44.98 16.84,-80.69 6.08,-83.57 -48.52,-12.2 -78.53,58.79 -70.92,97.12 4.39,22.11 17.61,33.82 29.29,71.82z"/>
   <path class="fil13" d="M746.86 1735.09c3.62,-6.16 7.02,-12.44 10.14,-18.85 27.05,-55.3 20.13,-108.47 20.53,-167.61 0.33,-43.94 17.18,-81.56 49.39,-110.46 30.64,-27.43 57.95,-51.78 67.73,-93.5 8.17,-34.96 5.46,-73.03 12.41,-108.24 12.23,-62 37.75,-136.17 93.61,-170.93 26.4,-16.42 100.83,-46.51 143.08,-3.39 0,0 37.56,123.17 20.1,144.03 -11.57,16.26 -35.22,27.31 -72.78,45.21 -50.49,24.06 -57.78,66.44 -77.32,88.04 -7.29,8.02 -9.23,2.61 -10.51,-2.8 -1.14,-4.84 -1.76,-9.68 -5.2,-4.88 -56.53,78.72 3.74,173.81 -14.02,259.3 -11.46,54.95 -55.95,84.49 -89,125.23 -35.77,44.2 -45.91,97.75 -42.69,153.5 2.63,45.87 17.97,103.89 -18.85,140.43 -92.74,92.05 -152.64,-117.61 -134.08,-183.4 9.38,-33.39 30.21,-61.68 47.46,-91.68z"/>
   <path class="fil13" d="M1161.79 1191.38c14.84,45.92 -43.64,65.86 -71.6,88.7 -16.44,13.42 -33.32,26.84 -45,44.79 -15.74,24.12 -15.15,52.61 -23.06,79.26 -1.14,3.79 -6.08,2.68 -6.48,-0.88 -4.87,-42.68 14.05,-85.23 45.47,-113.2 16.47,-14.67 34.08,-28.89 53.19,-39.95 25.49,-14.73 43.57,-26.49 45.18,-58.42 0.08,-1.32 1.9,-1.57 2.3,-0.3z"/>
   <path class="fil2" d="M1022.82 1343.52c-10.9,10.96 -11.53,-8.61 -17.27,-15.69 -4.14,-5.13 -9.38,-10.04 -16.08,-11.63 -14.17,-3.34 -28.81,4.58 -32.11,19.06 -3.33,14.74 2.17,28.85 15.31,36.79 9.62,5.77 29.55,11.11 37.27,1.28l12.88 -29.81z"/>
   <path class="fil4" d="M1002.5 1352.95c0.85,0 1.69,-0.08 2.5,-0.24 0.47,-0.09 0.58,-0.84 0.14,-1.05 -5.86,-2.78 -11.35,-3.96 -16.18,-8.75 -3.81,-3.75 -6.63,-8.33 -10.58,-12.03 -0.15,-0.12 -0.3,-0.19 -0.48,-0.19 -0.36,0 -0.73,0.37 -0.62,0.84 1.14,4.96 5.12,10.67 10.25,14.95 3.41,0.28 6.77,1.18 9.11,2.16 0.7,0.28 1.14,0.74 1.18,1.51l-0.04 0.66c-0.47,0.48 -1.06,0.74 -1.72,0.84 2.16,0.82 4.32,1.3 6.44,1.3z"/>
   <path class="fil4" d="M976.88 1353.11c1.98,0 3.92,-0.61 5.89,-1.22 1.98,-0.61 3.96,-1.21 6.01,-1.21 0.03,0 0.11,0 0.18,0 1.72,0.03 4.25,1.02 6.29,1.02 0.3,0 0.56,-0.02 0.81,-0.05 0.66,-0.1 1.25,-0.36 1.72,-0.84l0.04 -0.66c-0.04,-0.77 -0.48,-1.23 -1.18,-1.51 -2.34,-0.98 -5.7,-1.88 -9.11,-2.16 -0.73,-0.07 -1.5,-0.1 -2.23,-0.1 -4.47,0 -8.68,1.22 -10.65,4.8 -0.52,0.89 0.14,1.74 1.06,1.86 0.4,0.05 0.77,0.07 1.17,0.07z"/>
   <path class="fil14" d="M1199.54 1415.2c0,0 -20.57,-4.76 -44.7,-4.74 -24.16,0 -48.51,4.57 -48.51,4.57 0,0 10.25,42.81 47.38,42.87 37.63,0.07 45.83,-42.7 45.83,-42.7z"/>
   <path class="fil15" d="M1215.47 1335.16c1.25,4.53 5.9,7.2 10.43,5.99 4.55,-1.23 7.21,-5.91 5.97,-10.43 -1.21,-4.53 -5.89,-7.2 -10.43,-5.99 -4.51,1.25 -7.18,5.91 -5.97,10.43z"/>
   <path class="fil15" d="M1088.65 1331.71c1.28,4.52 5.93,7.21 10.43,5.98 4.51,-1.2 7.25,-5.9 6.01,-10.43 -1.21,-4.53 -5.9,-7.2 -10.43,-5.98 -4.54,1.22 -7.18,5.9 -6.01,10.43z"/>
   <path class="fil13" d="M1105.45 1311.09c-4.5,-2.81 -9.22,-3.93 -14.35,-2.35 -4.64,1.42 -6.19,6.39 -9.88,8.97 -0.8,0.57 -2.31,0.23 -2.71,-0.71 -2.82,-6.35 2.96,-12.38 7.98,-15.6 7.43,-4.8 16.73,-3.07 23.79,1.4 5.24,3.3 0.44,11.56 -4.83,8.29z"/>
   <path class="fil13" d="M1211.7 1308.08c8.64,-12.08 38.51,3.83 30.64,13.45 -0.48,0.55 -1.28,0.65 -1.94,0.51 -3.26,-0.71 -6,-4.88 -8.86,-6.6 -2.49,-1.48 -5.3,-2.14 -8.16,-2.33 -2.86,-0.19 -5.27,1.19 -8.13,1.18 -2.89,-0.01 -5.42,-3.59 -3.55,-6.21z"/>
   <path class="fil16" d="M1158.69 1395.35c2.2,0 4.39,-0.38 6.44,-1.09 4.58,-1.96 8.64,-5.81 9.85,-10.82 1.42,-5.1 -1.21,-10.06 -4.47,-13.2 2.23,4.07 3.48,8.59 2.23,12.56 -1.32,3.97 -4.9,6.87 -8.86,8.18 -2.09,0.9 -4.35,1.42 -6.66,1.42 -1.9,0 -3.84,-0.37 -5.56,-1.18 -3.81,-1.82 -6.49,-5.66 -7.91,-10.06 0.03,4.61 2.16,9.72 6.81,12.14 2.49,1.41 5.31,2.05 8.13,2.05z"/>
   <path class="fil13" d="M1041.5 1052.58c-21.24,8.39 -38.12,16.14 -54.88,32.29 -16.77,16.18 -29.51,36.28 -40.68,56.56 -18.42,33.45 -29.54,68.27 -37.75,105.32 -11.74,52.99 -25.33,146.74 -91.93,158.16 -5.01,0.85 -6.84,-5.8 -2.08,-7.58 71.21,-26.63 76,-120.57 93.17,-183.62 9.85,-36.1 27.61,-71.04 48.73,-101.77 18.57,-27.07 49.47,-61.27 84.9,-63.26 2.42,-0.13 2.45,3.13 0.52,3.9z"/>
   <path class="fil13" d="M905.93 1304.63c6.95,81.1 -84.28,135.01 -123.56,194.82 -23.36,35.57 -33.87,77.24 -41.81,118.51 -7.55,39.32 -10.66,84.58 -29.26,120.59 -0.98,1.91 -4.5,1.13 -4.21,-1.15 2.45,-19.35 8.28,-38.4 11.97,-57.58 3.77,-19.73 7.15,-39.54 10.84,-59.29 6.89,-36.87 15.93,-73.25 33.17,-106.77 38.15,-74.11 134.07,-118.98 140.11,-209.13 0.15,-1.76 2.6,-1.74 2.75,0z"/>
   <path class="fil13" d="M976.8 1384.62c-2.67,42.25 2.78,82.55 8.31,124.36 5.28,39.98 8.46,80.63 -4.39,119.54 -11.67,35.54 -39.87,60.51 -58.36,92.02 -10.28,17.52 -17.02,36.75 -21.49,56.48 -4.61,20.4 -2.92,42.01 -8.34,62.09 -0.55,2 -3.56,2.03 -4.07,0 -8.16,-31.65 1.54,-73.62 14.75,-102.74 16.34,-35.99 45.77,-62.34 63.45,-97.38 40.79,-80.82 -14.75,-171.49 6.89,-254.81 0.47,-1.79 3.37,-1.45 3.25,0.44z"/>
   <path class="fil13" d="M907.91 1690.94c-9.63,22.75 -23.54,43.62 -33.84,66.14 -11.75,25.78 -19.36,53.05 -20.13,81.45 -0.99,35.23 10.61,71.28 15.15,106.08 8.39,63.75 0.92,138.57 -69.59,162.48 -3.19,1.08 -4.98,-3.64 -2.24,-5.3 33.25,-20.05 56.2,-43.06 63.6,-82.27 6.44,-34.05 -0.04,-70.24 -5.82,-103.87 -5.93,-34.39 -12.78,-67.89 -7.4,-102.86 6.63,-42.9 30.5,-90.35 58.44,-123.25 0.9,-1.09 2.26,0.3 1.83,1.4z"/>
   <path class="fil13" d="M852.18 1965.06c6.33,26.83 -9.74,57.23 -24.16,78.8 -15.63,23.4 -38.22,43.79 -66.89,46.75 -3.18,0.32 -3.69,-4.64 -0.77,-5.45 54.22,-14.89 78.72,-70.15 88.38,-120.1 0.33,-1.74 3.04,-1.66 3.44,0z"/>
   <path class="fil13" d="M804.73 1586.9c2.64,76.28 -55.93,135.25 -83.36,201.54 -14.82,35.9 -19,75.09 -17.09,113.61 2.12,42.64 17.53,80.53 26.76,121.52 0.73,3.22 -3.63,5.19 -5.39,2.26 -18.45,-31.02 -25.81,-69.86 -30.31,-105.22 -5.01,-39.34 -1.54,-79.33 10.14,-117.21 11.21,-36.36 33.9,-67.67 52.9,-100.18 21.82,-37.35 34.93,-74.54 43.83,-116.65 0.33,-1.48 2.49,-1.06 2.52,0.33z"/>
   <path class="fil13" d="M976.4 1096.6c-18.09,17.29 -33.28,34.71 -45.14,56.9 -12.19,22.79 -20.1,47.74 -28.23,72.17 -13.06,39.11 -27.09,93.82 -63.37,118.24 -1.57,1.07 -3.44,-1.01 -2.52,-2.55 12.44,-21.49 27.27,-40.42 37.71,-63.25 10.83,-23.67 18.55,-48.72 27.31,-73.19 14.64,-40.86 34.23,-86.57 72.08,-111.12 1.72,-1.11 3.59,1.41 2.16,2.8z"/>
   <path class="fil13" d="M785.19 1525.75c-0.44,27.14 -6.96,55.07 -11.61,81.75 -4.73,27.11 -10.66,55.27 -24.53,79.34 -1.28,2.28 -5.2,0.76 -4.28,-1.82 9.08,-26.22 16.84,-52.07 22.11,-79.37 5.05,-26.38 6.33,-55.41 17.24,-80.19 0.22,-0.55 1.07,-0.25 1.07,0.29z"/>
   <path class="fil13" d="M1156.93 1175.12c9.85,-29.89 -50.6,-78.87 -18.89,-111.06 44.04,-44.76 141.83,1.99 174.67,45.47 30.13,39.92 114.74,193.73 -65.5,433.25 -77.32,102.84 -39.35,363.12 -76.3,437.94 -29.58,59.86 -77.87,121.83 -143.51,144.02 -95.18,32.27 -174.82,-57.83 -122.32,-147.44 21.86,-37.18 51.3,-75.52 82.63,-105.03 35.3,-33.09 76.04,-63.78 89.74,-112.58 11.09,-39.24 -0.37,-82.49 8.31,-122.91 8.9,-41.79 45.14,-83.45 74.5,-113.32 33.5,-34.1 81.42,-89.96 99.29,-136.27 13.03,-33.79 -1.94,-87.43 -27.35,-117.37 -37.42,-44.02 -91.38,-46.07 -75.27,-94.7z"/>
   <path class="fil13" d="M1247.61 1281.25c26.8,29.48 26.51,73.57 11.57,108.39 -8.01,18.72 -20.39,35.35 -32.65,51.45 -10.87,14.33 -21.38,31.74 -35.04,43.54 -1.61,1.39 -3.84,0.06 -3.44,-2 2.56,-13.9 13.47,-25.77 21.71,-36.76 10.36,-13.89 20.9,-27.53 30.16,-42.2 10.44,-16.51 18.35,-34.84 20.95,-54.28 3.26,-24.37 -6.85,-45.15 -14.39,-67.49 -0.18,-0.63 0.69,-1.14 1.13,-0.65z"/>
   <path class="fil13" d="M1276.28 1142.01c14.2,-6.24 35.62,-11.86 49.35,-1.45 11.09,8.4 11.57,25.74 12.85,38.27 2.86,27.25 10.22,53.52 13.07,80.74 3.59,34.47 0.15,69.46 -5.89,103.44 -11.61,65.43 -36.94,129.86 -70.26,187.24 -12.67,21.78 -26.91,42.71 -35.84,66.4 -11.83,31.24 -8.53,63.17 -8.57,95.76 0,2.74 -3.92,3.22 -4.72,0.64 -13.84,-46.35 -3.92,-92.84 19.25,-134.04 28.13,-50.02 55.18,-98.01 73.27,-152.95 20.39,-61.89 31.19,-129.27 19.18,-193.93 -4.06,-21.94 -6.89,-43.45 -9.99,-65.53 -4.14,-29.44 -26.29,-22.24 -49.21,-18.62 -3.34,0.53 -6.19,-4.36 -2.49,-5.97z"/>
   <path class="fil13" d="M1184.53 1841.96c8.21,32.4 2.75,69.44 -3,101.9 -6.15,34.57 -18.05,67.75 -33.9,99.03 -31.34,61.87 -85.01,118.79 -150.55,144.13 -2.27,0.88 -3.47,-2.57 -1.57,-3.78 59.86,-38.24 109.54,-81.97 143.08,-145.65 15.88,-30.16 26.51,-63.04 33.71,-96.27 7.18,-32.97 5.79,-66.29 10.74,-99.36 0.1,-0.8 1.31,-0.72 1.49,0z"/>
   <path class="fil13" d="M1149.46 2011.09c-1.76,44.75 -48.03,85.42 -80.25,110.98 -28.56,22.65 -83.22,60.73 -121.84,41.58 -3.51,-1.76 -0.8,-6.27 2.45,-5.82 43.09,5.88 83.88,-19.62 116.57,-44.92 33.75,-26.1 67.44,-60.83 81.53,-102.03 0.26,-0.8 1.58,-0.71 1.54,0.21z"/>
   <path class="fil13" d="M1149.61 2011.35c-14.9,53.61 -61.62,100.63 -113.06,119.99 -30.31,11.42 -80.54,18.21 -108.11,-3.77 -1.57,-1.25 0.19,-3.22 1.72,-2.98 35.33,5.7 65.28,10.87 100.68,-0.34 23.69,-7.5 44.96,-21.49 63.12,-38.22 23.5,-21.68 36.9,-49.02 53.89,-75.42 0.58,-0.89 2.05,-0.32 1.76,0.74z"/>
  </g>
  <path class="fil17" d="M4070.14 2662.16c0,54.29 -17.6,99.54 -52.79,134.24 -35.19,35.19 -79.94,52.79 -134.74,52.79l-644.56 0c-54.8,0 -99.55,-17.6 -134.74,-52.79 -35.19,-34.7 -52.79,-79.95 -52.79,-134.24 0,-54.81 17.6,-99.55 52.79,-134.24 35.19,-35.2 80.44,-52.8 135.25,-52.8l134.74 0 0 -684.27 -90 90c-59.83,59.83 -113.62,89.99 -161.39,89.99 -50.78,0 -95.52,-19.1 -134.24,-57.81 -38.71,-38.72 -57.82,-83.46 -57.82,-134.24 0,-49.28 19.11,-93.02 57.32,-131.23l415.79 -415.79c54.8,-53.8 106.59,-80.95 155.36,-80.95 90.5,0 150.33,41.23 178.48,124.19 7.04,20.61 10.56,54.3 10.56,101.06l0 1099.05 135.25 0c54.3,0 99.55,17.6 134.74,52.8 35.19,34.69 52.79,79.43 52.79,134.24z"/>
  <path class="fil18" d="M1962.27 1169.66c-47.67,27.61 -108.72,11.34 -136.33,-36.33 -27.61,-47.67 -11.34,-108.72 36.33,-136.33l1587.73 -916.68c47.67,-27.61 108.72,-11.34 136.33,36.33 27.61,47.67 11.34,108.72 -36.33,136.33l-1587.73 916.68z"/>
  <path class="fil18" d="M2012.27 2916.67c0,55.22 -44.78,100 -100,100 -55.22,0 -100,-44.78 -100,-100l0 -1833.34c0,-55.22 44.78,-100 100,-100 55.22,0 100,44.78 100,100l0 1833.34z"/>
  <path class="fil18" d="M3550 3747.02c47.67,27.61 63.94,88.66 36.33,136.33 -27.61,47.67 -88.66,63.94 -136.33,36.33l-1587.73 -916.68c-47.67,-27.61 -63.94,-88.66 -36.33,-136.33 27.61,-47.67 88.66,-63.94 136.33,-36.33l1587.73 916.68z"/>
  <path class="fil18" d="M5037.73 2830.34c47.67,-27.61 108.72,-11.34 136.33,36.33 27.61,47.67 11.34,108.72 -36.33,136.33l-1587.73 916.68c-47.67,27.61 -108.72,11.34 -136.33,-36.33 -27.61,-47.67 -11.34,-108.72 36.33,-136.33l1587.73 -916.68z"/>
  <path class="fil18" d="M4987.73 1083.33c0,-55.22 44.78,-100 100,-100 55.22,0 100,44.78 100,100l0 1833.34c0,55.22 -44.78,100 -100,100 -55.22,0 -100,-44.78 -100,-100l0 -1833.34z"/>
  <path class="fil19" d="M3450 252.98c-47.67,-27.61 -63.94,-88.66 -36.33,-136.33 27.61,-47.67 88.66,-63.94 136.33,-36.33l1587.73 916.68c47.67,27.61 63.94,88.66 36.33,136.33 -27.61,47.67 -88.66,63.94 -136.33,36.33l-1587.73 -916.68z"/>
 </g>
</svg>
