<?xml version="1.0" encoding="UTF-8"?>
<!DOCTYPE svg PUBLIC "-//W3C//DTD SVG 1.1//EN" "http://www.w3.org/Graphics/SVG/1.1/DTD/svg11.dtd">
<!-- Creator: CorelDRAW 2017 -->
<svg xmlns="http://www.w3.org/2000/svg" xml:space="preserve" width="70mm" height="40mm" version="1.1" style="shape-rendering:geometricPrecision; text-rendering:geometricPrecision; image-rendering:optimizeQuality; fill-rule:evenodd; clip-rule:evenodd"
viewBox="0 0 7000 4000"
 xmlns:xlink="http://www.w3.org/1999/xlink">
 <defs>
  <style type="text/css">
   <![CDATA[
    .fil11 {fill:white}
    .fil0 {fill:#F59593;fill-rule:nonzero}
    .fil1 {fill:#E35D59;fill-rule:nonzero}
    .fil8 {fill:#EFF7F5;fill-rule:nonzero}
    .fil4 {fill:#D2CFCC;fill-rule:nonzero}
    .fil6 {fill:#C17775;fill-rule:nonzero}
    .fil10 {fill:#B06D6C;fill-rule:nonzero}
    .fil5 {fill:#9DB2B6;fill-rule:nonzero}
    .fil9 {fill:#242A2E;fill-rule:nonzero}
    .fil3 {fill:#282F36;fill-rule:nonzero}
    .fil2 {fill:#23262A;fill-rule:nonzero}
    .fil7 {fill:#353759;fill-rule:nonzero}
    .fil14 {fill:#3FAD1A;fill-rule:nonzero}
    .fil12 {fill:#74B3CE;fill-rule:nonzero}
    .fil13 {fill:#FCC351;fill-rule:nonzero;fill-opacity:0.501961}
   ]]>
  </style>
 </defs>
 <g id="Camada_x0020_1">
  <metadata id="CorelCorpID_0Corel-Layer"/>
  <g id="_1353087313440">
   <path class="fil0" d="M5590.95 1706.99c-37.96,-43.16 -273.98,-176.58 -225.36,-246.04 48.64,-69.45 291.1,129.26 331.9,150.63 39.12,20.44 99.81,62.64 112.6,111.22 6.33,24.2 -12.4,67.29 -39.16,71.85 -30.83,5.19 -84.24,21.08 -179.98,-87.66z"/>
   <path class="fil0" d="M5420.42 1405.04c-15.27,-32.71 -106.65,-158.67 -110.43,-256.77 -0.87,-22.35 -52.43,14.25 -52.43,14.25 -2.44,38.61 29.05,204.83 60.32,268.8 14.8,30.18 61.05,123.01 96.32,102.26 40.84,-24.08 28.87,-79.94 6.22,-128.54z"/>
   <path class="fil0" d="M5257.56 1162.52c0.4,3 8.73,14.24 28.29,9.98 19.6,-4.26 24.14,-24.23 24.14,-24.23 2.04,-21.59 12.98,-18.45 18.73,-52.61 2.03,-12.07 29.88,-51.08 29.88,-51.08 0,0 -18,-11.11 -39.7,22.29 14.29,-53.55 37.63,-93.97 25.2,-99.79 -56.03,-25.09 -107.56,54.36 -106.5,102.34 0.58,27.69 13.96,44.66 19.96,93.1z"/>
   <path class="fil1" d="M5500.15 1657.02c107.3,78.89 185.66,154.09 272.89,139.23 25.42,-4.33 54.98,-46.46 39.49,-90.01 -14.29,-40.22 -121.48,-118.02 -225.47,-182.25 -28.22,33.41 -72.61,91.24 -86.91,133.03z"/>
   <path class="fil0" d="M5767.63 3802.86c-0.23,-30.98 1.59,-63.23 4.65,-96.11l-58.58 0c4.29,46.62 7.67,81.89 9.34,98.98 -7.67,16.14 -56.17,26.94 -68.6,31.41 -7.39,2.66 -28.81,11.06 -21.39,19.6 9.02,10.48 46.84,14.15 70.62,6.07 20.07,-6.76 47.34,-4.61 59.19,-10.68 11.92,-6.07 14.36,-13.42 13.27,-23.2 -0.94,-7.93 -6.47,-13.38 -8.5,-26.07z"/>
   <path class="fil0" d="M6554.99 3534.23c-23.7,-23.78 -45.31,-47.6 -65.46,-71.2l-41.94 40.33c46.77,39.55 77,64.86 77,64.86 3.96,17.67 -22.42,57.31 -28.19,68.87 -3.5,7.01 -13.05,27.89 -1.81,28.94 13.75,1.27 43.57,-22.22 55.16,-44.47 9.79,-18.79 30.99,-36.14 35.36,-48.76 4.37,-12.54 1.05,-19.56 -6.47,-25.81 -6.05,-4.95 -15.49,-6.15 -23.65,-12.76z"/>
   <path class="fil2" d="M5772.61 3786.82c3.09,-47.09 21.01,-393.75 3.74,-544.35 -6.32,-54.84 -50.39,-139.85 -50.18,-165.3 0.19,-30.39 -50.72,-105.33 -81.08,-92.79 -26.8,11.05 -96.65,72.79 -95.7,95.99l166.38 706.45 56.84 0z"/>
   <path class="fil2" d="M5948.65 2287.64l-242.26 -13.96c-14.43,246.12 -177.91,630.89 -157,806.69 25.52,95.27 165.98,98.9 163.44,71.6 2.36,-168.93 296.11,-595.3 235.82,-864.33z"/>
   <path class="fil3" d="M6546.78 3519.14c-30.29,-36.11 -194.83,-332.52 -311.56,-429.31 -42.46,-35.24 -70.94,-43.17 -130.7,-106.87 -20.74,-22.14 -119.23,-11.56 -132.45,18.51 -11.71,26.54 -1,109.77 15.78,125.88 149.4,143.37 517.11,431.85 517.11,431.85l41.82 -40.06z"/>
   <path class="fil3" d="M6151.64 2245.31c0,0 -45.72,21.31 -191.28,27.67 -119.07,5.21 -253.97,0.7 -253.97,0.7l221.58 170.64c27.84,350.8 11.54,460.25 32.39,636.05 25.51,95.27 166.99,98.9 164.48,71.6 2.45,-168.93 83.94,-651.8 26.8,-906.66z"/>
   <path class="fil2" d="M6143.43 2201.03c-214.47,56.13 -437.22,25.63 -437.22,25.63l0 47.02c272.79,37.12 445.43,-28.37 445.43,-28.37l-8.21 -44.28z"/>
   <path class="fil4" d="M5730.97 3859.25c-18.76,-3.3 -21.99,7.71 -69.23,9.75 -47.27,2.03 -63.59,-15.82 -63.59,-15.82 0,1.67 0.61,3.52 2.25,5.71 12.4,16.58 38.83,17.38 56.8,18.18 22.5,1.09 114.14,3.6 126.35,-11.31 2.29,-2.84 -1.57,-9.93 -3.24,-15.31l0.58 -4.21c-11.85,9.81 -31.19,16.25 -49.92,13.01z"/>
   <path class="fil3" d="M5661.74 3869c47.24,-2.04 50.47,-13.05 69.23,-9.75 18.73,3.24 38.07,-3.2 49.92,-13.01 2.26,-18.11 -4.1,-20.4 -3.63,-25.6 0.4,-4.33 -1.42,-13.06 -8.22,-14.22 0,0 2.69,7.45 -21.12,12.69 -23.86,5.2 -26.33,-10.76 -28.36,-22.84 -2.48,-14.5 -22.19,9.42 -33.53,17.67 -10.87,7.93 -23.05,13.79 -34.87,19.42 -10.62,5.02 -20.43,8.19 -32.03,9.39 -6.84,0.65 -20.84,3.08 -20.98,10.43 0.04,0 16.32,17.85 63.59,15.82z"/>
   <path class="fil4" d="M6566.82 3600.22c-15.79,10.61 -10.54,20.76 -43.22,54.97 -32.73,34.18 -56.85,32.55 -56.85,32.55 1.11,1.2 2.91,2.11 5.59,2.55 20.39,3.49 40.08,-14.33 53.65,-26.12 16.89,-14.83 84.81,-76.46 83.29,-95.58 -0.29,-3.71 -7.92,-6.15 -12.93,-8.84l-2.45 -3.49c-1.86,15.27 -11.3,33.34 -27.08,43.96z"/>
   <path class="fil3" d="M6523.6 3655.19c32.68,-34.21 27.43,-44.36 43.22,-54.97 15.78,-10.62 25.22,-28.69 27.08,-43.96 -10.95,-14.58 -17.12,-11.86 -20.44,-15.96 -2.68,-3.39 -10.02,-8.4 -15.67,-4.58 0,0 7.11,3.52 -6.52,23.77 -13.57,20.26 -26.45,10.44 -36.23,3.17 -11.83,-8.8 -9.5,22.11 -11.94,35.92 -2.45,13.27 -7.11,25.93 -11.77,38.18 -4.19,10.94 -9.14,20.11 -16.66,28.95 -4.48,5.19 -12.87,16.65 -7.92,22.03 0,0 24.17,1.63 56.85,-32.55z"/>
   <path class="fil0" d="M5930.65 1594.82c-17.41,-29.91 -24.75,-62.33 -35.41,-94.75 -16.64,-50.47 -23.23,-97.4 -20.42,-153.41 -49.16,32.03 -119.96,97.31 -119.96,97.31 57.13,113.84 33.34,217 26.44,239.57 46.25,16.3 136.95,66.04 177.54,-45.59 -10.01,-14.07 -19.51,-28.37 -28.19,-43.13z"/>
   <path class="fil5" d="M5914.81 1560.81c-1.87,-5.05 -3.67,-10.15 -5.36,-15.28 1.69,5.12 3.49,10.21 5.36,15.26 0,0 0,0.02 0,0.02zm-144.02 -80.14c-0.04,-0.01 -0.08,-0.01 -0.08,-0.02 -0.43,-1.15 -0.86,-2.31 -1.3,-3.46 0.03,-0.01 0.03,-0.01 0.07,-0.01 0.44,1.16 0.87,2.33 1.31,3.49z"/>
   <path class="fil6" d="M5845.4 1610.72c-15.75,0 -25.78,-3.08 -16.11,-9.54 82.37,-55.2 38.22,-117.98 34.47,-128.54 -1.45,-4.12 -4.65,-5.69 -9.16,-5.69 -7.17,0 -17.56,3.98 -29.53,7.95 -11.96,3.97 -25.41,7.95 -38.61,7.95 -5.31,0 -10.58,-0.64 -15.67,-2.18 -0.44,-1.16 -0.87,-2.33 -1.31,-3.49 37.38,-8.11 77.09,-32.07 106.1,-71.76 2.66,32.26 9.13,62.75 19.66,94.65 5.01,15.26 9.26,30.49 14.21,45.46 1.69,5.13 3.49,10.23 5.36,15.28 -1.22,9.07 -3.5,19.3 -7.51,31.26 -4.02,12.14 -39.03,18.65 -61.9,18.65z"/>
   <path class="fil0" d="M5918.01 1282.14c-10.13,158.25 -146.35,222.31 -216.49,189.99 -92.98,-42.85 -100.65,-136.26 -101.59,-241.01 -0.73,-91.17 136.39,-149.65 233.9,-118.53 97.58,31.13 90.65,67.39 84.18,169.55z"/>
   <path class="fil1" d="M5652.87 2395.45c0,0 54.8,51.7 244.46,25.27 189.66,-26.4 307.6,-20.76 307.6,-20.76 0,0 99.84,-270.82 -23.18,-739.29 -5.71,-21.72 -65.12,-153.15 -65.12,-153.15 -18.4,3.19 -190.99,24.97 -215.57,11.12 0,0 25.98,71.63 -39.66,86.64 -65.59,15.02 -72.4,-51.04 -72.4,-51.04 -6.76,16.09 -102.13,56.05 -118.42,64.48 -14.26,7.38 -57.23,47.16 -32.29,166.31 24.95,119.11 76.87,416 14.58,610.42z"/>
   <path class="fil0" d="M6224.8 1539.84c8.03,-56.89 126.62,-303.5 47.82,-334.82 -78.81,-31.28 -172.18,267.96 -194.55,308.2 -21.43,38.6 -48.98,107.24 -32.96,154.83 8.03,23.73 47.35,49.43 72.22,38.51 28.6,-12.57 87.25,-23.24 107.47,-166.72z"/>
   <path class="fil0" d="M6196.14 1188.46c-5.3,-35.71 1.86,-191.21 -48.93,-275.24 -11.53,-19.13 51.67,-16.87 51.67,-16.87 23.24,30.88 88.24,187.04 97.27,257.73 4.25,33.34 16.07,133.34 -24.87,135.4 -47.36,2.36 -67.39,-47.98 -75.14,-101.02z"/>
   <path class="fil0" d="M6198.88 896.35c1.28,2.7 0.52,16.72 -18.18,23.89 -18.69,7.19 -33.49,-7.02 -33.49,-7.02 -13.57,-16.87 -20.97,-8.26 -44.5,-33.68 -8.39,-8.94 -53.06,-26.23 -53.06,-26.23 0,0 8.91,-19.13 45.37,-3.14 -41.29,-36.93 -83.06,-57.89 -75.89,-69.52 33.08,-51.81 119.69,-13.72 145.26,26.92 14.74,23.43 12.82,44.99 34.49,88.78z"/>
   <path class="fil1" d="M6208.08 1448.86c-20.91,-12.85 -42.81,-24 -66.63,-30.44 -11.3,-3.1 -21.61,-4.88 -32.97,-5 -43.92,104.47 -80.09,165.86 -74.38,239.7 2.68,34.26 54.22,72.27 96.8,57.71 78.64,-26.96 101.7,-125.23 132.98,-228.61 -12.23,-9.19 -42.75,-25.35 -55.8,-33.36z"/>
   <path class="fil7" d="M5915.62 1359.34c33.26,-86.62 54.23,-157.12 -30.66,-253.51 -56.14,-63.69 -136.14,-71.89 -225.29,-11.04 -26.11,-56.04 -141.77,-20.38 -143.37,87.39 -0.88,57.59 27.49,124.25 92.35,163.85 -7.81,-75.08 3.28,-106.04 63.13,-97.76 30.69,4.28 50.1,-6.28 65.23,-16.84 23.2,-16.16 36.39,-32.32 65.01,4.79 13.82,17.91 17.46,51.96 36.18,59.03 18.29,6.83 2.76,-16.94 19.6,-23.06 53.92,-19.74 -2.84,37.2 0.84,78.18 3.74,40.96 22.57,56.42 22.57,56.42 0,0 18.46,-5.97 34.41,-47.45z"/>
   <path class="fil0" d="M5838.2 1295.25c12.4,7.81 8.91,-10.42 12.69,-18.21 2.77,-5.61 6.51,-11.26 12.43,-14.17 12.41,-6.13 27.67,-1.88 33.78,10.87 6.18,12.92 4.14,27.16 -6.41,37.29 -7.66,7.39 -25,16.56 -34.2,9.06l-18.29 -24.84z"/>
   <path class="fil6" d="M5856.67 1299.93c-0.43,0 -0.76,-0.63 -0.36,-0.94 4.47,-3.62 9.31,-5.76 12.65,-10.81 2.99,-4.43 4.69,-9.57 7.71,-14.06 0.11,-0.2 0.33,-0.29 0.55,-0.29 0.29,0 0.61,0.22 0.61,0.62 0,6.4 -2.94,11.49 -7.02,16.26 -2.9,1.02 -5.59,2.48 -7.41,3.8 -0.51,0.38 -0.91,1 -0.69,1.67l0.18 0.47 0.22 0.18c0.26,0.22 0.55,0.35 0.83,0.39 -2.25,1.56 -4.69,2.66 -7.23,2.71 -0.04,0 -0.04,0 -0.04,0z"/>
   <path class="fil6" d="M5864.12 1297.24c-0.03,0 -0.1,-0.01 -0.18,-0.02 -0.28,-0.04 -0.57,-0.17 -0.83,-0.39l-0.22 -0.18 -0.18 -0.47c-0.22,-0.67 0.18,-1.29 0.69,-1.67 1.82,-1.32 4.51,-2.78 7.41,-3.8 2.26,-0.78 4.66,-1.31 6.88,-1.31 2.65,0 5.05,0.74 6.76,2.66 0.62,0.71 0.33,1.64 -0.51,1.97 -1.02,0.37 -2,0.5 -3.01,0.5 -0.77,0 -1.57,-0.07 -2.33,-0.14 -0.8,-0.07 -1.56,-0.14 -2.37,-0.14 -0.29,0 -0.58,0.01 -0.87,0.03 -3.89,0.29 -6.94,1.07 -10.47,2.78 -0.26,0.12 -0.51,0.18 -0.77,0.18z"/>
   <path class="fil8" d="M5689.81 1399c0,0 18.07,-8.75 40.4,-13.84 22.32,-5.12 45.89,-6.06 45.89,-6.06 0,0 -0.44,41.82 -34.84,49.74 -34.79,8.01 -51.45,-29.84 -51.45,-29.84z"/>
   <path class="fil9" d="M5658.14 1328.29c-0.18,4.46 -3.96,7.93 -8.39,7.78 -4.48,-0.2 -7.93,-3.97 -7.75,-8.4 0.18,-4.46 3.93,-7.95 8.36,-7.76 4.47,0.2 7.97,3.93 7.78,8.38z"/>
   <path class="fil9" d="M5774.75 1298.25c-0.18,4.45 -3.93,7.91 -8.36,7.73 -4.51,-0.18 -7.93,-3.92 -7.75,-8.38 0.18,-4.43 3.9,-7.93 8.37,-7.75 4.43,0.18 7.92,3.93 7.74,8.4z"/>
   <path class="fil7" d="M5754.9 1282.66c3.67,-3.67 8.43,-6.02 13.7,-4.99 4.12,0.81 6.41,4.58 10.15,6.03 0.94,0.36 2.11,-0.38 2.33,-1.31 1.49,-6.68 -6.18,-11.26 -11.57,-12.91 -7.81,-2.41 -15.63,1.22 -21.05,6.75 -4.11,4.19 2.29,10.6 6.44,6.43z"/>
   <path class="fil7" d="M5653.16 1300.44c-7.49,-1.37 -13.78,1.22 -19.05,6.56 -2.98,3.02 -8.51,10.69 -3.71,14.38 0.54,0.42 1.34,0.28 1.89,0 2.58,-1.23 4,-5.08 5.89,-7.1 3.06,-3.23 8.04,-5.84 12.58,-5.05 5.71,0.99 8.22,-7.73 2.4,-8.79z"/>
   <path class="fil10" d="M5719.26 1372.46c-0.68,0 -1.38,-0.03 -2.07,-0.12 -4.61,-0.84 -9.2,-3.54 -11.38,-7.94 -2.36,-4.43 -1.01,-9.58 1.35,-13.16 -1.21,4.23 -1.39,8.69 0.61,12.1 2.08,3.39 6,5.32 9.93,5.7 0.98,0.19 2.04,0.29 3.06,0.29 2.98,0 5.96,-0.83 8.28,-2.65 3.17,-2.47 4.81,-6.6 5.2,-10.99 0.95,4.25 0.04,9.45 -3.74,12.68 -3.02,2.78 -7.12,4.09 -11.24,4.09z"/>
  </g>
  <polygon class="fil11" points="3500,166.65 4293.86,624.99 5087.73,1083.33 5087.73,2000 5087.73,2916.67 4293.86,3375.01 3500,3833.35 2706.14,3375.01 1912.27,2916.67 1912.27,2000 1912.27,1083.33 2706.14,624.99 "/>
  <path class="fil12" d="M4215.7 2266.97c0,54.3 -17.6,99.55 -52.79,134.24 -34.7,35.2 -79.94,52.79 -134.75,52.79l-163.9 0 0 338.37c0,54.3 -17.6,99.04 -52.79,134.24 -34.69,34.69 -79.44,52.29 -134.24,52.29 -54.3,0 -99.55,-17.6 -134.24,-52.29 -35.2,-35.2 -52.79,-79.94 -52.79,-134.24l0 -338.37 -479.65 0c-41.22,0 -70.38,-2.01 -86.47,-6.03 -40.23,-9.05 -73.41,-31.17 -100.06,-65.36 -26.64,-34.69 -39.71,-71.9 -39.71,-112.62 0,-37.71 18.1,-83.46 53.79,-137.26l667.68 -1002.52c48.77,-72.91 104.08,-109.11 166.42,-109.11 84.97,0 143.79,35.7 175.47,106.59 11.06,24.64 16.59,61.84 16.59,113.13l0 839.12 163.9 0c54.81,0 100.05,17.6 134.75,52.79 35.19,34.69 52.79,79.44 52.79,134.24zm-725.5 -187.03l0 -251.89 -167.93 251.89 167.93 0z"/>
  <path class="fil13" d="M1962.27 1169.66c-47.67,27.61 -108.72,11.34 -136.33,-36.33 -27.61,-47.67 -11.34,-108.72 36.33,-136.33l1587.73 -916.68c47.67,-27.61 108.72,-11.34 136.33,36.33 27.61,47.67 11.34,108.72 -36.33,136.33l-1587.73 916.68z"/>
  <path class="fil13" d="M2012.27 2916.67c0,55.22 -44.78,100 -100,100 -55.22,0 -100,-44.78 -100,-100l0 -1833.34c0,-55.22 44.78,-100 100,-100 55.22,0 100,44.78 100,100l0 1833.34z"/>
  <path class="fil14" d="M3550 3747.02c47.67,27.61 63.94,88.66 36.33,136.33 -27.61,47.67 -88.66,63.94 -136.33,36.33l-1587.73 -916.68c-47.67,-27.61 -63.94,-88.66 -36.33,-136.33 27.61,-47.67 88.66,-63.94 136.33,-36.33l1587.73 916.68z"/>
  <path class="fil14" d="M5037.73 2830.34c47.67,-27.61 108.72,-11.34 136.33,36.33 27.61,47.67 11.34,108.72 -36.33,136.33l-1587.73 916.68c-47.67,27.61 -108.72,11.34 -136.33,-36.33 -27.61,-47.67 -11.34,-108.72 36.33,-136.33l1587.73 -916.68z"/>
  <path class="fil14" d="M4987.73 1083.33c0,-55.22 44.78,-100 100,-100 55.22,0 100,44.78 100,100l0 1833.34c0,55.22 -44.78,100 -100,100 -55.22,0 -100,-44.78 -100,-100l0 -1833.34z"/>
  <path class="fil14" d="M3450 252.98c-47.67,-27.61 -63.94,-88.66 -36.33,-136.33 27.61,-47.67 88.66,-63.94 136.33,-36.33l1587.73 916.68c47.67,27.61 63.94,88.66 36.33,136.33 -27.61,47.67 -88.66,63.94 -136.33,36.33l-1587.73 -916.68z"/>
 </g>
</svg>
