<?xml version="1.0" encoding="UTF-8"?>
<!DOCTYPE svg PUBLIC "-//W3C//DTD SVG 1.1//EN" "http://www.w3.org/Graphics/SVG/1.1/DTD/svg11.dtd">
<!-- Creator: CorelDRAW 2017 -->
<svg xmlns="http://www.w3.org/2000/svg" xml:space="preserve" width="70mm" height="40mm" version="1.1" style="shape-rendering:geometricPrecision; text-rendering:geometricPrecision; image-rendering:optimizeQuality; fill-rule:evenodd; clip-rule:evenodd"
viewBox="0 0 7000 4000"
 xmlns:xlink="http://www.w3.org/1999/xlink">
 <defs>
  <style type="text/css">
   <![CDATA[
    .fil22 {fill:white}
    .fil14 {fill:#EEDCD6;fill-rule:nonzero}
    .fil11 {fill:#E4CCBF;fill-rule:nonzero}
    .fil10 {fill:#CFBAAF;fill-rule:nonzero}
    .fil0 {fill:#F59593;fill-rule:nonzero}
    .fil1 {fill:#B55F5A;fill-rule:nonzero}
    .fil20 {fill:#E67D70;fill-rule:nonzero}
    .fil17 {fill:#EFF7F5;fill-rule:nonzero}
    .fil21 {fill:#D5786E;fill-rule:nonzero}
    .fil15 {fill:#C8645B;fill-rule:nonzero}
    .fil16 {fill:#BA5E56;fill-rule:nonzero}
    .fil4 {fill:#CB605A;fill-rule:nonzero}
    .fil3 {fill:#AE544F;fill-rule:nonzero}
    .fil13 {fill:#B29E94;fill-rule:nonzero}
    .fil6 {fill:#C17775;fill-rule:nonzero}
    .fil19 {fill:#B06D6C;fill-rule:nonzero}
    .fil5 {fill:#8F4844;fill-rule:nonzero}
    .fil2 {fill:#C2C5D0;fill-rule:nonzero}
    .fil18 {fill:#382B2A;fill-rule:nonzero}
    .fil12 {fill:#5C6D43;fill-rule:nonzero}
    .fil9 {fill:#4C7591;fill-rule:nonzero}
    .fil25 {fill:#3FAD1A;fill-rule:nonzero}
    .fil8 {fill:#4D4D4D;fill-rule:nonzero}
    .fil23 {fill:#74B3CE;fill-rule:nonzero}
    .fil7 {fill:gray;fill-rule:nonzero}
    .fil24 {fill:#FCC351;fill-rule:nonzero;fill-opacity:0.501961}
   ]]>
  </style>
 </defs>
 <g id="Camada_x0020_1">
  <metadata id="CorelCorpID_0Corel-Layer"/>
  <g id="_1353121963840">
   <path class="fil0" d="M1416.25 3137.15c7.66,-74.66 5.39,-88.8 41.33,-151.21 31.56,-54.8 63.59,-57.74 84.29,-130.88 9.56,-33.46 52.53,-33.8 80.98,-9.14 25.08,21.76 34.97,30.8 27.44,56.31 -58.12,196.54 -281.6,616.72 -325.79,705.94 0.04,17.42 30.31,46 40.57,54.33 5.98,4.84 36.11,18.26 26.43,23.74 -11.74,6.68 -48.4,-2.7 -67.71,-17.94 -16.29,-12.83 -42.17,-19.69 -51.18,-29.2 -8.96,-9.43 -8.79,-17.04 -4.58,-25.67 4.54,-9.22 12.62,-13.13 12.62,-13.13 0,-0.59 5.51,-9.98 5.98,-10.73 31.64,-75.25 122.76,-385.55 129.62,-452.42z"/>
   <path class="fil1" d="M1253.5 3647.18c19.32,10.57 54.54,23.99 74.92,30.56 42.25,13.55 69.94,13.42 69.94,13.42l3.33 -9.22 -140.61 -55.47 -2.02 5.43 -5.56 15.28z"/>
   <path class="fil2" d="M1325.64 3610.35c5.01,-4.41 13.3,7.62 16.33,11.54 3.96,5.13 9.26,12.79 13.17,17.84 8.42,11.07 19.49,16.25 30.64,23.31 6.52,4.17 14.82,10.53 15.91,18.9 0,0 -48.19,-2.95 -69.15,-15.82 -17.63,-10.86 -51.68,-24.79 -73.48,-34.22 0,0 0.21,-6.31 3.41,-15.32 3.45,-9.67 13.67,-18.05 13.67,-18.05 0,-4.12 2.62,-5.9 4.6,-4.76 4.75,2.99 3.74,4.88 6.64,11.96 2.44,5.76 7.96,10.77 12.59,10.02 11.7,-2.12 15.65,-2.41 23.44,-0.89l2.23 -4.51z"/>
   <path class="fil0" d="M954.3 3363.32c34.66,-66.62 -6.68,-33.8 49.72,-78.54 49.54,-39.3 80.38,-30.25 126.6,-90.61 21.21,-27.64 61.31,-12.04 78.65,21.42 15.28,29.51 21.13,41.5 4.72,62.46 -126.51,161.27 -491.32,473.08 -491.32,473.08 2.6,17.17 36.75,41.03 48.1,47.81 6.64,3.87 38.37,12.71 29.67,19.61 -10.67,8.29 -48.28,4.33 -69.61,-7.83 -18.06,-10.27 -44.64,-13.33 -54.92,-21.38 -10.29,-8.03 -11.24,-15.57 -8.38,-24.74 3.18,-9.81 11.44,-17.09 11.44,-17.09 -0.06,-0.54 244.35,-324.56 275.33,-384.19z"/>
   <path class="fil1" d="M657.67 3800.08c20.66,7.53 57.37,15.65 78.54,19.14 43.75,7.28 71.13,3.08 71.13,3.08l2 -9.6 -147.29 -34.26 -1.15 5.68 -3.23 15.96z"/>
   <path class="fil2" d="M723.54 3752.98c4.31,-5.05 14.26,5.64 17.94,9.01 4.65,4.51 10.95,11.31 15.58,15.78 9.95,9.64 21.69,13.09 33.75,18.56 7.07,3.2 16.22,8.2 18.53,16.37 0,0 -48.14,4.13 -70.72,-5.51 -19.03,-8.17 -54.77,-16.96 -77.72,-23.07 0,0 -0.74,-6.31 1.13,-15.65 1.98,-10.1 10.86,-19.87 10.86,-19.87 -0.64,-4.12 1.77,-6.31 3.77,-5.42 5.18,2.27 4.5,4.29 8.43,10.85 3.19,5.35 9.4,9.6 13.94,8.04 11.2,-3.83 15.05,-4.58 22.94,-4.29l1.57 -4.8z"/>
   <path class="fil3" d="M628.24 1670.52c-0.08,-0.86 -0.08,-1.75 -0.08,-2.59 -3.81,-114.36 -134.34,-220.7 -0.02,-265.49l67.55 -48.88c103.29,-109.63 227.26,-32.29 325.46,62.42 -3.74,3.72 -5.55,9.24 -3.2,16.13 21.01,61.86 21.43,124.98 0.39,188.9 -28.75,87.4 -102.15,139.61 -103.04,214.71 1.2,4.49 2.28,9.22 3.17,14.1 -75.58,-19.63 -151.19,-62.35 -213.86,-111.55l3.41 -25.8c-34.27,-19.56 -63.85,-35.47 -79.78,-41.95z"/>
   <path class="fil4" d="M1003.81 1591.69c-3.15,50.17 -33.74,87.48 -63.4,125.61 -23.35,30.03 -51.66,67.48 -48.84,107.82 0.14,1.92 3.2,2.61 3.55,0.48 8.12,-48.85 31.75,-84.04 61.1,-122.96 24.4,-32.36 49.66,-68.58 48.44,-110.95 0,-0.56 -0.81,-0.56 -0.85,0z"/>
   <path class="fil4" d="M944.4 1684.31c-30.64,36.2 -69.93,79.84 -70.72,129.85 -0.02,0.89 1.42,1.12 1.58,0.21 9.27,-52.46 43.89,-85.49 70.04,-129.36 0.33,-0.55 -0.47,-1.2 -0.9,-0.7z"/>
   <path class="fil4" d="M865.72 1731.69c-4.56,26.22 -11.6,53.9 -5.14,80.33 0.32,1.34 2.28,0.99 2.33,-0.32 0.99,-26.59 3.72,-53.26 3.92,-79.85 0.01,-0.63 -1,-0.8 -1.11,-0.16z"/>
   <path class="fil4" d="M824.96 1728.4c7.14,23.98 5.34,49.49 12.17,73.32 0.37,1.28 2.16,0.95 2.25,-0.31 1.7,-24.13 -3.89,-51.12 -12.58,-73.52 -0.44,-1.11 -2.19,-0.69 -1.84,0.51z"/>
   <path class="fil4" d="M780.5 1711.44c5.77,13.11 12.54,25.79 17.51,39.24 5.04,13.63 7.28,28.24 12.78,41.66 0.48,1.19 2.51,1.19 2.42,-0.33 -1.69,-29.77 -16.26,-56.46 -31.8,-81.1 -0.37,-0.58 -1.18,-0.08 -0.91,0.53z"/>
   <path class="fil4" d="M808.38 1730.92c7.02,16.74 5.67,35.65 12.14,52.58 0.5,1.35 2.64,0.82 2.19,-0.61 -5.41,-17.13 -5.59,-36.02 -13.11,-52.49 -0.31,-0.69 -1.5,-0.19 -1.22,0.52z"/>
   <path class="fil0" d="M767.55 1934.08c4.73,-41.09 -1.18,-80.84 -3.86,-122.06 -4.27,-64.07 -16.67,-120.02 -41.56,-182.43 59.53,16.04 152.76,60.98 152.76,60.98 -9.15,152.64 54.56,259.93 70.05,282.67 -37.59,37.56 -104.09,131.35 -187.04,21.34 3.88,-20.05 7.33,-40.18 9.65,-60.5z"/>
   <path class="fil5" d="M874.17 1733.15c-0.19,-7.34 -0.22,-14.79 -0.07,-22.37 0,-0.01 0.02,-0.01 0.03,-0.01 -0.13,7.57 -0.1,15.02 0.06,22.37 -0.01,0 -0.02,0.01 -0.02,0.01z"/>
   <path class="fil6" d="M833.29 1897.29c-18.17,0 -33.23,-14.34 -44.72,-31.4 1.16,-9.14 2.15,-17.81 2.96,-26.07 8.94,20.41 25.88,40.57 57.51,53.69 -3.27,1.65 -6.87,2.83 -10.85,3.43 -1.66,0.23 -3.29,0.35 -4.9,0.35zm-44.04 -142.72c-4.13,-18.31 -11.31,-35.47 -22.51,-53.33 26.78,8.47 51.69,13.31 74.58,13.31 11.44,0.01 22.37,-1.2 32.78,-3.77 -0.15,7.58 -0.12,15.03 0.07,22.37 -25.04,4.77 -68.48,7.66 -84.92,21.42z"/>
   <path class="fil0" d="M761.51 2526.87c41.07,-118.93 38.84,-207.61 21.49,-272.96 -36.16,-136.24 -95.94,-185.89 -113.29,-260.23 -6.18,-26.44 0.26,-128.19 0.26,-128.19 22.18,-4.39 72.03,-27.06 93.72,-53.47 0,0 27.8,93.92 75.8,87.2 47.8,-7.25 41.49,-97.21 41.49,-97.21 14.63,15.23 44.36,23.49 66.5,25.88 19.26,2.07 64.63,129.61 66.27,156.7 4.67,76.2 -70.13,270.07 75.41,515.39 0,0 -48.56,91.79 -152.4,109.76 -103.79,17.89 -175.25,-82.87 -175.25,-82.87z"/>
   <path class="fil7" d="M1058.91 3213.24c25.29,-43.14 -308.71,-211.14 -365.76,-430.07 -57.04,-218.97 99.78,-395.43 99.78,-395.43 172.96,64.35 236.3,-17.72 236.3,-17.72 0,0 54.3,61.69 98.02,110.18 0,0 589.53,277.72 558.34,408.52 -87.95,250.32 -126.63,388.99 -126.63,388.99 0,0 -180.21,-8.58 -232.56,-98.01 0,0 112.28,-207.19 119.9,-256.59 5.68,-36.91 -281.43,-47.01 -475.42,-198.52 0,0 370.62,456.11 271.51,570.08 -174.02,200.2 -213.16,284.04 -213.16,284.04 0,0 -164.29,-74.49 -179.95,-176.97 0,0 184.37,-145.37 209.63,-188.5z"/>
   <path class="fil8" d="M1071.02 2857.99c0,0 -128.08,-111.35 -153.03,-171.28 5.67,1.31 11.01,1.98 16.09,1.98 33.75,0 56.39,-28.74 91.87,-84.21 0,0 -13,78.45 -55.07,120.11l0 0 100.14 133.4z"/>
   <path class="fil6" d="M914 2412.36c-0.04,0 -0.06,0 -0.09,0 -31.95,0 -71.39,-6.36 -119.28,-23.99l0 0c-0.32,-0.13 -0.64,-0.21 -0.95,-0.34 -0.26,-0.08 -0.5,-0.21 -0.75,-0.29l0 0c3.64,-40.15 1.68,-75.33 -3.79,-106.1 3.53,0.29 7.27,0.59 11.25,0.8 2.89,47.47 26.21,97.09 81.14,108.88 12.77,2.73 25.62,3.87 38.14,3.87 55.44,0 104.22,-22.22 109.56,-25.17l0 0c-0.38,0.46 -33.16,42.34 -115.19,42.34 -0.02,0 -0.02,0 -0.04,0z"/>
   <path class="fil9" d="M914 2412.36l0 0c0.02,0 0.02,0 0.04,0 -0.02,0 -0.02,0 -0.04,0zm-0.09 0c-31.96,0 -71.38,-6.36 -119.28,-23.99 47.89,17.63 87.33,23.99 119.28,23.99zm-119.28 -23.99c-0.32,-0.13 -0.64,-0.21 -0.95,-0.34 0.31,0.13 0.63,0.21 0.95,0.34zm-1.7 -0.63l0 0zm236.3 -17.72l0 0 0 0 0 0z"/>
   <path class="fil0" d="M1086.51 1826.55c25.81,-47.17 217.67,-201 156.52,-228.96 -61.15,-27.94 -203.57,160.6 -236.44,188.47 -31.53,26.69 -93.22,69.09 -104.08,112.02 -5.72,22.72 16.83,55.24 42.23,53.92 29.19,-1.57 76.62,-6.49 141.77,-125.45z"/>
   <path class="fil0" d="M1199.89 1569.79c9.51,-32.43 57.24,-209.02 29.8,-321.44 -5.01,-20.32 50.79,2.28 50.79,2.28 15.36,50.33 19.28,264.06 3.75,328.9 -7.28,30.6 -42.21,83.61 -64.47,77.07 -42.64,-12.5 -25.93,-66.11 -19.87,-86.81z"/>
   <path class="fil0" d="M1280.48 1250.63c0.26,2.77 -5.13,14.78 -23.82,14.88 -18.73,0.13 -26.97,-17.16 -26.97,-17.16 -6.32,-19.28 -15.66,-14.21 -27.91,-44.19 -4.33,-10.66 -37.75,-40.52 -37.75,-40.52 0,0 14.14,-13.82 40.79,12.19 -24,-45.92 -53.58,-78.1 -43.4,-85.9 46,-34.45 109.3,27.55 118.26,71.59 5.09,25.38 -3.66,43.64 0.8,89.11z"/>
   <path class="fil10" d="M1130.28 1786.51c-17.68,18.58 -32.07,35.51 -37.83,46.02 -65.11,118.93 -120.32,119.74 -149.51,121.31 -25.44,1.34 -47.92,-31.14 -42.25,-53.85 10.91,-43.02 62.83,-85.7 94.37,-112.36 7.11,-6.02 23.52,-28.42 38.97,-45.63 28.92,7 72.14,28.27 96.25,44.51z"/>
   <path class="fil11" d="M1045.65 2244.48c-13.22,9.89 -107.66,26.43 -138.55,31.27 -106.57,16.71 -158.53,-0.84 -158.67,-1.27 -36.09,-136.22 -62.62,-208.78 -80,-283.05 -6.17,-26.48 0.32,-128.19 0.32,-128.19 22.13,-4.41 71.96,-27.07 93.69,-53.53 0,0 27.83,93.95 75.75,87.23 47.83,-7.29 41.58,-97.23 41.58,-97.23 14.61,15.24 46.39,23.28 68.49,25.71 19.3,2.09 57.2,105.41 64.26,156.9 6.06,44.02 5.77,140.71 33.13,262.16z"/>
   <path class="fil12" d="M748.43 2274.48c0,0 0,0 0,0 -15.85,-59.79 -29.86,-107.35 -42.04,-148.15l0 0c12.18,40.8 26.19,88.36 42.04,148.15 0,0 0,0 0,0z"/>
   <path class="fil13" d="M815.43 2282.9c-44.3,-0.63 -66.4,-7.99 -66.99,-8.42l0 0 -0.01 0c0,0 0,0 0,0 -15.85,-59.79 -29.86,-107.35 -42.04,-148.15 -15.58,-52.12 -28.21,-93.24 -37.96,-134.9 -1.99,-8.54 -2.66,-24.88 -2.66,-43.12 0,-38.35 2.98,-85.07 2.98,-85.07 0.08,-0.02 0.17,-0.03 0.26,-0.03 6.42,0 46.74,36.51 51.6,62.08 12.37,65.33 3.56,132.85 17.24,197.8 9.83,46.86 32.92,124.55 77.58,159.81z"/>
   <path class="fil0" d="M546.92 1878.32c-28.55,-45.54 -229.04,-187.83 -169.71,-219.36 59.47,-31.44 212.64,148.37 247.14,174.23 32.96,24.83 97.1,63.44 110.45,105.75 7.04,22.33 -13.54,56.09 -38.97,56.26 -29.21,0.16 -76.86,-1.95 -148.91,-116.88z"/>
   <path class="fil0" d="M425.27 1658.21c-9.99,-165.83 -43.45,-241.6 -38.27,-335.56 1.11,-20.92 -50.81,2.48 -50.81,2.48 14.49,83.8 -2.59,171.48 6.45,265.62 7.18,73.94 33.75,132.03 56.06,125.42 42.54,-12.72 27.89,-36.48 26.57,-57.96z"/>
   <path class="fil0" d="M337.62 1334c0.52,2.78 9.02,21.59 27.14,16.79 18.08,-4.86 21.81,-18.12 21.81,-18.12 -0.45,-34.53 11.08,-23.4 14.88,-55.56 1.42,-11.4 25.82,-49.06 25.82,-49.06 0,0 -17.26,-9.58 -36.14,22.58 11.04,-50.67 31.14,-89.51 19.24,-94.37 -53.42,-21.08 -98.17,55.39 -95.16,100.18 1.67,25.85 14.71,32.5 22.41,77.56z"/>
   <path class="fil14" d="M566.58 1768.71c-21.34,16.17 -42.53,61.27 -53.07,87.17 12.88,12.52 25.1,22.08 30,29.93 72.07,114.91 123.38,112.16 152.59,111.98 25.44,-0.14 46.01,-33.94 38.98,-56.28 -13.36,-42.29 -68.8,-85.83 -101.83,-110.59 -10.7,-8.06 -39.38,-35.41 -66.67,-62.21z"/>
   <path class="fil0" d="M624.42 1637.54c146.5,77.11 260.38,119.41 325.6,13.97 65.24,-105.36 32.67,-243.64 -72.71,-308.89 -105.4,-65.21 -243.62,-32.67 -308.91,72.74 -65.2,105.36 -53.64,164.45 56.02,222.18z"/>
   <path class="fil15" d="M1010.46 2204.2c8.59,30.93 27.66,54.55 64.06,70.07 -8.76,-62.96 -30.01,-105.63 -71.8,-156.21l7.74 86.14z"/>
   <path class="fil3" d="M972.45 2070.31c58.09,48.99 110.44,64.35 127.87,160.7 -58.92,-30.47 -127.87,-160.7 -127.87,-160.7z"/>
   <path class="fil3" d="M957.03 2041.27c-7.43,67.06 -2.01,107.06 53.43,162.93 16.42,-54.96 4,-115.06 -43.21,-147.31l-10.22 -15.62z"/>
   <path class="fil16" d="M950.03 2002.04c62.71,49.21 104.33,51.13 114.01,144.29 -65.07,-46.99 -105.7,-71.99 -136.95,-149.9l22.94 5.61z"/>
   <path class="fil15" d="M828.56 1869.1c109.79,32.75 140.64,158.79 126.83,233.94 -97.76,-65.78 -96.26,-142.19 -127.1,-229.36l0.27 -4.58z"/>
   <path class="fil16" d="M1046.28 2180.3c47.26,32.28 95.58,73.99 83.12,142.92 -26.05,-38.29 -58.08,-72.76 -74.71,-115.23l-8.41 -27.69z"/>
   <path class="fil16" d="M1129.4 2323.22c55.72,19.36 66.45,88.76 103.74,134.42 50.58,60.27 112.36,79.25 177.63,121.63 -147.41,-20.54 -350.73,-96.89 -300.94,-256.81l19.57 0.76z"/>
   <path class="fil3" d="M773.55 1804c-6.81,99.35 2.5,182.98 105.25,217.8 -26.98,-111.98 -6.18,-153.06 -105.25,-217.8z"/>
   <path class="fil3" d="M1071.24 2270.7c1.88,10.48 20.49,38.85 38.59,51.76l19.57 0.76c-4.04,-13.01 -24.66,-72.47 -74.45,-107.19l16.29 54.67z"/>
   <path class="fil16" d="M765.51 1775.84c90.3,55.08 171.25,38.32 202.81,160.31 -105.96,-14.09 -173.56,-89.47 -232.61,-168.62l29.8 8.31z"/>
   <path class="fil15" d="M648.64 1756.1c-86.5,-103.04 -95.74,-148.75 -120.71,-211.18 -77.72,-194.86 106.93,-356.21 237.01,-320.69l59.48 120.73c0,0 -10.22,43.03 -77.38,96.89 -69.99,56.15 -44.6,111.36 -39.43,144.45 1.98,12.73 -3.43,9.79 -8.86,6.85 -4.51,-2.43 -9.04,-4.87 -9.41,1.62 -0.33,6.21 0.36,11.95 1.76,17.4 5.75,6.25 10.9,13.1 17.13,19.31 99.29,99.71 94.58,140.25 72.27,291.72 -27.87,-29.75 -87.71,-114.42 -131.86,-167.1z"/>
   <path class="fil3" d="M903.86 1914.36c69,12.4 130.34,41.86 132.4,153.09 -99.86,-10.52 -111.42,-91.55 -151.37,-157.69l18.97 4.6z"/>
   <path class="fil15" d="M520.61 1424.35c-28.56,69.57 12.83,156.67 43.09,218.65 30.87,63.25 79.78,128 87.89,199.59 0.23,2.12 3.32,2.87 3.92,0.53 6.03,-23.69 -6.58,-49.94 -15.94,-71.15 -15.8,-35.83 -35.46,-69.96 -53.58,-104.64 -39.67,-75.93 -77.41,-154.86 -63.54,-242.47 0.18,-1.22 -1.37,-1.64 -1.84,-0.51z"/>
   <path class="fil15" d="M527.48 1545.05c11.22,64.13 55.38,123.18 90.06,176.56 21,32.32 42.02,64.57 61.72,97.72 18.49,31.11 32.61,64.02 49.22,96.05 1,1.89 3.7,0.52 3.3,-1.4 -6.4,-31.07 -22.83,-60.25 -38.2,-87.62 -18.83,-33.49 -40.28,-65.47 -61.51,-97.47 -39.36,-59.36 -76.06,-118.28 -103.68,-184.1 -0.23,-0.56 -1.02,-0.36 -0.91,0.26z"/>
   <path class="fil15" d="M882.5 2017.19c0.46,27.02 16.9,54.44 37.02,71.57 0.99,0.83 2.25,-0.43 1.41,-1.41 -18.66,-21.7 -28.46,-43.51 -37.58,-70.27 -0.15,-0.45 -0.85,-0.39 -0.85,0.11z"/>
   <path class="fil15" d="M902.06 2041.77c3.93,24.5 20.13,46.71 38.27,63.03 1.6,1.42 4.55,-0.52 3.13,-2.43 -14.98,-20.19 -31.91,-36.43 -40.03,-60.98 -0.3,-0.89 -1.52,-0.51 -1.37,0.38z"/>
   <path class="fil3" d="M974.65 1943.68c46.04,28.94 76.01,71.8 89.3,124.98 0.22,0.88 1.64,0.71 1.6,-0.21 -2.23,-27.05 -15.4,-52.13 -29.96,-74.51 -13.09,-20.09 -34.8,-48.09 -60.31,-51.73 -0.88,-0.13 -1.45,0.95 -0.63,1.47z"/>
   <path class="fil3" d="M1016.27 1995.03c11.07,21.42 19.11,43.85 29.25,65.6 0.84,1.76 3.11,0.4 2.86,-1.21 -3.37,-23.64 -18.14,-45.42 -30.3,-65.45 -0.72,-1.16 -2.44,-0.14 -1.81,1.06z"/>
   <path class="fil3" d="M960.43 2110.62c-7.14,35.7 11.48,80.03 33.62,107.52 1.18,1.47 3.95,-0.13 3.25,-1.9 -7.29,-17.55 -16.76,-34.05 -23.64,-51.81 -6.76,-17.45 -8.97,-35.51 -12.04,-53.81 -0.1,-0.59 -1.07,-0.58 -1.19,0z"/>
   <path class="fil3" d="M1047.8 2143.95c15.73,13.03 28.4,25.53 39.47,42.96 9.85,15.52 18.05,32.02 27.74,47.64 0.79,1.26 2.64,0.12 1.97,-1.18 -15.19,-29.67 -33.16,-79.55 -68.52,-90.6 -0.62,-0.21 -1.26,0.72 -0.66,1.18z"/>
   <path class="fil16" d="M1123.34 2325.66c11.44,3.58 21.84,5.18 32.19,11.95 13.17,8.59 23.36,22.69 32.28,35.32 13.51,19.05 24.2,39.89 38.89,58.16 30.17,37.49 71.58,70.57 120.7,77.22 1.55,0.21 2.94,-2.06 1.18,-2.78 -24.58,-10.64 -48.27,-20.45 -70.04,-36.36 -25.28,-18.43 -45.23,-42.8 -62.53,-68.64 -16.88,-25.2 -52.61,-93.09 -92.67,-77.35 -1.14,0.46 -1.26,2.06 0,2.48z"/>
   <path class="fil16" d="M1165.09 2373.77c34.8,46.21 66.78,94.31 117.07,125.07 45.67,27.99 103.62,43.14 156.14,51.17 1.56,0.26 2.15,-1.8 0.68,-2.39 -49.37,-18.44 -100.8,-25.84 -147.68,-51.34 -54.67,-29.85 -81.1,-82.37 -124.83,-123.61 -0.71,-0.68 -2.06,0.26 -1.38,1.1z"/>
   <path class="fil16" d="M1113.36 2321.37c-33.75,35.98 -27.44,89.22 -6.65,129.75 23.57,45.91 68.31,86.65 113.76,110.35 2.06,1.09 3.7,-1.77 1.81,-3.12 -38.17,-27.31 -73.94,-56.89 -100.08,-96.41 -12.88,-19.45 -22.13,-41.42 -25.21,-64.65 -3.58,-27.53 7.32,-49.87 19.27,-73.69 0.89,-1.81 -1.42,-3.83 -2.9,-2.23z"/>
   <path class="fil16" d="M1106.42 2369.59c26.05,109.22 130.55,196.8 242.16,207.78 1.47,0.13 1.59,-2.02 0.33,-2.44 -52.52,-18.18 -102.85,-34.08 -147.09,-69.27 -44.82,-35.6 -72.89,-84.13 -93.64,-136.52 -0.42,-1.05 -2.01,-0.68 -1.76,0.45z"/>
   <path class="fil15" d="M1012.4 2207.19c0.93,29.63 18.81,61.4 44.61,76.22 1.34,0.75 2.65,-1.01 1.6,-2.1 -21.42,-22.65 -34.3,-44.61 -42.93,-74.58 -0.5,-1.77 -3.32,-1.48 -3.28,0.46z"/>
   <path class="fil16" d="M894.03 1852.66c17.89,11.09 37.14,18.69 54.5,31.1 21.12,15.1 37.78,34.04 51.62,55.86 1.02,1.58 3.83,0.56 3.12,-1.32 -8.67,-22.88 -27.61,-40.15 -46.44,-54.96 -17.01,-13.39 -40.14,-29.89 -62.22,-32.81 -1.19,-0.15 -1.46,1.59 -0.58,2.13z"/>
   <path class="fil16" d="M1026.37 2071.4c13.42,6.92 22.09,15.47 30.22,28.35 6.48,10.34 10.99,22.16 18.56,31.74 1.05,1.34 3.28,-0.09 2.78,-1.61 -4.64,-14.43 -13.31,-28.58 -22.27,-40.7 -6.56,-8.89 -16.79,-20.07 -28.87,-19.29 -0.75,0.04 -1.17,1.12 -0.42,1.51z"/>
   <path class="fil15" d="M813.85 1327.66c9.94,29.47 25.58,52.52 15.73,84.72 -6.4,20.95 -20.64,39.65 -17.82,62.52 0.38,3.11 5.04,4.35 5.88,0.78 3.27,-13.86 5.99,-26.94 11.4,-40.2 4.35,-10.68 9.53,-21.46 11.07,-33 3.54,-26.64 -7.26,-55.55 -24.43,-75.88 -0.7,-0.83 -2.17,0.06 -1.83,1.06z"/>
   <path class="fil15" d="M819.83 1344.8c1.8,21.88 2.92,40.01 -7.66,60.05 -10.79,20.45 -29.78,36.96 -44.33,54.71 -21.31,25.97 -44.3,61.04 -40.77,96.23 0.3,2.96 4.56,3.93 5.41,0.74 6.1,-22.65 11.85,-42.94 24.36,-63.18 13.05,-21.14 30.33,-39.83 46.83,-58.28 22.62,-25.27 32.87,-58.79 18.46,-90.9 -0.5,-1.12 -2.4,-0.57 -2.3,0.63z"/>
   <path class="fil15" d="M819.06 1343.45c-2.91,21.23 -7.77,38.21 -20.52,55.81 -13.94,19.24 -31.76,35.43 -46.62,53.94 -34.51,42.98 -50.73,97.24 -33.35,151.05 0.56,1.72 3.4,1.51 3.27,-0.43 -2.13,-32.2 -3.41,-63.33 7.45,-94.23 8.96,-25.55 26.4,-47.04 43.72,-67.36 22.08,-25.89 58.35,-60.82 48.15,-98.78 -0.25,-0.96 -1.95,-1.1 -2.1,0z"/>
   <path class="fil0" d="M707.61 1586.3c-5.38,16.94 -16.33,-2.68 -25.96,-6.88 -6.94,-3.09 -14.83,-5.38 -22.51,-3.43 -16.23,4.04 -27.05,19.85 -22.77,36.39 4.31,16.8 17.39,28.36 35.09,29.52 12.8,0.84 35.96,-4.26 38.67,-18.37l-2.52 -37.23z"/>
   <path class="fil6" d="M685.59 1608.31c1,-0.95 0.49,-3.01 -1.14,-3.01 -0.01,0 -0.02,0 -0.04,0 -2.99,0.05 -7.31,0.94 -11.34,2.59 -7.3,-1.5 -14.22,-5.05 -18.3,-9.81 -0.43,-0.49 -0.11,-1.3 0.52,-1.3 0.07,0 0.14,0 0.22,0.02 6.47,1.8 12.41,5.81 18.91,7.21 2.75,0.59 5.3,0.8 7.81,0.8 3.78,0 7.45,-0.48 11.55,-0.89 0.03,-0.01 0.05,-0.01 0.07,-0.01 0.65,0 0.76,0.93 0.27,1.25 -2.48,1.62 -5.4,2.64 -8.53,3.15z"/>
   <path class="fil6" d="M663.81 1621.03c-0.75,0 -1.39,-0.66 -1.41,-1.43 -0.17,-5.4 4.95,-9.34 10.67,-11.71 4.03,-1.65 8.35,-2.54 11.34,-2.59 0.02,0 0.03,0 0.04,0 1.63,0 2.14,2.06 1.14,3.01 -0.18,0.18 -0.42,0.31 -0.72,0.39 -4.36,1.18 -7.95,2.5 -11.64,5.19 -3.06,2.24 -5.31,5.91 -9.03,7.08 -0.13,0.04 -0.26,0.06 -0.39,0.06z"/>
   <path class="fil17" d="M925.95 1566.49c0,0 -23.55,6 -48.22,18.72 -24.64,12.7 -47.12,30.19 -47.12,30.19 0,0 32.98,38.36 70.99,18.89 38.44,-19.78 24.35,-67.8 24.35,-67.8z"/>
   <path class="fil18" d="M900.04 1476.32c3.61,3.98 9.81,4.25 13.79,0.64 3.95,-3.66 4.28,-9.81 0.59,-13.83 -3.63,-3.98 -9.77,-4.25 -13.77,-0.59 -3.95,3.63 -4.24,9.81 -0.61,13.78z"/>
   <path class="fil18" d="M768.69 1539.55c3.59,4 9.81,4.26 13.79,0.6 3.95,-3.59 4.25,-9.79 0.61,-13.74 -3.62,-4 -9.79,-4.27 -13.83,-0.64 -3.93,3.63 -4.23,9.82 -0.57,13.78z"/>
   <path class="fil15" d="M774.3 1498.58c-9.01,-0.62 -17.78,2.57 -23.1,10.14 -3.5,4.98 -7.9,17.28 -0.6,21.2 1.18,0.63 2.36,0.22 3.11,-0.82 1.22,-1.66 1.41,-3.97 1.73,-5.98 0.45,-2.83 1.33,-5.13 2.94,-7.5 3.37,-5 10.37,-6.34 15.92,-6.01 7.12,0.43 7.05,-10.55 0,-11.03z"/>
   <path class="fil15" d="M891.24 1453.77c3.7,-4.43 8.93,-6.04 14.57,-6.07 4.18,-0.03 8.85,3.07 12.91,2.02 0.75,-0.19 1.42,-0.84 1.6,-1.59 1.54,-6.61 -8.62,-9.3 -13.22,-10.03 -8.8,-1.41 -17.86,0.77 -23.65,7.87 -4.46,5.44 3.22,13.3 7.79,7.8z"/>
   <path class="fil19" d="M864.98 1569.94c-0.21,0 -0.43,0 -0.65,-0.01 -5.97,-0.02 -10.92,-4.12 -13.38,-8.8 3.71,3.64 8.29,6.1 12.98,6.1 0.14,0 0.29,0 0.43,-0.01 4.83,-0.2 9.35,-2.97 12.35,-6.7 3.36,-3.4 5.52,-8.26 4.77,-13.01 -0.81,-4.72 -4.48,-8.7 -8.9,-11.68 5,1.48 10.26,5.18 11.54,11.13 1.41,5.77 -0.73,11.84 -4.37,16.24 -3.84,4 -9.16,6.74 -14.77,6.74z"/>
   <path class="fil15" d="M1160.5 1631.52c-52.61,-51.51 -116.54,-79.09 -162.45,-136.68 -50,-62.69 -158.31,-127.74 -173.63,-149.88l-59.48 -120.73c0,0 31.01,-38.51 90.15,-9.89 67.32,32.52 120.36,89.3 166.27,164.37 26.9,43.92 79.55,95.78 110.52,118.53 72.64,55.31 134.59,92.78 153.49,186.19 19.44,81.82 31.1,143.06 85.97,209.19 33.04,36.16 68.65,81.12 113.97,100.56 -200.87,-32.22 -211.56,-243.73 -324.81,-361.66z"/>
   <path class="fil15" d="M819.42 1344.15c23.81,41.09 70.12,70.02 105.59,100.21 18.21,15.51 34.96,32.48 48.89,51.96 16.49,23.09 23.52,49.44 35.38,74.7 1.06,2.17 4.67,1.11 4.55,-1.23 -2.82,-47.39 -37.33,-90.69 -70.85,-121.52 -18.12,-16.69 -37.98,-31.41 -57.25,-46.76 -22.89,-18.23 -42.69,-39.75 -65.05,-58.33 -0.68,-0.57 -1.76,0.14 -1.26,0.97z"/>
   <path class="fil15" d="M1310.53 1914.26c-23.48,-33.85 -44.36,-65.66 -61.23,-103.54 -17.55,-39.39 -32.71,-79.7 -53.28,-117.66 -38.64,-71.22 -96.46,-142.77 -164.47,-187.77 -1.26,-0.83 -2.53,0.99 -1.56,2.01 29.46,31.22 61.53,59.52 89.73,92.02 29.2,33.7 54.21,70.91 75.12,110.27 19.11,35.94 32.82,74.47 50,111.33 15.27,32.78 33.7,73.24 63.37,95.61 1.35,1 3.21,-0.95 2.32,-2.27z"/>
   <path class="fil15" d="M980.54 1340.05c16.54,15.36 30.85,32.09 45.29,49.39 14.77,17.74 33.95,31.97 52.47,45.5 40.91,29.87 83.75,55.8 123.15,87.84 1.43,1.16 3.2,-0.59 2.02,-2.02 -29.67,-35.71 -71.89,-59.09 -109.97,-84.59 -22.52,-15.09 -44.4,-31.58 -62.92,-51.47 -15.19,-16.27 -29.29,-35 -49.15,-45.76 -0.72,-0.38 -1.48,0.55 -0.89,1.11z"/>
   <path class="fil15" d="M1033.65 1398.05c24.92,34.26 57.58,63.93 87.58,93.61 33.25,32.87 67.97,63.64 103.49,93.99 33.5,28.65 59.84,63.72 78.15,103.76 18.81,41.12 24.96,85.82 39.56,128.24 0.63,1.77 3.67,1.61 3.46,-0.47 -7.12,-80.54 -39.78,-162.15 -96.72,-220.03 -33.71,-34.23 -73.48,-62.96 -108.62,-95.87 -36.03,-33.73 -68.68,-71.66 -105.93,-103.98 -0.46,-0.43 -1.39,0.15 -0.97,0.75z"/>
   <path class="fil15" d="M1290.71 1733.02c15.99,84.36 77.98,164.48 150.29,208.67 1.72,1.03 3.62,-1.41 2.14,-2.77 -32.57,-29.51 -66.41,-56.1 -93.05,-91.51 -26.59,-35.36 -39.81,-74.8 -55.97,-115.33 -0.85,-2.09 -3.83,-1.32 -3.41,0.94z"/>
   <path class="fil20" d="M804.23 1306.02c26.26,56.74 94.88,86.14 144.43,118.19 33.14,21.43 58.48,49.02 84.78,78.03 14.31,15.76 29.17,30.83 45.54,44.45 14.65,12.17 32.28,21.02 48.36,31.17 70.91,44.81 105.29,117.14 139.17,190.9 28.71,62.44 59.55,131.25 115.9,173.84 1.81,1.35 3.75,-1.47 2.32,-2.98 -26.81,-28.11 -50.76,-56.73 -70.46,-90.37 -17.88,-30.61 -32.19,-63.25 -46.92,-95.45 -29.16,-63.66 -61.02,-128.2 -119.18,-170.09 -15.2,-10.95 -31.53,-20.34 -47.48,-30.13 -20.2,-12.43 -36.9,-28.51 -53.19,-45.58 -24.92,-26.16 -47.68,-53.96 -76.89,-75.64 -26.84,-19.91 -56.61,-35.67 -84.7,-53.68 -31.84,-20.41 -56.66,-43.88 -79.13,-74.15 -1.13,-1.52 -3.35,-0.25 -2.55,1.49z"/>
   <path class="fil20" d="M788.32 1262.17c41.36,49.47 96.51,86.22 149.16,122.56 57.79,39.86 112.46,79.3 156.82,134.25 18.18,22.49 37.07,43.48 60.81,60.21 25.13,17.71 51.31,33.53 72.98,55.65 51.01,52.05 41.74,135.54 85.26,192.87 1.05,1.43 3.37,0.22 2.44,-1.44 -17.72,-32.81 -28.74,-67.09 -38.59,-102.86 -8.33,-30.13 -17.42,-58.64 -36.74,-83.61 -16.37,-21.17 -39.52,-36.68 -61.4,-51.52 -29.38,-19.91 -54,-41.05 -76.72,-68.34 -20.04,-24.09 -39.69,-47.04 -63.89,-67.12 -25.88,-21.49 -53.4,-40.91 -81.05,-60.05 -59.06,-40.92 -115.9,-81.95 -167.55,-132.15 -1.02,-1 -2.43,0.48 -1.53,1.55z"/>
   <path class="fil20" d="M1274.09 1661.21c-24.25,-48.81 -65.03,-85.83 -106.44,-119.96 -40.15,-33.09 -79.37,-65.47 -116.11,-102.39 -67.71,-68.12 -143.71,-155.62 -242.18,-176.62 -2.1,-0.44 -2.93,2.55 -0.88,3.21 97.93,31.36 168.7,106.03 239.69,176.8 35.27,35.17 73.44,65.75 112.16,96.97 44.36,35.79 81.14,74.91 111.19,123.48 1.01,1.63 3.41,0.21 2.57,-1.49z"/>
   <path class="fil20" d="M779.46 1247.94c18.54,-8.74 34.22,-15.79 55.23,-14.99 19.78,0.75 38.71,9.78 55.49,19.52 30.42,17.62 54.36,43.73 77.02,70.09 0.81,0.94 2.39,-0.3 1.71,-1.32 -22.31,-33.78 -55.47,-62.65 -91.52,-80.87 -30.29,-15.31 -73.62,-21.18 -99.14,6.02 -0.81,0.85 0.2,2.03 1.21,1.55z"/>
   <path class="fil20" d="M784.64 1228.01c14.4,-5.67 27.23,-9.42 42.85,-6.72 1.6,0.28 2.31,-2.03 0.68,-2.47 -14.83,-4.05 -32.58,-3.28 -44.22,8 -0.49,0.47 0,1.46 0.69,1.19z"/>
   <path class="fil20" d="M829.47 1280.71c30.95,15.52 54.43,46.62 81.33,68.13 28.6,22.86 58.92,44.5 89.52,64.62 0.93,0.62 2.07,-0.82 1.22,-1.57 -31.15,-27.65 -66.98,-49.81 -99.34,-76.01 -22.31,-18.06 -44.04,-47.53 -72.25,-56.3 -0.66,-0.2 -1.1,0.81 -0.48,1.13z"/>
   <path class="fil20" d="M841.39 1253.21c42.69,7.81 73.9,33.03 103.12,63.61 0.69,0.72 2.04,-0.27 1.41,-1.1 -25.22,-33.66 -62.01,-58.32 -103.56,-65.99 -2.29,-0.42 -3.26,3.06 -0.97,3.48z"/>
   <path class="fil20" d="M800.42 1315.45c-3.61,33.6 -18.09,55.95 -42.46,78.55 -19.65,18.22 -40.77,34 -58.11,54.64 -25.82,30.74 -46.81,83.15 -25.92,121.77 0.92,1.7 3.68,0.94 3.63,-0.98 -0.77,-27.71 -5.66,-49.9 4.32,-77.04 10.19,-27.76 32.12,-50.38 53.68,-69.75 31.77,-28.54 72.98,-58.92 66.58,-107.19 -0.14,-1.09 -1.59,-1.12 -1.72,0z"/>
   <path class="fil20" d="M786.36 1282.37c-5.96,31.39 -16.08,55.64 -37.1,80.05 -19.21,22.32 -42.85,40.26 -62.26,62.42 -31.45,35.91 -54.38,87.29 -40.83,135.39 0.4,1.47 2.8,1.21 2.7,-0.37 -1.97,-32.62 -0.33,-60.87 14.08,-90.86 12.67,-26.36 33.11,-48.5 54.34,-68.22 32.94,-30.6 74.4,-68.7 70.65,-118.2 -0.06,-0.85 -1.41,-1.16 -1.58,-0.21z"/>
   <path class="fil20" d="M764.13 1252.1c2.82,31.24 -16.59,55.8 -35.1,78.89 -19.84,24.75 -42.11,47.36 -63.79,70.48 -39.11,41.69 -71.28,87.08 -71.88,146.25 -0.56,54.41 28.85,105.22 61.61,146.45 17.86,22.47 34.59,44.53 47.08,70.49 12.39,25.76 17.94,54.21 24.06,81.93 0.37,1.66 3.11,1.31 2.99,-0.41 -3.45,-50.25 -22.75,-94.87 -52.57,-135.04 -38.9,-52.4 -77.53,-101.22 -76.83,-170.1 0.74,-71.87 58.56,-124.52 103.63,-173.61 23.35,-25.41 77.56,-76.06 61.73,-115.45 -0.18,-0.46 -0.99,-0.46 -0.93,0.12z"/>
   <path class="fil20" d="M765.83 1896.63c0.38,-40.25 -12.72,-84.68 -23.48,-123.2 -10.64,-38.13 -25.49,-83.16 -52.6,-112.98 -0.83,-0.91 -2.18,0.24 -1.64,1.26 19.71,37.24 38.15,72.04 50.08,112.87 11.69,39.99 13.61,82.82 25.77,122.3 0.32,1.02 1.85,0.83 1.87,-0.25z"/>
   <path class="fil20" d="M652.9 1641.35c27.2,26.57 35.58,64.57 53.61,96.84 0.7,1.25 2.84,0.41 2.34,-0.98 -11.44,-32.18 -25.06,-77.7 -54.04,-98.32 -1.49,-1.06 -3.16,1.24 -1.91,2.46z"/>
   <path class="fil20" d="M622.27 1508.12c0.44,29.15 -3.21,60.24 8.68,87.69 0.67,1.54 2.76,0.35 2.52,-1.07 -4.96,-28.77 -5.91,-57.69 -9.49,-86.62 -0.13,-1.06 -1.73,-1.13 -1.71,0z"/>
   <path class="fil20" d="M745.73 1240.84c-53.85,-6.12 -106.89,26.65 -145,61.49 -42.02,38.39 -63.8,92.76 -70.9,148.34 -7.55,59.13 5.59,120.46 34.81,172.14 33.75,59.71 85.82,106.96 122.17,165.12 0.88,1.41 2.99,0.18 2.22,-1.29 -26.65,-50.56 -68.41,-90.83 -101.66,-136.83 -35.5,-49.11 -54.29,-105.75 -55.14,-166.31 -1.67,-120.19 87.3,-239.55 213.5,-242.08l0 -0.58z"/>
   <path class="fil20" d="M697.7 1796.01c-0.11,-40.4 -34.67,-74.29 -60.05,-102.06 -38.48,-42.09 -62.31,-90.88 -74.38,-146.4 -11.23,-51.63 -11.02,-106.01 4.73,-156.62 17.8,-57.19 57.67,-94.02 107.09,-124.69 0.94,-0.58 0.12,-1.95 -0.86,-1.47 -97.22,47.24 -130.84,149.35 -118.91,251.62 5.91,50.67 22.35,99.28 50.76,141.72 30.79,45.99 82.94,79.87 91.43,137.92l0.19 -0.02z"/>
   <path class="fil20" d="M736.91 1260.83c-21.1,62.29 -74.51,107.18 -123.96,147.51 -1.06,0.86 0.31,2.59 1.44,1.87 28.17,-18.12 53.28,-41.15 75.68,-65.96 20.68,-22.9 43.62,-51.59 47.94,-83.11 0.1,-0.72 -0.86,-1.02 -1.1,-0.31z"/>
   <path class="fil20" d="M709.43 1263.13c-17.07,21.63 -42.01,34.26 -62.68,51.96 -18.28,15.65 -34.21,35.68 -42.85,58.3 -22.26,58.26 -32.77,123.54 -35.65,185.72 -0.06,1.17 1.85,1.46 2.06,0.28 9.92,-60.56 14.58,-120.22 34.57,-178.76 10.55,-30.93 32.65,-55.22 58.3,-74.65 16.97,-12.86 34.49,-24.67 46.92,-42.33 0.27,-0.39 -0.38,-0.9 -0.67,-0.52z"/>
   <path class="fil20" d="M602.55 1444.98c-1.34,8.49 -4.35,16.55 -6.81,24.76 -0.49,1.64 2.02,2.74 2.78,1.17 3.83,-7.92 6.92,-16 8.52,-24.7 0.54,-2.95 -4.02,-4.17 -4.49,-1.23z"/>
   <path class="fil20" d="M697.67 1289.22c-8.89,19.17 -22.86,32.57 -37.84,46.9 -0.69,0.65 0.18,1.68 0.97,1.27 18.18,-9.57 31.7,-28.45 38.44,-47.52 0.32,-0.9 -1.15,-1.53 -1.57,-0.65z"/>
   <path class="fil21" d="M872.2 1918.09c0.28,51.02 24.62,111.92 53.64,153.48 1.04,1.49 3.86,0.6 3.13,-1.33 -9.54,-25.28 -22.79,-49.16 -32.96,-74.25 -10.25,-25.32 -16.42,-51.61 -23.06,-78 -0.11,-0.42 -0.75,-0.32 -0.75,0.1z"/>
   <path class="fil21" d="M887.79 1937.33c21.22,51.39 43.18,100.92 57.96,154.68 0.27,0.97 1.82,0.81 1.78,-0.23 -2.29,-55.34 -32.46,-107.67 -58.78,-154.86 -0.29,-0.5 -1.19,-0.14 -0.96,0.41z"/>
   <path class="fil21" d="M1026.96 2170.75c-6.99,23.69 5.68,60.1 20.03,79.16 0.89,1.17 2.99,0.55 2.53,-1.1 -3.45,-12.37 -9.13,-24.07 -13.3,-36.23 -4.76,-13.68 -5.89,-27.36 -7.58,-41.62 -0.12,-0.93 -1.38,-1.22 -1.68,-0.21z"/>
   <path class="fil20" d="M1062.48 2208.37c37.37,19.57 48.27,64.85 65.23,100.17 0.38,0.84 1.77,0.2 1.48,-0.64 -10.86,-32.2 -28.54,-91.32 -66,-101.26 -1.01,-0.25 -1.68,1.23 -0.71,1.73z"/>
   <path class="fil21" d="M1136.59 2346.83c21.93,8.76 30.35,30.55 38.43,50.96 6.86,17.39 14.43,32.66 25.5,47.86 27.44,37.66 70.28,62.91 103.87,94.73 0.67,0.64 1.64,-0.34 1.01,-1.01 -37.08,-40.57 -85.77,-66.24 -114.73,-114.43 -14.05,-23.36 -19.48,-76.26 -53.91,-79.29 -0.76,-0.08 -0.76,0.97 -0.17,1.18z"/>
   <path class="fil21" d="M1127.92 2350.58c24.24,62.07 60.39,135.38 122.22,167.37 1.18,0.63 2.02,-0.97 1.01,-1.72 -58.04,-44.49 -89.34,-102.52 -122.43,-165.99 -0.25,-0.43 -0.96,-0.13 -0.8,0.34z"/>
   <path class="fil21" d="M1113.11 2338.46c-9.97,26.05 11.99,61.86 24.49,83.87 21.3,37.71 54.04,70.46 91.58,91.83 1.05,0.59 1.81,-0.84 0.88,-1.55 -31.01,-23.53 -58.92,-49.16 -81.05,-81.44 -16.38,-23.86 -39.22,-62.33 -33.8,-92.13 0.25,-1.39 -1.59,-1.89 -2.1,-0.58z"/>
   <path class="fil4" d="M966.76 2079.88c-2.92,36.45 14.54,78.11 38.7,104.5 0.63,0.72 1.64,-0.21 1.26,-0.96 -9.93,-20.75 -22.01,-39.1 -28.24,-61.62 -3.65,-13.2 -3.24,-30.52 -10.39,-42.28 -0.39,-0.64 -1.27,-0.34 -1.33,0.36z"/>
   <path class="fil4" d="M981.01 2097.24c14.85,21.96 18.98,43.89 22.97,69.59 0.38,2.36 3.79,1.6 3.92,-0.5 1.47,-24.21 -7.96,-52.96 -26.14,-69.67 -0.38,-0.35 -1.05,0.11 -0.75,0.58z"/>
   <path class="fil4" d="M1011.98 2118.24c14.64,22.83 32.53,48.42 57.28,61.13 1.09,0.59 2.36,-0.84 1.34,-1.76 -20.83,-19.2 -40.27,-37.21 -57.15,-60.24 -0.63,-0.86 -2.06,-0.08 -1.47,0.87z"/>
   <path class="fil20" d="M972.8 2055.64c19.69,18.23 38.42,39.04 61.23,53.46 0.59,0.37 1.05,-0.5 0.51,-0.9 -21.59,-15.96 -37.88,-39.82 -61.06,-53.46 -0.55,-0.33 -1.17,0.45 -0.68,0.9z"/>
   <path class="fil20" d="M1051.29 2125.03c-2.06,-18.53 -13.94,-40.72 -30.6,-50.17 -1.17,-0.65 -2.06,0.79 -1.34,1.71 5.97,7.59 13.21,13.67 18.68,21.79 5.51,8.19 9.26,17.56 12.79,26.73l0.47 -0.06z"/>
   <path class="fil4" d="M898.87 1920.42c13.88,26.8 26.33,54.81 46.87,77.26 19.56,21.39 41.2,47.96 68.51,59.47 0.97,0.39 1.69,-1.04 0.97,-1.67 -22.85,-20.11 -45.5,-38.48 -66.29,-60.99 -20.65,-22.38 -28.92,-52.67 -49.46,-74.53l-0.6 0.46z"/>
   <path class="fil4" d="M909.77 1924.86c12.17,5.6 24.83,9.02 36.5,15.94 13.1,7.75 23.9,18.94 33.6,30.48 19.06,22.6 26.89,49.87 41.41,74.88 0.8,1.41 2.61,0.39 2.4,-1.02 -6.48,-47.32 -60.06,-123.12 -113.65,-121.26 -0.48,0.02 -0.76,0.74 -0.26,0.98z"/>
   <path class="fil4" d="M940.29 1951.38c9.42,11.15 18.77,22.3 27.73,33.83 8.86,11.44 16.69,24.1 26.83,34.48 1.35,1.38 3.28,-0.36 2.53,-1.96 -12,-25.29 -34.71,-49.63 -55.61,-67.83 -1.02,-0.89 -2.35,0.44 -1.48,1.48z"/>
   <path class="fil20" d="M948.46 1914.02c-22.44,-51.11 -92.69,-74.43 -139.07,-97.21 -1.12,-0.54 -1.93,0.92 -0.96,1.64 22.79,16.82 49.32,26.91 74.15,40.15 26.6,14.16 46.83,32.29 65.51,55.71l0.37 -0.29z"/>
   <path class="fil20" d="M807.04 1833.52c27.79,30.67 65.95,49.29 102.95,66.51 0.61,0.28 1.13,-0.57 0.53,-0.9 -35.64,-20.05 -73.33,-37.18 -102.87,-66.22 -0.4,-0.38 -0.98,0.2 -0.61,0.61z"/>
   <path class="fil4" d="M820.91 1876.85c19.65,33.67 25.05,70.13 34.67,107.15 0.34,1.31 2.32,1.02 2.33,-0.32 0.46,-37.48 -13.58,-77.49 -34.87,-108.07 -0.9,-1.29 -2.95,-0.15 -2.13,1.24z"/>
   <path class="fil4" d="M803.84 1879.57c8.3,25.67 11.99,53.27 23.13,77.93 0.83,1.83 3.56,0.49 3.13,-1.32 -6.28,-26.02 -14.15,-52.29 -23.33,-77.42 -0.66,-1.81 -3.54,-1.08 -2.93,0.81z"/>
  </g>
  <polygon class="fil22" points="3500,166.65 4293.86,624.99 5087.73,1083.33 5087.73,2000 5087.73,2916.67 4293.86,3375.01 3500,3833.35 2706.14,3375.01 1912.27,2916.67 1912.27,2000 1912.27,1083.33 2706.14,624.99 "/>
  <path class="fil23" d="M4152.6 1181.99c0,57.82 -29.16,112.62 -86.98,164.41l-365.01 335.34c128.71,49.78 232.28,132.23 309.71,246.36 77.42,114.63 116.14,240.83 116.14,379.09 0,186.03 -65.36,343.9 -195.58,474.62 -130.22,130.22 -288.59,195.58 -474.62,195.58 -117.65,0 -229.76,-30.17 -335.85,-90 -108.6,-61.84 -190.05,-143.29 -244.85,-244.35 -18.6,-35.19 -28.15,-67.87 -28.15,-98.54 0,-51.28 20.11,-95.02 59.83,-130.72 39.71,-35.7 85.47,-53.8 137.25,-53.8 43.74,0 102.57,40.73 176.47,121.67 73.91,80.95 152.34,121.67 235.8,121.67 82.46,0 151.84,-28.65 209.66,-85.97 57.32,-57.32 85.97,-127.2 85.97,-209.15 0,-81.95 -28.65,-151.84 -85.97,-209.66 -57.82,-57.82 -127.2,-86.47 -209.66,-86.47 -58.32,0 -122.67,24.63 -192.56,74.41 -69.88,49.77 -122.67,74.41 -157.87,74.41 -49.77,0 -93.51,-18.61 -130.72,-56.31 -37.2,-37.71 -55.81,-81.45 -55.81,-132.23 0,-54.81 23.13,-103.57 69.39,-145.81l468.58 -429.87 -420.32 0c-54.8,0 -99.55,-17.59 -134.24,-52.79 -34.69,-34.69 -52.29,-79.94 -52.29,-134.24 0,-54.8 17.6,-99.55 52.29,-134.24 34.69,-35.19 79.44,-52.79 134.24,-52.79l901.98 0c56.31,0 104.07,12.57 143.79,37.21 46.25,28.65 69.38,69.38 69.38,122.17z"/>
  <path class="fil24" d="M1962.27 1169.66c-47.67,27.61 -108.72,11.34 -136.33,-36.33 -27.61,-47.67 -11.34,-108.72 36.33,-136.33l1587.73 -916.68c47.67,-27.61 108.72,-11.34 136.33,36.33 27.61,47.67 11.34,108.72 -36.33,136.33l-1587.73 916.68z"/>
  <path class="fil24" d="M2012.27 2916.67c0,55.22 -44.78,100 -100,100 -55.22,0 -100,-44.78 -100,-100l0 -1833.34c0,-55.22 44.78,-100 100,-100 55.22,0 100,44.78 100,100l0 1833.34z"/>
  <path class="fil24" d="M3550 3747.02c47.67,27.61 63.94,88.66 36.33,136.33 -27.61,47.67 -88.66,63.94 -136.33,36.33l-1587.73 -916.68c-47.67,-27.61 -63.94,-88.66 -36.33,-136.33 27.61,-47.67 88.66,-63.94 136.33,-36.33l1587.73 916.68z"/>
  <path class="fil25" d="M5037.73 2830.34c47.67,-27.61 108.72,-11.34 136.33,36.33 27.61,47.67 11.34,108.72 -36.33,136.33l-1587.73 916.68c-47.67,27.61 -108.72,11.34 -136.33,-36.33 -27.61,-47.67 -11.34,-108.72 36.33,-136.33l1587.73 -916.68z"/>
  <path class="fil25" d="M4987.73 1083.33c0,-55.22 44.78,-100 100,-100 55.22,0 100,44.78 100,100l0 1833.34c0,55.22 -44.78,100 -100,100 -55.22,0 -100,-44.78 -100,-100l0 -1833.34z"/>
  <path class="fil25" d="M3450 252.98c-47.67,-27.61 -63.94,-88.66 -36.33,-136.33 27.61,-47.67 88.66,-63.94 136.33,-36.33l1587.73 916.68c47.67,27.61 63.94,88.66 36.33,136.33 -27.61,47.67 -88.66,63.94 -136.33,36.33l-1587.73 -916.68z"/>
 </g>
</svg>
