<?xml version="1.0" encoding="UTF-8"?>
<!DOCTYPE svg PUBLIC "-//W3C//DTD SVG 1.1//EN" "http://www.w3.org/Graphics/SVG/1.1/DTD/svg11.dtd">
<!-- Creator: CorelDRAW 2017 -->
<svg xmlns="http://www.w3.org/2000/svg" xml:space="preserve" width="70mm" height="40mm" version="1.1" style="shape-rendering:geometricPrecision; text-rendering:geometricPrecision; image-rendering:optimizeQuality; fill-rule:evenodd; clip-rule:evenodd"
viewBox="0 0 7000 4000"
 xmlns:xlink="http://www.w3.org/1999/xlink">
 <defs>
  <style type="text/css">
   <![CDATA[
    .fil0 {fill:white}
    .fil5 {fill:#F59593;fill-rule:nonzero}
    .fil8 {fill:#B55F5A;fill-rule:nonzero}
    .fil16 {fill:#EFF7F5;fill-rule:nonzero}
    .fil7 {fill:#C17775;fill-rule:nonzero}
    .fil9 {fill:#C2C5D0;fill-rule:nonzero}
    .fil19 {fill:#A2545C;fill-rule:nonzero}
    .fil14 {fill:#9DB2B6;fill-rule:nonzero}
    .fil13 {fill:#32788F;fill-rule:nonzero}
    .fil12 {fill:#2B6072;fill-rule:nonzero}
    .fil18 {fill:#31414A;fill-rule:nonzero}
    .fil17 {fill:#242A2E;fill-rule:nonzero}
    .fil6 {fill:#272F33;fill-rule:nonzero}
    .fil3 {fill:#3FAD1A;fill-rule:nonzero}
    .fil10 {fill:#4D4D4D;fill-rule:nonzero}
    .fil1 {fill:#74B3CE;fill-rule:nonzero}
    .fil11 {fill:gray;fill-rule:nonzero}
    .fil4 {fill:#B8B82C;fill-rule:nonzero}
    .fil20 {fill:#B8B82C;fill-rule:nonzero}
    .fil15 {fill:#FF99CC;fill-rule:nonzero}
    .fil2 {fill:#FCC351;fill-rule:nonzero;fill-opacity:0.501961}
   ]]>
  </style>
 </defs>
 <g id="Camada_x0020_1">
  <metadata id="CorelCorpID_0Corel-Layer"/>
  <polygon class="fil0" points="3500,166.65 4293.86,624.99 5087.73,1083.33 5087.73,2000 5087.73,2916.67 4293.86,3375.01 3500,3833.35 2706.14,3375.01 1912.27,2916.67 1912.27,2000 1912.27,1083.33 2706.14,624.99 "/>
  <path class="fil1" d="M4180.25 2263.95c0,198.1 -69.39,366.52 -208.65,505.29 -138.77,138.76 -307.2,208.15 -505.29,208.15 -125.19,0 -244.35,-32.18 -358.48,-96.03 -118.15,-66.37 -204.62,-152.85 -259.93,-260.44 -18.6,-36.7 -28.15,-69.38 -28.15,-98.54 0,-50.78 19.6,-94.02 59.32,-130.22 39.22,-36.2 84.97,-54.3 136.25,-54.3 49.28,0 94.02,22.63 134.75,68.88l113.62 127.7c54.81,45.76 122.18,68.88 202.62,68.88 94.52,0 174.96,-33.18 240.83,-99.04 65.86,-65.86 99.04,-145.81 99.04,-240.33 0,-94.52 -33.18,-174.46 -99.04,-240.32 -65.87,-65.86 -146.31,-99.05 -240.83,-99.05 -80.44,0 -147.81,23.13 -202.62,68.88 -36.7,41.23 -73.4,82.96 -110.1,124.19 -49.28,48.26 -95.03,72.4 -138.27,72.4 -52.28,0 -98.04,-18.1 -136.75,-53.8 -39.22,-36.2 -58.82,-79.94 -58.82,-131.22l126.69 -815.5c17.1,-111.11 77.93,-166.92 182.51,-166.92l863.76 0c54.8,0 99.55,17.6 134.74,52.79 35.2,34.69 52.8,79.44 52.8,134.24 0,54.3 -17.6,99.55 -52.8,134.24 -35.19,35.2 -79.94,52.79 -134.74,52.79l-699.86 0 -28.65 183.01c67.37,-19.61 134.24,-29.16 201.61,-29.16 198.09,0 367.02,69.38 505.79,208.15 139.26,138.76 208.65,307.19 208.65,505.28z"/>
  <path class="fil2" d="M1962.27 1169.66c-47.67,27.61 -108.72,11.34 -136.33,-36.33 -27.61,-47.67 -11.34,-108.72 36.33,-136.33l1587.73 -916.68c47.67,-27.61 108.72,-11.34 136.33,36.33 27.61,47.67 11.34,108.72 -36.33,136.33l-1587.73 916.68z"/>
  <path class="fil3" d="M2012.27 2916.67c0,55.22 -44.78,100 -100,100 -55.22,0 -100,-44.78 -100,-100l0 -1833.34c0,-55.22 44.78,-100 100,-100 55.22,0 100,44.78 100,100l0 1833.34z"/>
  <path class="fil3" d="M3550 3747.02c47.67,27.61 63.94,88.66 36.33,136.33 -27.61,47.67 -88.66,63.94 -136.33,36.33l-1587.73 -916.68c-47.67,-27.61 -63.94,-88.66 -36.33,-136.33 27.61,-47.67 88.66,-63.94 136.33,-36.33l1587.73 916.68z"/>
  <path class="fil3" d="M5037.73 2830.34c47.67,-27.61 108.72,-11.34 136.33,36.33 27.61,47.67 11.34,108.72 -36.33,136.33l-1587.73 916.68c-47.67,27.61 -108.72,11.34 -136.33,-36.33 -27.61,-47.67 -11.34,-108.72 36.33,-136.33l1587.73 -916.68z"/>
  <path class="fil3" d="M4987.73 1083.33c0,-55.22 44.78,-100 100,-100 55.22,0 100,44.78 100,100l0 1833.34c0,55.22 -44.78,100 -100,100 -55.22,0 -100,-44.78 -100,-100l0 -1833.34z"/>
  <path class="fil3" d="M3450 252.98c-47.67,-27.61 -63.94,-88.66 -36.33,-136.33 27.61,-47.67 88.66,-63.94 136.33,-36.33l1587.73 916.68c47.67,27.61 63.94,88.66 36.33,136.33 -27.61,47.67 -88.66,63.94 -136.33,36.33l-1587.73 -916.68z"/>
  <g id="_1353121956576">
   <path class="fil4" d="M1296.09 1241.45c21.3,59.14 23.25,127.88 3.18,185.06 -42.65,121.43 -174.85,198.65 -200.26,321.6 -12.78,62.14 2.42,128.17 -21.02,189.32 -18.01,47.19 -65.01,97.29 -104.04,129.36 -102.69,84.23 -234.71,135.69 -367.86,131.1 -144.8,-5.02 -384.27,-97.04 -368.2,-275.01 11.5,-128.06 104.71,-103.9 194.84,-143.01 101.2,-43.91 118,-117.11 90.94,-212.96 -36.06,-128.03 22.26,-175.22 141.61,-194.5 98.64,-15.89 146.52,-79.38 201.21,-158.74 50.64,-73.48 108.37,-138.64 200.49,-150.02 92.03,-11.36 151.57,49.05 201.1,122.12 11.49,16.94 20.83,35.76 28.01,55.68z"/>
   <path class="fil5" d="M1038.75 1568.69c3.77,-52.38 4.94,-109.03 -11.42,-159.81 48.91,19.45 130.08,74.29 130.08,74.29 -27.1,130.26 14.2,230.58 24.67,252.12 -37.09,27.7 -106.46,100.42 -164.05,-5.93 -0.66,0.19 10.58,-39.91 12.89,-99.42 3.73,-20.24 6.33,-40.69 7.83,-61.25z"/>
   <path class="fil6" d="M1150.74 1525.57c0.04,0 0.08,-0.01 0.08,-0.01 0.76,-6.94 1.64,-13.97 2.74,-21.1 -0.03,0 -0.03,0.01 -0.03,0.01 -1.14,7.14 -2.06,14.18 -2.79,21.1z"/>
   <path class="fil7" d="M1053.94 1605.84c6.7,-26.05 12.23,-50.85 14.32,-68.16 1.35,-11.4 13.47,-14.25 28.37,-14.25 7.47,0 15.67,0.71 23.54,1.43 7.87,0.72 15.45,1.43 21.75,1.43 3.37,0 6.37,-0.21 8.82,-0.72 0.73,-6.92 1.65,-13.96 2.79,-21.1 -9.85,2.94 -19.45,4.34 -28.89,4.34 -29.66,0 -57.55,-13.82 -85.19,-37.41 1.17,13.15 1.68,26.41 1.68,39.63 0,19.46 -1.03,38.83 -2.38,57.66 -0.26,3.88 -0.58,7.75 -0.95,11.63 3.03,-2.11 5.89,-4.31 8.38,-6.6 0,0 2.16,14.86 7.76,32.12z"/>
   <path class="fil5" d="M938.11 1349.99c82.51,118 153.76,196.05 246.2,140.6 92.41,-55.51 122.39,-175.45 66.86,-267.85 -55.51,-92.43 -175.37,-122.38 -267.81,-66.89 -92.44,55.51 -107.05,105.76 -45.25,194.14z"/>
   <path class="fil5" d="M1339.25 1649.72c39.36,-25.28 249.98,-62.99 214.83,-109.78 -35.03,-46.77 -222.26,37.95 -258.95,45.56 -35.18,7.3 -100.02,13.97 -126.16,42.28 -13.87,14.96 -10.14,49.18 9.81,58.71 22.92,10.98 61.22,26.98 160.47,-36.77z"/>
   <path class="fil5" d="M1532.74 1500.74c20.76,-20.81 108.88,-161.55 134.73,-258.83 4.68,-17.61 37.89,22.85 37.89,22.85 -9.19,44.87 -73.41,235.44 -112.22,278.51 -18.26,20.38 -67.03,46.34 -81.35,32.03 -27.38,-27.24 7.69,-61.27 20.95,-74.56z"/>
   <path class="fil5" d="M1705.36 1264.76c-0.95,2.28 -10.07,9.19 -24.42,1.48 -14.35,-7.68 -13.47,-24.33 -13.47,-24.33 3.21,-17.35 -6.05,-17.35 -2.9,-45.35 1.14,-9.93 -11.97,-46.69 -11.97,-46.69 0,0 16.55,-4.66 26.07,26.32 0.8,-45.09 -8.43,-81.98 2.6,-83.76 49.46,-7.11 72.05,66.61 60.51,103.93 -6.62,21.52 -20.93,31.85 -36.42,68.4z"/>
   <polygon class="fil5" points="1337.7,3752.82 1366.16,3662.62 1327.49,3652.2 1305.85,3748.64 "/>
   <path class="fil8" d="M1284.17 3777.93c17.59,7.72 48.98,16.72 67.16,20.91 37.62,8.73 61.61,6.51 61.61,6.51l2.21 -8.21 -125.95 -37.73 -1.36 4.84 -3.67 13.68z"/>
   <path class="fil9" d="M1343.95 3740.69c4.02,-4.2 12.09,5.63 15.03,8.8 3.85,4.12 8.96,10.4 12.71,14.52 8.17,8.9 18.13,12.53 28.32,17.95 5.94,3.09 13.58,7.99 15.14,15.18 0,0 -42.01,1.02 -61.07,-8.65 -16.14,-8.15 -46.6,-17.64 -66.24,-24.24 0,0 -0.3,-5.47 1.83,-13.53 2.3,-8.65 10.5,-16.66 10.5,-16.66 -0.32,-3.56 1.9,-5.33 3.59,-4.46 4.4,2.19 3.65,3.89 6.72,9.81 2.51,4.88 7.66,8.86 11.64,7.81 9.98,-2.67 13.33,-3.19 20.24,-2.52l1.59 -4.01z"/>
   <path class="fil10" d="M1513.66 2988.88c14.01,12.71 20.93,18.47 22.96,33.15 1.5,10.9 -0.05,30.81 -1.37,40.59 -24.71,182.97 -151.61,598.77 -169.29,657.06 -0.6,5.95 -54.34,17.17 -69.37,-20.65 29.41,-61.86 65.84,-319.06 62.74,-379.13 -3.33,-65.23 4.38,-125.46 26.97,-183.84 19.84,-51.34 21.8,-25.81 29.24,-91.47 5.83,-51.75 73.75,-77.86 98.12,-55.71z"/>
   <path class="fil10" d="M1231.5 2190.74c121.59,229.21 311.78,808.43 304.94,833.1 -9.93,35.92 -133.2,37.99 -116.87,16.1 5.48,-7.36 3,-17.04 1.88,-24.35 -3.03,-19.81 -25.15,-39.58 -38.49,-59.55 -58.17,-86.65 -384.3,-383.61 -315.14,-690.65l-9.3 -58.9 172.98 -15.75z"/>
   <polygon class="fil5" points="1074.77,3767.01 1091.83,3674.01 1052.19,3668.49 1042.71,3766.78 "/>
   <path class="fil8" d="M1024.8 3798.6c18.38,5.45 50.74,10.51 69.27,12.41 38.33,3.92 61.95,-1.21 61.95,-1.21l1.16 -8.46 -129.7 -21.74 -0.7 4.98 -1.98 14.02z"/>
   <path class="fil9" d="M1079.5 3754.19c3.51,-4.65 12.7,4.07 15.99,6.85 4.33,3.62 10.22,9.22 14.47,12.85 9.15,7.8 19.51,10.25 30.31,14.28 6.22,2.34 14.46,6.25 16.91,13.17 0,0 -41.51,6.23 -61.69,-0.95 -16.98,-6.04 -48.47,-11.71 -68.71,-15.81 0,0 -0.95,-5.42 0.14,-13.66 1.18,-8.9 8.28,-17.87 8.28,-17.87 -0.7,-3.47 1.28,-5.52 3.04,-4.83 4.68,1.61 4.1,3.48 7.91,8.93 3.11,4.44 8.71,7.8 12.51,6.23 9.52,-3.88 12.89,-4.79 19.74,-4.94l1.1 -4.25z"/>
   <path class="fil11" d="M1117.69 2989.76c26.72,11.02 37.37,15.7 38.22,38.84 6.66,184.59 -51.7,646.51 -59.21,706.99 0.41,5.93 -45.24,12.81 -66.48,-21.96 18.45,-65.91 7.76,-318.26 -5.45,-376.87 -14.4,-63.71 -17.03,-124.37 -4.62,-185.8 10.87,-53.89 36.43,-65.24 33.28,-131.25 -1.43,-30.24 33.98,-42.47 64.26,-29.95z"/>
   <path class="fil11" d="M1136.39 2315.17c6.95,76.59 32.11,714.97 20.03,737.49 -17.65,32.88 -108,53.3 -104.23,26.21 5.56,-39.94 -22.56,-88.27 -34.42,-118.94 -37.52,-97.43 -257.7,-523.61 -63.33,-771.11l261.25 3.34c-32.11,53.74 -79.3,123.01 -79.3,123.01z"/>
   <path class="fil5" d="M954.44 2188.82c50.3,-97.19 59.56,-173.85 52.83,-232.28 -13.99,-121.81 -59.2,-172.11 -64.8,-238.25 -1.98,-23.57 16.36,-110.28 16.36,-110.28 19.62,-0.97 65.35,-14.25 87.35,-34.29 0,0 12.19,84.37 54.29,84.61 42.07,-0.24 48,-78.46 48,-78.46 10.69,14.96 28.74,23.28 47.52,28.14 16.29,4.23 45.76,122.14 43.79,145.75 -5.64,66.16 -102.81,207.52 -8.28,436.98 0,0 -25.15,52.77 -116.78,55.16 -91.6,2.33 -160.28,-57.08 -160.28,-57.08z"/>
   <path class="fil12" d="M1195.08 2225.64c0.69,-0.4 1.39,-0.81 2.05,-1.21 -0.66,0.4 -1.36,0.81 -2.05,1.21 0,0.01 0,0 0,0z"/>
   <path class="fil13" d="M1109.45 2245.97c1.76,0 3.51,-0.02 5.27,-0.07 36.46,-0.93 62.35,-9.85 80.36,-20.26 0,0 0,0.01 0,0 -18.01,10.4 -43.94,19.31 -80.36,20.26 -1.76,0.05 -3.51,0.07 -5.27,0.07 -88.97,0 -155.01,-57.15 -155.01,-57.15l0 0c0,0 66.04,57.15 155.01,57.15z"/>
   <path class="fil14" d="M1000.97 2064.21c1.94,-8.94 3.51,-17.61 4.72,-26.04 0,0.01 0,0.01 0,0.01 -1.25,8.43 -2.78,17.1 -4.72,26.03z"/>
   <path class="fil6" d="M1005.69 2038.18c0,0 0,0 0,-0.01 2.64,-18.31 3.7,-35.45 3.48,-51.44l0 0c0.18,16 -0.84,33.13 -3.48,51.45z"/>
   <path class="fil14" d="M1191.42 2025.9c0,0 0.03,0 0.03,0 -0.91,-13.54 -1.24,-26.56 -0.95,-39.17l-0.07 0c-0.22,12.6 0.07,25.65 0.99,39.17z"/>
   <path class="fil7" d="M1109.45 2245.97c1.76,0 3.51,-0.02 5.27,-0.07 36.42,-0.95 62.35,-9.86 80.36,-20.26 0.69,-0.4 1.39,-0.81 2.05,-1.21 7.61,-4.59 13.69,-9.41 18.56,-13.93 -11.31,4.17 -22.81,7.37 -33.5,9.89 -9.89,2.35 -22.88,3.58 -37.2,3.58 -52.06,0 -121.69,-16.29 -124.37,-54.47 -10.68,-155.22 64.41,-118.53 170.8,-143.6 -0.92,-13.52 -1.21,-26.57 -0.99,-39.17l-181.26 0c0.22,15.99 -0.84,33.13 -3.48,51.44 -1.21,8.43 -2.78,17.1 -4.72,26.04 -8.06,37.09 -22.66,78.55 -46.53,124.61 0,0 66.04,57.15 155.01,57.15z"/>
   <path class="fil15" d="M959.45 1976.14c15.41,-111.22 -11.38,-191.71 -16.98,-257.85 -1.98,-23.57 16.36,-110.28 16.36,-110.28 19.62,-0.97 65.35,-14.25 87.35,-34.29 0,0 12.19,84.37 54.29,84.61 42.07,-0.24 48,-78.46 48,-78.46 10.69,14.96 28.74,23.28 47.52,28.14 16.29,4.23 45.76,122.14 43.79,145.75 -5.64,66.16 -8.28,154.39 -8.28,231.98 -37.74,40.78 -234.34,31.18 -272.05,-9.6z"/>
   <path class="fil5" d="M833.81 1643.45c-36.55,-29.2 -242.15,-88.36 -202.42,-131.29 39.64,-42.93 217.21,60.65 252.93,71.96 34.27,10.87 98.01,24.18 121.12,55.07 12.22,16.29 5.04,49.96 -15.79,57.38 -24.01,8.53 -63.73,20.52 -155.84,-53.12z"/>
   <path class="fil5" d="M656.68 1475.39c-18.53,-22.84 -107.85,-248.45 -114.15,-271.7 -4.83,-17.56 -39.98,18.89 -39.98,18.89 3.44,31.26 55.47,242.04 89.66,288.89 16.11,22.12 61.94,52.97 77.61,40.24 30.02,-24.32 -1.32,-61.76 -13.14,-76.32z"/>
   <path class="fil5" d="M502.55 1222.58c0.62,2.34 8.97,10.15 24.05,3.97 15.08,-6.16 15.93,-22.86 15.93,-22.86 -1.43,-17.56 7.76,-16.61 7.51,-44.79 -0.12,-10.01 16.72,-45.2 16.72,-45.2 0,0 -15.96,-6.33 -28.66,23.51 3.88,-44.98 16.84,-80.69 6.08,-83.57 -48.52,-12.2 -78.53,58.79 -70.92,97.12 4.39,22.11 17.61,33.82 29.29,71.82z"/>
   <path class="fil16" d="M1199.54 1415.2c0,0 -20.57,-4.76 -44.7,-4.74 -24.16,0 -48.51,4.57 -48.51,4.57 0,0 10.25,42.81 47.38,42.87 37.63,0.07 45.83,-42.7 45.83,-42.7z"/>
   <path class="fil17" d="M1215.47 1335.16c1.25,4.53 5.9,7.2 10.43,5.99 4.55,-1.23 7.21,-5.91 5.97,-10.43 -1.21,-4.53 -5.89,-7.2 -10.43,-5.99 -4.51,1.25 -7.18,5.91 -5.97,10.43z"/>
   <path class="fil17" d="M1088.65 1331.71c1.28,4.52 5.93,7.21 10.43,5.98 4.51,-1.2 7.25,-5.9 6.01,-10.43 -1.21,-4.53 -5.9,-7.2 -10.43,-5.98 -4.54,1.22 -7.18,5.9 -6.01,10.43z"/>
   <path class="fil18" d="M1105.45 1311.09c-4.5,-2.81 -9.22,-3.93 -14.35,-2.35 -4.64,1.42 -6.19,6.39 -9.88,8.97 -0.8,0.57 -2.31,0.23 -2.71,-0.71 -2.82,-6.35 2.96,-12.38 7.98,-15.6 7.43,-4.8 16.73,-3.07 23.79,1.4 5.24,3.3 0.44,11.56 -4.83,8.29z"/>
   <path class="fil18" d="M1211.7 1308.08c8.64,-12.08 38.51,3.83 30.64,13.45 -0.48,0.55 -1.28,0.65 -1.94,0.51 -3.26,-0.71 -6,-4.88 -8.86,-6.6 -2.49,-1.48 -5.3,-2.14 -8.16,-2.33 -2.86,-0.19 -5.27,1.19 -8.13,1.18 -2.89,-0.01 -5.42,-3.59 -3.55,-6.21z"/>
   <path class="fil19" d="M1158.69 1395.35c2.2,0 4.39,-0.38 6.44,-1.09 4.58,-1.96 8.64,-5.81 9.85,-10.82 1.42,-5.1 -1.21,-10.06 -4.47,-13.2 2.23,4.07 3.48,8.59 2.23,12.56 -1.32,3.97 -4.9,6.87 -8.86,8.18 -2.09,0.9 -4.35,1.42 -6.66,1.42 -1.9,0 -3.84,-0.37 -5.56,-1.18 -3.81,-1.82 -6.49,-5.66 -7.91,-10.06 0.03,4.61 2.16,9.72 6.81,12.14 2.49,1.41 5.31,2.05 8.13,2.05z"/>
   <path class="fil20" d="M961.45 1556.86c-86.5,-103.04 -95.74,-148.75 -120.71,-211.18 -77.72,-194.86 125.38,-318.77 255.46,-283.25 50.2,43.82 100.41,87.64 150.61,131.46 14.1,26.47 33.5,64.51 47.6,90.98 -24.93,-8 -22.83,6.18 -80.09,-35.59 -57.26,-41.77 -51.39,-69.04 -77.09,-103.56 0,0 -10.22,43.03 -77.38,96.89 -160.22,128.52 66.75,255.35 33.46,481.35 -27.87,-29.75 -87.71,-114.42 -131.86,-167.1z"/>
   <path class="fil20" d="M833.42 1225.11c-28.56,69.57 12.83,156.67 43.09,218.65 30.87,63.25 79.78,128 87.89,199.59 0.23,2.12 3.32,2.87 3.92,0.53 6.03,-23.69 -6.58,-49.94 -15.94,-71.15 -15.8,-35.83 -35.46,-69.96 -53.58,-104.64 -39.67,-75.93 -77.41,-154.86 -63.54,-242.47 0.18,-1.22 -1.37,-1.64 -1.84,-0.51z"/>
   <path class="fil20" d="M840.29 1345.81c11.22,64.13 55.38,123.18 90.06,176.56 21,32.32 42.02,64.57 61.72,97.72 18.49,31.11 32.61,64.02 49.22,96.05 1,1.89 3.7,0.52 3.3,-1.4 -6.4,-31.07 -22.83,-60.25 -38.2,-87.62 -18.83,-33.49 -40.28,-65.47 -61.51,-97.47 -39.36,-59.36 -76.06,-118.28 -103.68,-184.1 -0.23,-0.56 -1.02,-0.36 -0.91,0.26z"/>
   <path class="fil20" d="M1191.99 1127.6c2.91,21.23 7.77,38.21 20.52,55.81 13.94,19.24 31.76,35.43 46.62,53.94 34.51,42.98 50.73,97.24 33.35,151.05 -0.56,1.72 -3.4,1.51 -3.27,-0.43 2.13,-32.2 3.41,-63.33 -7.45,-94.23 -8.96,-25.55 -26.4,-47.04 -43.72,-67.36 -22.08,-25.89 -58.35,-60.82 -48.15,-98.78 0.25,-0.96 1.95,-1.1 2.1,0z"/>
  </g>
 </g>
</svg>
