<?xml version="1.0" encoding="UTF-8"?>
<!DOCTYPE svg PUBLIC "-//W3C//DTD SVG 1.1//EN" "http://www.w3.org/Graphics/SVG/1.1/DTD/svg11.dtd">
<!-- Creator: CorelDRAW 2017 -->
<svg xmlns="http://www.w3.org/2000/svg" xml:space="preserve" width="70mm" height="40mm" version="1.1" style="shape-rendering:geometricPrecision; text-rendering:geometricPrecision; image-rendering:optimizeQuality; fill-rule:evenodd; clip-rule:evenodd"
viewBox="0 0 7000 4000"
 xmlns:xlink="http://www.w3.org/1999/xlink">
 <defs>
  <style type="text/css">
   <![CDATA[
    .fil14 {fill:white}
    .fil1 {fill:#F59593;fill-rule:nonzero}
    .fil2 {fill:#B55F5A;fill-rule:nonzero}
    .fil10 {fill:#EFF7F5;fill-rule:nonzero}
    .fil8 {fill:#DAE1E4;fill-rule:nonzero}
    .fil6 {fill:#C17775;fill-rule:nonzero}
    .fil12 {fill:#B06D6C;fill-rule:nonzero}
    .fil7 {fill:#C2CACE;fill-rule:nonzero}
    .fil3 {fill:#C2C5D0;fill-rule:nonzero}
    .fil5 {fill:#9DB2B6;fill-rule:nonzero}
    .fil9 {fill:#766255;fill-rule:nonzero}
    .fil0 {fill:#293339;fill-rule:nonzero}
    .fil4 {fill:#242B2F;fill-rule:nonzero}
    .fil11 {fill:#242A2E;fill-rule:nonzero}
    .fil13 {fill:#24292D;fill-rule:nonzero}
    .fil17 {fill:#3FAD1A;fill-rule:nonzero}
    .fil15 {fill:#74B3CE;fill-rule:nonzero}
    .fil16 {fill:#FCC351;fill-rule:nonzero;fill-opacity:0.501961}
   ]]>
  </style>
 </defs>
 <g id="Camada_x0020_1">
  <metadata id="CorelCorpID_0Corel-Layer"/>
  <g id="_1353088998064">
   <path class="fil0" d="M6015.77 1367.43c33.82,141.49 177.47,332.76 259.9,314.12 100.02,-22.59 98.9,-208.09 61.25,-304.29 -37.6,-96.21 -88.35,-161.99 -198.49,-230.85 -129.08,-80.69 -156.43,79.53 -122.66,221.02z"/>
   <path class="fil1" d="M5325.32 3743.51c11.64,-37.79 27.12,-76.49 44.47,-115.4l-59.39 -18.72c-12.77,58.98 -22.43,104.23 -26.6,123.93 -11.64,12.56 -59.05,8.49 -71.68,8.94 -7.52,0.32 -29.44,1.84 -25.16,11.8 5.25,12.15 38.69,26.31 62.72,25.83 20.3,-0.42 44.59,9.36 57.19,7.27 12.51,-2.13 16.87,-8.14 18.67,-17.37 1.5,-7.52 0.4,-20.29 -0.22,-26.28z"/>
   <path class="fil2" d="M5323.1 3812.42c-29.94,1.22 -59.99,-12.98 -103.64,-22.97 -56.55,-13.05 -83.84,-40.65 -83.84,-40.65l3.1 -9.74 190.91 51.86 -2.17 7.24 -4.36 14.26z"/>
   <path class="fil3" d="M5280.61 3725.35c-1.82,-8.53 -19.93,-2.37 -26.22,-0.66 -8.15,2.26 -25.77,4.24 -33.81,6.5 -17.48,4.98 -33.14,1.71 -50.4,0.49 -10.02,-0.73 -23.7,-0.59 -31.46,7.38 0,0 52.86,34.63 84.92,37.45 26.97,2.4 73.58,14.48 103.82,21.65 0,0 4.71,-6.82 8.45,-18.76 3.96,-12.84 -0.22,-29.59 -0.22,-29.59 3.3,-4.31 1.84,-8.35 -1.02,-8.59 -7.37,-0.63 -7.78,2.15 -16.4,7.27 -7.05,4.14 -16.78,5.22 -21.05,0.7 -10.63,-11.39 -8.45,-12.81 -17.75,-17.37l1.14 -6.47z"/>
   <path class="fil4" d="M5345.3 3723.74c23.35,-67.62 57.85,-138.27 91.36,-206.8 45.11,-92.15 87.75,-179.16 102.48,-255.42 3.49,-18.09 5.12,-33.65 6.67,-48.68 3.05,-28.89 6.18,-58.72 22.97,-110.05 3.12,-9.54 19.63,-70.97 -48.95,-91.61 -68.65,-20.67 -87.38,17.02 -94.14,42.04 -42.87,158.85 -121.77,524.45 -148.44,649.12 0,0 4.62,10.06 33.75,19.7 29.21,9.61 34.3,1.7 34.3,1.7z"/>
   <path class="fil4" d="M6101.95 2592.5l-16.66 -172.45 -233.3 -3.3 -5.6 78.13c-103.38,120.91 -370.38,392.93 -418.03,556.01l-0.42 1.78c-9.01,63.62 27.92,110.08 65.94,126.26l0.03 0c14.13,6.06 26.95,7.04 36.18,2.79 5.67,-2.58 9.84,-7.06 11.87,-12.71 22.01,-49.48 489.37,-306.79 559.99,-576.51z"/>
   <path class="fil0" d="M6256.37 2432.33l-21.79 -64.97c0,0 -71.4,20.18 -156.04,35.47 -84.56,15.27 -225.5,25.09 -225.14,28.71 0.34,3.58 121.37,73.78 128.04,143.07 3.53,36.2 108.42,458.37 223.7,616.16 57.81,107.68 140.87,-50.99 139.07,-56.73 -35.72,-79.73 19.5,-522.71 -87.84,-701.71z"/>
   <path class="fil4" d="M6223.4 2325.87c-179.62,71.39 -374.34,60.91 -374.34,60.91l4.34 44.76c238.46,12.6 381.18,-64.18 381.18,-64.18l-11.18 -41.49z"/>
   <path class="fil1" d="M6848.14 3602.81c0,0 -69.07,-62.48 -95.52,-91.57l-41.76 44.58c60.85,46.29 113.78,86.91 113.78,86.91 0,0 -5.86,56.66 -8.72,68.7 -1.72,7.27 -6.14,28.81 4.59,27.39 13.11,-1.81 35.8,-30.18 41.77,-53.46 5.03,-19.63 21.04,-40.44 22.39,-53.11 1.35,-12.67 -3.31,-18.48 -11.7,-22.69 -6.65,-3.31 -18.65,-5.64 -24.83,-6.75z"/>
   <path class="fil2" d="M6914.01 3622.4c-6.87,29.17 -28.63,54.33 -50.04,93.62 -27.77,50.99 -61.68,69.81 -61.68,69.81l-8.59 -5.6 101.37 -169.91 6.35 4.04 12.59 8.04z"/>
   <path class="fil3" d="M6818.75 3639.9c-8.72,-0.55 -7.68,18.52 -7.75,25.06 -0.01,8.5 -2.78,25.97 -2.78,34.32 0.02,18.16 -7.32,32.4 -13.12,48.73 -3.43,9.42 -6.98,22.65 -1.4,32.22 0,0 47.6,-41.59 59,-71.66 9.58,-25.4 33.74,-66.96 48.72,-94.21 0,0 -5.26,-6.37 -15.78,-13.12 -11.28,-7.31 -28.54,-7.83 -28.54,-7.83 -3.27,-4.32 -7.56,-4.01 -8.53,-1.32 -2.63,6.95 -0.02,8.07 2.55,17.78 2.13,7.9 0.51,17.54 -5.03,20.43 -13.75,7.17 -14.58,4.7 -21.45,12.43l-5.89 -2.83z"/>
   <path class="fil0" d="M6835.68 3580.04c-76.44,-65.98 -135.12,-133.99 -187.15,-194.33 -58.22,-67.6 -108.56,-125.93 -170.4,-168.39 -15.16,-10.37 -28.81,-18.09 -41.96,-25.54 -25.24,-14.27 -51.39,-29.07 -91.74,-64.91 -7.51,-6.68 -61.82,-78.13 -117.78,-27.6 -56.03,50.53 -5.01,122.79 15.23,138.97 136.63,109.11 466.42,339.61 547.05,395.61 0,0 10.05,-0.76 29.33,-22.94 19.23,-22.16 17.42,-30.87 17.42,-30.87z"/>
   <path class="fil1" d="M6149.51 1791.3c-2.78,-33.02 4.16,-64.01 8.28,-96.48 6.37,-50.41 19.96,-93.69 45.4,-140.97 -55.71,7.46 -143.69,34.82 -143.69,34.82 2.65,121.86 -60.39,201.28 -75.59,217.94 33.31,33.13 91.29,113.39 172.21,33.52 -2.84,-16.24 -5.24,-32.52 -6.61,-48.83z"/>
   <path class="fil5" d="M6150.59 1746.99c0,-0.03 0.01,-0.05 0.01,-0.08 0,0.03 -0.01,0.05 -0.01,0.08zm0.01 -0.11c1.91,-17.3 4.98,-34.47 7.19,-52.06 2.78,-21.99 6.93,-42.62 12.84,-62.82l0 0c-5.91,20.2 -10.06,40.83 -12.84,62.82 -2.23,17.6 -5.29,34.77 -7.19,52.06z"/>
   <path class="fil5" d="M6058.18 1626.94c0.39,-4.26 0.7,-8.58 0.93,-12.97 -0.02,0 -0.03,0 -0.05,0 -0.23,4.37 -0.54,8.68 -0.93,12.93 0.01,0.01 0.03,0.02 0.05,0.04z"/>
   <path class="fil6" d="M6117.63 1782.99c5.73,0 10.31,-1.08 12.8,-3.67 8.37,-8.67 14.57,-16.57 19.34,-23.93 0.24,-2.8 0.51,-5.61 0.82,-8.4 0,-0.03 0.01,-0.05 0.01,-0.08 0,-0.01 0,-0.02 0,-0.03 1.9,-17.29 4.96,-34.46 7.19,-52.06 2.78,-21.99 6.93,-42.62 12.84,-62.82 2.44,-8.32 5.17,-16.56 8.22,-24.8 -2.02,0.19 -4,0.29 -5.95,0.29 -3.02,0 -5.96,-0.24 -8.78,-0.73 0.07,-0.69 0.14,-1.37 0.21,-2.05 -13.56,3.02 -26.98,4.42 -40.07,4.43 -4.91,0 -9.77,-0.2 -14.57,-0.59 -10.14,4.56 -21.13,7.23 -33.14,7.24 -5.58,0 -11.39,-0.58 -17.44,-1.82 -0.23,4.39 -0.54,8.71 -0.93,12.97 28.54,25.88 85.77,11.18 83.7,31.3 -1.07,10.64 11.31,83.05 -82.64,96.88 -22.31,3.31 31.1,27.87 58.39,27.87z"/>
   <path class="fil7" d="M6283.84 1782.47c-41.23,-16.37 -112.99,-45.56 -128.6,-67.67l-85.34 56.99 -26.14 -72.29c-12.46,11.15 -134.82,-1.51 -152.41,-0.87 -82.52,172.16 -104.28,630.9 -74.35,661.8 29.95,30.87 97.97,35.71 189.68,18.66 10.78,62.09 19.07,153.65 29.53,157.72 62.83,24.47 215.21,-17.15 282.23,-33.48 0,0 -21.17,-134.16 -21.17,-278.84 -0.02,-144.75 27.76,-425.63 -13.43,-442.02z"/>
   <path class="fil8" d="M6165.06 1703.94c-7.68,-6.04 -10.14,7.25 -10.14,7.25l-84.51 59.94 -26.65 -71.63c0,0 3.42,-13.08 -6.14,-10.86 -9.53,2.21 -42.32,15.77 -42.32,15.77 0,0 9.02,47.88 19.35,65.65l20.25 -2.4 1.23 23.85 30.87 -10.39 23.59 22.52 11.19 -21.11 17.33 10.75c16.87,-11.71 79.57,-52.86 79.57,-52.86 0,0 -25.94,-30.43 -33.62,-36.48z"/>
   <path class="fil1" d="M6248.84 1563.11c-118.41,94.91 -260,26.88 -279.8,-58.51 -22.09,-95.45 86.87,-199.81 118.71,-209.92 93.43,-29.67 194.42,-1.82 235.27,87.23 40.89,89.07 2.27,119.87 -74.18,181.2z"/>
   <path class="fil9" d="M6245.45 1237.34c-59.2,-20.83 -158.11,-34.68 -231.77,122.93 0,0 70.05,-14.89 104.05,-63.89 0,0 -0.12,71.25 95.68,113.57 22.24,9.79 21.53,30.77 0.69,52.54 -9.18,9.58 -17.76,25.09 -18.37,39.26 -0.39,9.78 3.38,8.67 8.8,7.56 1.84,-0.38 3.86,-0.76 5.99,-0.71 0.22,0.96 -0.05,1.8 -0.42,2.74 -15.25,36.27 -39.52,29.1 -45.98,95.42 50.6,8.89 137.85,-65.49 156.39,-96.04 91.21,-150.71 -12.1,-251.26 -75.06,-273.38z"/>
   <path class="fil9" d="M6102.74 1519.33c-0.28,-11.72 -16.1,-22.6 -37.27,-37.29 -21.18,-14.71 -36.83,-24.28 -45.69,-19.21 -8.85,5.11 -18.47,46.39 13.09,68.26 31.55,21.9 70.13,-0.04 69.87,-11.76zm114.42 -20.06c-42.54,30.88 -84.48,154.9 -186.43,104.7 -93.2,-45.89 -95.91,-123.71 -17.05,-243.7 -1.16,18.26 -2.94,75.66 52.2,113.92 55.11,38.25 141.8,9.26 149.97,8.4 -0.83,5.48 -0.3,11.32 1.31,16.68z"/>
   <path class="fil1" d="M6201.46 1508.75c4.47,-0.3 10.97,-7.13 16.31,-8.69 5.72,-1.69 12.09,-2.67 17.95,-0.38 12.38,4.85 19.19,18.37 14.13,30.89 -5.15,12.73 -16.57,20.43 -30.51,19.54 -10.14,-0.68 -27.79,-7 -28.43,-18.35 0,0 8.32,-22.84 10.55,-23.01z"/>
   <path class="fil6" d="M6221.54 1523.28c5.89,-0.42 11.7,-2.51 15.45,-5.88 0.47,-0.42 0.01,-1.01 -0.5,-1.01 -0.02,0 -0.06,0.01 -0.09,0.01 -4.69,0.68 -9.04,2.79 -13.67,3.44 -1.37,0.19 -2.69,0.27 -3.97,0.27 -4.43,0 -8.42,-1.01 -12.99,-2.08 -0.03,-0.01 -0.07,-0.01 -0.11,-0.01 -0.44,0 -0.79,0.56 -0.4,0.89 1.8,1.54 4.01,2.65 6.42,3.38 -0.78,-0.83 -0.25,-2.25 1.04,-2.25 0.08,0 0.18,0.01 0.28,0.02 2.79,0.43 5.98,1.6 8.54,3.22z"/>
   <path class="fil6" d="M6227.6 1534.51c0.49,0 0.98,-0.25 1.08,-0.8 0.63,-3.73 -2.58,-6.77 -5.19,-9.01 -0.59,-0.5 -1.25,-0.97 -1.95,-1.42 -2.56,-1.62 -5.75,-2.79 -8.54,-3.22 -0.1,-0.01 -0.2,-0.02 -0.28,-0.02 -1.29,0 -1.82,1.42 -1.04,2.25 0.15,0.16 0.34,0.3 0.59,0.41 3.43,1.41 6.24,2.94 8.87,5.6 1.92,1.96 3.31,4.92 5.88,6.09 0.17,0.08 0.38,0.12 0.58,0.12z"/>
   <path class="fil10" d="M6027.56 1464.78c0,0 17.83,7.1 35.86,19.61 17.98,12.53 33.87,28.57 33.87,28.57 0,0 -29.85,26.67 -57.62,7.44 -28.11,-19.44 -12.11,-55.62 -12.11,-55.62z"/>
   <path class="fil11" d="M6057.13 1396.75c-3.18,2.74 -8.11,2.33 -10.87,-0.94 -2.75,-3.27 -2.33,-8.13 0.94,-10.85 3.25,-2.76 8.13,-2.35 10.91,0.91 2.74,3.25 2.31,8.14 -0.98,10.88z"/>
   <path class="fil11" d="M6153.62 1459.86c-3.25,2.74 -8.11,2.33 -10.87,-0.93 -2.73,-3.28 -2.33,-8.14 0.93,-10.88 3.23,-2.74 8.12,-2.33 10.88,0.94 2.73,3.26 2.31,8.11 -0.94,10.87z"/>
   <path class="fil9" d="M6152.87 1427.1c7.61,0.49 14.21,3.8 17.83,10.74 2.33,4.45 3.89,14.09 -2.16,16.39 -0.73,0.28 -1.67,-0.17 -2.03,-0.82 -1.78,-3.22 -0.4,-7.37 -2.11,-10.81 -2.12,-4.25 -7.01,-6.44 -11.53,-6.78 -5.57,-0.4 -5.64,-9.08 0,-8.72z"/>
   <path class="fil9" d="M6066.08 1379.59c-2.2,-3.55 -6.38,-5.41 -10.42,-5.89 -3.16,-0.36 -7.26,1.5 -10.2,0.37 -0.82,-0.31 -1.24,-0.86 -1.33,-1.74 -0.54,-5.54 8.98,-6.29 12.54,-6.3 6.98,-0.02 13.31,3.15 16.95,9.15 2.92,4.84 -4.59,9.18 -7.54,4.41z"/>
   <path class="fil12" d="M6076.82 1473.88c4.17,0 7.89,-2.53 10.08,-5.6 -2.84,2.14 -6.13,3.54 -9.37,3.54 -0.58,0 -1.17,-0.05 -1.75,-0.14 -3.77,-0.66 -7.04,-3.29 -9.01,-6.52 -2.27,-3.01 -3.47,-7.05 -2.39,-10.69 1.13,-3.63 4.4,-6.37 8.17,-8.25 -4.07,0.66 -8.58,3.01 -10.17,7.55 -1.72,4.36 -0.66,9.35 1.74,13.19 2.69,3.66 6.8,6.42 11.4,6.84 0.44,0.05 0.87,0.08 1.3,0.08z"/>
   <path class="fil7" d="M6321.44 1910.09c-29.37,12.74 -62.87,22.76 -94.72,13.65 -41,-11.74 -63.35,-62.38 -41.03,-100.98 26.11,-45.09 84.27,-66.53 132.23,-78.3 63.22,-15.52 271.18,-72.02 285.4,-76.6 46.19,-15.01 84.65,70.14 53.66,93.49 -48.99,36.94 -278.45,123.94 -335.54,148.74z"/>
   <path class="fil1" d="M6481.33 1417.28c43.31,59.95 -6.35,73.31 -25.52,73.5 -19.15,0.19 -35.12,-50.57 -46.12,-69.24 -10.93,-18.69 -14.96,-14.46 -27.58,-45.11 -4.45,-10.88 -38.71,-41.36 -38.71,-41.36 0,0 14.41,-14.17 41.78,12.43 -24.7,-46.97 -55.1,-79.77 -44.76,-87.81 47.03,-35.35 111.94,27.9 121.2,72.9 5.32,25.96 -7.69,46.81 19.71,84.69z"/>
   <path class="fil7" d="M6671.75 1730.02c-3.87,42.84 -80.62,71.13 -112.55,26.5 -27.19,-38.03 -137.38,-293.55 -144.33,-307.63 4.96,-4.6 66.12,-36.1 71.04,-37.97 0,0 193.95,228.95 185.84,319.1z"/>
   <path class="fil7" d="M5784.29 1797.46c16.47,27.43 37.95,55.02 69.18,66.08 40.22,14.28 87.79,-13.97 92.06,-58.36 4.9,-51.87 -29.98,-103.09 -62.21,-140.55 -42.41,-49.34 -178.93,-216.12 -187.78,-228.1 -28.94,-39.05 -109.69,7.91 -98.06,44.93 18.46,58.52 154.69,262.64 186.81,316z"/>
   <path class="fil1" d="M5683.68 1108.32c2.19,-21.56 3.83,-21.6 11.17,-53.91 10.25,-45.41 -17.51,-59.82 -17.51,-59.82 0.57,-15.5 -1.27,-14.88 -9.88,-16.89 -57.41,-12.6 -78.28,26.54 -67.99,71.29 5.95,25.86 26.46,39.38 17.29,85.23 -14.44,72.54 36.24,64.05 53.75,56.26 17.53,-7.84 10.96,-60.62 13.17,-82.16z"/>
   <path class="fil7" d="M5603.68 1488.11c23.87,35.8 104.81,24.01 111.52,-30.43 5.78,-46.39 -19.41,-323.53 -20,-339.23 -6.57,-1.65 -75.37,-0.14 -80.59,0.59 0,0 -61.12,293.75 -10.93,369.07z"/>
   <path class="fil13" d="M6191.64 1228.34c0,0 68.39,-33.96 148.33,-34.19 22.5,-0.05 52.59,28.3 55.44,50.87 7.8,61.85 6.61,82.08 26.03,96.62 41.63,31.14 27.13,84.56 -5.22,121.25 -28.32,32.11 -86.29,49.65 -86.29,49.65 0,0 20.4,-95.13 -24.3,-162.75 -44.72,-67.63 -113.99,-121.45 -113.99,-121.45z"/>
   <path class="fil0" d="M6358.9 1545.52c5.09,-58.38 -4.32,-123.11 -21.98,-168.26 -32.19,-82.35 -74.3,-142.38 -154.69,-201.13l-85.68 34.14c0,0 251.98,114.84 174.5,392.69 0,0 56.89,-56.7 87.85,-57.44z"/>
  </g>
  <polygon class="fil14" points="3500,166.65 4293.86,624.99 5087.73,1083.33 5087.73,2000 5087.73,2916.67 4293.86,3375.01 3500,3833.35 2706.14,3375.01 1912.27,2916.67 1912.27,2000 1912.27,1083.33 2706.14,624.99 "/>
  <path class="fil15" d="M4141.04 1780.8c0,164.4 -51.79,302.16 -154.85,413.27 -25.14,26.65 -142.79,119.66 -353.96,279.54l321.28 0c54.8,0 99.54,17.6 134.74,52.8 35.19,34.69 52.79,79.43 52.79,134.24 0,54.29 -17.6,99.54 -52.79,134.24 -35.2,35.19 -79.94,52.79 -134.74,52.79l-878.85 0c-57.32,0 -105.58,-13.08 -145.3,-38.72 -46.76,-29.66 -70.39,-71.89 -70.39,-125.69 0,-61.84 34.19,-119.66 102.06,-173.96 38.22,-19.61 105.08,-55.3 200.61,-106.59 403.73,-224.74 605.34,-432.88 605.34,-623.94 0,-70.38 -24.64,-130.21 -73.91,-178.98 -48.77,-48.77 -108.6,-73.41 -179.49,-73.41 -70.89,0 -130.72,24.64 -179.49,73.41 -49.27,48.77 -73.91,108.09 -73.91,178.48 0,54.8 -17.59,100.05 -52.79,134.74 -34.69,35.2 -79.44,52.8 -134.24,52.8 -54.3,0 -99.55,-17.6 -134.24,-52.29 -35.19,-35.2 -52.79,-79.94 -52.79,-134.75 0,-173.95 60.84,-322.27 183.01,-443.94 121.67,-121.67 269.99,-182.51 444.45,-182.51 174.46,0 322.78,60.84 444.45,183.01 122.17,122.17 183.01,270.49 183.01,445.46z"/>
  <path class="fil16" d="M1962.27 1169.66c-47.67,27.61 -108.72,11.34 -136.33,-36.33 -27.61,-47.67 -11.34,-108.72 36.33,-136.33l1587.73 -916.68c47.67,-27.61 108.72,-11.34 136.33,36.33 27.61,47.67 11.34,108.72 -36.33,136.33l-1587.73 916.68z"/>
  <path class="fil16" d="M2012.27 2916.67c0,55.22 -44.78,100 -100,100 -55.22,0 -100,-44.78 -100,-100l0 -1833.34c0,-55.22 44.78,-100 100,-100 55.22,0 100,44.78 100,100l0 1833.34z"/>
  <path class="fil16" d="M3550 3747.02c47.67,27.61 63.94,88.66 36.33,136.33 -27.61,47.67 -88.66,63.94 -136.33,36.33l-1587.73 -916.68c-47.67,-27.61 -63.94,-88.66 -36.33,-136.33 27.61,-47.67 88.66,-63.94 136.33,-36.33l1587.73 916.68z"/>
  <path class="fil16" d="M5037.73 2830.34c47.67,-27.61 108.72,-11.34 136.33,36.33 27.61,47.67 11.34,108.72 -36.33,136.33l-1587.73 916.68c-47.67,27.61 -108.72,11.34 -136.33,-36.33 -27.61,-47.67 -11.34,-108.72 36.33,-136.33l1587.73 -916.68z"/>
  <path class="fil17" d="M4987.73 1083.33c0,-55.22 44.78,-100 100,-100 55.22,0 100,44.78 100,100l0 1833.34c0,55.22 -44.78,100 -100,100 -55.22,0 -100,-44.78 -100,-100l0 -1833.34z"/>
  <path class="fil17" d="M3450 252.98c-47.67,-27.61 -63.94,-88.66 -36.33,-136.33 27.61,-47.67 88.66,-63.94 136.33,-36.33l1587.73 916.68c47.67,27.61 63.94,88.66 36.33,136.33 -27.61,47.67 -88.66,63.94 -136.33,36.33l-1587.73 -916.68z"/>
 </g>
</svg>
