<?xml version="1.0" encoding="UTF-8"?>
<!DOCTYPE svg PUBLIC "-//W3C//DTD SVG 1.1//EN" "http://www.w3.org/Graphics/SVG/1.1/DTD/svg11.dtd">
<!-- Creator: CorelDRAW 2017 -->
<svg xmlns="http://www.w3.org/2000/svg" xml:space="preserve" width="100mm" height="40mm" version="1.1" style="shape-rendering:geometricPrecision; text-rendering:geometricPrecision; image-rendering:optimizeQuality; fill-rule:evenodd; clip-rule:evenodd"
viewBox="0 0 10000 4000"
 xmlns:xlink="http://www.w3.org/1999/xlink">
 <defs>
  <style type="text/css">
   <![CDATA[
    .fil43 {fill:white}
    .fil37 {fill:#EEDCD6;fill-rule:nonzero}
    .fil34 {fill:#E4CCBF;fill-rule:nonzero}
    .fil33 {fill:#CFBAAF;fill-rule:nonzero}
    .fil55 {fill:#FFD45A;fill-rule:nonzero}
    .fil1 {fill:#F59593;fill-rule:nonzero}
    .fil2 {fill:#B55F5A;fill-rule:nonzero}
    .fil14 {fill:#E35D59;fill-rule:nonzero}
    .fil56 {fill:#FBE9AA;fill-rule:nonzero}
    .fil52 {fill:#FAC448;fill-rule:nonzero}
    .fil41 {fill:#E67D70;fill-rule:nonzero}
    .fil57 {fill:#F7BE40;fill-rule:nonzero}
    .fil60 {fill:#F3F4F4;fill-rule:nonzero}
    .fil10 {fill:#EFF7F5;fill-rule:nonzero}
    .fil51 {fill:#EEEFF0;fill-rule:nonzero}
    .fil17 {fill:#D2CFCC;fill-rule:nonzero}
    .fil49 {fill:#E9B578;fill-rule:nonzero}
    .fil42 {fill:#D5786E;fill-rule:nonzero}
    .fil38 {fill:#C8645B;fill-rule:nonzero}
    .fil39 {fill:#BA5E56;fill-rule:nonzero}
    .fil28 {fill:#CB605A;fill-rule:nonzero}
    .fil27 {fill:#AE544F;fill-rule:nonzero}
    .fil8 {fill:#DAE1E4;fill-rule:nonzero}
    .fil36 {fill:#B29E94;fill-rule:nonzero}
    .fil6 {fill:#C17775;fill-rule:nonzero}
    .fil53 {fill:#DDAE44;fill-rule:nonzero}
    .fil48 {fill:#D29C62;fill-rule:nonzero}
    .fil12 {fill:#B06D6C;fill-rule:nonzero}
    .fil29 {fill:#8F4844;fill-rule:nonzero}
    .fil7 {fill:#C2CACE;fill-rule:nonzero}
    .fil3 {fill:#C2C5D0;fill-rule:nonzero}
    .fil26 {fill:#A2545C;fill-rule:nonzero}
    .fil5 {fill:#9DB2B6;fill-rule:nonzero}
    .fil58 {fill:#855840;fill-rule:nonzero}
    .fil9 {fill:#766255;fill-rule:nonzero}
    .fil59 {fill:#77503D;fill-rule:nonzero}
    .fil40 {fill:#382B2A;fill-rule:nonzero}
    .fil35 {fill:#5C6D43;fill-rule:nonzero}
    .fil50 {fill:#535353;fill-rule:nonzero}
    .fil54 {fill:#576C6E;fill-rule:nonzero}
    .fil32 {fill:#4C7591;fill-rule:nonzero}
    .fil23 {fill:#32788F;fill-rule:nonzero}
    .fil22 {fill:#2B6072;fill-rule:nonzero}
    .fil25 {fill:#31414A;fill-rule:nonzero}
    .fil0 {fill:#293339;fill-rule:nonzero}
    .fil4 {fill:#242B2F;fill-rule:nonzero}
    .fil11 {fill:#242A2E;fill-rule:nonzero}
    .fil13 {fill:#24292D;fill-rule:nonzero}
    .fil19 {fill:#272F33;fill-rule:nonzero}
    .fil16 {fill:#282F36;fill-rule:nonzero}
    .fil15 {fill:#23262A;fill-rule:nonzero}
    .fil18 {fill:#353759;fill-rule:nonzero}
    .fil44 {fill:#3FAD1A;fill-rule:nonzero}
    .fil20 {fill:#4D4D4D;fill-rule:nonzero}
    .fil31 {fill:#4D4D4D;fill-rule:nonzero}
    .fil21 {fill:gray;fill-rule:nonzero}
    .fil30 {fill:gray;fill-rule:nonzero}
    .fil45 {fill:#B8B82C;fill-rule:nonzero}
    .fil47 {fill:#B8B82C;fill-rule:nonzero}
    .fil24 {fill:#FCC351;fill-rule:nonzero}
    .fil46 {fill:#FF99CC;fill-rule:nonzero}
   ]]>
  </style>
 </defs>
 <g id="Camada_x0020_1">
  <metadata id="CorelCorpID_0Corel-Layer"/>
  <g id="_1470276046064">
   <path class="fil0" d="M8217.34 657.23c33.82,141.49 177.47,332.76 259.9,314.12 100.02,-22.59 98.9,-208.09 61.25,-304.29 -37.6,-96.21 -88.35,-161.99 -198.49,-230.85 -129.08,-80.69 -156.43,79.53 -122.66,221.02z"/>
   <path class="fil1" d="M7526.89 3033.31c11.64,-37.79 27.12,-76.49 44.47,-115.4l-59.39 -18.72c-12.77,58.98 -22.43,104.23 -26.6,123.93 -11.64,12.56 -59.05,8.49 -71.68,8.94 -7.52,0.32 -29.44,1.84 -25.16,11.8 5.25,12.15 38.69,26.31 62.72,25.83 20.3,-0.42 44.59,9.36 57.19,7.27 12.51,-2.13 16.87,-8.14 18.67,-17.37 1.5,-7.52 0.4,-20.29 -0.22,-26.28z"/>
   <path class="fil2" d="M7524.67 3102.22c-29.94,1.22 -59.99,-12.98 -103.64,-22.97 -56.55,-13.05 -83.84,-40.65 -83.84,-40.65l3.1 -9.74 190.91 51.86 -2.17 7.24 -4.36 14.26z"/>
   <path class="fil3" d="M7482.18 3015.15c-1.82,-8.53 -19.93,-2.37 -26.22,-0.66 -8.15,2.26 -25.77,4.24 -33.81,6.5 -17.48,4.98 -33.14,1.71 -50.4,0.49 -10.02,-0.73 -23.7,-0.59 -31.46,7.38 0,0 52.86,34.63 84.92,37.45 26.97,2.4 73.58,14.48 103.82,21.65 0,0 4.71,-6.82 8.45,-18.76 3.96,-12.84 -0.22,-29.59 -0.22,-29.59 3.3,-4.31 1.84,-8.35 -1.02,-8.59 -7.37,-0.63 -7.78,2.15 -16.4,7.27 -7.05,4.14 -16.78,5.22 -21.05,0.7 -10.63,-11.39 -8.45,-12.81 -17.75,-17.37l1.14 -6.47z"/>
   <path class="fil4" d="M7546.87 3013.54c23.35,-67.62 57.85,-138.27 91.36,-206.8 45.11,-92.15 87.75,-179.16 102.48,-255.42 3.49,-18.09 5.12,-33.65 6.67,-48.68 3.05,-28.89 6.18,-58.72 22.97,-110.05 3.12,-9.54 19.63,-70.97 -48.95,-91.61 -68.65,-20.67 -87.38,17.02 -94.14,42.04 -42.87,158.85 -121.77,524.45 -148.44,649.12 0,0 4.62,10.06 33.75,19.7 29.21,9.61 34.3,1.7 34.3,1.7z"/>
   <path class="fil4" d="M8303.52 1882.3l-16.66 -172.45 -233.3 -3.3 -5.6 78.13c-103.38,120.91 -370.38,392.93 -418.03,556.01l-0.42 1.78c-9.01,63.62 27.92,110.08 65.94,126.26l0.03 0c14.13,6.06 26.95,7.04 36.18,2.79 5.67,-2.58 9.84,-7.06 11.87,-12.71 22.01,-49.48 489.37,-306.79 559.99,-576.51z"/>
   <path class="fil0" d="M8457.94 1722.13l-21.79 -64.97c0,0 -71.4,20.18 -156.04,35.47 -84.56,15.27 -225.5,25.09 -225.14,28.71 0.34,3.58 121.37,73.78 128.04,143.07 3.53,36.2 108.42,458.37 223.7,616.16 57.81,107.68 140.87,-50.99 139.07,-56.73 -35.72,-79.73 19.5,-522.71 -87.84,-701.71z"/>
   <path class="fil4" d="M8424.97 1615.67c-179.62,71.39 -374.34,60.91 -374.34,60.91l4.34 44.76c238.46,12.6 381.18,-64.18 381.18,-64.18l-11.18 -41.49z"/>
   <path class="fil1" d="M9049.71 2892.61c0,0 -69.07,-62.48 -95.52,-91.57l-41.76 44.58c60.85,46.29 113.78,86.91 113.78,86.91 0,0 -5.86,56.66 -8.72,68.7 -1.72,7.27 -6.14,28.81 4.59,27.39 13.11,-1.81 35.8,-30.18 41.77,-53.46 5.03,-19.63 21.04,-40.44 22.39,-53.11 1.35,-12.67 -3.31,-18.48 -11.7,-22.69 -6.65,-3.31 -18.65,-5.64 -24.83,-6.75z"/>
   <path class="fil2" d="M9115.58 2912.2c-6.87,29.17 -28.63,54.33 -50.04,93.62 -27.77,50.99 -61.68,69.81 -61.68,69.81l-8.59 -5.6 101.37 -169.91 6.35 4.04 12.59 8.04z"/>
   <path class="fil3" d="M9020.32 2929.7c-8.72,-0.55 -7.68,18.52 -7.75,25.06 -0.01,8.5 -2.78,25.97 -2.78,34.32 0.02,18.16 -7.32,32.4 -13.12,48.73 -3.43,9.42 -6.98,22.65 -1.4,32.22 0,0 47.6,-41.59 59,-71.66 9.58,-25.4 33.74,-66.96 48.72,-94.21 0,0 -5.26,-6.37 -15.78,-13.12 -11.28,-7.31 -28.54,-7.83 -28.54,-7.83 -3.27,-4.32 -7.56,-4.01 -8.53,-1.32 -2.63,6.95 -0.02,8.07 2.55,17.78 2.13,7.9 0.51,17.54 -5.03,20.43 -13.75,7.17 -14.58,4.7 -21.45,12.43l-5.89 -2.83z"/>
   <path class="fil0" d="M9037.25 2869.84c-76.44,-65.98 -135.12,-133.99 -187.15,-194.33 -58.22,-67.6 -108.56,-125.93 -170.4,-168.39 -15.16,-10.37 -28.81,-18.09 -41.96,-25.54 -25.24,-14.27 -51.39,-29.07 -91.74,-64.91 -7.51,-6.68 -61.82,-78.13 -117.78,-27.6 -56.03,50.53 -5.01,122.79 15.23,138.97 136.63,109.11 466.42,339.61 547.05,395.61 0,0 10.05,-0.76 29.33,-22.94 19.23,-22.16 17.42,-30.87 17.42,-30.87z"/>
   <path class="fil1" d="M8351.08 1081.1c-2.78,-33.02 4.16,-64.01 8.28,-96.48 6.37,-50.41 19.96,-93.69 45.4,-140.97 -55.71,7.46 -143.69,34.82 -143.69,34.82 2.65,121.86 -60.39,201.28 -75.59,217.94 33.31,33.13 91.29,113.39 172.21,33.52 -2.84,-16.24 -5.24,-32.52 -6.61,-48.83z"/>
   <path class="fil5" d="M8352.16 1036.79c0,-0.03 0.01,-0.05 0.01,-0.08 0,0.03 -0.01,0.05 -0.01,0.08zm0.01 -0.11c1.91,-17.3 4.98,-34.47 7.19,-52.06 2.78,-21.99 6.93,-42.62 12.84,-62.82l0 0c-5.91,20.2 -10.06,40.83 -12.84,62.82 -2.23,17.6 -5.29,34.77 -7.19,52.06z"/>
   <path class="fil5" d="M8259.75 916.74c0.39,-4.26 0.7,-8.58 0.93,-12.97 -0.02,0 -0.03,0 -0.05,0 -0.23,4.37 -0.54,8.68 -0.93,12.93 0.01,0.01 0.03,0.02 0.05,0.04z"/>
   <path class="fil6" d="M8319.2 1072.79c5.73,0 10.31,-1.08 12.8,-3.67 8.37,-8.67 14.57,-16.57 19.34,-23.93 0.24,-2.8 0.51,-5.61 0.82,-8.4 0,-0.03 0.01,-0.05 0.01,-0.08 0,-0.01 0,-0.02 0,-0.03 1.9,-17.29 4.96,-34.46 7.19,-52.06 2.78,-21.99 6.93,-42.62 12.84,-62.82 2.44,-8.32 5.17,-16.56 8.22,-24.8 -2.02,0.19 -4,0.29 -5.95,0.29 -3.02,0 -5.96,-0.24 -8.78,-0.73 0.07,-0.69 0.14,-1.37 0.21,-2.05 -13.56,3.02 -26.98,4.42 -40.07,4.43 -4.91,0 -9.77,-0.2 -14.57,-0.59 -10.14,4.56 -21.13,7.23 -33.14,7.24 -5.58,0 -11.39,-0.58 -17.44,-1.82 -0.23,4.39 -0.54,8.71 -0.93,12.97 28.54,25.88 85.77,11.18 83.7,31.3 -1.07,10.64 11.31,83.05 -82.64,96.88 -22.31,3.31 31.1,27.87 58.39,27.87z"/>
   <path class="fil7" d="M8485.41 1072.27c-41.23,-16.37 -112.99,-45.56 -128.6,-67.67l-85.34 56.99 -26.14 -72.29c-12.46,11.15 -134.82,-1.51 -152.41,-0.87 -82.52,172.16 -104.28,630.9 -74.35,661.8 29.95,30.87 97.97,35.71 189.68,18.66 10.78,62.09 19.07,153.65 29.53,157.72 62.83,24.47 215.21,-17.15 282.23,-33.48 0,0 -21.17,-134.16 -21.17,-278.84 -0.02,-144.75 27.76,-425.63 -13.43,-442.02z"/>
   <path class="fil8" d="M8366.63 993.74c-7.68,-6.04 -10.14,7.25 -10.14,7.25l-84.51 59.94 -26.65 -71.63c0,0 3.42,-13.08 -6.14,-10.86 -9.53,2.21 -42.32,15.77 -42.32,15.77 0,0 9.02,47.88 19.35,65.65l20.25 -2.4 1.23 23.85 30.87 -10.39 23.59 22.52 11.19 -21.11 17.33 10.75c16.87,-11.71 79.57,-52.86 79.57,-52.86 0,0 -25.94,-30.43 -33.62,-36.48z"/>
   <path class="fil1" d="M8450.41 852.91c-118.41,94.91 -260,26.88 -279.8,-58.51 -22.09,-95.45 86.87,-199.81 118.71,-209.92 93.43,-29.67 194.42,-1.82 235.27,87.23 40.89,89.07 2.27,119.87 -74.18,181.2z"/>
   <path class="fil9" d="M8447.02 527.14c-59.2,-20.83 -158.11,-34.68 -231.77,122.93 0,0 70.05,-14.89 104.05,-63.89 0,0 -0.12,71.25 95.68,113.57 22.24,9.79 21.53,30.77 0.69,52.54 -9.18,9.58 -17.76,25.09 -18.37,39.26 -0.39,9.78 3.38,8.67 8.8,7.56 1.84,-0.38 3.86,-0.76 5.99,-0.71 0.22,0.96 -0.05,1.8 -0.42,2.74 -15.25,36.27 -39.52,29.1 -45.98,95.42 50.6,8.89 137.85,-65.49 156.39,-96.04 91.21,-150.71 -12.1,-251.26 -75.06,-273.38z"/>
   <path class="fil9" d="M8304.31 809.13c-0.28,-11.72 -16.1,-22.6 -37.27,-37.29 -21.18,-14.71 -36.83,-24.28 -45.69,-19.21 -8.85,5.11 -18.47,46.39 13.09,68.26 31.55,21.9 70.13,-0.04 69.87,-11.76zm114.42 -20.06c-42.54,30.88 -84.48,154.9 -186.43,104.7 -93.2,-45.89 -95.91,-123.71 -17.05,-243.7 -1.16,18.26 -2.94,75.66 52.2,113.92 55.11,38.25 141.8,9.26 149.97,8.4 -0.83,5.48 -0.3,11.32 1.31,16.68z"/>
   <path class="fil1" d="M8403.03 798.55c4.47,-0.3 10.97,-7.13 16.31,-8.69 5.72,-1.69 12.09,-2.67 17.95,-0.38 12.38,4.85 19.19,18.37 14.13,30.89 -5.15,12.73 -16.57,20.43 -30.51,19.54 -10.14,-0.68 -27.79,-7 -28.43,-18.35 0,0 8.32,-22.84 10.55,-23.01z"/>
   <path class="fil6" d="M8423.11 813.08c5.89,-0.42 11.7,-2.51 15.45,-5.88 0.47,-0.42 0.01,-1.01 -0.5,-1.01 -0.02,0 -0.06,0.01 -0.09,0.01 -4.69,0.68 -9.04,2.79 -13.67,3.44 -1.37,0.19 -2.69,0.27 -3.97,0.27 -4.43,0 -8.42,-1.01 -12.99,-2.08 -0.03,-0.01 -0.07,-0.01 -0.11,-0.01 -0.44,0 -0.79,0.56 -0.4,0.89 1.8,1.54 4.01,2.65 6.42,3.38 -0.78,-0.83 -0.25,-2.25 1.04,-2.25 0.08,0 0.18,0.01 0.28,0.02 2.79,0.43 5.98,1.6 8.54,3.22z"/>
   <path class="fil6" d="M8429.17 824.31c0.49,0 0.98,-0.25 1.08,-0.8 0.63,-3.73 -2.58,-6.77 -5.19,-9.01 -0.59,-0.5 -1.25,-0.97 -1.95,-1.42 -2.56,-1.62 -5.75,-2.79 -8.54,-3.22 -0.1,-0.01 -0.2,-0.02 -0.28,-0.02 -1.29,0 -1.82,1.42 -1.04,2.25 0.15,0.16 0.34,0.3 0.59,0.41 3.43,1.41 6.24,2.94 8.87,5.6 1.92,1.96 3.31,4.92 5.88,6.09 0.17,0.08 0.38,0.12 0.58,0.12z"/>
   <path class="fil10" d="M8229.13 754.58c0,0 17.83,7.1 35.86,19.61 17.98,12.53 33.87,28.57 33.87,28.57 0,0 -29.85,26.67 -57.62,7.44 -28.11,-19.44 -12.11,-55.62 -12.11,-55.62z"/>
   <path class="fil11" d="M8258.7 686.55c-3.18,2.74 -8.11,2.33 -10.87,-0.94 -2.75,-3.27 -2.33,-8.13 0.94,-10.85 3.25,-2.76 8.13,-2.35 10.91,0.91 2.74,3.25 2.31,8.14 -0.98,10.88z"/>
   <path class="fil11" d="M8355.19 749.66c-3.25,2.74 -8.11,2.33 -10.87,-0.93 -2.73,-3.28 -2.33,-8.14 0.93,-10.88 3.23,-2.74 8.12,-2.33 10.88,0.94 2.73,3.26 2.31,8.11 -0.94,10.87z"/>
   <path class="fil9" d="M8354.44 716.9c7.61,0.49 14.21,3.8 17.83,10.74 2.33,4.45 3.89,14.09 -2.16,16.39 -0.73,0.28 -1.67,-0.17 -2.03,-0.82 -1.78,-3.22 -0.4,-7.37 -2.11,-10.81 -2.12,-4.25 -7.01,-6.44 -11.53,-6.78 -5.57,-0.4 -5.64,-9.08 0,-8.72z"/>
   <path class="fil9" d="M8267.65 669.39c-2.2,-3.55 -6.38,-5.41 -10.42,-5.89 -3.16,-0.36 -7.26,1.5 -10.2,0.37 -0.82,-0.31 -1.24,-0.86 -1.33,-1.74 -0.54,-5.54 8.98,-6.29 12.54,-6.3 6.98,-0.02 13.31,3.15 16.95,9.15 2.92,4.84 -4.59,9.18 -7.54,4.41z"/>
   <path class="fil12" d="M8278.39 763.68c4.17,0 7.89,-2.53 10.08,-5.6 -2.84,2.14 -6.13,3.54 -9.37,3.54 -0.58,0 -1.17,-0.05 -1.75,-0.14 -3.77,-0.66 -7.04,-3.29 -9.01,-6.52 -2.27,-3.01 -3.47,-7.05 -2.39,-10.69 1.13,-3.63 4.4,-6.37 8.17,-8.25 -4.07,0.66 -8.58,3.01 -10.17,7.55 -1.72,4.36 -0.66,9.35 1.74,13.19 2.69,3.66 6.8,6.42 11.4,6.84 0.44,0.05 0.87,0.08 1.3,0.08z"/>
   <path class="fil7" d="M8523.01 1199.89c-29.37,12.74 -62.87,22.76 -94.72,13.65 -41,-11.74 -63.35,-62.38 -41.03,-100.98 26.11,-45.09 84.27,-66.53 132.23,-78.3 63.22,-15.52 271.18,-72.02 285.4,-76.6 46.19,-15.01 84.65,70.14 53.66,93.49 -48.99,36.94 -278.45,123.94 -335.54,148.74z"/>
   <path class="fil1" d="M8682.9 707.08c43.31,59.95 -6.35,73.31 -25.52,73.5 -19.15,0.19 -35.12,-50.57 -46.12,-69.24 -10.93,-18.69 -14.96,-14.46 -27.58,-45.11 -4.45,-10.88 -38.71,-41.36 -38.71,-41.36 0,0 14.41,-14.17 41.78,12.43 -24.7,-46.97 -55.1,-79.77 -44.76,-87.81 47.03,-35.35 111.94,27.9 121.2,72.9 5.32,25.96 -7.69,46.81 19.71,84.69z"/>
   <path class="fil7" d="M8873.32 1019.82c-3.87,42.84 -80.62,71.13 -112.55,26.5 -27.19,-38.03 -137.38,-293.55 -144.33,-307.63 4.96,-4.6 66.12,-36.1 71.04,-37.97 0,0 193.95,228.95 185.84,319.1z"/>
   <path class="fil7" d="M7985.86 1087.26c16.47,27.43 37.95,55.02 69.18,66.08 40.22,14.28 87.79,-13.97 92.06,-58.36 4.9,-51.87 -29.98,-103.09 -62.21,-140.55 -42.41,-49.34 -178.93,-216.12 -187.78,-228.1 -28.94,-39.05 -109.69,7.91 -98.06,44.93 18.46,58.52 154.69,262.64 186.81,316z"/>
   <path class="fil1" d="M7885.25 398.12c2.19,-21.56 3.83,-21.6 11.17,-53.91 10.25,-45.41 -17.51,-59.82 -17.51,-59.82 0.57,-15.5 -1.27,-14.88 -9.88,-16.89 -57.41,-12.6 -78.28,26.54 -67.99,71.29 5.95,25.86 26.46,39.38 17.29,85.23 -14.44,72.54 36.24,64.05 53.75,56.26 17.53,-7.84 10.96,-60.62 13.17,-82.16z"/>
   <path class="fil7" d="M7805.25 777.91c23.87,35.8 104.81,24.01 111.52,-30.43 5.78,-46.39 -19.41,-323.53 -20,-339.23 -6.57,-1.65 -75.37,-0.14 -80.59,0.59 0,0 -61.12,293.75 -10.93,369.07z"/>
   <path class="fil13" d="M8393.21 518.14c0,0 68.39,-33.96 148.33,-34.19 22.5,-0.05 52.59,28.3 55.44,50.87 7.8,61.85 6.61,82.08 26.03,96.62 41.63,31.14 27.13,84.56 -5.22,121.25 -28.32,32.11 -86.29,49.65 -86.29,49.65 0,0 20.4,-95.13 -24.3,-162.75 -44.72,-67.63 -113.99,-121.45 -113.99,-121.45z"/>
   <path class="fil0" d="M8560.47 835.32c5.09,-58.38 -4.32,-123.11 -21.98,-168.26 -32.19,-82.35 -74.3,-142.38 -154.69,-201.13l-85.68 34.14c0,0 251.98,114.84 174.5,392.69 0,0 56.89,-56.7 87.85,-57.44z"/>
  </g>
  <g id="_1470276036144">
   <path class="fil1" d="M7090.95 1706.99c-37.96,-43.16 -273.98,-176.58 -225.36,-246.04 48.64,-69.45 291.1,129.26 331.9,150.63 39.12,20.44 99.81,62.64 112.6,111.22 6.33,24.2 -12.4,67.29 -39.16,71.85 -30.83,5.19 -84.24,21.08 -179.98,-87.66z"/>
   <path class="fil1" d="M6920.42 1405.04c-15.27,-32.71 -106.65,-158.67 -110.43,-256.77 -0.87,-22.35 -52.43,14.25 -52.43,14.25 -2.44,38.61 29.05,204.83 60.32,268.8 14.8,30.18 61.05,123.01 96.32,102.26 40.84,-24.08 28.87,-79.94 6.22,-128.54z"/>
   <path class="fil1" d="M6757.56 1162.52c0.4,3 8.73,14.24 28.29,9.98 19.6,-4.26 24.14,-24.23 24.14,-24.23 2.04,-21.59 12.98,-18.45 18.73,-52.61 2.03,-12.07 29.88,-51.08 29.88,-51.08 0,0 -18,-11.11 -39.7,22.29 14.29,-53.55 37.63,-93.97 25.2,-99.79 -56.03,-25.09 -107.56,54.36 -106.5,102.34 0.58,27.69 13.96,44.66 19.96,93.1z"/>
   <path class="fil14" d="M7000.15 1657.02c107.3,78.89 185.66,154.09 272.89,139.23 25.42,-4.33 54.98,-46.46 39.49,-90.01 -14.29,-40.22 -121.48,-118.02 -225.47,-182.25 -28.22,33.41 -72.61,91.24 -86.91,133.03z"/>
   <path class="fil1" d="M7267.63 3802.86c-0.23,-30.98 1.59,-63.23 4.65,-96.11l-58.58 0c4.29,46.62 7.67,81.89 9.34,98.98 -7.67,16.14 -56.17,26.94 -68.6,31.41 -7.39,2.66 -28.81,11.06 -21.39,19.6 9.02,10.48 46.84,14.15 70.62,6.07 20.07,-6.76 47.34,-4.61 59.19,-10.68 11.92,-6.07 14.36,-13.42 13.27,-23.2 -0.94,-7.93 -6.47,-13.38 -8.5,-26.07z"/>
   <path class="fil1" d="M8054.99 3534.23c-23.7,-23.78 -45.31,-47.6 -65.46,-71.2l-41.94 40.33c46.77,39.55 77,64.86 77,64.86 3.96,17.67 -22.42,57.31 -28.19,68.87 -3.5,7.01 -13.05,27.89 -1.81,28.94 13.75,1.27 43.57,-22.22 55.16,-44.47 9.79,-18.79 30.99,-36.14 35.36,-48.76 4.37,-12.54 1.05,-19.56 -6.47,-25.81 -6.05,-4.95 -15.49,-6.15 -23.65,-12.76z"/>
   <path class="fil15" d="M7272.61 3786.82c3.09,-47.09 21.01,-393.75 3.74,-544.35 -6.32,-54.84 -50.39,-139.85 -50.18,-165.3 0.19,-30.39 -50.72,-105.33 -81.08,-92.79 -26.8,11.05 -96.65,72.79 -95.7,95.99l166.38 706.45 56.84 0z"/>
   <path class="fil15" d="M7448.65 2287.64l-242.26 -13.96c-14.43,246.12 -177.91,630.89 -157,806.69 25.52,95.27 165.98,98.9 163.44,71.6 2.36,-168.93 296.11,-595.3 235.82,-864.33z"/>
   <path class="fil16" d="M8046.78 3519.14c-30.29,-36.11 -194.83,-332.52 -311.56,-429.31 -42.46,-35.24 -70.94,-43.17 -130.7,-106.87 -20.74,-22.14 -119.23,-11.56 -132.45,18.51 -11.71,26.54 -1,109.77 15.78,125.88 149.4,143.37 517.11,431.85 517.11,431.85l41.82 -40.06z"/>
   <path class="fil16" d="M7651.64 2245.31c0,0 -45.72,21.31 -191.28,27.67 -119.07,5.21 -253.97,0.7 -253.97,0.7l221.58 170.64c27.84,350.8 11.54,460.25 32.39,636.05 25.51,95.27 166.99,98.9 164.48,71.6 2.45,-168.93 83.94,-651.8 26.8,-906.66z"/>
   <path class="fil15" d="M7643.43 2201.03c-214.47,56.13 -437.22,25.63 -437.22,25.63l0 47.02c272.79,37.12 445.43,-28.37 445.43,-28.37l-8.21 -44.28z"/>
   <path class="fil17" d="M7230.97 3859.25c-18.76,-3.3 -21.99,7.71 -69.23,9.75 -47.27,2.03 -63.59,-15.82 -63.59,-15.82 0,1.67 0.61,3.52 2.25,5.71 12.4,16.58 38.83,17.38 56.8,18.18 22.5,1.09 114.14,3.6 126.35,-11.31 2.29,-2.84 -1.57,-9.93 -3.24,-15.31l0.58 -4.21c-11.85,9.81 -31.19,16.25 -49.92,13.01z"/>
   <path class="fil16" d="M7161.74 3869c47.24,-2.04 50.47,-13.05 69.23,-9.75 18.73,3.24 38.07,-3.2 49.92,-13.01 2.26,-18.11 -4.1,-20.4 -3.63,-25.6 0.4,-4.33 -1.42,-13.06 -8.22,-14.22 0,0 2.69,7.45 -21.12,12.69 -23.86,5.2 -26.33,-10.76 -28.36,-22.84 -2.48,-14.5 -22.19,9.42 -33.53,17.67 -10.87,7.93 -23.05,13.79 -34.87,19.42 -10.62,5.02 -20.43,8.19 -32.03,9.39 -6.84,0.65 -20.84,3.08 -20.98,10.43 0.04,0 16.32,17.85 63.59,15.82z"/>
   <path class="fil17" d="M8066.82 3600.22c-15.79,10.61 -10.54,20.76 -43.22,54.97 -32.73,34.18 -56.85,32.55 -56.85,32.55 1.11,1.2 2.91,2.11 5.59,2.55 20.39,3.49 40.08,-14.33 53.65,-26.12 16.89,-14.83 84.81,-76.46 83.29,-95.58 -0.29,-3.71 -7.92,-6.15 -12.93,-8.84l-2.45 -3.49c-1.86,15.27 -11.3,33.34 -27.08,43.96z"/>
   <path class="fil16" d="M8023.6 3655.19c32.68,-34.21 27.43,-44.36 43.22,-54.97 15.78,-10.62 25.22,-28.69 27.08,-43.96 -10.95,-14.58 -17.12,-11.86 -20.44,-15.96 -2.68,-3.39 -10.02,-8.4 -15.67,-4.58 0,0 7.11,3.52 -6.52,23.77 -13.57,20.26 -26.45,10.44 -36.23,3.17 -11.83,-8.8 -9.5,22.11 -11.94,35.92 -2.45,13.27 -7.11,25.93 -11.77,38.18 -4.19,10.94 -9.14,20.11 -16.66,28.95 -4.48,5.19 -12.87,16.65 -7.92,22.03 0,0 24.17,1.63 56.85,-32.55z"/>
   <path class="fil1" d="M7430.65 1594.82c-17.41,-29.91 -24.75,-62.33 -35.41,-94.75 -16.64,-50.47 -23.23,-97.4 -20.42,-153.41 -49.16,32.03 -119.96,97.31 -119.96,97.31 57.13,113.84 33.34,217 26.44,239.57 46.25,16.3 136.95,66.04 177.54,-45.59 -10.01,-14.07 -19.51,-28.37 -28.19,-43.13z"/>
   <path class="fil5" d="M7414.81 1560.81c-1.87,-5.05 -3.67,-10.15 -5.36,-15.28 1.69,5.12 3.49,10.21 5.36,15.26 0,0 0,0.02 0,0.02zm-144.02 -80.14c-0.04,-0.01 -0.08,-0.01 -0.08,-0.02 -0.43,-1.15 -0.86,-2.31 -1.3,-3.46 0.03,-0.01 0.03,-0.01 0.07,-0.01 0.44,1.16 0.87,2.33 1.31,3.49z"/>
   <path class="fil6" d="M7345.4 1610.72c-15.75,0 -25.78,-3.08 -16.11,-9.54 82.37,-55.2 38.22,-117.98 34.47,-128.54 -1.45,-4.12 -4.65,-5.69 -9.16,-5.69 -7.17,0 -17.56,3.98 -29.53,7.95 -11.96,3.97 -25.41,7.95 -38.61,7.95 -5.31,0 -10.58,-0.64 -15.67,-2.18 -0.44,-1.16 -0.87,-2.33 -1.31,-3.49 37.38,-8.11 77.09,-32.07 106.1,-71.76 2.66,32.26 9.13,62.75 19.66,94.65 5.01,15.26 9.26,30.49 14.21,45.46 1.69,5.13 3.49,10.23 5.36,15.28 -1.22,9.07 -3.5,19.3 -7.51,31.26 -4.02,12.14 -39.03,18.65 -61.9,18.65z"/>
   <path class="fil1" d="M7418.01 1282.14c-10.13,158.25 -146.35,222.31 -216.49,189.99 -92.98,-42.85 -100.65,-136.26 -101.59,-241.01 -0.73,-91.17 136.39,-149.65 233.9,-118.53 97.58,31.13 90.65,67.39 84.18,169.55z"/>
   <path class="fil14" d="M7152.87 2395.45c0,0 54.8,51.7 244.46,25.27 189.66,-26.4 307.6,-20.76 307.6,-20.76 0,0 99.84,-270.82 -23.18,-739.29 -5.71,-21.72 -65.12,-153.15 -65.12,-153.15 -18.4,3.19 -190.99,24.97 -215.57,11.12 0,0 25.98,71.63 -39.66,86.64 -65.59,15.02 -72.4,-51.04 -72.4,-51.04 -6.76,16.09 -102.13,56.05 -118.42,64.48 -14.26,7.38 -57.23,47.16 -32.29,166.31 24.95,119.11 76.87,416 14.58,610.42z"/>
   <path class="fil1" d="M7724.8 1539.84c8.03,-56.89 126.62,-303.5 47.82,-334.82 -78.81,-31.28 -172.18,267.96 -194.55,308.2 -21.43,38.6 -48.98,107.24 -32.96,154.83 8.03,23.73 47.35,49.43 72.22,38.51 28.6,-12.57 87.25,-23.24 107.47,-166.72z"/>
   <path class="fil1" d="M7696.14 1188.46c-5.3,-35.71 1.86,-191.21 -48.93,-275.24 -11.53,-19.13 51.67,-16.87 51.67,-16.87 23.24,30.88 88.24,187.04 97.27,257.73 4.25,33.34 16.07,133.34 -24.87,135.4 -47.36,2.36 -67.39,-47.98 -75.14,-101.02z"/>
   <path class="fil1" d="M7698.88 896.35c1.28,2.7 0.52,16.72 -18.18,23.89 -18.69,7.19 -33.49,-7.02 -33.49,-7.02 -13.57,-16.87 -20.97,-8.26 -44.5,-33.68 -8.39,-8.94 -53.06,-26.23 -53.06,-26.23 0,0 8.91,-19.13 45.37,-3.14 -41.29,-36.93 -83.06,-57.89 -75.89,-69.52 33.08,-51.81 119.69,-13.72 145.26,26.92 14.74,23.43 12.82,44.99 34.49,88.78z"/>
   <path class="fil14" d="M7708.08 1448.86c-20.91,-12.85 -42.81,-24 -66.63,-30.44 -11.3,-3.1 -21.61,-4.88 -32.97,-5 -43.92,104.47 -80.09,165.86 -74.38,239.7 2.68,34.26 54.22,72.27 96.8,57.71 78.64,-26.96 101.7,-125.23 132.98,-228.61 -12.23,-9.19 -42.75,-25.35 -55.8,-33.36z"/>
   <path class="fil18" d="M7415.62 1359.34c33.26,-86.62 54.23,-157.12 -30.66,-253.51 -56.14,-63.69 -136.14,-71.89 -225.29,-11.04 -26.11,-56.04 -141.77,-20.38 -143.37,87.39 -0.88,57.59 27.49,124.25 92.35,163.85 -7.81,-75.08 3.28,-106.04 63.13,-97.76 30.69,4.28 50.1,-6.28 65.23,-16.84 23.2,-16.16 36.39,-32.32 65.01,4.79 13.82,17.91 17.46,51.96 36.18,59.03 18.29,6.83 2.76,-16.94 19.6,-23.06 53.92,-19.74 -2.84,37.2 0.84,78.18 3.74,40.96 22.57,56.42 22.57,56.42 0,0 18.46,-5.97 34.41,-47.45z"/>
   <path class="fil1" d="M7338.2 1295.25c12.4,7.81 8.91,-10.42 12.69,-18.21 2.77,-5.61 6.51,-11.26 12.43,-14.17 12.41,-6.13 27.67,-1.88 33.78,10.87 6.18,12.92 4.14,27.16 -6.41,37.29 -7.66,7.39 -25,16.56 -34.2,9.06l-18.29 -24.84z"/>
   <path class="fil6" d="M7356.67 1299.93c-0.43,0 -0.76,-0.63 -0.36,-0.94 4.47,-3.62 9.31,-5.76 12.65,-10.81 2.99,-4.43 4.69,-9.57 7.71,-14.06 0.11,-0.2 0.33,-0.29 0.55,-0.29 0.29,0 0.61,0.22 0.61,0.62 0,6.4 -2.94,11.49 -7.02,16.26 -2.9,1.02 -5.59,2.48 -7.41,3.8 -0.51,0.38 -0.91,1 -0.69,1.67l0.18 0.47 0.22 0.18c0.26,0.22 0.55,0.35 0.83,0.39 -2.25,1.56 -4.69,2.66 -7.23,2.71 -0.04,0 -0.04,0 -0.04,0z"/>
   <path class="fil6" d="M7364.12 1297.24c-0.03,0 -0.1,-0.01 -0.18,-0.02 -0.28,-0.04 -0.57,-0.17 -0.83,-0.39l-0.22 -0.18 -0.18 -0.47c-0.22,-0.67 0.18,-1.29 0.69,-1.67 1.82,-1.32 4.51,-2.78 7.41,-3.8 2.26,-0.78 4.66,-1.31 6.88,-1.31 2.65,0 5.05,0.74 6.76,2.66 0.62,0.71 0.33,1.64 -0.51,1.97 -1.02,0.37 -2,0.5 -3.01,0.5 -0.77,0 -1.57,-0.07 -2.33,-0.14 -0.8,-0.07 -1.56,-0.14 -2.37,-0.14 -0.29,0 -0.58,0.01 -0.87,0.03 -3.89,0.29 -6.94,1.07 -10.47,2.78 -0.26,0.12 -0.51,0.18 -0.77,0.18z"/>
   <path class="fil10" d="M7189.81 1399c0,0 18.07,-8.75 40.4,-13.84 22.32,-5.12 45.89,-6.06 45.89,-6.06 0,0 -0.44,41.82 -34.84,49.74 -34.79,8.01 -51.45,-29.84 -51.45,-29.84z"/>
   <path class="fil11" d="M7158.14 1328.29c-0.18,4.46 -3.96,7.93 -8.39,7.78 -4.48,-0.2 -7.93,-3.97 -7.75,-8.4 0.18,-4.46 3.93,-7.95 8.36,-7.76 4.47,0.2 7.97,3.93 7.78,8.38z"/>
   <path class="fil11" d="M7274.75 1298.25c-0.18,4.45 -3.93,7.91 -8.36,7.73 -4.51,-0.18 -7.93,-3.92 -7.75,-8.38 0.18,-4.43 3.9,-7.93 8.37,-7.75 4.43,0.18 7.92,3.93 7.74,8.4z"/>
   <path class="fil18" d="M7254.9 1282.66c3.67,-3.67 8.43,-6.02 13.7,-4.99 4.12,0.81 6.41,4.58 10.15,6.03 0.94,0.36 2.11,-0.38 2.33,-1.31 1.49,-6.68 -6.18,-11.26 -11.57,-12.91 -7.81,-2.41 -15.63,1.22 -21.05,6.75 -4.11,4.19 2.29,10.6 6.44,6.43z"/>
   <path class="fil18" d="M7153.16 1300.44c-7.49,-1.37 -13.78,1.22 -19.05,6.56 -2.98,3.02 -8.51,10.69 -3.71,14.38 0.54,0.42 1.34,0.28 1.89,0 2.58,-1.23 4,-5.08 5.89,-7.1 3.06,-3.23 8.04,-5.84 12.58,-5.05 5.71,0.99 8.22,-7.73 2.4,-8.79z"/>
   <path class="fil12" d="M7219.26 1372.46c-0.68,0 -1.38,-0.03 -2.07,-0.12 -4.61,-0.84 -9.2,-3.54 -11.38,-7.94 -2.36,-4.43 -1.01,-9.58 1.35,-13.16 -1.21,4.23 -1.39,8.69 0.61,12.1 2.08,3.39 6,5.32 9.93,5.7 0.98,0.19 2.04,0.29 3.06,0.29 2.98,0 5.96,-0.83 8.28,-2.65 3.17,-2.47 4.81,-6.6 5.2,-10.99 0.95,4.25 0.04,9.45 -3.74,12.68 -3.02,2.78 -7.12,4.09 -11.24,4.09z"/>
  </g>
  <g id="_1470279222240">
   <path class="fil0" d="M2715.38 1154.08c21.3,59.14 23.25,127.88 3.18,185.06 -42.65,121.43 -174.85,198.65 -200.26,321.6 -12.78,62.14 2.42,128.17 -21.02,189.32 -18.01,47.19 -65.01,97.29 -104.04,129.36 -102.69,84.23 -234.71,135.69 -367.86,131.1 -144.8,-5.02 -384.27,-97.04 -368.2,-275.01 11.5,-128.06 104.71,-103.9 194.84,-143.01 101.2,-43.91 118,-117.11 90.94,-212.96 -36.06,-128.03 22.26,-175.22 141.61,-194.5 98.64,-15.89 146.52,-79.38 201.21,-158.74 50.64,-73.48 108.37,-138.64 200.49,-150.02 92.03,-11.36 151.57,49.05 201.1,122.12 11.49,16.94 20.83,35.76 28.01,55.68z"/>
   <path class="fil1" d="M2458.04 1481.32c3.77,-52.38 4.94,-109.03 -11.42,-159.81 48.91,19.45 130.08,74.29 130.08,74.29 -27.1,130.26 14.2,230.58 24.67,252.12 -37.09,27.7 -106.46,100.42 -164.05,-5.93 -0.66,0.19 10.58,-39.91 12.89,-99.42 3.73,-20.24 6.33,-40.69 7.83,-61.25z"/>
   <path class="fil19" d="M2570.03 1438.2c0.04,0 0.08,-0.01 0.08,-0.01 0.76,-6.94 1.64,-13.97 2.74,-21.1 -0.03,0 -0.03,0.01 -0.03,0.01 -1.14,7.14 -2.06,14.18 -2.79,21.1z"/>
   <path class="fil6" d="M2473.23 1518.47c6.7,-26.05 12.23,-50.85 14.32,-68.16 1.35,-11.4 13.47,-14.25 28.37,-14.25 7.47,0 15.67,0.71 23.54,1.43 7.87,0.72 15.45,1.43 21.75,1.43 3.37,0 6.37,-0.21 8.82,-0.72 0.73,-6.92 1.65,-13.96 2.79,-21.1 -9.85,2.94 -19.45,4.34 -28.89,4.34 -29.66,0 -57.55,-13.82 -85.19,-37.41 1.17,13.15 1.68,26.41 1.68,39.63 0,19.46 -1.03,38.83 -2.38,57.66 -0.26,3.88 -0.58,7.75 -0.95,11.63 3.03,-2.11 5.89,-4.31 8.38,-6.6 0,0 2.16,14.86 7.76,32.12z"/>
   <path class="fil1" d="M2357.4 1262.62c82.51,118 153.76,196.05 246.2,140.6 92.41,-55.51 122.39,-175.45 66.86,-267.85 -55.51,-92.43 -175.37,-122.38 -267.81,-66.89 -92.44,55.51 -107.05,105.76 -45.25,194.14z"/>
   <path class="fil1" d="M2758.54 1562.35c39.36,-25.28 249.98,-62.99 214.83,-109.78 -35.03,-46.77 -222.26,37.95 -258.95,45.56 -35.18,7.3 -100.02,13.97 -126.16,42.28 -13.87,14.96 -10.14,49.18 9.81,58.71 22.92,10.98 61.22,26.98 160.47,-36.77z"/>
   <path class="fil1" d="M2952.03 1413.37c20.76,-20.81 108.88,-161.55 134.73,-258.83 4.68,-17.61 37.89,22.85 37.89,22.85 -9.19,44.87 -73.41,235.44 -112.22,278.51 -18.26,20.38 -67.03,46.34 -81.35,32.03 -27.38,-27.24 7.69,-61.27 20.95,-74.56z"/>
   <path class="fil1" d="M3124.65 1177.39c-0.95,2.28 -10.07,9.19 -24.42,1.48 -14.35,-7.68 -13.47,-24.33 -13.47,-24.33 3.21,-17.35 -6.05,-17.35 -2.9,-45.35 1.14,-9.93 -11.97,-46.69 -11.97,-46.69 0,0 16.55,-4.66 26.07,26.32 0.8,-45.09 -8.43,-81.98 2.6,-83.76 49.46,-7.11 72.05,66.61 60.51,103.93 -6.62,21.52 -20.93,31.85 -36.42,68.4z"/>
   <polygon class="fil1" points="2170.1,2824.3 2261.18,2849.82 2270.34,2810.83 2173.25,2792.34 "/>
   <path class="fil2" d="M2143.26 2771.62c-7.14,17.83 -15.12,49.5 -18.71,67.8 -7.5,37.89 -4.5,61.8 -4.5,61.8l8.27 1.94 33.61 -127.11 -4.87 -1.21 -13.8 -3.22z"/>
   <path class="fil3" d="M2182.43 2830.16c4.32,3.88 -5.23,12.26 -8.31,15.3 -3.99,3.99 -10.1,9.3 -14.09,13.18 -8.64,8.46 -11.94,18.53 -17.03,28.89 -2.89,6.04 -7.54,13.83 -14.68,15.63 0,0 -2.38,-41.96 6.67,-61.32 7.61,-16.4 16.11,-47.16 22.07,-67 0,0 5.46,-0.48 13.58,1.39 8.72,2.02 16.99,9.96 16.99,9.96 3.55,-0.44 5.39,1.72 4.58,3.44 -2.05,4.47 -3.77,3.77 -9.59,7.03 -4.8,2.67 -8.6,7.95 -7.43,11.89 3,9.89 3.62,13.22 3.18,20.14l4.06 1.47z"/>
   <path class="fil20" d="M2939.36 2975.32c-21.34,25.12 -49.94,26.32 -73,23.98 -183.68,-18.75 -603.38,-132.06 -662.22,-147.83 -5.96,-0.41 -18.92,-53.75 18.38,-70 62.79,27.38 321.04,55.42 380.97,50.37 65.09,-5.45 125.54,0.3 184.63,20.98 51.96,18.16 62.97,43.09 128.83,48.4 51.92,4.14 43.76,49.02 22.41,74.1z"/>
   <path class="fil20" d="M2650.79 2103.37c121.59,229.21 311.78,808.43 304.94,833.1 -9.93,35.92 -137.15,35.66 -120.82,13.77 20.32,-27.27 -14.39,-54.22 -32.66,-81.57 -58.17,-86.65 -384.3,-383.61 -315.14,-690.65l-9.3 -58.9 172.98 -15.75z"/>
   <polygon class="fil1" points="2494.06,3679.64 2511.12,3586.64 2471.48,3581.12 2462,3679.41 "/>
   <path class="fil2" d="M2444.09 3711.23c18.38,5.45 50.74,10.51 69.27,12.41 38.33,3.92 61.95,-1.21 61.95,-1.21l1.16 -8.46 -129.7 -21.74 -0.7 4.98 -1.98 14.02z"/>
   <path class="fil3" d="M2498.79 3666.82c3.51,-4.65 12.7,4.07 15.99,6.85 4.33,3.62 10.22,9.22 14.47,12.85 9.15,7.8 19.51,10.25 30.31,14.28 6.22,2.34 14.46,6.25 16.91,13.17 0,0 -41.51,6.23 -61.69,-0.95 -16.98,-6.04 -48.47,-11.71 -68.71,-15.81 0,0 -0.95,-5.42 0.14,-13.66 1.18,-8.9 8.28,-17.87 8.28,-17.87 -0.7,-3.47 1.28,-5.52 3.04,-4.83 4.68,1.61 4.1,3.48 7.91,8.93 3.11,4.44 8.71,7.8 12.51,6.23 9.52,-3.88 12.89,-4.79 19.74,-4.94l1.1 -4.25z"/>
   <path class="fil21" d="M2536.98 2902.39c26.72,11.02 37.37,15.7 38.22,38.84 6.66,184.59 -51.7,646.51 -59.21,706.99 0.41,5.93 -45.24,12.81 -66.48,-21.96 18.45,-65.91 7.76,-318.26 -5.45,-376.87 -14.4,-63.71 -17.03,-124.37 -4.62,-185.8 10.87,-53.89 36.43,-65.24 33.28,-131.25 -1.43,-30.24 33.98,-42.47 64.26,-29.95z"/>
   <path class="fil21" d="M2555.68 2227.8c6.95,76.59 32.11,714.97 20.03,737.49 -17.65,32.88 -108,53.3 -104.23,26.21 5.56,-39.94 -22.56,-88.27 -34.42,-118.94 -37.52,-97.43 -257.7,-523.61 -63.33,-771.11l261.25 3.34c-32.11,53.74 -79.3,123.01 -79.3,123.01z"/>
   <path class="fil1" d="M2373.73 2101.45c50.3,-97.19 59.56,-173.85 52.83,-232.28 -13.99,-121.81 -59.2,-172.11 -64.8,-238.25 -1.98,-23.57 16.36,-110.28 16.36,-110.28 19.62,-0.97 65.35,-14.25 87.35,-34.29 0,0 12.19,84.37 54.29,84.61 42.07,-0.24 48,-78.46 48,-78.46 10.69,14.96 28.74,23.28 47.52,28.14 16.29,4.23 45.76,122.14 43.79,145.75 -5.64,66.16 -102.81,207.52 -8.28,436.98 0,0 -25.15,52.77 -116.78,55.16 -91.6,2.33 -160.28,-57.08 -160.28,-57.08z"/>
   <path class="fil22" d="M2614.37 2138.27c0.69,-0.4 1.39,-0.81 2.05,-1.21 -0.66,0.4 -1.36,0.81 -2.05,1.21 0,0.01 0,0 0,0z"/>
   <path class="fil23" d="M2528.74 2158.6c1.76,0 3.51,-0.02 5.27,-0.07 36.46,-0.93 62.35,-9.85 80.36,-20.26 0,0 0,0.01 0,0 -18.01,10.4 -43.94,19.31 -80.36,20.26 -1.76,0.05 -3.51,0.07 -5.27,0.07 -88.97,0 -155.01,-57.15 -155.01,-57.15l0 0c0,0 66.04,57.15 155.01,57.15z"/>
   <path class="fil5" d="M2420.26 1976.84c1.94,-8.94 3.51,-17.61 4.72,-26.04 0,0.01 0,0.01 0,0.01 -1.25,8.43 -2.78,17.1 -4.72,26.03z"/>
   <path class="fil19" d="M2424.98 1950.81c0,0 0,0 0,-0.01 2.64,-18.31 3.7,-35.45 3.48,-51.44l0 0c0.18,16 -0.84,33.13 -3.48,51.45z"/>
   <path class="fil5" d="M2610.71 1938.53c0,0 0.03,0 0.03,0 -0.91,-13.54 -1.24,-26.56 -0.95,-39.17l-0.07 0c-0.22,12.6 0.07,25.65 0.99,39.17z"/>
   <path class="fil6" d="M2528.74 2158.6c1.76,0 3.51,-0.02 5.27,-0.07 36.42,-0.95 62.35,-9.86 80.36,-20.26 0.69,-0.4 1.39,-0.81 2.05,-1.21 7.61,-4.59 13.69,-9.41 18.56,-13.93 -11.31,4.17 -22.81,7.37 -33.5,9.89 -9.89,2.35 -22.88,3.58 -37.2,3.58 -52.06,0 -121.69,-16.29 -124.37,-54.47 -10.68,-155.22 64.41,-118.53 170.8,-143.6 -0.92,-13.52 -1.21,-26.57 -0.99,-39.17l-181.26 0c0.22,15.99 -0.84,33.13 -3.48,51.44 -1.21,8.43 -2.78,17.1 -4.72,26.04 -8.06,37.09 -22.66,78.55 -46.53,124.61 0,0 66.04,57.15 155.01,57.15z"/>
   <path class="fil24" d="M2378.74 1888.77c15.41,-111.22 -11.38,-191.71 -16.98,-257.85 -1.98,-23.57 16.36,-110.28 16.36,-110.28 19.62,-0.97 65.35,-14.25 87.35,-34.29 0,0 12.19,84.37 54.29,84.61 42.07,-0.24 48,-78.46 48,-78.46 10.69,14.96 28.74,23.28 47.52,28.14 16.29,4.23 45.76,122.14 43.79,145.75 -5.64,66.16 -8.28,154.39 -8.28,231.98 -37.74,40.78 -234.34,31.18 -272.05,-9.6z"/>
   <path class="fil1" d="M2253.1 1556.08c-36.55,-29.2 -242.15,-88.36 -202.42,-131.29 39.64,-42.93 217.21,60.65 252.93,71.96 34.27,10.87 98.01,24.18 121.12,55.07 12.22,16.29 5.04,49.96 -15.79,57.38 -24.01,8.53 -63.73,20.52 -155.84,-53.12z"/>
   <path class="fil1" d="M2075.97 1388.02c-18.53,-22.84 -107.85,-248.45 -114.15,-271.7 -4.83,-17.56 -39.98,18.89 -39.98,18.89 3.44,31.26 55.47,242.04 89.66,288.89 16.11,22.12 61.94,52.97 77.61,40.24 30.02,-24.32 -1.32,-61.76 -13.14,-76.32z"/>
   <path class="fil1" d="M1921.84 1135.21c0.62,2.34 8.97,10.15 24.05,3.97 15.08,-6.16 15.93,-22.86 15.93,-22.86 -1.43,-17.56 7.76,-16.61 7.51,-44.79 -0.12,-10.01 16.72,-45.2 16.72,-45.2 0,0 -15.96,-6.33 -28.66,23.51 3.88,-44.98 16.84,-80.69 6.08,-83.57 -48.52,-12.2 -78.53,58.79 -70.92,97.12 4.39,22.11 17.61,33.82 29.29,71.82z"/>
   <path class="fil25" d="M2166.15 1647.72c3.62,-6.16 7.02,-12.44 10.14,-18.85 27.05,-55.3 20.13,-108.47 20.53,-167.61 0.33,-43.94 17.18,-81.56 49.39,-110.46 30.64,-27.43 57.95,-51.78 67.73,-93.5 8.17,-34.96 5.46,-73.03 12.41,-108.24 12.23,-62 37.75,-136.17 93.61,-170.93 26.4,-16.42 100.83,-46.51 143.08,-3.39 0,0 37.56,123.17 20.1,144.03 -11.57,16.26 -35.22,27.31 -72.78,45.21 -50.49,24.06 -57.78,66.44 -77.32,88.04 -7.29,8.02 -9.23,2.61 -10.51,-2.8 -1.14,-4.84 -1.76,-9.68 -5.2,-4.88 -56.53,78.72 3.74,173.81 -14.02,259.3 -11.46,54.95 -55.95,84.49 -89,125.23 -35.77,44.2 -45.91,97.75 -42.69,153.5 2.63,45.87 17.97,103.89 -18.85,140.43 -92.74,92.05 -152.64,-117.61 -134.08,-183.4 9.38,-33.39 30.21,-61.68 47.46,-91.68z"/>
   <path class="fil25" d="M2581.08 1104.01c14.84,45.92 -43.64,65.86 -71.6,88.7 -16.44,13.42 -33.32,26.84 -45,44.79 -15.74,24.12 -15.15,52.61 -23.06,79.26 -1.14,3.79 -6.08,2.68 -6.48,-0.88 -4.87,-42.68 14.05,-85.23 45.47,-113.2 16.47,-14.67 34.08,-28.89 53.19,-39.95 25.49,-14.73 43.57,-26.49 45.18,-58.42 0.08,-1.32 1.9,-1.57 2.3,-0.3z"/>
   <path class="fil1" d="M2442.11 1256.15c-10.9,10.96 -11.53,-8.61 -17.27,-15.69 -4.14,-5.13 -9.38,-10.04 -16.08,-11.63 -14.17,-3.34 -28.81,4.58 -32.11,19.06 -3.33,14.74 2.17,28.85 15.31,36.79 9.62,5.77 29.55,11.11 37.27,1.28l12.88 -29.81z"/>
   <path class="fil6" d="M2421.79 1265.58c0.85,0 1.69,-0.08 2.5,-0.24 0.47,-0.09 0.58,-0.84 0.14,-1.05 -5.86,-2.78 -11.35,-3.96 -16.18,-8.75 -3.81,-3.75 -6.63,-8.33 -10.58,-12.03 -0.15,-0.12 -0.3,-0.19 -0.48,-0.19 -0.36,0 -0.73,0.37 -0.62,0.84 1.14,4.96 5.12,10.67 10.25,14.95 3.41,0.28 6.77,1.18 9.11,2.16 0.7,0.28 1.14,0.74 1.18,1.51l-0.04 0.66c-0.47,0.48 -1.06,0.74 -1.72,0.84 2.16,0.82 4.32,1.3 6.44,1.3z"/>
   <path class="fil6" d="M2396.17 1265.74c1.98,0 3.92,-0.61 5.89,-1.22 1.98,-0.61 3.96,-1.21 6.01,-1.21 0.03,0 0.11,0 0.18,0 1.72,0.03 4.25,1.02 6.29,1.02 0.3,0 0.56,-0.02 0.81,-0.05 0.66,-0.1 1.25,-0.36 1.72,-0.84l0.04 -0.66c-0.04,-0.77 -0.48,-1.23 -1.18,-1.51 -2.34,-0.98 -5.7,-1.88 -9.11,-2.16 -0.73,-0.07 -1.5,-0.1 -2.23,-0.1 -4.47,0 -8.68,1.22 -10.65,4.8 -0.52,0.89 0.14,1.74 1.06,1.86 0.4,0.05 0.77,0.07 1.17,0.07z"/>
   <path class="fil10" d="M2618.83 1327.83c0,0 -20.57,-4.76 -44.7,-4.74 -24.16,0 -48.51,4.57 -48.51,4.57 0,0 10.25,42.81 47.38,42.87 37.63,0.07 45.83,-42.7 45.83,-42.7z"/>
   <path class="fil11" d="M2634.76 1247.79c1.25,4.53 5.9,7.2 10.43,5.99 4.55,-1.23 7.21,-5.91 5.97,-10.43 -1.21,-4.53 -5.89,-7.2 -10.43,-5.99 -4.51,1.25 -7.18,5.91 -5.97,10.43z"/>
   <path class="fil11" d="M2507.94 1244.34c1.28,4.52 5.93,7.21 10.43,5.98 4.51,-1.2 7.25,-5.9 6.01,-10.43 -1.21,-4.53 -5.9,-7.2 -10.43,-5.98 -4.54,1.22 -7.18,5.9 -6.01,10.43z"/>
   <path class="fil25" d="M2524.74 1223.72c-4.5,-2.81 -9.22,-3.93 -14.35,-2.35 -4.64,1.42 -6.19,6.39 -9.88,8.97 -0.8,0.57 -2.31,0.23 -2.71,-0.71 -2.82,-6.35 2.96,-12.38 7.98,-15.6 7.43,-4.8 16.73,-3.07 23.79,1.4 5.24,3.3 0.44,11.56 -4.83,8.29z"/>
   <path class="fil25" d="M2630.99 1220.71c8.64,-12.08 38.51,3.83 30.64,13.45 -0.48,0.55 -1.28,0.65 -1.94,0.51 -3.26,-0.71 -6,-4.88 -8.86,-6.6 -2.49,-1.48 -5.3,-2.14 -8.16,-2.33 -2.86,-0.19 -5.27,1.19 -8.13,1.18 -2.89,-0.01 -5.42,-3.59 -3.55,-6.21z"/>
   <path class="fil26" d="M2577.98 1307.98c2.2,0 4.39,-0.38 6.44,-1.09 4.58,-1.96 8.64,-5.81 9.85,-10.82 1.42,-5.1 -1.21,-10.06 -4.47,-13.2 2.23,4.07 3.48,8.59 2.23,12.56 -1.32,3.97 -4.9,6.87 -8.86,8.18 -2.09,0.9 -4.35,1.42 -6.66,1.42 -1.9,0 -3.84,-0.37 -5.56,-1.18 -3.81,-1.82 -6.49,-5.66 -7.91,-10.06 0.03,4.61 2.16,9.72 6.81,12.14 2.49,1.41 5.31,2.05 8.13,2.05z"/>
   <path class="fil25" d="M2460.79 965.21c-21.24,8.39 -38.12,16.14 -54.88,32.29 -16.77,16.18 -29.51,36.28 -40.68,56.56 -18.42,33.45 -29.54,68.27 -37.75,105.32 -11.74,52.99 -25.33,146.74 -91.93,158.16 -5.01,0.85 -6.84,-5.8 -2.08,-7.58 71.21,-26.63 76,-120.57 93.17,-183.62 9.85,-36.1 27.61,-71.04 48.73,-101.77 18.57,-27.07 49.47,-61.27 84.9,-63.26 2.42,-0.13 2.45,3.13 0.52,3.9z"/>
   <path class="fil25" d="M2325.22 1217.26c6.95,81.1 -84.28,135.01 -123.56,194.82 -23.36,35.57 -33.87,77.24 -41.81,118.51 -7.55,39.32 -10.66,84.58 -29.26,120.59 -0.98,1.91 -4.5,1.13 -4.21,-1.15 2.45,-19.35 8.28,-38.4 11.97,-57.58 3.77,-19.73 7.15,-39.54 10.84,-59.29 6.89,-36.87 15.93,-73.25 33.17,-106.77 38.15,-74.11 134.07,-118.98 140.11,-209.13 0.15,-1.76 2.6,-1.74 2.75,0z"/>
   <path class="fil25" d="M2396.09 1297.25c-2.67,42.25 2.78,82.55 8.31,124.36 5.28,39.98 8.46,80.63 -4.39,119.54 -11.67,35.54 -39.87,60.51 -58.36,92.02 -10.28,17.52 -17.02,36.75 -21.49,56.48 -4.61,20.4 -2.92,42.01 -8.34,62.09 -0.55,2 -3.56,2.03 -4.07,0 -8.16,-31.65 1.54,-73.62 14.75,-102.74 16.34,-35.99 45.77,-62.34 63.45,-97.38 40.79,-80.82 -14.75,-171.49 6.89,-254.81 0.47,-1.79 3.37,-1.45 3.25,0.44z"/>
   <path class="fil25" d="M2327.2 1603.57c-9.63,22.75 -23.54,43.62 -33.84,66.14 -11.75,25.78 -19.36,53.05 -20.13,81.45 -0.99,35.23 10.61,71.28 15.15,106.08 8.39,63.75 0.92,138.57 -69.59,162.48 -3.19,1.08 -4.98,-3.64 -2.24,-5.3 33.25,-20.05 56.2,-43.06 63.6,-82.27 6.44,-34.05 -0.04,-70.24 -5.82,-103.87 -5.93,-34.39 -12.78,-67.89 -7.4,-102.86 6.63,-42.9 30.5,-90.35 58.44,-123.25 0.9,-1.09 2.26,0.3 1.83,1.4z"/>
   <path class="fil25" d="M2271.47 1877.69c6.33,26.83 -9.74,57.23 -24.16,78.8 -15.63,23.4 -38.22,43.79 -66.89,46.75 -3.18,0.32 -3.69,-4.64 -0.77,-5.45 54.22,-14.89 78.72,-70.15 88.38,-120.1 0.33,-1.74 3.04,-1.66 3.44,0z"/>
   <path class="fil25" d="M2224.02 1499.53c2.64,76.28 -55.93,135.25 -83.36,201.54 -14.82,35.9 -19,75.09 -17.09,113.61 2.12,42.64 17.53,80.53 26.76,121.52 0.73,3.22 -3.63,5.19 -5.39,2.26 -18.45,-31.02 -25.81,-69.86 -30.31,-105.22 -5.01,-39.34 -1.54,-79.33 10.14,-117.21 11.21,-36.36 33.9,-67.67 52.9,-100.18 21.82,-37.35 34.93,-74.54 43.83,-116.65 0.33,-1.48 2.49,-1.06 2.52,0.33z"/>
   <path class="fil25" d="M2395.69 1009.23c-18.09,17.29 -33.28,34.71 -45.14,56.9 -12.19,22.79 -20.1,47.74 -28.23,72.17 -13.06,39.11 -27.09,93.82 -63.37,118.24 -1.57,1.07 -3.44,-1.01 -2.52,-2.55 12.44,-21.49 27.27,-40.42 37.71,-63.25 10.83,-23.67 18.55,-48.72 27.31,-73.19 14.64,-40.86 34.23,-86.57 72.08,-111.12 1.72,-1.11 3.59,1.41 2.16,2.8z"/>
   <path class="fil25" d="M2204.48 1438.38c-0.44,27.14 -6.96,55.07 -11.61,81.75 -4.73,27.11 -10.66,55.27 -24.53,79.34 -1.28,2.28 -5.2,0.76 -4.28,-1.82 9.08,-26.22 16.84,-52.07 22.11,-79.37 5.05,-26.38 6.33,-55.41 17.24,-80.19 0.22,-0.55 1.07,-0.25 1.07,0.29z"/>
   <path class="fil25" d="M2576.22 1087.75c9.85,-29.89 -50.6,-78.87 -18.89,-111.06 44.04,-44.76 141.83,1.99 174.67,45.47 30.13,39.92 114.74,193.73 -65.5,433.25 -77.32,102.84 -39.35,363.12 -76.3,437.94 -29.58,59.86 -77.87,121.83 -143.51,144.02 -95.18,32.27 -174.82,-57.83 -122.32,-147.44 21.86,-37.18 51.3,-75.52 82.63,-105.03 35.3,-33.09 76.04,-63.78 89.74,-112.58 11.09,-39.24 -0.37,-82.49 8.31,-122.91 8.9,-41.79 45.14,-83.45 74.5,-113.32 33.5,-34.1 81.42,-89.96 99.29,-136.27 13.03,-33.79 -1.94,-87.43 -27.35,-117.37 -37.42,-44.02 -91.38,-46.07 -75.27,-94.7z"/>
   <path class="fil25" d="M2666.9 1193.88c26.8,29.48 26.51,73.57 11.57,108.39 -8.01,18.72 -20.39,35.35 -32.65,51.45 -10.87,14.33 -21.38,31.74 -35.04,43.54 -1.61,1.39 -3.84,0.06 -3.44,-2 2.56,-13.9 13.47,-25.77 21.71,-36.76 10.36,-13.89 20.9,-27.53 30.16,-42.2 10.44,-16.51 18.35,-34.84 20.95,-54.28 3.26,-24.37 -6.85,-45.15 -14.39,-67.49 -0.18,-0.63 0.69,-1.14 1.13,-0.65z"/>
   <path class="fil25" d="M2695.57 1054.64c14.2,-6.24 35.62,-11.86 49.35,-1.45 11.09,8.4 11.57,25.74 12.85,38.27 2.86,27.25 10.22,53.52 13.07,80.74 3.59,34.47 0.15,69.46 -5.89,103.44 -11.61,65.43 -36.94,129.86 -70.26,187.24 -12.67,21.78 -26.91,42.71 -35.84,66.4 -11.83,31.24 -8.53,63.17 -8.57,95.76 0,2.74 -3.92,3.22 -4.72,0.64 -13.84,-46.35 -3.92,-92.84 19.25,-134.04 28.13,-50.02 55.18,-98.01 73.27,-152.95 20.39,-61.89 31.19,-129.27 19.18,-193.93 -4.06,-21.94 -6.89,-43.45 -9.99,-65.53 -4.14,-29.44 -26.29,-22.24 -49.21,-18.62 -3.34,0.53 -6.19,-4.36 -2.49,-5.97z"/>
   <path class="fil25" d="M2603.82 1754.59c8.21,32.4 2.75,69.44 -3,101.9 -6.15,34.57 -18.05,67.75 -33.9,99.03 -31.34,61.87 -85.01,118.79 -150.55,144.13 -2.27,0.88 -3.47,-2.57 -1.57,-3.78 59.86,-38.24 109.54,-81.97 143.08,-145.65 15.88,-30.16 26.51,-63.04 33.71,-96.27 7.18,-32.97 5.79,-66.29 10.74,-99.36 0.1,-0.8 1.31,-0.72 1.49,0z"/>
   <path class="fil25" d="M2568.75 1923.72c-1.76,44.75 -48.03,85.42 -80.25,110.98 -28.56,22.65 -83.22,60.73 -121.84,41.58 -3.51,-1.76 -0.8,-6.27 2.45,-5.82 43.09,5.88 83.88,-19.62 116.57,-44.92 33.75,-26.1 67.44,-60.83 81.53,-102.03 0.26,-0.8 1.58,-0.71 1.54,0.21z"/>
   <path class="fil25" d="M2568.9 1923.98c-14.9,53.61 -61.62,100.63 -113.06,119.99 -30.31,11.42 -80.54,18.21 -108.11,-3.77 -1.57,-1.25 0.19,-3.22 1.72,-2.98 35.33,5.7 65.28,10.87 100.68,-0.34 23.69,-7.5 44.96,-21.49 63.12,-38.22 23.5,-21.68 36.9,-49.02 53.89,-75.42 0.58,-0.89 2.05,-0.32 1.76,0.74z"/>
  </g>
  <g id="_1470279188992">
   <path class="fil1" d="M1891.89 2725.41c7.66,-74.66 5.39,-88.8 41.33,-151.21 31.56,-54.8 63.59,-57.74 84.29,-130.88 9.56,-33.46 52.53,-33.8 80.98,-9.14 25.08,21.76 34.97,30.8 27.44,56.31 -58.12,196.54 -281.6,616.72 -325.79,705.94 0.04,17.42 30.31,46 40.57,54.33 5.98,4.84 36.11,18.26 26.43,23.74 -11.74,6.68 -48.4,-2.7 -67.71,-17.94 -16.29,-12.83 -42.17,-19.69 -51.18,-29.2 -8.96,-9.43 -8.79,-17.04 -4.58,-25.67 4.54,-9.22 12.62,-13.13 12.62,-13.13 0,-0.59 5.51,-9.98 5.98,-10.73 31.64,-75.25 122.76,-385.55 129.62,-452.42z"/>
   <path class="fil2" d="M1729.14 3235.44c19.32,10.57 54.54,23.99 74.92,30.56 42.25,13.55 69.94,13.42 69.94,13.42l3.33 -9.22 -140.61 -55.47 -2.02 5.43 -5.56 15.28z"/>
   <path class="fil3" d="M1801.28 3198.61c5.01,-4.41 13.3,7.62 16.33,11.54 3.96,5.13 9.26,12.79 13.17,17.84 8.42,11.07 19.49,16.25 30.64,23.31 6.52,4.17 14.82,10.53 15.91,18.9 0,0 -48.19,-2.95 -69.15,-15.82 -17.63,-10.86 -51.68,-24.79 -73.48,-34.22 0,0 0.21,-6.31 3.41,-15.32 3.45,-9.67 13.67,-18.05 13.67,-18.05 0,-4.12 2.62,-5.9 4.6,-4.76 4.75,2.99 3.74,4.88 6.64,11.96 2.44,5.76 7.96,10.77 12.59,10.02 11.7,-2.12 15.65,-2.41 23.44,-0.89l2.23 -4.51z"/>
   <path class="fil1" d="M1429.94 2951.58c34.66,-66.62 -6.68,-33.8 49.72,-78.54 49.54,-39.3 80.38,-30.25 126.6,-90.61 21.21,-27.64 61.31,-12.04 78.65,21.42 15.28,29.51 21.13,41.5 4.72,62.46 -126.51,161.27 -491.32,473.08 -491.32,473.08 2.6,17.17 36.75,41.03 48.1,47.81 6.64,3.87 38.37,12.71 29.67,19.61 -10.67,8.29 -48.28,4.33 -69.61,-7.83 -18.06,-10.27 -44.64,-13.33 -54.92,-21.38 -10.29,-8.03 -11.24,-15.57 -8.38,-24.74 3.18,-9.81 11.44,-17.09 11.44,-17.09 -0.06,-0.54 244.35,-324.56 275.33,-384.19z"/>
   <path class="fil2" d="M1133.31 3388.34c20.66,7.53 57.37,15.65 78.54,19.14 43.75,7.28 71.13,3.08 71.13,3.08l2 -9.6 -147.29 -34.26 -1.15 5.68 -3.23 15.96z"/>
   <path class="fil3" d="M1199.18 3341.24c4.31,-5.05 14.26,5.64 17.94,9.01 4.65,4.51 10.95,11.31 15.58,15.78 9.95,9.64 21.69,13.09 33.75,18.56 7.07,3.2 16.22,8.2 18.53,16.37 0,0 -48.14,4.13 -70.72,-5.51 -19.03,-8.17 -54.77,-16.96 -77.72,-23.07 0,0 -0.74,-6.31 1.13,-15.65 1.98,-10.1 10.86,-19.87 10.86,-19.87 -0.64,-4.12 1.77,-6.31 3.77,-5.42 5.18,2.27 4.5,4.29 8.43,10.85 3.19,5.35 9.4,9.6 13.94,8.04 11.2,-3.83 15.05,-4.58 22.94,-4.29l1.57 -4.8z"/>
   <path class="fil27" d="M1103.88 1258.78c-0.08,-0.86 -0.08,-1.75 -0.08,-2.59 -3.81,-114.36 -134.34,-220.7 -0.02,-265.49l67.55 -48.88c103.29,-109.63 227.26,-32.29 325.46,62.42 -3.74,3.72 -5.55,9.24 -3.2,16.13 21.01,61.86 21.43,124.98 0.39,188.9 -28.75,87.4 -102.15,139.61 -103.04,214.71 1.2,4.49 2.28,9.22 3.17,14.1 -75.58,-19.63 -151.19,-62.35 -213.86,-111.55l3.41 -25.8c-34.27,-19.56 -63.85,-35.47 -79.78,-41.95z"/>
   <path class="fil28" d="M1479.45 1179.95c-3.15,50.17 -33.74,87.48 -63.4,125.61 -23.35,30.03 -51.66,67.48 -48.84,107.82 0.14,1.92 3.2,2.61 3.55,0.48 8.12,-48.85 31.75,-84.04 61.1,-122.96 24.4,-32.36 49.66,-68.58 48.44,-110.95 0,-0.56 -0.81,-0.56 -0.85,0z"/>
   <path class="fil28" d="M1420.04 1272.57c-30.64,36.2 -69.93,79.84 -70.72,129.85 -0.02,0.89 1.42,1.12 1.58,0.21 9.27,-52.46 43.89,-85.49 70.04,-129.36 0.33,-0.55 -0.47,-1.2 -0.9,-0.7z"/>
   <path class="fil28" d="M1341.36 1319.95c-4.56,26.22 -11.6,53.9 -5.14,80.33 0.32,1.34 2.28,0.99 2.33,-0.32 0.99,-26.59 3.72,-53.26 3.92,-79.85 0.01,-0.63 -1,-0.8 -1.11,-0.16z"/>
   <path class="fil28" d="M1300.6 1316.66c7.14,23.98 5.34,49.49 12.17,73.32 0.37,1.28 2.16,0.95 2.25,-0.31 1.7,-24.13 -3.89,-51.12 -12.58,-73.52 -0.44,-1.11 -2.19,-0.69 -1.84,0.51z"/>
   <path class="fil28" d="M1256.14 1299.7c5.77,13.11 12.54,25.79 17.51,39.24 5.04,13.63 7.28,28.24 12.78,41.66 0.48,1.19 2.51,1.19 2.42,-0.33 -1.69,-29.77 -16.26,-56.46 -31.8,-81.1 -0.37,-0.58 -1.18,-0.08 -0.91,0.53z"/>
   <path class="fil28" d="M1284.02 1319.18c7.02,16.74 5.67,35.65 12.14,52.58 0.5,1.35 2.64,0.82 2.19,-0.61 -5.41,-17.13 -5.59,-36.02 -13.11,-52.49 -0.31,-0.69 -1.5,-0.19 -1.22,0.52z"/>
   <path class="fil1" d="M1243.19 1522.34c4.73,-41.09 -1.18,-80.84 -3.86,-122.06 -4.27,-64.07 -16.67,-120.02 -41.56,-182.43 59.53,16.04 152.76,60.98 152.76,60.98 -9.15,152.64 54.56,259.93 70.05,282.67 -37.59,37.56 -104.09,131.35 -187.04,21.34 3.88,-20.05 7.33,-40.18 9.65,-60.5z"/>
   <path class="fil29" d="M1349.81 1321.41c-0.19,-7.34 -0.22,-14.79 -0.07,-22.37 0,-0.01 0.02,-0.01 0.03,-0.01 -0.13,7.57 -0.1,15.02 0.06,22.37 -0.01,0 -0.02,0.01 -0.02,0.01z"/>
   <path class="fil6" d="M1308.93 1485.55c-18.17,0 -33.23,-14.34 -44.72,-31.4 1.16,-9.14 2.15,-17.81 2.96,-26.07 8.94,20.41 25.88,40.57 57.51,53.69 -3.27,1.65 -6.87,2.83 -10.85,3.43 -1.66,0.23 -3.29,0.35 -4.9,0.35zm-44.04 -142.72c-4.13,-18.31 -11.31,-35.47 -22.51,-53.33 26.78,8.47 51.69,13.31 74.58,13.31 11.44,0.01 22.37,-1.2 32.78,-3.77 -0.15,7.58 -0.12,15.03 0.07,22.37 -25.04,4.77 -68.48,7.66 -84.92,21.42z"/>
   <path class="fil1" d="M1237.15 2115.13c41.07,-118.93 38.84,-207.61 21.49,-272.96 -36.16,-136.24 -95.94,-185.89 -113.29,-260.23 -6.18,-26.44 0.26,-128.19 0.26,-128.19 22.18,-4.39 72.03,-27.06 93.72,-53.47 0,0 27.8,93.92 75.8,87.2 47.8,-7.25 41.49,-97.21 41.49,-97.21 14.63,15.23 44.36,23.49 66.5,25.88 19.26,2.07 64.63,129.61 66.27,156.7 4.67,76.2 -70.13,270.07 75.41,515.39 0,0 -48.56,91.79 -152.4,109.76 -103.79,17.89 -175.25,-82.87 -175.25,-82.87z"/>
   <path class="fil30" d="M1534.55 2801.5c25.29,-43.14 -308.71,-211.14 -365.76,-430.07 -57.04,-218.97 99.78,-395.43 99.78,-395.43 172.96,64.35 236.3,-17.72 236.3,-17.72 0,0 54.3,61.69 98.02,110.18 0,0 589.53,277.72 558.34,408.52 -87.95,250.32 -126.63,388.99 -126.63,388.99 0,0 -180.21,-8.58 -232.56,-98.01 0,0 112.28,-207.19 119.9,-256.59 5.68,-36.91 -281.43,-47.01 -475.42,-198.52 0,0 370.62,456.11 271.51,570.08 -174.02,200.2 -213.16,284.04 -213.16,284.04 0,0 -164.29,-74.49 -179.95,-176.97 0,0 184.37,-145.37 209.63,-188.5z"/>
   <path class="fil31" d="M1546.66 2446.25c0,0 -128.08,-111.35 -153.03,-171.28 5.67,1.31 11.01,1.98 16.09,1.98 33.75,0 56.39,-28.74 91.87,-84.21 0,0 -13,78.45 -55.07,120.11l0 0 100.14 133.4z"/>
   <path class="fil6" d="M1389.64 2000.62c-0.04,0 -0.06,0 -0.09,0 -31.95,0 -71.39,-6.36 -119.28,-23.99l0 0c-0.32,-0.13 -0.64,-0.21 -0.95,-0.34 -0.26,-0.08 -0.5,-0.21 -0.75,-0.29l0 0c3.64,-40.15 1.68,-75.33 -3.79,-106.1 3.53,0.29 7.27,0.59 11.25,0.8 2.89,47.47 26.21,97.09 81.14,108.88 12.77,2.73 25.62,3.87 38.14,3.87 55.44,0 104.22,-22.22 109.56,-25.17l0 0c-0.38,0.46 -33.16,42.34 -115.19,42.34 -0.02,0 -0.02,0 -0.04,0z"/>
   <path class="fil32" d="M1389.64 2000.62l0 0c0.02,0 0.02,0 0.04,0 -0.02,0 -0.02,0 -0.04,0zm-0.09 0c-31.96,0 -71.38,-6.36 -119.28,-23.99 47.89,17.63 87.33,23.99 119.28,23.99zm-119.28 -23.99c-0.32,-0.13 -0.64,-0.21 -0.95,-0.34 0.31,0.13 0.63,0.21 0.95,0.34zm-1.7 -0.63l0 0zm236.3 -17.72l0 0 0 0 0 0z"/>
   <path class="fil1" d="M1562.15 1414.81c25.81,-47.17 217.67,-201 156.52,-228.96 -61.15,-27.94 -203.57,160.6 -236.44,188.47 -31.53,26.69 -93.22,69.09 -104.08,112.02 -5.72,22.72 16.83,55.24 42.23,53.92 29.19,-1.57 76.62,-6.49 141.77,-125.45z"/>
   <path class="fil1" d="M1675.53 1158.05c9.51,-32.43 57.24,-209.02 29.8,-321.44 -5.01,-20.32 50.79,2.28 50.79,2.28 15.36,50.33 19.28,264.06 3.75,328.9 -7.28,30.6 -42.21,83.61 -64.47,77.07 -42.64,-12.5 -25.93,-66.11 -19.87,-86.81z"/>
   <path class="fil1" d="M1756.12 838.89c0.26,2.77 -5.13,14.78 -23.82,14.88 -18.73,0.13 -26.97,-17.16 -26.97,-17.16 -6.32,-19.28 -15.66,-14.21 -27.91,-44.19 -4.33,-10.66 -37.75,-40.52 -37.75,-40.52 0,0 14.14,-13.82 40.79,12.19 -24,-45.92 -53.58,-78.1 -43.4,-85.9 46,-34.45 109.3,27.55 118.26,71.59 5.09,25.38 -3.66,43.64 0.8,89.11z"/>
   <path class="fil33" d="M1605.92 1374.77c-17.68,18.58 -32.07,35.51 -37.83,46.02 -65.11,118.93 -120.32,119.74 -149.51,121.31 -25.44,1.34 -47.92,-31.14 -42.25,-53.85 10.91,-43.02 62.83,-85.7 94.37,-112.36 7.11,-6.02 23.52,-28.42 38.97,-45.63 28.92,7 72.14,28.27 96.25,44.51z"/>
   <path class="fil34" d="M1521.29 1832.74c-13.22,9.89 -107.66,26.43 -138.55,31.27 -106.57,16.71 -158.53,-0.84 -158.67,-1.27 -36.09,-136.22 -62.62,-208.78 -80,-283.05 -6.17,-26.48 0.32,-128.19 0.32,-128.19 22.13,-4.41 71.96,-27.07 93.69,-53.53 0,0 27.83,93.95 75.75,87.23 47.83,-7.29 41.58,-97.23 41.58,-97.23 14.61,15.24 46.39,23.28 68.49,25.71 19.3,2.09 57.2,105.41 64.26,156.9 6.06,44.02 5.77,140.71 33.13,262.16z"/>
   <path class="fil35" d="M1224.07 1862.74c0,0 0,0 0,0 -15.85,-59.79 -29.86,-107.35 -42.04,-148.15l0 0c12.18,40.8 26.19,88.36 42.04,148.15 0,0 0,0 0,0z"/>
   <path class="fil36" d="M1291.07 1871.16c-44.3,-0.63 -66.4,-7.99 -66.99,-8.42l0 0 -0.01 0c0,0 0,0 0,0 -15.85,-59.79 -29.86,-107.35 -42.04,-148.15 -15.58,-52.12 -28.21,-93.24 -37.96,-134.9 -1.99,-8.54 -2.66,-24.88 -2.66,-43.12 0,-38.35 2.98,-85.07 2.98,-85.07 0.08,-0.02 0.17,-0.03 0.26,-0.03 6.42,0 46.74,36.51 51.6,62.08 12.37,65.33 3.56,132.85 17.24,197.8 9.83,46.86 32.92,124.55 77.58,159.81z"/>
   <path class="fil1" d="M1022.56 1466.58c-28.55,-45.54 -229.04,-187.83 -169.71,-219.36 59.47,-31.44 212.64,148.37 247.14,174.23 32.96,24.83 97.1,63.44 110.45,105.75 7.04,22.33 -13.54,56.09 -38.97,56.26 -29.21,0.16 -76.86,-1.95 -148.91,-116.88z"/>
   <path class="fil1" d="M900.91 1246.47c-9.99,-165.83 -43.45,-241.6 -38.27,-335.56 1.11,-20.92 -50.81,2.48 -50.81,2.48 14.49,83.8 -2.59,171.48 6.45,265.62 7.18,73.94 33.75,132.03 56.06,125.42 42.54,-12.72 27.89,-36.48 26.57,-57.96z"/>
   <path class="fil1" d="M813.26 922.26c0.52,2.78 9.02,21.59 27.14,16.79 18.08,-4.86 21.81,-18.12 21.81,-18.12 -0.45,-34.53 11.08,-23.4 14.88,-55.56 1.42,-11.4 25.82,-49.06 25.82,-49.06 0,0 -17.26,-9.58 -36.14,22.58 11.04,-50.67 31.14,-89.51 19.24,-94.37 -53.42,-21.08 -98.17,55.39 -95.16,100.18 1.67,25.85 14.71,32.5 22.41,77.56z"/>
   <path class="fil37" d="M1042.22 1356.97c-21.34,16.17 -42.53,61.27 -53.07,87.17 12.88,12.52 25.1,22.08 30,29.93 72.07,114.91 123.38,112.16 152.59,111.98 25.44,-0.14 46.01,-33.94 38.98,-56.28 -13.36,-42.29 -68.8,-85.83 -101.83,-110.59 -10.7,-8.06 -39.38,-35.41 -66.67,-62.21z"/>
   <path class="fil1" d="M1100.06 1225.8c146.5,77.11 260.38,119.41 325.6,13.97 65.24,-105.36 32.67,-243.64 -72.71,-308.89 -105.4,-65.21 -243.62,-32.67 -308.91,72.74 -65.2,105.36 -53.64,164.45 56.02,222.18z"/>
   <path class="fil38" d="M1486.1 1792.46c8.59,30.93 27.66,54.55 64.06,70.07 -8.76,-62.96 -30.01,-105.63 -71.8,-156.21l7.74 86.14z"/>
   <path class="fil27" d="M1448.09 1658.57c58.09,48.99 110.44,64.35 127.87,160.7 -58.92,-30.47 -127.87,-160.7 -127.87,-160.7z"/>
   <path class="fil27" d="M1432.67 1629.53c-7.43,67.06 -2.01,107.06 53.43,162.93 16.42,-54.96 4,-115.06 -43.21,-147.31l-10.22 -15.62z"/>
   <path class="fil39" d="M1425.67 1590.3c62.71,49.21 104.33,51.13 114.01,144.29 -65.07,-46.99 -105.7,-71.99 -136.95,-149.9l22.94 5.61z"/>
   <path class="fil38" d="M1304.2 1457.36c109.79,32.75 140.64,158.79 126.83,233.94 -97.76,-65.78 -96.26,-142.19 -127.1,-229.36l0.27 -4.58z"/>
   <path class="fil39" d="M1521.92 1768.56c47.26,32.28 95.58,73.99 83.12,142.92 -26.05,-38.29 -58.08,-72.76 -74.71,-115.23l-8.41 -27.69z"/>
   <path class="fil39" d="M1605.04 1911.48c55.72,19.36 66.45,88.76 103.74,134.42 50.58,60.27 112.36,79.25 177.63,121.63 -147.41,-20.54 -350.73,-96.89 -300.94,-256.81l19.57 0.76z"/>
   <path class="fil27" d="M1249.19 1392.26c-6.81,99.35 2.5,182.98 105.25,217.8 -26.98,-111.98 -6.18,-153.06 -105.25,-217.8z"/>
   <path class="fil27" d="M1546.88 1858.96c1.88,10.48 20.49,38.85 38.59,51.76l19.57 0.76c-4.04,-13.01 -24.66,-72.47 -74.45,-107.19l16.29 54.67z"/>
   <path class="fil39" d="M1241.15 1364.1c90.3,55.08 171.25,38.32 202.81,160.31 -105.96,-14.09 -173.56,-89.47 -232.61,-168.62l29.8 8.31z"/>
   <path class="fil38" d="M1124.28 1344.36c-86.5,-103.04 -95.74,-148.75 -120.71,-211.18 -77.72,-194.86 106.93,-356.21 237.01,-320.69l59.48 120.73c0,0 -10.22,43.03 -77.38,96.89 -69.99,56.15 -44.6,111.36 -39.43,144.45 1.98,12.73 -3.43,9.79 -8.86,6.85 -4.51,-2.43 -9.04,-4.87 -9.41,1.62 -0.33,6.21 0.36,11.95 1.76,17.4 5.75,6.25 10.9,13.1 17.13,19.31 99.29,99.71 94.58,140.25 72.27,291.72 -27.87,-29.75 -87.71,-114.42 -131.86,-167.1z"/>
   <path class="fil27" d="M1379.5 1502.62c69,12.4 130.34,41.86 132.4,153.09 -99.86,-10.52 -111.42,-91.55 -151.37,-157.69l18.97 4.6z"/>
   <path class="fil38" d="M996.25 1012.61c-28.56,69.57 12.83,156.67 43.09,218.65 30.87,63.25 79.78,128 87.89,199.59 0.23,2.12 3.32,2.87 3.92,0.53 6.03,-23.69 -6.58,-49.94 -15.94,-71.15 -15.8,-35.83 -35.46,-69.96 -53.58,-104.64 -39.67,-75.93 -77.41,-154.86 -63.54,-242.47 0.18,-1.22 -1.37,-1.64 -1.84,-0.51z"/>
   <path class="fil38" d="M1003.12 1133.31c11.22,64.13 55.38,123.18 90.06,176.56 21,32.32 42.02,64.57 61.72,97.72 18.49,31.11 32.61,64.02 49.22,96.05 1,1.89 3.7,0.52 3.3,-1.4 -6.4,-31.07 -22.83,-60.25 -38.2,-87.62 -18.83,-33.49 -40.28,-65.47 -61.51,-97.47 -39.36,-59.36 -76.06,-118.28 -103.68,-184.1 -0.23,-0.56 -1.02,-0.36 -0.91,0.26z"/>
   <path class="fil38" d="M1358.14 1605.45c0.46,27.02 16.9,54.44 37.02,71.57 0.99,0.83 2.25,-0.43 1.41,-1.41 -18.66,-21.7 -28.46,-43.51 -37.58,-70.27 -0.15,-0.45 -0.85,-0.39 -0.85,0.11z"/>
   <path class="fil38" d="M1377.7 1630.03c3.93,24.5 20.13,46.71 38.27,63.03 1.6,1.42 4.55,-0.52 3.13,-2.43 -14.98,-20.19 -31.91,-36.43 -40.03,-60.98 -0.3,-0.89 -1.52,-0.51 -1.37,0.38z"/>
   <path class="fil27" d="M1450.29 1531.94c46.04,28.94 76.01,71.8 89.3,124.98 0.22,0.88 1.64,0.71 1.6,-0.21 -2.23,-27.05 -15.4,-52.13 -29.96,-74.51 -13.09,-20.09 -34.8,-48.09 -60.31,-51.73 -0.88,-0.13 -1.45,0.95 -0.63,1.47z"/>
   <path class="fil27" d="M1491.91 1583.29c11.07,21.42 19.11,43.85 29.25,65.6 0.84,1.76 3.11,0.4 2.86,-1.21 -3.37,-23.64 -18.14,-45.42 -30.3,-65.45 -0.72,-1.16 -2.44,-0.14 -1.81,1.06z"/>
   <path class="fil27" d="M1436.07 1698.88c-7.14,35.7 11.48,80.03 33.62,107.52 1.18,1.47 3.95,-0.13 3.25,-1.9 -7.29,-17.55 -16.76,-34.05 -23.64,-51.81 -6.76,-17.45 -8.97,-35.51 -12.04,-53.81 -0.1,-0.59 -1.07,-0.58 -1.19,0z"/>
   <path class="fil27" d="M1523.44 1732.21c15.73,13.03 28.4,25.53 39.47,42.96 9.85,15.52 18.05,32.02 27.74,47.64 0.79,1.26 2.64,0.12 1.97,-1.18 -15.19,-29.67 -33.16,-79.55 -68.52,-90.6 -0.62,-0.21 -1.26,0.72 -0.66,1.18z"/>
   <path class="fil39" d="M1598.98 1913.92c11.44,3.58 21.84,5.18 32.19,11.95 13.17,8.59 23.36,22.69 32.28,35.32 13.51,19.05 24.2,39.89 38.89,58.16 30.17,37.49 71.58,70.57 120.7,77.22 1.55,0.21 2.94,-2.06 1.18,-2.78 -24.58,-10.64 -48.27,-20.45 -70.04,-36.36 -25.28,-18.43 -45.23,-42.8 -62.53,-68.64 -16.88,-25.2 -52.61,-93.09 -92.67,-77.35 -1.14,0.46 -1.26,2.06 0,2.48z"/>
   <path class="fil39" d="M1640.73 1962.03c34.8,46.21 66.78,94.31 117.07,125.07 45.67,27.99 103.62,43.14 156.14,51.17 1.56,0.26 2.15,-1.8 0.68,-2.39 -49.37,-18.44 -100.8,-25.84 -147.68,-51.34 -54.67,-29.85 -81.1,-82.37 -124.83,-123.61 -0.71,-0.68 -2.06,0.26 -1.38,1.1z"/>
   <path class="fil39" d="M1589 1909.63c-33.75,35.98 -27.44,89.22 -6.65,129.75 23.57,45.91 68.31,86.65 113.76,110.35 2.06,1.09 3.7,-1.77 1.81,-3.12 -38.17,-27.31 -73.94,-56.89 -100.08,-96.41 -12.88,-19.45 -22.13,-41.42 -25.21,-64.65 -3.58,-27.53 7.32,-49.87 19.27,-73.69 0.89,-1.81 -1.42,-3.83 -2.9,-2.23z"/>
   <path class="fil39" d="M1582.06 1957.85c26.05,109.22 130.55,196.8 242.16,207.78 1.47,0.13 1.59,-2.02 0.33,-2.44 -52.52,-18.18 -102.85,-34.08 -147.09,-69.27 -44.82,-35.6 -72.89,-84.13 -93.64,-136.52 -0.42,-1.05 -2.01,-0.68 -1.76,0.45z"/>
   <path class="fil38" d="M1488.04 1795.45c0.93,29.63 18.81,61.4 44.61,76.22 1.34,0.75 2.65,-1.01 1.6,-2.1 -21.42,-22.65 -34.3,-44.61 -42.93,-74.58 -0.5,-1.77 -3.32,-1.48 -3.28,0.46z"/>
   <path class="fil39" d="M1369.67 1440.92c17.89,11.09 37.14,18.69 54.5,31.1 21.12,15.1 37.78,34.04 51.62,55.86 1.02,1.58 3.83,0.56 3.12,-1.32 -8.67,-22.88 -27.61,-40.15 -46.44,-54.96 -17.01,-13.39 -40.14,-29.89 -62.22,-32.81 -1.19,-0.15 -1.46,1.59 -0.58,2.13z"/>
   <path class="fil39" d="M1502.01 1659.66c13.42,6.92 22.09,15.47 30.22,28.35 6.48,10.34 10.99,22.16 18.56,31.74 1.05,1.34 3.28,-0.09 2.78,-1.61 -4.64,-14.43 -13.31,-28.58 -22.27,-40.7 -6.56,-8.89 -16.79,-20.07 -28.87,-19.29 -0.75,0.04 -1.17,1.12 -0.42,1.51z"/>
   <path class="fil38" d="M1289.49 915.92c9.94,29.47 25.58,52.52 15.73,84.72 -6.4,20.95 -20.64,39.65 -17.82,62.52 0.38,3.11 5.04,4.35 5.88,0.78 3.27,-13.86 5.99,-26.94 11.4,-40.2 4.35,-10.68 9.53,-21.46 11.07,-33 3.54,-26.64 -7.26,-55.55 -24.43,-75.88 -0.7,-0.83 -2.17,0.06 -1.83,1.06z"/>
   <path class="fil38" d="M1295.47 933.06c1.8,21.88 2.92,40.01 -7.66,60.05 -10.79,20.45 -29.78,36.96 -44.33,54.71 -21.31,25.97 -44.3,61.04 -40.77,96.23 0.3,2.96 4.56,3.93 5.41,0.74 6.1,-22.65 11.85,-42.94 24.36,-63.18 13.05,-21.14 30.33,-39.83 46.83,-58.28 22.62,-25.27 32.87,-58.79 18.46,-90.9 -0.5,-1.12 -2.4,-0.57 -2.3,0.63z"/>
   <path class="fil38" d="M1294.7 931.71c-2.91,21.23 -7.77,38.21 -20.52,55.81 -13.94,19.24 -31.76,35.43 -46.62,53.94 -34.51,42.98 -50.73,97.24 -33.35,151.05 0.56,1.72 3.4,1.51 3.27,-0.43 -2.13,-32.2 -3.41,-63.33 7.45,-94.23 8.96,-25.55 26.4,-47.04 43.72,-67.36 22.08,-25.89 58.35,-60.82 48.15,-98.78 -0.25,-0.96 -1.95,-1.1 -2.1,0z"/>
   <path class="fil1" d="M1183.25 1174.56c-5.38,16.94 -16.33,-2.68 -25.96,-6.88 -6.94,-3.09 -14.83,-5.38 -22.51,-3.43 -16.23,4.04 -27.05,19.85 -22.77,36.39 4.31,16.8 17.39,28.36 35.09,29.52 12.8,0.84 35.96,-4.26 38.67,-18.37l-2.52 -37.23z"/>
   <path class="fil6" d="M1161.23 1196.57c1,-0.95 0.49,-3.01 -1.14,-3.01 -0.01,0 -0.02,0 -0.04,0 -2.99,0.05 -7.31,0.94 -11.34,2.59 -7.3,-1.5 -14.22,-5.05 -18.3,-9.81 -0.43,-0.49 -0.11,-1.3 0.52,-1.3 0.07,0 0.14,0 0.22,0.02 6.47,1.8 12.41,5.81 18.91,7.21 2.75,0.59 5.3,0.8 7.81,0.8 3.78,0 7.45,-0.48 11.55,-0.89 0.03,-0.01 0.05,-0.01 0.07,-0.01 0.65,0 0.76,0.93 0.27,1.25 -2.48,1.62 -5.4,2.64 -8.53,3.15z"/>
   <path class="fil6" d="M1139.45 1209.29c-0.75,0 -1.39,-0.66 -1.41,-1.43 -0.17,-5.4 4.95,-9.34 10.67,-11.71 4.03,-1.65 8.35,-2.54 11.34,-2.59 0.02,0 0.03,0 0.04,0 1.63,0 2.14,2.06 1.14,3.01 -0.18,0.18 -0.42,0.31 -0.72,0.39 -4.36,1.18 -7.95,2.5 -11.64,5.19 -3.06,2.24 -5.31,5.91 -9.03,7.08 -0.13,0.04 -0.26,0.06 -0.39,0.06z"/>
   <path class="fil10" d="M1401.59 1154.75c0,0 -23.55,6 -48.22,18.72 -24.64,12.7 -47.12,30.19 -47.12,30.19 0,0 32.98,38.36 70.99,18.89 38.44,-19.78 24.35,-67.8 24.35,-67.8z"/>
   <path class="fil40" d="M1375.68 1064.58c3.61,3.98 9.81,4.25 13.79,0.64 3.95,-3.66 4.28,-9.81 0.59,-13.83 -3.63,-3.98 -9.77,-4.25 -13.77,-0.59 -3.95,3.63 -4.24,9.81 -0.61,13.78z"/>
   <path class="fil40" d="M1244.33 1127.81c3.59,4 9.81,4.26 13.79,0.6 3.95,-3.59 4.25,-9.79 0.61,-13.74 -3.62,-4 -9.79,-4.27 -13.83,-0.64 -3.93,3.63 -4.23,9.82 -0.57,13.78z"/>
   <path class="fil38" d="M1249.94 1086.84c-9.01,-0.62 -17.78,2.57 -23.1,10.14 -3.5,4.98 -7.9,17.28 -0.6,21.2 1.18,0.63 2.36,0.22 3.11,-0.82 1.22,-1.66 1.41,-3.97 1.73,-5.98 0.45,-2.83 1.33,-5.13 2.94,-7.5 3.37,-5 10.37,-6.34 15.92,-6.01 7.12,0.43 7.05,-10.55 0,-11.03z"/>
   <path class="fil38" d="M1366.88 1042.03c3.7,-4.43 8.93,-6.04 14.57,-6.07 4.18,-0.03 8.85,3.07 12.91,2.02 0.75,-0.19 1.42,-0.84 1.6,-1.59 1.54,-6.61 -8.62,-9.3 -13.22,-10.03 -8.8,-1.41 -17.86,0.77 -23.65,7.87 -4.46,5.44 3.22,13.3 7.79,7.8z"/>
   <path class="fil12" d="M1340.62 1158.2c-0.21,0 -0.43,0 -0.65,-0.01 -5.97,-0.02 -10.92,-4.12 -13.38,-8.8 3.71,3.64 8.29,6.1 12.98,6.1 0.14,0 0.29,0 0.43,-0.01 4.83,-0.2 9.35,-2.97 12.35,-6.7 3.36,-3.4 5.52,-8.26 4.77,-13.01 -0.81,-4.72 -4.48,-8.7 -8.9,-11.68 5,1.48 10.26,5.18 11.54,11.13 1.41,5.77 -0.73,11.84 -4.37,16.24 -3.84,4 -9.16,6.74 -14.77,6.74z"/>
   <path class="fil38" d="M1636.14 1219.78c-52.61,-51.51 -116.54,-79.09 -162.45,-136.68 -50,-62.69 -158.31,-127.74 -173.63,-149.88l-59.48 -120.73c0,0 31.01,-38.51 90.15,-9.89 67.32,32.52 120.36,89.3 166.27,164.37 26.9,43.92 79.55,95.78 110.52,118.53 72.64,55.31 134.59,92.78 153.49,186.19 19.44,81.82 31.1,143.06 85.97,209.19 33.04,36.16 68.65,81.12 113.97,100.56 -200.87,-32.22 -211.56,-243.73 -324.81,-361.66z"/>
   <path class="fil38" d="M1295.06 932.41c23.81,41.09 70.12,70.02 105.59,100.21 18.21,15.51 34.96,32.48 48.89,51.96 16.49,23.09 23.52,49.44 35.38,74.7 1.06,2.17 4.67,1.11 4.55,-1.23 -2.82,-47.39 -37.33,-90.69 -70.85,-121.52 -18.12,-16.69 -37.98,-31.41 -57.25,-46.76 -22.89,-18.23 -42.69,-39.75 -65.05,-58.33 -0.68,-0.57 -1.76,0.14 -1.26,0.97z"/>
   <path class="fil38" d="M1786.17 1502.52c-23.48,-33.85 -44.36,-65.66 -61.23,-103.54 -17.55,-39.39 -32.71,-79.7 -53.28,-117.66 -38.64,-71.22 -96.46,-142.77 -164.47,-187.77 -1.26,-0.83 -2.53,0.99 -1.56,2.01 29.46,31.22 61.53,59.52 89.73,92.02 29.2,33.7 54.21,70.91 75.12,110.27 19.11,35.94 32.82,74.47 50,111.33 15.27,32.78 33.7,73.24 63.37,95.61 1.35,1 3.21,-0.95 2.32,-2.27z"/>
   <path class="fil38" d="M1456.18 928.31c16.54,15.36 30.85,32.09 45.29,49.39 14.77,17.74 33.95,31.97 52.47,45.5 40.91,29.87 83.75,55.8 123.15,87.84 1.43,1.16 3.2,-0.59 2.02,-2.02 -29.67,-35.71 -71.89,-59.09 -109.97,-84.59 -22.52,-15.09 -44.4,-31.58 -62.92,-51.47 -15.19,-16.27 -29.29,-35 -49.15,-45.76 -0.72,-0.38 -1.48,0.55 -0.89,1.11z"/>
   <path class="fil38" d="M1509.29 986.31c24.92,34.26 57.58,63.93 87.58,93.61 33.25,32.87 67.97,63.64 103.49,93.99 33.5,28.65 59.84,63.72 78.15,103.76 18.81,41.12 24.96,85.82 39.56,128.24 0.63,1.77 3.67,1.61 3.46,-0.47 -7.12,-80.54 -39.78,-162.15 -96.72,-220.03 -33.71,-34.23 -73.48,-62.96 -108.62,-95.87 -36.03,-33.73 -68.68,-71.66 -105.93,-103.98 -0.46,-0.43 -1.39,0.15 -0.97,0.75z"/>
   <path class="fil38" d="M1766.35 1321.28c15.99,84.36 77.98,164.48 150.29,208.67 1.72,1.03 3.62,-1.41 2.14,-2.77 -32.57,-29.51 -66.41,-56.1 -93.05,-91.51 -26.59,-35.36 -39.81,-74.8 -55.97,-115.33 -0.85,-2.09 -3.83,-1.32 -3.41,0.94z"/>
   <path class="fil41" d="M1279.87 894.28c26.26,56.74 94.88,86.14 144.43,118.19 33.14,21.43 58.48,49.02 84.78,78.03 14.31,15.76 29.17,30.83 45.54,44.45 14.65,12.17 32.28,21.02 48.36,31.17 70.91,44.81 105.29,117.14 139.17,190.9 28.71,62.44 59.55,131.25 115.9,173.84 1.81,1.35 3.75,-1.47 2.32,-2.98 -26.81,-28.11 -50.76,-56.73 -70.46,-90.37 -17.88,-30.61 -32.19,-63.25 -46.92,-95.45 -29.16,-63.66 -61.02,-128.2 -119.18,-170.09 -15.2,-10.95 -31.53,-20.34 -47.48,-30.13 -20.2,-12.43 -36.9,-28.51 -53.19,-45.58 -24.92,-26.16 -47.68,-53.96 -76.89,-75.64 -26.84,-19.91 -56.61,-35.67 -84.7,-53.68 -31.84,-20.41 -56.66,-43.88 -79.13,-74.15 -1.13,-1.52 -3.35,-0.25 -2.55,1.49z"/>
   <path class="fil41" d="M1263.96 850.43c41.36,49.47 96.51,86.22 149.16,122.56 57.79,39.86 112.46,79.3 156.82,134.25 18.18,22.49 37.07,43.48 60.81,60.21 25.13,17.71 51.31,33.53 72.98,55.65 51.01,52.05 41.74,135.54 85.26,192.87 1.05,1.43 3.37,0.22 2.44,-1.44 -17.72,-32.81 -28.74,-67.09 -38.59,-102.86 -8.33,-30.13 -17.42,-58.64 -36.74,-83.61 -16.37,-21.17 -39.52,-36.68 -61.4,-51.52 -29.38,-19.91 -54,-41.05 -76.72,-68.34 -20.04,-24.09 -39.69,-47.04 -63.89,-67.12 -25.88,-21.49 -53.4,-40.91 -81.05,-60.05 -59.06,-40.92 -115.9,-81.95 -167.55,-132.15 -1.02,-1 -2.43,0.48 -1.53,1.55z"/>
   <path class="fil41" d="M1749.73 1249.47c-24.25,-48.81 -65.03,-85.83 -106.44,-119.96 -40.15,-33.09 -79.37,-65.47 -116.11,-102.39 -67.71,-68.12 -143.71,-155.62 -242.18,-176.62 -2.1,-0.44 -2.93,2.55 -0.88,3.21 97.93,31.36 168.7,106.03 239.69,176.8 35.27,35.17 73.44,65.75 112.16,96.97 44.36,35.79 81.14,74.91 111.19,123.48 1.01,1.63 3.41,0.21 2.57,-1.49z"/>
   <path class="fil41" d="M1255.1 836.2c18.54,-8.74 34.22,-15.79 55.23,-14.99 19.78,0.75 38.71,9.78 55.49,19.52 30.42,17.62 54.36,43.73 77.02,70.09 0.81,0.94 2.39,-0.3 1.71,-1.32 -22.31,-33.78 -55.47,-62.65 -91.52,-80.87 -30.29,-15.31 -73.62,-21.18 -99.14,6.02 -0.81,0.85 0.2,2.03 1.21,1.55z"/>
   <path class="fil41" d="M1260.28 816.27c14.4,-5.67 27.23,-9.42 42.85,-6.72 1.6,0.28 2.31,-2.03 0.68,-2.47 -14.83,-4.05 -32.58,-3.28 -44.22,8 -0.49,0.47 0,1.46 0.69,1.19z"/>
   <path class="fil41" d="M1305.11 868.97c30.95,15.52 54.43,46.62 81.33,68.13 28.6,22.86 58.92,44.5 89.52,64.62 0.93,0.62 2.07,-0.82 1.22,-1.57 -31.15,-27.65 -66.98,-49.81 -99.34,-76.01 -22.31,-18.06 -44.04,-47.53 -72.25,-56.3 -0.66,-0.2 -1.1,0.81 -0.48,1.13z"/>
   <path class="fil41" d="M1317.03 841.47c42.69,7.81 73.9,33.03 103.12,63.61 0.69,0.72 2.04,-0.27 1.41,-1.1 -25.22,-33.66 -62.01,-58.32 -103.56,-65.99 -2.29,-0.42 -3.26,3.06 -0.97,3.48z"/>
   <path class="fil41" d="M1276.06 903.71c-3.61,33.6 -18.09,55.95 -42.46,78.55 -19.65,18.22 -40.77,34 -58.11,54.64 -25.82,30.74 -46.81,83.15 -25.92,121.77 0.92,1.7 3.68,0.94 3.63,-0.98 -0.77,-27.71 -5.66,-49.9 4.32,-77.04 10.19,-27.76 32.12,-50.38 53.68,-69.75 31.77,-28.54 72.98,-58.92 66.58,-107.19 -0.14,-1.09 -1.59,-1.12 -1.72,0z"/>
   <path class="fil41" d="M1262 870.63c-5.96,31.39 -16.08,55.64 -37.1,80.05 -19.21,22.32 -42.85,40.26 -62.26,62.42 -31.45,35.91 -54.38,87.29 -40.83,135.39 0.4,1.47 2.8,1.21 2.7,-0.37 -1.97,-32.62 -0.33,-60.87 14.08,-90.86 12.67,-26.36 33.11,-48.5 54.34,-68.22 32.94,-30.6 74.4,-68.7 70.65,-118.2 -0.06,-0.85 -1.41,-1.16 -1.58,-0.21z"/>
   <path class="fil41" d="M1239.77 840.36c2.82,31.24 -16.59,55.8 -35.1,78.89 -19.84,24.75 -42.11,47.36 -63.79,70.48 -39.11,41.69 -71.28,87.08 -71.88,146.25 -0.56,54.41 28.85,105.22 61.61,146.45 17.86,22.47 34.59,44.53 47.08,70.49 12.39,25.76 17.94,54.21 24.06,81.93 0.37,1.66 3.11,1.31 2.99,-0.41 -3.45,-50.25 -22.75,-94.87 -52.57,-135.04 -38.9,-52.4 -77.53,-101.22 -76.83,-170.1 0.74,-71.87 58.56,-124.52 103.63,-173.61 23.35,-25.41 77.56,-76.06 61.73,-115.45 -0.18,-0.46 -0.99,-0.46 -0.93,0.12z"/>
   <path class="fil41" d="M1241.47 1484.89c0.38,-40.25 -12.72,-84.68 -23.48,-123.2 -10.64,-38.13 -25.49,-83.16 -52.6,-112.98 -0.83,-0.91 -2.18,0.24 -1.64,1.26 19.71,37.24 38.15,72.04 50.08,112.87 11.69,39.99 13.61,82.82 25.77,122.3 0.32,1.02 1.85,0.83 1.87,-0.25z"/>
   <path class="fil41" d="M1128.54 1229.61c27.2,26.57 35.58,64.57 53.61,96.84 0.7,1.25 2.84,0.41 2.34,-0.98 -11.44,-32.18 -25.06,-77.7 -54.04,-98.32 -1.49,-1.06 -3.16,1.24 -1.91,2.46z"/>
   <path class="fil41" d="M1097.91 1096.38c0.44,29.15 -3.21,60.24 8.68,87.69 0.67,1.54 2.76,0.35 2.52,-1.07 -4.96,-28.77 -5.91,-57.69 -9.49,-86.62 -0.13,-1.06 -1.73,-1.13 -1.71,0z"/>
   <path class="fil41" d="M1221.37 829.1c-53.85,-6.12 -106.89,26.65 -145,61.49 -42.02,38.39 -63.8,92.76 -70.9,148.34 -7.55,59.13 5.59,120.46 34.81,172.14 33.75,59.71 85.82,106.96 122.17,165.12 0.88,1.41 2.99,0.18 2.22,-1.29 -26.65,-50.56 -68.41,-90.83 -101.66,-136.83 -35.5,-49.11 -54.29,-105.75 -55.14,-166.31 -1.67,-120.19 87.3,-239.55 213.5,-242.08l0 -0.58z"/>
   <path class="fil41" d="M1173.34 1384.27c-0.11,-40.4 -34.67,-74.29 -60.05,-102.06 -38.48,-42.09 -62.31,-90.88 -74.38,-146.4 -11.23,-51.63 -11.02,-106.01 4.73,-156.62 17.8,-57.19 57.67,-94.02 107.09,-124.69 0.94,-0.58 0.12,-1.95 -0.86,-1.47 -97.22,47.24 -130.84,149.35 -118.91,251.62 5.91,50.67 22.35,99.28 50.76,141.72 30.79,45.99 82.94,79.87 91.43,137.92l0.19 -0.02z"/>
   <path class="fil41" d="M1212.55 849.09c-21.1,62.29 -74.51,107.18 -123.96,147.51 -1.06,0.86 0.31,2.59 1.44,1.87 28.17,-18.12 53.28,-41.15 75.68,-65.96 20.68,-22.9 43.62,-51.59 47.94,-83.11 0.1,-0.72 -0.86,-1.02 -1.1,-0.31z"/>
   <path class="fil41" d="M1185.07 851.39c-17.07,21.63 -42.01,34.26 -62.68,51.96 -18.28,15.65 -34.21,35.68 -42.85,58.3 -22.26,58.26 -32.77,123.54 -35.65,185.72 -0.06,1.17 1.85,1.46 2.06,0.28 9.92,-60.56 14.58,-120.22 34.57,-178.76 10.55,-30.93 32.65,-55.22 58.3,-74.65 16.97,-12.86 34.49,-24.67 46.92,-42.33 0.27,-0.39 -0.38,-0.9 -0.67,-0.52z"/>
   <path class="fil41" d="M1078.19 1033.24c-1.34,8.49 -4.35,16.55 -6.81,24.76 -0.49,1.64 2.02,2.74 2.78,1.17 3.83,-7.92 6.92,-16 8.52,-24.7 0.54,-2.95 -4.02,-4.17 -4.49,-1.23z"/>
   <path class="fil41" d="M1173.31 877.48c-8.89,19.17 -22.86,32.57 -37.84,46.9 -0.69,0.65 0.18,1.68 0.97,1.27 18.18,-9.57 31.7,-28.45 38.44,-47.52 0.32,-0.9 -1.15,-1.53 -1.57,-0.65z"/>
   <path class="fil42" d="M1347.84 1506.35c0.28,51.02 24.62,111.92 53.64,153.48 1.04,1.49 3.86,0.6 3.13,-1.33 -9.54,-25.28 -22.79,-49.16 -32.96,-74.25 -10.25,-25.32 -16.42,-51.61 -23.06,-78 -0.11,-0.42 -0.75,-0.32 -0.75,0.1z"/>
   <path class="fil42" d="M1363.43 1525.59c21.22,51.39 43.18,100.92 57.96,154.68 0.27,0.97 1.82,0.81 1.78,-0.23 -2.29,-55.34 -32.46,-107.67 -58.78,-154.86 -0.29,-0.5 -1.19,-0.14 -0.96,0.41z"/>
   <path class="fil42" d="M1502.6 1759.01c-6.99,23.69 5.68,60.1 20.03,79.16 0.89,1.17 2.99,0.55 2.53,-1.1 -3.45,-12.37 -9.13,-24.07 -13.3,-36.23 -4.76,-13.68 -5.89,-27.36 -7.58,-41.62 -0.12,-0.93 -1.38,-1.22 -1.68,-0.21z"/>
   <path class="fil41" d="M1538.12 1796.63c37.37,19.57 48.27,64.85 65.23,100.17 0.38,0.84 1.77,0.2 1.48,-0.64 -10.86,-32.2 -28.54,-91.32 -66,-101.26 -1.01,-0.25 -1.68,1.23 -0.71,1.73z"/>
   <path class="fil42" d="M1612.23 1935.09c21.93,8.76 30.35,30.55 38.43,50.96 6.86,17.39 14.43,32.66 25.5,47.86 27.44,37.66 70.28,62.91 103.87,94.73 0.67,0.64 1.64,-0.34 1.01,-1.01 -37.08,-40.57 -85.77,-66.24 -114.73,-114.43 -14.05,-23.36 -19.48,-76.26 -53.91,-79.29 -0.76,-0.08 -0.76,0.97 -0.17,1.18z"/>
   <path class="fil42" d="M1603.56 1938.84c24.24,62.07 60.39,135.38 122.22,167.37 1.18,0.63 2.02,-0.97 1.01,-1.72 -58.04,-44.49 -89.34,-102.52 -122.43,-165.99 -0.25,-0.43 -0.96,-0.13 -0.8,0.34z"/>
   <path class="fil42" d="M1588.75 1926.72c-9.97,26.05 11.99,61.86 24.49,83.87 21.3,37.71 54.04,70.46 91.58,91.83 1.05,0.59 1.81,-0.84 0.88,-1.55 -31.01,-23.53 -58.92,-49.16 -81.05,-81.44 -16.38,-23.86 -39.22,-62.33 -33.8,-92.13 0.25,-1.39 -1.59,-1.89 -2.1,-0.58z"/>
   <path class="fil28" d="M1442.4 1668.14c-2.92,36.45 14.54,78.11 38.7,104.5 0.63,0.72 1.64,-0.21 1.26,-0.96 -9.93,-20.75 -22.01,-39.1 -28.24,-61.62 -3.65,-13.2 -3.24,-30.52 -10.39,-42.28 -0.39,-0.64 -1.27,-0.34 -1.33,0.36z"/>
   <path class="fil28" d="M1456.65 1685.5c14.85,21.96 18.98,43.89 22.97,69.59 0.38,2.36 3.79,1.6 3.92,-0.5 1.47,-24.21 -7.96,-52.96 -26.14,-69.67 -0.38,-0.35 -1.05,0.11 -0.75,0.58z"/>
   <path class="fil28" d="M1487.62 1706.5c14.64,22.83 32.53,48.42 57.28,61.13 1.09,0.59 2.36,-0.84 1.34,-1.76 -20.83,-19.2 -40.27,-37.21 -57.15,-60.24 -0.63,-0.86 -2.06,-0.08 -1.47,0.87z"/>
   <path class="fil41" d="M1448.44 1643.9c19.69,18.23 38.42,39.04 61.23,53.46 0.59,0.37 1.05,-0.5 0.51,-0.9 -21.59,-15.96 -37.88,-39.82 -61.06,-53.46 -0.55,-0.33 -1.17,0.45 -0.68,0.9z"/>
   <path class="fil41" d="M1526.93 1713.29c-2.06,-18.53 -13.94,-40.72 -30.6,-50.17 -1.17,-0.65 -2.06,0.79 -1.34,1.71 5.97,7.59 13.21,13.67 18.68,21.79 5.51,8.19 9.26,17.56 12.79,26.73l0.47 -0.06z"/>
   <path class="fil28" d="M1374.51 1508.68c13.88,26.8 26.33,54.81 46.87,77.26 19.56,21.39 41.2,47.96 68.51,59.47 0.97,0.39 1.69,-1.04 0.97,-1.67 -22.85,-20.11 -45.5,-38.48 -66.29,-60.99 -20.65,-22.38 -28.92,-52.67 -49.46,-74.53l-0.6 0.46z"/>
   <path class="fil28" d="M1385.41 1513.12c12.17,5.6 24.83,9.02 36.5,15.94 13.1,7.75 23.9,18.94 33.6,30.48 19.06,22.6 26.89,49.87 41.41,74.88 0.8,1.41 2.61,0.39 2.4,-1.02 -6.48,-47.32 -60.06,-123.12 -113.65,-121.26 -0.48,0.02 -0.76,0.74 -0.26,0.98z"/>
   <path class="fil28" d="M1415.93 1539.64c9.42,11.15 18.77,22.3 27.73,33.83 8.86,11.44 16.69,24.1 26.83,34.48 1.35,1.38 3.28,-0.36 2.53,-1.96 -12,-25.29 -34.71,-49.63 -55.61,-67.83 -1.02,-0.89 -2.35,0.44 -1.48,1.48z"/>
   <path class="fil41" d="M1424.1 1502.28c-22.44,-51.11 -92.69,-74.43 -139.07,-97.21 -1.12,-0.54 -1.93,0.92 -0.96,1.64 22.79,16.82 49.32,26.91 74.15,40.15 26.6,14.16 46.83,32.29 65.51,55.71l0.37 -0.29z"/>
   <path class="fil41" d="M1282.68 1421.78c27.79,30.67 65.95,49.29 102.95,66.51 0.61,0.28 1.13,-0.57 0.53,-0.9 -35.64,-20.05 -73.33,-37.18 -102.87,-66.22 -0.4,-0.38 -0.98,0.2 -0.61,0.61z"/>
   <path class="fil28" d="M1296.55 1465.11c19.65,33.67 25.05,70.13 34.67,107.15 0.34,1.31 2.32,1.02 2.33,-0.32 0.46,-37.48 -13.58,-77.49 -34.87,-108.07 -0.9,-1.29 -2.95,-0.15 -2.13,1.24z"/>
   <path class="fil28" d="M1279.48 1467.83c8.3,25.67 11.99,53.27 23.13,77.93 0.83,1.83 3.56,0.49 3.13,-1.32 -6.28,-26.02 -14.15,-52.29 -23.33,-77.42 -0.66,-1.81 -3.54,-1.08 -2.93,0.81z"/>
  </g>
  <polygon class="fil43" points="5000,166.65 5793.86,624.99 6587.73,1083.33 6587.73,2000 6587.73,2916.67 5793.86,3375.01 5000,3833.35 4206.14,3375.01 3412.27,2916.67 3412.27,2000 3412.27,1083.33 4206.14,624.99 "/>
  <path class="fil44" d="M3462.27 1169.66c-47.67,27.61 -108.72,11.34 -136.33,-36.33 -27.61,-47.67 -11.34,-108.72 36.33,-136.33l1587.73 -916.68c47.67,-27.61 108.72,-11.34 136.33,36.33 27.61,47.67 11.34,108.72 -36.33,136.33l-1587.73 916.68z"/>
  <path class="fil44" d="M3512.27 2916.67c0,55.22 -44.78,100 -100,100 -55.22,0 -100,-44.78 -100,-100l0 -1833.34c0,-55.22 44.78,-100 100,-100 55.22,0 100,44.78 100,100l0 1833.34z"/>
  <path class="fil44" d="M5050 3747.02c47.67,27.61 63.94,88.66 36.33,136.33 -27.61,47.67 -88.66,63.94 -136.33,36.33l-1587.73 -916.68c-47.67,-27.61 -63.94,-88.66 -36.33,-136.33 27.61,-47.67 88.66,-63.94 136.33,-36.33l1587.73 916.68z"/>
  <path class="fil44" d="M6487.73 1083.33c0,-55.22 44.78,-100 100,-100 55.22,0 100,44.78 100,100l0 1833.34c0,55.22 -44.78,100 -100,100 -55.22,0 -100,-44.78 -100,-100l0 -1833.34z"/>
  <path class="fil44" d="M4950 252.98c-47.67,-27.61 -63.94,-88.66 -36.33,-136.33 27.61,-47.67 88.66,-63.94 136.33,-36.33l1587.73 916.68c47.67,27.61 63.94,88.66 36.33,136.33 -27.61,47.67 -88.66,63.94 -136.33,36.33l-1587.73 -916.68z"/>
  <g id="_1470279242400">
   <path class="fil45" d="M8926.22 1372.32c-21.3,59.14 -23.25,127.88 -3.18,185.06 42.65,121.43 174.85,198.65 200.26,321.6 12.78,62.14 -2.42,128.17 21.02,189.32 18.01,47.19 65.01,97.29 104.04,129.36 102.69,84.23 234.71,135.69 367.86,131.1 144.8,-5.02 384.27,-97.04 368.2,-275.01 -11.5,-128.06 -104.71,-103.9 -194.84,-143.01 -101.2,-43.91 -118,-117.11 -90.94,-212.96 36.06,-128.03 -22.26,-175.22 -141.61,-194.5 -98.64,-15.89 -146.52,-79.38 -201.21,-158.74 -50.64,-73.48 -108.37,-138.64 -200.49,-150.02 -92.03,-11.36 -151.57,49.05 -201.1,122.12 -11.49,16.94 -20.83,35.76 -28.01,55.68z"/>
   <path class="fil1" d="M9183.56 1699.56c-3.77,-52.38 -4.94,-109.03 11.42,-159.81 -48.91,19.45 -130.08,74.29 -130.08,74.29 27.1,130.26 -14.2,230.58 -24.67,252.12 37.09,27.7 106.46,100.42 164.05,-5.93 0.66,0.19 -10.58,-39.91 -12.89,-99.42 -3.73,-20.24 -6.33,-40.69 -7.83,-61.25z"/>
   <path class="fil19" d="M9071.57 1656.44c-0.04,0 -0.08,-0.01 -0.08,-0.01 -0.76,-6.94 -1.64,-13.97 -2.74,-21.1 0.03,0 0.03,0.01 0.03,0.01 1.14,7.14 2.06,14.18 2.79,21.1z"/>
   <path class="fil6" d="M9168.37 1736.71c-6.7,-26.05 -12.23,-50.85 -14.32,-68.16 -1.35,-11.4 -13.47,-14.25 -28.37,-14.25 -7.47,0 -15.67,0.71 -23.54,1.43 -7.87,0.72 -15.45,1.43 -21.75,1.43 -3.37,0 -6.37,-0.21 -8.82,-0.72 -0.73,-6.92 -1.65,-13.96 -2.79,-21.1 9.85,2.94 19.45,4.34 28.89,4.34 29.66,0 57.55,-13.82 85.19,-37.41 -1.17,13.15 -1.68,26.41 -1.68,39.63 0,19.46 1.03,38.83 2.38,57.66 0.26,3.88 0.58,7.75 0.95,11.63 -3.03,-2.11 -5.89,-4.31 -8.38,-6.6 0,0 -2.16,14.86 -7.76,32.12z"/>
   <path class="fil1" d="M9284.2 1480.86c-82.51,118 -153.76,196.05 -246.2,140.6 -92.41,-55.51 -122.39,-175.45 -66.86,-267.85 55.51,-92.43 175.37,-122.38 267.81,-66.89 92.44,55.51 107.05,105.76 45.25,194.14z"/>
   <path class="fil1" d="M8883.06 1780.59c-39.36,-25.28 -249.98,-62.99 -214.83,-109.78 35.03,-46.77 222.26,37.95 258.95,45.56 35.18,7.3 100.02,13.97 126.16,42.28 13.87,14.96 10.14,49.18 -9.81,58.71 -22.92,10.98 -61.22,26.98 -160.47,-36.77z"/>
   <path class="fil1" d="M8689.57 1631.61c-20.76,-20.81 -108.88,-161.55 -134.73,-258.83 -4.68,-17.61 -37.89,22.85 -37.89,22.85 9.19,44.87 73.41,235.44 112.22,278.51 18.26,20.38 67.03,46.34 81.35,32.03 27.38,-27.24 -7.69,-61.27 -20.95,-74.56z"/>
   <path class="fil1" d="M8516.95 1395.63c0.95,2.28 10.07,9.19 24.42,1.48 14.35,-7.68 13.47,-24.33 13.47,-24.33 -3.21,-17.35 6.05,-17.35 2.9,-45.35 -1.14,-9.93 11.97,-46.69 11.97,-46.69 0,0 -16.55,-4.66 -26.07,26.32 -0.8,-45.09 8.43,-81.98 -2.6,-83.76 -49.46,-7.11 -72.05,66.61 -60.51,103.93 6.62,21.52 20.93,31.85 36.42,68.4z"/>
   <polygon class="fil1" points="8884.61,3883.69 8856.15,3793.49 8894.82,3783.07 8916.46,3879.51 "/>
   <path class="fil2" d="M8938.14 3908.8c-17.59,7.72 -48.98,16.72 -67.16,20.91 -37.62,8.73 -61.61,6.51 -61.61,6.51l-2.21 -8.21 125.95 -37.73 1.36 4.84 3.67 13.68z"/>
   <path class="fil3" d="M8878.36 3871.56c-4.02,-4.2 -12.09,5.63 -15.03,8.8 -3.85,4.12 -8.96,10.4 -12.71,14.52 -8.17,8.9 -18.13,12.53 -28.32,17.95 -5.94,3.09 -13.58,7.99 -15.14,15.18 0,0 42.01,1.02 61.07,-8.65 16.14,-8.15 46.6,-17.64 66.24,-24.24 0,0 0.3,-5.47 -1.83,-13.53 -2.3,-8.65 -10.5,-16.66 -10.5,-16.66 0.32,-3.56 -1.9,-5.33 -3.59,-4.46 -4.4,2.19 -3.65,3.89 -6.72,9.81 -2.51,4.88 -7.66,8.86 -11.64,7.81 -9.98,-2.67 -13.33,-3.19 -20.24,-2.52l-1.59 -4.01z"/>
   <path class="fil20" d="M8708.65 3119.75c-14.01,12.71 -20.93,18.47 -22.96,33.15 -1.5,10.9 0.05,30.81 1.37,40.59 24.71,182.97 151.61,598.77 169.29,657.06 0.6,5.95 54.34,17.17 69.37,-20.65 -29.41,-61.86 -65.84,-319.06 -62.74,-379.13 3.33,-65.23 -4.38,-125.46 -26.97,-183.84 -19.84,-51.34 -21.8,-25.81 -29.24,-91.47 -5.83,-51.75 -73.75,-77.86 -98.12,-55.71z"/>
   <path class="fil20" d="M8990.81 2321.61c-121.59,229.21 -311.78,808.43 -304.94,833.1 9.93,35.92 133.2,37.99 116.87,16.1 -5.48,-7.36 -3,-17.04 -1.88,-24.35 3.03,-19.81 25.15,-39.58 38.49,-59.55 58.17,-86.65 384.3,-383.61 315.14,-690.65l9.3 -58.9 -172.98 -15.75z"/>
   <polygon class="fil1" points="9147.54,3897.88 9130.48,3804.88 9170.12,3799.36 9179.6,3897.65 "/>
   <path class="fil2" d="M9197.51 3929.47c-18.38,5.45 -50.74,10.51 -69.27,12.41 -38.33,3.92 -61.95,-1.21 -61.95,-1.21l-1.16 -8.46 129.7 -21.74 0.7 4.98 1.98 14.02z"/>
   <path class="fil3" d="M9142.81 3885.06c-3.51,-4.65 -12.7,4.07 -15.99,6.85 -4.33,3.62 -10.22,9.22 -14.47,12.85 -9.15,7.8 -19.51,10.25 -30.31,14.28 -6.22,2.34 -14.46,6.25 -16.91,13.17 0,0 41.51,6.23 61.69,-0.95 16.98,-6.04 48.47,-11.71 68.71,-15.81 0,0 0.95,-5.42 -0.14,-13.66 -1.18,-8.9 -8.28,-17.87 -8.28,-17.87 0.7,-3.47 -1.28,-5.52 -3.04,-4.83 -4.68,1.61 -4.1,3.48 -7.91,8.93 -3.11,4.44 -8.71,7.8 -12.51,6.23 -9.52,-3.88 -12.89,-4.79 -19.74,-4.94l-1.1 -4.25z"/>
   <path class="fil21" d="M9104.62 3120.63c-26.72,11.02 -37.37,15.7 -38.22,38.84 -6.66,184.59 51.7,646.51 59.21,706.99 -0.41,5.93 45.24,12.81 66.48,-21.96 -18.45,-65.91 -7.76,-318.26 5.45,-376.87 14.4,-63.71 17.03,-124.37 4.62,-185.8 -10.87,-53.89 -36.43,-65.24 -33.28,-131.25 1.43,-30.24 -33.98,-42.47 -64.26,-29.95z"/>
   <path class="fil21" d="M9085.92 2446.04c-6.95,76.59 -32.11,714.97 -20.03,737.49 17.65,32.88 108,53.3 104.23,26.21 -5.56,-39.94 22.56,-88.27 34.42,-118.94 37.52,-97.43 257.7,-523.61 63.33,-771.11l-261.25 3.34c32.11,53.74 79.3,123.01 79.3,123.01z"/>
   <path class="fil1" d="M9267.87 2319.69c-50.3,-97.19 -59.56,-173.85 -52.83,-232.28 13.99,-121.81 59.2,-172.11 64.8,-238.25 1.98,-23.57 -16.36,-110.28 -16.36,-110.28 -19.62,-0.97 -65.35,-14.25 -87.35,-34.29 0,0 -12.19,84.37 -54.29,84.61 -42.07,-0.24 -48,-78.46 -48,-78.46 -10.69,14.96 -28.74,23.28 -47.52,28.14 -16.29,4.23 -45.76,122.14 -43.79,145.75 5.64,66.16 102.81,207.52 8.28,436.98 0,0 25.15,52.77 116.78,55.16 91.6,2.33 160.28,-57.08 160.28,-57.08z"/>
   <path class="fil22" d="M9027.23 2356.51c-0.69,-0.4 -1.39,-0.81 -2.05,-1.21 0.66,0.4 1.36,0.81 2.05,1.21 0,0.01 0,0 0,0z"/>
   <path class="fil23" d="M9112.86 2376.84c-1.76,0 -3.51,-0.02 -5.27,-0.07 -36.46,-0.93 -62.35,-9.85 -80.36,-20.26 0,0 0,0.01 0,0 18.01,10.4 43.94,19.31 80.36,20.26 1.76,0.05 3.51,0.07 5.27,0.07 88.97,0 155.01,-57.15 155.01,-57.15l0 0c0,0 -66.04,57.15 -155.01,57.15z"/>
   <path class="fil5" d="M9221.34 2195.08c-1.94,-8.94 -3.51,-17.61 -4.72,-26.04 0,0.01 0,0.01 0,0.01 1.25,8.43 2.78,17.1 4.72,26.03z"/>
   <path class="fil19" d="M9216.62 2169.05c0,0 0,0 0,-0.01 -2.64,-18.31 -3.7,-35.45 -3.48,-51.44l0 0c-0.18,16 0.84,33.13 3.48,51.45z"/>
   <path class="fil5" d="M9030.89 2156.77c0,0 -0.03,0 -0.03,0 0.91,-13.54 1.24,-26.56 0.95,-39.17l0.07 0c0.22,12.6 -0.07,25.65 -0.99,39.17z"/>
   <path class="fil6" d="M9112.86 2376.84c-1.76,0 -3.51,-0.02 -5.27,-0.07 -36.42,-0.95 -62.35,-9.86 -80.36,-20.26 -0.69,-0.4 -1.39,-0.81 -2.05,-1.21 -7.61,-4.59 -13.69,-9.41 -18.56,-13.93 11.31,4.17 22.81,7.37 33.5,9.89 9.89,2.35 22.88,3.58 37.2,3.58 52.06,0 121.69,-16.29 124.37,-54.47 10.68,-155.22 -64.41,-118.53 -170.8,-143.6 0.92,-13.52 1.21,-26.57 0.99,-39.17l181.26 0c-0.22,15.99 0.84,33.13 3.48,51.44 1.21,8.43 2.78,17.1 4.72,26.04 8.06,37.09 22.66,78.55 46.53,124.61 0,0 -66.04,57.15 -155.01,57.15z"/>
   <path class="fil46" d="M9262.86 2107.01c-15.41,-111.22 11.38,-191.71 16.98,-257.85 1.98,-23.57 -16.36,-110.28 -16.36,-110.28 -19.62,-0.97 -65.35,-14.25 -87.35,-34.29 0,0 -12.19,84.37 -54.29,84.61 -42.07,-0.24 -48,-78.46 -48,-78.46 -10.69,14.96 -28.74,23.28 -47.52,28.14 -16.29,4.23 -45.76,122.14 -43.79,145.75 5.64,66.16 8.28,154.39 8.28,231.98 37.74,40.78 234.34,31.18 272.05,-9.6z"/>
   <path class="fil1" d="M9388.5 1774.32c36.55,-29.2 242.15,-88.36 202.42,-131.29 -39.64,-42.93 -217.21,60.65 -252.93,71.96 -34.27,10.87 -98.01,24.18 -121.12,55.07 -12.22,16.29 -5.04,49.96 15.79,57.38 24.01,8.53 63.73,20.52 155.84,-53.12z"/>
   <path class="fil1" d="M9565.63 1606.26c18.53,-22.84 107.85,-248.45 114.15,-271.7 4.83,-17.56 39.98,18.89 39.98,18.89 -3.44,31.26 -55.47,242.04 -89.66,288.89 -16.11,22.12 -61.94,52.97 -77.61,40.24 -30.02,-24.32 1.32,-61.76 13.14,-76.32z"/>
   <path class="fil1" d="M9719.76 1353.45c-0.62,2.34 -8.97,10.15 -24.05,3.97 -15.08,-6.16 -15.93,-22.86 -15.93,-22.86 1.43,-17.56 -7.76,-16.61 -7.51,-44.79 0.12,-10.01 -16.72,-45.2 -16.72,-45.2 0,0 15.96,-6.33 28.66,23.51 -3.88,-44.98 -16.84,-80.69 -6.08,-83.57 48.52,-12.2 78.53,58.79 70.92,97.12 -4.39,22.11 -17.61,33.82 -29.29,71.82z"/>
   <path class="fil10" d="M9022.77 1546.07c0,0 20.57,-4.76 44.7,-4.74 24.16,0 48.51,4.57 48.51,4.57 0,0 -10.25,42.81 -47.38,42.87 -37.63,0.07 -45.83,-42.7 -45.83,-42.7z"/>
   <path class="fil11" d="M9006.84 1466.03c-1.25,4.53 -5.9,7.2 -10.43,5.99 -4.55,-1.23 -7.21,-5.91 -5.97,-10.43 1.21,-4.53 5.89,-7.2 10.43,-5.99 4.51,1.25 7.18,5.91 5.97,10.43z"/>
   <path class="fil11" d="M9133.66 1462.58c-1.28,4.52 -5.93,7.21 -10.43,5.98 -4.51,-1.2 -7.25,-5.9 -6.01,-10.43 1.21,-4.53 5.9,-7.2 10.43,-5.98 4.54,1.22 7.18,5.9 6.01,10.43z"/>
   <path class="fil25" d="M9116.86 1441.96c4.5,-2.81 9.22,-3.93 14.35,-2.35 4.64,1.42 6.19,6.39 9.88,8.97 0.8,0.57 2.31,0.23 2.71,-0.71 2.82,-6.35 -2.96,-12.38 -7.98,-15.6 -7.43,-4.8 -16.73,-3.07 -23.79,1.4 -5.24,3.3 -0.44,11.56 4.83,8.29z"/>
   <path class="fil25" d="M9010.61 1438.95c-8.64,-12.08 -38.51,3.83 -30.64,13.45 0.48,0.55 1.28,0.65 1.94,0.51 3.26,-0.71 6,-4.88 8.86,-6.6 2.49,-1.48 5.3,-2.14 8.16,-2.33 2.86,-0.19 5.27,1.19 8.13,1.18 2.89,-0.01 5.42,-3.59 3.55,-6.21z"/>
   <path class="fil26" d="M9063.62 1526.22c-2.2,0 -4.39,-0.38 -6.44,-1.09 -4.58,-1.96 -8.64,-5.81 -9.85,-10.82 -1.42,-5.1 1.21,-10.06 4.47,-13.2 -2.23,4.07 -3.48,8.59 -2.23,12.56 1.32,3.97 4.9,6.87 8.86,8.18 2.09,0.9 4.35,1.42 6.66,1.42 1.9,0 3.84,-0.37 5.56,-1.18 3.81,-1.82 6.49,-5.66 7.91,-10.06 -0.03,4.61 -2.16,9.72 -6.81,12.14 -2.49,1.41 -5.31,2.05 -8.13,2.05z"/>
   <path class="fil47" d="M9260.86 1687.73c86.5,-103.04 95.74,-148.75 120.71,-211.18 77.72,-194.86 -125.38,-318.77 -255.46,-283.25 -50.2,43.82 -100.41,87.64 -150.61,131.46 -14.1,26.47 -33.5,64.51 -47.6,90.98 24.93,-8 22.83,6.18 80.09,-35.59 57.26,-41.77 51.39,-69.04 77.09,-103.56 0,0 10.22,43.03 77.38,96.89 160.22,128.52 -66.75,255.35 -33.46,481.35 27.87,-29.75 87.71,-114.42 131.86,-167.1z"/>
   <path class="fil47" d="M9388.89 1355.98c28.56,69.57 -12.83,156.67 -43.09,218.65 -30.87,63.25 -79.78,128 -87.89,199.59 -0.23,2.12 -3.32,2.87 -3.92,0.53 -6.03,-23.69 6.58,-49.94 15.94,-71.15 15.8,-35.83 35.46,-69.96 53.58,-104.64 39.67,-75.93 77.41,-154.86 63.54,-242.47 -0.18,-1.22 1.37,-1.64 1.84,-0.51z"/>
   <path class="fil47" d="M9382.02 1476.68c-11.22,64.13 -55.38,123.18 -90.06,176.56 -21,32.32 -42.02,64.57 -61.72,97.72 -18.49,31.11 -32.61,64.02 -49.22,96.05 -1,1.89 -3.7,0.52 -3.3,-1.4 6.4,-31.07 22.83,-60.25 38.2,-87.62 18.83,-33.49 40.28,-65.47 61.51,-97.47 39.36,-59.36 76.06,-118.28 103.68,-184.1 0.23,-0.56 1.02,-0.36 0.91,0.26z"/>
   <path class="fil47" d="M9030.32 1258.47c-2.91,21.23 -7.77,38.21 -20.52,55.81 -13.94,19.24 -31.76,35.43 -46.62,53.94 -34.51,42.98 -50.73,97.24 -33.35,151.05 0.56,1.72 3.4,1.51 3.27,-0.43 -2.13,-32.2 -3.41,-63.33 7.45,-94.23 8.96,-25.55 26.4,-47.04 43.72,-67.36 22.08,-25.89 58.35,-60.82 48.15,-98.78 -0.25,-0.96 -1.95,-1.1 -2.1,0z"/>
  </g>
  <g id="_1470271709888">
   <path class="fil48" d="M5067.48 2122.96c28.54,12.17 51.43,35.15 72.56,58.34 80.51,88.35 148,188.71 199.31,296.37 -110.32,28.42 -187.83,136.95 -301.37,151.35 -25.3,3.21 -52.97,0.89 -74.38,-14.41 -14.6,-10.43 -24.9,-25.85 -34.56,-41.03 -26.85,-42.19 -51.69,-85.64 -74.38,-130.13 -18.84,-36.95 -36.33,-74.96 -46.08,-115 -9.76,-40.03 -11.45,-82.52 1.06,-120.72 11.72,-35.8 42.21,-77.98 80.99,-86.72 8.91,-2 19.92,-0.54 29.14,-1.27 9.44,-0.74 18.83,-1.8 28.22,-2.87 18.99,-2.18 38,-4.59 57.22,-4.79 21.05,-0.21 42.41,2.41 62.27,10.88z"/>
   <path class="fil49" d="M5012.34 2691.21c-45.4,-9.04 -114.41,-20.63 -134.99,-34.8 54.29,-21.95 104.16,-34.92 156.25,-61.68 36.76,-18.9 75.22,-22.13 100.2,-55.06 24.98,-32.93 53.17,-66.5 92.2,-80.1 -35.69,-65.49 -69.37,-138.34 -106.92,-203.31l160.31 -118.07c7.31,7.47 17.42,17.95 24.52,25.48 58.46,61.96 80.41,148.58 113.22,227.19 45.11,108.06 114.24,206.01 200.94,284.72 33.85,30.73 61.37,72.61 95.67,102.84 -98.06,87.39 -199.27,171.21 -303.41,251.25 -52.69,-70.8 -109.32,-138.68 -169.52,-203.21 -30.48,-32.67 -62.21,-64.76 -99.61,-89.2 -37.4,-24.45 -85.04,-37.33 -128.86,-46.05z"/>
   <path class="fil50" d="M6118.83 3194.43c-56.34,49.76 -116.65,95.13 -180.38,135.59 -64.83,41.16 -133.19,77.23 -204.54,107.67l-480.02 -554.48 340.41 -294.69 5.38 6.21 519.15 599.7z"/>
   <path class="fil51" d="M5230.87 2844.11c-14.27,12.36 -22.68,26.04 -18.77,30.57l26.14 30.18c3.9,4.52 18.65,-1.84 32.93,-14.2l316.4 -273.9c14.27,-12.36 22.68,-26.04 18.76,-30.56l-26.13 -30.18c-3.91,-4.53 -18.66,1.83 -32.93,14.19l-316.4 273.9z"/>
   <path class="fil52" d="M5472.91 905.54c0,0 130.23,517.09 -286.01,809.75 -35.07,24.65 -74.01,47.71 -117.22,68.74l-16.39 -123.21c0,0 90.68,-24.76 178.96,-109.86 97.5,-93.83 192.14,-260.98 159.23,-549.16 0,0 -5.52,-61.42 -80.41,-47.16l-165.15 43.02 -27.11 -90.69 266.55 -69.44c0,0 69.66,-0.67 87.55,68.01z"/>
   <path class="fil53" d="M5069.68 1784.03l-16.39 -123.21c0,0 90.68,-24.76 178.96,-109.86 -10.17,57.23 -24.93,112.65 -45.35,164.33l0 0c-35.07,24.65 -74.01,47.71 -117.22,68.74z"/>
   <polygon class="fil54" points="5145.92,997.66 5118.81,906.97 5145.92,997.66 5224.38,977.22 5224.38,977.22 "/>
   <path class="fil53" d="M5145.92 997.66l-27.11 -90.69 89.47 -23.32c5.39,28.15 10.89,59.62 16.1,93.57l-78.46 20.44z"/>
   <path class="fil52" d="M4705.01 1879.02c-61.54,3.51 -118.59,0.64 -171.41,-7.37 -477.1,-72.11 -609.15,-562.78 -609.15,-562.78 -17.89,-68.68 43.25,-102.07 43.25,-102.07l266.54 -69.42 20.57 92.39 -165.14 43.02c-72.32,24.08 -47.17,80.4 -47.17,80.4 101.59,243.13 246.44,347.73 370.21,390.55 135.94,47.12 246.51,19.73 246.51,19.73l45.79 115.55z"/>
   <path class="fil53" d="M4153.37 1256.2c-12.01,-32.16 -22.56,-62.33 -31.59,-89.54l112.46 -29.28 20.57 92.39 -101.44 26.43z"/>
   <path class="fil53" d="M4653.85 1880.5c-42.33,0 -82.37,-3.11 -120.25,-8.85l0 0c-43.59,-37.29 -83.89,-80.76 -120.89,-127.91 62.85,21.79 120.3,27.65 163.89,27.65 50.67,0 82.62,-7.92 82.62,-7.92l45.79 115.55c-17.4,0.99 -34.46,1.48 -51.16,1.48z"/>
   <path class="fil55" d="M5007.37 1930.35l-12.81 18.34c-16.06,22.99 -40.12,39.15 -67.48,45.3l-16.83 3.8c-23.7,5.33 -48.49,2.85 -70.67,-7.08l-23.5 -10.54c-474.36,-101.66 -687.6,-970.66 -687.6,-970.66 -14.69,-56.39 47.66,-88.38 47.66,-88.38l873.15 -227.44c0,0 70.05,-2.51 84.75,53.88 0,0 237.81,862.61 -126.67,1182.78z"/>
   <path class="fil56" d="M5033.28 1559.11c-11.37,-53.58 -25.76,-62.3 -78.5,-47.51 52.74,-14.79 62.02,-30.15 50.66,-83.72 11.36,53.57 25.76,62.29 78.5,47.5 -52.74,14.79 -62.03,30.15 -50.66,83.73z"/>
   <path class="fil56" d="M4972.76 1590.02c-4.69,-22.08 -10.62,-25.68 -32.36,-19.58 21.74,-6.1 25.57,-12.43 20.89,-34.52 4.68,22.09 10.62,25.68 32.35,19.58 -21.73,6.1 -25.57,12.44 -20.88,34.52z"/>
   <path class="fil57" d="M5142.64 825.44l-983.69 256.22c-33.28,8.66 -67.61,-11.45 -76.28,-44.75l-20.86 -80.08c-8.67,-33.29 11.47,-67.59 44.75,-76.28l983.7 -256.22c33.28,-8.67 67.61,11.47 76.28,44.74l20.86 80.08c8.66,33.29 -11.47,67.62 -44.76,76.29z"/>
   <polygon class="fil55" points="5237.01,2934.12 5105.31,2968.42 4830.18,1912.19 4961.89,1877.88 "/>
   <polygon class="fil58" points="5656.9,3088.04 4813.88,3307.63 4697.04,2859.09 5540.06,2639.5 "/>
   <polygon class="fil59" points="5713.66,3073.25 4757.11,3322.42 4738.34,3250.35 5694.89,3001.18 "/>
   <polygon class="fil56" points="5463.33,2993.08 4936.53,3130.3 4880.43,2914.95 5407.23,2777.73 "/>
   <polygon class="fil57" points="5329.2,2694.42 4907.4,2804.29 4893.96,2752.7 5315.77,2642.84 "/>
   <path class="fil55" d="M4969.61 2447.95c0,0 85.42,262.8 -53.13,298.89l188.38 -49.07 -69.53 -266.96 -65.72 17.14z"/>
   <path class="fil55" d="M5101.19 2413.68c0,0 53.77,271.04 192.32,234.95l-188.65 49.14 -69.53 -266.96 65.86 -17.13z"/>
   <path class="fil56" d="M5063.76 695.59c-44.58,46.74 -44.12,67.28 2.49,111.97 -46.61,-44.69 -67.09,-44.23 -111.67,2.51 44.58,-46.74 44.12,-67.27 -2.49,-111.99 46.61,44.72 67.09,44.25 111.67,-2.49z"/>
   <path class="fil56" d="M4894.09 715.59c8.28,25.51 15.87,29.4 41.4,21.17 -25.53,8.23 -29.4,15.79 -21.12,41.3 -8.28,-25.51 -15.87,-29.38 -41.41,-21.18 25.54,-8.2 29.41,-15.78 21.13,-41.29z"/>
   <path class="fil56" d="M4467.23 1001.35c0,0 13.92,752.7 501.11,967.98 0,0 -419.16,-81.76 -599.96,-610.57 0,0 -59.46,-184.37 -58.39,-316.43l157.24 -40.98z"/>
   <path class="fil49" d="M4936.2 2187.12l-0.72 -5.05c-4.52,-31.68 -34.14,-53.91 -65.83,-49.39l-193.93 27.66c-31.69,4.52 -53.91,34.14 -49.39,65.83l0.72 5.05c4.52,31.68 34.15,53.91 65.82,49.39l193.94 -27.66c31.68,-4.52 53.91,-34.14 49.39,-65.83z"/>
   <path class="fil49" d="M5012.11 2292.35l-0.06 -0.25c-7.68,-32.81 -40.82,-53.36 -73.64,-45.66l-226.48 53.1c-32.82,7.69 -53.36,40.83 -45.68,73.64l0.06 0.25c7.69,32.81 40.83,53.36 73.64,45.67l226.49 -53.11c32.82,-7.69 53.37,-40.83 45.67,-73.64z"/>
   <path class="fil49" d="M5066.45 2405.64l-2.22 -6.1c-10.89,-29.96 -44.31,-45.57 -74.27,-34.68l-217.53 79.05c-29.96,10.88 -45.57,44.31 -34.68,74.26l2.22 6.11c10.89,29.96 44.31,45.56 74.26,34.68l217.54 -79.05c29.96,-10.89 45.57,-44.31 34.68,-74.27z"/>
   <path class="fil49" d="M5082.06 2534.59l-2.61 -7.19c-8.87,-24.4 -36.08,-37.11 -60.48,-28.25l-168.18 61.12c-24.4,8.87 -37.11,36.08 -28.24,60.48l2.61 7.2c8.87,24.39 36.08,37.1 60.48,28.24l168.18 -61.12c24.4,-8.86 37.11,-36.08 28.24,-60.48z"/>
   <path class="fil60" d="M4848.04 2229.73l-9.4 -62.11c-0.8,-5.3 2.92,-10.23 8.23,-10.92l34.08 -4.45c0,0 27.25,-1.91 36.65,31.45 0,0 6.82,28.23 -16.3,44.86 0,0 -9.74,5.98 -31.42,7.5l-10.88 1.7c-5.25,0.82 -10.16,-2.78 -10.96,-8.03z"/>
   <path class="fil60" d="M4925.92 2339.82l-12.7 -61.52c-1.09,-5.26 2.35,-10.38 7.63,-11.36l33.79 -6.25c0,0 27.11,-3.36 38.28,29.44 0,0 8.33,27.82 -13.88,45.67 0,0 -9.41,6.5 -30.98,9.16l-10.77 2.29c-5.2,1.09 -10.29,-2.24 -11.37,-7.43z"/>
   <path class="fil60" d="M4989.65 2470.73l-22.71 -58.56c-1.94,-5.01 0.61,-10.62 5.65,-12.47l32.28 -11.76c0,0 26.19,-7.79 42.62,22.71 0,0 12.83,26.06 -6.12,47.34 0,0 -8.21,7.96 -29.04,14.16l-10.25 4.03c-4.94,1.94 -10.51,-0.5 -12.43,-5.45z"/>
   <path class="fil60" d="M5004.5 2590.62l-19.86 -51.24c-1.7,-4.37 0.52,-9.29 4.94,-10.9l28.24 -10.29c0,0 22.9,-6.82 37.28,19.86 0,0 11.21,22.8 -5.36,41.41 0,0 -7.18,6.96 -25.4,12.39l-8.96 3.53c-4.32,1.7 -9.2,-0.44 -10.88,-4.76z"/>
   <path class="fil49" d="M5099.06 2223.32c-14.03,-22.03 -28.14,-44.18 -45.83,-63.39 -17.69,-19.2 -39.33,-35.49 -64.31,-43.06 -19,-5.75 -39.16,-6.28 -58.61,-10.28 -68.98,-14.15 -125.3,-76.23 -132.7,-146.27 -0.89,-8.43 -0.46,-18.41 6.4,-23.4 5.62,-4.09 13.33,-3.12 20.14,-1.73 45.06,9.25 87.69,29.33 133.35,34.89 31.51,3.83 63.8,0.63 94.81,7.44 34.5,7.58 65.08,27.01 94.34,46.81 48.87,33.07 93.97,74.22 135.65,116.82l-161.35 118.35c-7.08,-12.25 -14.35,-24.33 -21.89,-36.18z"/>
   <path class="fil60" d="M4891.55 1964.95l-10.13 37.37c-0.86,3.19 -6.23,3.94 -11.9,1.67l-36.29 -14.57c0,0 -28.49,-12.52 -27.5,-34.75 0,0 1.99,-18.24 30.95,-15.53 0,0 11.88,1.68 34.55,11.65l11.67 4.5c5.63,2.17 9.51,6.5 8.65,9.66z"/>
  </g>
  <path class="fil44" d="M6537.73 2830.34c47.67,-27.61 108.72,-11.34 136.33,36.33 27.61,47.67 11.34,108.72 -36.33,136.33l-1587.73 916.68c-47.67,27.61 -108.72,11.34 -136.33,-36.33 -27.61,-47.67 -11.34,-108.72 36.33,-136.33l1587.73 -916.68z"/>
 </g>
</svg>
