<?xml version="1.0" encoding="UTF-8"?>
<!DOCTYPE svg PUBLIC "-//W3C//DTD SVG 1.1//EN" "http://www.w3.org/Graphics/SVG/1.1/DTD/svg11.dtd">
<!-- Creator: CorelDRAW 2017 -->
<svg xmlns="http://www.w3.org/2000/svg" xml:space="preserve" width="102.51mm" height="16.02mm" version="1.1" style="shape-rendering:geometricPrecision; text-rendering:geometricPrecision; image-rendering:optimizeQuality; fill-rule:evenodd; clip-rule:evenodd"
viewBox="0 0 10251 1602"
 xmlns:xlink="http://www.w3.org/1999/xlink">
 <defs>
  <style type="text/css">
   <![CDATA[
    .fil2 {fill:black;fill-rule:nonzero}
    .fil3 {fill:#282828;fill-rule:nonzero}
    .fil4 {fill:#300901;fill-rule:nonzero}
    .fil5 {fill:#5E2014;fill-rule:nonzero}
    .fil7 {fill:#870E0E;fill-rule:nonzero}
    .fil6 {fill:#C40808;fill-rule:nonzero}
    .fil1 {fill:#F4CDBA;fill-rule:nonzero}
    .fil0 {fill:#FFEADC;fill-rule:nonzero}
   ]]>
  </style>
 </defs>
 <g id="Camada_x0020_1">
  <metadata id="CorelCorpID_0Corel-Layer"/>
  <g id="_2301263330528">
   <path class="fil0" d="M4653.51 1432.76c-18.61,49.79 -21.71,55.96 -21.71,77.71 0,21.77 21.87,53.36 -31.16,52.99 -44.98,-0.47 -62.15,0.3 -75.35,-13.35 -21.67,-22.26 18.3,-42.34 33.79,-73.42 15.56,-31.15 35.41,-65.7 35.41,-65.7l59.02 21.77z"/>
   <path class="fil1" d="M4599.14 1563.39c-12.46,-0.19 -22.68,-0.19 -31.43,-0.4 3.45,-1.28 7.01,-1.98 10.49,-1.98 17.08,0 37.27,-6.6 31.08,-33.01 -6.3,-26.4 -4.63,-55.62 4.63,-80.46 0,0 11.64,4.12 27.34,13.84 -9.21,24.84 -11,32.5 -11,49.09 0,21.77 21.87,53.36 -31.11,52.92z"/>
   <path class="fil0" d="M5440.36 638.84c0.75,-23.87 2.93,-140.69 2.68,-161.25 -0.49,-51.06 -8.23,-171.15 2.27,-181.06 10.63,-9.88 14.29,-17.11 16.41,-30.66 2.18,-13.56 4.18,-38.47 6.18,-45.21 1.86,-6.78 -8.81,-8.27 -16.68,22.14 -1.42,-10.26 -1.55,-54.02 -1.29,-62.55 0.25,-8.47 -26.06,-19.61 -32.28,12.51 -6.21,32.19 -13.42,60.9 -12.32,77.97 1.16,17.08 4.34,23.97 4.34,23.97 0,0 -13.14,81.93 -18.63,141.34 -5.44,59.52 -18.56,193.66 -15.63,207.36 2.91,13.74 64.95,-4.56 64.95,-4.56z"/>
   <path class="fil1" d="M5410.23 295.95c0,0 -3.23,-6.97 -4.32,-24.07 -1.09,-17.01 6.12,-45.76 12.38,-77.87 1.32,-7.02 3.71,-11.93 6.48,-15.32 -8.77,34.17 -13.46,97.17 -4.62,118.15 -2.4,9.32 -23.96,159.72 -18.12,340.42l-26.48 -0.37c0.14,-32.32 11.17,-146.2 16.14,-199.59 5.38,-59.51 18.54,-141.35 18.54,-141.35z"/>
   <path class="fil0" d="M5387.83 1472.2c38.53,25.01 95.31,49.99 118.02,56.76 22.72,6.82 13.69,9.11 9.07,20.47 -4.56,11.37 -133.9,4.54 -174.77,6.89 -40.87,2.23 -40.87,-25.11 -38.6,-43.18 2.22,-18.21 86.28,-40.94 86.28,-40.94z"/>
   <path class="fil2" d="M5096.75 996.87c27.62,44.39 112.69,211.55 140.35,255.87 27.75,44.34 183.21,237.23 183.21,237.23 0,0 -2.93,15.82 -21.08,17.23 -18.35,1.57 -116.75,20.13 -138.83,3.36 -22,-16.89 -313.21,-498.1 -326.26,-512.27 -13,-14.23 115.29,-119.26 115.29,-119.26l47.32 117.84z"/>
   <path class="fil3" d="M5046.5 753.87c-22.79,2.24 -118.8,29.46 -171.39,85.89 -63.65,68.09 -326.45,571.63 -324.14,617.06 0,0 63.59,25.54 86.21,20.98 22.74,-4.53 300.88,-456.97 300.88,-456.97l144.67 -136.64 -36.23 -130.32z"/>
   <path class="fil2" d="M4991.67 981.17c0,0 -123.64,151.56 -341.4,502.4 -4.91,7.98 -29.86,-3.02 -51.22,-9.46 161.31,-342.1 256.19,-465.28 327.28,-539.6 20.61,-16.43 68.04,-47.36 155.11,-72.23l13.84 40.71 -103.61 78.18z"/>
   <path class="fil4" d="M5607.34 1056.92c-15.82,52.75 -13.19,84.48 6.56,98.95 -15.82,2.73 -33.01,0 -39.55,-25.07 -6.65,-25.12 32.99,-73.88 32.99,-73.88z"/>
   <path class="fil4" d="M5605.55 1046.29c-23.42,77.97 -25.41,114.99 3.83,136.45 -23.39,3.84 -42.91,9.7 -52.61,-27.35 -9.8,-36.93 48.78,-109.1 48.78,-109.1z"/>
   <path class="fil5" d="M5678.66 766.08c-38.63,-22.21 -173.84,-46.36 -188.24,52.16 -8.07,54.53 2.84,76.28 2.84,76.28l184.92 -35.57 0.48 -92.87z"/>
   <path class="fil0" d="M5381.83 853.11l54.07 54.69c0,0 78.46,-11.35 88.7,-11.51l1.52 -41.53 0 -0.6 -2.9 -41.47c-10.25,0.15 -94.58,-9.84 -94.58,-9.84l-46.81 50.26z"/>
   <path class="fil1" d="M5524.6 897.13l-9.98 -50.88 -129.81 15.96 53.58 46.03c0,0 75.97,-10.97 86.21,-11.11z"/>
   <path class="fil1" d="M5528.06 855.32l0 -0.51 -2.87 -41.52c-3.43,0.09 -14.78,-0.96 -28.45,-2.44 -15.41,10.61 -43.33,43.26 -43,63.32 0.25,16.75 25.61,16.63 37.06,27.12 16.86,-2.4 31.65,-4.28 35.59,-4.39l1.67 -41.58z"/>
   <path class="fil4" d="M5674.92 944.81c-43.62,21.68 -72.14,119.25 -90.29,187.17 -7.72,29.19 -15.69,55.57 16.41,71.16 15.05,7.12 -59.12,24.33 -88.43,-68.29 -27.79,-87.98 -22.19,-250.94 -22.19,-250.94l187.89 -29.8 -3.39 90.7z"/>
   <path class="fil0" d="M5598.59 767.9c-61.32,6.89 -114.27,55.65 -114.75,85.21 -0.51,32.85 32.26,75.73 110.26,89.65 64.11,11.38 128.18,-3.74 129.41,-84.18 1.32,-75.53 -60.79,-97.93 -124.92,-90.68z"/>
   <path class="fil1" d="M5576.35 935.05c-78.04,-13.87 -93.02,-49.09 -92.51,-81.94l0.21 -1.53c28.56,81.51 195.51,51.57 212.87,15.88l-6.68 50.16c-24.91,17.43 -77.83,23.84 -113.89,17.43z"/>
   <path class="fil4" d="M5678.25 856.48c-21.09,18.54 -3.27,61.79 -44.75,70.21 -14.78,3.01 -49.94,9.93 -88.27,-1.05 -45.55,-13.05 -19.17,21.94 -19.17,21.94l77.05 15.05c0,0 79.08,-3.67 111.21,-47.31 19.99,-27.24 19.99,-57.5 14.71,-57.79 -4.05,-0.27 -50.78,-1.05 -50.78,-1.05z"/>
   <path class="fil5" d="M5677.87 855.81c-23.22,-24.47 -2.66,-63.92 -43.87,-73.99 -18.21,-4.54 -45.78,-9.92 -101.06,2.2 -23.09,5.1 -16.51,-4.4 -16.51,-4.4l90.07 -31.58c0,0 85.73,6.63 112.57,49.13 17.33,27.45 13.12,61.17 9.45,62.55 -3.78,1.41 -50.65,-3.91 -50.65,-3.91z"/>
   <path class="fil6" d="M5456.64 804.73l-2.53 -90.01c0,0 -72.82,30.33 -122.59,18.13 -99.7,-24.43 -300.21,-3.52 -317.7,30.31 -2.05,4 16.57,111.01 34.99,139.9 6.76,10.63 339.54,-29.06 353.31,-43.55 20.79,-22.22 54.52,-54.78 54.52,-54.78z"/>
   <path class="fil7" d="M5402.12 859.51c-234.44,-59.06 -366.2,19.07 -366.2,19.07 0,0 45.83,113.85 60.83,118.29 14.88,4.58 98.93,-40.22 126.53,-35.86 27.54,4.12 115.51,48.35 130.5,66.43 14.93,18.15 81.09,11.33 81.09,11.33l17.77 -125.85 -50.52 -53.41z"/>
   <path class="fil6" d="M5453.02 741.6c1.67,-18.71 0,-131.91 -8.55,-128.51 -72.29,1.68 -82.83,-5.96 -82.83,-5.96 0,0 -20.07,129.14 -39.62,125.76 49.35,15.28 131,8.71 131,8.71z"/>
   <path class="fil7" d="M5361.27 608.09c0,0 1.65,-0.23 23.77,4.86 -4.39,28.29 -11.86,119.76 -11.86,119.76 0,0 -20.61,-3.14 -45.39,-2.21 18.41,-13.9 33.48,-122.41 33.48,-122.41z"/>
   <path class="fil0" d="M5447.6 612.19c-6.54,-1.4 -71.75,-2.77 -86.22,-6.22 -3.41,6.86 -2.32,8.24 -1.72,9.05 2.12,3.22 84.33,8.09 89.43,6.89l-1.49 -9.72z"/>
   <path class="fil1" d="M5411.7 1126.3c-1.84,23.87 -12.58,140.14 -15.11,160.56 -6.13,50.72 -27.09,169.24 -17.68,180.19 9.32,11.04 12.13,18.64 12.83,32.35 0.73,13.74 -0.09,38.67 1.12,45.66 1.14,6.93 -9.71,7.18 -14.15,-23.87 -2.48,10.02 -7.51,53.52 -8.18,62.01 -0.57,8.41 -28.01,16.59 -30.66,-16.02 -2.61,-32.64 -6.68,-61.97 -3.64,-78.82 3.01,-16.88 6.94,-23.46 6.94,-23.46 0,0 -3.93,-82.8 -2.75,-142.47 1.09,-59.71 2.82,-194.45 7.24,-207.85 4.46,-13.35 64.04,11.72 64.04,11.72z"/>
   <path class="fil7" d="M5435.73 1025.49c-0.39,18.87 -14.61,131.17 -22.73,126.85 -71.76,-9.63 -83.02,-3.21 -83.02,-3.21 0,0 -5.65,-159.09 -25.49,-157.84 50.78,-9.81 131.24,34.2 131.24,34.2z"/>
   <path class="fil0" d="M5416 1153.59c-6.62,0.63 -71.67,-5.16 -86.49,-3.37 -2.55,-7.19 -1.26,-8.3 -0.58,-9.26 2.47,-2.78 84.7,1.37 89.56,3.16l-2.49 9.47z"/>
   <path class="fil0" d="M5455.88 905.83c-7.66,-1.02 -45.32,-40.97 -45.32,-47.71 0.11,-7.73 44.97,-48.9 47.41,-51.79 1.58,-4.82 -0.13,-9.3 -0.13,-9.3 0,0 -60.95,50.61 -62.58,59.01 -2.21,11.1 53.99,58.86 57.06,56.88l3.56 -7.09z"/>
  </g>
 </g>
</svg>
