<?xml version="1.0" encoding="UTF-8"?>
<!DOCTYPE svg PUBLIC "-//W3C//DTD SVG 1.1//EN" "http://www.w3.org/Graphics/SVG/1.1/DTD/svg11.dtd">
<!-- Creator: CorelDRAW 2017 -->
<svg xmlns="http://www.w3.org/2000/svg" xml:space="preserve" width="102.51mm" height="16.02mm" version="1.1" style="shape-rendering:geometricPrecision; text-rendering:geometricPrecision; image-rendering:optimizeQuality; fill-rule:evenodd; clip-rule:evenodd"
viewBox="0 0 10251 1602"
 xmlns:xlink="http://www.w3.org/1999/xlink">
 <defs>
  <style type="text/css">
   <![CDATA[
    .str0 {stroke:#C98359;stroke-width:6.19;stroke-linecap:round;stroke-linejoin:round;stroke-miterlimit:10}
    .str1 {stroke:#E0C3AA;stroke-width:6.22;stroke-linecap:round;stroke-linejoin:round;stroke-miterlimit:10}
    .fil7 {fill:none;fill-rule:nonzero}
    .fil18 {fill:#FEE9DC;fill-rule:nonzero}
    .fil1 {fill:#FBC4A2;fill-rule:nonzero}
    .fil11 {fill:#FBC3A1;fill-rule:nonzero}
    .fil6 {fill:#F1B896;fill-rule:nonzero}
    .fil16 {fill:#F2D9BF;fill-rule:nonzero}
    .fil8 {fill:#ECA277;fill-rule:nonzero}
    .fil10 {fill:#EAEAE9;fill-rule:nonzero}
    .fil13 {fill:#E6CDB4;fill-rule:nonzero}
    .fil5 {fill:#DA9366;fill-rule:nonzero}
    .fil9 {fill:#C6C9C9;fill-rule:nonzero}
    .fil17 {fill:#313334;fill-rule:nonzero}
    .fil2 {fill:#2F353A;fill-rule:nonzero}
    .fil15 {fill:#262629;fill-rule:nonzero}
    .fil0 {fill:#2C3337;fill-rule:nonzero}
    .fil12 {fill:#222124;fill-rule:nonzero}
    .fil3 {fill:#23343F;fill-rule:nonzero}
    .fil4 {fill:#263B4C;fill-rule:nonzero}
    .fil14 {fill:#262938;fill-rule:nonzero}
   ]]>
  </style>
 </defs>
 <g id="Camada_x0020_1">
  <metadata id="CorelCorpID_0Corel-Layer"/>
  <g id="_2301287174112">
   <path class="fil0" d="M9449.5 79.78c0,0 22.45,1.79 24.37,32.84 1.91,31.03 2.06,121.11 -40.08,126.63 -42.14,5.51 -11.81,-147.98 -11.81,-147.98l27.52 -11.49z"/>
   <path class="fil0" d="M9303.18 107.57c0,0 -17.06,47.51 17,56.23 34.05,8.71 27.72,-60.19 27.72,-60.19l-44.72 3.96z"/>
   <path class="fil1" d="M9496.93 406.13l105.39 148.58 -5.91 -13.91 48.73 218.04 54.23 -10.16 -33.55 -220.89c-0.74,-4.8 -2.55,-9.17 -5.17,-12.89l-0.74 -1.04 -105.4 -148.58 -57.58 40.85z"/>
   <path class="fil1" d="M9685.54 825.72c27.72,-8.3 43.45,-37.51 35.13,-65.22 -8.3,-27.71 -37.51,-43.45 -65.22,-35.14 -27.71,8.31 -43.44,37.51 -35.13,65.22 8.31,27.73 37.5,43.46 65.22,35.14z"/>
   <path class="fil1" d="M9268.75 400.98l-66.67 203.75 35.76 -24.26 -217.12 -5.87 -3.46 55.07 216.16 21.27c16.05,1.58 30.57,-8.35 35.38,-23.07l0.38 -1.19 66.67 -203.74 -67.1 -21.96z"/>
   <polygon class="fil1" points="9280.6,1443.19 9247.91,1533.22 9200.17,1490.24 9230.62,1418.16 "/>
   <path class="fil2" d="M9266.84 1512.35c-0.01,-4.41 -3.8,-7.3 -7.57,-5.69 -7.4,3.17 -19.68,5.9 -34.29,-0.66 -15.17,-6.82 -17.99,-18.05 -18,-25.43 -0.01,-3.88 -2.78,-6.78 -6.26,-6.29l-111.24 16.04c-6.75,0.97 -13.08,4.88 -17.58,10.89l0 0c-4.24,5.64 -2.26,13.88 3.74,15.71l166.07 50.47c6.54,1.99 13.62,-2.7 15.55,-10.28l9.38 -37.16c0.15,-0.61 0.24,-1.25 0.23,-1.87l-0.03 -5.73z"/>
   <polygon class="fil1" points="9714.77,1382.11 9751,1452.97 9708.87,1489.01 9663.34,1403.98 "/>
   <path class="fil2" d="M9758.56 1437.37c-3.37,-2.85 -8.02,-1.84 -9.23,2.09 -2.38,7.69 -8.24,18.81 -22.71,25.7 -15.02,7.15 -25.4,2.02 -31.04,-2.74 -2.95,-2.5 -6.97,-2.28 -8.82,0.69l-59.82 95.14c-3.63,5.79 -4.75,13.15 -3.08,20.47l0 0c1.56,6.87 9.11,10.72 14.38,7.32l146 -93.89c5.76,-3.69 6.77,-12.13 2.23,-18.49l-22.25 -31.21c-0.36,-0.52 -0.79,-0.99 -1.28,-1.39l-4.38 -3.69z"/>
   <polygon class="fil3" points="9317.48,717.62 9460.28,1113.78 9662.44,1448.76 9752.62,1404.25 9572.91,1070.27 9474.29,736.26 "/>
   <path class="fil4" d="M9538.16 723.46c0,0 27.04,51.07 -14.94,132.72l-130.35 248.72 -99.35 376.93 -98.68 -34.44 94.43 -381.2 102.07 -297.47 -73.86 -51.1 220.68 5.84z"/>
   <path class="fil5" d="M9415.18 283.26l111.2 22.82c13.09,2.68 24.68,10.2 32.46,21.06l70.75 98.56 -94.54 61.85 34.07 269.93c0,0 -38.48,117.88 -273.52,23.89 0,0 20.27,-223.71 6.7,-369.41l6.93 -95.9 105.95 -32.8z"/>
   <path class="fil5" d="M9309.23 316.06l-18.51 6.74c-15.31,5.58 -27.19,17.87 -32.26,33.34l-38.52 117.46 113.26 20.96 -23.97 -178.5z"/>
   <path class="fil1" d="M8948.56 586.47c0,28.93 23.46,52.39 52.4,52.39 28.92,0 52.38,-23.46 52.38,-52.39 0,-28.93 -23.46,-52.39 -52.38,-52.39 -28.94,0 -52.4,23.46 -52.4,52.39z"/>
   <path class="fil1" d="M9383.75 317.35l12.64 6.95c24.55,-2.01 47.59,-7.2 45.57,-31.74l-5.89 -71.86 -88.9 7.3 5.9 71.85c2.02,24.55 6.13,19.52 30.68,17.5z"/>
   <path class="fil6" d="M9437.31 229.38c0,0 -12.24,53.27 -56.9,51.38 -39.11,-1.67 -35.38,-60.06 -35.38,-60.06l92.28 8.68z"/>
   <path class="fil1" d="M9387.99 261.8l7.57 -0.82c37.81,-4.09 65.15,-38.06 61.08,-75.88l-4.68 -43.09c-4.07,-37.81 -38.05,-65.15 -75.87,-61.08l-7.56 0.82c-37.82,4.1 -65.16,38.06 -61.07,75.88l4.65 43.09c4.1,37.82 38.06,65.17 75.88,61.08z"/>
   <line class="fil7 str0" x1="9528.57" y1="468.83" x2="9499.95" y2= "435.05" />
   <line class="fil7 str0" x1="9306.61" y1="489.65" x2="9302.3" y2= "419.94" />
   <path class="fil8" d="M9383.75 317.35l56.47 -34.09c24.14,-10.04 39.45,13.24 39.45,13.24l-67.21 65.92 -28.71 -45.07z"/>
   <path class="fil8" d="M9383.75 317.35l-27.3 42.33 -27.33 -49.78c0,0 10.76,-16.95 25.49,-13.03l29.14 20.48z"/>
   <path class="fil9" d="M9236.46 588.58l-341.68 0c-5.67,0 -10.27,-4.6 -10.27,-10.27l0 0c0,-5.67 4.6,-10.26 10.27,-10.26l341.68 0c5.67,0 10.27,4.59 10.27,10.26l0 0c0,5.67 -4.6,10.27 -10.27,10.27z"/>
   <path class="fil9" d="M8884.51 575.69l-40.85 -198.47c-1.01,-4.93 2.76,-9.57 7.81,-9.57l207.83 0c3.81,0 7.07,2.69 7.82,6.41l40.25 201.63 -222.86 0z"/>
   <polygon class="fil10" points="8866.74,382.76 8904.82,562.79 9093.29,562.79 9055.22,382.76 "/>
   <path class="fil0" d="M9447.49 174.81l-23.06 0 -4.47 -25.3c0,0 -24.09,-12.93 -19.45,-37.96 0,0 -101.6,36.39 -117.39,-4.08 -20.87,-53.49 54.9,-66.72 117.39,-65.23 62.5,1.48 57.95,81.22 57.95,81.22l-10.97 51.35z"/>
   <path class="fil1" d="M9434.02 169.75c1.46,13.5 13.58,23.26 27.08,21.8 13.5,-1.46 23.26,-13.58 21.8,-27.09 -1.47,-13.5 -13.58,-23.26 -27.08,-21.79 -13.5,1.46 -23.27,13.58 -21.8,27.08z"/>
  </g>
  <g id="_2301287166656">
   <polygon class="fil11" points="1065.01,527.33 1116.54,501.88 1145.28,540.66 1080.96,572.62 "/>
   <path class="fil11" d="M1198.85 484.37c4.22,26.35 -13.4,51.49 -39.34,56.14 -25.94,4.65 -50.39,-12.95 -54.6,-39.32 -4.22,-26.36 13.4,-51.5 39.34,-56.14 25.94,-4.64 50.38,12.96 54.6,39.32z"/>
   <path class="fil12" d="M1246.01 427.52l0 0c2.28,5.09 0.04,11.22 -5,13.61l-113.53 54.04c-5.02,2.4 -11.01,0.18 -13.29,-4.91l0 0c-2.29,-5.09 -0.04,-11.22 4.99,-13.62l113.52 -54.03c5.04,-2.39 11.02,-0.18 13.31,4.91z"/>
   <path class="fil13" d="M845.7 376.88l110.83 203.08 129.97 -70.88 19.93 62.57 -163.77 110.53c-13.05,7.25 -29.27,2.11 -35.77,-11.32l-118.77 -149.36 57.58 -144.62z"/>
   <path class="fil1" d="M764.72 295.78l-5.16 -3.63c-17.11,-12.05 -43.14,-3.13 -31.36,-20.63l99.9 -149.16 61.67 43.39 -81.96 121.88c-9.71,14.43 -29,18.07 -43.09,8.15z"/>
   <path class="fil1" d="M941.58 195.86c-20.79,40.74 -69.94,56.52 -109.75,35.26 -39.82,-21.27 -55.25,-71.54 -34.46,-112.28 25.05,-49.08 65.67,-58.79 109.75,-35.25 39.82,21.28 55.24,71.54 34.46,112.27z"/>
   <path class="fil1" d="M841.24 275.24l0 0c-18.9,-10.1 -26.23,-33.97 -16.36,-53.31l36.05 -70.63 81.24 43.39 -29.37 57.57c-13.56,26.55 -45.59,36.84 -71.56,22.98z"/>
   <path class="fil1" d="M931.07 211.22l3.63 32.15c0.26,5.05 -5.07,8.26 -9.66,5.8l-20.05 -6.21 26.08 -31.74z"/>
   <path class="fil14" d="M824.63 174.04l-40.31 13.69c0,0 -30.74,-131.47 67.87,-147.66 0,0 82.52,-4.92 113.17,65.69 8.76,20.18 7.96,51.4 -14.68,56.06 0,0 -0.14,1.78 0,0 1.49,-17.71 -4.95,-33.12 -4.95,-33.12 0,0 -19.19,46.87 -58.16,42.37l0 0 -11.28 17.33c-4.31,6.62 -17.26,4.02 -24.15,0.34l-7.69 -4.11 10.33 -20.27 -30.15 9.68z"/>
   <path class="fil1" d="M862.34 149.64c8.25,9.4 7.49,23.86 -1.7,32.29 -9.17,8.44 -23.32,7.66 -31.56,-1.73 -8.25,-9.39 -7.49,-23.85 1.7,-32.29 9.18,-8.44 23.31,-7.66 31.56,1.73z"/>
   <polygon class="fil1" points="625.99,1454.39 611.93,1527 662.88,1537.79 680.32,1463.63 "/>
   <path class="fil15" d="M602.62 1522.67c1.43,-3.79 6.02,-5.15 9.14,-2.64 6.11,4.94 17.08,10.95 33.3,9.65 16.84,-1.35 23.18,-10.18 25.57,-16.52 1.25,-3.33 4.86,-5.01 8.05,-3.55l102.17 46.94c6.2,2.85 11.06,8.11 13.46,14.61l0 0c2.27,6.12 -2.28,12.63 -8.67,12.4l-176.51 -6.05c-6.95,-0.24 -12.28,-6.38 -11.68,-13.46l2.92 -34.78c0.04,-0.57 0.18,-1.14 0.38,-1.68l1.87 -4.92z"/>
   <polygon class="fil1" points="802.78,1451.22 807.88,1525.06 859.81,1521.76 857.56,1445.52 "/>
   <polygon class="fil15" points="875.04,674.94 873.56,1469.46 783.02,1469.46 753.69,772.88 "/>
   <path class="fil16" d="M840.36 317.68c0,0 -13.96,-31.69 -28.3,-38.88 -14.35,-7.2 -79.64,-16.63 -79.64,-16.63 0,0 -74.43,50.48 -73.32,140.77l6.48 272 209.46 0c0,0 15.58,-245.57 -34.68,-357.26z"/>
   <path class="fil17" d="M875.04 674.94l-37.08 114.67 -45.5 314.61 -95.12 373.21 -88.44 -10.42 73.07 -366.84 -2.03 -274.98c0,0 -4.45,-25.22 8.25,-150.25l186.85 0z"/>
   <path class="fil1" d="M749.94 959.14c-1.88,28.92 -26.31,50.81 -54.57,48.89 -28.26,-1.92 -49.66,-26.91 -47.78,-55.83 1.87,-28.91 26.3,-50.8 54.56,-48.88 28.27,1.91 49.66,26.91 47.79,55.82z"/>
   <polygon class="fil1" points="721.92,928.32 669.21,928.32 669.21,829.27 721.92,829.27 "/>
   <path class="fil16" d="M660.99 393.98l0 458.7 72.47 0 25.58 -482.27c1.22,-22.93 -8.38,-45.47 -26.59,-58.9 -20.68,-15.25 -48.5,-16.59 -68.05,56.35 -2.28,8.5 -3.41,17.3 -3.41,26.12z"/>
   <polygon class="fil18" points="660.99,852.68 660.99,821.94 735.09,821.94 733.46,852.68 "/>
   <path class="fil15" d="M794.98 1510.97c1.26,-3.86 5.77,-5.44 9.01,-3.08 6.34,4.62 17.58,10.08 33.71,7.98 16.76,-2.17 22.68,-11.3 24.76,-17.75 1.1,-3.4 4.62,-5.25 7.88,-3.95l104.27 41.84c6.33,2.55 11.41,7.56 14.13,13.94l0 0c2.54,6 -1.7,12.72 -8.08,12.82l-176.59 2.65c-6.96,0.11 -12.57,-5.76 -12.31,-12.87l1.27 -34.88c0.03,-0.57 0.13,-1.15 0.32,-1.7l1.63 -5z"/>
   <polygon class="fil7 str1" points="753.69,433.96 742.89,674.94 "/>
   <path class="fil14" d="M919.85 137.62c0,0 58.37,86.23 77.44,12.28 19.06,-73.93 -103.58,-51.93 -103.58,-51.93l26.14 39.65z"/>
   <path class="fil1" d="M732.42 262.17c0,0 88.69,89.05 99.43,39.2 0,0 -9.59,-24.07 -43.73,-41.94l-55.7 2.74z"/>
   <polygon class="fil18" points="1086.5,509.08 1106.43,571.65 1082.17,588.03 1060.33,523.35 "/>
  </g>
 </g>
</svg>
