<?xml version="1.0" encoding="UTF-8"?>
<!DOCTYPE svg PUBLIC "-//W3C//DTD SVG 1.1//EN" "http://www.w3.org/Graphics/SVG/1.1/DTD/svg11.dtd">
<!-- Creator: CorelDRAW 2017 -->
<svg xmlns="http://www.w3.org/2000/svg" xml:space="preserve" width="102.51mm" height="16.02mm" version="1.1" style="shape-rendering:geometricPrecision; text-rendering:geometricPrecision; image-rendering:optimizeQuality; fill-rule:evenodd; clip-rule:evenodd"
viewBox="0 0 10251 1602"
 xmlns:xlink="http://www.w3.org/1999/xlink">
 <defs>
  <style type="text/css">
   <![CDATA[
    .str0 {stroke:#E2D6D1;stroke-width:6.06;stroke-linecap:round;stroke-linejoin:round;stroke-miterlimit:10}
    .fil15 {fill:none;fill-rule:nonzero}
    .fil9 {fill:#FEFEFE;fill-rule:nonzero}
    .fil5 {fill:#FBC4A2;fill-rule:nonzero}
    .fil0 {fill:#FBC3A1;fill-rule:nonzero}
    .fil7 {fill:#F4816C;fill-rule:nonzero}
    .fil13 {fill:#F9EEE8;fill-rule:nonzero}
    .fil6 {fill:#F3E5DF;fill-rule:nonzero}
    .fil14 {fill:#F1B896;fill-rule:nonzero}
    .fil3 {fill:#F0BB99;fill-rule:nonzero}
    .fil17 {fill:#C6C9C9;fill-rule:nonzero}
    .fil16 {fill:#A6A8A8;fill-rule:nonzero}
    .fil2 {fill:#515251;fill-rule:nonzero}
    .fil8 {fill:#3F4041;fill-rule:nonzero}
    .fil4 {fill:#2F353A;fill-rule:nonzero}
    .fil12 {fill:#2C3337;fill-rule:nonzero}
    .fil1 {fill:#222124;fill-rule:nonzero}
    .fil10 {fill:#23343F;fill-rule:nonzero}
    .fil11 {fill:#263B4C;fill-rule:nonzero}
   ]]>
  </style>
 </defs>
 <g id="Camada_x0020_1">
  <metadata id="CorelCorpID_0Corel-Layer"/>
  <g id="_2301287128080">
   <polygon class="fil0" points="9354.62,464.49 9315.98,422.57 9275.57,448.2 9323.72,500.74 "/>
   <path class="fil0" d="M9246.03 377.01c-13.3,22.89 -5.95,52.44 16.4,66 22.37,13.55 51.27,5.97 64.57,-16.94 13.3,-22.9 5.96,-52.46 -16.41,-66.01 -22.35,-13.54 -51.26,-5.96 -64.56,16.95z"/>
   <path class="fil1" d="M9222.64 307.56l0 0c-3.93,3.9 -4.04,10.38 -0.23,14.39l85.84 90.49c3.81,4.02 10.13,4.1 14.07,0.2l0 0c3.93,-3.9 4.03,-10.38 0.22,-14.39l-85.84 -90.49c-3.8,-4.02 -10.13,-4.1 -14.06,-0.2z"/>
   <path class="fil2" d="M9611.3 403.4l-175 148.49 -95.06 -111.95 -40.75 50.83 112.21 160.7c9.5,11.37 26.33,12.4 37.15,2.28l163.21 -95.94 -1.76 -154.41z"/>
   <path class="fil3" d="M9405.04 1096.23c0,0 283.39,205.93 397.27,332.64l34.56 -32.18 -95.95 -115.43c0,0 -43.57,-101.79 -136.25,-135.34l-128.51 -155.6 -71.12 105.91z"/>
   <path class="fil4" d="M9836.84 1374.16c-3.77,-2.08 -8.04,-0.22 -8.46,3.76 -0.81,7.82 -4.32,19.61 -16.88,28.96 -13.05,9.7 -23.97,6.76 -30.27,3.26 -3.31,-1.83 -7.12,-0.85 -8.35,2.34l-39.25 102.58c-2.38,6.22 -2.05,13.5 0.93,20.2l0 0c2.8,6.29 10.77,8.54 15.19,4.28l122.11 -117.74c4.81,-4.63 4.18,-12.91 -1.37,-18.15l-27.26 -25.69c-0.45,-0.44 -0.95,-0.8 -1.49,-1.09l-4.9 -2.71z"/>
   <path class="fil5" d="M9394.27 997.3c0,0 -13.73,350.05 -55.81,515.15l45.97 10.84 42.65 -143.91c0,0 60.42,-92.79 36.82,-188.49l57.96 -193.3 -127.59 -0.29z"/>
   <path class="fil4" d="M9403.09 1504.26c-0.35,-4.28 -4.28,-6.81 -7.82,-4.94 -6.95,3.67 -18.7,7.3 -33.45,2.05 -15.32,-5.45 -18.95,-16.17 -19.54,-23.35 -0.31,-3.78 -3.24,-6.4 -6.58,-5.64l-107.1 24.37c-6.5,1.47 -12.36,5.79 -16.27,12l0 0c-3.67,5.82 -1.12,13.69 4.87,15l165.76 36.1c6.51,1.42 13.05,-3.7 14.31,-11.22l6.22 -36.95c0.11,-0.61 0.13,-1.23 0.08,-1.85l-0.48 -5.57z"/>
   <path class="fil6" d="M9651.67 944.55l7.12 222.88 -322.73 16.05c0,0 35.66,-128.29 64.2,-254.04l251.41 15.11z"/>
   <path class="fil5" d="M9594.32 360.8l0 0c9.4,-1.15 18.87,-6.19 25.86,-10.87 6.92,-4.6 10.54,-12.78 9.54,-21.03l-18.99 -150.89 -66.01 7.96 18.78 148.99c2.07,17.12 15.74,27.65 30.82,25.84z"/>
   <path class="fil3" d="M9558.22 293.11l22.8 -41.76c0,0 21.79,42.13 -20.4,60.81l-2.4 -19.05z"/>
   <path class="fil5" d="M9486.37 193c5.42,44.97 46.26,77.01 91.22,71.59 44.96,-5.42 77.01,-46.26 71.59,-91.21 -5.42,-44.96 -46.26,-77.01 -91.22,-71.59 -44.96,5.42 -77.01,46.26 -71.59,91.21z"/>
   <path class="fil5" d="M9552.43 294.26l0 0c21.34,-2.58 36.56,-21.96 33.98,-43.31l-6.71 -55.71 -93.33 -2.24 6.58 54.59c3.54,29.31 30.16,50.2 59.48,46.67z"/>
   <path class="fil5" d="M9490.93 210.9l-14.61 28.34c-2.01,4.58 1.9,9.43 7.08,8.81l21.08 1.4 -13.55 -38.55z"/>
   <path class="fil7" d="M9569.59 219.43l-17.96 -1.44 -6.91 -32.02c0,0 -73.47,13.03 -84.53,-21.76 0,0 42.46,-117.12 145.25,-71.42 76.25,33.89 54.4,117.61 29.27,148.73 -8.36,10.35 -12.26,23.77 -11.21,37.05 0.12,1.61 0.3,3.3 0.53,5.06l-29.99 -68.2 -24.45 4z"/>
   <path class="fil5" d="M9593.41 185.34c-11.43,-4.9 -24.68,0.42 -29.56,11.87 -4.89,11.44 0.42,24.68 11.86,29.57 11.46,4.88 24.7,-0.43 29.58,-11.88 4.88,-11.43 -0.43,-24.68 -11.88,-29.56z"/>
   <path class="fil7" d="M9618.18 117.51c0,0 18.3,-97.68 101.23,-70.99 91.37,29.4 51.02,134.84 54.61,157.92 4.22,27.05 18.32,55.13 57.47,60.48 0,0 -109.45,24.58 -115.66,-52.02 -5.23,-64.48 -35.81,-90.67 -70.57,-65.84l-27.08 -29.55z"/>
   <path class="fil8" d="M9629.72 328.9c0,0 18.87,-7.29 28.43,95.26 9.55,102.55 15.89,580.1 15.89,580.1l-297.95 -50.72c0,0 54.07,-426.98 187.41,-618.58l66.22 -6.06z"/>
   <path class="fil5" d="M9625.96 1011.08c-1.73,26.77 -24.35,47.05 -50.53,45.27 -26.17,-1.78 -45.98,-24.92 -44.25,-51.7 1.74,-26.77 24.36,-47.04 50.53,-45.27 26.18,1.78 45.99,24.92 44.25,51.7z"/>
   <polygon class="fil5" points="9600.03,982.53 9551.2,982.53 9551.2,890.81 9600.03,890.81 "/>
   <path class="fil2" d="M9543.6 487.7l0 448.25 67.11 0 23.69 -470.08c1.13,-21.23 -7.77,-42.1 -24.62,-54.54 -19.15,-14.12 -44.92,-15.37 -63.02,52.17 -2.12,7.89 -3.16,16.04 -3.16,24.2z"/>
   <polygon class="fil9" points="9543.6,935.95 9543.6,907.48 9612.21,907.48 9610.71,935.95 "/>
  </g>
  <g id="_2301287120784">
   <polygon class="fil5" points="1017.69,1461.69 1049.15,1537.38 1100.54,1510.15 1069.16,1435.89 "/>
   <path class="fil4" d="M1031.86 1532.92c0.01,-4.55 3.91,-7.52 7.81,-5.86 7.61,3.26 20.26,6.08 35.3,-0.69 15.64,-7.03 18.55,-18.59 18.56,-26.19 0,-3.99 2.86,-6.99 6.43,-6.47l114.58 16.51c6.96,1 13.48,5.05 18.12,11.23l0 0c4.35,5.81 2.34,14.29 -3.85,16.17l-171.07 51.99c-6.72,2.05 -14.03,-2.78 -16.01,-10.58l-9.66 -38.28c-0.16,-0.64 -0.24,-1.29 -0.24,-1.94l0.03 -5.89z"/>
   <polygon class="fil5" points="553.27,1278.14 481.45,1317.65 514.11,1365.77 584.5,1326.5 "/>
   <path class="fil4" d="M484.01 1299.98c4.5,-0.47 7.89,3.07 6.67,7.12 -2.42,7.92 -3.85,20.81 4.52,35.03 8.68,14.77 20.49,16.4 28.05,15.59 3.97,-0.43 7.26,2.07 7.14,5.69l-3.94 115.69c-0.24,7.02 -3.55,13.95 -9.19,19.24l0 0c-5.3,4.96 -13.96,3.87 -16.5,-2.08l-70.3 -164.38c-2.77,-6.47 1.24,-14.26 8.78,-17.06l37 -13.78c0.61,-0.23 1.25,-0.38 1.89,-0.44l5.88 -0.62z"/>
   <polygon class="fil10" points="979.7,730.5 952.05,908.09 812.1,1159.49 571.25,1368.98 515.12,1269.69 706.14,1091.49 818.19,733.54 "/>
   <path class="fil11" d="M752.39 720.36c0,0 -27.84,52.6 15.4,136.69l134.27 256.18 102.31 388.25 101.64 -35.48 -73 -392.64 -129.38 -306.39 76.07 -36.47 -227.31 -10.14z"/>
   <path class="fil5" d="M1045.02 220.9c-17.68,19.38 -47.74,20.76 -67.11,3.07 -19.39,-17.68 -20.77,-47.73 -3.08,-67.12 17.69,-19.37 47.73,-20.75 67.12,-3.07 19.39,17.68 20.76,47.73 3.07,67.12z"/>
   <polygon class="fil5" points="1082.95,245.25 1041.68,195.49 1008.76,228.62 1047.47,276.04 "/>
   <path class="fil12" d="M989.75 128.74l37.88 50.7c4.95,6.63 4.77,15.77 -0.44,22.19l-30.7 37.88c-7.15,8.81 -20.56,8.94 -27.87,0.26l-42.84 -50.94c-5.91,-7.02 -5.6,-17.37 0.71,-24.04l35.67 -37.66c7.7,-8.14 20.88,-7.37 27.59,1.61z"/>
   <path class="fil6" d="M950.56 307.56l150.22 75.34 -82.51 -127.17 54.42 -47.03 172 235.58c15.65,20.27 9.56,49.74 -12.86,62.13l0 0c-11.41,6.32 -25.12,6.95 -37.05,1.69l-222.67 -88.44 -21.55 -112.1z"/>
   <path class="fil6" d="M1004.37 379.9c0,0 -26.56,208.26 -24.67,350.6 0,0 -79.71,35.09 -248.63,-16.16l41.76 -387.24 81.36 -27.4 96.37 7.86 53.81 72.34z"/>
   <path class="fil13" d="M923.27 287.28l-2.06 13.54c-0.15,0.99 0.16,1.99 0.85,2.72l20.79 22.06c1.87,1.99 5.22,0.9 5.58,-1.81l2.13 -16.23c0.12,-1.05 -0.24,-2.09 -1.02,-2.81l-20.85 -19.36c-1.92,-1.77 -5.03,-0.68 -5.42,1.89z"/>
   <path class="fil5" d="M895.48 322.3l0 0c-24.75,-2.02 -43.17,-23.74 -41.14,-48.5l5.95 -72.46 89.64 7.36 -18.48 100.08c-2.99,12.85 -11.21,15.55 -35.97,13.52z"/>
   <path class="fil14" d="M857.26 226.75c0,0 19.31,54.9 58.47,48.08 35.95,-6.24 34.2,-66.13 34.2,-66.13l-92.67 18.05z"/>
   <path class="fil5" d="M909.47 254.94l-7.94 -0.85c-39.74,-4.3 -68.49,-40.01 -64.18,-79.75l4.89 -45.27c4.3,-39.75 40,-68.49 79.75,-64.19l7.93 0.86c39.74,4.3 68.48,40 64.19,79.75l-4.89 45.27c-4.31,39.75 -40.01,68.48 -79.75,64.18z"/>
   <path class="fil5" d="M909.47 254.94l-7.94 -0.85c-39.74,-4.3 -68.49,-40.01 -64.18,-79.75l4.89 -45.27c4.3,-39.75 40,-68.49 79.75,-64.19l7.93 0.86c39.74,4.3 68.48,40 64.19,79.75l-4.89 45.27c-4.31,39.75 -40.01,68.48 -79.75,64.18z"/>
   <path class="fil12" d="M838.91 159.91c5.43,-0.53 28.12,16.7 34.06,9.19 8.17,-10.33 15.52,-29.27 5.02,-48.89 -1.75,-3.29 -2.22,-7.12 -1.09,-10.68 2.04,-6.45 7.65,-13.99 23.03,-8.57 21.66,7.63 67.18,30.16 88.75,8.23 -9.98,-23.22 -31.84,-40.54 -58.76,-43.45l-7.93 -0.86c-39.75,-4.3 -75.45,24.44 -79.75,64.19l-3.33 30.84zm-1.96 20.43l1.93 -20.2 -1.53 14.2c-0.22,2.01 -0.35,4.02 -0.4,6z"/>
   <path class="fil5" d="M861.11 167.54c-1.53,14.2 -14.28,24.45 -28.46,22.91 -14.2,-1.53 -24.45,-14.27 -22.91,-28.45 1.53,-14.19 14.27,-24.46 28.46,-22.92 14.18,1.53 24.44,14.28 22.91,28.46z"/>
   <polygon class="fil11" points="903.63,337.72 883.23,651.25 921.16,686.81 943.62,652.38 921.16,331.52 "/>
   <polygon class="fil11" points="933.92,316.12 930.78,311.76 931.59,308.08 886.75,308.08 883.22,319.73 913.13,346.11 933.92,316.12 "/>
   <path class="fil13" d="M857.16 269.59l42.42 28.88c4.82,3.27 5.43,10.14 1.28,14.22l-33.36 32.82c-3.78,3.7 -9.87,3.5 -13.39,-0.44l-33.57 -37.71c-3.29,-3.68 -3.1,-9.3 0.44,-12.75l24.52 -23.98c3.15,-3.08 8.02,-3.5 11.66,-1.04z"/>
   <line class="fil15 str0" x1="1036.95" y1="284.52" x2="1100.41" y2= "246.2" />
   <path class="fil16" d="M921.29 585.21l22.25 237.9c0.83,8.96 -5.27,17.11 -14.13,18.79l-272.84 52.17c-10.01,1.91 -19.54,-5.12 -20.65,-15.25l-24.96 -226.13c-0.97,-8.81 4.8,-16.95 13.43,-18.95l275.54 -63.92c10.32,-2.4 20.37,4.85 21.36,15.39z"/>
   <path class="fil17" d="M901.94 589.43l22.25 237.9c0.83,8.96 -5.28,17.1 -14.12,18.79l-272.84 52.16c-10.02,1.92 -19.54,-5.11 -20.66,-15.25l-24.96 -226.13c-0.97,-8.8 4.8,-16.94 13.43,-18.94l275.55 -63.93c10.31,-2.39 20.37,4.86 21.35,15.4z"/>
   <path class="fil5" d="M798.95 808.33c21.95,-20.12 56.03,-18.62 76.15,3.33 20.1,21.95 18.62,56.04 -3.33,76.15 -21.95,20.11 -56.04,18.62 -76.16,-3.33 -20.1,-21.95 -18.61,-56.04 3.34,-76.15z"/>
   <polygon class="fil5" points="758.56,776.96 800.15,837.38 840.7,803.27 801.77,745.78 "/>
   <path class="fil6" d="M772.83 327.1c0,0 -60.99,6.16 -78.73,105.91l-70.19 145.81c-1.89,6.35 -3.19,12.89 -3.86,19.5l147.67 212.05 66.62 -39.45 -119.42 -191.4 72.46 -114.74 -14.55 -137.68z"/>
   <line class="fil15 str0" x1="812.63" y1="742.22" x2="745.38" y2= "778.28" />
   <line class="fil15 str0" x1="751.93" y1="520.91" x2="794.9" y2= "446.14" />
   <path class="fil12" d="M979.63 115.4c30.48,-13.79 24.09,-49.37 17.16,-60.63 0,0 -1.34,20.05 -15.03,15.43 0,0 1.81,-29.84 -38.14,-37.58 0,0 14.73,26.79 -37.82,21.67 -64.5,-6.27 -68.25,34.58 -64.69,85.28l19.8 -14.2 15.34 -35.36 52.21 0 51.17 25.39z"/>
  </g>
 </g>
</svg>
