<?xml version="1.0" encoding="UTF-8"?>
<!DOCTYPE svg PUBLIC "-//W3C//DTD SVG 1.1//EN" "http://www.w3.org/Graphics/SVG/1.1/DTD/svg11.dtd">
<!-- Creator: CorelDRAW 2017 -->
<svg xmlns="http://www.w3.org/2000/svg" xml:space="preserve" width="102.51mm" height="16.02mm" version="1.1" style="shape-rendering:geometricPrecision; text-rendering:geometricPrecision; image-rendering:optimizeQuality; fill-rule:evenodd; clip-rule:evenodd"
viewBox="0 0 10251 1602"
 xmlns:xlink="http://www.w3.org/1999/xlink">
 <defs>
  <style type="text/css">
   <![CDATA[
    .fil1 {fill:black;fill-rule:nonzero}
    .fil0 {fill:#282828;fill-rule:nonzero}
    .fil6 {fill:#300901;fill-rule:nonzero}
    .fil4 {fill:#5E2014;fill-rule:nonzero}
    .fil2 {fill:#870E0E;fill-rule:nonzero}
    .fil7 {fill:#C40808;fill-rule:nonzero}
    .fil10 {fill:#D1AB1B;fill-rule:nonzero}
    .fil9 {fill:#D8D2CA;fill-rule:nonzero}
    .fil5 {fill:#F4CDBA;fill-rule:nonzero}
    .fil3 {fill:#FFEADC;fill-rule:nonzero}
    .fil8 {fill:white;fill-rule:nonzero}
   ]]>
  </style>
 </defs>
 <g id="Camada_x0020_1">
  <metadata id="CorelCorpID_0Corel-Layer"/>
  <g id="_2301266364656">
   <path class="fil0" d="M9486.07 1416.58c0,17.36 -41.76,49.79 -77.54,69.64 -22.64,12.65 -19.33,26.95 -19.33,38.58 0,11.54 21.24,27.05 52.12,21.18 30.87,-5.76 101.21,-28.86 116.61,-36.59 15.42,-7.73 -3.84,-81.07 -3.84,-81.07l-68.02 -11.74z"/>
   <path class="fil1" d="M9389.54 1525.15c0,-11.59 -3.44,-26.03 19.33,-38.61 34.66,-19.27 74.83,-50.19 77.3,-67.87l7.67 -0.52 44.28 6.71c13.91,25.86 -68.9,60.91 -83.55,72.61 -8.43,6.75 -13.93,27.06 -8.61,47.95l-4.28 0.88c-30.9,5.8 -52.14,-9.59 -52.14,-21.15z"/>
   <path class="fil1" d="M9270.28 1348.46c-2,15.84 -19.84,49.72 -57.32,68.6 -21.35,10.75 -22.17,32.82 -22.17,32.82 -1.43,10.62 16.03,27.14 44.87,25.51 28.79,-1.57 76.76,-25.24 91.74,-30.35 14.96,-5.24 6.12,-74.25 6.12,-74.25l-63.24 -22.33z"/>
   <path class="fil1" d="M9251.36 825.3c0,39.76 0,494.05 -4.66,551.04 -0.19,2.04 2.04,4.93 5.35,4.61 41.19,2.56 84.15,2.56 84.15,2.56 0,0 74.62,-357.57 74.62,-403.85 0,-46.3 -28.28,-208.36 -28.28,-208.36l-131.18 54z"/>
   <path class="fil0" d="M9547.14 730.09c0,30.55 35.32,513.03 18.72,707.98 -0.22,2.2 0.75,7.85 -9.91,7.85l-91.1 -0.62c0,0 -100.95,-462.54 -119.67,-564.08 -18.62,-101.63 6.54,-161.4 6.54,-161.4l195.42 10.27z"/>
   <path class="fil1" d="M9342.61 881.22c-8.86,-48.03 -7.9,-86.6 -4.46,-113.96 29.49,7.44 65.67,30.07 72.06,49.02 10,29.96 71.68,542.7 83.25,629.23l-31.27 -0.21c0,0 -101.02,-462.54 -119.58,-564.08z"/>
   <path class="fil2" d="M9554.67 812.3c0,-153.81 42.29,-354.3 41.68,-408.86 -0.57,-60.5 -139.28,-85.96 -166.3,-94.9 -27.01,-9.04 -48.84,146.33 -62.97,219.63 -14.18,73.36 1.49,269.42 28.55,278.47 26.94,9.02 159.04,5.66 159.04,5.66z"/>
   <path class="fil3" d="M9374.19 230.33c-10.4,58.13 12.25,110.83 50.71,117.64 38.42,6.91 85.47,-28.22 95.87,-86.24 10.49,-58.14 36.18,-111.6 -47.11,-128.82 -81.5,-16.96 -89.06,39.33 -99.47,97.42z"/>
   <path class="fil4" d="M9509.34 126.96c19.26,8.87 45.79,40.74 37.34,82.82 -8.43,42 -12.81,43.28 -12.81,43.28l-11.28 -13.61c0,0 7.25,-37.38 -8.39,-58.99 -15.71,-21.71 -39.76,-20.4 -39.76,-20.4l34.9 -33.1z"/>
   <path class="fil3" d="M9524.74 241.24c7.05,2.36 19.27,17.73 3.15,39.25 -18.87,25.25 -24.76,9.88 -24.76,9.88l21.61 -49.13z"/>
   <path class="fil5" d="M9388.72 208.09c-7.21,-1.87 -25.75,4.68 -23.57,31.5 2.46,31.32 15.62,21.51 15.62,21.51l7.95 -53.01z"/>
   <path class="fil5" d="M9374.8 230.52c10.23,-57.08 17.78,-112.37 95.3,-98.25 3.23,6.03 4.93,10.18 4.93,10.18l-54.68 204.52c-35.24,-10.54 -55.55,-61 -45.55,-116.45z"/>
   <path class="fil6" d="M9464.71 117.15c-42.3,-10.16 -87.19,13.46 -93.44,55.9 -6.12,42.41 -2.43,45.09 -2.43,45.09l15.15 -9.03c0,0 5.75,-37.58 27.81,-52.74 22.03,-15.1 55.72,2.04 55.72,2.04l-2.81 -41.26z"/>
   <path class="fil7" d="M9548.16 198.83c-9.59,-9.39 -57.56,-60.49 -170.29,-51.01 16.74,-49.53 23.89,-69.48 42.36,-77.05 32.82,-13.33 97.55,0 127.93,30.65 14.94,15.08 0,97.41 0,97.41z"/>
   <path class="fil2" d="M9377.7 147.98c16.73,-49.51 23.81,-69.46 42.33,-76.99 18.25,-7.46 46.43,-6.63 73.11,0.93l-24.4 82.74c-24.05,-6.39 -54.02,-9.76 -91.04,-6.68z"/>
   <path class="fil7" d="M9548.16 198.83c-10.41,-7.14 -98.39,-49.47 -173.52,-44.82 -1.83,-0.56 3.23,-6.19 3.23,-6.19 0,0 12.67,-20.29 93.94,-0.25 82.49,20.32 76.35,51.26 76.35,51.26z"/>
   <polygon class="fil8" points="9224.87,567.95 9430.21,606.38 9452.45,331.71 9250.78,238.45 "/>
   <polygon class="fil9" points="9250.78,238.45 9030.09,265.43 9005.5,559.81 9229.67,569.16 "/>
   <polygon class="fil8" points="9273.75,563.54 9245.29,901.62 9463.96,875.91 9490.56,601.53 "/>
   <polygon class="fil9" points="9247.8,901.38 8997.9,862.09 9022.36,557.75 9273.75,563.54 "/>
   <path class="fil5" d="M9395.8 779.66c-9.16,9.05 -23.81,19.84 -32.08,26.52 -8.35,6.71 -22.17,24.37 -30.47,31.56 -3.83,3.29 -8.03,14.04 6.09,9.09 14.11,-4.98 22.15,-11.33 22.15,-11.33 0,0 -0.58,9.36 -5.57,24.32 -4.88,14.92 -37.56,26.53 -32.35,34.25 2.85,4.13 21.9,4.47 45.07,1.12 23.23,-3.29 33.77,-23.49 42.05,-57.45 8.3,-34.03 14.89,-44.8 14.89,-44.8l-29.78 -13.28z"/>
   <path class="fil7" d="M9539.47 367.42c25.03,-5.42 61.67,-15.46 64.29,72.02 2.59,87.41 -30.83,203.19 -48.87,236.71 -18.03,33.4 -120.92,156.9 -136.34,156.9 -1.08,2.38 -43.75,-41.17 -43.75,-41.17 0,0 77.21,-169.77 92.65,-200.69 15.4,-30.83 32.63,-174.01 41.1,-192.92 11.59,-25.64 30.92,-30.85 30.92,-30.85z"/>
   <path class="fil0" d="M9315.52 1383.76l54.21 -376.29 20.85 105.41c-22.01,118.29 -53.86,271.12 -53.86,271.12 0,0 -5.3,0.1 -21.2,-0.24z"/>
   <polygon class="fil8" points="9028.73,472.44 9061.35,441.61 9089.14,474.19 9070.2,473.65 9065.55,534.95 9039.43,533.74 9046.41,472.95 "/>
   <polygon class="fil8" points="9082.94,498.15 9103.25,478.89 9120.55,499.28 9108.77,498.86 9105.83,536.98 9089.6,536.28 9093.97,498.43 "/>
   <polygon class="fil8" points="9023.17,779.66 9054.21,748.24 9081.98,782.97 9062.74,781.82 9057.7,847.42 9032.25,843.75 9039.59,780.5 "/>
  </g>
  <g id="_2301266350480">
   <path class="fil10" d="M899.72 1507.43c-94.02,-28.36 -177.62,-80.64 -243.75,-149.82 66.17,69.14 149.81,121.43 243.86,149.73l-0.11 0.09z"/>
   <polygon class="fil8" points="1630.65,1242.27 1416.99,1224.22 1416.99,1105.66 1630.65,1120.83 "/>
   <polygon class="fil9" points="1723.48,1212.74 1628.76,1242.27 1628.76,1120.78 1723.48,1093.19 "/>
   <polygon class="fil8" points="1630.65,1370.45 1416.99,1352.54 1416.99,1233.81 1630.65,1249.01 "/>
   <polygon class="fil9" points="1723.48,1330.86 1628.76,1370.45 1628.76,1249.01 1723.48,1221.43 "/>
   <polygon class="fil8" points="1627.29,1497.29 1413.72,1479.25 1413.72,1360.59 1627.29,1375.78 "/>
   <polygon class="fil9" points="1720.13,1457.64 1625.44,1497.29 1625.44,1375.7 1720.13,1348.2 "/>
   <polygon class="fil8" points="1630.03,1113.2 1416.33,1099.67 1416.33,981.11 1630.03,989.56 "/>
   <polygon class="fil9" points="1722.89,1086.21 1628.15,1113.2 1628.15,990.31 1722.89,976.85 "/>
   <polygon class="fil3" points="1431.31,974.88 1506.73,965.6 1703.27,971.5 1623.78,983.92 "/>
   <path class="fil5" d="M1420.97 936.97c16.65,10.41 47.91,20.9 54.21,20.9 6.24,0 30.23,2.02 38.67,2.02 8.27,0 -5.26,-12.51 -21.97,-16.64 0,0 20.91,-1.08 43.84,7.3 22.99,8.32 43.01,16.06 43.01,3.58 0,-12.6 -42.02,-38.06 -57.64,-42.19 -36.25,-9.81 -104.01,-14.5 -104.01,-14.5l3.89 39.53z"/>
   <path class="fil3" d="M1290.42 1047.22c19.89,9.88 27.32,4.89 49.69,17.34 22.37,12.46 52.23,4.96 72.05,0 19.88,-4.95 -14.92,32.32 -44.71,24.82 0,0 42.23,27.4 54.63,29.86 12.41,2.49 24.86,22.3 2.54,39.78 -22.35,17.32 -62.14,4.94 -89.47,-7.42 -27.32,-12.5 -81.95,-69.66 -81.95,-69.66l37.22 -34.72z"/>
   <path class="fil0" d="M951.65 1347.52c-6.46,35.33 -9.61,80.29 16.07,80.29 25.66,0 35.25,-16.16 70.55,-9.66 35.32,6.4 138.05,25.66 138.05,0 0,-25.68 19.17,-41.8 -25.75,-38.49 -44.91,3.19 -89.22,-75.4 -105.89,-70.64 -22.5,6.37 -93.03,38.5 -93.03,38.5z"/>
   <path class="fil1" d="M946.37 966.44c42.8,4.31 252.34,-10.44 273.75,32.44 21.4,42.69 -17.09,119.67 -42.75,188.2 -25.64,68.47 -25.64,162.59 -55.63,175.44 -30.04,12.88 -179.7,4.31 -192.58,-4.28 -12.78,-8.57 122.19,-187.95 126.5,-217.9 4.26,-29.92 -96.76,3.87 -126.72,12.43l17.43 -186.33z"/>
   <path class="fil9" d="M1085.47 672.63c28.07,26.9 163.58,136.78 213.95,157.84 50.39,21.11 145.85,53.39 145.85,53.39l-24.57 69.43c0,0 -157.39,-32.21 -184.21,-43.72 -26.66,-11.41 -272.35,-120.85 -272.35,-120.85l121.33 -116.09z"/>
   <path class="fil5" d="M1070.55 717.99c35.77,-17.86 81.93,-51.24 81.93,-51.24l-36.98 -73.33c0,0 -114.07,42.86 -126.85,50.53 -12.76,7.59 81.9,74.04 81.9,74.04z"/>
   <path class="fil3" d="M1276.5 494.11c-17.52,-64.14 -163.47,-119.36 -195.48,-23.31 -58.32,175.03 49.56,218.74 49.56,218.74 37.95,5.85 46.66,11.76 75.9,5.85 14.19,-2.88 29.18,-20.32 41.87,-44.71 12.35,-0.41 25.77,-2.54 25.84,-11.2 -4.1,-12.56 -6.59,-22.83 -8.09,-31.64 12.72,-39.43 18.61,-83.63 10.4,-113.73z"/>
   <path class="fil8" d="M1041.85 623.13c-38.24,7.61 -214.73,52.62 -319.07,378.11 0,0 171.86,132.93 202.39,132.93 11.5,-42.09 147.74,-283.93 151.66,-398.77 1.7,-53.5 -34.98,-112.27 -34.98,-112.27z"/>
   <path class="fil5" d="M1240.84 457.74c-48.3,-19 -143.09,-43.3 -161.86,13.06 -58.39,175.03 49.54,218.74 49.54,218.74 4.33,0.7 41.17,7.07 44.79,7.71 -36,-76.15 19.63,-211.58 67.53,-239.51z"/>
   <path class="fil4" d="M1102.93 421.32c16.52,-14.88 52.77,-29.25 99.17,-16.31 45.07,12.7 58.1,26.18 79.3,64.97 10.77,19.82 0.97,53.16 0.97,53.16 0,0 -16.41,-8.11 -28.03,-8.11 -11.59,0 -24.52,-10.18 -44.28,6.03 -16.71,13.69 -25.41,32.46 -25.41,32.46 0,0 -50.6,4.29 -55.63,19.2 -4.92,14.92 -67.21,43.02 -67.21,43.02 0,0 -20.28,-58.23 -19.23,-94.62 2.65,-84.87 56.45,-96.38 60.35,-99.8z"/>
   <path class="fil5" d="M1157.74 558.12c-5.46,-8.95 -8.44,-21.46 -20.11,-15.23 -11.66,6.17 -34.57,46.63 -20.61,65.08 14.01,18.36 40.72,-49.85 40.72,-49.85z"/>
   <path class="fil6" d="M1211.04 521.15c19.85,-16.24 32.75,-6.03 44.32,-6.03 11.55,0 27.94,8.14 27.94,8.14 0,0 9.88,-33.35 -0.88,-53.21 -21.17,-38.81 -34.23,-52.32 -79.34,-64.94 -18.21,-5.04 -34.82,-5.88 -49.27,-4.2 19.43,13.63 54.5,48.85 22.54,153.29 13.99,-3.33 9.32,-0.63 9.32,-0.63 0,0 8.68,-18.78 25.37,-32.42z"/>
   <path class="fil9" d="M1090.21 743.96c1.15,-33.14 -10.34,-13.57 -26.66,-73.17 -134.14,13.51 -227.76,168.96 -257.64,420.51 63.34,20.89 138.12,-13.09 156.58,-13.09 11.46,-42.04 123.91,-219.47 127.72,-334.25z"/>
   <path class="fil2" d="M1301.03 517.81c7.92,-27.97 11.41,-67.58 -13.94,-101.83 -25.89,-34.9 -134.81,-86.84 -187.21,-48.12 -52.36,38.78 -59.12,104.16 -59.12,104.16 6.42,9.48 49.02,25.07 96.96,40.06 45.55,16.77 180.65,71.02 194.55,43.66 7.32,-14.31 -11.06,-27.59 -31.24,-37.93z"/>
   <path class="fil7" d="M1099.61 367.58c-36.7,27.11 -50.93,67.13 -56.26,88.8 40.53,20 95.71,23.92 151.29,6.37 35.26,-11.19 65.54,-29.36 88.44,-51.34 -30.9,-34.69 -133.16,-81.12 -183.47,-43.83z"/>
   <path class="fil0" d="M576.15 1328.27c-28.85,-25.66 -44.93,-44.89 -76.98,-41.66 -32.13,3.15 -32.13,32 -32.13,57.73 0,25.67 -19.65,86.06 -12.8,115.51 9.61,41.68 16.03,60.99 89.86,51.39 48.12,-6.39 3.2,-54.61 -3.24,-80.27 -6.46,-25.65 35.29,-102.7 35.29,-102.7z"/>
   <path class="fil0" d="M745.22 938.87c-4.15,-19.38 -65.99,109.5 -17.15,213.99 32.05,68.7 72.71,166.91 68.45,183.98 -4.3,17.07 -7.64,10.74 -29.08,2.31 -21.38,-8.59 -210.51,-57.92 -219.05,-27.97 -8.58,29.9 -34.26,145.45 0,154.1 34.23,8.5 301.79,23.29 338.34,22.9 60.66,-0.63 89.49,-10.08 85.26,-129.94 -4.27,-119.85 4.23,-265.3 4.23,-265.3l38.47 -113.42c0,0 -227.37,158.33 -269.47,-40.65z"/>
   <path class="fil1" d="M547.41 1466.15c34.27,8.58 301.84,23.32 338.37,23.02 60.61,-0.72 93.05,-7.85 88.83,-127.74 -4.28,-119.8 4.65,-267.4 4.65,-267.4l34.44 -113.63c0,0 -83.68,58.18 -158.98,59.65 7.66,68.84 33.93,163.42 39.76,221.7 7.5,74.53 44.7,178.96 -14.9,186.37 -47.69,5.97 -264.23,-14.3 -349.33,-22.62 0.59,21.17 5.15,37.67 17.16,40.65z"/>
   <path class="fil0" d="M733.93 957.72c7.46,-34.72 115.44,-261.18 207.41,-291.87 111.85,-37.29 137.91,21.15 145.35,90.72 7.55,69.51 -77.01,228.48 -77.01,228.48l-12.37 6.22c0,0 90.67,-250.91 58.35,-288.22 -32.33,-37.2 -85.7,-62.03 -181.34,24.91 -36.51,33.23 -140.39,229.76 -140.39,229.76z"/>
   <path class="fil8" d="M955.49 702.57c-15.04,23.22 -36.28,31.49 -36.28,31.49 15.28,48.44 101.9,198.85 140.14,247.28 38.32,48.48 204.84,121.83 204.84,121.83l56.2 -57.61c0,0 -155.67,-126.07 -183.74,-171.99 -28.1,-45.94 -65.12,-147.53 -84.23,-173.54 -35.5,-48.26 -78.05,-26.5 -96.93,2.54z"/>
  </g>
 </g>
</svg>
