<?xml version="1.0" encoding="UTF-8"?>
<!DOCTYPE svg PUBLIC "-//W3C//DTD SVG 1.1//EN" "http://www.w3.org/Graphics/SVG/1.1/DTD/svg11.dtd">
<!-- Creator: CorelDRAW 2017 -->
<svg xmlns="http://www.w3.org/2000/svg" xml:space="preserve" width="102.51mm" height="16.02mm" version="1.1" style="shape-rendering:geometricPrecision; text-rendering:geometricPrecision; image-rendering:optimizeQuality; fill-rule:evenodd; clip-rule:evenodd"
viewBox="0 0 10251 1602"
 xmlns:xlink="http://www.w3.org/1999/xlink">
 <defs>
  <style type="text/css">
   <![CDATA[
    .fil29 {fill:#D2D3D5;fill-rule:nonzero}
    .fil13 {fill:#BDBFC1;fill-rule:nonzero}
    .fil9 {fill:#A9ABAE;fill-rule:nonzero}
    .fil11 {fill:#9EA0A2;fill-rule:nonzero}
    .fil12 {fill:#96989A;fill-rule:nonzero}
    .fil30 {fill:#949699;fill-rule:nonzero}
    .fil10 {fill:#727376;fill-rule:nonzero}
    .fil17 {fill:#4B4B4D;fill-rule:nonzero}
    .fil20 {fill:#373435;fill-rule:nonzero}
    .fil22 {fill:#FFDD2F;fill-rule:nonzero}
    .fil27 {fill:#FFDD93;fill-rule:nonzero}
    .fil25 {fill:#FFCB4F;fill-rule:nonzero}
    .fil26 {fill:#FEC32B;fill-rule:nonzero}
    .fil24 {fill:#E6B22C;fill-rule:nonzero}
    .fil23 {fill:#C69A2B;fill-rule:nonzero}
    .fil16 {fill:#FBC1A7;fill-rule:nonzero}
    .fil18 {fill:#CDA08D;fill-rule:nonzero}
    .fil28 {fill:#FBB22F;fill-rule:nonzero}
    .fil15 {fill:#FBB24A;fill-rule:nonzero}
    .fil21 {fill:#F37A47;fill-rule:nonzero}
    .fil32 {fill:#EF4B43;fill-rule:nonzero}
    .fil14 {fill:#B63839;fill-rule:nonzero}
    .fil19 {fill:#48372F;fill-rule:nonzero}
    .fil31 {fill:#3E302A;fill-rule:nonzero}
    .fil3 {fill:#3C4145;fill-rule:nonzero}
    .fil2 {fill:#5C544D;fill-rule:nonzero}
    .fil4 {fill:#6E5116;fill-rule:nonzero}
    .fil0 {fill:#877373;fill-rule:nonzero}
    .fil8 {fill:#AB4D1A;fill-rule:nonzero}
    .fil7 {fill:#D88A51;fill-rule:nonzero}
    .fil1 {fill:#E3DDDD;fill-rule:nonzero}
    .fil5 {fill:#EEA886;fill-rule:nonzero}
    .fil6 {fill:#FCC351;fill-rule:nonzero}
   ]]>
  </style>
 </defs>
 <g id="Camada_x0020_1">
  <metadata id="CorelCorpID_0Corel-Layer"/>
  <g id="_2301290837920">
   <polygon class="fil0" points="776.07,128.47 779.63,128.51 779.81,112.77 700.11,99.71 700.53,62.93 714.29,63.09 714.33,59.53 697.02,59.34 696.52,102.71 776.22,115.78 "/>
   <polygon class="fil1" points="712.55,81.63 841.95,83.15 842.44,42.38 713.03,40.86 "/>
   <polygon class="fil0" points="768.95,244.99 786.69,244.99 786.69,125.59 768.95,125.59 "/>
   <path class="fil2" d="M524.84 896.18c0,0 -4.58,17.97 -5.2,20.68 -0.62,2.7 -28.81,-4.75 -28.81,-4.75l0.02 -21.98c0,0 30.69,3.08 33.99,6.05z"/>
   <path class="fil3" d="M520.2 914.57c0,0 7.88,11.98 16.15,17.73 8.27,5.74 40.16,13.17 44.81,18.7 3.37,3.99 8.05,19.09 -43.13,12.2 -36.37,-4.9 -54.3,-3.67 -57.57,-10.01 -3.27,-6.33 10.37,-43.04 10.37,-43.04 0,0 7.78,4.23 29.37,4.42z"/>
   <polygon class="fil4" points="513.83,1591.74 632.96,367.07 620.08,365.82 500.95,1590.49 "/>
   <polygon class="fil4" points="305.57,1571.53 424.71,346.86 411.83,345.61 292.7,1570.28 "/>
   <polygon class="fil4" points="623.54,396.85 624.79,383.98 416.54,363.77 415.29,376.64 "/>
   <polygon class="fil4" points="614.15,493.68 615.39,480.82 407.15,460.6 405.89,473.47 "/>
   <polygon class="fil4" points="604.75,590.53 606,577.65 397.74,557.44 396.49,570.32 "/>
   <polygon class="fil4" points="595.35,687.36 596.6,674.49 388.35,654.27 387.1,667.15 "/>
   <polygon class="fil4" points="585.95,784.2 587.2,771.32 378.95,751.11 377.7,763.99 "/>
   <polygon class="fil4" points="576.55,881.03 577.8,868.16 369.55,847.96 368.3,860.82 "/>
   <polygon class="fil4" points="567.16,977.87 568.41,965 360.16,944.79 358.9,957.66 "/>
   <polygon class="fil4" points="557.76,1074.71 559.01,1061.84 350.76,1041.63 349.51,1054.5 "/>
   <polygon class="fil4" points="548.36,1171.55 549.61,1158.67 341.36,1138.46 340.11,1151.34 "/>
   <polygon class="fil4" points="538.96,1268.38 540.21,1255.51 331.96,1235.3 330.71,1248.17 "/>
   <polygon class="fil4" points="529.57,1365.22 530.82,1352.35 322.56,1332.14 321.31,1345.01 "/>
   <polygon class="fil4" points="520.17,1462.06 521.42,1449.18 313.16,1428.98 311.92,1441.85 "/>
   <polygon class="fil4" points="510.77,1558.9 512.02,1546.01 303.77,1525.81 302.52,1538.69 "/>
   <path class="fil5" d="M800.4 196c0,0 -2.66,3.3 -4.53,4.18 0,0 -3.52,1.32 -5.97,2.42 -0.77,0.35 -1.44,0.67 -1.85,0.93 -1.7,1.05 -5.15,3.88 -9.96,5.27 -4.82,1.39 -26.59,6.34 -26.59,6.34l-5.06 -12.92 -3.63 -10.43c0,0 20.15,-26.11 24.49,-27.93l1.26 -0.44c3.82,-1.18 7.16,-0.45 9.23,-0.84 0.77,-0.14 8.45,-1 10.11,0.6 2.31,2.22 3.01,4.7 2.61,6.86 0,0 4.33,4.55 4.64,8.77 0,0 4.13,4.07 3.02,9.43 0,0 3.73,4.59 2.23,7.76z"/>
   <path class="fil6" d="M567.01 365.41c5.03,-3.24 11.54,-7.63 34.07,-18.89 41.93,-20.98 93.7,-59.02 103.54,-64.5 15.14,-8.46 62.96,-66.88 62.96,-66.88 -2.46,-8.79 -25.14,-26.46 -25.14,-26.46 0,0 -72.49,68.67 -88.33,77.11 -13.63,7.28 -80.92,14.62 -99.46,16.52 -3,0.31 -4.73,0.48 -4.73,0.48 -19.36,26.4 6.28,89.58 17.09,82.62z"/>
   <path class="fil3" d="M559.62 517.63c0,0 20.51,76.18 25.92,103.41 4.71,23.72 14.19,86.91 15.54,101.93 1.34,15.03 -60.56,160.44 -67,186.71l-56.4 -9.06c0,0 59.5,-151.35 43.98,-184.98 -23.08,-50.02 -26.09,-48.51 -44.28,-89.71 -18.18,-41.21 -59.81,-42.18 -70.99,-118.64 0,0 138.09,-13.91 153.23,10.34z"/>
   <path class="fil5" d="M459.32 147.53c0,0 37.45,-13.99 54.72,14.52 17.27,28.51 15.61,85.58 -3.27,92.59 -18.88,7.02 -47.23,3.35 -56.9,-14.49 -9.66,-17.83 -18.38,-43.62 -17.96,-60.85 0.41,-17.24 13.58,-26.8 23.41,-31.77z"/>
   <path class="fil5" d="M504.49 252.89c0,0 -1.52,9.82 0.98,14.65 2.5,4.84 -47.1,4.96 -47.1,4.96 0,0 -4.03,-26.29 -11.66,-48.52 -7.64,-22.22 57.78,28.91 57.78,28.91z"/>
   <path class="fil7" d="M446.71 223.98c0,0 3.42,5.64 17.4,3.46 13.97,-2.2 31.02,-20.79 36.86,-22.83 5.83,-2.04 5.88,-5.47 5.88,-5.47l3.66 5.34 6.19 0.39c0,0 -5.65,-16.63 2.88,-23.41 8.52,-6.79 -8.85,-53.84 -53.67,-38.17 0,0 -34.42,9.49 -33.17,29.06 1.25,19.58 6.27,41.88 13.97,51.63z"/>
   <path class="fil5" d="M505.93 192.02c-0.79,-3.28 -9.14,-12.66 -12.33,-2.61 -3.2,10.04 4.83,23.55 9.31,22.4 4.47,-1.16 5,-11.46 3.02,-19.79z"/>
   <path class="fil6" d="M363.1 396.07c0.37,4.4 7.2,15.27 20.6,15.74l38.92 1.32c0,0 28.93,-93.5 -25.33,-129.16 -1.69,0.16 -37.96,67.03 -34.19,112.1z"/>
   <path class="fil8" d="M402.49 406.7l1.28 -0.2c-4.58,-31.29 -1.79,-57.62 -1.76,-57.88l-1.29 -0.14c-0.03,0.26 -2.83,26.75 1.77,58.22z"/>
   <path class="fil3" d="M480.46 953.19c3.27,6.34 21.21,5.11 57.57,10.01 9.93,1.33 17.76,1.84 23.91,1.76l2.12 -21.88c-10.64,-3.69 -23,-7.51 -27.7,-10.79 -8.28,-5.74 -16.16,-17.72 -16.16,-17.72 -21.59,-0.19 -29.37,-4.42 -29.37,-4.42 0,0 -13.64,36.71 -10.37,43.04z"/>
   <path class="fil4" d="M504.51 264.69c0,0 -30.53,-7.11 -47.74,-1.3l-2.6 2.41c0,0 -5.23,10.03 14.46,10.9 19.69,0.86 50.64,2.29 35.88,-12.01z"/>
   <path class="fil2" d="M385.18 980.25c0,0 -4.58,17.99 -5.2,20.69 -0.63,2.71 -28.81,-4.74 -28.81,-4.74l0.03 -22c0,0 30.67,3.09 33.98,6.05z"/>
   <path class="fil3" d="M406.39 507.29c0,0 -10.28,42.4 -13.32,84.85 -2.82,39.23 -7.94,82.25 -12,123.28 -4.54,45.73 -17.49,119.67 -18.16,144.14 -0.67,24.47 -21.27,131.39 -21.27,131.39l52.68 6.06c0,0 34.23,-188.96 42.3,-208.28 8.08,-19.3 48.17,-157.01 49.52,-172.46 1.35,-15.46 -79.75,-108.98 -79.75,-108.98z"/>
   <path class="fil3" d="M380.54 998.65c0,0 7.89,11.99 16.16,17.73 8.26,5.75 40.15,13.17 44.81,18.7 3.36,3.99 8.04,19.09 -43.14,12.19 -36.36,-4.9 -54.3,-3.65 -57.57,-9.99 -3.27,-6.34 10.37,-43.05 10.37,-43.05 0,0 7.77,4.23 29.37,4.42z"/>
   <path class="fil6" d="M570.27 612.78c4.49,-0.64 -11.14,-134.38 -9.94,-142.77 0.8,-5.59 0.67,-49.06 0.34,-76.15l4.89 -27.42c2.72,-1.98 6.37,-4.28 10.74,-6.79 6.79,-3.92 15.31,-8.4 24.78,-13.13 -1.11,-6.48 -1.87,-11.58 -2.17,-14.56 -2.8,-28.58 -21.82,-40.41 -44.26,-49.65 -22.08,-9.09 -50.14,-17.62 -50.14,-17.62l-45.07 0c0,0 -34.32,6.85 -54.77,15.22 -2.62,1.08 -5.08,2.45 -7.38,4.06l6.12 128.5 0.01 0.09 0.02 0.16c2.76,18.08 5.67,39.41 6.63,54.37 0.4,6.1 -6.58,38.88 -10.22,68.97l-12.75 72.01c0,0 7.37,29.84 183.17,4.71z"/>
  </g>
  <g id="_2301240300192">
   <path class="fil9" d="M9502.32 545.84l-68.11 0c-20.64,0 -37.43,20.14 -37.43,40.29l0 50.75 21.04 0 0 -43.12c0,-15.01 8.82,-24.43 24.22,-24.43l60.28 0 0 -23.49z"/>
   <path class="fil10" d="M9458.99 543.74l-3.97 0c-3.92,0 -7.07,2.48 -7.07,5.55l0 18.95c0,3.07 3.15,5.55 7.07,5.55l3.97 0 0 -30.05z"/>
   <path class="fil11" d="M9446.28 568.72c0,1.11 -0.92,2.02 -2.07,2.02 -1.14,0 -2.07,-0.91 -2.07,-2.02l0 -22.42c0,-1.12 0.93,-2.02 2.07,-2.02 1.15,0 2.07,0.9 2.07,2.02l0 22.42z"/>
   <path class="fil11" d="M9426.41 571.96c0.68,0.89 0.51,2.16 -0.4,2.83 -0.92,0.68 -2.22,0.5 -2.91,-0.38l-13.85 -17.89c-0.71,-0.89 -0.52,-2.15 0.39,-2.83 0.91,-0.66 2.21,-0.49 2.89,0.4l13.88 17.87z"/>
   <path class="fil11" d="M9417.65 591.35c1.05,0 1.88,0.92 1.88,2.03 0,1.11 -0.83,2.02 -1.88,2.02l-20.98 0c-1.04,0 -1.9,-0.91 -1.9,-2.02 0,-1.11 0.86,-2.03 1.9,-2.03l20.98 0z"/>
   <path class="fil11" d="M9417.65 614.08c1.05,0 1.88,0.9 1.88,2.02 0,1.12 -0.83,2.02 -1.88,2.02l-20.98 0c-1.04,0 -1.9,-0.9 -1.9,-2.02 0,-1.12 0.86,-2.02 1.9,-2.02l20.98 0z"/>
   <path class="fil9" d="M9588.24 546.37l53.92 0c20.64,0 37.42,20.15 37.42,40.29l0 50.76 -21.05 0 0 -43.12c0,-15.02 -8.82,-24.42 -24.2,-24.42l-46.09 0 0 -23.51z"/>
   <path class="fil10" d="M9617.37 544.28l3.97 0c3.9,0 7.07,2.48 7.07,5.55l0 18.96c0,3.06 -3.17,5.54 -7.07,5.54l-3.97 0 0 -30.05z"/>
   <path class="fil11" d="M9630.09 569.27c0,1.11 0.92,2.02 2.06,2.02 1.14,0 2.07,-0.91 2.07,-2.02l0 -22.42c0,-1.12 -0.93,-2.02 -2.07,-2.02 -1.14,0 -2.06,0.9 -2.06,2.02l0 22.42z"/>
   <path class="fil11" d="M9649.94 572.51c-0.67,0.89 -0.5,2.15 0.43,2.82 0.9,0.68 2.2,0.51 2.88,-0.39l13.88 -17.87c0.67,-0.88 0.51,-2.15 -0.41,-2.83 -0.9,-0.67 -2.21,-0.5 -2.89,0.39l-13.89 17.88z"/>
   <path class="fil11" d="M9658.71 591.9c-1.05,0 -1.91,0.9 -1.91,2.02 0,1.12 0.86,2.02 1.91,2.02l20.98 0c1.04,0 1.87,-0.9 1.87,-2.02 0,-1.12 -0.83,-2.02 -1.87,-2.02l-20.98 0z"/>
   <path class="fil11" d="M9658.71 614.63c-1.05,0 -1.91,0.9 -1.91,2.01 0,1.12 0.86,2.02 1.91,2.02l20.98 0c1.04,0 1.87,-0.9 1.87,-2.02 0,-1.11 -0.83,-2.01 -1.87,-2.01l-20.98 0z"/>
   <polygon class="fil12" points="9533.62,528.48 9542.41,528.48 9542.41,507.89 9533.62,507.89 "/>
   <path class="fil12" d="M9620.73 568.63c0,8.44 -5.14,15.26 -11.47,15.26l-142.46 0c-6.33,0 -11.48,-6.82 -11.48,-15.26l0 -18.2c0,-8.42 5.15,-15.25 11.48,-15.25l142.46 0c6.33,0 11.47,6.83 11.47,15.25l0 18.2z"/>
   <path class="fil13" d="M9614.41 574.27c0,13.66 -11.34,24.72 -25.31,24.72l-100.95 0c-13.97,0 -25.3,-11.06 -25.3,-24.72l0 -29.49c0,-13.64 11.33,-24.7 25.3,-24.7l100.95 0c13.97,0 25.31,11.06 25.31,24.7l0 29.49z"/>
   <polygon class="fil14" points="9491.68,598.99 9586.28,598.99 9586.28,520.08 9491.68,520.08 "/>
   <polygon class="fil15" points="9502.07,598.99 9517.54,598.99 9517.54,520.08 9502.07,520.08 "/>
   <polygon class="fil15" points="9560.41,598.99 9575.89,598.99 9575.89,520.08 9560.41,520.08 "/>
   <path class="fil12" d="M9552.43 507.04c0,1.53 -1.26,2.76 -2.81,2.76l-23.19 0c-1.56,0 -2.81,-1.23 -2.81,-2.76 0,-1.5 1.25,-2.73 2.81,-2.73l23.19 0c1.55,0 2.81,1.23 2.81,2.73z"/>
   <path class="fil16" d="M9695.19 536.07l67.09 -37.26 55.91 156.06c6.52,16.04 -1.21,34.31 -17.24,40.82 -16.04,6.51 -34.29,-1.21 -40.81,-17.24l-64.95 -142.38z"/>
   <path class="fil16" d="M9374.15 806.73c16.99,3.25 33.41,-7.88 36.67,-24.88l38.11 -162.12c3.26,-16.99 -14.66,-34.78 -31.65,-38.04 -16.99,-3.25 -40.62,8.62 -43.87,25.61l-24.13 162.75c-3.27,16.99 7.87,33.42 24.87,36.68z"/>
   <path class="fil16" d="M9177.64 766.6c-0.77,17.29 -4.46,23.01 12.83,23.76l183.4 16.2c17.29,0.76 31.93,-12.64 32.67,-29.94 0.76,-17.29 -12.64,-31.91 -29.93,-32.67l-183.11 7.65c-17.29,-0.76 -15.1,-2.29 -15.86,15z"/>
   <polygon class="fil17" points="9768.04,796.04 9534.52,796.04 9483.25,1212.42 9508.14,1524.36 9597.42,1498.42 9594.73,1231.72 9629.45,1024.9 9629.45,1198.63 9720.12,1516.61 9813.58,1488.76 9747.58,1182.09 "/>
   <polygon class="fil16" points="9481.04,444.71 9569.9,417.7 9553.58,363.98 9464.71,391 "/>
   <path class="fil18" d="M9498.26 423.13c-8.5,-0.83 -16.93,-2.68 -25.32,-5.02l-8.23 -27.11 88.87 -27.02 9.94 32.7c-18.44,15.63 -40.33,28.88 -65.26,26.45z"/>
   <path class="fil16" d="M9373.57 324.15c7.25,13.71 19.52,21.44 27.4,17.27 7.89,-4.17 8.4,-18.66 1.16,-32.36 -7.25,-13.7 -19.51,-21.44 -27.4,-17.27 -7.89,4.17 -8.41,18.66 -1.16,32.36z"/>
   <path class="fil16" d="M9592.26 261.42c1.65,15.42 -4.21,28.68 -13.08,29.63 -8.86,0.94 -17.39,-10.78 -19.04,-26.19 -1.65,-15.43 4.21,-28.69 13.08,-29.63 8.88,-0.95 17.39,10.78 19.04,26.19z"/>
   <path class="fil16" d="M9395.54 336.49c6.75,17.75 21.99,31.74 35.34,42.43 34.98,27.99 49.33,40.3 84.93,29.47 34.49,-10.48 36.68,-21.05 54.69,-57.57 9.03,-18.32 10.6,-39.32 10.69,-57.7l-3.67 -19.15c-3.09,-16.82 -10.17,-39.96 -10.17,-39.96 -10.77,-33.41 -24.16,-66.82 -45.5,-82.95 -25.42,-19.2 -56.99,-16.44 -85.1,-7.9 -25.55,7.78 -52.41,22.93 -63.28,49.8 -10.57,26.14 -3.86,58.64 5.95,92.69 0.37,1.28 0.78,2.59 1.16,3.9 0,0 12.26,40.24 14.96,46.94z"/>
   <path class="fil16" d="M9361.29 641.98l-8.78 -92.73c11.91,-35.16 57.87,-66.22 57.87,-66.22l69.33 -49.29 40.75 -12.38 3.7 -1.12 40.73 -12.4 83.11 5.58c0,0 51.47,2.68 81.26,30.85l9.15 85.44 -47.02 11.9 -12.62 -11.9 0.68 15.53 -220.03 66.9 -8.38 -15.37 -1.18 18.28 -88.57 26.93z"/>
   <path class="fil19" d="M9516.74 176.79c0,0 -28.18,36.43 -125,59.53 0,0 -6.81,60.91 5.69,81.17l-7.48 2.27 -16.05 -24.11c0,0 -18.22,-19.65 -30.07,-66.28 0,0 -5.28,-42.72 13.7,-70.02 0,0 -8.65,-3.09 -13.81,12.1 0,0 -0.95,-29.57 47.34,-48.46 0,0 -14.15,3.45 -25.51,7.75 0,0 26.74,-25.86 58.09,-22.73 0,0 -9.8,-7.99 -23.43,-3.85 0,0 34.05,-11.2 59.01,1.48 0,0 -13.03,-9.55 -24.96,-12.68 0,0 47.42,-5.13 61.81,15.83 0,0 -6.86,-15.65 -14.39,-20.96 0,0 29.15,8.57 34.66,35.9 0,0 21.01,22.31 0.4,53.06z"/>
   <path class="fil19" d="M9567.82 265.68l7.46 -2.26 1.64 -36.54c0,0 7.48,-48.49 -21.01,-87.96 0,0 -18.36,-31.14 -51.57,-21.67 0,0 30.42,55.96 51.9,101.98l11.58 46.45z"/>
   <polygon class="fil16" points="9678.77,529.71 9451.04,596.77 9515,807.12 9738.41,739.19 "/>
   <path class="fil20" d="M9352.51 549.25c1.77,-28.48 55.31,-64.39 55.31,-64.39l71.89 -51.12 63.03 54.27 22.15 -80.17 91.89 6.17c0,0 50.08,-7.16 75.83,33.13l40.89 71.89 -86.31 23.32 -8.42 -12.64 72.23 246.13 -226.38 68.82 -73.58 -247.89 -1.18 18.28 -88.57 26.93 -8.78 -92.73z"/>
   <path class="fil21" d="M9791.2 862.21l-286.86 70.54 -53.3 -335.98c0,0 5.6,-61.09 -40.66,-113.74l41.38 -29.42 111.65 102.4 36.74 -145.8 47.85 3.21c-19.4,65.02 30.77,116.29 30.77,116.29 0,0 78.21,177.83 112.43,332.5z"/>
   <polygon class="fil22" points="9708.18,601.41 9463.33,674.21 9468.69,708.06 9721.26,635.57 "/>
   <polygon class="fil22" points="9727.69,652.94 9472.24,730.39 9477.42,763.04 9738.41,682.81 "/>
   <path class="fil22" d="M9708.26 882.61l42.74 -10.51c-87.29,-278.94 -115.48,-449.02 -118.73,-459.73l-23.38 -1.57c-0.22,4.31 11.05,189.61 99.37,471.81z"/>
   <path class="fil22" d="M9618.27 905.94l-37.08 7.92c-82.74,-280.33 -152.26,-442.76 -152.87,-443.58l17.6 -13.05c2.57,3.47 88.64,165.11 172.35,448.71z"/>
   <path class="fil23" d="M9341.9 202.08c47.71,-28.16 106.62,-39.86 106.62,-39.86 0,0 55.46,-23.07 110.76,-26.23 0,0 28.97,-4.82 21.99,14.89 0,0 -4.87,27.97 -32.54,45.37 0,0 -19.81,14.74 -79.84,32.97 -59.99,18.64 -84.99,16.06 -84.99,16.06 -34.86,1.62 -50.45,-16.71 -50.45,-16.71 -15.07,-14.58 8.45,-26.49 8.45,-26.49z"/>
   <path class="fil24" d="M9340.04 196c47.71,-28.16 106.63,-39.86 106.63,-39.86 0,0 55.45,-23.07 110.76,-26.24 0,0 28.97,-4.82 22,14.9 0,0 -4.88,27.97 -32.54,45.37 0,0 -19.83,14.73 -79.85,32.97 -60,18.63 -84.98,16.06 -84.98,16.06 -34.86,1.61 -50.45,-16.71 -50.45,-16.71 -15.07,-14.58 8.43,-26.49 8.43,-26.49z"/>
   <path class="fil25" d="M9374.46 230.28c0,0 23.97,2.46 81.48,-15.4 57.56,-17.49 76.56,-31.62 76.56,-31.62 26.53,-16.68 31.19,-43.49 31.19,-43.49 1.59,-4.45 1.25,-7.6 -0.18,-9.81 6.17,1.18 11.52,4.74 8.15,14.25 0,0 -4.68,26.82 -31.2,43.5 0,0 -19,14.14 -76.56,31.61 -57.51,17.87 -81.49,15.41 -81.49,15.41 -20.65,0.95 -34.26,-5.39 -41.63,-10.38 7.86,3.6 18.99,6.61 33.68,5.93z"/>
   <path class="fil26" d="M9341.24 212.04l-0.16 -0.43 -0.14 -0.62c-20.31,-72.88 11.08,-145.83 71.37,-164.16 61.06,-18.56 128.72,25.97 151.56,99.54l-0.71 0.22c-2.86,12.31 -47.49,34.78 -104.71,52.17 -57.2,17.4 -106.78,23.57 -116,14.93l-0.67 0.2c-0.19,-0.61 -0.36,-1.23 -0.54,-1.85z"/>
   <path class="fil27" d="M9366.57 208.97c-6.92,0 -11.76,-0.93 -13.84,-2.88l-0.5 0.15 -0.39 -1.38 -0.13 -0.33 -0.09 -0.45c-12.04,-43.18 0.27,-86.39 28.38,-109.19 0.22,0.46 0.44,0.94 0.65,1.42 -21.85,24.06 -30.42,62.53 -19.71,100.98l0.11 0.45 0.12 0.33 0.39 1.38 0.49 -0.16c2.09,1.95 6.93,2.89 13.85,2.89 10.08,0 24.56,-1.99 41.36,-5.73 0.49,1.54 0.94,2.95 1.34,4.25 -21.32,5.38 -39.88,8.27 -52.03,8.27zm127.15 -35.01c-0.2,-0.68 -0.4,-1.38 -0.61,-2.11 8.09,-3.6 15.04,-7.15 20.49,-10.47 -3.97,3.73 -10.84,8.05 -19.88,12.58z"/>
   <path class="fil28" d="M9388.06 77.87c-13.95,4.23 -26.35,11.4 -36.91,20.81 13.38,-24.85 34.42,-43.72 61.16,-51.85 61.06,-18.56 128.72,25.97 151.56,99.54l-0.71 0.22c-1.29,5.55 -11.1,13.19 -26.74,21.49 -25.45,-67.96 -89.93,-107.98 -148.36,-90.21z"/>
   <path class="fil23" d="M9407.5 31.04l-0.04 -0.12 1.06 -0.25 1.02 -0.37 0.03 0.1c53.82,-13.01 56.04,15.33 56.04,15.33 0.43,37.74 31.54,139.81 31.54,139.81 -17.73,7.45 -32.89,13.71 -37.1,14.63 -4.01,1.58 -19.85,5.58 -38.74,9.27 0,0 -31.21,-102.88 -51.85,-134.48 0,0 -13.92,-24.79 38.04,-43.92z"/>
   <path class="fil26" d="M9407.58 31.01l-0.03 -0.11 0.97 -0.23 0.92 -0.35 0.04 0.11c48.97,-11.54 51.74,16.63 51.74,16.63 1.34,37.47 32.45,139.53 32.45,139.53 -16.06,6.95 -29.8,12.77 -33.62,13.58 -3.64,1.46 -18.04,5.02 -35.26,8.2 0,0 -31.2,-102.87 -50.93,-134.75 0,0 -13.37,-24.95 33.72,-42.61z"/>
   <path class="fil28" d="M9443.53 70.68c0,0 -2.77,-28.18 -51.74,-16.63l-0.03 -0.11 -0.93 0.34 -0.96 0.24 0.03 0.11c-7.24,2.71 -13.05,5.59 -17.68,8.53 0.87,-8.87 7.67,-21.76 35.36,-32.15l-0.03 -0.11 0.97 -0.23 0.92 -0.35 0.04 0.11c48.97,-11.54 51.74,16.63 51.74,16.63 1.34,37.47 32.45,139.53 32.45,139.53 -8.27,3.57 -15.92,6.85 -21.93,9.3 -8.55,-29.43 -27.16,-96.42 -28.21,-125.21z"/>
   <path class="fil27" d="M9432.7 205.78c-12.8,-52.22 -42.58,-113.18 -43.57,-115.2 -9.94,-18.69 -5.6,-25.8 -4.06,-27.53 5.06,-6.47 14.79,-7.83 22.07,-7.83 4.54,0 8.13,0.53 9.05,0.69 -0.53,-0.09 -1.16,-0.14 -1.86,-0.14 -6.42,0 -19.15,3.85 -23.91,11.6l0.12 0.09 -0.34 0.23c-0.43,0.84 -2.33,5.9 5.05,19.7l0.05 0.11c0.29,0.61 30.95,63.06 44.08,116.64l-6.68 1.64z"/>
   <path class="fil16" d="M9172.37 749.59l0.01 0.02c-3.77,-6.27 -7.28,-11.43 -7.28,-11.43 -1.06,-7.19 -4.56,-20.87 -4.56,-20.87 -1.87,-8.81 -3.48,-9.89 -3.48,-9.89 0,0 -6.63,-4.31 -8.51,2.64 -0.73,2.79 -0.89,5.84 -0.69,8.7 0.31,4.6 2.91,8.77 2.94,13.33 0.05,7.71 -8.45,9.54 -14.32,10.05l-30.4 -4.49 -24.6 -1.78c-5.92,-1.2 -9.17,0.64 -9.79,3.59 -0.61,2.97 1.65,5.94 7.59,7.15l17.78 2.61 18.24 5.2 -38.8 -6.31c-3.11,-0.57 -8.48,-0.3 -9.14,3.33l-0.16 0.9c-0.69,3.64 3.71,6.56 6.83,7.13l29.54 6.62 -25.79 -4.29c-2.67,-0.33 -6.41,0.7 -6.82,3.81 -0.25,4.65 5.71,6.75 5.71,6.75l34.15 6.98 0.25 0.28 -24.85 -2.58c-2.63,-0.23 -8.25,0.74 -8.56,4.53 0,0 0.02,4.86 6.93,5.76l36.07 5.46c9.56,2.32 24.72,3.82 45.93,-0.57l23.19 -3.73 -2.79 -37.04 -14.62 -1.86z"/>
   <path class="fil20" d="M9742.54 1570.27l22.42 -21.19 3.9 13.7 58.83 -16.75 -8.15 -28.64c0,0 0.3,-14.38 -8.15,-28.63l-85.15 24.25c0,0 -5.83,40.26 -54.83,51.33 0,0 -23.91,15.91 -7.85,28.42l59.54 -3.57 19.44 -18.92z"/>
   <path class="fil20" d="M9528.57 1579.93l22.43 -21.19 3.9 13.69 58.82 -16.75 -8.14 -28.63c0,0 0.29,-14.39 -8.16,-28.63l-85.16 24.24c0,0 -5.82,40.26 -54.83,51.34 0,0 -23.89,15.91 -7.83,28.42l59.54 -3.58 19.43 -18.91z"/>
   <g>
    <path class="fil19" d="M9103.27 1512.63c-25.24,-15.33 -66.46,-5.83 -88.01,10.84 -18.23,14.09 -25.05,30.26 -50.46,32.51 -18.54,1.64 -38.07,-3.06 -55.27,5.08 -16.22,7.68 -17.38,17 -22.51,31.59 139.82,-3.04 281.08,6.54 420.68,-1.66 1.27,-8.72 -1.4,-17.48 -7,-24.17 -10.12,-12.09 -18.91,-6.5 -34.27,-8.07 -36.71,-3.75 -25.1,-29.76 -45.34,-48.94 -13.49,-12.76 -43.64,-9.35 -62.52,-9.37 -12.23,-0.01 -21.62,1.37 -33.36,4.14 -8.91,2.09 -19.52,9.05 -28.72,8.05l6.78 0z"/>
    <path class="fil9" d="M9043.08 1337.18l60.78 -30.71 39.32 0.02 57.17 30.78c0,0 34.22,137.46 -76.76,187.91 0,0 -99.79,-35 -80.51,-188z"/>
    <path class="fil29" d="M9185.33 1342.47l-48.85 -26.29 -9.46 -0.01 48.84 26.3c0,0 28.29,113.66 -61.06,158.42 3.08,1.51 4.94,2.17 4.94,2.17 94.82,-43.12 65.59,-160.59 65.59,-160.59z"/>
    <path class="fil30" d="M9183.97 1463.42c-15.55,12.35 -37.47,19.99 -57.21,14.57 -4.28,-1.17 -8.24,-2.83 -11.9,-4.92 -8.48,-3.99 -16.18,-9.81 -22.09,-16.59 -20.18,-23.22 -23.51,-53.1 -21.86,-82.74 0.71,-12.75 2.78,-25.38 8.31,-36.98 4.96,-10.39 12.36,-19.33 19.93,-27.91l-56.07 28.33c-19.28,153 80.51,188 80.51,188 36.05,-16.39 56.76,-41.96 68.31,-69.02 -2.44,2.56 -5.07,4.99 -7.93,7.26z"/>
    <polygon class="fil12" points="9099.38,1262.17 9099.31,1386.75 9116.6,1413.41 9126.64,1413.41 9143.14,1385.39 9143.2,1262.2 "/>
    <g>
     <polygon class="fil19" points="9138.14,1262.2 9102.59,1262.18 9102.88,731.29 9138.44,731.31 "/>
     <polygon class="fil31" points="9120.36,1262.19 9102.59,1262.18 9102.88,731.29 9120.66,731.3 "/>
     <path class="fil32" d="M9154.96 709.35c-0.01,9.84 -7.97,17.8 -17.8,17.79l-31.13 -0.02c-9.83,0 -17.79,-7.97 -17.79,-17.8l0 -14.21c0,-9.82 7.99,-17.79 17.81,-17.78l31.14 0.01c9.83,0.02 17.78,7.98 17.78,17.81l-0.01 14.2zm-8.63 -46.6l-49.41 -0.04c-15.59,-0.01 -28.24,12.63 -28.24,28.22l-0.02 22.55c0,15.6 12.62,28.24 28.21,28.24l49.42 0.04c15.59,0 28.24,-12.63 28.25,-28.23l0.01 -22.53c0.01,-15.6 -12.63,-28.25 -28.22,-28.25z"/>
     <polygon class="fil32" points="9146.71,857.6 9094.93,857.57 9094.98,738.52 9146.77,738.55 "/>
    </g>
   </g>
   <path class="fil16" d="M9821.82 876.39l0.01 -0.01c-5.55,4.75 -10.06,9.07 -10.06,9.07 -6.93,2.23 -19.84,7.94 -19.84,7.94 -8.36,3.29 -9.18,5.07 -9.18,5.07 0,0 -3.15,7.25 4.02,7.95 2.87,0.26 5.91,-0.08 8.69,-0.76 4.48,-1.06 8.16,-4.31 12.66,-5.09 7.6,-1.34 10.79,6.74 12.27,12.46l0.61 30.73 2.31 24.56c-0.21,6.03 2.15,8.93 5.15,9.05 3.02,0.1 5.59,-2.61 5.81,-8.67l-0.37 -17.97 2.1 -18.85 0.19 39.32c-0.04,3.17 1.12,8.42 4.8,8.45l0.93 0.03c3.68,0.06 5.84,-4.76 5.89,-7.91l1.65 -30.24 0.04 26.14c0.09,2.69 1.74,6.2 4.87,6.09 4.62,-0.51 5.72,-6.73 5.72,-6.73l1.23 -34.85 0.23 -0.29 1.58 24.94c0.21,2.63 2.09,8.02 5.87,7.7 0,0 4.8,-0.82 4.54,-7.8l-0.57 -36.47c0.69,-9.83 -0.32,-25.01 -8.16,-45.2l-7.51 -22.26 -36.07 8.88 0.59 14.72z"/>
   <path class="fil16" d="M9834.31 867.2c16.9,-3.83 23.38,-1.75 19.55,-18.64l-32.67 -181.19c-3.83,-16.88 -20.6,-27.47 -37.48,-23.64 -16.88,3.83 -27.46,20.6 -23.63,37.47l55.57 174.65c3.85,16.88 1.81,15.17 18.66,11.35z"/>
  </g>
 </g>
</svg>
