<?xml version="1.0" encoding="UTF-8"?>
<!DOCTYPE svg PUBLIC "-//W3C//DTD SVG 1.1//EN" "http://www.w3.org/Graphics/SVG/1.1/DTD/svg11.dtd">
<!-- Creator: CorelDRAW 2017 -->
<svg xmlns="http://www.w3.org/2000/svg" xml:space="preserve" width="102.51mm" height="16.02mm" version="1.1" style="shape-rendering:geometricPrecision; text-rendering:geometricPrecision; image-rendering:optimizeQuality; fill-rule:evenodd; clip-rule:evenodd"
viewBox="0 0 10251 1602"
 xmlns:xlink="http://www.w3.org/1999/xlink">
 <defs>
  <style type="text/css">
   <![CDATA[
    .fil3 {fill:black;fill-rule:nonzero}
    .fil1 {fill:#282828;fill-rule:nonzero}
    .fil7 {fill:#300901;fill-rule:nonzero}
    .fil6 {fill:#5E2014;fill-rule:nonzero}
    .fil4 {fill:#D8D2CA;fill-rule:nonzero}
    .fil0 {fill:#F4CDBA;fill-rule:nonzero}
    .fil5 {fill:#FFEADC;fill-rule:nonzero}
    .fil2 {fill:white;fill-rule:nonzero}
   ]]>
  </style>
 </defs>
 <g id="Camada_x0020_1">
  <metadata id="CorelCorpID_0Corel-Layer"/>
  <g id="_2301281929984">
   <path class="fil0" d="M1119.62 1236.38l-6.82 142.17 39.93 156.67c0,0 16.59,81.05 -54.36,-8.38 -57.33,-72.29 -44.49,-59.19 -68.67,-88.46 -31.58,-38.25 -17.31,-49.85 1.64,-76.47 19.03,-26.63 3.9,-165.08 3.9,-165.08l84.38 39.55z"/>
   <path class="fil1" d="M1100.66 1533.09c-59.17,-76.87 -52.91,-68.17 -74.58,-97.67 -29.22,-40 -13.04,-50.55 9.16,-80.99 2.63,-3.63 60.03,109.95 112.94,160.47l5.66 21.98c0,0 15.21,85.21 -53.18,-3.79z"/>
   <path class="fil2" d="M696.44 1233.15c0,4.21 3.42,7.6 7.62,7.6l15.21 0c4.14,0 7.61,-3.39 7.61,-7.6l0 -167.23c0,-4.19 -3.47,-7.6 -7.61,-7.6l-15.21 0c-4.2,0 -7.62,3.41 -7.62,7.6l0 167.23z"/>
   <path class="fil3" d="M498.86 1069.76c0,4.17 3.75,7.6 8.44,7.6l446.78 0c4.61,0 8.37,-3.43 8.37,-7.6l0 -60.77c0,-4.25 -3.76,-7.62 -8.37,-7.62l-446.78 0c-4.69,0 -8.44,3.37 -8.44,7.62l0 60.77z"/>
   <polygon class="fil4" points="687.44,1358.56 733.06,1358.56 733.06,1192.39 687.44,1192.39 "/>
   <path class="fil4" d="M734.31 1325.16c15.65,12.84 149.21,116.54 149.21,123.89 0,7.34 0,60.6 0,60.6l-25.56 0 0 -51.4 -144.29 -85.39 0 -42.2 20.64 -5.5z"/>
   <path class="fil4" d="M698.76 1320.58c-15.61,12.84 -149.17,116.52 -149.17,123.89 0,7.34 0,60.58 0,60.58l25.53 0 0 -51.4 144.29 -85.35 0 -42.22 -20.65 -5.5z"/>
   <polygon class="fil4" points="701.61,1321.5 503.38,1376.56 503.38,1431.63 521.11,1431.63 521.11,1400.42 685.98,1363.72 "/>
   <polygon class="fil4" points="727.15,1321.5 925.43,1376.56 925.43,1431.63 907.67,1431.63 907.67,1400.42 742.82,1363.72 "/>
   <path class="fil1" d="M788.16 848.91c25.48,4.43 351.44,59.66 362.33,63.15 24.36,7.72 26.58,35.48 25.48,46.53 -1.12,11.07 -49.86,371.17 -49.86,371.17l-101.95 -15.52c0,0 -17.74,-135.17 14.31,-297.68 0,0 -451.95,29.56 -451.95,-29.19 0,-58.72 201.64,-138.46 201.64,-138.46z"/>
   <path class="fil3" d="M1036.79 1015.74c0,0 -451.95,29.55 -451.95,-29.18 0,-36.43 40.65,-85.19 99.53,-113.77 92.69,14.73 350.18,39.88 435.48,68.69 12.21,4.12 10.41,15.79 13.35,21.06 14.01,25.51 -24.67,295.41 -31.07,362.32l-79.66 -11.44c0,0 -17.69,-135.17 14.32,-297.68z"/>
   <path class="fil0" d="M1033.43 683.93c20.8,-2.07 60.31,0 68.64,0 8.31,0 72.78,-8.31 81.1,-6.22 8.29,2.06 51.97,20.78 66.51,29.11 0,0 4.83,21.7 -22.87,12.46 -43.64,-14.56 -64.45,0 -85.27,4.16 -20.79,4.13 -33.21,0 -41.53,0 -8.36,0 -58.26,2.1 -58.26,2.1l-8.32 -41.61z"/>
   <polygon class="fil3" points="1043.05,677.16 1066.31,678.83 1070.44,746.94 1045.5,748.6 "/>
   <path class="fil2" d="M759.34 473.28c20.79,31.16 67.21,160.03 82.18,173.61 33.9,30.82 208.98,26.09 208.98,26.09l0 90.56c0,0 -212.3,7.23 -266.6,-15.15 -35.38,-14.55 -141.4,-203.73 -122.7,-264.11 21.01,-67.5 98.14,-11 98.14,-11z"/>
   <path class="fil3" d="M476.73 862.68c1.61,40.84 32.59,72.81 69.29,71.4l48.78 -1.91c36.62,-1.43 65.1,-35.69 63.55,-76.56l-9.58 -246.44c-1.64,-40.87 -32.6,-72.84 -69.33,-71.4l-48.68 1.9c-36.7,1.4 -65.21,35.65 -63.6,76.51l9.57 246.5z"/>
   <polygon class="fil4" points="938.72,855.98 1440.33,855.98 1440.33,806.62 938.72,806.62 "/>
   <polygon class="fil3" points="1014.41,798.35 1329.85,798.35 1329.85,757.22 1014.41,757.22 "/>
   <polygon class="fil3" points="1329.32,796.92 1408.18,491.5 1368.27,481.22 1289.46,786.63 "/>
   <path class="fil4" d="M572.15 543.09c2.97,-106.09 49.83,-121.89 57.04,-125.21l78.08 16.61c24.35,8.86 94.92,259.51 86.48,301.38 3.55,48.12 -6.37,90.59 -5.59,113.04 -18.81,-2.26 -216.01,150.68 -216.01,150.68 0,0 0,-110.81 2.18,-181.72 2.2,-70.89 -5.41,-165.91 -2.18,-274.78z"/>
   <polygon class="fil4" points="715.61,426.17 759.34,473.28 805.32,610.68 788.16,848.91 702.24,899.87 615.86,463.58 661.54,426.17 "/>
   <path class="fil5" d="M979.87 702.61c22.17,-2.19 64.29,0 73.11,0 8.87,0 77.58,-8.83 86.4,-6.61 8.88,2.18 55.44,22.16 70.95,31.02 0,0 5.15,23.13 -24.38,13.25 -46.57,-15.45 -68.7,0 -90.86,4.46 -22.16,4.45 -35.47,0 -44.31,0 -8.91,0 -62.05,2.21 -62.05,2.21l-8.86 -44.33z"/>
   <path class="fil5" d="M759.12 351.54c-33.54,29.14 -36.91,68.67 -33.58,87.93 4.47,25.32 -4.23,30.12 -42.39,10.85 -33.46,-16.95 -39.01,-23.62 -61.17,-29.12 15.18,-17.08 36.84,-99.69 25.47,-152.91 -11.37,-53.22 111.67,83.25 111.67,83.25z"/>
   <path class="fil0" d="M648.56 263.87c-6.48,-30.35 96.4,48.33 129.59,80.85l-107.4 94.15c-22.01,-11.93 -28.9,-17.42 -47.67,-22.13 15.14,-17.09 36.86,-99.72 25.48,-152.87z"/>
   <path class="fil5" d="M647.45 192.95c-17.27,83.06 23.74,176.86 89.76,190.56 66.04,13.72 111.86,-46.8 129.18,-129.9 17.2,-83.03 -8.28,-142.79 -74.32,-156.53 -66.1,-13.74 -127.37,12.78 -144.62,95.87z"/>
   <path class="fil5" d="M860.16 243.37c0,19.93 -12.73,30.44 -3.84,83.62 -2.23,13.31 -36.05,4.44 -42.68,4.44 -6.62,0 46.52,-88.06 46.52,-88.06z"/>
   <polygon class="fil3" points="729.75,443.63 629.96,392.13 617.5,426.17 729.75,485.17 "/>
   <path class="fil0" d="M735.53 383.51c7.32,1.55 14.43,2.11 21.26,1.88 -61.15,-37.32 -3.44,-222.83 16.92,-250.08 -9.48,-5.68 29.11,-35.6 16.68,-38.23 -66.09,-13.74 -127.33,12.78 -144.61,95.87 -17.28,83.06 23.73,176.86 89.75,190.56z"/>
   <path class="fil6" d="M795.35 195.17l75.87 -14.41c10.04,-15.49 -10.3,-81.19 -111.88,-90.86 -93.04,-8.84 -111.89,34.32 -125.19,87.52 -13.29,53.22 14.95,150.71 14.95,150.71 0,0 78.97,-33.37 68.15,-53.2 -6.69,-12.19 -13.33,-54.29 5.59,-53.2 9.07,0.58 15.45,12.21 15.45,12.21l57.06 -38.77z"/>
   <path class="fil6" d="M658.55 126.47c-12.21,-23.31 -46.84,-84.45 -87.54,2.18 -35.49,75.41 -7.81,140.87 -7.81,170.68 0,13.31 -16.61,22.13 -24.32,21.06 -5.63,-0.85 36.51,17.71 64.25,-12.21 27.75,-29.9 5.56,-126.3 29.86,-146.27 6.57,-5.34 24.46,-8.86 24.46,-8.86l1.1 -26.58z"/>
   <path class="fil6" d="M871.81 177.69c6.68,0 34.36,23.84 12.74,59.58 -31.56,-4.99 -117.46,-35.49 -117.46,-35.49l37.42 -26.58 67.3 2.49z"/>
   <polygon class="fil3" points="996.45,696.27 1019.75,697.91 1023.91,766.06 998.95,767.74 "/>
   <path class="fil2" d="M680.68 476.58c22.16,33.26 78.73,172.09 94.6,186.56 36.21,32.86 222.32,23.97 222.32,23.97l6.65 95.29c0,0 -232.49,12.77 -290.3,-11.07 -37.69,-15.48 -146.28,-218.29 -126.38,-282.52 22.32,-72 93.11,-12.23 93.11,-12.23z"/>
   <path class="fil7" d="M603.34 308.18c27.71,-29.9 5.58,-126.3 29.9,-146.27 1.61,-1.3 3.92,-2.51 6.39,-3.53 -1.95,6.15 -3.63,12.53 -5.23,19.04 -13.34,53.22 14.97,150.71 14.97,150.71 0,0 78.89,-33.37 68.09,-53.2 -6.63,-12.19 -13.29,-54.29 5.52,-53.2 3.97,0.25 12.66,9.66 15.31,12.21 8.84,-81.14 -2.38,-145.47 -12.32,-144.9 -35.38,2.1 -56.04,14.73 -69.39,33.3 -13.78,-25.37 -46.82,-75.59 -85.43,6.31 -35.38,75.41 -7.69,140.87 -7.69,170.68 0,13.31 -16.65,22.13 -24.42,21.06 -5.58,-0.85 36.59,17.71 64.3,-12.21z"/>
  </g>
 </g>
</svg>
