<?xml version="1.0" encoding="UTF-8"?>
<!DOCTYPE svg PUBLIC "-//W3C//DTD SVG 1.1//EN" "http://www.w3.org/Graphics/SVG/1.1/DTD/svg11.dtd">
<!-- Creator: CorelDRAW 2017 -->
<svg xmlns="http://www.w3.org/2000/svg" xml:space="preserve" width="102.51mm" height="16.02mm" version="1.1" style="shape-rendering:geometricPrecision; text-rendering:geometricPrecision; image-rendering:optimizeQuality; fill-rule:evenodd; clip-rule:evenodd"
viewBox="0 0 10251 1602"
 xmlns:xlink="http://www.w3.org/1999/xlink">
 <defs>
  <style type="text/css">
   <![CDATA[
    .fil9 {fill:black;fill-rule:nonzero}
    .fil10 {fill:#282828;fill-rule:nonzero}
    .fil4 {fill:#300901;fill-rule:nonzero}
    .fil3 {fill:#5E2014;fill-rule:nonzero}
    .fil11 {fill:#870E0E;fill-rule:nonzero}
    .fil1 {fill:#B63939;fill-rule:nonzero}
    .fil2 {fill:#BA5656;fill-rule:nonzero}
    .fil0 {fill:#D62726;fill-rule:nonzero}
    .fil8 {fill:#D8D2CA;fill-rule:nonzero}
    .fil6 {fill:#F4CDBA;fill-rule:nonzero}
    .fil5 {fill:#FFEADC;fill-rule:nonzero}
    .fil7 {fill:white;fill-rule:nonzero}
   ]]>
  </style>
 </defs>
 <g id="Camada_x0020_1">
  <metadata id="CorelCorpID_0Corel-Layer"/>
  <g id="_2301183800960">
   <path class="fil0" d="M8478.7 970.27c-16.98,-50.5 -26.18,-104.57 -26.18,-160.8 0,-1.71 0.02,-3.43 0.03,-5.14 0.53,57.88 9.54,113.77 26.15,165.94z"/>
   <path class="fil1" d="M8742.88 1267.25c-107.98,-50.42 -195.12,-137.96 -245.07,-246.22 -7.19,-16.46 -13.57,-33.4 -19.11,-50.76 44.15,131.21 140.85,238.31 265.04,296.24l-0.86 0.74z"/>
   <path class="fil1" d="M8452.55 804.33c-0.01,-1.85 -0.03,-3.71 -0.03,-5.55 0,-7.22 -0.02,-12.93 0,-17.7 0.66,-11.31 1.7,-22.5 3.11,-33.62 0.53,-2.69 1.16,-5.69 1.87,-9.14 -3.04,21.6 -4.72,43.62 -4.95,66.01z"/>
   <path class="fil2" d="M8452.52 781.08c0.05,-14.35 0.47,-20.21 3.11,-33.62 -1.41,11.12 -2.45,22.31 -3.11,33.62z"/>
   <path class="fil3" d="M8895.03 279.9c-29.06,56.42 -32.19,195.59 -30.92,245.81 1.36,50.25 107.02,27.3 107.02,27.3l6.58 -274.87 -82.68 1.76z"/>
   <path class="fil4" d="M9055.29 279.02c30.03,47.58 33.08,201.75 31.85,251.99 -1.37,50.22 -107.11,22 -107.11,22l-6.6 -274.87 81.86 0.88z"/>
   <path class="fil5" d="M8969.88 548.16l50.68 -48.43c0,0 -9.21,-71.62 -9.21,-80.97l-37.86 -2.04 0 -0.03 -0.23 0.03 -0.22 -0.03 0 0.03 -37.89 2.04c0,9.35 -10.38,86.07 -10.38,86.07l45.11 43.33z"/>
   <path class="fil6" d="M9012.11 418.76l-46.57 8.39 11.48 110.23 44 -39.85c0,0 -8.91,-69.42 -8.91,-78.77z"/>
   <path class="fil6" d="M8974.08 415.04l0 -0.03 -0.28 0.03 -0.28 -0.03 0 0.03 -37.78 2.07c0,3.05 -1.17,13.36 -2.66,25.87 9.46,14.09 38.81,40.03 57.1,40.03 15.21,0 15.49,-23.08 25.21,-33.38 -1.97,-15.38 -3.48,-28.96 -3.48,-32.52l-37.83 -2.07z"/>
   <path class="fil5" d="M9055.16 352.1c-7.17,55.72 -52.39,103.25 -79.3,103.25 -29.97,-0.03 -68.55,-30.53 -80.11,-101.76 -9.42,-58.55 5.31,-116.76 78.64,-116.76 68.78,0 88.32,56.87 80.77,115.27z"/>
   <path class="fil6" d="M9055.16 352.06c5.15,-58.51 -11.87,-114.97 -80.4,-115.23l0 218.4 1.1 0.09c26.91,0 72.89,-29.84 79.3,-103.26z"/>
   <path class="fil4" d="M8976.18 278.47c22.01,21.59 58.28,3.43 66.86,41.11 3.77,16.74 8.37,41.81 -3.53,92.08 -4.99,20.92 2.25,33 2.25,33l31.71 -99.56c0,0 -4.9,-78.2 -43.26,-103.28 -24.68,-16.18 -55.45,-12.92 -56.78,-9.48 -1.29,3.42 2.75,46.13 2.75,46.13z"/>
   <path class="fil3" d="M8975.66 278.14c-17.18,18.95 -56.42,2.1 -64.63,39.77 -3.03,13.42 -9.88,45.37 -0.35,80.49 11.26,41.63 0.17,51.53 0.17,51.53l-33.11 -104.83c0,0 4.49,-72.04 44.82,-100.65 25.06,-17.83 52.61,-17.4 52.84,-12.57 0.14,3.69 0.26,46.26 0.26,46.26z"/>
   <path class="fil3" d="M8918.49 356.57l0 13.85 1.44 1.87 39.67 0 1.43 -1.87 0 -13.85 -1.43 -1.82 -39.67 0 -1.44 1.82zm1.44 22.42c-4.76,-0.02 -8.18,-4.04 -8.18,-8.57l0 -13.85c0,-4.51 3.42,-8.52 8.18,-8.59l39.67 0c4.78,0.07 8.13,4.08 8.13,8.59l0 13.85c0,4.53 -3.35,8.55 -8.13,8.59l-39.67 -0.02z"/>
   <polygon class="fil3" points="8963.28,363.24 8987.39,363.24 8987.39,355.34 8963.28,355.34 "/>
   <polygon class="fil3" points="8901.28,352.04 8914,364.75 8913.73,353.38 8901.28,345.28 "/>
   <path class="fil4" d="M8991.27 356.56l0 13.86 1.45 1.87 39.67 0 1.41 -1.87 0 -13.86 -1.41 -1.81 -39.67 0 -1.45 1.81zm1.45 22.43c-4.76,-0.02 -8.13,-4.05 -8.13,-8.57l0 -13.86c0,-4.5 3.37,-8.51 8.13,-8.58l39.67 0c4.76,0.07 8.14,4.08 8.14,8.58l0 13.86c0,4.52 -3.38,8.55 -8.14,8.57l-39.67 0z"/>
   <polygon class="fil4" points="9038.63,352.84 9051.5,345.28 9050.91,351.71 9038.69,364.75 "/>
   <polygon class="fil7" points="8930.54,489.78 8806.94,514.69 8861.67,759.34 8834.38,863.29 8991.93,863.29 8976.06,518.32 "/>
   <polygon class="fil8" points="9005.59,490.89 9129.02,524.26 9075.3,761.37 9105.72,858.22 8970.35,858.22 8969.88,516.68 "/>
   <polygon class="fil9" points="8971.95,515.52 9021.5,480.23 9047.02,500.39 9010.04,556.96 "/>
   <polygon class="fil9" points="8971.95,515.52 8923.28,481.93 8900.78,495.94 8936.62,561.72 "/>
   <polygon class="fil4" points="8438.25,880.08 9496.67,880.08 9496.67,833.05 8438.25,833.05 "/>
   <path class="fil5" d="M8850.59 1018.86c4.3,-30.91 76.09,-94.27 117.77,-13.86 18.75,36.17 24.05,369.16 30.21,388.25 6.08,19.04 8.61,105.17 -5.23,123.88 -20.01,26.94 -82.58,26.16 -65.49,-83.61 22.35,-143.05 -88.58,-333.11 -77.26,-414.66z"/>
   <path class="fil10" d="M8928.78 1413.12c6.46,49.04 15.92,78.64 35.41,73.77 19.57,-4.89 37.68,-19.23 34.86,-78.08 5.72,22.57 12.37,62.69 12.69,74.03 0.96,27.69 -31.68,60.99 -52.64,59.08 -13.21,-1.2 -41.46,-28.52 -40.21,-50.41 1.22,-21.52 9.89,-78.39 9.89,-78.39z"/>
   <path class="fil6" d="M9087.49 999.14c-10.38,-29.45 -93.36,-77.16 -118.17,9.93 -11.13,39.13 50.18,366.48 47.98,386.45 -2.1,19.91 12.46,104.77 29.84,120.33 25.04,22.4 86.18,9.15 47.45,-95 -50.45,-135.67 20.31,-344.08 -7.1,-421.71z"/>
   <path class="fil10" d="M9089.62 1401.02c3.48,49.35 0.13,80.28 -20.01,79.37 -20.13,-0.91 -40.69,-11.32 -49.71,-69.53 -1.14,23.25 0.46,63.92 2.34,75.02 4.65,27.35 43.26,53.46 63.37,47.45 12.68,-3.85 34.99,-36.26 29.35,-57.48 -5.46,-20.83 -25.34,-74.83 -25.34,-74.83z"/>
   <polygon class="fil4" points="8508.84,1106.36 9432.85,1106.36 9432.85,893.53 8508.84,893.53 "/>
   <path class="fil6" d="M9128 778.65c-18.56,4 -93.09,39.45 -109.3,40.94 -19.04,-12.08 -51.55,-11.74 -51.55,-11.74 0,0 -27.77,6.4 -56.97,30.02 -8.64,6.94 44.1,-2.29 56.69,-2.42 12.64,-0.13 28.57,13.83 59.99,12.89 16.87,-0.51 119.48,-22.1 138.37,-24.71 18.84,-2.66 34.03,-60.45 -37.23,-44.98z"/>
   <path class="fil8" d="M9092.32 629.44l19 113.16c2.12,11.24 7.22,20.32 1.76,24.94 -10.68,8.95 -32.82,18.75 -35.29,30.21 0,0 3.32,-1.94 9.47,-1.67 16.33,0.81 42.51,10.76 27.44,36.42 0,0 -5.6,3.03 20.14,4.17l45.45 -5.29c31.91,-5.03 37.46,-39.13 29.41,-54.62l-79.38 -250.72c-8.1,-15.46 -47.45,88.68 -38,103.4z"/>
   <path class="fil5" d="M8808.6 783.03c18.45,4.66 91.7,42.74 107.79,44.79 19.45,-11.37 51.91,-9.89 51.91,-9.89 0,0 27.56,7.36 55.9,31.95 8.33,7.31 -43.98,-3.78 -56.6,-4.38 -12.57,-0.6 -28.94,12.81 -60.35,10.77 -16.94,-1.11 -118.7,-26.26 -137.45,-29.54 -18.73,-3.33 -31.89,-61.66 38.8,-43.7z"/>
   <path class="fil7" d="M8838.13 631.64l-19.07 113.21c-2.11,11.21 -7.11,20.28 -1.66,24.92 10.63,8.99 35.65,22.13 38.1,33.61 0,0 -6.19,-5.35 -12.32,-5.05 -16.35,0.78 -42.51,10.76 -27.43,36.42 0,0 5.56,3.05 -20.15,4.18l-48.76 -8.37c-31.88,-5.1 -39.24,-37.49 -31.08,-52.97l89.44 -260.84c8.19,-15.39 42.32,100.23 32.93,114.89z"/>
   <path class="fil10" d="M8674.02 820.75c0,3.08 -2.96,5.6 -6.73,5.6l-183.63 0c-3.77,0 -6.8,-2.52 -6.8,-5.6l0 -76.11c0,-3.06 3.03,-5.57 6.8,-5.57l183.63 0c3.77,0 6.73,2.51 6.73,5.57l0 76.11z"/>
   <path class="fil7" d="M8674.15 807.82c0,2.06 -2.76,3.64 -6.19,3.64l-169.2 0c-3.39,0 -6.17,-1.58 -6.17,-3.64l0 -50.19c0,-2.07 2.78,-3.7 6.17,-3.7l169.2 0c3.43,0 6.19,1.63 6.19,3.7l0 50.19z"/>
   <path class="fil9" d="M8493.81 739.32c0,3.07 3,5.59 6.7,5.59l183.73 0c3.68,0 6.7,-2.52 6.7,-5.59l0 -64.97c0,-3.06 -3.02,-5.59 -6.7,-5.59l-183.73 0c-3.7,0 -6.7,2.53 -6.7,5.59l0 64.97z"/>
   <path class="fil8" d="M8493.71 726.38c0,2 2.78,3.65 6.16,3.65l169.19 0c3.42,0 6.23,-1.65 6.23,-3.65l0 -39.07c0,-2.05 -2.81,-3.69 -6.23,-3.69l-169.19 0c-3.38,0 -6.16,1.64 -6.16,3.69l0 39.07z"/>
   <path class="fil10" d="M8493.81 593.63c0,3.06 3,5.55 6.7,5.55l183.73 0c3.68,0 6.7,-2.49 6.7,-5.55l0 -64.96c0,-3.08 -3.02,-5.58 -6.7,-5.58l-183.73 0c-3.7,0 -6.7,2.5 -6.7,5.58l0 64.96z"/>
   <path class="fil7" d="M8493.71 580.69c0,1.99 2.78,3.64 6.16,3.64l169.19 0c3.42,0 6.23,-1.65 6.23,-3.64l0 -39.09c0,-2.06 -2.81,-3.68 -6.23,-3.68l-169.19 0c-3.38,0 -6.16,1.62 -6.16,3.68l0 39.09z"/>
   <path class="fil11" d="M8669 669.43c0,3.1 -2.99,5.56 -6.75,5.56l-183.64 0c-3.72,0 -6.74,-2.46 -6.74,-5.56l0 -64.93c0,-3.06 3.02,-5.57 6.74,-5.57l183.64 0c3.76,0 6.75,2.51 6.75,5.57l0 64.93z"/>
   <path class="fil7" d="M8669.06 659.15c0,2.43 -2.78,4.32 -6.28,4.32l-173.11 0c-3.49,0 -6.33,-1.89 -6.33,-4.32l0 -46.1c0,-2.39 2.84,-4.31 6.33,-4.31l173.11 0c3.5,0 6.28,1.92 6.28,4.31l0 46.1z"/>
   <path class="fil10" d="M9449.1 818.51c0,3.07 -3.02,5.55 -6.75,5.55l-183.66 0c-3.74,0 -6.72,-2.48 -6.72,-5.55l0 -76.09c0,-3.07 2.98,-5.59 6.72,-5.59l183.66 0c3.73,0 6.75,2.52 6.75,5.59l0 76.09z"/>
   <path class="fil7" d="M9449.16 805.56c0,2.02 -2.74,3.67 -6.17,3.67l-169.2 0c-3.36,0 -6.15,-1.65 -6.15,-3.67l0 -50.19c0,-2.02 2.79,-3.64 6.15,-3.64l169.2 0c3.43,0 6.17,1.62 6.17,3.64l0 50.19z"/>
   <path class="fil9" d="M9268.82 737.09c0,3.09 3.08,5.58 6.77,5.58l183.64 0c3.78,0 6.77,-2.49 6.77,-5.58l0 -64.94c0,-3.13 -2.99,-5.58 -6.77,-5.58l-183.64 0c-3.69,0 -6.77,2.45 -6.77,5.58l0 64.94z"/>
   <path class="fil8" d="M9268.76 724.15c0,2 2.77,3.66 6.2,3.66l169.17 0c3.41,0 6.2,-1.66 6.2,-3.66l0 -39.1c0,-2 -2.79,-3.64 -6.2,-3.64l-169.17 0c-3.43,0 -6.2,1.64 -6.2,3.64l0 39.1z"/>
   <path class="fil11" d="M9444.06 667.2c0,3.08 -3.05,5.57 -6.7,5.57l-183.72 0c-3.72,0 -6.74,-2.49 -6.74,-5.57l0 -64.94c0,-3.08 3.02,-5.6 6.74,-5.6l183.72 0c3.65,0 6.7,2.52 6.7,5.6l0 64.94z"/>
   <path class="fil7" d="M9444.13 656.91c0,2.42 -2.83,4.31 -6.28,4.31l-173.09 0c-3.47,0 -6.35,-1.89 -6.35,-4.31l0 -46.1c0,-2.39 2.88,-4.32 6.35,-4.32l173.09 0c3.45,0 6.28,1.93 6.28,4.32l0 46.1z"/>
   <polygon class="fil4" points="8545.87,1487.58 8602.19,1487.58 8602.19,1118.44 8545.87,1118.44 "/>
   <polygon class="fil4" points="9361.91,1487.58 9418.29,1487.58 9418.29,1118.44 9361.91,1118.44 "/>
  </g>
 </g>
</svg>
